<?xml version="1.0" encoding="UTF-8" standalone="no"?>
<svg
   xmlns:dc="http://purl.org/dc/elements/1.1/"
   xmlns:cc="http://creativecommons.org/ns#"
   xmlns:rdf="http://www.w3.org/1999/02/22-rdf-syntax-ns#"
   xmlns:svg="http://www.w3.org/2000/svg"
   xmlns="http://www.w3.org/2000/svg"
   viewBox="0 0 250 250"
   height="250"
   width="250"
   xml:space="preserve"
   version="1.1"
   id="svg2"><metadata
     id="metadata8"><rdf:RDF><cc:Work
         rdf:about=""><dc:format>image/svg+xml</dc:format><dc:type
           rdf:resource="http://purl.org/dc/dcmitype/StillImage" /></cc:Work></rdf:RDF></metadata><defs
     id="defs6" /><g
     transform="matrix(1.25,0,0,-1.25,0,250)"
     id="g10"><g
       transform="translate(190.3623,100.52)"
       id="g12"><path
         id="path14"
         style="fill:#00b0f0;fill-opacity:1;fill-rule:nonzero;stroke:none"
         d="M 0,0 -47.916,-10.29 -54.57,0 -47.916,10.29 0,0 Z" /></g><g
       transform="translate(100.3594,65.0879)"
       id="g16"><path
         id="path18"
         style="fill:#00b0f0;fill-opacity:1;fill-rule:nonzero;stroke:none"
         d="M 0,0 10.29,-6.654 0,-54.564 -10.29,-6.654 0,0 Z" /></g><g
       transform="translate(100.3594,190.5166)"
       id="g20"><path
         id="path22"
         style="fill:#00b0f0;fill-opacity:1;fill-rule:nonzero;stroke:none"
         d="M 0,0 10.29,-47.909 0,-54.564 -10.29,-47.909 0,0 Z" /></g><g
       transform="translate(58.272,110.8101)"
       id="g24"><path
         id="path26"
         style="fill:#00b0f0;fill-opacity:1;fill-rule:nonzero;stroke:none"
         d="M 0,0 6.655,-10.29 0,-20.58 -47.909,-10.29 0,0 Z" /></g><g
       transform="translate(164.001,164.1538)"
       id="g28"><path
         id="path30"
         style="fill:#00b0f0;fill-opacity:1;fill-rule:nonzero;stroke:none"
         d="M 0,0 -41.139,-63.63 0,-127.268 l -63.638,41.14 -63.637,-41.14 41.138,63.638 L -127.275,0 -63.638,-41.13 0,0 Z" /></g></g></svg>