G04 MADE WITH FRITZING*
G04 WWW.FRITZING.ORG*
G04 DOUBLE SIDED*
G04 HOLES PLATED*
G04 CONTOUR ON CENTER OF CONTOUR VECTOR*
%ASAXBY*%
%FSLAX23Y23*%
%MOIN*%
%OFA0B0*%
%SFA1.0B1.0*%
%ADD10R,0.001000X0.001000*%
%LNSILK0*%
G90*
G70*
G54D10*
X0Y394D02*
X392Y394D01*
X0Y393D02*
X392Y393D01*
X0Y392D02*
X392Y392D01*
X0Y391D02*
X392Y391D01*
X0Y390D02*
X392Y390D01*
X0Y389D02*
X392Y389D01*
X0Y388D02*
X392Y388D01*
X0Y387D02*
X392Y387D01*
X0Y386D02*
X7Y386D01*
X385Y386D02*
X392Y386D01*
X0Y385D02*
X7Y385D01*
X385Y385D02*
X392Y385D01*
X0Y384D02*
X7Y384D01*
X385Y384D02*
X392Y384D01*
X0Y383D02*
X7Y383D01*
X385Y383D02*
X392Y383D01*
X0Y382D02*
X7Y382D01*
X385Y382D02*
X392Y382D01*
X0Y381D02*
X7Y381D01*
X385Y381D02*
X392Y381D01*
X0Y380D02*
X7Y380D01*
X385Y380D02*
X392Y380D01*
X0Y379D02*
X7Y379D01*
X385Y379D02*
X392Y379D01*
X0Y378D02*
X7Y378D01*
X385Y378D02*
X392Y378D01*
X0Y377D02*
X7Y377D01*
X385Y377D02*
X392Y377D01*
X0Y376D02*
X7Y376D01*
X385Y376D02*
X392Y376D01*
X0Y375D02*
X7Y375D01*
X385Y375D02*
X392Y375D01*
X0Y374D02*
X7Y374D01*
X385Y374D02*
X392Y374D01*
X0Y373D02*
X7Y373D01*
X385Y373D02*
X392Y373D01*
X0Y372D02*
X7Y372D01*
X385Y372D02*
X392Y372D01*
X0Y371D02*
X7Y371D01*
X385Y371D02*
X392Y371D01*
X0Y370D02*
X7Y370D01*
X385Y370D02*
X392Y370D01*
X0Y369D02*
X7Y369D01*
X385Y369D02*
X392Y369D01*
X0Y368D02*
X7Y368D01*
X385Y368D02*
X392Y368D01*
X0Y367D02*
X7Y367D01*
X385Y367D02*
X392Y367D01*
X0Y366D02*
X7Y366D01*
X385Y366D02*
X392Y366D01*
X0Y365D02*
X7Y365D01*
X385Y365D02*
X392Y365D01*
X0Y364D02*
X7Y364D01*
X385Y364D02*
X392Y364D01*
X0Y363D02*
X7Y363D01*
X385Y363D02*
X392Y363D01*
X0Y362D02*
X7Y362D01*
X385Y362D02*
X392Y362D01*
X0Y361D02*
X7Y361D01*
X385Y361D02*
X392Y361D01*
X0Y360D02*
X7Y360D01*
X385Y360D02*
X392Y360D01*
X0Y359D02*
X7Y359D01*
X385Y359D02*
X392Y359D01*
X0Y358D02*
X7Y358D01*
X385Y358D02*
X392Y358D01*
X0Y357D02*
X7Y357D01*
X385Y357D02*
X392Y357D01*
X0Y356D02*
X7Y356D01*
X385Y356D02*
X392Y356D01*
X0Y355D02*
X7Y355D01*
X385Y355D02*
X392Y355D01*
X0Y354D02*
X7Y354D01*
X385Y354D02*
X392Y354D01*
X0Y353D02*
X7Y353D01*
X385Y353D02*
X392Y353D01*
X0Y352D02*
X7Y352D01*
X385Y352D02*
X392Y352D01*
X0Y351D02*
X7Y351D01*
X385Y351D02*
X392Y351D01*
X0Y350D02*
X7Y350D01*
X385Y350D02*
X392Y350D01*
X0Y349D02*
X7Y349D01*
X385Y349D02*
X392Y349D01*
X0Y348D02*
X7Y348D01*
X385Y348D02*
X392Y348D01*
X0Y347D02*
X7Y347D01*
X385Y347D02*
X392Y347D01*
X0Y346D02*
X7Y346D01*
X385Y346D02*
X392Y346D01*
X0Y345D02*
X7Y345D01*
X385Y345D02*
X392Y345D01*
X0Y344D02*
X7Y344D01*
X385Y344D02*
X392Y344D01*
X0Y343D02*
X7Y343D01*
X385Y343D02*
X392Y343D01*
X0Y342D02*
X7Y342D01*
X385Y342D02*
X392Y342D01*
X0Y341D02*
X7Y341D01*
X385Y341D02*
X392Y341D01*
X0Y340D02*
X7Y340D01*
X385Y340D02*
X392Y340D01*
X0Y339D02*
X7Y339D01*
X385Y339D02*
X392Y339D01*
X0Y338D02*
X7Y338D01*
X385Y338D02*
X392Y338D01*
X0Y337D02*
X7Y337D01*
X385Y337D02*
X392Y337D01*
X0Y336D02*
X7Y336D01*
X385Y336D02*
X392Y336D01*
X0Y335D02*
X7Y335D01*
X385Y335D02*
X392Y335D01*
X0Y334D02*
X7Y334D01*
X385Y334D02*
X392Y334D01*
X0Y333D02*
X7Y333D01*
X385Y333D02*
X392Y333D01*
X0Y332D02*
X7Y332D01*
X385Y332D02*
X392Y332D01*
X0Y331D02*
X7Y331D01*
X385Y331D02*
X392Y331D01*
X0Y330D02*
X7Y330D01*
X385Y330D02*
X392Y330D01*
X0Y329D02*
X7Y329D01*
X385Y329D02*
X392Y329D01*
X0Y328D02*
X7Y328D01*
X385Y328D02*
X392Y328D01*
X0Y327D02*
X7Y327D01*
X385Y327D02*
X392Y327D01*
X0Y326D02*
X7Y326D01*
X385Y326D02*
X392Y326D01*
X0Y325D02*
X7Y325D01*
X385Y325D02*
X392Y325D01*
X0Y324D02*
X7Y324D01*
X385Y324D02*
X392Y324D01*
X0Y323D02*
X7Y323D01*
X385Y323D02*
X392Y323D01*
X0Y322D02*
X7Y322D01*
X385Y322D02*
X392Y322D01*
X0Y321D02*
X7Y321D01*
X385Y321D02*
X392Y321D01*
X0Y320D02*
X7Y320D01*
X385Y320D02*
X392Y320D01*
X0Y319D02*
X7Y319D01*
X385Y319D02*
X392Y319D01*
X0Y318D02*
X7Y318D01*
X385Y318D02*
X392Y318D01*
X0Y317D02*
X7Y317D01*
X385Y317D02*
X392Y317D01*
X0Y316D02*
X7Y316D01*
X385Y316D02*
X392Y316D01*
X0Y315D02*
X7Y315D01*
X385Y315D02*
X392Y315D01*
X0Y314D02*
X7Y314D01*
X385Y314D02*
X392Y314D01*
X0Y313D02*
X7Y313D01*
X385Y313D02*
X392Y313D01*
X0Y312D02*
X7Y312D01*
X385Y312D02*
X392Y312D01*
X0Y311D02*
X7Y311D01*
X385Y311D02*
X392Y311D01*
X0Y310D02*
X7Y310D01*
X385Y310D02*
X392Y310D01*
X0Y309D02*
X7Y309D01*
X385Y309D02*
X392Y309D01*
X0Y308D02*
X7Y308D01*
X385Y308D02*
X392Y308D01*
X0Y307D02*
X7Y307D01*
X385Y307D02*
X392Y307D01*
X0Y306D02*
X7Y306D01*
X385Y306D02*
X392Y306D01*
X0Y305D02*
X7Y305D01*
X385Y305D02*
X392Y305D01*
X0Y304D02*
X7Y304D01*
X385Y304D02*
X392Y304D01*
X0Y303D02*
X7Y303D01*
X385Y303D02*
X392Y303D01*
X0Y302D02*
X7Y302D01*
X385Y302D02*
X392Y302D01*
X0Y301D02*
X7Y301D01*
X385Y301D02*
X392Y301D01*
X0Y300D02*
X7Y300D01*
X385Y300D02*
X392Y300D01*
X0Y299D02*
X7Y299D01*
X385Y299D02*
X392Y299D01*
X0Y298D02*
X7Y298D01*
X385Y298D02*
X392Y298D01*
X0Y297D02*
X7Y297D01*
X385Y297D02*
X392Y297D01*
X0Y296D02*
X7Y296D01*
X385Y296D02*
X392Y296D01*
X0Y295D02*
X7Y295D01*
X385Y295D02*
X392Y295D01*
X0Y294D02*
X7Y294D01*
X385Y294D02*
X392Y294D01*
X0Y293D02*
X7Y293D01*
X385Y293D02*
X392Y293D01*
X0Y292D02*
X7Y292D01*
X385Y292D02*
X392Y292D01*
X0Y291D02*
X7Y291D01*
X385Y291D02*
X392Y291D01*
X0Y290D02*
X7Y290D01*
X385Y290D02*
X392Y290D01*
X0Y289D02*
X7Y289D01*
X385Y289D02*
X392Y289D01*
X0Y288D02*
X7Y288D01*
X385Y288D02*
X392Y288D01*
X0Y287D02*
X7Y287D01*
X385Y287D02*
X392Y287D01*
X0Y286D02*
X7Y286D01*
X385Y286D02*
X392Y286D01*
X0Y285D02*
X7Y285D01*
X385Y285D02*
X392Y285D01*
X0Y284D02*
X7Y284D01*
X385Y284D02*
X392Y284D01*
X0Y283D02*
X7Y283D01*
X385Y283D02*
X392Y283D01*
X0Y282D02*
X7Y282D01*
X385Y282D02*
X392Y282D01*
X0Y281D02*
X7Y281D01*
X385Y281D02*
X392Y281D01*
X0Y280D02*
X7Y280D01*
X385Y280D02*
X392Y280D01*
X0Y279D02*
X7Y279D01*
X385Y279D02*
X392Y279D01*
X0Y278D02*
X7Y278D01*
X385Y278D02*
X392Y278D01*
X0Y277D02*
X7Y277D01*
X385Y277D02*
X392Y277D01*
X0Y276D02*
X7Y276D01*
X385Y276D02*
X392Y276D01*
X0Y275D02*
X7Y275D01*
X385Y275D02*
X392Y275D01*
X0Y274D02*
X7Y274D01*
X385Y274D02*
X392Y274D01*
X0Y273D02*
X7Y273D01*
X385Y273D02*
X392Y273D01*
X0Y272D02*
X7Y272D01*
X385Y272D02*
X392Y272D01*
X0Y271D02*
X7Y271D01*
X385Y271D02*
X392Y271D01*
X0Y270D02*
X7Y270D01*
X385Y270D02*
X392Y270D01*
X0Y269D02*
X7Y269D01*
X385Y269D02*
X392Y269D01*
X0Y268D02*
X7Y268D01*
X385Y268D02*
X392Y268D01*
X0Y267D02*
X7Y267D01*
X385Y267D02*
X392Y267D01*
X0Y266D02*
X7Y266D01*
X385Y266D02*
X392Y266D01*
X0Y265D02*
X7Y265D01*
X385Y265D02*
X392Y265D01*
X0Y264D02*
X7Y264D01*
X385Y264D02*
X392Y264D01*
X0Y263D02*
X7Y263D01*
X385Y263D02*
X392Y263D01*
X0Y262D02*
X7Y262D01*
X385Y262D02*
X392Y262D01*
X0Y261D02*
X7Y261D01*
X385Y261D02*
X392Y261D01*
X0Y260D02*
X7Y260D01*
X385Y260D02*
X392Y260D01*
X0Y259D02*
X7Y259D01*
X385Y259D02*
X392Y259D01*
X0Y258D02*
X7Y258D01*
X385Y258D02*
X392Y258D01*
X0Y257D02*
X7Y257D01*
X385Y257D02*
X392Y257D01*
X0Y256D02*
X7Y256D01*
X385Y256D02*
X392Y256D01*
X0Y255D02*
X7Y255D01*
X385Y255D02*
X392Y255D01*
X0Y254D02*
X7Y254D01*
X385Y254D02*
X392Y254D01*
X0Y253D02*
X7Y253D01*
X385Y253D02*
X392Y253D01*
X0Y252D02*
X7Y252D01*
X385Y252D02*
X392Y252D01*
X0Y251D02*
X7Y251D01*
X385Y251D02*
X392Y251D01*
X0Y250D02*
X7Y250D01*
X385Y250D02*
X392Y250D01*
X0Y249D02*
X7Y249D01*
X385Y249D02*
X392Y249D01*
X0Y248D02*
X7Y248D01*
X385Y248D02*
X392Y248D01*
X0Y247D02*
X7Y247D01*
X385Y247D02*
X392Y247D01*
X0Y246D02*
X7Y246D01*
X385Y246D02*
X392Y246D01*
X0Y245D02*
X7Y245D01*
X385Y245D02*
X392Y245D01*
X0Y244D02*
X7Y244D01*
X385Y244D02*
X392Y244D01*
X0Y243D02*
X7Y243D01*
X385Y243D02*
X392Y243D01*
X0Y242D02*
X7Y242D01*
X385Y242D02*
X392Y242D01*
X0Y241D02*
X7Y241D01*
X385Y241D02*
X392Y241D01*
X0Y240D02*
X7Y240D01*
X385Y240D02*
X392Y240D01*
X0Y239D02*
X7Y239D01*
X385Y239D02*
X392Y239D01*
X0Y238D02*
X7Y238D01*
X385Y238D02*
X392Y238D01*
X0Y237D02*
X7Y237D01*
X385Y237D02*
X392Y237D01*
X0Y236D02*
X7Y236D01*
X385Y236D02*
X392Y236D01*
X0Y235D02*
X7Y235D01*
X385Y235D02*
X392Y235D01*
X0Y234D02*
X7Y234D01*
X385Y234D02*
X392Y234D01*
X0Y233D02*
X7Y233D01*
X385Y233D02*
X392Y233D01*
X0Y232D02*
X7Y232D01*
X385Y232D02*
X392Y232D01*
X0Y231D02*
X7Y231D01*
X385Y231D02*
X392Y231D01*
X0Y230D02*
X7Y230D01*
X385Y230D02*
X392Y230D01*
X0Y229D02*
X7Y229D01*
X385Y229D02*
X392Y229D01*
X0Y228D02*
X7Y228D01*
X385Y228D02*
X392Y228D01*
X0Y227D02*
X7Y227D01*
X385Y227D02*
X392Y227D01*
X0Y226D02*
X7Y226D01*
X385Y226D02*
X392Y226D01*
X0Y225D02*
X7Y225D01*
X385Y225D02*
X392Y225D01*
X0Y224D02*
X7Y224D01*
X385Y224D02*
X392Y224D01*
X0Y223D02*
X7Y223D01*
X385Y223D02*
X392Y223D01*
X0Y222D02*
X7Y222D01*
X385Y222D02*
X392Y222D01*
X0Y221D02*
X7Y221D01*
X385Y221D02*
X392Y221D01*
X0Y220D02*
X7Y220D01*
X385Y220D02*
X392Y220D01*
X0Y219D02*
X7Y219D01*
X385Y219D02*
X392Y219D01*
X0Y218D02*
X7Y218D01*
X385Y218D02*
X392Y218D01*
X0Y217D02*
X7Y217D01*
X385Y217D02*
X392Y217D01*
X0Y216D02*
X7Y216D01*
X385Y216D02*
X392Y216D01*
X0Y215D02*
X7Y215D01*
X385Y215D02*
X392Y215D01*
X0Y214D02*
X7Y214D01*
X385Y214D02*
X392Y214D01*
X0Y213D02*
X7Y213D01*
X385Y213D02*
X392Y213D01*
X0Y212D02*
X7Y212D01*
X385Y212D02*
X392Y212D01*
X0Y211D02*
X7Y211D01*
X385Y211D02*
X392Y211D01*
X0Y210D02*
X7Y210D01*
X385Y210D02*
X392Y210D01*
X0Y209D02*
X7Y209D01*
X385Y209D02*
X392Y209D01*
X0Y208D02*
X7Y208D01*
X385Y208D02*
X392Y208D01*
X0Y207D02*
X7Y207D01*
X385Y207D02*
X392Y207D01*
X0Y206D02*
X7Y206D01*
X385Y206D02*
X392Y206D01*
X0Y205D02*
X7Y205D01*
X385Y205D02*
X392Y205D01*
X0Y204D02*
X7Y204D01*
X385Y204D02*
X392Y204D01*
X0Y203D02*
X7Y203D01*
X385Y203D02*
X392Y203D01*
X0Y202D02*
X7Y202D01*
X385Y202D02*
X392Y202D01*
X0Y201D02*
X7Y201D01*
X385Y201D02*
X392Y201D01*
X0Y200D02*
X7Y200D01*
X385Y200D02*
X392Y200D01*
X0Y199D02*
X7Y199D01*
X385Y199D02*
X392Y199D01*
X0Y198D02*
X7Y198D01*
X385Y198D02*
X392Y198D01*
X0Y197D02*
X7Y197D01*
X385Y197D02*
X392Y197D01*
X0Y196D02*
X7Y196D01*
X385Y196D02*
X392Y196D01*
X0Y195D02*
X7Y195D01*
X385Y195D02*
X392Y195D01*
X0Y194D02*
X7Y194D01*
X385Y194D02*
X392Y194D01*
X0Y193D02*
X7Y193D01*
X385Y193D02*
X392Y193D01*
X0Y192D02*
X7Y192D01*
X385Y192D02*
X392Y192D01*
X0Y191D02*
X7Y191D01*
X385Y191D02*
X392Y191D01*
X0Y190D02*
X7Y190D01*
X385Y190D02*
X392Y190D01*
X0Y189D02*
X7Y189D01*
X385Y189D02*
X392Y189D01*
X0Y188D02*
X7Y188D01*
X385Y188D02*
X392Y188D01*
X0Y187D02*
X7Y187D01*
X385Y187D02*
X392Y187D01*
X0Y186D02*
X7Y186D01*
X385Y186D02*
X392Y186D01*
X0Y185D02*
X7Y185D01*
X385Y185D02*
X392Y185D01*
X0Y184D02*
X7Y184D01*
X385Y184D02*
X392Y184D01*
X0Y183D02*
X7Y183D01*
X385Y183D02*
X392Y183D01*
X0Y182D02*
X7Y182D01*
X385Y182D02*
X392Y182D01*
X0Y181D02*
X7Y181D01*
X385Y181D02*
X392Y181D01*
X0Y180D02*
X7Y180D01*
X385Y180D02*
X392Y180D01*
X0Y179D02*
X7Y179D01*
X385Y179D02*
X392Y179D01*
X0Y178D02*
X7Y178D01*
X385Y178D02*
X392Y178D01*
X0Y177D02*
X7Y177D01*
X385Y177D02*
X392Y177D01*
X0Y176D02*
X7Y176D01*
X385Y176D02*
X392Y176D01*
X0Y175D02*
X7Y175D01*
X385Y175D02*
X392Y175D01*
X0Y174D02*
X7Y174D01*
X385Y174D02*
X392Y174D01*
X0Y173D02*
X7Y173D01*
X385Y173D02*
X392Y173D01*
X0Y172D02*
X7Y172D01*
X385Y172D02*
X392Y172D01*
X0Y171D02*
X7Y171D01*
X385Y171D02*
X392Y171D01*
X0Y170D02*
X7Y170D01*
X385Y170D02*
X392Y170D01*
X0Y169D02*
X7Y169D01*
X385Y169D02*
X392Y169D01*
X0Y168D02*
X7Y168D01*
X385Y168D02*
X392Y168D01*
X0Y167D02*
X7Y167D01*
X385Y167D02*
X392Y167D01*
X0Y166D02*
X7Y166D01*
X385Y166D02*
X392Y166D01*
X0Y165D02*
X7Y165D01*
X385Y165D02*
X392Y165D01*
X0Y164D02*
X7Y164D01*
X385Y164D02*
X392Y164D01*
X0Y163D02*
X7Y163D01*
X385Y163D02*
X392Y163D01*
X0Y162D02*
X7Y162D01*
X385Y162D02*
X392Y162D01*
X0Y161D02*
X7Y161D01*
X385Y161D02*
X392Y161D01*
X0Y160D02*
X7Y160D01*
X385Y160D02*
X392Y160D01*
X0Y159D02*
X7Y159D01*
X385Y159D02*
X392Y159D01*
X0Y158D02*
X7Y158D01*
X385Y158D02*
X392Y158D01*
X0Y157D02*
X7Y157D01*
X385Y157D02*
X392Y157D01*
X0Y156D02*
X7Y156D01*
X385Y156D02*
X392Y156D01*
X0Y155D02*
X7Y155D01*
X385Y155D02*
X392Y155D01*
X0Y154D02*
X7Y154D01*
X385Y154D02*
X392Y154D01*
X0Y153D02*
X7Y153D01*
X385Y153D02*
X392Y153D01*
X0Y152D02*
X7Y152D01*
X385Y152D02*
X392Y152D01*
X0Y151D02*
X7Y151D01*
X385Y151D02*
X392Y151D01*
X0Y150D02*
X7Y150D01*
X385Y150D02*
X392Y150D01*
X0Y149D02*
X7Y149D01*
X385Y149D02*
X392Y149D01*
X0Y148D02*
X7Y148D01*
X385Y148D02*
X392Y148D01*
X0Y147D02*
X7Y147D01*
X385Y147D02*
X392Y147D01*
X0Y146D02*
X7Y146D01*
X385Y146D02*
X392Y146D01*
X0Y145D02*
X7Y145D01*
X385Y145D02*
X392Y145D01*
X0Y144D02*
X7Y144D01*
X385Y144D02*
X392Y144D01*
X0Y143D02*
X7Y143D01*
X385Y143D02*
X392Y143D01*
X0Y142D02*
X7Y142D01*
X385Y142D02*
X392Y142D01*
X0Y141D02*
X7Y141D01*
X385Y141D02*
X392Y141D01*
X0Y140D02*
X7Y140D01*
X385Y140D02*
X392Y140D01*
X0Y139D02*
X7Y139D01*
X385Y139D02*
X392Y139D01*
X0Y138D02*
X7Y138D01*
X385Y138D02*
X392Y138D01*
X0Y137D02*
X7Y137D01*
X385Y137D02*
X392Y137D01*
X0Y136D02*
X7Y136D01*
X385Y136D02*
X392Y136D01*
X0Y135D02*
X7Y135D01*
X385Y135D02*
X392Y135D01*
X0Y134D02*
X7Y134D01*
X385Y134D02*
X392Y134D01*
X0Y133D02*
X7Y133D01*
X385Y133D02*
X392Y133D01*
X0Y132D02*
X7Y132D01*
X385Y132D02*
X392Y132D01*
X0Y131D02*
X7Y131D01*
X385Y131D02*
X392Y131D01*
X0Y130D02*
X7Y130D01*
X385Y130D02*
X392Y130D01*
X0Y129D02*
X7Y129D01*
X385Y129D02*
X392Y129D01*
X0Y128D02*
X7Y128D01*
X385Y128D02*
X392Y128D01*
X0Y127D02*
X7Y127D01*
X385Y127D02*
X392Y127D01*
X0Y126D02*
X7Y126D01*
X385Y126D02*
X392Y126D01*
X0Y125D02*
X7Y125D01*
X385Y125D02*
X392Y125D01*
X0Y124D02*
X7Y124D01*
X385Y124D02*
X392Y124D01*
X0Y123D02*
X7Y123D01*
X385Y123D02*
X392Y123D01*
X0Y122D02*
X7Y122D01*
X385Y122D02*
X392Y122D01*
X0Y121D02*
X7Y121D01*
X385Y121D02*
X392Y121D01*
X0Y120D02*
X7Y120D01*
X385Y120D02*
X392Y120D01*
X0Y119D02*
X7Y119D01*
X385Y119D02*
X392Y119D01*
X0Y118D02*
X7Y118D01*
X385Y118D02*
X392Y118D01*
X0Y117D02*
X7Y117D01*
X385Y117D02*
X392Y117D01*
X0Y116D02*
X7Y116D01*
X385Y116D02*
X392Y116D01*
X0Y115D02*
X7Y115D01*
X385Y115D02*
X392Y115D01*
X0Y114D02*
X7Y114D01*
X385Y114D02*
X392Y114D01*
X0Y113D02*
X7Y113D01*
X385Y113D02*
X392Y113D01*
X0Y112D02*
X7Y112D01*
X385Y112D02*
X392Y112D01*
X0Y111D02*
X7Y111D01*
X385Y111D02*
X392Y111D01*
X0Y110D02*
X7Y110D01*
X385Y110D02*
X392Y110D01*
X0Y109D02*
X7Y109D01*
X385Y109D02*
X392Y109D01*
X0Y108D02*
X7Y108D01*
X385Y108D02*
X392Y108D01*
X0Y107D02*
X7Y107D01*
X385Y107D02*
X392Y107D01*
X0Y106D02*
X7Y106D01*
X385Y106D02*
X392Y106D01*
X0Y105D02*
X7Y105D01*
X385Y105D02*
X392Y105D01*
X0Y104D02*
X7Y104D01*
X385Y104D02*
X392Y104D01*
X0Y103D02*
X7Y103D01*
X385Y103D02*
X392Y103D01*
X0Y102D02*
X7Y102D01*
X385Y102D02*
X392Y102D01*
X0Y101D02*
X7Y101D01*
X385Y101D02*
X392Y101D01*
X0Y100D02*
X7Y100D01*
X385Y100D02*
X392Y100D01*
X0Y99D02*
X7Y99D01*
X385Y99D02*
X392Y99D01*
X0Y98D02*
X7Y98D01*
X385Y98D02*
X392Y98D01*
X0Y97D02*
X7Y97D01*
X385Y97D02*
X392Y97D01*
X0Y96D02*
X7Y96D01*
X385Y96D02*
X392Y96D01*
X0Y95D02*
X7Y95D01*
X385Y95D02*
X392Y95D01*
X0Y94D02*
X7Y94D01*
X385Y94D02*
X392Y94D01*
X0Y93D02*
X7Y93D01*
X385Y93D02*
X392Y93D01*
X0Y92D02*
X7Y92D01*
X385Y92D02*
X392Y92D01*
X0Y91D02*
X7Y91D01*
X385Y91D02*
X392Y91D01*
X0Y90D02*
X7Y90D01*
X385Y90D02*
X392Y90D01*
X0Y89D02*
X7Y89D01*
X385Y89D02*
X392Y89D01*
X0Y88D02*
X7Y88D01*
X385Y88D02*
X392Y88D01*
X0Y87D02*
X7Y87D01*
X385Y87D02*
X392Y87D01*
X0Y86D02*
X7Y86D01*
X385Y86D02*
X392Y86D01*
X0Y85D02*
X7Y85D01*
X385Y85D02*
X392Y85D01*
X0Y84D02*
X7Y84D01*
X385Y84D02*
X392Y84D01*
X0Y83D02*
X7Y83D01*
X385Y83D02*
X392Y83D01*
X0Y82D02*
X7Y82D01*
X385Y82D02*
X392Y82D01*
X0Y81D02*
X7Y81D01*
X385Y81D02*
X392Y81D01*
X0Y80D02*
X7Y80D01*
X385Y80D02*
X392Y80D01*
X0Y79D02*
X7Y79D01*
X385Y79D02*
X392Y79D01*
X0Y78D02*
X7Y78D01*
X385Y78D02*
X392Y78D01*
X0Y77D02*
X7Y77D01*
X385Y77D02*
X392Y77D01*
X0Y76D02*
X7Y76D01*
X385Y76D02*
X392Y76D01*
X0Y75D02*
X7Y75D01*
X385Y75D02*
X392Y75D01*
X0Y74D02*
X7Y74D01*
X385Y74D02*
X392Y74D01*
X0Y73D02*
X7Y73D01*
X385Y73D02*
X392Y73D01*
X0Y72D02*
X7Y72D01*
X385Y72D02*
X392Y72D01*
X0Y71D02*
X7Y71D01*
X386Y71D02*
X392Y71D01*
X0Y70D02*
X7Y70D01*
X386Y70D02*
X392Y70D01*
X0Y69D02*
X7Y69D01*
X387Y69D02*
X392Y69D01*
X0Y68D02*
X7Y68D01*
X387Y68D02*
X392Y68D01*
X0Y67D02*
X7Y67D01*
X388Y67D02*
X392Y67D01*
X0Y66D02*
X7Y66D01*
X388Y66D02*
X392Y66D01*
X0Y65D02*
X7Y65D01*
X388Y65D02*
X392Y65D01*
X0Y64D02*
X7Y64D01*
X389Y64D02*
X392Y64D01*
X0Y63D02*
X7Y63D01*
X389Y63D02*
X392Y63D01*
X0Y62D02*
X7Y62D01*
X389Y62D02*
X392Y62D01*
X0Y61D02*
X7Y61D01*
X390Y61D02*
X392Y61D01*
X0Y60D02*
X6Y60D01*
X390Y60D02*
X392Y60D01*
X0Y59D02*
X6Y59D01*
X390Y59D02*
X392Y59D01*
X0Y58D02*
X6Y58D01*
X390Y58D02*
X392Y58D01*
X0Y57D02*
X6Y57D01*
X390Y57D02*
X392Y57D01*
X0Y56D02*
X6Y56D01*
X391Y56D02*
X392Y56D01*
X0Y55D02*
X6Y55D01*
X391Y55D02*
X392Y55D01*
X0Y54D02*
X6Y54D01*
X391Y54D02*
X392Y54D01*
X0Y53D02*
X6Y53D01*
X391Y53D02*
X392Y53D01*
X0Y52D02*
X6Y52D01*
X391Y52D02*
X392Y52D01*
X0Y51D02*
X6Y51D01*
X391Y51D02*
X392Y51D01*
X0Y50D02*
X6Y50D01*
X391Y50D02*
X392Y50D01*
X0Y49D02*
X6Y49D01*
X391Y49D02*
X392Y49D01*
X0Y48D02*
X6Y48D01*
X391Y48D02*
X392Y48D01*
X0Y47D02*
X6Y47D01*
X390Y47D02*
X392Y47D01*
X0Y46D02*
X6Y46D01*
X390Y46D02*
X392Y46D01*
X0Y45D02*
X6Y45D01*
X390Y45D02*
X392Y45D01*
X0Y44D02*
X7Y44D01*
X390Y44D02*
X392Y44D01*
X0Y43D02*
X7Y43D01*
X389Y43D02*
X392Y43D01*
X0Y42D02*
X7Y42D01*
X389Y42D02*
X392Y42D01*
X0Y41D02*
X7Y41D01*
X389Y41D02*
X392Y41D01*
X0Y40D02*
X7Y40D01*
X389Y40D02*
X392Y40D01*
X0Y39D02*
X7Y39D01*
X388Y39D02*
X392Y39D01*
X0Y38D02*
X7Y38D01*
X388Y38D02*
X392Y38D01*
X0Y37D02*
X7Y37D01*
X387Y37D02*
X392Y37D01*
X0Y36D02*
X7Y36D01*
X387Y36D02*
X392Y36D01*
X0Y35D02*
X7Y35D01*
X386Y35D02*
X392Y35D01*
X0Y34D02*
X7Y34D01*
X386Y34D02*
X392Y34D01*
X0Y33D02*
X7Y33D01*
X385Y33D02*
X392Y33D01*
X0Y32D02*
X7Y32D01*
X385Y32D02*
X392Y32D01*
X0Y31D02*
X7Y31D01*
X385Y31D02*
X392Y31D01*
X0Y30D02*
X7Y30D01*
X385Y30D02*
X392Y30D01*
X0Y29D02*
X7Y29D01*
X385Y29D02*
X392Y29D01*
X0Y28D02*
X7Y28D01*
X385Y28D02*
X392Y28D01*
X0Y27D02*
X7Y27D01*
X385Y27D02*
X392Y27D01*
X0Y26D02*
X7Y26D01*
X385Y26D02*
X392Y26D01*
X0Y25D02*
X7Y25D01*
X385Y25D02*
X392Y25D01*
X0Y24D02*
X7Y24D01*
X385Y24D02*
X392Y24D01*
X0Y23D02*
X7Y23D01*
X385Y23D02*
X392Y23D01*
X0Y22D02*
X7Y22D01*
X385Y22D02*
X392Y22D01*
X0Y21D02*
X7Y21D01*
X385Y21D02*
X392Y21D01*
X0Y20D02*
X7Y20D01*
X385Y20D02*
X392Y20D01*
X0Y19D02*
X7Y19D01*
X385Y19D02*
X392Y19D01*
X0Y18D02*
X7Y18D01*
X385Y18D02*
X392Y18D01*
X0Y17D02*
X7Y17D01*
X385Y17D02*
X392Y17D01*
X0Y16D02*
X7Y16D01*
X385Y16D02*
X392Y16D01*
X0Y15D02*
X7Y15D01*
X385Y15D02*
X392Y15D01*
X0Y14D02*
X7Y14D01*
X385Y14D02*
X392Y14D01*
X0Y13D02*
X7Y13D01*
X385Y13D02*
X392Y13D01*
X0Y12D02*
X7Y12D01*
X385Y12D02*
X392Y12D01*
X0Y11D02*
X7Y11D01*
X385Y11D02*
X392Y11D01*
X0Y10D02*
X7Y10D01*
X385Y10D02*
X392Y10D01*
X0Y9D02*
X392Y9D01*
X0Y8D02*
X392Y8D01*
X0Y7D02*
X392Y7D01*
X0Y6D02*
X392Y6D01*
X0Y5D02*
X392Y5D01*
X0Y4D02*
X392Y4D01*
X0Y3D02*
X392Y3D01*
X0Y2D02*
X392Y2D01*
D02*
G04 End of Silk0*
M02*