; NON-PLATED HOLES START AT T1
; THROUGH (PLATED) HOLES START AT T100
M48
INCH
T100C0.025000
T101C0.039370
T102C0.015748
T103C0.038000
T104C0.040000
T105C0.035000
%
T100
X013444Y011084
X013444Y011870
X013444Y012658
X013444Y010296
T101
X004161Y013991
X011161Y015991
X004161Y005991
X003444Y002296
X005444Y002296
X007444Y002296
X009444Y002296
X011161Y007991
X004444Y002296
X006444Y002296
X008444Y002296
X004161Y011991
X011161Y013991
X004161Y016991
X007444Y013296
X011161Y005991
X010444Y002296
X004161Y008991
X008444Y013296
X011444Y002296
X011161Y011991
X004161Y014991
X011161Y016991
X004161Y006991
X011161Y008991
X004161Y012991
X011161Y014991
X011161Y006991
X004161Y009991
X004161Y010991
X011161Y012991
X004161Y015991
X004161Y007991
X011161Y009991
X011161Y010991
T102
X001444Y015296
X006444Y008296
X008444Y010296
X001444Y016296
X014444Y014296
X000444Y018296
X009444Y007296
X015444Y014296
X002444Y002296
X012441Y005379
X010444Y004296
T103
X007161Y014991
X014444Y017296
X013444Y006296
X014444Y004296
X012444Y004296
X013444Y008296
X014444Y016296
X005444Y004296
X008161Y014991
X004444Y004296
X014444Y006296
X012444Y006296
X013444Y004296
X014444Y008296
X012444Y008296
T104
X002444Y016296
X002444Y017296
X002444Y018296
T105
X005444Y006296
X009444Y005296
X005444Y005296
X008444Y006296
T00
M30
