G04 MADE WITH FRITZING*
G04 WWW.FRITZING.ORG*
G04 DOUBLE SIDED*
G04 HOLES PLATED*
G04 CONTOUR ON CENTER OF CONTOUR VECTOR*
%ASAXBY*%
%FSLAX23Y23*%
%MOIN*%
%OFA0B0*%
%SFA1.0B1.0*%
%ADD10C,0.079370*%
%ADD11C,0.078000*%
%ADD12C,0.065000*%
%ADD13R,0.078000X0.078000*%
%ADD14R,0.125984X0.070866*%
%ADD15C,0.024000*%
%LNCOPPER0*%
G90*
G70*
G54D10*
X1337Y1164D03*
X1237Y1164D03*
X1137Y1164D03*
X1037Y1164D03*
X937Y1164D03*
X837Y1164D03*
X737Y1164D03*
X637Y1164D03*
X537Y1164D03*
X437Y1164D03*
X337Y1164D03*
X237Y1164D03*
X1337Y464D03*
X1237Y464D03*
X1137Y464D03*
X1037Y464D03*
X937Y464D03*
X837Y464D03*
X737Y464D03*
X637Y464D03*
X537Y464D03*
X437Y464D03*
X337Y464D03*
X237Y464D03*
G54D11*
X137Y1464D03*
X137Y1364D03*
X1237Y1364D03*
X1337Y1364D03*
X1437Y1364D03*
G54D10*
X337Y1464D03*
X437Y1464D03*
X537Y1464D03*
X637Y1464D03*
X737Y1464D03*
G54D11*
X137Y64D03*
X137Y164D03*
X137Y264D03*
X337Y64D03*
X337Y164D03*
X337Y264D03*
X537Y64D03*
X537Y164D03*
X537Y264D03*
X137Y864D03*
X137Y764D03*
X137Y664D03*
G54D12*
X658Y264D03*
X737Y264D03*
X816Y264D03*
X894Y264D03*
G54D11*
X1137Y864D03*
X1137Y764D03*
X1137Y864D03*
X1137Y764D03*
G54D10*
X937Y864D03*
X937Y764D03*
X937Y864D03*
X937Y764D03*
G54D11*
X1437Y164D03*
X1437Y264D03*
G54D13*
X137Y1464D03*
X137Y64D03*
X337Y64D03*
X537Y64D03*
G54D14*
X537Y643D03*
X537Y864D03*
G54D13*
X1437Y164D03*
G54D15*
X1237Y1264D02*
X337Y1264D01*
D02*
X337Y1233D02*
X337Y1164D01*
D02*
X1337Y1364D02*
X1237Y1264D01*
D02*
X307Y1464D02*
X168Y1464D01*
D02*
X1037Y1364D02*
X537Y1364D01*
D02*
X509Y1377D02*
X337Y1464D01*
D02*
X1237Y1364D02*
X1067Y1364D01*
D02*
X1406Y1464D02*
X737Y1464D01*
D02*
X1437Y1364D02*
X1437Y1434D01*
D02*
X216Y942D02*
X137Y864D01*
D02*
X1237Y964D02*
X237Y964D01*
D02*
X1237Y1064D02*
X1237Y964D01*
D02*
X1237Y1164D02*
X1237Y1094D01*
D02*
X737Y764D02*
X537Y764D01*
D02*
X937Y664D02*
X737Y764D01*
D02*
X508Y756D02*
X137Y664D01*
D02*
X1337Y664D02*
X937Y664D01*
D02*
X1337Y464D02*
X1337Y633D01*
D02*
X1337Y194D02*
X1337Y464D01*
D02*
X537Y164D02*
X1307Y164D01*
D02*
X507Y164D02*
X367Y164D01*
D02*
X167Y164D02*
X307Y164D01*
D02*
X367Y64D02*
X507Y64D01*
D02*
X167Y64D02*
X307Y64D01*
D02*
X1037Y564D02*
X1237Y564D01*
D02*
X1259Y542D02*
X1337Y464D01*
D02*
X537Y643D02*
X594Y634D01*
D02*
X594Y864D02*
X568Y864D01*
D02*
X1437Y734D02*
X1437Y264D01*
D02*
X1337Y1164D02*
X1430Y794D01*
D02*
X1519Y64D02*
X1537Y1264D01*
D02*
X1537Y1264D02*
X1337Y1264D01*
D02*
X1315Y1242D02*
X1237Y1164D01*
D02*
X537Y64D02*
X1488Y64D01*
D02*
X1499Y87D02*
X1437Y164D01*
G04 End of Copper0*
M02*