G04 MADE WITH FRITZING*
G04 WWW.FRITZING.ORG*
G04 DOUBLE SIDED*
G04 HOLES PLATED*
G04 CONTOUR ON CENTER OF CONTOUR VECTOR*
%ASAXBY*%
%FSLAX23Y23*%
%MOIN*%
%OFA0B0*%
%SFA1.0B1.0*%
%ADD10C,0.010000*%
%ADD11C,0.005000*%
%ADD12R,0.001000X0.001000*%
%LNSILK1*%
G90*
G70*
G54D10*
X361Y1387D02*
X361Y187D01*
D02*
X361Y187D02*
X461Y187D01*
D02*
X461Y187D02*
X461Y1387D01*
D02*
X461Y1387D02*
X361Y1387D01*
G54D11*
D02*
X361Y1352D02*
X396Y1387D01*
G54D10*
D02*
X1061Y1387D02*
X1061Y187D01*
D02*
X1061Y187D02*
X1161Y187D01*
D02*
X1161Y187D02*
X1161Y1387D01*
D02*
X1161Y1387D02*
X1061Y1387D01*
G54D11*
D02*
X1061Y1352D02*
X1096Y1387D01*
G54D10*
D02*
X61Y87D02*
X261Y87D01*
D02*
X261Y87D02*
X261Y187D01*
D02*
X261Y187D02*
X61Y187D01*
D02*
X61Y187D02*
X61Y87D01*
D02*
X261Y1187D02*
X261Y1487D01*
D02*
X261Y1487D02*
X161Y1487D01*
D02*
X161Y1487D02*
X161Y1187D01*
D02*
X161Y1187D02*
X261Y1187D01*
G54D11*
D02*
X261Y1222D02*
X226Y1187D01*
G54D10*
D02*
X161Y287D02*
X161Y1087D01*
D02*
X161Y1087D02*
X61Y1087D01*
D02*
X61Y1087D02*
X61Y287D01*
D02*
X61Y287D02*
X161Y287D01*
G54D11*
D02*
X161Y322D02*
X126Y287D01*
G54D10*
D02*
X1561Y187D02*
X1261Y187D01*
D02*
X1261Y187D02*
X1261Y87D01*
D02*
X1261Y87D02*
X1561Y87D01*
D02*
X1561Y87D02*
X1561Y187D01*
D02*
X1561Y387D02*
X1261Y387D01*
D02*
X1261Y387D02*
X1261Y287D01*
D02*
X1261Y287D02*
X1561Y287D01*
D02*
X1561Y287D02*
X1561Y387D01*
D02*
X1561Y587D02*
X1261Y587D01*
D02*
X1261Y587D02*
X1261Y487D01*
D02*
X1261Y487D02*
X1561Y487D01*
D02*
X1561Y487D02*
X1561Y587D01*
G54D12*
X0Y1575D02*
X1573Y1575D01*
X0Y1574D02*
X1573Y1574D01*
X0Y1573D02*
X1573Y1573D01*
X0Y1572D02*
X1573Y1572D01*
X0Y1571D02*
X1573Y1571D01*
X0Y1570D02*
X1573Y1570D01*
X0Y1569D02*
X1573Y1569D01*
X0Y1568D02*
X1573Y1568D01*
X0Y1567D02*
X7Y1567D01*
X1566Y1567D02*
X1573Y1567D01*
X0Y1566D02*
X7Y1566D01*
X1566Y1566D02*
X1573Y1566D01*
X0Y1565D02*
X7Y1565D01*
X1566Y1565D02*
X1573Y1565D01*
X0Y1564D02*
X7Y1564D01*
X1566Y1564D02*
X1573Y1564D01*
X0Y1563D02*
X7Y1563D01*
X1566Y1563D02*
X1573Y1563D01*
X0Y1562D02*
X7Y1562D01*
X1566Y1562D02*
X1573Y1562D01*
X0Y1561D02*
X7Y1561D01*
X1566Y1561D02*
X1573Y1561D01*
X0Y1560D02*
X7Y1560D01*
X1566Y1560D02*
X1573Y1560D01*
X0Y1559D02*
X7Y1559D01*
X1566Y1559D02*
X1573Y1559D01*
X0Y1558D02*
X7Y1558D01*
X1566Y1558D02*
X1573Y1558D01*
X0Y1557D02*
X7Y1557D01*
X1566Y1557D02*
X1573Y1557D01*
X0Y1556D02*
X7Y1556D01*
X1566Y1556D02*
X1573Y1556D01*
X0Y1555D02*
X7Y1555D01*
X1566Y1555D02*
X1573Y1555D01*
X0Y1554D02*
X7Y1554D01*
X1566Y1554D02*
X1573Y1554D01*
X0Y1553D02*
X7Y1553D01*
X1566Y1553D02*
X1573Y1553D01*
X0Y1552D02*
X7Y1552D01*
X1566Y1552D02*
X1573Y1552D01*
X0Y1551D02*
X7Y1551D01*
X1566Y1551D02*
X1573Y1551D01*
X0Y1550D02*
X7Y1550D01*
X1566Y1550D02*
X1573Y1550D01*
X0Y1549D02*
X7Y1549D01*
X1566Y1549D02*
X1573Y1549D01*
X0Y1548D02*
X7Y1548D01*
X1566Y1548D02*
X1573Y1548D01*
X0Y1547D02*
X7Y1547D01*
X1566Y1547D02*
X1573Y1547D01*
X0Y1546D02*
X7Y1546D01*
X1566Y1546D02*
X1573Y1546D01*
X0Y1545D02*
X7Y1545D01*
X1566Y1545D02*
X1573Y1545D01*
X0Y1544D02*
X7Y1544D01*
X1566Y1544D02*
X1573Y1544D01*
X0Y1543D02*
X7Y1543D01*
X1566Y1543D02*
X1573Y1543D01*
X0Y1542D02*
X7Y1542D01*
X1566Y1542D02*
X1573Y1542D01*
X0Y1541D02*
X7Y1541D01*
X1566Y1541D02*
X1573Y1541D01*
X0Y1540D02*
X7Y1540D01*
X1566Y1540D02*
X1573Y1540D01*
X0Y1539D02*
X7Y1539D01*
X1566Y1539D02*
X1573Y1539D01*
X0Y1538D02*
X7Y1538D01*
X1566Y1538D02*
X1573Y1538D01*
X0Y1537D02*
X7Y1537D01*
X1566Y1537D02*
X1573Y1537D01*
X0Y1536D02*
X7Y1536D01*
X1566Y1536D02*
X1573Y1536D01*
X0Y1535D02*
X7Y1535D01*
X1566Y1535D02*
X1573Y1535D01*
X0Y1534D02*
X7Y1534D01*
X1566Y1534D02*
X1573Y1534D01*
X0Y1533D02*
X7Y1533D01*
X1566Y1533D02*
X1573Y1533D01*
X0Y1532D02*
X7Y1532D01*
X1566Y1532D02*
X1573Y1532D01*
X0Y1531D02*
X7Y1531D01*
X1566Y1531D02*
X1573Y1531D01*
X0Y1530D02*
X7Y1530D01*
X1566Y1530D02*
X1573Y1530D01*
X0Y1529D02*
X7Y1529D01*
X1566Y1529D02*
X1573Y1529D01*
X0Y1528D02*
X7Y1528D01*
X1566Y1528D02*
X1573Y1528D01*
X0Y1527D02*
X7Y1527D01*
X1566Y1527D02*
X1573Y1527D01*
X0Y1526D02*
X7Y1526D01*
X1566Y1526D02*
X1573Y1526D01*
X0Y1525D02*
X7Y1525D01*
X1566Y1525D02*
X1573Y1525D01*
X0Y1524D02*
X7Y1524D01*
X1566Y1524D02*
X1573Y1524D01*
X0Y1523D02*
X7Y1523D01*
X1566Y1523D02*
X1573Y1523D01*
X0Y1522D02*
X7Y1522D01*
X1566Y1522D02*
X1573Y1522D01*
X0Y1521D02*
X7Y1521D01*
X1566Y1521D02*
X1573Y1521D01*
X0Y1520D02*
X7Y1520D01*
X1566Y1520D02*
X1573Y1520D01*
X0Y1519D02*
X7Y1519D01*
X1566Y1519D02*
X1573Y1519D01*
X0Y1518D02*
X7Y1518D01*
X1566Y1518D02*
X1573Y1518D01*
X0Y1517D02*
X7Y1517D01*
X1566Y1517D02*
X1573Y1517D01*
X0Y1516D02*
X7Y1516D01*
X1566Y1516D02*
X1573Y1516D01*
X0Y1515D02*
X7Y1515D01*
X1566Y1515D02*
X1573Y1515D01*
X0Y1514D02*
X7Y1514D01*
X1566Y1514D02*
X1573Y1514D01*
X0Y1513D02*
X7Y1513D01*
X1566Y1513D02*
X1573Y1513D01*
X0Y1512D02*
X7Y1512D01*
X1566Y1512D02*
X1573Y1512D01*
X0Y1511D02*
X7Y1511D01*
X1566Y1511D02*
X1573Y1511D01*
X0Y1510D02*
X7Y1510D01*
X1566Y1510D02*
X1573Y1510D01*
X0Y1509D02*
X7Y1509D01*
X1566Y1509D02*
X1573Y1509D01*
X0Y1508D02*
X7Y1508D01*
X1566Y1508D02*
X1573Y1508D01*
X0Y1507D02*
X7Y1507D01*
X1566Y1507D02*
X1573Y1507D01*
X0Y1506D02*
X7Y1506D01*
X1566Y1506D02*
X1573Y1506D01*
X0Y1505D02*
X7Y1505D01*
X1566Y1505D02*
X1573Y1505D01*
X0Y1504D02*
X7Y1504D01*
X1566Y1504D02*
X1573Y1504D01*
X0Y1503D02*
X7Y1503D01*
X1566Y1503D02*
X1573Y1503D01*
X0Y1502D02*
X7Y1502D01*
X1566Y1502D02*
X1573Y1502D01*
X0Y1501D02*
X7Y1501D01*
X1566Y1501D02*
X1573Y1501D01*
X0Y1500D02*
X12Y1500D01*
X1566Y1500D02*
X1573Y1500D01*
X0Y1499D02*
X14Y1499D01*
X1566Y1499D02*
X1573Y1499D01*
X0Y1498D02*
X14Y1498D01*
X1566Y1498D02*
X1573Y1498D01*
X0Y1497D02*
X14Y1497D01*
X1566Y1497D02*
X1573Y1497D01*
X0Y1496D02*
X14Y1496D01*
X1566Y1496D02*
X1573Y1496D01*
X0Y1495D02*
X14Y1495D01*
X1566Y1495D02*
X1573Y1495D01*
X0Y1494D02*
X14Y1494D01*
X1566Y1494D02*
X1573Y1494D01*
X0Y1493D02*
X14Y1493D01*
X1566Y1493D02*
X1573Y1493D01*
X0Y1492D02*
X14Y1492D01*
X1566Y1492D02*
X1573Y1492D01*
X0Y1491D02*
X14Y1491D01*
X1566Y1491D02*
X1573Y1491D01*
X0Y1490D02*
X14Y1490D01*
X1566Y1490D02*
X1573Y1490D01*
X0Y1489D02*
X14Y1489D01*
X1566Y1489D02*
X1573Y1489D01*
X0Y1488D02*
X14Y1488D01*
X1566Y1488D02*
X1573Y1488D01*
X0Y1487D02*
X14Y1487D01*
X514Y1487D02*
X517Y1487D01*
X540Y1487D02*
X559Y1487D01*
X1214Y1487D02*
X1217Y1487D01*
X1240Y1487D02*
X1268Y1487D01*
X1566Y1487D02*
X1573Y1487D01*
X0Y1486D02*
X14Y1486D01*
X513Y1486D02*
X518Y1486D01*
X539Y1486D02*
X559Y1486D01*
X1213Y1486D02*
X1218Y1486D01*
X1239Y1486D02*
X1269Y1486D01*
X1566Y1486D02*
X1573Y1486D01*
X0Y1485D02*
X14Y1485D01*
X513Y1485D02*
X519Y1485D01*
X539Y1485D02*
X559Y1485D01*
X1213Y1485D02*
X1218Y1485D01*
X1239Y1485D02*
X1270Y1485D01*
X1566Y1485D02*
X1573Y1485D01*
X0Y1484D02*
X14Y1484D01*
X513Y1484D02*
X519Y1484D01*
X539Y1484D02*
X559Y1484D01*
X1212Y1484D02*
X1218Y1484D01*
X1239Y1484D02*
X1271Y1484D01*
X1566Y1484D02*
X1573Y1484D01*
X0Y1483D02*
X14Y1483D01*
X513Y1483D02*
X519Y1483D01*
X539Y1483D02*
X559Y1483D01*
X1212Y1483D02*
X1218Y1483D01*
X1239Y1483D02*
X1272Y1483D01*
X1566Y1483D02*
X1573Y1483D01*
X0Y1482D02*
X14Y1482D01*
X513Y1482D02*
X519Y1482D01*
X540Y1482D02*
X559Y1482D01*
X1212Y1482D02*
X1218Y1482D01*
X1239Y1482D02*
X1272Y1482D01*
X1566Y1482D02*
X1573Y1482D01*
X0Y1481D02*
X14Y1481D01*
X513Y1481D02*
X519Y1481D01*
X541Y1481D02*
X559Y1481D01*
X1212Y1481D02*
X1218Y1481D01*
X1241Y1481D02*
X1272Y1481D01*
X1566Y1481D02*
X1573Y1481D01*
X0Y1480D02*
X14Y1480D01*
X513Y1480D02*
X519Y1480D01*
X553Y1480D02*
X559Y1480D01*
X1212Y1480D02*
X1218Y1480D01*
X1266Y1480D02*
X1272Y1480D01*
X1566Y1480D02*
X1573Y1480D01*
X0Y1479D02*
X14Y1479D01*
X513Y1479D02*
X519Y1479D01*
X553Y1479D02*
X559Y1479D01*
X1212Y1479D02*
X1218Y1479D01*
X1266Y1479D02*
X1272Y1479D01*
X1566Y1479D02*
X1573Y1479D01*
X0Y1478D02*
X14Y1478D01*
X513Y1478D02*
X519Y1478D01*
X553Y1478D02*
X559Y1478D01*
X1212Y1478D02*
X1218Y1478D01*
X1266Y1478D02*
X1272Y1478D01*
X1566Y1478D02*
X1573Y1478D01*
X0Y1477D02*
X14Y1477D01*
X513Y1477D02*
X519Y1477D01*
X553Y1477D02*
X559Y1477D01*
X1212Y1477D02*
X1218Y1477D01*
X1266Y1477D02*
X1272Y1477D01*
X1566Y1477D02*
X1573Y1477D01*
X0Y1476D02*
X14Y1476D01*
X513Y1476D02*
X519Y1476D01*
X553Y1476D02*
X559Y1476D01*
X1212Y1476D02*
X1218Y1476D01*
X1266Y1476D02*
X1272Y1476D01*
X1566Y1476D02*
X1573Y1476D01*
X0Y1475D02*
X14Y1475D01*
X513Y1475D02*
X519Y1475D01*
X553Y1475D02*
X559Y1475D01*
X1212Y1475D02*
X1218Y1475D01*
X1266Y1475D02*
X1272Y1475D01*
X1566Y1475D02*
X1573Y1475D01*
X0Y1474D02*
X14Y1474D01*
X513Y1474D02*
X519Y1474D01*
X553Y1474D02*
X559Y1474D01*
X1212Y1474D02*
X1218Y1474D01*
X1266Y1474D02*
X1272Y1474D01*
X1566Y1474D02*
X1573Y1474D01*
X0Y1473D02*
X14Y1473D01*
X513Y1473D02*
X519Y1473D01*
X553Y1473D02*
X559Y1473D01*
X1212Y1473D02*
X1218Y1473D01*
X1266Y1473D02*
X1272Y1473D01*
X1566Y1473D02*
X1573Y1473D01*
X0Y1472D02*
X14Y1472D01*
X513Y1472D02*
X519Y1472D01*
X553Y1472D02*
X559Y1472D01*
X1212Y1472D02*
X1218Y1472D01*
X1266Y1472D02*
X1272Y1472D01*
X1566Y1472D02*
X1573Y1472D01*
X0Y1471D02*
X14Y1471D01*
X513Y1471D02*
X519Y1471D01*
X553Y1471D02*
X559Y1471D01*
X1212Y1471D02*
X1218Y1471D01*
X1266Y1471D02*
X1272Y1471D01*
X1566Y1471D02*
X1573Y1471D01*
X0Y1470D02*
X14Y1470D01*
X513Y1470D02*
X519Y1470D01*
X553Y1470D02*
X559Y1470D01*
X1212Y1470D02*
X1218Y1470D01*
X1266Y1470D02*
X1272Y1470D01*
X1566Y1470D02*
X1573Y1470D01*
X0Y1469D02*
X14Y1469D01*
X513Y1469D02*
X519Y1469D01*
X553Y1469D02*
X559Y1469D01*
X1212Y1469D02*
X1218Y1469D01*
X1266Y1469D02*
X1272Y1469D01*
X1566Y1469D02*
X1573Y1469D01*
X0Y1468D02*
X7Y1468D01*
X9Y1468D02*
X14Y1468D01*
X513Y1468D02*
X519Y1468D01*
X553Y1468D02*
X559Y1468D01*
X1212Y1468D02*
X1218Y1468D01*
X1266Y1468D02*
X1272Y1468D01*
X1566Y1468D02*
X1573Y1468D01*
X0Y1467D02*
X7Y1467D01*
X9Y1467D02*
X13Y1467D01*
X513Y1467D02*
X519Y1467D01*
X553Y1467D02*
X559Y1467D01*
X1212Y1467D02*
X1218Y1467D01*
X1266Y1467D02*
X1272Y1467D01*
X1566Y1467D02*
X1573Y1467D01*
X0Y1466D02*
X7Y1466D01*
X11Y1466D02*
X12Y1466D01*
X513Y1466D02*
X519Y1466D01*
X553Y1466D02*
X559Y1466D01*
X1212Y1466D02*
X1218Y1466D01*
X1266Y1466D02*
X1272Y1466D01*
X1566Y1466D02*
X1573Y1466D01*
X0Y1465D02*
X7Y1465D01*
X513Y1465D02*
X519Y1465D01*
X553Y1465D02*
X559Y1465D01*
X1212Y1465D02*
X1218Y1465D01*
X1266Y1465D02*
X1272Y1465D01*
X1566Y1465D02*
X1573Y1465D01*
X0Y1464D02*
X7Y1464D01*
X513Y1464D02*
X519Y1464D01*
X553Y1464D02*
X559Y1464D01*
X1212Y1464D02*
X1218Y1464D01*
X1245Y1464D02*
X1272Y1464D01*
X1566Y1464D02*
X1573Y1464D01*
X0Y1463D02*
X7Y1463D01*
X513Y1463D02*
X519Y1463D01*
X553Y1463D02*
X559Y1463D01*
X1212Y1463D02*
X1218Y1463D01*
X1242Y1463D02*
X1272Y1463D01*
X1566Y1463D02*
X1573Y1463D01*
X0Y1462D02*
X7Y1462D01*
X513Y1462D02*
X519Y1462D01*
X553Y1462D02*
X559Y1462D01*
X1212Y1462D02*
X1218Y1462D01*
X1241Y1462D02*
X1272Y1462D01*
X1566Y1462D02*
X1573Y1462D01*
X0Y1461D02*
X7Y1461D01*
X513Y1461D02*
X519Y1461D01*
X553Y1461D02*
X559Y1461D01*
X1212Y1461D02*
X1218Y1461D01*
X1240Y1461D02*
X1271Y1461D01*
X1566Y1461D02*
X1573Y1461D01*
X0Y1460D02*
X7Y1460D01*
X513Y1460D02*
X519Y1460D01*
X553Y1460D02*
X559Y1460D01*
X1212Y1460D02*
X1218Y1460D01*
X1239Y1460D02*
X1271Y1460D01*
X1566Y1460D02*
X1573Y1460D01*
X0Y1459D02*
X7Y1459D01*
X513Y1459D02*
X519Y1459D01*
X553Y1459D02*
X559Y1459D01*
X1212Y1459D02*
X1218Y1459D01*
X1239Y1459D02*
X1270Y1459D01*
X1566Y1459D02*
X1573Y1459D01*
X0Y1458D02*
X7Y1458D01*
X495Y1458D02*
X496Y1458D01*
X513Y1458D02*
X519Y1458D01*
X553Y1458D02*
X559Y1458D01*
X569Y1458D02*
X570Y1458D01*
X1194Y1458D02*
X1195Y1458D01*
X1212Y1458D02*
X1218Y1458D01*
X1239Y1458D02*
X1268Y1458D01*
X1566Y1458D02*
X1573Y1458D01*
X0Y1457D02*
X7Y1457D01*
X493Y1457D02*
X497Y1457D01*
X513Y1457D02*
X519Y1457D01*
X553Y1457D02*
X559Y1457D01*
X567Y1457D02*
X571Y1457D01*
X1193Y1457D02*
X1197Y1457D01*
X1212Y1457D02*
X1218Y1457D01*
X1239Y1457D02*
X1245Y1457D01*
X1566Y1457D02*
X1573Y1457D01*
X0Y1456D02*
X7Y1456D01*
X492Y1456D02*
X498Y1456D01*
X513Y1456D02*
X519Y1456D01*
X553Y1456D02*
X559Y1456D01*
X567Y1456D02*
X572Y1456D01*
X1192Y1456D02*
X1197Y1456D01*
X1212Y1456D02*
X1218Y1456D01*
X1239Y1456D02*
X1245Y1456D01*
X1566Y1456D02*
X1573Y1456D01*
X0Y1455D02*
X7Y1455D01*
X492Y1455D02*
X498Y1455D01*
X513Y1455D02*
X519Y1455D01*
X553Y1455D02*
X559Y1455D01*
X566Y1455D02*
X572Y1455D01*
X1192Y1455D02*
X1198Y1455D01*
X1212Y1455D02*
X1218Y1455D01*
X1239Y1455D02*
X1245Y1455D01*
X1566Y1455D02*
X1573Y1455D01*
X0Y1454D02*
X7Y1454D01*
X492Y1454D02*
X498Y1454D01*
X513Y1454D02*
X519Y1454D01*
X553Y1454D02*
X559Y1454D01*
X566Y1454D02*
X572Y1454D01*
X1192Y1454D02*
X1198Y1454D01*
X1212Y1454D02*
X1218Y1454D01*
X1239Y1454D02*
X1245Y1454D01*
X1566Y1454D02*
X1573Y1454D01*
X0Y1453D02*
X7Y1453D01*
X492Y1453D02*
X498Y1453D01*
X513Y1453D02*
X519Y1453D01*
X553Y1453D02*
X559Y1453D01*
X566Y1453D02*
X572Y1453D01*
X1192Y1453D02*
X1198Y1453D01*
X1212Y1453D02*
X1218Y1453D01*
X1239Y1453D02*
X1245Y1453D01*
X1566Y1453D02*
X1573Y1453D01*
X0Y1452D02*
X7Y1452D01*
X492Y1452D02*
X498Y1452D01*
X513Y1452D02*
X519Y1452D01*
X553Y1452D02*
X559Y1452D01*
X566Y1452D02*
X572Y1452D01*
X1192Y1452D02*
X1198Y1452D01*
X1212Y1452D02*
X1218Y1452D01*
X1239Y1452D02*
X1245Y1452D01*
X1566Y1452D02*
X1573Y1452D01*
X0Y1451D02*
X7Y1451D01*
X492Y1451D02*
X498Y1451D01*
X513Y1451D02*
X519Y1451D01*
X553Y1451D02*
X559Y1451D01*
X566Y1451D02*
X572Y1451D01*
X1192Y1451D02*
X1198Y1451D01*
X1212Y1451D02*
X1218Y1451D01*
X1239Y1451D02*
X1245Y1451D01*
X1566Y1451D02*
X1573Y1451D01*
X0Y1450D02*
X12Y1450D01*
X492Y1450D02*
X498Y1450D01*
X513Y1450D02*
X519Y1450D01*
X553Y1450D02*
X559Y1450D01*
X566Y1450D02*
X572Y1450D01*
X1192Y1450D02*
X1198Y1450D01*
X1212Y1450D02*
X1218Y1450D01*
X1239Y1450D02*
X1245Y1450D01*
X1566Y1450D02*
X1573Y1450D01*
X0Y1449D02*
X13Y1449D01*
X492Y1449D02*
X498Y1449D01*
X513Y1449D02*
X519Y1449D01*
X553Y1449D02*
X559Y1449D01*
X566Y1449D02*
X572Y1449D01*
X1192Y1449D02*
X1198Y1449D01*
X1212Y1449D02*
X1218Y1449D01*
X1239Y1449D02*
X1245Y1449D01*
X1566Y1449D02*
X1573Y1449D01*
X0Y1448D02*
X14Y1448D01*
X492Y1448D02*
X498Y1448D01*
X513Y1448D02*
X519Y1448D01*
X553Y1448D02*
X559Y1448D01*
X566Y1448D02*
X572Y1448D01*
X1192Y1448D02*
X1198Y1448D01*
X1212Y1448D02*
X1218Y1448D01*
X1239Y1448D02*
X1245Y1448D01*
X1566Y1448D02*
X1573Y1448D01*
X0Y1447D02*
X14Y1447D01*
X492Y1447D02*
X498Y1447D01*
X513Y1447D02*
X519Y1447D01*
X553Y1447D02*
X559Y1447D01*
X566Y1447D02*
X572Y1447D01*
X1192Y1447D02*
X1198Y1447D01*
X1212Y1447D02*
X1218Y1447D01*
X1239Y1447D02*
X1245Y1447D01*
X1566Y1447D02*
X1573Y1447D01*
X0Y1446D02*
X14Y1446D01*
X492Y1446D02*
X498Y1446D01*
X513Y1446D02*
X519Y1446D01*
X553Y1446D02*
X559Y1446D01*
X566Y1446D02*
X572Y1446D01*
X1192Y1446D02*
X1198Y1446D01*
X1212Y1446D02*
X1218Y1446D01*
X1239Y1446D02*
X1245Y1446D01*
X1566Y1446D02*
X1573Y1446D01*
X0Y1445D02*
X14Y1445D01*
X492Y1445D02*
X498Y1445D01*
X513Y1445D02*
X519Y1445D01*
X553Y1445D02*
X559Y1445D01*
X566Y1445D02*
X572Y1445D01*
X1192Y1445D02*
X1198Y1445D01*
X1212Y1445D02*
X1218Y1445D01*
X1239Y1445D02*
X1245Y1445D01*
X1566Y1445D02*
X1573Y1445D01*
X0Y1444D02*
X13Y1444D01*
X492Y1444D02*
X498Y1444D01*
X513Y1444D02*
X519Y1444D01*
X553Y1444D02*
X559Y1444D01*
X566Y1444D02*
X572Y1444D01*
X1192Y1444D02*
X1198Y1444D01*
X1212Y1444D02*
X1218Y1444D01*
X1239Y1444D02*
X1245Y1444D01*
X1566Y1444D02*
X1573Y1444D01*
X0Y1443D02*
X7Y1443D01*
X492Y1443D02*
X498Y1443D01*
X513Y1443D02*
X519Y1443D01*
X553Y1443D02*
X559Y1443D01*
X566Y1443D02*
X572Y1443D01*
X1192Y1443D02*
X1198Y1443D01*
X1212Y1443D02*
X1218Y1443D01*
X1239Y1443D02*
X1245Y1443D01*
X1566Y1443D02*
X1573Y1443D01*
X0Y1442D02*
X7Y1442D01*
X492Y1442D02*
X499Y1442D01*
X512Y1442D02*
X519Y1442D01*
X553Y1442D02*
X559Y1442D01*
X566Y1442D02*
X572Y1442D01*
X1192Y1442D02*
X1198Y1442D01*
X1212Y1442D02*
X1218Y1442D01*
X1239Y1442D02*
X1245Y1442D01*
X1566Y1442D02*
X1573Y1442D01*
X0Y1441D02*
X7Y1441D01*
X493Y1441D02*
X500Y1441D01*
X511Y1441D02*
X518Y1441D01*
X553Y1441D02*
X559Y1441D01*
X566Y1441D02*
X572Y1441D01*
X1192Y1441D02*
X1200Y1441D01*
X1211Y1441D02*
X1218Y1441D01*
X1239Y1441D02*
X1245Y1441D01*
X1566Y1441D02*
X1573Y1441D01*
X0Y1440D02*
X7Y1440D01*
X493Y1440D02*
X518Y1440D01*
X541Y1440D02*
X572Y1440D01*
X1193Y1440D02*
X1218Y1440D01*
X1239Y1440D02*
X1266Y1440D01*
X1566Y1440D02*
X1573Y1440D01*
X0Y1439D02*
X7Y1439D01*
X493Y1439D02*
X517Y1439D01*
X540Y1439D02*
X572Y1439D01*
X1193Y1439D02*
X1217Y1439D01*
X1239Y1439D02*
X1266Y1439D01*
X1566Y1439D02*
X1573Y1439D01*
X0Y1438D02*
X7Y1438D01*
X494Y1438D02*
X517Y1438D01*
X539Y1438D02*
X572Y1438D01*
X1194Y1438D02*
X1217Y1438D01*
X1239Y1438D02*
X1265Y1438D01*
X1566Y1438D02*
X1573Y1438D01*
X0Y1437D02*
X7Y1437D01*
X495Y1437D02*
X516Y1437D01*
X539Y1437D02*
X572Y1437D01*
X1195Y1437D02*
X1216Y1437D01*
X1239Y1437D02*
X1265Y1437D01*
X1566Y1437D02*
X1573Y1437D01*
X0Y1436D02*
X7Y1436D01*
X496Y1436D02*
X515Y1436D01*
X539Y1436D02*
X572Y1436D01*
X1196Y1436D02*
X1215Y1436D01*
X1239Y1436D02*
X1266Y1436D01*
X1566Y1436D02*
X1573Y1436D01*
X0Y1435D02*
X7Y1435D01*
X497Y1435D02*
X514Y1435D01*
X540Y1435D02*
X572Y1435D01*
X1197Y1435D02*
X1213Y1435D01*
X1239Y1435D02*
X1266Y1435D01*
X1566Y1435D02*
X1573Y1435D01*
X0Y1434D02*
X7Y1434D01*
X500Y1434D02*
X511Y1434D01*
X541Y1434D02*
X571Y1434D01*
X1199Y1434D02*
X1211Y1434D01*
X1239Y1434D02*
X1266Y1434D01*
X1566Y1434D02*
X1573Y1434D01*
X0Y1433D02*
X7Y1433D01*
X1566Y1433D02*
X1573Y1433D01*
X0Y1432D02*
X7Y1432D01*
X1566Y1432D02*
X1573Y1432D01*
X0Y1431D02*
X7Y1431D01*
X1566Y1431D02*
X1573Y1431D01*
X0Y1430D02*
X7Y1430D01*
X1566Y1430D02*
X1573Y1430D01*
X0Y1429D02*
X7Y1429D01*
X1566Y1429D02*
X1573Y1429D01*
X0Y1428D02*
X7Y1428D01*
X1566Y1428D02*
X1573Y1428D01*
X0Y1427D02*
X7Y1427D01*
X1566Y1427D02*
X1573Y1427D01*
X0Y1426D02*
X7Y1426D01*
X1566Y1426D02*
X1573Y1426D01*
X0Y1425D02*
X7Y1425D01*
X1566Y1425D02*
X1573Y1425D01*
X0Y1424D02*
X7Y1424D01*
X1566Y1424D02*
X1573Y1424D01*
X0Y1423D02*
X7Y1423D01*
X1566Y1423D02*
X1573Y1423D01*
X0Y1422D02*
X13Y1422D01*
X1566Y1422D02*
X1573Y1422D01*
X0Y1421D02*
X14Y1421D01*
X1566Y1421D02*
X1573Y1421D01*
X0Y1420D02*
X14Y1420D01*
X1566Y1420D02*
X1573Y1420D01*
X0Y1419D02*
X14Y1419D01*
X1566Y1419D02*
X1573Y1419D01*
X0Y1418D02*
X14Y1418D01*
X1566Y1418D02*
X1573Y1418D01*
X0Y1417D02*
X14Y1417D01*
X1566Y1417D02*
X1573Y1417D01*
X0Y1416D02*
X12Y1416D01*
X1566Y1416D02*
X1573Y1416D01*
X0Y1415D02*
X7Y1415D01*
X1566Y1415D02*
X1573Y1415D01*
X0Y1414D02*
X7Y1414D01*
X1566Y1414D02*
X1573Y1414D01*
X0Y1413D02*
X7Y1413D01*
X1566Y1413D02*
X1573Y1413D01*
X0Y1412D02*
X7Y1412D01*
X1566Y1412D02*
X1573Y1412D01*
X0Y1411D02*
X7Y1411D01*
X1566Y1411D02*
X1573Y1411D01*
X0Y1410D02*
X7Y1410D01*
X1566Y1410D02*
X1573Y1410D01*
X0Y1409D02*
X7Y1409D01*
X1566Y1409D02*
X1573Y1409D01*
X0Y1408D02*
X7Y1408D01*
X1566Y1408D02*
X1573Y1408D01*
X0Y1407D02*
X7Y1407D01*
X1566Y1407D02*
X1573Y1407D01*
X0Y1406D02*
X7Y1406D01*
X1566Y1406D02*
X1573Y1406D01*
X0Y1405D02*
X7Y1405D01*
X1566Y1405D02*
X1573Y1405D01*
X0Y1404D02*
X7Y1404D01*
X1566Y1404D02*
X1573Y1404D01*
X0Y1403D02*
X7Y1403D01*
X1566Y1403D02*
X1573Y1403D01*
X0Y1402D02*
X7Y1402D01*
X1566Y1402D02*
X1573Y1402D01*
X0Y1401D02*
X7Y1401D01*
X1566Y1401D02*
X1573Y1401D01*
X0Y1400D02*
X7Y1400D01*
X1566Y1400D02*
X1573Y1400D01*
X0Y1399D02*
X7Y1399D01*
X1566Y1399D02*
X1573Y1399D01*
X0Y1398D02*
X7Y1398D01*
X1566Y1398D02*
X1573Y1398D01*
X0Y1397D02*
X7Y1397D01*
X1566Y1397D02*
X1573Y1397D01*
X0Y1396D02*
X7Y1396D01*
X1566Y1396D02*
X1573Y1396D01*
X0Y1395D02*
X7Y1395D01*
X1566Y1395D02*
X1573Y1395D01*
X0Y1394D02*
X7Y1394D01*
X1566Y1394D02*
X1573Y1394D01*
X0Y1393D02*
X7Y1393D01*
X1566Y1393D02*
X1573Y1393D01*
X0Y1392D02*
X7Y1392D01*
X1566Y1392D02*
X1573Y1392D01*
X0Y1391D02*
X7Y1391D01*
X1566Y1391D02*
X1573Y1391D01*
X0Y1390D02*
X7Y1390D01*
X1566Y1390D02*
X1573Y1390D01*
X0Y1389D02*
X7Y1389D01*
X1566Y1389D02*
X1573Y1389D01*
X0Y1388D02*
X7Y1388D01*
X1566Y1388D02*
X1573Y1388D01*
X0Y1387D02*
X7Y1387D01*
X1566Y1387D02*
X1573Y1387D01*
X0Y1386D02*
X7Y1386D01*
X1566Y1386D02*
X1573Y1386D01*
X0Y1385D02*
X7Y1385D01*
X1566Y1385D02*
X1573Y1385D01*
X0Y1384D02*
X7Y1384D01*
X1566Y1384D02*
X1573Y1384D01*
X0Y1383D02*
X7Y1383D01*
X1566Y1383D02*
X1573Y1383D01*
X0Y1382D02*
X7Y1382D01*
X1566Y1382D02*
X1573Y1382D01*
X0Y1381D02*
X7Y1381D01*
X1566Y1381D02*
X1573Y1381D01*
X0Y1380D02*
X7Y1380D01*
X1566Y1380D02*
X1573Y1380D01*
X0Y1379D02*
X7Y1379D01*
X1566Y1379D02*
X1573Y1379D01*
X0Y1378D02*
X7Y1378D01*
X1566Y1378D02*
X1573Y1378D01*
X0Y1377D02*
X7Y1377D01*
X1566Y1377D02*
X1573Y1377D01*
X0Y1376D02*
X7Y1376D01*
X1566Y1376D02*
X1573Y1376D01*
X0Y1375D02*
X7Y1375D01*
X1566Y1375D02*
X1573Y1375D01*
X0Y1374D02*
X7Y1374D01*
X1566Y1374D02*
X1573Y1374D01*
X0Y1373D02*
X7Y1373D01*
X1566Y1373D02*
X1573Y1373D01*
X0Y1372D02*
X7Y1372D01*
X1566Y1372D02*
X1573Y1372D01*
X0Y1371D02*
X7Y1371D01*
X1566Y1371D02*
X1573Y1371D01*
X0Y1370D02*
X7Y1370D01*
X1566Y1370D02*
X1573Y1370D01*
X0Y1369D02*
X7Y1369D01*
X1566Y1369D02*
X1573Y1369D01*
X0Y1368D02*
X7Y1368D01*
X1566Y1368D02*
X1573Y1368D01*
X0Y1367D02*
X7Y1367D01*
X1566Y1367D02*
X1573Y1367D01*
X0Y1366D02*
X7Y1366D01*
X1566Y1366D02*
X1573Y1366D01*
X0Y1365D02*
X7Y1365D01*
X1566Y1365D02*
X1573Y1365D01*
X0Y1364D02*
X7Y1364D01*
X1566Y1364D02*
X1573Y1364D01*
X0Y1363D02*
X7Y1363D01*
X1566Y1363D02*
X1573Y1363D01*
X0Y1362D02*
X7Y1362D01*
X1566Y1362D02*
X1573Y1362D01*
X0Y1361D02*
X7Y1361D01*
X1566Y1361D02*
X1573Y1361D01*
X0Y1360D02*
X7Y1360D01*
X1566Y1360D02*
X1573Y1360D01*
X0Y1359D02*
X7Y1359D01*
X1566Y1359D02*
X1573Y1359D01*
X0Y1358D02*
X7Y1358D01*
X1566Y1358D02*
X1573Y1358D01*
X0Y1357D02*
X7Y1357D01*
X1566Y1357D02*
X1573Y1357D01*
X0Y1356D02*
X7Y1356D01*
X1566Y1356D02*
X1573Y1356D01*
X0Y1355D02*
X7Y1355D01*
X1566Y1355D02*
X1573Y1355D01*
X0Y1354D02*
X7Y1354D01*
X1566Y1354D02*
X1573Y1354D01*
X0Y1353D02*
X7Y1353D01*
X1566Y1353D02*
X1573Y1353D01*
X0Y1352D02*
X7Y1352D01*
X1566Y1352D02*
X1573Y1352D01*
X0Y1351D02*
X7Y1351D01*
X1566Y1351D02*
X1573Y1351D01*
X0Y1350D02*
X7Y1350D01*
X1566Y1350D02*
X1573Y1350D01*
X0Y1349D02*
X7Y1349D01*
X1566Y1349D02*
X1573Y1349D01*
X0Y1348D02*
X7Y1348D01*
X1566Y1348D02*
X1573Y1348D01*
X0Y1347D02*
X7Y1347D01*
X1566Y1347D02*
X1573Y1347D01*
X0Y1346D02*
X7Y1346D01*
X1566Y1346D02*
X1573Y1346D01*
X0Y1345D02*
X7Y1345D01*
X1566Y1345D02*
X1573Y1345D01*
X0Y1344D02*
X7Y1344D01*
X1566Y1344D02*
X1573Y1344D01*
X0Y1343D02*
X7Y1343D01*
X1566Y1343D02*
X1573Y1343D01*
X0Y1342D02*
X7Y1342D01*
X1566Y1342D02*
X1573Y1342D01*
X0Y1341D02*
X7Y1341D01*
X1566Y1341D02*
X1573Y1341D01*
X0Y1340D02*
X7Y1340D01*
X1566Y1340D02*
X1573Y1340D01*
X0Y1339D02*
X7Y1339D01*
X1566Y1339D02*
X1573Y1339D01*
X0Y1338D02*
X7Y1338D01*
X1566Y1338D02*
X1573Y1338D01*
X0Y1337D02*
X7Y1337D01*
X1566Y1337D02*
X1573Y1337D01*
X0Y1336D02*
X7Y1336D01*
X1566Y1336D02*
X1573Y1336D01*
X0Y1335D02*
X7Y1335D01*
X1566Y1335D02*
X1573Y1335D01*
X0Y1334D02*
X7Y1334D01*
X1566Y1334D02*
X1573Y1334D01*
X0Y1333D02*
X7Y1333D01*
X1566Y1333D02*
X1573Y1333D01*
X0Y1332D02*
X7Y1332D01*
X1566Y1332D02*
X1573Y1332D01*
X0Y1331D02*
X7Y1331D01*
X1566Y1331D02*
X1573Y1331D01*
X0Y1330D02*
X7Y1330D01*
X1566Y1330D02*
X1573Y1330D01*
X0Y1329D02*
X7Y1329D01*
X1566Y1329D02*
X1573Y1329D01*
X0Y1328D02*
X7Y1328D01*
X1566Y1328D02*
X1573Y1328D01*
X0Y1327D02*
X7Y1327D01*
X1566Y1327D02*
X1573Y1327D01*
X0Y1326D02*
X7Y1326D01*
X1566Y1326D02*
X1573Y1326D01*
X0Y1325D02*
X7Y1325D01*
X1566Y1325D02*
X1573Y1325D01*
X0Y1324D02*
X7Y1324D01*
X1566Y1324D02*
X1573Y1324D01*
X0Y1323D02*
X7Y1323D01*
X1566Y1323D02*
X1573Y1323D01*
X0Y1322D02*
X7Y1322D01*
X1566Y1322D02*
X1573Y1322D01*
X0Y1321D02*
X7Y1321D01*
X1566Y1321D02*
X1573Y1321D01*
X0Y1320D02*
X7Y1320D01*
X1566Y1320D02*
X1573Y1320D01*
X0Y1319D02*
X7Y1319D01*
X1566Y1319D02*
X1573Y1319D01*
X0Y1318D02*
X7Y1318D01*
X1566Y1318D02*
X1573Y1318D01*
X0Y1317D02*
X7Y1317D01*
X1566Y1317D02*
X1573Y1317D01*
X0Y1316D02*
X7Y1316D01*
X1566Y1316D02*
X1573Y1316D01*
X0Y1315D02*
X7Y1315D01*
X1566Y1315D02*
X1573Y1315D01*
X0Y1314D02*
X7Y1314D01*
X1566Y1314D02*
X1573Y1314D01*
X0Y1313D02*
X7Y1313D01*
X1566Y1313D02*
X1573Y1313D01*
X0Y1312D02*
X7Y1312D01*
X1566Y1312D02*
X1573Y1312D01*
X0Y1311D02*
X7Y1311D01*
X1566Y1311D02*
X1573Y1311D01*
X0Y1310D02*
X7Y1310D01*
X1566Y1310D02*
X1573Y1310D01*
X0Y1309D02*
X7Y1309D01*
X1566Y1309D02*
X1573Y1309D01*
X0Y1308D02*
X7Y1308D01*
X1566Y1308D02*
X1573Y1308D01*
X0Y1307D02*
X7Y1307D01*
X1566Y1307D02*
X1573Y1307D01*
X0Y1306D02*
X7Y1306D01*
X1566Y1306D02*
X1573Y1306D01*
X0Y1305D02*
X7Y1305D01*
X1566Y1305D02*
X1573Y1305D01*
X0Y1304D02*
X7Y1304D01*
X1566Y1304D02*
X1573Y1304D01*
X0Y1303D02*
X7Y1303D01*
X1566Y1303D02*
X1573Y1303D01*
X0Y1302D02*
X7Y1302D01*
X1566Y1302D02*
X1573Y1302D01*
X0Y1301D02*
X7Y1301D01*
X1566Y1301D02*
X1573Y1301D01*
X0Y1300D02*
X7Y1300D01*
X1566Y1300D02*
X1573Y1300D01*
X0Y1299D02*
X7Y1299D01*
X1566Y1299D02*
X1573Y1299D01*
X0Y1298D02*
X7Y1298D01*
X1566Y1298D02*
X1573Y1298D01*
X0Y1297D02*
X7Y1297D01*
X1566Y1297D02*
X1573Y1297D01*
X0Y1296D02*
X7Y1296D01*
X1566Y1296D02*
X1573Y1296D01*
X0Y1295D02*
X7Y1295D01*
X1566Y1295D02*
X1573Y1295D01*
X0Y1294D02*
X7Y1294D01*
X1566Y1294D02*
X1573Y1294D01*
X0Y1293D02*
X7Y1293D01*
X1566Y1293D02*
X1573Y1293D01*
X0Y1292D02*
X7Y1292D01*
X1566Y1292D02*
X1573Y1292D01*
X0Y1291D02*
X7Y1291D01*
X1566Y1291D02*
X1573Y1291D01*
X0Y1290D02*
X7Y1290D01*
X1566Y1290D02*
X1573Y1290D01*
X0Y1289D02*
X7Y1289D01*
X1566Y1289D02*
X1573Y1289D01*
X0Y1288D02*
X7Y1288D01*
X1566Y1288D02*
X1573Y1288D01*
X0Y1287D02*
X7Y1287D01*
X1566Y1287D02*
X1573Y1287D01*
X0Y1286D02*
X7Y1286D01*
X1566Y1286D02*
X1573Y1286D01*
X0Y1285D02*
X7Y1285D01*
X1566Y1285D02*
X1573Y1285D01*
X0Y1284D02*
X7Y1284D01*
X1566Y1284D02*
X1573Y1284D01*
X0Y1283D02*
X7Y1283D01*
X1566Y1283D02*
X1573Y1283D01*
X0Y1282D02*
X7Y1282D01*
X1566Y1282D02*
X1573Y1282D01*
X0Y1281D02*
X7Y1281D01*
X1566Y1281D02*
X1573Y1281D01*
X0Y1280D02*
X7Y1280D01*
X1566Y1280D02*
X1573Y1280D01*
X0Y1279D02*
X7Y1279D01*
X1566Y1279D02*
X1573Y1279D01*
X0Y1278D02*
X7Y1278D01*
X1566Y1278D02*
X1573Y1278D01*
X0Y1277D02*
X7Y1277D01*
X1566Y1277D02*
X1573Y1277D01*
X0Y1276D02*
X7Y1276D01*
X1566Y1276D02*
X1573Y1276D01*
X0Y1275D02*
X7Y1275D01*
X1566Y1275D02*
X1573Y1275D01*
X0Y1274D02*
X7Y1274D01*
X1566Y1274D02*
X1573Y1274D01*
X0Y1273D02*
X7Y1273D01*
X1566Y1273D02*
X1573Y1273D01*
X0Y1272D02*
X7Y1272D01*
X1566Y1272D02*
X1573Y1272D01*
X0Y1271D02*
X7Y1271D01*
X1566Y1271D02*
X1573Y1271D01*
X0Y1270D02*
X7Y1270D01*
X1566Y1270D02*
X1573Y1270D01*
X0Y1269D02*
X7Y1269D01*
X1566Y1269D02*
X1573Y1269D01*
X0Y1268D02*
X7Y1268D01*
X1566Y1268D02*
X1573Y1268D01*
X0Y1267D02*
X7Y1267D01*
X1566Y1267D02*
X1573Y1267D01*
X0Y1266D02*
X7Y1266D01*
X1566Y1266D02*
X1573Y1266D01*
X0Y1265D02*
X7Y1265D01*
X1566Y1265D02*
X1573Y1265D01*
X0Y1264D02*
X7Y1264D01*
X1566Y1264D02*
X1573Y1264D01*
X0Y1263D02*
X7Y1263D01*
X1566Y1263D02*
X1573Y1263D01*
X0Y1262D02*
X7Y1262D01*
X1566Y1262D02*
X1573Y1262D01*
X0Y1261D02*
X7Y1261D01*
X1566Y1261D02*
X1573Y1261D01*
X0Y1260D02*
X7Y1260D01*
X1566Y1260D02*
X1573Y1260D01*
X0Y1259D02*
X7Y1259D01*
X1566Y1259D02*
X1573Y1259D01*
X0Y1258D02*
X7Y1258D01*
X1566Y1258D02*
X1573Y1258D01*
X0Y1257D02*
X7Y1257D01*
X1566Y1257D02*
X1573Y1257D01*
X0Y1256D02*
X7Y1256D01*
X1566Y1256D02*
X1573Y1256D01*
X0Y1255D02*
X7Y1255D01*
X1566Y1255D02*
X1573Y1255D01*
X0Y1254D02*
X7Y1254D01*
X1566Y1254D02*
X1573Y1254D01*
X0Y1253D02*
X7Y1253D01*
X1566Y1253D02*
X1573Y1253D01*
X0Y1252D02*
X7Y1252D01*
X1566Y1252D02*
X1573Y1252D01*
X0Y1251D02*
X7Y1251D01*
X1566Y1251D02*
X1573Y1251D01*
X0Y1250D02*
X7Y1250D01*
X1566Y1250D02*
X1573Y1250D01*
X0Y1249D02*
X7Y1249D01*
X1566Y1249D02*
X1573Y1249D01*
X0Y1248D02*
X7Y1248D01*
X1566Y1248D02*
X1573Y1248D01*
X0Y1247D02*
X7Y1247D01*
X1566Y1247D02*
X1573Y1247D01*
X0Y1246D02*
X7Y1246D01*
X1566Y1246D02*
X1573Y1246D01*
X0Y1245D02*
X7Y1245D01*
X1566Y1245D02*
X1573Y1245D01*
X0Y1244D02*
X7Y1244D01*
X1566Y1244D02*
X1573Y1244D01*
X0Y1243D02*
X7Y1243D01*
X1566Y1243D02*
X1573Y1243D01*
X0Y1242D02*
X7Y1242D01*
X1566Y1242D02*
X1573Y1242D01*
X0Y1241D02*
X7Y1241D01*
X1566Y1241D02*
X1573Y1241D01*
X0Y1240D02*
X7Y1240D01*
X1566Y1240D02*
X1573Y1240D01*
X0Y1239D02*
X7Y1239D01*
X1566Y1239D02*
X1573Y1239D01*
X0Y1238D02*
X7Y1238D01*
X1566Y1238D02*
X1573Y1238D01*
X0Y1237D02*
X7Y1237D01*
X1566Y1237D02*
X1573Y1237D01*
X0Y1236D02*
X7Y1236D01*
X1566Y1236D02*
X1573Y1236D01*
X0Y1235D02*
X7Y1235D01*
X1566Y1235D02*
X1573Y1235D01*
X0Y1234D02*
X7Y1234D01*
X1566Y1234D02*
X1573Y1234D01*
X0Y1233D02*
X7Y1233D01*
X1566Y1233D02*
X1573Y1233D01*
X0Y1232D02*
X7Y1232D01*
X1566Y1232D02*
X1573Y1232D01*
X0Y1231D02*
X7Y1231D01*
X1566Y1231D02*
X1573Y1231D01*
X0Y1230D02*
X7Y1230D01*
X1566Y1230D02*
X1573Y1230D01*
X0Y1229D02*
X7Y1229D01*
X1566Y1229D02*
X1573Y1229D01*
X0Y1228D02*
X7Y1228D01*
X1566Y1228D02*
X1573Y1228D01*
X0Y1227D02*
X7Y1227D01*
X1566Y1227D02*
X1573Y1227D01*
X0Y1226D02*
X7Y1226D01*
X1566Y1226D02*
X1573Y1226D01*
X0Y1225D02*
X7Y1225D01*
X1566Y1225D02*
X1573Y1225D01*
X0Y1224D02*
X7Y1224D01*
X1566Y1224D02*
X1573Y1224D01*
X0Y1223D02*
X7Y1223D01*
X1566Y1223D02*
X1573Y1223D01*
X0Y1222D02*
X7Y1222D01*
X1566Y1222D02*
X1573Y1222D01*
X0Y1221D02*
X7Y1221D01*
X1566Y1221D02*
X1573Y1221D01*
X0Y1220D02*
X7Y1220D01*
X1566Y1220D02*
X1573Y1220D01*
X0Y1219D02*
X7Y1219D01*
X1566Y1219D02*
X1573Y1219D01*
X0Y1218D02*
X7Y1218D01*
X1566Y1218D02*
X1573Y1218D01*
X0Y1217D02*
X7Y1217D01*
X1566Y1217D02*
X1573Y1217D01*
X0Y1216D02*
X7Y1216D01*
X1566Y1216D02*
X1573Y1216D01*
X0Y1215D02*
X7Y1215D01*
X1566Y1215D02*
X1573Y1215D01*
X0Y1214D02*
X7Y1214D01*
X1566Y1214D02*
X1573Y1214D01*
X0Y1213D02*
X7Y1213D01*
X1566Y1213D02*
X1573Y1213D01*
X0Y1212D02*
X7Y1212D01*
X1566Y1212D02*
X1573Y1212D01*
X0Y1211D02*
X7Y1211D01*
X1566Y1211D02*
X1573Y1211D01*
X0Y1210D02*
X7Y1210D01*
X1566Y1210D02*
X1573Y1210D01*
X0Y1209D02*
X7Y1209D01*
X1566Y1209D02*
X1573Y1209D01*
X0Y1208D02*
X7Y1208D01*
X1566Y1208D02*
X1573Y1208D01*
X0Y1207D02*
X7Y1207D01*
X1566Y1207D02*
X1573Y1207D01*
X0Y1206D02*
X7Y1206D01*
X1566Y1206D02*
X1573Y1206D01*
X0Y1205D02*
X7Y1205D01*
X1566Y1205D02*
X1573Y1205D01*
X0Y1204D02*
X7Y1204D01*
X1566Y1204D02*
X1573Y1204D01*
X0Y1203D02*
X7Y1203D01*
X1566Y1203D02*
X1573Y1203D01*
X0Y1202D02*
X7Y1202D01*
X1566Y1202D02*
X1573Y1202D01*
X0Y1201D02*
X7Y1201D01*
X1566Y1201D02*
X1573Y1201D01*
X0Y1200D02*
X7Y1200D01*
X1566Y1200D02*
X1573Y1200D01*
X0Y1199D02*
X7Y1199D01*
X1566Y1199D02*
X1573Y1199D01*
X0Y1198D02*
X7Y1198D01*
X1566Y1198D02*
X1573Y1198D01*
X0Y1197D02*
X7Y1197D01*
X1566Y1197D02*
X1573Y1197D01*
X0Y1196D02*
X7Y1196D01*
X1566Y1196D02*
X1573Y1196D01*
X0Y1195D02*
X7Y1195D01*
X1566Y1195D02*
X1573Y1195D01*
X0Y1194D02*
X7Y1194D01*
X1566Y1194D02*
X1573Y1194D01*
X0Y1193D02*
X7Y1193D01*
X1566Y1193D02*
X1573Y1193D01*
X0Y1192D02*
X7Y1192D01*
X1566Y1192D02*
X1573Y1192D01*
X0Y1191D02*
X7Y1191D01*
X1566Y1191D02*
X1573Y1191D01*
X0Y1190D02*
X7Y1190D01*
X1566Y1190D02*
X1573Y1190D01*
X0Y1189D02*
X7Y1189D01*
X1566Y1189D02*
X1573Y1189D01*
X0Y1188D02*
X7Y1188D01*
X1566Y1188D02*
X1573Y1188D01*
X0Y1187D02*
X7Y1187D01*
X1566Y1187D02*
X1573Y1187D01*
X0Y1186D02*
X7Y1186D01*
X1566Y1186D02*
X1573Y1186D01*
X0Y1185D02*
X7Y1185D01*
X1566Y1185D02*
X1573Y1185D01*
X0Y1184D02*
X7Y1184D01*
X1566Y1184D02*
X1573Y1184D01*
X0Y1183D02*
X7Y1183D01*
X1566Y1183D02*
X1573Y1183D01*
X0Y1182D02*
X7Y1182D01*
X1566Y1182D02*
X1573Y1182D01*
X0Y1181D02*
X7Y1181D01*
X1566Y1181D02*
X1573Y1181D01*
X0Y1180D02*
X7Y1180D01*
X1566Y1180D02*
X1573Y1180D01*
X0Y1179D02*
X7Y1179D01*
X1566Y1179D02*
X1573Y1179D01*
X0Y1178D02*
X7Y1178D01*
X1566Y1178D02*
X1573Y1178D01*
X0Y1177D02*
X7Y1177D01*
X1566Y1177D02*
X1573Y1177D01*
X0Y1176D02*
X7Y1176D01*
X1566Y1176D02*
X1573Y1176D01*
X0Y1175D02*
X7Y1175D01*
X1566Y1175D02*
X1573Y1175D01*
X0Y1174D02*
X7Y1174D01*
X1566Y1174D02*
X1573Y1174D01*
X0Y1173D02*
X7Y1173D01*
X1566Y1173D02*
X1573Y1173D01*
X0Y1172D02*
X7Y1172D01*
X1566Y1172D02*
X1573Y1172D01*
X0Y1171D02*
X7Y1171D01*
X1566Y1171D02*
X1573Y1171D01*
X0Y1170D02*
X7Y1170D01*
X1566Y1170D02*
X1573Y1170D01*
X0Y1169D02*
X7Y1169D01*
X1566Y1169D02*
X1573Y1169D01*
X0Y1168D02*
X7Y1168D01*
X1566Y1168D02*
X1573Y1168D01*
X0Y1167D02*
X7Y1167D01*
X1566Y1167D02*
X1573Y1167D01*
X0Y1166D02*
X7Y1166D01*
X1566Y1166D02*
X1573Y1166D01*
X0Y1165D02*
X7Y1165D01*
X1566Y1165D02*
X1573Y1165D01*
X0Y1164D02*
X7Y1164D01*
X1566Y1164D02*
X1573Y1164D01*
X0Y1163D02*
X7Y1163D01*
X1566Y1163D02*
X1573Y1163D01*
X0Y1162D02*
X7Y1162D01*
X1566Y1162D02*
X1573Y1162D01*
X0Y1161D02*
X7Y1161D01*
X1566Y1161D02*
X1573Y1161D01*
X0Y1160D02*
X7Y1160D01*
X1566Y1160D02*
X1573Y1160D01*
X0Y1159D02*
X7Y1159D01*
X1566Y1159D02*
X1573Y1159D01*
X0Y1158D02*
X7Y1158D01*
X1566Y1158D02*
X1573Y1158D01*
X0Y1157D02*
X7Y1157D01*
X1566Y1157D02*
X1573Y1157D01*
X0Y1156D02*
X7Y1156D01*
X1566Y1156D02*
X1573Y1156D01*
X0Y1155D02*
X7Y1155D01*
X1566Y1155D02*
X1573Y1155D01*
X0Y1154D02*
X7Y1154D01*
X1566Y1154D02*
X1573Y1154D01*
X0Y1153D02*
X7Y1153D01*
X1566Y1153D02*
X1573Y1153D01*
X0Y1152D02*
X7Y1152D01*
X1566Y1152D02*
X1573Y1152D01*
X0Y1151D02*
X7Y1151D01*
X1566Y1151D02*
X1573Y1151D01*
X0Y1150D02*
X7Y1150D01*
X1566Y1150D02*
X1573Y1150D01*
X0Y1149D02*
X7Y1149D01*
X1566Y1149D02*
X1573Y1149D01*
X0Y1148D02*
X7Y1148D01*
X1566Y1148D02*
X1573Y1148D01*
X0Y1147D02*
X7Y1147D01*
X1566Y1147D02*
X1573Y1147D01*
X0Y1146D02*
X7Y1146D01*
X1566Y1146D02*
X1573Y1146D01*
X0Y1145D02*
X7Y1145D01*
X1566Y1145D02*
X1573Y1145D01*
X0Y1144D02*
X7Y1144D01*
X1566Y1144D02*
X1573Y1144D01*
X0Y1143D02*
X7Y1143D01*
X1566Y1143D02*
X1573Y1143D01*
X0Y1142D02*
X7Y1142D01*
X1566Y1142D02*
X1573Y1142D01*
X0Y1141D02*
X7Y1141D01*
X1566Y1141D02*
X1573Y1141D01*
X0Y1140D02*
X7Y1140D01*
X1566Y1140D02*
X1573Y1140D01*
X0Y1139D02*
X7Y1139D01*
X1566Y1139D02*
X1573Y1139D01*
X0Y1138D02*
X7Y1138D01*
X1566Y1138D02*
X1573Y1138D01*
X0Y1137D02*
X7Y1137D01*
X1566Y1137D02*
X1573Y1137D01*
X0Y1136D02*
X7Y1136D01*
X1566Y1136D02*
X1573Y1136D01*
X0Y1135D02*
X7Y1135D01*
X1566Y1135D02*
X1573Y1135D01*
X0Y1134D02*
X7Y1134D01*
X1566Y1134D02*
X1573Y1134D01*
X0Y1133D02*
X7Y1133D01*
X1566Y1133D02*
X1573Y1133D01*
X0Y1132D02*
X7Y1132D01*
X1566Y1132D02*
X1573Y1132D01*
X0Y1131D02*
X7Y1131D01*
X1566Y1131D02*
X1573Y1131D01*
X0Y1130D02*
X7Y1130D01*
X1566Y1130D02*
X1573Y1130D01*
X0Y1129D02*
X7Y1129D01*
X1566Y1129D02*
X1573Y1129D01*
X0Y1128D02*
X7Y1128D01*
X1566Y1128D02*
X1573Y1128D01*
X0Y1127D02*
X7Y1127D01*
X1566Y1127D02*
X1573Y1127D01*
X0Y1126D02*
X7Y1126D01*
X1566Y1126D02*
X1573Y1126D01*
X0Y1125D02*
X7Y1125D01*
X1566Y1125D02*
X1573Y1125D01*
X0Y1124D02*
X7Y1124D01*
X1566Y1124D02*
X1573Y1124D01*
X0Y1123D02*
X7Y1123D01*
X1566Y1123D02*
X1573Y1123D01*
X0Y1122D02*
X7Y1122D01*
X1566Y1122D02*
X1573Y1122D01*
X0Y1121D02*
X7Y1121D01*
X1566Y1121D02*
X1573Y1121D01*
X0Y1120D02*
X7Y1120D01*
X1566Y1120D02*
X1573Y1120D01*
X0Y1119D02*
X7Y1119D01*
X1566Y1119D02*
X1573Y1119D01*
X0Y1118D02*
X7Y1118D01*
X1566Y1118D02*
X1573Y1118D01*
X0Y1117D02*
X7Y1117D01*
X1566Y1117D02*
X1573Y1117D01*
X0Y1116D02*
X7Y1116D01*
X1566Y1116D02*
X1573Y1116D01*
X0Y1115D02*
X7Y1115D01*
X1566Y1115D02*
X1573Y1115D01*
X0Y1114D02*
X7Y1114D01*
X1566Y1114D02*
X1573Y1114D01*
X0Y1113D02*
X7Y1113D01*
X1566Y1113D02*
X1573Y1113D01*
X0Y1112D02*
X7Y1112D01*
X1566Y1112D02*
X1573Y1112D01*
X0Y1111D02*
X7Y1111D01*
X1566Y1111D02*
X1573Y1111D01*
X0Y1110D02*
X7Y1110D01*
X1566Y1110D02*
X1573Y1110D01*
X0Y1109D02*
X7Y1109D01*
X1566Y1109D02*
X1573Y1109D01*
X0Y1108D02*
X7Y1108D01*
X1566Y1108D02*
X1573Y1108D01*
X0Y1107D02*
X7Y1107D01*
X1566Y1107D02*
X1573Y1107D01*
X0Y1106D02*
X7Y1106D01*
X1566Y1106D02*
X1573Y1106D01*
X0Y1105D02*
X7Y1105D01*
X1566Y1105D02*
X1573Y1105D01*
X0Y1104D02*
X7Y1104D01*
X1566Y1104D02*
X1573Y1104D01*
X0Y1103D02*
X7Y1103D01*
X1566Y1103D02*
X1573Y1103D01*
X0Y1102D02*
X7Y1102D01*
X1566Y1102D02*
X1573Y1102D01*
X0Y1101D02*
X7Y1101D01*
X1566Y1101D02*
X1573Y1101D01*
X0Y1100D02*
X7Y1100D01*
X1566Y1100D02*
X1573Y1100D01*
X0Y1099D02*
X7Y1099D01*
X1566Y1099D02*
X1573Y1099D01*
X0Y1098D02*
X7Y1098D01*
X1566Y1098D02*
X1573Y1098D01*
X0Y1097D02*
X7Y1097D01*
X1566Y1097D02*
X1573Y1097D01*
X0Y1096D02*
X7Y1096D01*
X1566Y1096D02*
X1573Y1096D01*
X0Y1095D02*
X7Y1095D01*
X1566Y1095D02*
X1573Y1095D01*
X0Y1094D02*
X7Y1094D01*
X1566Y1094D02*
X1573Y1094D01*
X0Y1093D02*
X7Y1093D01*
X1566Y1093D02*
X1573Y1093D01*
X0Y1092D02*
X7Y1092D01*
X1566Y1092D02*
X1573Y1092D01*
X0Y1091D02*
X7Y1091D01*
X1566Y1091D02*
X1573Y1091D01*
X0Y1090D02*
X7Y1090D01*
X1566Y1090D02*
X1573Y1090D01*
X0Y1089D02*
X7Y1089D01*
X1566Y1089D02*
X1573Y1089D01*
X0Y1088D02*
X7Y1088D01*
X1566Y1088D02*
X1573Y1088D01*
X0Y1087D02*
X7Y1087D01*
X1566Y1087D02*
X1573Y1087D01*
X0Y1086D02*
X7Y1086D01*
X1566Y1086D02*
X1573Y1086D01*
X0Y1085D02*
X7Y1085D01*
X1566Y1085D02*
X1573Y1085D01*
X0Y1084D02*
X7Y1084D01*
X1566Y1084D02*
X1573Y1084D01*
X0Y1083D02*
X7Y1083D01*
X1566Y1083D02*
X1573Y1083D01*
X0Y1082D02*
X7Y1082D01*
X1566Y1082D02*
X1573Y1082D01*
X0Y1081D02*
X7Y1081D01*
X1566Y1081D02*
X1573Y1081D01*
X0Y1080D02*
X7Y1080D01*
X1566Y1080D02*
X1573Y1080D01*
X0Y1079D02*
X7Y1079D01*
X1566Y1079D02*
X1573Y1079D01*
X0Y1078D02*
X7Y1078D01*
X1566Y1078D02*
X1573Y1078D01*
X0Y1077D02*
X7Y1077D01*
X1566Y1077D02*
X1573Y1077D01*
X0Y1076D02*
X7Y1076D01*
X1566Y1076D02*
X1573Y1076D01*
X0Y1075D02*
X7Y1075D01*
X1566Y1075D02*
X1573Y1075D01*
X0Y1074D02*
X7Y1074D01*
X1566Y1074D02*
X1573Y1074D01*
X0Y1073D02*
X7Y1073D01*
X1566Y1073D02*
X1573Y1073D01*
X0Y1072D02*
X7Y1072D01*
X1566Y1072D02*
X1573Y1072D01*
X0Y1071D02*
X7Y1071D01*
X1566Y1071D02*
X1573Y1071D01*
X0Y1070D02*
X7Y1070D01*
X1566Y1070D02*
X1573Y1070D01*
X0Y1069D02*
X7Y1069D01*
X1566Y1069D02*
X1573Y1069D01*
X0Y1068D02*
X7Y1068D01*
X1566Y1068D02*
X1573Y1068D01*
X0Y1067D02*
X7Y1067D01*
X1566Y1067D02*
X1573Y1067D01*
X0Y1066D02*
X7Y1066D01*
X1566Y1066D02*
X1573Y1066D01*
X0Y1065D02*
X7Y1065D01*
X1566Y1065D02*
X1573Y1065D01*
X0Y1064D02*
X7Y1064D01*
X1566Y1064D02*
X1573Y1064D01*
X0Y1063D02*
X7Y1063D01*
X1566Y1063D02*
X1573Y1063D01*
X0Y1062D02*
X7Y1062D01*
X1566Y1062D02*
X1573Y1062D01*
X0Y1061D02*
X7Y1061D01*
X1566Y1061D02*
X1573Y1061D01*
X0Y1060D02*
X7Y1060D01*
X1566Y1060D02*
X1573Y1060D01*
X0Y1059D02*
X7Y1059D01*
X1566Y1059D02*
X1573Y1059D01*
X0Y1058D02*
X7Y1058D01*
X1566Y1058D02*
X1573Y1058D01*
X0Y1057D02*
X7Y1057D01*
X1566Y1057D02*
X1573Y1057D01*
X0Y1056D02*
X7Y1056D01*
X1566Y1056D02*
X1573Y1056D01*
X0Y1055D02*
X7Y1055D01*
X1566Y1055D02*
X1573Y1055D01*
X0Y1054D02*
X7Y1054D01*
X1566Y1054D02*
X1573Y1054D01*
X0Y1053D02*
X7Y1053D01*
X1566Y1053D02*
X1573Y1053D01*
X0Y1052D02*
X7Y1052D01*
X1566Y1052D02*
X1573Y1052D01*
X0Y1051D02*
X7Y1051D01*
X1566Y1051D02*
X1573Y1051D01*
X0Y1050D02*
X7Y1050D01*
X1566Y1050D02*
X1573Y1050D01*
X0Y1049D02*
X7Y1049D01*
X1566Y1049D02*
X1573Y1049D01*
X0Y1048D02*
X7Y1048D01*
X1566Y1048D02*
X1573Y1048D01*
X0Y1047D02*
X7Y1047D01*
X1566Y1047D02*
X1573Y1047D01*
X0Y1046D02*
X7Y1046D01*
X1566Y1046D02*
X1573Y1046D01*
X0Y1045D02*
X7Y1045D01*
X1566Y1045D02*
X1573Y1045D01*
X0Y1044D02*
X7Y1044D01*
X1566Y1044D02*
X1573Y1044D01*
X0Y1043D02*
X7Y1043D01*
X1566Y1043D02*
X1573Y1043D01*
X0Y1042D02*
X7Y1042D01*
X1566Y1042D02*
X1573Y1042D01*
X0Y1041D02*
X7Y1041D01*
X1566Y1041D02*
X1573Y1041D01*
X0Y1040D02*
X7Y1040D01*
X1566Y1040D02*
X1573Y1040D01*
X0Y1039D02*
X7Y1039D01*
X1566Y1039D02*
X1573Y1039D01*
X0Y1038D02*
X7Y1038D01*
X1566Y1038D02*
X1573Y1038D01*
X0Y1037D02*
X7Y1037D01*
X1566Y1037D02*
X1573Y1037D01*
X0Y1036D02*
X7Y1036D01*
X1566Y1036D02*
X1573Y1036D01*
X0Y1035D02*
X7Y1035D01*
X1566Y1035D02*
X1573Y1035D01*
X0Y1034D02*
X7Y1034D01*
X1566Y1034D02*
X1573Y1034D01*
X0Y1033D02*
X7Y1033D01*
X1566Y1033D02*
X1573Y1033D01*
X0Y1032D02*
X7Y1032D01*
X1566Y1032D02*
X1573Y1032D01*
X0Y1031D02*
X7Y1031D01*
X1566Y1031D02*
X1573Y1031D01*
X0Y1030D02*
X7Y1030D01*
X1566Y1030D02*
X1573Y1030D01*
X0Y1029D02*
X7Y1029D01*
X1566Y1029D02*
X1573Y1029D01*
X0Y1028D02*
X7Y1028D01*
X1566Y1028D02*
X1573Y1028D01*
X0Y1027D02*
X7Y1027D01*
X1566Y1027D02*
X1573Y1027D01*
X0Y1026D02*
X7Y1026D01*
X1566Y1026D02*
X1573Y1026D01*
X0Y1025D02*
X7Y1025D01*
X1566Y1025D02*
X1573Y1025D01*
X0Y1024D02*
X7Y1024D01*
X1566Y1024D02*
X1573Y1024D01*
X0Y1023D02*
X7Y1023D01*
X1566Y1023D02*
X1573Y1023D01*
X0Y1022D02*
X7Y1022D01*
X1566Y1022D02*
X1573Y1022D01*
X0Y1021D02*
X7Y1021D01*
X1566Y1021D02*
X1573Y1021D01*
X0Y1020D02*
X7Y1020D01*
X1566Y1020D02*
X1573Y1020D01*
X0Y1019D02*
X7Y1019D01*
X1566Y1019D02*
X1573Y1019D01*
X0Y1018D02*
X7Y1018D01*
X1566Y1018D02*
X1573Y1018D01*
X0Y1017D02*
X7Y1017D01*
X1566Y1017D02*
X1573Y1017D01*
X0Y1016D02*
X7Y1016D01*
X1566Y1016D02*
X1573Y1016D01*
X0Y1015D02*
X7Y1015D01*
X1566Y1015D02*
X1573Y1015D01*
X0Y1014D02*
X7Y1014D01*
X1566Y1014D02*
X1573Y1014D01*
X0Y1013D02*
X7Y1013D01*
X1566Y1013D02*
X1573Y1013D01*
X0Y1012D02*
X7Y1012D01*
X1566Y1012D02*
X1573Y1012D01*
X0Y1011D02*
X7Y1011D01*
X1566Y1011D02*
X1573Y1011D01*
X0Y1010D02*
X7Y1010D01*
X1566Y1010D02*
X1573Y1010D01*
X0Y1009D02*
X7Y1009D01*
X1566Y1009D02*
X1573Y1009D01*
X0Y1008D02*
X7Y1008D01*
X1142Y1008D02*
X1142Y1008D01*
X1566Y1008D02*
X1573Y1008D01*
X0Y1007D02*
X7Y1007D01*
X1141Y1007D02*
X1142Y1007D01*
X1566Y1007D02*
X1573Y1007D01*
X0Y1006D02*
X7Y1006D01*
X1140Y1006D02*
X1142Y1006D01*
X1566Y1006D02*
X1573Y1006D01*
X0Y1005D02*
X7Y1005D01*
X1139Y1005D02*
X1142Y1005D01*
X1566Y1005D02*
X1573Y1005D01*
X0Y1004D02*
X7Y1004D01*
X1138Y1004D02*
X1142Y1004D01*
X1566Y1004D02*
X1573Y1004D01*
X0Y1003D02*
X7Y1003D01*
X1137Y1003D02*
X1142Y1003D01*
X1566Y1003D02*
X1573Y1003D01*
X0Y1002D02*
X7Y1002D01*
X1136Y1002D02*
X1142Y1002D01*
X1566Y1002D02*
X1573Y1002D01*
X0Y1001D02*
X7Y1001D01*
X1136Y1001D02*
X1142Y1001D01*
X1566Y1001D02*
X1573Y1001D01*
X0Y1000D02*
X7Y1000D01*
X1136Y1000D02*
X1142Y1000D01*
X1566Y1000D02*
X1573Y1000D01*
X0Y999D02*
X7Y999D01*
X1136Y999D02*
X1142Y999D01*
X1566Y999D02*
X1573Y999D01*
X0Y998D02*
X7Y998D01*
X1091Y998D02*
X1091Y998D01*
X1136Y998D02*
X1142Y998D01*
X1566Y998D02*
X1573Y998D01*
X0Y997D02*
X7Y997D01*
X1091Y997D02*
X1093Y997D01*
X1136Y997D02*
X1142Y997D01*
X1566Y997D02*
X1573Y997D01*
X0Y996D02*
X7Y996D01*
X1092Y996D02*
X1096Y996D01*
X1136Y996D02*
X1142Y996D01*
X1566Y996D02*
X1573Y996D01*
X0Y995D02*
X7Y995D01*
X1093Y995D02*
X1099Y995D01*
X1136Y995D02*
X1142Y995D01*
X1566Y995D02*
X1573Y995D01*
X0Y994D02*
X7Y994D01*
X1095Y994D02*
X1103Y994D01*
X1136Y994D02*
X1142Y994D01*
X1566Y994D02*
X1573Y994D01*
X0Y993D02*
X7Y993D01*
X1096Y993D02*
X1106Y993D01*
X1136Y993D02*
X1142Y993D01*
X1566Y993D02*
X1573Y993D01*
X0Y992D02*
X7Y992D01*
X1097Y992D02*
X1108Y992D01*
X1135Y992D02*
X1142Y992D01*
X1566Y992D02*
X1573Y992D01*
X0Y991D02*
X7Y991D01*
X1099Y991D02*
X1109Y991D01*
X1135Y991D02*
X1142Y991D01*
X1566Y991D02*
X1573Y991D01*
X0Y990D02*
X7Y990D01*
X1100Y990D02*
X1141Y990D01*
X1566Y990D02*
X1573Y990D01*
X0Y989D02*
X7Y989D01*
X1101Y989D02*
X1141Y989D01*
X1566Y989D02*
X1573Y989D01*
X0Y988D02*
X7Y988D01*
X1102Y988D02*
X1140Y988D01*
X1566Y988D02*
X1573Y988D01*
X0Y987D02*
X7Y987D01*
X1104Y987D02*
X1139Y987D01*
X1566Y987D02*
X1573Y987D01*
X0Y986D02*
X7Y986D01*
X1105Y986D02*
X1139Y986D01*
X1566Y986D02*
X1573Y986D01*
X0Y985D02*
X7Y985D01*
X1107Y985D02*
X1137Y985D01*
X1566Y985D02*
X1573Y985D01*
X0Y984D02*
X7Y984D01*
X1109Y984D02*
X1136Y984D01*
X1566Y984D02*
X1573Y984D01*
X0Y983D02*
X7Y983D01*
X1566Y983D02*
X1573Y983D01*
X0Y982D02*
X7Y982D01*
X1566Y982D02*
X1573Y982D01*
X0Y981D02*
X7Y981D01*
X1566Y981D02*
X1573Y981D01*
X0Y980D02*
X7Y980D01*
X1566Y980D02*
X1573Y980D01*
X0Y979D02*
X7Y979D01*
X1566Y979D02*
X1573Y979D01*
X0Y978D02*
X7Y978D01*
X1566Y978D02*
X1573Y978D01*
X0Y977D02*
X7Y977D01*
X1566Y977D02*
X1573Y977D01*
X0Y976D02*
X7Y976D01*
X1566Y976D02*
X1573Y976D01*
X0Y975D02*
X7Y975D01*
X1566Y975D02*
X1573Y975D01*
X0Y974D02*
X7Y974D01*
X1566Y974D02*
X1573Y974D01*
X0Y973D02*
X7Y973D01*
X1566Y973D02*
X1573Y973D01*
X0Y972D02*
X7Y972D01*
X1566Y972D02*
X1573Y972D01*
X0Y971D02*
X7Y971D01*
X1566Y971D02*
X1573Y971D01*
X0Y970D02*
X7Y970D01*
X1566Y970D02*
X1573Y970D01*
X0Y969D02*
X7Y969D01*
X1566Y969D02*
X1573Y969D01*
X0Y968D02*
X7Y968D01*
X1566Y968D02*
X1573Y968D01*
X0Y967D02*
X7Y967D01*
X1566Y967D02*
X1573Y967D01*
X0Y966D02*
X7Y966D01*
X1566Y966D02*
X1573Y966D01*
X0Y965D02*
X7Y965D01*
X1566Y965D02*
X1573Y965D01*
X0Y964D02*
X7Y964D01*
X1566Y964D02*
X1573Y964D01*
X0Y963D02*
X7Y963D01*
X1566Y963D02*
X1573Y963D01*
X0Y962D02*
X7Y962D01*
X1566Y962D02*
X1573Y962D01*
X0Y961D02*
X7Y961D01*
X1566Y961D02*
X1573Y961D01*
X0Y960D02*
X7Y960D01*
X1566Y960D02*
X1573Y960D01*
X0Y959D02*
X7Y959D01*
X1566Y959D02*
X1573Y959D01*
X0Y958D02*
X7Y958D01*
X1566Y958D02*
X1573Y958D01*
X0Y957D02*
X7Y957D01*
X1566Y957D02*
X1573Y957D01*
X0Y956D02*
X7Y956D01*
X1566Y956D02*
X1573Y956D01*
X0Y955D02*
X7Y955D01*
X1566Y955D02*
X1573Y955D01*
X0Y954D02*
X7Y954D01*
X1566Y954D02*
X1573Y954D01*
X0Y953D02*
X7Y953D01*
X1566Y953D02*
X1573Y953D01*
X0Y952D02*
X7Y952D01*
X1566Y952D02*
X1573Y952D01*
X0Y951D02*
X7Y951D01*
X1566Y951D02*
X1573Y951D01*
X0Y950D02*
X7Y950D01*
X1566Y950D02*
X1573Y950D01*
X0Y949D02*
X7Y949D01*
X1566Y949D02*
X1573Y949D01*
X0Y948D02*
X7Y948D01*
X1566Y948D02*
X1573Y948D01*
X0Y947D02*
X7Y947D01*
X1566Y947D02*
X1573Y947D01*
X0Y946D02*
X7Y946D01*
X1566Y946D02*
X1573Y946D01*
X0Y945D02*
X7Y945D01*
X1566Y945D02*
X1573Y945D01*
X0Y944D02*
X7Y944D01*
X1566Y944D02*
X1573Y944D01*
X0Y943D02*
X7Y943D01*
X1566Y943D02*
X1573Y943D01*
X0Y942D02*
X7Y942D01*
X1566Y942D02*
X1573Y942D01*
X0Y941D02*
X7Y941D01*
X1566Y941D02*
X1573Y941D01*
X0Y940D02*
X7Y940D01*
X1566Y940D02*
X1573Y940D01*
X0Y939D02*
X7Y939D01*
X1566Y939D02*
X1573Y939D01*
X0Y938D02*
X7Y938D01*
X1566Y938D02*
X1573Y938D01*
X0Y937D02*
X7Y937D01*
X1566Y937D02*
X1573Y937D01*
X0Y936D02*
X7Y936D01*
X1566Y936D02*
X1573Y936D01*
X0Y935D02*
X7Y935D01*
X1566Y935D02*
X1573Y935D01*
X0Y934D02*
X7Y934D01*
X1566Y934D02*
X1573Y934D01*
X0Y933D02*
X7Y933D01*
X1566Y933D02*
X1573Y933D01*
X0Y932D02*
X7Y932D01*
X1566Y932D02*
X1573Y932D01*
X0Y931D02*
X7Y931D01*
X1566Y931D02*
X1573Y931D01*
X0Y930D02*
X7Y930D01*
X1566Y930D02*
X1573Y930D01*
X0Y929D02*
X7Y929D01*
X1566Y929D02*
X1573Y929D01*
X0Y928D02*
X7Y928D01*
X1566Y928D02*
X1573Y928D01*
X0Y927D02*
X7Y927D01*
X1566Y927D02*
X1573Y927D01*
X0Y926D02*
X7Y926D01*
X1566Y926D02*
X1573Y926D01*
X0Y925D02*
X7Y925D01*
X1566Y925D02*
X1573Y925D01*
X0Y924D02*
X7Y924D01*
X1566Y924D02*
X1573Y924D01*
X0Y923D02*
X7Y923D01*
X1566Y923D02*
X1573Y923D01*
X0Y922D02*
X7Y922D01*
X1566Y922D02*
X1573Y922D01*
X0Y921D02*
X7Y921D01*
X1566Y921D02*
X1573Y921D01*
X0Y920D02*
X7Y920D01*
X1566Y920D02*
X1573Y920D01*
X0Y919D02*
X7Y919D01*
X1566Y919D02*
X1573Y919D01*
X0Y918D02*
X7Y918D01*
X1566Y918D02*
X1573Y918D01*
X0Y917D02*
X7Y917D01*
X1566Y917D02*
X1573Y917D01*
X0Y916D02*
X7Y916D01*
X1566Y916D02*
X1573Y916D01*
X0Y915D02*
X7Y915D01*
X1566Y915D02*
X1573Y915D01*
X0Y914D02*
X7Y914D01*
X1566Y914D02*
X1573Y914D01*
X0Y913D02*
X7Y913D01*
X1566Y913D02*
X1573Y913D01*
X0Y912D02*
X7Y912D01*
X1566Y912D02*
X1573Y912D01*
X0Y911D02*
X7Y911D01*
X1566Y911D02*
X1573Y911D01*
X0Y910D02*
X7Y910D01*
X1566Y910D02*
X1573Y910D01*
X0Y909D02*
X7Y909D01*
X1566Y909D02*
X1573Y909D01*
X0Y908D02*
X7Y908D01*
X1566Y908D02*
X1573Y908D01*
X0Y907D02*
X7Y907D01*
X1566Y907D02*
X1573Y907D01*
X0Y906D02*
X7Y906D01*
X1566Y906D02*
X1573Y906D01*
X0Y905D02*
X7Y905D01*
X1566Y905D02*
X1573Y905D01*
X0Y904D02*
X7Y904D01*
X1263Y904D02*
X1264Y904D01*
X1356Y904D02*
X1358Y904D01*
X1566Y904D02*
X1573Y904D01*
X0Y903D02*
X7Y903D01*
X1260Y903D02*
X1264Y903D01*
X1356Y903D02*
X1360Y903D01*
X1566Y903D02*
X1573Y903D01*
X0Y902D02*
X7Y902D01*
X1257Y902D02*
X1264Y902D01*
X1356Y902D02*
X1363Y902D01*
X1566Y902D02*
X1573Y902D01*
X0Y901D02*
X7Y901D01*
X1255Y901D02*
X1265Y901D01*
X1355Y901D02*
X1365Y901D01*
X1566Y901D02*
X1573Y901D01*
X0Y900D02*
X7Y900D01*
X1252Y900D02*
X1265Y900D01*
X1355Y900D02*
X1368Y900D01*
X1566Y900D02*
X1573Y900D01*
X0Y899D02*
X7Y899D01*
X1250Y899D02*
X1265Y899D01*
X1355Y899D02*
X1370Y899D01*
X1566Y899D02*
X1573Y899D01*
X0Y898D02*
X7Y898D01*
X1248Y898D02*
X1266Y898D01*
X1354Y898D02*
X1372Y898D01*
X1566Y898D02*
X1573Y898D01*
X0Y897D02*
X7Y897D01*
X1246Y897D02*
X1266Y897D01*
X1354Y897D02*
X1374Y897D01*
X1566Y897D02*
X1573Y897D01*
X0Y896D02*
X7Y896D01*
X1244Y896D02*
X1266Y896D01*
X1354Y896D02*
X1376Y896D01*
X1566Y896D02*
X1573Y896D01*
X0Y895D02*
X7Y895D01*
X1242Y895D02*
X1267Y895D01*
X1354Y895D02*
X1378Y895D01*
X1566Y895D02*
X1573Y895D01*
X0Y894D02*
X7Y894D01*
X1240Y894D02*
X1266Y894D01*
X1354Y894D02*
X1380Y894D01*
X1566Y894D02*
X1573Y894D01*
X0Y893D02*
X7Y893D01*
X1238Y893D02*
X1264Y893D01*
X1356Y893D02*
X1382Y893D01*
X1566Y893D02*
X1573Y893D01*
X0Y892D02*
X7Y892D01*
X1236Y892D02*
X1261Y892D01*
X1359Y892D02*
X1384Y892D01*
X1566Y892D02*
X1573Y892D01*
X0Y891D02*
X7Y891D01*
X1235Y891D02*
X1258Y891D01*
X1362Y891D02*
X1385Y891D01*
X1566Y891D02*
X1573Y891D01*
X0Y890D02*
X7Y890D01*
X1233Y890D02*
X1256Y890D01*
X1364Y890D02*
X1387Y890D01*
X1566Y890D02*
X1573Y890D01*
X0Y889D02*
X7Y889D01*
X1232Y889D02*
X1254Y889D01*
X1366Y889D02*
X1388Y889D01*
X1566Y889D02*
X1573Y889D01*
X0Y888D02*
X7Y888D01*
X1230Y888D02*
X1252Y888D01*
X1369Y888D02*
X1390Y888D01*
X1566Y888D02*
X1573Y888D01*
X0Y887D02*
X7Y887D01*
X1229Y887D02*
X1249Y887D01*
X1371Y887D02*
X1391Y887D01*
X1566Y887D02*
X1573Y887D01*
X0Y886D02*
X7Y886D01*
X1227Y886D02*
X1247Y886D01*
X1373Y886D02*
X1393Y886D01*
X1566Y886D02*
X1573Y886D01*
X0Y885D02*
X7Y885D01*
X1226Y885D02*
X1245Y885D01*
X1375Y885D02*
X1394Y885D01*
X1566Y885D02*
X1573Y885D01*
X0Y884D02*
X7Y884D01*
X1224Y884D02*
X1244Y884D01*
X1376Y884D02*
X1396Y884D01*
X1566Y884D02*
X1573Y884D01*
X0Y883D02*
X7Y883D01*
X1223Y883D02*
X1242Y883D01*
X1378Y883D02*
X1397Y883D01*
X1566Y883D02*
X1573Y883D01*
X0Y882D02*
X7Y882D01*
X1222Y882D02*
X1240Y882D01*
X1380Y882D02*
X1398Y882D01*
X1566Y882D02*
X1573Y882D01*
X0Y881D02*
X7Y881D01*
X1220Y881D02*
X1238Y881D01*
X1382Y881D02*
X1400Y881D01*
X1566Y881D02*
X1573Y881D01*
X0Y880D02*
X7Y880D01*
X1219Y880D02*
X1237Y880D01*
X1383Y880D02*
X1401Y880D01*
X1566Y880D02*
X1573Y880D01*
X0Y879D02*
X7Y879D01*
X1218Y879D02*
X1235Y879D01*
X1385Y879D02*
X1402Y879D01*
X1566Y879D02*
X1573Y879D01*
X0Y878D02*
X7Y878D01*
X1217Y878D02*
X1234Y878D01*
X1386Y878D02*
X1403Y878D01*
X1566Y878D02*
X1573Y878D01*
X0Y877D02*
X7Y877D01*
X1215Y877D02*
X1232Y877D01*
X1388Y877D02*
X1405Y877D01*
X1566Y877D02*
X1573Y877D01*
X0Y876D02*
X7Y876D01*
X1214Y876D02*
X1231Y876D01*
X1389Y876D02*
X1406Y876D01*
X1566Y876D02*
X1573Y876D01*
X0Y875D02*
X7Y875D01*
X1213Y875D02*
X1229Y875D01*
X1391Y875D02*
X1407Y875D01*
X1566Y875D02*
X1573Y875D01*
X0Y874D02*
X7Y874D01*
X1212Y874D02*
X1228Y874D01*
X1392Y874D02*
X1408Y874D01*
X1566Y874D02*
X1573Y874D01*
X0Y873D02*
X7Y873D01*
X1211Y873D02*
X1227Y873D01*
X1393Y873D02*
X1409Y873D01*
X1566Y873D02*
X1573Y873D01*
X0Y872D02*
X7Y872D01*
X1210Y872D02*
X1225Y872D01*
X1395Y872D02*
X1410Y872D01*
X1566Y872D02*
X1573Y872D01*
X0Y871D02*
X7Y871D01*
X1209Y871D02*
X1224Y871D01*
X1396Y871D02*
X1411Y871D01*
X1566Y871D02*
X1573Y871D01*
X0Y870D02*
X7Y870D01*
X1208Y870D02*
X1223Y870D01*
X1397Y870D02*
X1412Y870D01*
X1566Y870D02*
X1573Y870D01*
X0Y869D02*
X7Y869D01*
X1207Y869D02*
X1222Y869D01*
X1398Y869D02*
X1413Y869D01*
X1566Y869D02*
X1573Y869D01*
X0Y868D02*
X7Y868D01*
X1206Y868D02*
X1220Y868D01*
X1400Y868D02*
X1414Y868D01*
X1566Y868D02*
X1573Y868D01*
X0Y867D02*
X7Y867D01*
X1205Y867D02*
X1219Y867D01*
X1401Y867D02*
X1415Y867D01*
X1566Y867D02*
X1573Y867D01*
X0Y866D02*
X7Y866D01*
X1204Y866D02*
X1218Y866D01*
X1402Y866D02*
X1416Y866D01*
X1566Y866D02*
X1573Y866D01*
X0Y865D02*
X7Y865D01*
X1203Y865D02*
X1217Y865D01*
X1403Y865D02*
X1417Y865D01*
X1566Y865D02*
X1573Y865D01*
X0Y864D02*
X7Y864D01*
X1202Y864D02*
X1216Y864D01*
X1404Y864D02*
X1418Y864D01*
X1566Y864D02*
X1573Y864D01*
X0Y863D02*
X7Y863D01*
X1201Y863D02*
X1215Y863D01*
X1405Y863D02*
X1419Y863D01*
X1566Y863D02*
X1573Y863D01*
X0Y862D02*
X7Y862D01*
X1200Y862D02*
X1214Y862D01*
X1406Y862D02*
X1420Y862D01*
X1566Y862D02*
X1573Y862D01*
X0Y861D02*
X7Y861D01*
X1199Y861D02*
X1213Y861D01*
X1407Y861D02*
X1421Y861D01*
X1566Y861D02*
X1573Y861D01*
X0Y860D02*
X7Y860D01*
X1198Y860D02*
X1212Y860D01*
X1408Y860D02*
X1422Y860D01*
X1566Y860D02*
X1573Y860D01*
X0Y859D02*
X7Y859D01*
X1198Y859D02*
X1211Y859D01*
X1409Y859D02*
X1422Y859D01*
X1566Y859D02*
X1573Y859D01*
X0Y858D02*
X7Y858D01*
X1197Y858D02*
X1210Y858D01*
X1410Y858D02*
X1423Y858D01*
X1566Y858D02*
X1573Y858D01*
X0Y857D02*
X7Y857D01*
X1196Y857D02*
X1209Y857D01*
X1411Y857D02*
X1424Y857D01*
X1566Y857D02*
X1573Y857D01*
X0Y856D02*
X7Y856D01*
X1195Y856D02*
X1208Y856D01*
X1412Y856D02*
X1425Y856D01*
X1566Y856D02*
X1573Y856D01*
X0Y855D02*
X7Y855D01*
X1194Y855D02*
X1207Y855D01*
X1413Y855D02*
X1426Y855D01*
X1566Y855D02*
X1573Y855D01*
X0Y854D02*
X7Y854D01*
X1194Y854D02*
X1206Y854D01*
X1414Y854D02*
X1426Y854D01*
X1566Y854D02*
X1573Y854D01*
X0Y853D02*
X7Y853D01*
X1193Y853D02*
X1205Y853D01*
X1415Y853D02*
X1427Y853D01*
X1566Y853D02*
X1573Y853D01*
X0Y852D02*
X7Y852D01*
X1192Y852D02*
X1205Y852D01*
X1415Y852D02*
X1428Y852D01*
X1566Y852D02*
X1573Y852D01*
X0Y851D02*
X7Y851D01*
X1191Y851D02*
X1204Y851D01*
X1416Y851D02*
X1429Y851D01*
X1566Y851D02*
X1573Y851D01*
X0Y850D02*
X7Y850D01*
X1191Y850D02*
X1203Y850D01*
X1417Y850D02*
X1429Y850D01*
X1566Y850D02*
X1573Y850D01*
X0Y849D02*
X7Y849D01*
X1190Y849D02*
X1202Y849D01*
X1418Y849D02*
X1430Y849D01*
X1566Y849D02*
X1573Y849D01*
X0Y848D02*
X7Y848D01*
X1189Y848D02*
X1201Y848D01*
X1419Y848D02*
X1431Y848D01*
X1566Y848D02*
X1573Y848D01*
X0Y847D02*
X7Y847D01*
X1189Y847D02*
X1201Y847D01*
X1419Y847D02*
X1431Y847D01*
X1566Y847D02*
X1573Y847D01*
X0Y846D02*
X7Y846D01*
X1188Y846D02*
X1200Y846D01*
X1420Y846D02*
X1432Y846D01*
X1566Y846D02*
X1573Y846D01*
X0Y845D02*
X7Y845D01*
X1187Y845D02*
X1199Y845D01*
X1421Y845D02*
X1433Y845D01*
X1566Y845D02*
X1573Y845D01*
X0Y844D02*
X7Y844D01*
X1187Y844D02*
X1198Y844D01*
X1422Y844D02*
X1433Y844D01*
X1566Y844D02*
X1573Y844D01*
X0Y843D02*
X7Y843D01*
X1186Y843D02*
X1198Y843D01*
X1422Y843D02*
X1434Y843D01*
X1566Y843D02*
X1573Y843D01*
X0Y842D02*
X7Y842D01*
X1185Y842D02*
X1197Y842D01*
X1423Y842D02*
X1435Y842D01*
X1566Y842D02*
X1573Y842D01*
X0Y841D02*
X7Y841D01*
X1185Y841D02*
X1196Y841D01*
X1424Y841D02*
X1435Y841D01*
X1566Y841D02*
X1573Y841D01*
X0Y840D02*
X7Y840D01*
X1184Y840D02*
X1196Y840D01*
X1424Y840D02*
X1436Y840D01*
X1566Y840D02*
X1573Y840D01*
X0Y839D02*
X7Y839D01*
X1184Y839D02*
X1195Y839D01*
X1425Y839D02*
X1437Y839D01*
X1566Y839D02*
X1573Y839D01*
X0Y838D02*
X7Y838D01*
X1183Y838D02*
X1194Y838D01*
X1426Y838D02*
X1437Y838D01*
X1566Y838D02*
X1573Y838D01*
X0Y837D02*
X7Y837D01*
X1182Y837D02*
X1194Y837D01*
X1426Y837D02*
X1438Y837D01*
X1566Y837D02*
X1573Y837D01*
X0Y836D02*
X7Y836D01*
X1182Y836D02*
X1193Y836D01*
X1427Y836D02*
X1438Y836D01*
X1566Y836D02*
X1573Y836D01*
X0Y835D02*
X7Y835D01*
X1181Y835D02*
X1192Y835D01*
X1428Y835D02*
X1439Y835D01*
X1566Y835D02*
X1573Y835D01*
X0Y834D02*
X7Y834D01*
X1181Y834D02*
X1192Y834D01*
X1428Y834D02*
X1439Y834D01*
X1566Y834D02*
X1573Y834D01*
X0Y833D02*
X7Y833D01*
X1180Y833D02*
X1191Y833D01*
X1429Y833D02*
X1440Y833D01*
X1566Y833D02*
X1573Y833D01*
X0Y832D02*
X7Y832D01*
X1180Y832D02*
X1191Y832D01*
X1429Y832D02*
X1440Y832D01*
X1566Y832D02*
X1573Y832D01*
X0Y831D02*
X7Y831D01*
X1179Y831D02*
X1190Y831D01*
X1430Y831D02*
X1441Y831D01*
X1566Y831D02*
X1573Y831D01*
X0Y830D02*
X7Y830D01*
X1179Y830D02*
X1190Y830D01*
X1430Y830D02*
X1441Y830D01*
X1566Y830D02*
X1573Y830D01*
X0Y829D02*
X7Y829D01*
X768Y829D02*
X808Y829D01*
X1178Y829D02*
X1189Y829D01*
X1431Y829D02*
X1442Y829D01*
X1566Y829D02*
X1573Y829D01*
X0Y828D02*
X7Y828D01*
X768Y828D02*
X808Y828D01*
X1178Y828D02*
X1189Y828D01*
X1431Y828D02*
X1442Y828D01*
X1566Y828D02*
X1573Y828D01*
X0Y827D02*
X7Y827D01*
X767Y827D02*
X809Y827D01*
X1177Y827D02*
X1188Y827D01*
X1432Y827D02*
X1443Y827D01*
X1566Y827D02*
X1573Y827D01*
X0Y826D02*
X7Y826D01*
X767Y826D02*
X809Y826D01*
X1177Y826D02*
X1188Y826D01*
X1432Y826D02*
X1443Y826D01*
X1566Y826D02*
X1573Y826D01*
X0Y825D02*
X7Y825D01*
X767Y825D02*
X809Y825D01*
X1176Y825D02*
X1187Y825D01*
X1433Y825D02*
X1444Y825D01*
X1566Y825D02*
X1573Y825D01*
X0Y824D02*
X7Y824D01*
X767Y824D02*
X809Y824D01*
X1176Y824D02*
X1187Y824D01*
X1433Y824D02*
X1444Y824D01*
X1566Y824D02*
X1573Y824D01*
X0Y823D02*
X7Y823D01*
X767Y823D02*
X809Y823D01*
X1175Y823D02*
X1186Y823D01*
X1434Y823D02*
X1445Y823D01*
X1566Y823D02*
X1573Y823D01*
X0Y822D02*
X7Y822D01*
X767Y822D02*
X810Y822D01*
X1175Y822D02*
X1186Y822D01*
X1434Y822D02*
X1445Y822D01*
X1566Y822D02*
X1573Y822D01*
X0Y821D02*
X7Y821D01*
X766Y821D02*
X810Y821D01*
X1174Y821D02*
X1185Y821D01*
X1435Y821D02*
X1446Y821D01*
X1566Y821D02*
X1573Y821D01*
X0Y820D02*
X7Y820D01*
X766Y820D02*
X810Y820D01*
X1174Y820D02*
X1185Y820D01*
X1435Y820D02*
X1446Y820D01*
X1566Y820D02*
X1573Y820D01*
X0Y819D02*
X7Y819D01*
X766Y819D02*
X810Y819D01*
X1174Y819D02*
X1184Y819D01*
X1436Y819D02*
X1446Y819D01*
X1566Y819D02*
X1573Y819D01*
X0Y818D02*
X7Y818D01*
X766Y818D02*
X810Y818D01*
X1173Y818D02*
X1184Y818D01*
X1436Y818D02*
X1447Y818D01*
X1566Y818D02*
X1573Y818D01*
X0Y817D02*
X7Y817D01*
X766Y817D02*
X810Y817D01*
X1173Y817D02*
X1183Y817D01*
X1437Y817D02*
X1447Y817D01*
X1566Y817D02*
X1573Y817D01*
X0Y816D02*
X7Y816D01*
X765Y816D02*
X811Y816D01*
X1172Y816D02*
X1183Y816D01*
X1437Y816D02*
X1448Y816D01*
X1566Y816D02*
X1573Y816D01*
X0Y815D02*
X7Y815D01*
X765Y815D02*
X811Y815D01*
X1172Y815D02*
X1183Y815D01*
X1437Y815D02*
X1448Y815D01*
X1566Y815D02*
X1573Y815D01*
X0Y814D02*
X7Y814D01*
X765Y814D02*
X811Y814D01*
X1172Y814D02*
X1182Y814D01*
X1438Y814D02*
X1448Y814D01*
X1566Y814D02*
X1573Y814D01*
X0Y813D02*
X7Y813D01*
X765Y813D02*
X811Y813D01*
X1171Y813D02*
X1182Y813D01*
X1438Y813D02*
X1449Y813D01*
X1566Y813D02*
X1573Y813D01*
X0Y812D02*
X7Y812D01*
X765Y812D02*
X811Y812D01*
X1171Y812D02*
X1181Y812D01*
X1439Y812D02*
X1449Y812D01*
X1566Y812D02*
X1573Y812D01*
X0Y811D02*
X7Y811D01*
X765Y811D02*
X812Y811D01*
X1171Y811D02*
X1181Y811D01*
X1439Y811D02*
X1449Y811D01*
X1566Y811D02*
X1573Y811D01*
X0Y810D02*
X7Y810D01*
X764Y810D02*
X812Y810D01*
X1170Y810D02*
X1181Y810D01*
X1439Y810D02*
X1450Y810D01*
X1566Y810D02*
X1573Y810D01*
X0Y809D02*
X7Y809D01*
X764Y809D02*
X812Y809D01*
X1170Y809D02*
X1180Y809D01*
X1440Y809D02*
X1450Y809D01*
X1566Y809D02*
X1573Y809D01*
X0Y808D02*
X7Y808D01*
X764Y808D02*
X812Y808D01*
X1170Y808D02*
X1180Y808D01*
X1440Y808D02*
X1450Y808D01*
X1566Y808D02*
X1573Y808D01*
X0Y807D02*
X7Y807D01*
X764Y807D02*
X812Y807D01*
X1169Y807D02*
X1180Y807D01*
X1440Y807D02*
X1451Y807D01*
X1566Y807D02*
X1573Y807D01*
X0Y806D02*
X7Y806D01*
X764Y806D02*
X812Y806D01*
X1169Y806D02*
X1179Y806D01*
X1441Y806D02*
X1451Y806D01*
X1566Y806D02*
X1573Y806D01*
X0Y805D02*
X7Y805D01*
X763Y805D02*
X813Y805D01*
X1169Y805D02*
X1179Y805D01*
X1441Y805D02*
X1451Y805D01*
X1566Y805D02*
X1573Y805D01*
X0Y804D02*
X7Y804D01*
X763Y804D02*
X813Y804D01*
X1169Y804D02*
X1179Y804D01*
X1441Y804D02*
X1452Y804D01*
X1566Y804D02*
X1573Y804D01*
X0Y803D02*
X7Y803D01*
X763Y803D02*
X813Y803D01*
X1168Y803D02*
X1179Y803D01*
X1441Y803D02*
X1452Y803D01*
X1566Y803D02*
X1573Y803D01*
X0Y802D02*
X7Y802D01*
X763Y802D02*
X813Y802D01*
X1168Y802D02*
X1178Y802D01*
X1442Y802D02*
X1452Y802D01*
X1566Y802D02*
X1573Y802D01*
X0Y801D02*
X7Y801D01*
X763Y801D02*
X813Y801D01*
X1168Y801D02*
X1178Y801D01*
X1442Y801D02*
X1452Y801D01*
X1566Y801D02*
X1573Y801D01*
X0Y800D02*
X7Y800D01*
X762Y800D02*
X814Y800D01*
X1167Y800D02*
X1178Y800D01*
X1442Y800D02*
X1453Y800D01*
X1566Y800D02*
X1573Y800D01*
X0Y799D02*
X7Y799D01*
X762Y799D02*
X814Y799D01*
X1167Y799D02*
X1177Y799D01*
X1443Y799D02*
X1453Y799D01*
X1566Y799D02*
X1573Y799D01*
X0Y798D02*
X7Y798D01*
X762Y798D02*
X814Y798D01*
X1167Y798D02*
X1177Y798D01*
X1443Y798D02*
X1453Y798D01*
X1566Y798D02*
X1573Y798D01*
X0Y797D02*
X7Y797D01*
X762Y797D02*
X814Y797D01*
X1167Y797D02*
X1177Y797D01*
X1443Y797D02*
X1453Y797D01*
X1566Y797D02*
X1573Y797D01*
X0Y796D02*
X7Y796D01*
X762Y796D02*
X814Y796D01*
X1166Y796D02*
X1177Y796D01*
X1443Y796D02*
X1454Y796D01*
X1566Y796D02*
X1573Y796D01*
X0Y795D02*
X7Y795D01*
X762Y795D02*
X815Y795D01*
X1166Y795D02*
X1176Y795D01*
X1444Y795D02*
X1454Y795D01*
X1566Y795D02*
X1573Y795D01*
X0Y794D02*
X7Y794D01*
X761Y794D02*
X815Y794D01*
X1166Y794D02*
X1176Y794D01*
X1444Y794D02*
X1454Y794D01*
X1566Y794D02*
X1573Y794D01*
X0Y793D02*
X7Y793D01*
X761Y793D02*
X815Y793D01*
X1166Y793D02*
X1176Y793D01*
X1444Y793D02*
X1454Y793D01*
X1566Y793D02*
X1573Y793D01*
X0Y792D02*
X7Y792D01*
X761Y792D02*
X815Y792D01*
X1166Y792D02*
X1176Y792D01*
X1444Y792D02*
X1454Y792D01*
X1566Y792D02*
X1573Y792D01*
X0Y791D02*
X7Y791D01*
X761Y791D02*
X815Y791D01*
X1165Y791D02*
X1176Y791D01*
X1444Y791D02*
X1455Y791D01*
X1566Y791D02*
X1573Y791D01*
X0Y790D02*
X7Y790D01*
X761Y790D02*
X815Y790D01*
X1165Y790D02*
X1175Y790D01*
X1445Y790D02*
X1455Y790D01*
X1566Y790D02*
X1573Y790D01*
X0Y789D02*
X7Y789D01*
X760Y789D02*
X816Y789D01*
X1165Y789D02*
X1175Y789D01*
X1445Y789D02*
X1455Y789D01*
X1566Y789D02*
X1573Y789D01*
X0Y788D02*
X7Y788D01*
X760Y788D02*
X816Y788D01*
X1165Y788D02*
X1175Y788D01*
X1445Y788D02*
X1455Y788D01*
X1566Y788D02*
X1573Y788D01*
X0Y787D02*
X7Y787D01*
X760Y787D02*
X816Y787D01*
X1165Y787D02*
X1175Y787D01*
X1445Y787D02*
X1455Y787D01*
X1566Y787D02*
X1573Y787D01*
X0Y786D02*
X7Y786D01*
X760Y786D02*
X816Y786D01*
X1165Y786D02*
X1175Y786D01*
X1445Y786D02*
X1455Y786D01*
X1566Y786D02*
X1573Y786D01*
X0Y785D02*
X7Y785D01*
X760Y785D02*
X816Y785D01*
X1164Y785D02*
X1175Y785D01*
X1445Y785D02*
X1456Y785D01*
X1566Y785D02*
X1573Y785D01*
X0Y784D02*
X7Y784D01*
X759Y784D02*
X817Y784D01*
X1164Y784D02*
X1174Y784D01*
X1446Y784D02*
X1456Y784D01*
X1566Y784D02*
X1573Y784D01*
X0Y783D02*
X7Y783D01*
X759Y783D02*
X817Y783D01*
X1164Y783D02*
X1174Y783D01*
X1446Y783D02*
X1456Y783D01*
X1566Y783D02*
X1573Y783D01*
X0Y782D02*
X7Y782D01*
X759Y782D02*
X817Y782D01*
X1164Y782D02*
X1174Y782D01*
X1446Y782D02*
X1456Y782D01*
X1566Y782D02*
X1573Y782D01*
X0Y781D02*
X7Y781D01*
X652Y781D02*
X654Y781D01*
X759Y781D02*
X817Y781D01*
X923Y781D02*
X924Y781D01*
X1164Y781D02*
X1174Y781D01*
X1446Y781D02*
X1456Y781D01*
X1566Y781D02*
X1573Y781D01*
X0Y780D02*
X7Y780D01*
X651Y780D02*
X655Y780D01*
X759Y780D02*
X817Y780D01*
X921Y780D02*
X925Y780D01*
X1164Y780D02*
X1174Y780D01*
X1446Y780D02*
X1456Y780D01*
X1566Y780D02*
X1573Y780D01*
X0Y779D02*
X7Y779D01*
X650Y779D02*
X656Y779D01*
X759Y779D02*
X818Y779D01*
X920Y779D02*
X926Y779D01*
X1164Y779D02*
X1174Y779D01*
X1446Y779D02*
X1456Y779D01*
X1566Y779D02*
X1573Y779D01*
X0Y778D02*
X7Y778D01*
X649Y778D02*
X658Y778D01*
X758Y778D02*
X818Y778D01*
X918Y778D02*
X927Y778D01*
X1164Y778D02*
X1174Y778D01*
X1446Y778D02*
X1456Y778D01*
X1566Y778D02*
X1573Y778D01*
X0Y777D02*
X7Y777D01*
X648Y777D02*
X659Y777D01*
X758Y777D02*
X818Y777D01*
X917Y777D02*
X928Y777D01*
X1164Y777D02*
X1174Y777D01*
X1446Y777D02*
X1456Y777D01*
X1566Y777D02*
X1573Y777D01*
X0Y776D02*
X7Y776D01*
X647Y776D02*
X661Y776D01*
X758Y776D02*
X818Y776D01*
X915Y776D02*
X929Y776D01*
X1163Y776D02*
X1174Y776D01*
X1446Y776D02*
X1457Y776D01*
X1566Y776D02*
X1573Y776D01*
X0Y775D02*
X7Y775D01*
X646Y775D02*
X662Y775D01*
X758Y775D02*
X818Y775D01*
X914Y775D02*
X930Y775D01*
X1163Y775D02*
X1174Y775D01*
X1447Y775D02*
X1457Y775D01*
X1566Y775D02*
X1573Y775D01*
X0Y774D02*
X7Y774D01*
X645Y774D02*
X664Y774D01*
X758Y774D02*
X818Y774D01*
X912Y774D02*
X931Y774D01*
X1163Y774D02*
X1173Y774D01*
X1447Y774D02*
X1457Y774D01*
X1566Y774D02*
X1573Y774D01*
X0Y773D02*
X7Y773D01*
X644Y773D02*
X665Y773D01*
X757Y773D02*
X819Y773D01*
X911Y773D02*
X932Y773D01*
X1163Y773D02*
X1173Y773D01*
X1447Y773D02*
X1457Y773D01*
X1566Y773D02*
X1573Y773D01*
X0Y772D02*
X7Y772D01*
X643Y772D02*
X667Y772D01*
X757Y772D02*
X819Y772D01*
X909Y772D02*
X933Y772D01*
X1163Y772D02*
X1173Y772D01*
X1447Y772D02*
X1457Y772D01*
X1566Y772D02*
X1573Y772D01*
X0Y771D02*
X7Y771D01*
X642Y771D02*
X668Y771D01*
X757Y771D02*
X819Y771D01*
X908Y771D02*
X934Y771D01*
X1163Y771D02*
X1173Y771D01*
X1447Y771D02*
X1457Y771D01*
X1566Y771D02*
X1573Y771D01*
X0Y770D02*
X7Y770D01*
X641Y770D02*
X670Y770D01*
X757Y770D02*
X819Y770D01*
X907Y770D02*
X935Y770D01*
X1163Y770D02*
X1173Y770D01*
X1447Y770D02*
X1457Y770D01*
X1566Y770D02*
X1573Y770D01*
X0Y769D02*
X7Y769D01*
X640Y769D02*
X671Y769D01*
X753Y769D02*
X823Y769D01*
X905Y769D02*
X936Y769D01*
X1163Y769D02*
X1173Y769D01*
X1447Y769D02*
X1457Y769D01*
X1566Y769D02*
X1573Y769D01*
X0Y768D02*
X7Y768D01*
X639Y768D02*
X672Y768D01*
X749Y768D02*
X827Y768D01*
X904Y768D02*
X937Y768D01*
X1163Y768D02*
X1173Y768D01*
X1447Y768D02*
X1457Y768D01*
X1566Y768D02*
X1573Y768D01*
X0Y767D02*
X7Y767D01*
X638Y767D02*
X674Y767D01*
X745Y767D02*
X831Y767D01*
X902Y767D02*
X938Y767D01*
X1163Y767D02*
X1173Y767D01*
X1447Y767D02*
X1457Y767D01*
X1566Y767D02*
X1573Y767D01*
X0Y766D02*
X7Y766D01*
X637Y766D02*
X675Y766D01*
X742Y766D02*
X834Y766D01*
X901Y766D02*
X939Y766D01*
X1163Y766D02*
X1173Y766D01*
X1447Y766D02*
X1457Y766D01*
X1566Y766D02*
X1573Y766D01*
X0Y765D02*
X7Y765D01*
X636Y765D02*
X677Y765D01*
X739Y765D02*
X837Y765D01*
X899Y765D02*
X940Y765D01*
X1163Y765D02*
X1173Y765D01*
X1447Y765D02*
X1457Y765D01*
X1566Y765D02*
X1573Y765D01*
X0Y764D02*
X7Y764D01*
X635Y764D02*
X678Y764D01*
X736Y764D02*
X840Y764D01*
X898Y764D02*
X941Y764D01*
X1163Y764D02*
X1173Y764D01*
X1447Y764D02*
X1457Y764D01*
X1566Y764D02*
X1573Y764D01*
X0Y763D02*
X7Y763D01*
X634Y763D02*
X680Y763D01*
X733Y763D02*
X843Y763D01*
X896Y763D02*
X942Y763D01*
X1163Y763D02*
X1173Y763D01*
X1447Y763D02*
X1457Y763D01*
X1566Y763D02*
X1573Y763D01*
X0Y762D02*
X7Y762D01*
X633Y762D02*
X681Y762D01*
X730Y762D02*
X846Y762D01*
X895Y762D02*
X943Y762D01*
X1163Y762D02*
X1173Y762D01*
X1447Y762D02*
X1457Y762D01*
X1566Y762D02*
X1573Y762D01*
X0Y761D02*
X7Y761D01*
X632Y761D02*
X683Y761D01*
X728Y761D02*
X848Y761D01*
X893Y761D02*
X944Y761D01*
X1163Y761D02*
X1173Y761D01*
X1447Y761D02*
X1457Y761D01*
X1566Y761D02*
X1573Y761D01*
X0Y760D02*
X7Y760D01*
X631Y760D02*
X684Y760D01*
X726Y760D02*
X851Y760D01*
X892Y760D02*
X945Y760D01*
X1163Y760D02*
X1173Y760D01*
X1447Y760D02*
X1457Y760D01*
X1566Y760D02*
X1573Y760D01*
X0Y759D02*
X7Y759D01*
X630Y759D02*
X686Y759D01*
X723Y759D02*
X853Y759D01*
X890Y759D02*
X946Y759D01*
X1163Y759D02*
X1173Y759D01*
X1447Y759D02*
X1457Y759D01*
X1566Y759D02*
X1573Y759D01*
X0Y758D02*
X7Y758D01*
X629Y758D02*
X687Y758D01*
X721Y758D02*
X855Y758D01*
X889Y758D02*
X947Y758D01*
X1163Y758D02*
X1173Y758D01*
X1447Y758D02*
X1457Y758D01*
X1566Y758D02*
X1573Y758D01*
X0Y757D02*
X7Y757D01*
X628Y757D02*
X689Y757D01*
X719Y757D02*
X857Y757D01*
X888Y757D02*
X948Y757D01*
X1163Y757D02*
X1173Y757D01*
X1447Y757D02*
X1457Y757D01*
X1566Y757D02*
X1573Y757D01*
X0Y756D02*
X7Y756D01*
X627Y756D02*
X690Y756D01*
X717Y756D02*
X859Y756D01*
X886Y756D02*
X949Y756D01*
X1163Y756D02*
X1173Y756D01*
X1447Y756D02*
X1457Y756D01*
X1566Y756D02*
X1573Y756D01*
X0Y755D02*
X7Y755D01*
X626Y755D02*
X691Y755D01*
X715Y755D02*
X861Y755D01*
X885Y755D02*
X950Y755D01*
X1163Y755D02*
X1173Y755D01*
X1447Y755D02*
X1457Y755D01*
X1566Y755D02*
X1573Y755D01*
X0Y754D02*
X7Y754D01*
X625Y754D02*
X693Y754D01*
X713Y754D02*
X863Y754D01*
X883Y754D02*
X951Y754D01*
X1163Y754D02*
X1174Y754D01*
X1447Y754D02*
X1457Y754D01*
X1566Y754D02*
X1573Y754D01*
X0Y753D02*
X7Y753D01*
X624Y753D02*
X694Y753D01*
X711Y753D02*
X865Y753D01*
X882Y753D02*
X952Y753D01*
X1163Y753D02*
X1174Y753D01*
X1446Y753D02*
X1457Y753D01*
X1566Y753D02*
X1573Y753D01*
X0Y752D02*
X7Y752D01*
X625Y752D02*
X696Y752D01*
X710Y752D02*
X866Y752D01*
X880Y752D02*
X952Y752D01*
X1164Y752D02*
X1174Y752D01*
X1446Y752D02*
X1456Y752D01*
X1566Y752D02*
X1573Y752D01*
X0Y751D02*
X7Y751D01*
X625Y751D02*
X697Y751D01*
X708Y751D02*
X868Y751D01*
X879Y751D02*
X951Y751D01*
X1164Y751D02*
X1174Y751D01*
X1446Y751D02*
X1456Y751D01*
X1566Y751D02*
X1573Y751D01*
X0Y750D02*
X7Y750D01*
X626Y750D02*
X699Y750D01*
X706Y750D02*
X870Y750D01*
X877Y750D02*
X950Y750D01*
X1164Y750D02*
X1174Y750D01*
X1446Y750D02*
X1456Y750D01*
X1566Y750D02*
X1573Y750D01*
X0Y749D02*
X7Y749D01*
X627Y749D02*
X700Y749D01*
X705Y749D02*
X871Y749D01*
X876Y749D02*
X949Y749D01*
X1164Y749D02*
X1174Y749D01*
X1446Y749D02*
X1456Y749D01*
X1566Y749D02*
X1573Y749D01*
X0Y748D02*
X7Y748D01*
X627Y748D02*
X949Y748D01*
X1164Y748D02*
X1174Y748D01*
X1446Y748D02*
X1456Y748D01*
X1566Y748D02*
X1573Y748D01*
X0Y747D02*
X7Y747D01*
X628Y747D02*
X948Y747D01*
X1164Y747D02*
X1174Y747D01*
X1446Y747D02*
X1456Y747D01*
X1566Y747D02*
X1573Y747D01*
X0Y746D02*
X7Y746D01*
X629Y746D02*
X947Y746D01*
X1164Y746D02*
X1174Y746D01*
X1446Y746D02*
X1456Y746D01*
X1566Y746D02*
X1573Y746D01*
X0Y745D02*
X7Y745D01*
X629Y745D02*
X947Y745D01*
X1164Y745D02*
X1174Y745D01*
X1446Y745D02*
X1456Y745D01*
X1566Y745D02*
X1573Y745D01*
X0Y744D02*
X7Y744D01*
X630Y744D02*
X946Y744D01*
X1164Y744D02*
X1175Y744D01*
X1445Y744D02*
X1456Y744D01*
X1566Y744D02*
X1573Y744D01*
X0Y743D02*
X7Y743D01*
X631Y743D02*
X945Y743D01*
X1165Y743D02*
X1175Y743D01*
X1445Y743D02*
X1455Y743D01*
X1566Y743D02*
X1573Y743D01*
X0Y742D02*
X7Y742D01*
X631Y742D02*
X945Y742D01*
X1165Y742D02*
X1175Y742D01*
X1445Y742D02*
X1455Y742D01*
X1566Y742D02*
X1573Y742D01*
X0Y741D02*
X7Y741D01*
X632Y741D02*
X944Y741D01*
X1165Y741D02*
X1175Y741D01*
X1445Y741D02*
X1455Y741D01*
X1566Y741D02*
X1573Y741D01*
X0Y740D02*
X7Y740D01*
X633Y740D02*
X943Y740D01*
X1165Y740D02*
X1175Y740D01*
X1445Y740D02*
X1455Y740D01*
X1566Y740D02*
X1573Y740D01*
X0Y739D02*
X7Y739D01*
X634Y739D02*
X943Y739D01*
X1165Y739D02*
X1175Y739D01*
X1445Y739D02*
X1455Y739D01*
X1566Y739D02*
X1573Y739D01*
X0Y738D02*
X7Y738D01*
X634Y738D02*
X942Y738D01*
X1165Y738D02*
X1176Y738D01*
X1444Y738D02*
X1455Y738D01*
X1566Y738D02*
X1573Y738D01*
X0Y737D02*
X7Y737D01*
X635Y737D02*
X941Y737D01*
X1166Y737D02*
X1176Y737D01*
X1444Y737D02*
X1454Y737D01*
X1566Y737D02*
X1573Y737D01*
X0Y736D02*
X7Y736D01*
X636Y736D02*
X941Y736D01*
X1166Y736D02*
X1176Y736D01*
X1444Y736D02*
X1454Y736D01*
X1566Y736D02*
X1573Y736D01*
X0Y735D02*
X7Y735D01*
X636Y735D02*
X940Y735D01*
X1166Y735D02*
X1176Y735D01*
X1444Y735D02*
X1454Y735D01*
X1566Y735D02*
X1573Y735D01*
X0Y734D02*
X7Y734D01*
X637Y734D02*
X939Y734D01*
X1166Y734D02*
X1176Y734D01*
X1444Y734D02*
X1454Y734D01*
X1566Y734D02*
X1573Y734D01*
X0Y733D02*
X7Y733D01*
X638Y733D02*
X938Y733D01*
X1166Y733D02*
X1177Y733D01*
X1443Y733D02*
X1454Y733D01*
X1566Y733D02*
X1573Y733D01*
X0Y732D02*
X7Y732D01*
X638Y732D02*
X938Y732D01*
X1167Y732D02*
X1177Y732D01*
X1443Y732D02*
X1453Y732D01*
X1566Y732D02*
X1573Y732D01*
X0Y731D02*
X7Y731D01*
X639Y731D02*
X937Y731D01*
X1167Y731D02*
X1177Y731D01*
X1443Y731D02*
X1453Y731D01*
X1566Y731D02*
X1573Y731D01*
X0Y730D02*
X7Y730D01*
X640Y730D02*
X936Y730D01*
X1167Y730D02*
X1177Y730D01*
X1443Y730D02*
X1453Y730D01*
X1566Y730D02*
X1573Y730D01*
X0Y729D02*
X7Y729D01*
X640Y729D02*
X936Y729D01*
X1167Y729D02*
X1178Y729D01*
X1442Y729D02*
X1453Y729D01*
X1566Y729D02*
X1573Y729D01*
X0Y728D02*
X7Y728D01*
X641Y728D02*
X935Y728D01*
X1168Y728D02*
X1178Y728D01*
X1442Y728D02*
X1452Y728D01*
X1566Y728D02*
X1573Y728D01*
X0Y727D02*
X7Y727D01*
X642Y727D02*
X934Y727D01*
X1168Y727D02*
X1178Y727D01*
X1442Y727D02*
X1452Y727D01*
X1566Y727D02*
X1573Y727D01*
X0Y726D02*
X7Y726D01*
X642Y726D02*
X934Y726D01*
X1168Y726D02*
X1178Y726D01*
X1441Y726D02*
X1452Y726D01*
X1566Y726D02*
X1573Y726D01*
X0Y725D02*
X7Y725D01*
X643Y725D02*
X933Y725D01*
X1168Y725D02*
X1179Y725D01*
X1441Y725D02*
X1452Y725D01*
X1566Y725D02*
X1573Y725D01*
X0Y724D02*
X7Y724D01*
X644Y724D02*
X932Y724D01*
X1169Y724D02*
X1179Y724D01*
X1441Y724D02*
X1451Y724D01*
X1566Y724D02*
X1573Y724D01*
X0Y723D02*
X7Y723D01*
X644Y723D02*
X932Y723D01*
X1169Y723D02*
X1179Y723D01*
X1441Y723D02*
X1451Y723D01*
X1566Y723D02*
X1573Y723D01*
X0Y722D02*
X7Y722D01*
X645Y722D02*
X931Y722D01*
X1169Y722D02*
X1180Y722D01*
X1440Y722D02*
X1451Y722D01*
X1566Y722D02*
X1573Y722D01*
X0Y721D02*
X7Y721D01*
X646Y721D02*
X930Y721D01*
X1170Y721D02*
X1180Y721D01*
X1440Y721D02*
X1450Y721D01*
X1566Y721D02*
X1573Y721D01*
X0Y720D02*
X7Y720D01*
X647Y720D02*
X930Y720D01*
X1170Y720D02*
X1180Y720D01*
X1440Y720D02*
X1450Y720D01*
X1566Y720D02*
X1573Y720D01*
X0Y719D02*
X7Y719D01*
X647Y719D02*
X929Y719D01*
X1170Y719D02*
X1181Y719D01*
X1439Y719D02*
X1450Y719D01*
X1566Y719D02*
X1573Y719D01*
X0Y718D02*
X7Y718D01*
X648Y718D02*
X928Y718D01*
X1171Y718D02*
X1181Y718D01*
X1439Y718D02*
X1449Y718D01*
X1566Y718D02*
X1573Y718D01*
X0Y717D02*
X7Y717D01*
X649Y717D02*
X927Y717D01*
X1171Y717D02*
X1181Y717D01*
X1439Y717D02*
X1449Y717D01*
X1566Y717D02*
X1573Y717D01*
X0Y716D02*
X7Y716D01*
X649Y716D02*
X927Y716D01*
X1171Y716D02*
X1182Y716D01*
X1438Y716D02*
X1449Y716D01*
X1566Y716D02*
X1573Y716D01*
X0Y715D02*
X7Y715D01*
X650Y715D02*
X926Y715D01*
X1172Y715D02*
X1182Y715D01*
X1438Y715D02*
X1448Y715D01*
X1566Y715D02*
X1573Y715D01*
X0Y714D02*
X7Y714D01*
X651Y714D02*
X925Y714D01*
X1172Y714D02*
X1183Y714D01*
X1437Y714D02*
X1448Y714D01*
X1566Y714D02*
X1573Y714D01*
X0Y713D02*
X7Y713D01*
X651Y713D02*
X925Y713D01*
X1172Y713D02*
X1183Y713D01*
X1437Y713D02*
X1448Y713D01*
X1566Y713D02*
X1573Y713D01*
X0Y712D02*
X7Y712D01*
X652Y712D02*
X924Y712D01*
X1173Y712D02*
X1183Y712D01*
X1437Y712D02*
X1447Y712D01*
X1566Y712D02*
X1573Y712D01*
X0Y711D02*
X7Y711D01*
X653Y711D02*
X923Y711D01*
X1173Y711D02*
X1184Y711D01*
X1436Y711D02*
X1447Y711D01*
X1566Y711D02*
X1573Y711D01*
X0Y710D02*
X7Y710D01*
X653Y710D02*
X923Y710D01*
X1174Y710D02*
X1184Y710D01*
X1436Y710D02*
X1446Y710D01*
X1566Y710D02*
X1573Y710D01*
X0Y709D02*
X7Y709D01*
X654Y709D02*
X922Y709D01*
X1174Y709D02*
X1185Y709D01*
X1435Y709D02*
X1446Y709D01*
X1566Y709D02*
X1573Y709D01*
X0Y708D02*
X7Y708D01*
X655Y708D02*
X921Y708D01*
X1174Y708D02*
X1185Y708D01*
X1435Y708D02*
X1446Y708D01*
X1566Y708D02*
X1573Y708D01*
X0Y707D02*
X7Y707D01*
X655Y707D02*
X921Y707D01*
X1175Y707D02*
X1186Y707D01*
X1434Y707D02*
X1445Y707D01*
X1566Y707D02*
X1573Y707D01*
X0Y706D02*
X7Y706D01*
X656Y706D02*
X920Y706D01*
X1175Y706D02*
X1186Y706D01*
X1434Y706D02*
X1445Y706D01*
X1566Y706D02*
X1573Y706D01*
X0Y705D02*
X7Y705D01*
X657Y705D02*
X919Y705D01*
X1176Y705D02*
X1187Y705D01*
X1433Y705D02*
X1444Y705D01*
X1566Y705D02*
X1573Y705D01*
X0Y704D02*
X7Y704D01*
X657Y704D02*
X919Y704D01*
X1176Y704D02*
X1187Y704D01*
X1433Y704D02*
X1444Y704D01*
X1566Y704D02*
X1573Y704D01*
X0Y703D02*
X7Y703D01*
X657Y703D02*
X919Y703D01*
X1177Y703D02*
X1188Y703D01*
X1432Y703D02*
X1443Y703D01*
X1566Y703D02*
X1573Y703D01*
X0Y702D02*
X7Y702D01*
X657Y702D02*
X920Y702D01*
X1177Y702D02*
X1188Y702D01*
X1432Y702D02*
X1443Y702D01*
X1566Y702D02*
X1573Y702D01*
X0Y701D02*
X7Y701D01*
X656Y701D02*
X920Y701D01*
X1177Y701D02*
X1189Y701D01*
X1431Y701D02*
X1442Y701D01*
X1566Y701D02*
X1573Y701D01*
X0Y700D02*
X7Y700D01*
X655Y700D02*
X921Y700D01*
X1178Y700D02*
X1189Y700D01*
X1431Y700D02*
X1442Y700D01*
X1566Y700D02*
X1573Y700D01*
X0Y699D02*
X7Y699D01*
X655Y699D02*
X922Y699D01*
X1178Y699D02*
X1190Y699D01*
X1430Y699D02*
X1441Y699D01*
X1566Y699D02*
X1573Y699D01*
X0Y698D02*
X7Y698D01*
X654Y698D02*
X922Y698D01*
X1179Y698D02*
X1190Y698D01*
X1430Y698D02*
X1441Y698D01*
X1566Y698D02*
X1573Y698D01*
X0Y697D02*
X7Y697D01*
X653Y697D02*
X923Y697D01*
X1179Y697D02*
X1191Y697D01*
X1429Y697D02*
X1440Y697D01*
X1566Y697D02*
X1573Y697D01*
X0Y696D02*
X7Y696D01*
X653Y696D02*
X923Y696D01*
X1180Y696D02*
X1191Y696D01*
X1429Y696D02*
X1440Y696D01*
X1566Y696D02*
X1573Y696D01*
X0Y695D02*
X7Y695D01*
X652Y695D02*
X924Y695D01*
X1181Y695D02*
X1192Y695D01*
X1428Y695D02*
X1439Y695D01*
X1566Y695D02*
X1573Y695D01*
X0Y694D02*
X7Y694D01*
X652Y694D02*
X925Y694D01*
X1181Y694D02*
X1192Y694D01*
X1427Y694D02*
X1439Y694D01*
X1566Y694D02*
X1573Y694D01*
X0Y693D02*
X7Y693D01*
X651Y693D02*
X925Y693D01*
X1182Y693D02*
X1193Y693D01*
X1427Y693D02*
X1438Y693D01*
X1566Y693D02*
X1573Y693D01*
X0Y692D02*
X7Y692D01*
X650Y692D02*
X777Y692D01*
X799Y692D02*
X926Y692D01*
X1182Y692D02*
X1194Y692D01*
X1426Y692D02*
X1438Y692D01*
X1566Y692D02*
X1573Y692D01*
X0Y691D02*
X7Y691D01*
X650Y691D02*
X771Y691D01*
X805Y691D02*
X926Y691D01*
X1183Y691D02*
X1194Y691D01*
X1425Y691D02*
X1437Y691D01*
X1566Y691D02*
X1573Y691D01*
X0Y690D02*
X7Y690D01*
X649Y690D02*
X768Y690D01*
X809Y690D02*
X927Y690D01*
X1183Y690D02*
X1195Y690D01*
X1425Y690D02*
X1437Y690D01*
X1566Y690D02*
X1573Y690D01*
X0Y689D02*
X7Y689D01*
X649Y689D02*
X764Y689D01*
X812Y689D02*
X927Y689D01*
X1184Y689D02*
X1196Y689D01*
X1424Y689D02*
X1436Y689D01*
X1566Y689D02*
X1573Y689D01*
X0Y688D02*
X7Y688D01*
X648Y688D02*
X761Y688D01*
X815Y688D02*
X928Y688D01*
X1185Y688D02*
X1196Y688D01*
X1423Y688D02*
X1435Y688D01*
X1566Y688D02*
X1573Y688D01*
X0Y687D02*
X7Y687D01*
X648Y687D02*
X759Y687D01*
X818Y687D02*
X928Y687D01*
X1185Y687D02*
X1197Y687D01*
X1423Y687D02*
X1435Y687D01*
X1566Y687D02*
X1573Y687D01*
X0Y686D02*
X7Y686D01*
X647Y686D02*
X756Y686D01*
X820Y686D02*
X929Y686D01*
X1186Y686D02*
X1198Y686D01*
X1422Y686D02*
X1434Y686D01*
X1566Y686D02*
X1573Y686D01*
X0Y685D02*
X7Y685D01*
X647Y685D02*
X754Y685D01*
X822Y685D02*
X929Y685D01*
X1186Y685D02*
X1198Y685D01*
X1421Y685D02*
X1433Y685D01*
X1566Y685D02*
X1573Y685D01*
X0Y684D02*
X7Y684D01*
X646Y684D02*
X752Y684D01*
X824Y684D02*
X930Y684D01*
X1187Y684D02*
X1199Y684D01*
X1421Y684D02*
X1433Y684D01*
X1566Y684D02*
X1573Y684D01*
X0Y683D02*
X7Y683D01*
X646Y683D02*
X750Y683D01*
X826Y683D02*
X930Y683D01*
X1188Y683D02*
X1200Y683D01*
X1420Y683D02*
X1432Y683D01*
X1566Y683D02*
X1573Y683D01*
X0Y682D02*
X7Y682D01*
X645Y682D02*
X749Y682D01*
X827Y682D02*
X931Y682D01*
X1188Y682D02*
X1201Y682D01*
X1419Y682D02*
X1431Y682D01*
X1566Y682D02*
X1573Y682D01*
X0Y681D02*
X7Y681D01*
X645Y681D02*
X747Y681D01*
X829Y681D02*
X931Y681D01*
X1189Y681D02*
X1201Y681D01*
X1418Y681D02*
X1431Y681D01*
X1566Y681D02*
X1573Y681D01*
X0Y680D02*
X7Y680D01*
X644Y680D02*
X746Y680D01*
X831Y680D02*
X932Y680D01*
X1190Y680D02*
X1202Y680D01*
X1418Y680D02*
X1430Y680D01*
X1566Y680D02*
X1573Y680D01*
X0Y679D02*
X7Y679D01*
X644Y679D02*
X744Y679D01*
X832Y679D02*
X932Y679D01*
X1190Y679D02*
X1203Y679D01*
X1417Y679D02*
X1429Y679D01*
X1566Y679D02*
X1573Y679D01*
X0Y678D02*
X7Y678D01*
X644Y678D02*
X743Y678D01*
X833Y678D02*
X933Y678D01*
X1191Y678D02*
X1204Y678D01*
X1416Y678D02*
X1429Y678D01*
X1566Y678D02*
X1573Y678D01*
X0Y677D02*
X7Y677D01*
X643Y677D02*
X741Y677D01*
X835Y677D02*
X933Y677D01*
X1192Y677D02*
X1205Y677D01*
X1415Y677D02*
X1428Y677D01*
X1566Y677D02*
X1573Y677D01*
X0Y676D02*
X7Y676D01*
X643Y676D02*
X740Y676D01*
X836Y676D02*
X933Y676D01*
X1193Y676D02*
X1206Y676D01*
X1414Y676D02*
X1427Y676D01*
X1566Y676D02*
X1573Y676D01*
X0Y675D02*
X7Y675D01*
X642Y675D02*
X739Y675D01*
X837Y675D02*
X934Y675D01*
X1193Y675D02*
X1206Y675D01*
X1413Y675D02*
X1426Y675D01*
X1566Y675D02*
X1573Y675D01*
X0Y674D02*
X7Y674D01*
X642Y674D02*
X738Y674D01*
X838Y674D02*
X934Y674D01*
X1194Y674D02*
X1207Y674D01*
X1412Y674D02*
X1426Y674D01*
X1566Y674D02*
X1573Y674D01*
X0Y673D02*
X7Y673D01*
X641Y673D02*
X737Y673D01*
X839Y673D02*
X935Y673D01*
X1195Y673D02*
X1208Y673D01*
X1412Y673D02*
X1425Y673D01*
X1566Y673D02*
X1573Y673D01*
X0Y672D02*
X7Y672D01*
X641Y672D02*
X736Y672D01*
X841Y672D02*
X935Y672D01*
X1196Y672D02*
X1209Y672D01*
X1411Y672D02*
X1424Y672D01*
X1566Y672D02*
X1573Y672D01*
X0Y671D02*
X7Y671D01*
X641Y671D02*
X734Y671D01*
X842Y671D02*
X935Y671D01*
X1197Y671D02*
X1210Y671D01*
X1410Y671D02*
X1423Y671D01*
X1566Y671D02*
X1573Y671D01*
X0Y670D02*
X7Y670D01*
X640Y670D02*
X733Y670D01*
X843Y670D02*
X936Y670D01*
X1197Y670D02*
X1211Y670D01*
X1409Y670D02*
X1422Y670D01*
X1566Y670D02*
X1573Y670D01*
X0Y669D02*
X7Y669D01*
X640Y669D02*
X733Y669D01*
X844Y669D02*
X936Y669D01*
X1198Y669D02*
X1212Y669D01*
X1408Y669D02*
X1422Y669D01*
X1566Y669D02*
X1573Y669D01*
X0Y668D02*
X7Y668D01*
X640Y668D02*
X732Y668D01*
X844Y668D02*
X937Y668D01*
X1199Y668D02*
X1213Y668D01*
X1407Y668D02*
X1421Y668D01*
X1566Y668D02*
X1573Y668D01*
X0Y667D02*
X7Y667D01*
X639Y667D02*
X731Y667D01*
X845Y667D02*
X937Y667D01*
X1200Y667D02*
X1214Y667D01*
X1406Y667D02*
X1420Y667D01*
X1566Y667D02*
X1573Y667D01*
X0Y666D02*
X7Y666D01*
X639Y666D02*
X730Y666D01*
X846Y666D02*
X937Y666D01*
X1201Y666D02*
X1215Y666D01*
X1405Y666D02*
X1419Y666D01*
X1566Y666D02*
X1573Y666D01*
X0Y665D02*
X7Y665D01*
X639Y665D02*
X729Y665D01*
X847Y665D02*
X938Y665D01*
X1202Y665D02*
X1216Y665D01*
X1404Y665D02*
X1418Y665D01*
X1566Y665D02*
X1573Y665D01*
X0Y664D02*
X7Y664D01*
X638Y664D02*
X728Y664D01*
X848Y664D02*
X938Y664D01*
X1203Y664D02*
X1217Y664D01*
X1403Y664D02*
X1417Y664D01*
X1566Y664D02*
X1573Y664D01*
X0Y663D02*
X7Y663D01*
X638Y663D02*
X727Y663D01*
X849Y663D02*
X938Y663D01*
X1204Y663D02*
X1218Y663D01*
X1401Y663D02*
X1416Y663D01*
X1566Y663D02*
X1573Y663D01*
X0Y662D02*
X7Y662D01*
X638Y662D02*
X727Y662D01*
X849Y662D02*
X939Y662D01*
X1204Y662D02*
X1219Y662D01*
X1400Y662D02*
X1415Y662D01*
X1566Y662D02*
X1573Y662D01*
X0Y661D02*
X7Y661D01*
X637Y661D02*
X726Y661D01*
X850Y661D02*
X939Y661D01*
X1205Y661D02*
X1221Y661D01*
X1399Y661D02*
X1414Y661D01*
X1566Y661D02*
X1573Y661D01*
X0Y660D02*
X7Y660D01*
X637Y660D02*
X725Y660D01*
X851Y660D02*
X939Y660D01*
X1206Y660D02*
X1222Y660D01*
X1398Y660D02*
X1413Y660D01*
X1566Y660D02*
X1573Y660D01*
X0Y659D02*
X7Y659D01*
X637Y659D02*
X725Y659D01*
X852Y659D02*
X939Y659D01*
X1207Y659D02*
X1223Y659D01*
X1397Y659D02*
X1412Y659D01*
X1566Y659D02*
X1573Y659D01*
X0Y658D02*
X7Y658D01*
X636Y658D02*
X724Y658D01*
X852Y658D02*
X940Y658D01*
X1208Y658D02*
X1224Y658D01*
X1395Y658D02*
X1411Y658D01*
X1566Y658D02*
X1573Y658D01*
X0Y657D02*
X7Y657D01*
X636Y657D02*
X723Y657D01*
X853Y657D02*
X940Y657D01*
X1210Y657D02*
X1225Y657D01*
X1394Y657D02*
X1410Y657D01*
X1566Y657D02*
X1573Y657D01*
X0Y656D02*
X7Y656D01*
X636Y656D02*
X723Y656D01*
X853Y656D02*
X940Y656D01*
X1211Y656D02*
X1227Y656D01*
X1393Y656D02*
X1409Y656D01*
X1566Y656D02*
X1573Y656D01*
X0Y655D02*
X7Y655D01*
X636Y655D02*
X722Y655D01*
X854Y655D02*
X941Y655D01*
X1212Y655D02*
X1228Y655D01*
X1392Y655D02*
X1408Y655D01*
X1566Y655D02*
X1573Y655D01*
X0Y654D02*
X7Y654D01*
X635Y654D02*
X722Y654D01*
X855Y654D02*
X941Y654D01*
X1213Y654D02*
X1229Y654D01*
X1390Y654D02*
X1407Y654D01*
X1566Y654D02*
X1573Y654D01*
X0Y653D02*
X7Y653D01*
X635Y653D02*
X721Y653D01*
X855Y653D02*
X941Y653D01*
X1214Y653D02*
X1231Y653D01*
X1389Y653D02*
X1406Y653D01*
X1566Y653D02*
X1573Y653D01*
X0Y652D02*
X7Y652D01*
X635Y652D02*
X720Y652D01*
X856Y652D02*
X941Y652D01*
X1215Y652D02*
X1233Y652D01*
X1387Y652D02*
X1405Y652D01*
X1566Y652D02*
X1573Y652D01*
X0Y651D02*
X7Y651D01*
X635Y651D02*
X720Y651D01*
X856Y651D02*
X942Y651D01*
X1216Y651D02*
X1265Y651D01*
X1355Y651D02*
X1403Y651D01*
X1566Y651D02*
X1573Y651D01*
X0Y650D02*
X7Y650D01*
X634Y650D02*
X720Y650D01*
X857Y650D02*
X942Y650D01*
X1217Y650D02*
X1265Y650D01*
X1355Y650D02*
X1402Y650D01*
X1566Y650D02*
X1573Y650D01*
X0Y649D02*
X7Y649D01*
X634Y649D02*
X719Y649D01*
X857Y649D02*
X942Y649D01*
X1219Y649D02*
X1265Y649D01*
X1355Y649D02*
X1401Y649D01*
X1566Y649D02*
X1573Y649D01*
X0Y648D02*
X7Y648D01*
X630Y648D02*
X719Y648D01*
X858Y648D02*
X946Y648D01*
X1220Y648D02*
X1265Y648D01*
X1355Y648D02*
X1400Y648D01*
X1566Y648D02*
X1573Y648D01*
X0Y647D02*
X7Y647D01*
X625Y647D02*
X718Y647D01*
X858Y647D02*
X951Y647D01*
X1221Y647D02*
X1265Y647D01*
X1355Y647D02*
X1398Y647D01*
X1566Y647D02*
X1573Y647D01*
X0Y646D02*
X7Y646D01*
X619Y646D02*
X718Y646D01*
X858Y646D02*
X957Y646D01*
X1223Y646D02*
X1265Y646D01*
X1355Y646D02*
X1397Y646D01*
X1566Y646D02*
X1573Y646D01*
X0Y645D02*
X7Y645D01*
X614Y645D02*
X717Y645D01*
X859Y645D02*
X962Y645D01*
X1224Y645D02*
X1265Y645D01*
X1355Y645D02*
X1396Y645D01*
X1566Y645D02*
X1573Y645D01*
X0Y644D02*
X7Y644D01*
X609Y644D02*
X717Y644D01*
X859Y644D02*
X968Y644D01*
X1225Y644D02*
X1265Y644D01*
X1355Y644D02*
X1394Y644D01*
X1566Y644D02*
X1573Y644D01*
X0Y643D02*
X7Y643D01*
X603Y643D02*
X717Y643D01*
X860Y643D02*
X973Y643D01*
X1227Y643D02*
X1265Y643D01*
X1355Y643D02*
X1393Y643D01*
X1566Y643D02*
X1573Y643D01*
X0Y642D02*
X7Y642D01*
X598Y642D02*
X716Y642D01*
X860Y642D02*
X978Y642D01*
X1228Y642D02*
X1265Y642D01*
X1355Y642D02*
X1391Y642D01*
X1566Y642D02*
X1573Y642D01*
X0Y641D02*
X7Y641D01*
X592Y641D02*
X716Y641D01*
X860Y641D02*
X984Y641D01*
X1230Y641D02*
X1265Y641D01*
X1355Y641D02*
X1390Y641D01*
X1566Y641D02*
X1573Y641D01*
X0Y640D02*
X7Y640D01*
X587Y640D02*
X715Y640D01*
X861Y640D02*
X989Y640D01*
X1566Y640D02*
X1573Y640D01*
X0Y639D02*
X7Y639D01*
X582Y639D02*
X715Y639D01*
X861Y639D02*
X995Y639D01*
X1566Y639D02*
X1573Y639D01*
X0Y638D02*
X7Y638D01*
X577Y638D02*
X715Y638D01*
X861Y638D02*
X1000Y638D01*
X1566Y638D02*
X1573Y638D01*
X0Y637D02*
X7Y637D01*
X576Y637D02*
X715Y637D01*
X861Y637D02*
X1000Y637D01*
X1566Y637D02*
X1573Y637D01*
X0Y636D02*
X7Y636D01*
X576Y636D02*
X714Y636D01*
X862Y636D02*
X1000Y636D01*
X1566Y636D02*
X1573Y636D01*
X0Y635D02*
X7Y635D01*
X576Y635D02*
X714Y635D01*
X862Y635D02*
X1000Y635D01*
X1566Y635D02*
X1573Y635D01*
X0Y634D02*
X7Y634D01*
X576Y634D02*
X714Y634D01*
X862Y634D02*
X1000Y634D01*
X1566Y634D02*
X1573Y634D01*
X0Y633D02*
X7Y633D01*
X576Y633D02*
X714Y633D01*
X862Y633D02*
X1000Y633D01*
X1566Y633D02*
X1573Y633D01*
X0Y632D02*
X7Y632D01*
X576Y632D02*
X713Y632D01*
X863Y632D02*
X1000Y632D01*
X1566Y632D02*
X1573Y632D01*
X0Y631D02*
X7Y631D01*
X576Y631D02*
X713Y631D01*
X863Y631D02*
X1000Y631D01*
X1566Y631D02*
X1573Y631D01*
X0Y630D02*
X7Y630D01*
X576Y630D02*
X713Y630D01*
X863Y630D02*
X1000Y630D01*
X1566Y630D02*
X1573Y630D01*
X0Y629D02*
X7Y629D01*
X576Y629D02*
X713Y629D01*
X863Y629D02*
X1000Y629D01*
X1566Y629D02*
X1573Y629D01*
X0Y628D02*
X7Y628D01*
X576Y628D02*
X713Y628D01*
X863Y628D02*
X1000Y628D01*
X1566Y628D02*
X1573Y628D01*
X0Y627D02*
X7Y627D01*
X576Y627D02*
X713Y627D01*
X863Y627D02*
X1000Y627D01*
X1566Y627D02*
X1573Y627D01*
X0Y626D02*
X7Y626D01*
X576Y626D02*
X712Y626D01*
X864Y626D02*
X1000Y626D01*
X1566Y626D02*
X1573Y626D01*
X0Y625D02*
X7Y625D01*
X576Y625D02*
X712Y625D01*
X864Y625D02*
X1000Y625D01*
X1566Y625D02*
X1573Y625D01*
X0Y624D02*
X7Y624D01*
X576Y624D02*
X712Y624D01*
X864Y624D02*
X1000Y624D01*
X1566Y624D02*
X1573Y624D01*
X0Y623D02*
X7Y623D01*
X576Y623D02*
X712Y623D01*
X864Y623D02*
X1000Y623D01*
X1566Y623D02*
X1573Y623D01*
X0Y622D02*
X7Y622D01*
X576Y622D02*
X712Y622D01*
X864Y622D02*
X1000Y622D01*
X1566Y622D02*
X1573Y622D01*
X0Y621D02*
X7Y621D01*
X576Y621D02*
X712Y621D01*
X864Y621D02*
X1000Y621D01*
X1566Y621D02*
X1573Y621D01*
X0Y620D02*
X7Y620D01*
X576Y620D02*
X712Y620D01*
X864Y620D02*
X1000Y620D01*
X1566Y620D02*
X1573Y620D01*
X0Y619D02*
X7Y619D01*
X576Y619D02*
X712Y619D01*
X864Y619D02*
X1000Y619D01*
X1566Y619D02*
X1573Y619D01*
X0Y618D02*
X7Y618D01*
X576Y618D02*
X712Y618D01*
X864Y618D02*
X1000Y618D01*
X1566Y618D02*
X1573Y618D01*
X0Y617D02*
X7Y617D01*
X576Y617D02*
X712Y617D01*
X864Y617D02*
X1000Y617D01*
X1566Y617D02*
X1573Y617D01*
X0Y616D02*
X7Y616D01*
X576Y616D02*
X712Y616D01*
X864Y616D02*
X1000Y616D01*
X1566Y616D02*
X1573Y616D01*
X0Y615D02*
X7Y615D01*
X576Y615D02*
X712Y615D01*
X864Y615D02*
X1000Y615D01*
X1566Y615D02*
X1573Y615D01*
X0Y614D02*
X7Y614D01*
X576Y614D02*
X712Y614D01*
X864Y614D02*
X1000Y614D01*
X1566Y614D02*
X1573Y614D01*
X0Y613D02*
X7Y613D01*
X576Y613D02*
X712Y613D01*
X864Y613D02*
X1000Y613D01*
X1566Y613D02*
X1573Y613D01*
X0Y612D02*
X7Y612D01*
X576Y612D02*
X712Y612D01*
X864Y612D02*
X1000Y612D01*
X1566Y612D02*
X1573Y612D01*
X0Y611D02*
X7Y611D01*
X576Y611D02*
X712Y611D01*
X864Y611D02*
X1000Y611D01*
X1566Y611D02*
X1573Y611D01*
X0Y610D02*
X7Y610D01*
X576Y610D02*
X712Y610D01*
X864Y610D02*
X1000Y610D01*
X1566Y610D02*
X1573Y610D01*
X0Y609D02*
X7Y609D01*
X576Y609D02*
X712Y609D01*
X864Y609D02*
X1000Y609D01*
X1566Y609D02*
X1573Y609D01*
X0Y608D02*
X7Y608D01*
X576Y608D02*
X712Y608D01*
X864Y608D02*
X1000Y608D01*
X1566Y608D02*
X1573Y608D01*
X0Y607D02*
X7Y607D01*
X576Y607D02*
X713Y607D01*
X864Y607D02*
X1000Y607D01*
X1566Y607D02*
X1573Y607D01*
X0Y606D02*
X7Y606D01*
X576Y606D02*
X713Y606D01*
X863Y606D02*
X1000Y606D01*
X1566Y606D02*
X1573Y606D01*
X0Y605D02*
X7Y605D01*
X576Y605D02*
X713Y605D01*
X863Y605D02*
X1000Y605D01*
X1566Y605D02*
X1573Y605D01*
X0Y604D02*
X7Y604D01*
X576Y604D02*
X713Y604D01*
X863Y604D02*
X1000Y604D01*
X1566Y604D02*
X1573Y604D01*
X0Y603D02*
X7Y603D01*
X576Y603D02*
X713Y603D01*
X863Y603D02*
X1000Y603D01*
X1566Y603D02*
X1573Y603D01*
X0Y602D02*
X7Y602D01*
X576Y602D02*
X713Y602D01*
X863Y602D02*
X1000Y602D01*
X1566Y602D02*
X1573Y602D01*
X0Y601D02*
X7Y601D01*
X576Y601D02*
X714Y601D01*
X862Y601D02*
X1000Y601D01*
X1566Y601D02*
X1573Y601D01*
X0Y600D02*
X7Y600D01*
X576Y600D02*
X714Y600D01*
X862Y600D02*
X1000Y600D01*
X1566Y600D02*
X1573Y600D01*
X0Y599D02*
X7Y599D01*
X576Y599D02*
X714Y599D01*
X862Y599D02*
X1000Y599D01*
X1566Y599D02*
X1573Y599D01*
X0Y598D02*
X7Y598D01*
X576Y598D02*
X714Y598D01*
X862Y598D02*
X1000Y598D01*
X1566Y598D02*
X1573Y598D01*
X0Y597D02*
X7Y597D01*
X576Y597D02*
X715Y597D01*
X861Y597D02*
X1000Y597D01*
X1566Y597D02*
X1573Y597D01*
X0Y596D02*
X7Y596D01*
X581Y596D02*
X715Y596D01*
X861Y596D02*
X995Y596D01*
X1566Y596D02*
X1573Y596D01*
X0Y595D02*
X7Y595D01*
X586Y595D02*
X715Y595D01*
X861Y595D02*
X990Y595D01*
X1566Y595D02*
X1573Y595D01*
X0Y594D02*
X7Y594D01*
X592Y594D02*
X716Y594D01*
X861Y594D02*
X984Y594D01*
X1566Y594D02*
X1573Y594D01*
X0Y593D02*
X7Y593D01*
X597Y593D02*
X716Y593D01*
X860Y593D02*
X979Y593D01*
X1566Y593D02*
X1573Y593D01*
X0Y592D02*
X7Y592D01*
X603Y592D02*
X716Y592D01*
X860Y592D02*
X974Y592D01*
X1566Y592D02*
X1573Y592D01*
X0Y591D02*
X7Y591D01*
X608Y591D02*
X717Y591D01*
X860Y591D02*
X968Y591D01*
X1566Y591D02*
X1573Y591D01*
X0Y590D02*
X7Y590D01*
X613Y590D02*
X717Y590D01*
X859Y590D02*
X963Y590D01*
X1566Y590D02*
X1573Y590D01*
X0Y589D02*
X7Y589D01*
X619Y589D02*
X717Y589D01*
X859Y589D02*
X957Y589D01*
X1526Y589D02*
X1527Y589D01*
X1566Y589D02*
X1573Y589D01*
X0Y588D02*
X7Y588D01*
X624Y588D02*
X718Y588D01*
X858Y588D02*
X952Y588D01*
X1525Y588D02*
X1528Y588D01*
X1566Y588D02*
X1573Y588D01*
X0Y587D02*
X7Y587D01*
X629Y587D02*
X718Y587D01*
X858Y587D02*
X947Y587D01*
X1524Y587D02*
X1529Y587D01*
X1566Y587D02*
X1573Y587D01*
X0Y586D02*
X7Y586D01*
X633Y586D02*
X719Y586D01*
X857Y586D02*
X943Y586D01*
X1524Y586D02*
X1530Y586D01*
X1566Y586D02*
X1573Y586D01*
X0Y585D02*
X7Y585D01*
X633Y585D02*
X719Y585D01*
X857Y585D02*
X943Y585D01*
X1525Y585D02*
X1531Y585D01*
X1566Y585D02*
X1573Y585D01*
X0Y584D02*
X7Y584D01*
X633Y584D02*
X720Y584D01*
X857Y584D02*
X943Y584D01*
X1526Y584D02*
X1532Y584D01*
X1566Y584D02*
X1573Y584D01*
X0Y583D02*
X7Y583D01*
X634Y583D02*
X720Y583D01*
X856Y583D02*
X942Y583D01*
X1527Y583D02*
X1533Y583D01*
X1566Y583D02*
X1573Y583D01*
X0Y582D02*
X7Y582D01*
X634Y582D02*
X721Y582D01*
X856Y582D02*
X942Y582D01*
X1566Y582D02*
X1573Y582D01*
X0Y581D02*
X7Y581D01*
X634Y581D02*
X721Y581D01*
X855Y581D02*
X942Y581D01*
X1566Y581D02*
X1573Y581D01*
X0Y580D02*
X7Y580D01*
X634Y580D02*
X722Y580D01*
X854Y580D02*
X942Y580D01*
X1566Y580D02*
X1573Y580D01*
X0Y579D02*
X7Y579D01*
X634Y579D02*
X722Y579D01*
X854Y579D02*
X942Y579D01*
X1566Y579D02*
X1573Y579D01*
X0Y578D02*
X7Y578D01*
X635Y578D02*
X723Y578D01*
X853Y578D02*
X941Y578D01*
X1566Y578D02*
X1573Y578D01*
X0Y577D02*
X7Y577D01*
X635Y577D02*
X723Y577D01*
X853Y577D02*
X941Y577D01*
X1566Y577D02*
X1573Y577D01*
X0Y576D02*
X7Y576D01*
X635Y576D02*
X724Y576D01*
X852Y576D02*
X941Y576D01*
X1566Y576D02*
X1573Y576D01*
X0Y575D02*
X7Y575D01*
X636Y575D02*
X725Y575D01*
X851Y575D02*
X941Y575D01*
X1566Y575D02*
X1573Y575D01*
X0Y574D02*
X7Y574D01*
X636Y574D02*
X725Y574D01*
X851Y574D02*
X940Y574D01*
X1566Y574D02*
X1573Y574D01*
X0Y573D02*
X7Y573D01*
X636Y573D02*
X726Y573D01*
X850Y573D02*
X940Y573D01*
X1566Y573D02*
X1573Y573D01*
X0Y572D02*
X7Y572D01*
X636Y572D02*
X727Y572D01*
X849Y572D02*
X940Y572D01*
X1566Y572D02*
X1573Y572D01*
X0Y571D02*
X7Y571D01*
X637Y571D02*
X728Y571D01*
X849Y571D02*
X940Y571D01*
X1566Y571D02*
X1573Y571D01*
X0Y570D02*
X7Y570D01*
X637Y570D02*
X728Y570D01*
X848Y570D02*
X939Y570D01*
X1566Y570D02*
X1573Y570D01*
X0Y569D02*
X7Y569D01*
X637Y569D02*
X729Y569D01*
X847Y569D02*
X939Y569D01*
X1566Y569D02*
X1573Y569D01*
X0Y568D02*
X7Y568D01*
X638Y568D02*
X730Y568D01*
X846Y568D02*
X939Y568D01*
X1566Y568D02*
X1573Y568D01*
X0Y567D02*
X7Y567D01*
X638Y567D02*
X731Y567D01*
X845Y567D02*
X938Y567D01*
X1566Y567D02*
X1573Y567D01*
X0Y566D02*
X7Y566D01*
X638Y566D02*
X732Y566D01*
X844Y566D02*
X938Y566D01*
X1566Y566D02*
X1573Y566D01*
X0Y565D02*
X7Y565D01*
X638Y565D02*
X733Y565D01*
X843Y565D02*
X938Y565D01*
X1566Y565D02*
X1573Y565D01*
X0Y564D02*
X7Y564D01*
X639Y564D02*
X734Y564D01*
X842Y564D02*
X937Y564D01*
X1566Y564D02*
X1573Y564D01*
X0Y563D02*
X7Y563D01*
X639Y563D02*
X735Y563D01*
X841Y563D02*
X937Y563D01*
X1566Y563D02*
X1573Y563D01*
X0Y562D02*
X7Y562D01*
X640Y562D02*
X736Y562D01*
X840Y562D02*
X937Y562D01*
X1554Y562D02*
X1554Y562D01*
X1566Y562D02*
X1573Y562D01*
X0Y561D02*
X7Y561D01*
X640Y561D02*
X737Y561D01*
X839Y561D02*
X936Y561D01*
X1554Y561D02*
X1555Y561D01*
X1566Y561D02*
X1573Y561D01*
X0Y560D02*
X7Y560D01*
X640Y560D02*
X738Y560D01*
X838Y560D02*
X936Y560D01*
X1554Y560D02*
X1556Y560D01*
X1566Y560D02*
X1573Y560D01*
X0Y559D02*
X7Y559D01*
X641Y559D02*
X739Y559D01*
X837Y559D02*
X936Y559D01*
X1554Y559D02*
X1557Y559D01*
X1566Y559D02*
X1573Y559D01*
X0Y558D02*
X7Y558D01*
X641Y558D02*
X740Y558D01*
X836Y558D02*
X935Y558D01*
X1554Y558D02*
X1558Y558D01*
X1566Y558D02*
X1573Y558D01*
X0Y557D02*
X7Y557D01*
X641Y557D02*
X742Y557D01*
X834Y557D02*
X935Y557D01*
X1554Y557D02*
X1559Y557D01*
X1566Y557D02*
X1573Y557D01*
X0Y556D02*
X7Y556D01*
X642Y556D02*
X743Y556D01*
X833Y556D02*
X934Y556D01*
X1554Y556D02*
X1560Y556D01*
X1566Y556D02*
X1573Y556D01*
X0Y555D02*
X7Y555D01*
X642Y555D02*
X744Y555D01*
X832Y555D02*
X934Y555D01*
X1555Y555D02*
X1561Y555D01*
X1566Y555D02*
X1573Y555D01*
X0Y554D02*
X7Y554D01*
X643Y554D02*
X746Y554D01*
X830Y554D02*
X934Y554D01*
X1556Y554D02*
X1560Y554D01*
X1566Y554D02*
X1573Y554D01*
X0Y553D02*
X7Y553D01*
X643Y553D02*
X747Y553D01*
X829Y553D02*
X933Y553D01*
X1557Y553D02*
X1559Y553D01*
X1566Y553D02*
X1573Y553D01*
X0Y552D02*
X7Y552D01*
X643Y552D02*
X748Y552D01*
X828Y552D02*
X933Y552D01*
X1558Y552D02*
X1558Y552D01*
X1566Y552D02*
X1573Y552D01*
X0Y551D02*
X7Y551D01*
X644Y551D02*
X748Y551D01*
X829Y551D02*
X932Y551D01*
X1566Y551D02*
X1573Y551D01*
X0Y550D02*
X7Y550D01*
X644Y550D02*
X747Y550D01*
X829Y550D02*
X932Y550D01*
X1566Y550D02*
X1573Y550D01*
X0Y549D02*
X7Y549D01*
X645Y549D02*
X747Y549D01*
X829Y549D02*
X931Y549D01*
X1566Y549D02*
X1573Y549D01*
X0Y548D02*
X7Y548D01*
X645Y548D02*
X746Y548D01*
X830Y548D02*
X931Y548D01*
X1566Y548D02*
X1573Y548D01*
X0Y547D02*
X7Y547D01*
X646Y547D02*
X746Y547D01*
X830Y547D02*
X930Y547D01*
X1566Y547D02*
X1573Y547D01*
X0Y546D02*
X7Y546D01*
X646Y546D02*
X745Y546D01*
X831Y546D02*
X930Y546D01*
X1566Y546D02*
X1573Y546D01*
X0Y545D02*
X7Y545D01*
X647Y545D02*
X745Y545D01*
X831Y545D02*
X929Y545D01*
X1566Y545D02*
X1573Y545D01*
X0Y544D02*
X7Y544D01*
X647Y544D02*
X745Y544D01*
X831Y544D02*
X929Y544D01*
X1566Y544D02*
X1573Y544D01*
X0Y543D02*
X7Y543D01*
X648Y543D02*
X744Y543D01*
X832Y543D02*
X928Y543D01*
X1566Y543D02*
X1573Y543D01*
X0Y542D02*
X7Y542D01*
X648Y542D02*
X744Y542D01*
X832Y542D02*
X928Y542D01*
X1566Y542D02*
X1573Y542D01*
X0Y541D02*
X7Y541D01*
X649Y541D02*
X743Y541D01*
X833Y541D02*
X927Y541D01*
X1566Y541D02*
X1573Y541D01*
X0Y540D02*
X7Y540D01*
X649Y540D02*
X743Y540D01*
X833Y540D02*
X927Y540D01*
X1566Y540D02*
X1573Y540D01*
X0Y539D02*
X7Y539D01*
X650Y539D02*
X743Y539D01*
X834Y539D02*
X926Y539D01*
X1566Y539D02*
X1573Y539D01*
X0Y538D02*
X7Y538D01*
X650Y538D02*
X742Y538D01*
X834Y538D02*
X926Y538D01*
X1566Y538D02*
X1573Y538D01*
X0Y537D02*
X7Y537D01*
X651Y537D02*
X742Y537D01*
X834Y537D02*
X925Y537D01*
X1566Y537D02*
X1573Y537D01*
X0Y536D02*
X7Y536D01*
X651Y536D02*
X741Y536D01*
X835Y536D02*
X925Y536D01*
X1566Y536D02*
X1573Y536D01*
X0Y535D02*
X7Y535D01*
X652Y535D02*
X741Y535D01*
X835Y535D02*
X924Y535D01*
X1566Y535D02*
X1573Y535D01*
X0Y534D02*
X7Y534D01*
X653Y534D02*
X740Y534D01*
X836Y534D02*
X923Y534D01*
X1566Y534D02*
X1573Y534D01*
X0Y533D02*
X7Y533D01*
X653Y533D02*
X740Y533D01*
X836Y533D02*
X923Y533D01*
X1566Y533D02*
X1573Y533D01*
X0Y532D02*
X7Y532D01*
X654Y532D02*
X740Y532D01*
X836Y532D02*
X922Y532D01*
X1566Y532D02*
X1573Y532D01*
X0Y531D02*
X7Y531D01*
X655Y531D02*
X739Y531D01*
X837Y531D02*
X922Y531D01*
X1566Y531D02*
X1573Y531D01*
X0Y530D02*
X7Y530D01*
X655Y530D02*
X739Y530D01*
X837Y530D02*
X921Y530D01*
X1566Y530D02*
X1573Y530D01*
X0Y529D02*
X7Y529D01*
X656Y529D02*
X738Y529D01*
X838Y529D02*
X920Y529D01*
X1566Y529D02*
X1573Y529D01*
X0Y528D02*
X7Y528D01*
X656Y528D02*
X738Y528D01*
X838Y528D02*
X921Y528D01*
X1566Y528D02*
X1573Y528D01*
X0Y527D02*
X7Y527D01*
X655Y527D02*
X738Y527D01*
X839Y527D02*
X921Y527D01*
X1566Y527D02*
X1573Y527D01*
X0Y526D02*
X7Y526D01*
X654Y526D02*
X737Y526D01*
X839Y526D02*
X922Y526D01*
X1566Y526D02*
X1573Y526D01*
X0Y525D02*
X7Y525D01*
X653Y525D02*
X737Y525D01*
X839Y525D02*
X923Y525D01*
X1566Y525D02*
X1573Y525D01*
X0Y524D02*
X7Y524D01*
X653Y524D02*
X736Y524D01*
X840Y524D02*
X923Y524D01*
X1566Y524D02*
X1573Y524D01*
X0Y523D02*
X7Y523D01*
X652Y523D02*
X736Y523D01*
X840Y523D02*
X924Y523D01*
X1566Y523D02*
X1573Y523D01*
X0Y522D02*
X7Y522D01*
X651Y522D02*
X736Y522D01*
X841Y522D02*
X925Y522D01*
X1566Y522D02*
X1573Y522D01*
X0Y521D02*
X7Y521D01*
X651Y521D02*
X735Y521D01*
X841Y521D02*
X925Y521D01*
X1566Y521D02*
X1573Y521D01*
X0Y520D02*
X7Y520D01*
X650Y520D02*
X735Y520D01*
X841Y520D02*
X926Y520D01*
X1566Y520D02*
X1573Y520D01*
X0Y519D02*
X7Y519D01*
X649Y519D02*
X734Y519D01*
X842Y519D02*
X927Y519D01*
X1566Y519D02*
X1573Y519D01*
X0Y518D02*
X7Y518D01*
X649Y518D02*
X734Y518D01*
X842Y518D02*
X927Y518D01*
X1566Y518D02*
X1573Y518D01*
X0Y517D02*
X7Y517D01*
X648Y517D02*
X733Y517D01*
X843Y517D02*
X928Y517D01*
X1566Y517D02*
X1573Y517D01*
X0Y516D02*
X7Y516D01*
X647Y516D02*
X733Y516D01*
X843Y516D02*
X929Y516D01*
X1566Y516D02*
X1573Y516D01*
X0Y515D02*
X7Y515D01*
X647Y515D02*
X733Y515D01*
X843Y515D02*
X930Y515D01*
X1566Y515D02*
X1573Y515D01*
X0Y514D02*
X7Y514D01*
X646Y514D02*
X732Y514D01*
X844Y514D02*
X930Y514D01*
X1566Y514D02*
X1573Y514D01*
X0Y513D02*
X7Y513D01*
X645Y513D02*
X732Y513D01*
X844Y513D02*
X931Y513D01*
X1566Y513D02*
X1573Y513D01*
X0Y512D02*
X7Y512D01*
X645Y512D02*
X731Y512D01*
X845Y512D02*
X932Y512D01*
X1566Y512D02*
X1573Y512D01*
X0Y511D02*
X7Y511D01*
X644Y511D02*
X731Y511D01*
X845Y511D02*
X932Y511D01*
X1566Y511D02*
X1573Y511D01*
X0Y510D02*
X7Y510D01*
X643Y510D02*
X731Y510D01*
X846Y510D02*
X933Y510D01*
X1566Y510D02*
X1573Y510D01*
X0Y509D02*
X7Y509D01*
X643Y509D02*
X730Y509D01*
X846Y509D02*
X934Y509D01*
X1566Y509D02*
X1573Y509D01*
X0Y508D02*
X7Y508D01*
X642Y508D02*
X730Y508D01*
X846Y508D02*
X934Y508D01*
X1566Y508D02*
X1573Y508D01*
X0Y507D02*
X7Y507D01*
X641Y507D02*
X729Y507D01*
X847Y507D02*
X935Y507D01*
X1566Y507D02*
X1573Y507D01*
X0Y506D02*
X7Y506D01*
X640Y506D02*
X729Y506D01*
X847Y506D02*
X936Y506D01*
X1566Y506D02*
X1573Y506D01*
X0Y505D02*
X7Y505D01*
X640Y505D02*
X728Y505D01*
X848Y505D02*
X936Y505D01*
X1566Y505D02*
X1573Y505D01*
X0Y504D02*
X7Y504D01*
X639Y504D02*
X728Y504D01*
X848Y504D02*
X937Y504D01*
X1566Y504D02*
X1573Y504D01*
X0Y503D02*
X7Y503D01*
X638Y503D02*
X728Y503D01*
X848Y503D02*
X938Y503D01*
X1566Y503D02*
X1573Y503D01*
X0Y502D02*
X7Y502D01*
X638Y502D02*
X727Y502D01*
X849Y502D02*
X938Y502D01*
X1566Y502D02*
X1573Y502D01*
X0Y501D02*
X7Y501D01*
X637Y501D02*
X727Y501D01*
X849Y501D02*
X939Y501D01*
X1566Y501D02*
X1573Y501D01*
X0Y500D02*
X7Y500D01*
X636Y500D02*
X726Y500D01*
X850Y500D02*
X940Y500D01*
X1566Y500D02*
X1573Y500D01*
X0Y499D02*
X7Y499D01*
X636Y499D02*
X726Y499D01*
X850Y499D02*
X940Y499D01*
X1566Y499D02*
X1573Y499D01*
X0Y498D02*
X7Y498D01*
X635Y498D02*
X726Y498D01*
X851Y498D02*
X941Y498D01*
X1566Y498D02*
X1573Y498D01*
X0Y497D02*
X7Y497D01*
X634Y497D02*
X725Y497D01*
X851Y497D02*
X942Y497D01*
X1566Y497D02*
X1573Y497D01*
X0Y496D02*
X7Y496D01*
X634Y496D02*
X725Y496D01*
X851Y496D02*
X943Y496D01*
X1566Y496D02*
X1573Y496D01*
X0Y495D02*
X7Y495D01*
X633Y495D02*
X724Y495D01*
X852Y495D02*
X943Y495D01*
X1566Y495D02*
X1573Y495D01*
X0Y494D02*
X7Y494D01*
X632Y494D02*
X724Y494D01*
X852Y494D02*
X944Y494D01*
X1566Y494D02*
X1573Y494D01*
X0Y493D02*
X7Y493D01*
X632Y493D02*
X724Y493D01*
X853Y493D02*
X945Y493D01*
X1566Y493D02*
X1573Y493D01*
X0Y492D02*
X7Y492D01*
X631Y492D02*
X723Y492D01*
X853Y492D02*
X945Y492D01*
X1566Y492D02*
X1573Y492D01*
X0Y491D02*
X7Y491D01*
X630Y491D02*
X723Y491D01*
X853Y491D02*
X946Y491D01*
X1566Y491D02*
X1573Y491D01*
X0Y490D02*
X7Y490D01*
X629Y490D02*
X722Y490D01*
X854Y490D02*
X947Y490D01*
X1566Y490D02*
X1573Y490D01*
X0Y489D02*
X7Y489D01*
X629Y489D02*
X722Y489D01*
X854Y489D02*
X947Y489D01*
X1566Y489D02*
X1573Y489D01*
X0Y488D02*
X7Y488D01*
X628Y488D02*
X721Y488D01*
X855Y488D02*
X948Y488D01*
X1566Y488D02*
X1573Y488D01*
X0Y487D02*
X7Y487D01*
X627Y487D02*
X721Y487D01*
X855Y487D02*
X949Y487D01*
X1566Y487D02*
X1573Y487D01*
X0Y486D02*
X7Y486D01*
X627Y486D02*
X721Y486D01*
X855Y486D02*
X949Y486D01*
X1566Y486D02*
X1573Y486D01*
X0Y485D02*
X7Y485D01*
X626Y485D02*
X720Y485D01*
X856Y485D02*
X950Y485D01*
X1566Y485D02*
X1573Y485D01*
X0Y484D02*
X7Y484D01*
X625Y484D02*
X697Y484D01*
X700Y484D02*
X720Y484D01*
X856Y484D02*
X876Y484D01*
X879Y484D02*
X951Y484D01*
X1566Y484D02*
X1573Y484D01*
X0Y483D02*
X7Y483D01*
X625Y483D02*
X696Y483D01*
X701Y483D02*
X719Y483D01*
X857Y483D02*
X875Y483D01*
X880Y483D02*
X951Y483D01*
X1566Y483D02*
X1573Y483D01*
X0Y482D02*
X7Y482D01*
X624Y482D02*
X695Y482D01*
X703Y482D02*
X719Y482D01*
X857Y482D02*
X873Y482D01*
X882Y482D02*
X952Y482D01*
X1566Y482D02*
X1573Y482D01*
X0Y481D02*
X7Y481D01*
X625Y481D02*
X693Y481D01*
X705Y481D02*
X719Y481D01*
X858Y481D02*
X872Y481D01*
X883Y481D02*
X951Y481D01*
X1566Y481D02*
X1573Y481D01*
X0Y480D02*
X7Y480D01*
X626Y480D02*
X692Y480D01*
X706Y480D02*
X718Y480D01*
X858Y480D02*
X870Y480D01*
X885Y480D02*
X950Y480D01*
X1566Y480D02*
X1573Y480D01*
X0Y479D02*
X7Y479D01*
X627Y479D02*
X690Y479D01*
X708Y479D02*
X718Y479D01*
X858Y479D02*
X868Y479D01*
X886Y479D02*
X949Y479D01*
X1566Y479D02*
X1573Y479D01*
X0Y478D02*
X7Y478D01*
X628Y478D02*
X689Y478D01*
X710Y478D02*
X717Y478D01*
X859Y478D02*
X867Y478D01*
X887Y478D02*
X948Y478D01*
X1566Y478D02*
X1573Y478D01*
X0Y477D02*
X7Y477D01*
X629Y477D02*
X687Y477D01*
X711Y477D02*
X717Y477D01*
X859Y477D02*
X865Y477D01*
X889Y477D02*
X947Y477D01*
X1566Y477D02*
X1573Y477D01*
X0Y476D02*
X7Y476D01*
X630Y476D02*
X686Y476D01*
X713Y476D02*
X716Y476D01*
X860Y476D02*
X863Y476D01*
X890Y476D02*
X946Y476D01*
X1566Y476D02*
X1573Y476D01*
X0Y475D02*
X7Y475D01*
X631Y475D02*
X684Y475D01*
X715Y475D02*
X716Y475D01*
X860Y475D02*
X861Y475D01*
X892Y475D02*
X945Y475D01*
X1566Y475D02*
X1573Y475D01*
X0Y474D02*
X7Y474D01*
X632Y474D02*
X683Y474D01*
X893Y474D02*
X944Y474D01*
X1566Y474D02*
X1573Y474D01*
X0Y473D02*
X7Y473D01*
X633Y473D02*
X681Y473D01*
X895Y473D02*
X943Y473D01*
X1566Y473D02*
X1573Y473D01*
X0Y472D02*
X7Y472D01*
X634Y472D02*
X680Y472D01*
X896Y472D02*
X942Y472D01*
X1566Y472D02*
X1573Y472D01*
X0Y471D02*
X7Y471D01*
X635Y471D02*
X678Y471D01*
X898Y471D02*
X941Y471D01*
X1566Y471D02*
X1573Y471D01*
X0Y470D02*
X7Y470D01*
X636Y470D02*
X677Y470D01*
X899Y470D02*
X940Y470D01*
X1566Y470D02*
X1573Y470D01*
X0Y469D02*
X7Y469D01*
X637Y469D02*
X676Y469D01*
X901Y469D02*
X939Y469D01*
X1566Y469D02*
X1573Y469D01*
X0Y468D02*
X7Y468D01*
X638Y468D02*
X674Y468D01*
X902Y468D02*
X938Y468D01*
X1566Y468D02*
X1573Y468D01*
X0Y467D02*
X7Y467D01*
X639Y467D02*
X673Y467D01*
X903Y467D02*
X937Y467D01*
X1566Y467D02*
X1573Y467D01*
X0Y466D02*
X7Y466D01*
X640Y466D02*
X671Y466D01*
X905Y466D02*
X936Y466D01*
X1566Y466D02*
X1573Y466D01*
X0Y465D02*
X7Y465D01*
X641Y465D02*
X670Y465D01*
X906Y465D02*
X935Y465D01*
X1566Y465D02*
X1573Y465D01*
X0Y464D02*
X7Y464D01*
X642Y464D02*
X668Y464D01*
X908Y464D02*
X934Y464D01*
X1566Y464D02*
X1573Y464D01*
X0Y463D02*
X7Y463D01*
X643Y463D02*
X667Y463D01*
X909Y463D02*
X933Y463D01*
X1566Y463D02*
X1573Y463D01*
X0Y462D02*
X7Y462D01*
X644Y462D02*
X665Y462D01*
X911Y462D02*
X932Y462D01*
X1566Y462D02*
X1573Y462D01*
X0Y461D02*
X7Y461D01*
X645Y461D02*
X664Y461D01*
X912Y461D02*
X931Y461D01*
X1566Y461D02*
X1573Y461D01*
X0Y460D02*
X7Y460D01*
X646Y460D02*
X662Y460D01*
X914Y460D02*
X930Y460D01*
X1566Y460D02*
X1573Y460D01*
X0Y459D02*
X7Y459D01*
X647Y459D02*
X661Y459D01*
X915Y459D02*
X929Y459D01*
X1566Y459D02*
X1573Y459D01*
X0Y458D02*
X7Y458D01*
X648Y458D02*
X660Y458D01*
X917Y458D02*
X928Y458D01*
X1566Y458D02*
X1573Y458D01*
X0Y457D02*
X7Y457D01*
X649Y457D02*
X658Y457D01*
X918Y457D02*
X927Y457D01*
X1566Y457D02*
X1573Y457D01*
X0Y456D02*
X7Y456D01*
X650Y456D02*
X657Y456D01*
X919Y456D02*
X926Y456D01*
X1566Y456D02*
X1573Y456D01*
X0Y455D02*
X7Y455D01*
X651Y455D02*
X655Y455D01*
X921Y455D02*
X925Y455D01*
X1566Y455D02*
X1573Y455D01*
X0Y454D02*
X7Y454D01*
X652Y454D02*
X654Y454D01*
X922Y454D02*
X924Y454D01*
X1566Y454D02*
X1573Y454D01*
X0Y453D02*
X7Y453D01*
X1566Y453D02*
X1573Y453D01*
X0Y452D02*
X7Y452D01*
X1566Y452D02*
X1573Y452D01*
X0Y451D02*
X7Y451D01*
X1566Y451D02*
X1573Y451D01*
X0Y450D02*
X7Y450D01*
X1566Y450D02*
X1573Y450D01*
X0Y449D02*
X7Y449D01*
X1566Y449D02*
X1573Y449D01*
X0Y448D02*
X7Y448D01*
X1566Y448D02*
X1573Y448D01*
X0Y447D02*
X7Y447D01*
X1566Y447D02*
X1573Y447D01*
X0Y446D02*
X7Y446D01*
X1566Y446D02*
X1573Y446D01*
X0Y445D02*
X7Y445D01*
X1566Y445D02*
X1573Y445D01*
X0Y444D02*
X7Y444D01*
X1566Y444D02*
X1573Y444D01*
X0Y443D02*
X7Y443D01*
X1566Y443D02*
X1573Y443D01*
X0Y442D02*
X7Y442D01*
X1566Y442D02*
X1573Y442D01*
X0Y441D02*
X7Y441D01*
X1566Y441D02*
X1573Y441D01*
X0Y440D02*
X7Y440D01*
X1566Y440D02*
X1573Y440D01*
X0Y439D02*
X7Y439D01*
X1566Y439D02*
X1573Y439D01*
X0Y438D02*
X7Y438D01*
X1566Y438D02*
X1573Y438D01*
X0Y437D02*
X7Y437D01*
X1566Y437D02*
X1573Y437D01*
X0Y436D02*
X7Y436D01*
X1566Y436D02*
X1573Y436D01*
X0Y435D02*
X7Y435D01*
X1566Y435D02*
X1573Y435D01*
X0Y434D02*
X7Y434D01*
X1566Y434D02*
X1573Y434D01*
X0Y433D02*
X7Y433D01*
X1566Y433D02*
X1573Y433D01*
X0Y432D02*
X7Y432D01*
X1566Y432D02*
X1573Y432D01*
X0Y431D02*
X7Y431D01*
X1566Y431D02*
X1573Y431D01*
X0Y430D02*
X7Y430D01*
X1566Y430D02*
X1573Y430D01*
X0Y429D02*
X7Y429D01*
X1566Y429D02*
X1573Y429D01*
X0Y428D02*
X7Y428D01*
X1566Y428D02*
X1573Y428D01*
X0Y427D02*
X7Y427D01*
X1566Y427D02*
X1573Y427D01*
X0Y426D02*
X7Y426D01*
X1566Y426D02*
X1573Y426D01*
X0Y425D02*
X7Y425D01*
X1566Y425D02*
X1573Y425D01*
X0Y424D02*
X7Y424D01*
X1566Y424D02*
X1573Y424D01*
X0Y423D02*
X7Y423D01*
X1566Y423D02*
X1573Y423D01*
X0Y422D02*
X7Y422D01*
X883Y422D02*
X883Y422D01*
X1566Y422D02*
X1573Y422D01*
X0Y421D02*
X7Y421D01*
X729Y421D02*
X731Y421D01*
X881Y421D02*
X883Y421D01*
X1566Y421D02*
X1573Y421D01*
X0Y420D02*
X7Y420D01*
X727Y420D02*
X731Y420D01*
X879Y420D02*
X883Y420D01*
X1566Y420D02*
X1573Y420D01*
X0Y419D02*
X7Y419D01*
X725Y419D02*
X731Y419D01*
X877Y419D02*
X883Y419D01*
X1566Y419D02*
X1573Y419D01*
X0Y418D02*
X7Y418D01*
X725Y418D02*
X731Y418D01*
X877Y418D02*
X883Y418D01*
X1566Y418D02*
X1573Y418D01*
X0Y417D02*
X7Y417D01*
X725Y417D02*
X731Y417D01*
X877Y417D02*
X883Y417D01*
X1566Y417D02*
X1573Y417D01*
X0Y416D02*
X7Y416D01*
X725Y416D02*
X731Y416D01*
X877Y416D02*
X883Y416D01*
X1566Y416D02*
X1573Y416D01*
X0Y415D02*
X7Y415D01*
X725Y415D02*
X731Y415D01*
X877Y415D02*
X883Y415D01*
X1566Y415D02*
X1573Y415D01*
X0Y414D02*
X7Y414D01*
X725Y414D02*
X731Y414D01*
X877Y414D02*
X883Y414D01*
X1566Y414D02*
X1573Y414D01*
X0Y413D02*
X7Y413D01*
X725Y413D02*
X731Y413D01*
X877Y413D02*
X883Y413D01*
X1566Y413D02*
X1573Y413D01*
X0Y412D02*
X7Y412D01*
X725Y412D02*
X731Y412D01*
X877Y412D02*
X883Y412D01*
X1566Y412D02*
X1573Y412D01*
X0Y411D02*
X7Y411D01*
X725Y411D02*
X731Y411D01*
X877Y411D02*
X883Y411D01*
X1566Y411D02*
X1573Y411D01*
X0Y410D02*
X7Y410D01*
X725Y410D02*
X731Y410D01*
X877Y410D02*
X883Y410D01*
X1566Y410D02*
X1573Y410D01*
X0Y409D02*
X7Y409D01*
X725Y409D02*
X731Y409D01*
X877Y409D02*
X883Y409D01*
X1566Y409D02*
X1573Y409D01*
X0Y408D02*
X7Y408D01*
X532Y408D02*
X538Y408D01*
X576Y408D02*
X583Y408D01*
X621Y408D02*
X627Y408D01*
X665Y408D02*
X671Y408D01*
X725Y408D02*
X731Y408D01*
X877Y408D02*
X883Y408D01*
X1566Y408D02*
X1573Y408D01*
X0Y407D02*
X7Y407D01*
X529Y407D02*
X541Y407D01*
X573Y407D02*
X586Y407D01*
X618Y407D02*
X630Y407D01*
X662Y407D02*
X675Y407D01*
X725Y407D02*
X731Y407D01*
X877Y407D02*
X883Y407D01*
X1566Y407D02*
X1573Y407D01*
X0Y406D02*
X7Y406D01*
X527Y406D02*
X543Y406D01*
X571Y406D02*
X588Y406D01*
X616Y406D02*
X632Y406D01*
X660Y406D02*
X676Y406D01*
X725Y406D02*
X731Y406D01*
X877Y406D02*
X883Y406D01*
X1566Y406D02*
X1573Y406D01*
X0Y405D02*
X7Y405D01*
X525Y405D02*
X545Y405D01*
X570Y405D02*
X589Y405D01*
X614Y405D02*
X634Y405D01*
X659Y405D02*
X678Y405D01*
X725Y405D02*
X731Y405D01*
X737Y405D02*
X745Y405D01*
X779Y405D02*
X787Y405D01*
X821Y405D02*
X829Y405D01*
X864Y405D02*
X872Y405D01*
X877Y405D02*
X883Y405D01*
X896Y405D02*
X896Y405D01*
X912Y405D02*
X913Y405D01*
X929Y405D02*
X929Y405D01*
X948Y405D02*
X956Y405D01*
X990Y405D02*
X998Y405D01*
X1032Y405D02*
X1041Y405D01*
X1566Y405D02*
X1573Y405D01*
X0Y404D02*
X7Y404D01*
X524Y404D02*
X546Y404D01*
X569Y404D02*
X590Y404D01*
X613Y404D02*
X635Y404D01*
X657Y404D02*
X679Y404D01*
X725Y404D02*
X731Y404D01*
X734Y404D02*
X747Y404D01*
X777Y404D02*
X790Y404D01*
X819Y404D02*
X832Y404D01*
X861Y404D02*
X874Y404D01*
X877Y404D02*
X883Y404D01*
X894Y404D02*
X896Y404D01*
X910Y404D02*
X913Y404D01*
X926Y404D02*
X929Y404D01*
X946Y404D02*
X959Y404D01*
X988Y404D02*
X1001Y404D01*
X1030Y404D02*
X1043Y404D01*
X1566Y404D02*
X1573Y404D01*
X0Y403D02*
X7Y403D01*
X523Y403D02*
X547Y403D01*
X567Y403D02*
X592Y403D01*
X612Y403D02*
X636Y403D01*
X656Y403D02*
X680Y403D01*
X725Y403D02*
X749Y403D01*
X775Y403D02*
X792Y403D01*
X817Y403D02*
X834Y403D01*
X859Y403D02*
X883Y403D01*
X891Y403D02*
X896Y403D01*
X908Y403D02*
X913Y403D01*
X924Y403D02*
X929Y403D01*
X944Y403D02*
X961Y403D01*
X986Y403D02*
X1003Y403D01*
X1028Y403D02*
X1045Y403D01*
X1566Y403D02*
X1573Y403D01*
X0Y402D02*
X7Y402D01*
X522Y402D02*
X548Y402D01*
X567Y402D02*
X592Y402D01*
X611Y402D02*
X637Y402D01*
X655Y402D02*
X681Y402D01*
X725Y402D02*
X750Y402D01*
X774Y402D02*
X793Y402D01*
X816Y402D02*
X835Y402D01*
X858Y402D02*
X883Y402D01*
X891Y402D02*
X896Y402D01*
X907Y402D02*
X913Y402D01*
X923Y402D02*
X929Y402D01*
X943Y402D02*
X962Y402D01*
X985Y402D02*
X1004Y402D01*
X1027Y402D02*
X1046Y402D01*
X1566Y402D02*
X1573Y402D01*
X0Y401D02*
X7Y401D01*
X521Y401D02*
X549Y401D01*
X566Y401D02*
X593Y401D01*
X610Y401D02*
X638Y401D01*
X655Y401D02*
X682Y401D01*
X725Y401D02*
X752Y401D01*
X773Y401D02*
X794Y401D01*
X815Y401D02*
X836Y401D01*
X857Y401D02*
X883Y401D01*
X891Y401D02*
X896Y401D01*
X907Y401D02*
X913Y401D01*
X923Y401D02*
X929Y401D01*
X942Y401D02*
X963Y401D01*
X984Y401D02*
X1005Y401D01*
X1026Y401D02*
X1047Y401D01*
X1566Y401D02*
X1573Y401D01*
X0Y400D02*
X7Y400D01*
X521Y400D02*
X549Y400D01*
X565Y400D02*
X594Y400D01*
X609Y400D02*
X638Y400D01*
X654Y400D02*
X683Y400D01*
X725Y400D02*
X752Y400D01*
X772Y400D02*
X795Y400D01*
X814Y400D02*
X837Y400D01*
X856Y400D02*
X883Y400D01*
X891Y400D02*
X896Y400D01*
X907Y400D02*
X913Y400D01*
X923Y400D02*
X929Y400D01*
X941Y400D02*
X964Y400D01*
X983Y400D02*
X1006Y400D01*
X1025Y400D02*
X1048Y400D01*
X1566Y400D02*
X1573Y400D01*
X0Y399D02*
X7Y399D01*
X520Y399D02*
X550Y399D01*
X565Y399D02*
X594Y399D01*
X609Y399D02*
X639Y399D01*
X653Y399D02*
X683Y399D01*
X725Y399D02*
X753Y399D01*
X771Y399D02*
X796Y399D01*
X813Y399D02*
X838Y399D01*
X855Y399D02*
X883Y399D01*
X891Y399D02*
X896Y399D01*
X907Y399D02*
X913Y399D01*
X923Y399D02*
X929Y399D01*
X940Y399D02*
X965Y399D01*
X982Y399D02*
X1007Y399D01*
X1024Y399D02*
X1049Y399D01*
X1566Y399D02*
X1573Y399D01*
X0Y398D02*
X7Y398D01*
X520Y398D02*
X531Y398D01*
X539Y398D02*
X550Y398D01*
X564Y398D02*
X575Y398D01*
X583Y398D02*
X595Y398D01*
X608Y398D02*
X620Y398D01*
X628Y398D02*
X639Y398D01*
X653Y398D02*
X664Y398D01*
X672Y398D02*
X684Y398D01*
X725Y398D02*
X737Y398D01*
X745Y398D02*
X754Y398D01*
X770Y398D02*
X779Y398D01*
X787Y398D02*
X796Y398D01*
X812Y398D02*
X821Y398D01*
X830Y398D02*
X838Y398D01*
X854Y398D02*
X863Y398D01*
X872Y398D02*
X883Y398D01*
X891Y398D02*
X896Y398D01*
X907Y398D02*
X913Y398D01*
X923Y398D02*
X929Y398D01*
X939Y398D02*
X948Y398D01*
X956Y398D02*
X965Y398D01*
X981Y398D02*
X990Y398D01*
X999Y398D02*
X1007Y398D01*
X1023Y398D02*
X1032Y398D01*
X1041Y398D02*
X1050Y398D01*
X1566Y398D02*
X1573Y398D01*
X0Y397D02*
X7Y397D01*
X519Y397D02*
X530Y397D01*
X540Y397D02*
X551Y397D01*
X564Y397D02*
X574Y397D01*
X585Y397D02*
X595Y397D01*
X608Y397D02*
X618Y397D01*
X629Y397D02*
X640Y397D01*
X653Y397D02*
X663Y397D01*
X674Y397D02*
X684Y397D01*
X725Y397D02*
X735Y397D01*
X747Y397D02*
X754Y397D01*
X770Y397D02*
X777Y397D01*
X789Y397D02*
X797Y397D01*
X812Y397D02*
X819Y397D01*
X831Y397D02*
X839Y397D01*
X854Y397D02*
X862Y397D01*
X873Y397D02*
X883Y397D01*
X891Y397D02*
X896Y397D01*
X907Y397D02*
X913Y397D01*
X923Y397D02*
X929Y397D01*
X939Y397D02*
X946Y397D01*
X958Y397D02*
X966Y397D01*
X981Y397D02*
X988Y397D01*
X1000Y397D02*
X1008Y397D01*
X1023Y397D02*
X1031Y397D01*
X1042Y397D02*
X1050Y397D01*
X1566Y397D02*
X1573Y397D01*
X0Y396D02*
X7Y396D01*
X519Y396D02*
X529Y396D01*
X541Y396D02*
X551Y396D01*
X563Y396D02*
X573Y396D01*
X586Y396D02*
X596Y396D01*
X608Y396D02*
X617Y396D01*
X630Y396D02*
X640Y396D01*
X652Y396D02*
X662Y396D01*
X675Y396D02*
X684Y396D01*
X725Y396D02*
X734Y396D01*
X748Y396D02*
X755Y396D01*
X769Y396D02*
X776Y396D01*
X790Y396D02*
X797Y396D01*
X811Y396D02*
X818Y396D01*
X832Y396D02*
X839Y396D01*
X853Y396D02*
X860Y396D01*
X875Y396D02*
X883Y396D01*
X891Y396D02*
X896Y396D01*
X907Y396D02*
X913Y396D01*
X923Y396D02*
X929Y396D01*
X938Y396D02*
X945Y396D01*
X959Y396D02*
X966Y396D01*
X980Y396D02*
X987Y396D01*
X1001Y396D02*
X1008Y396D01*
X1022Y396D02*
X1029Y396D01*
X1044Y396D02*
X1051Y396D01*
X1566Y396D02*
X1573Y396D01*
X0Y395D02*
X7Y395D01*
X519Y395D02*
X528Y395D01*
X542Y395D02*
X551Y395D01*
X563Y395D02*
X572Y395D01*
X587Y395D02*
X596Y395D01*
X607Y395D02*
X617Y395D01*
X631Y395D02*
X640Y395D01*
X652Y395D02*
X661Y395D01*
X675Y395D02*
X685Y395D01*
X725Y395D02*
X733Y395D01*
X749Y395D02*
X755Y395D01*
X769Y395D02*
X775Y395D01*
X791Y395D02*
X798Y395D01*
X811Y395D02*
X817Y395D01*
X833Y395D02*
X840Y395D01*
X853Y395D02*
X860Y395D01*
X875Y395D02*
X883Y395D01*
X891Y395D02*
X896Y395D01*
X907Y395D02*
X913Y395D01*
X923Y395D02*
X929Y395D01*
X938Y395D02*
X944Y395D01*
X960Y395D02*
X967Y395D01*
X980Y395D02*
X986Y395D01*
X1002Y395D02*
X1009Y395D01*
X1022Y395D02*
X1029Y395D01*
X1045Y395D02*
X1051Y395D01*
X1566Y395D02*
X1573Y395D01*
X0Y394D02*
X7Y394D01*
X518Y394D02*
X527Y394D01*
X543Y394D02*
X552Y394D01*
X563Y394D02*
X572Y394D01*
X587Y394D02*
X596Y394D01*
X607Y394D02*
X616Y394D01*
X632Y394D02*
X640Y394D01*
X652Y394D02*
X661Y394D01*
X676Y394D02*
X685Y394D01*
X725Y394D02*
X732Y394D01*
X749Y394D02*
X756Y394D01*
X768Y394D02*
X775Y394D01*
X792Y394D02*
X798Y394D01*
X810Y394D02*
X817Y394D01*
X834Y394D02*
X840Y394D01*
X853Y394D02*
X859Y394D01*
X876Y394D02*
X883Y394D01*
X891Y394D02*
X896Y394D01*
X907Y394D02*
X913Y394D01*
X923Y394D02*
X929Y394D01*
X937Y394D02*
X944Y394D01*
X961Y394D02*
X967Y394D01*
X979Y394D02*
X986Y394D01*
X1003Y394D02*
X1009Y394D01*
X1022Y394D02*
X1028Y394D01*
X1045Y394D02*
X1051Y394D01*
X1566Y394D02*
X1573Y394D01*
X0Y393D02*
X7Y393D01*
X518Y393D02*
X527Y393D01*
X543Y393D02*
X552Y393D01*
X563Y393D02*
X571Y393D01*
X587Y393D02*
X596Y393D01*
X607Y393D02*
X616Y393D01*
X632Y393D02*
X641Y393D01*
X652Y393D02*
X660Y393D01*
X676Y393D02*
X685Y393D01*
X725Y393D02*
X732Y393D01*
X750Y393D02*
X756Y393D01*
X768Y393D02*
X774Y393D01*
X792Y393D02*
X798Y393D01*
X810Y393D02*
X816Y393D01*
X834Y393D02*
X840Y393D01*
X852Y393D02*
X859Y393D01*
X877Y393D02*
X883Y393D01*
X891Y393D02*
X896Y393D01*
X907Y393D02*
X913Y393D01*
X923Y393D02*
X929Y393D01*
X937Y393D02*
X943Y393D01*
X961Y393D02*
X967Y393D01*
X979Y393D02*
X985Y393D01*
X1003Y393D02*
X1009Y393D01*
X1021Y393D02*
X1028Y393D01*
X1046Y393D02*
X1052Y393D01*
X1566Y393D02*
X1573Y393D01*
X0Y392D02*
X7Y392D01*
X518Y392D02*
X527Y392D01*
X543Y392D02*
X552Y392D01*
X563Y392D02*
X571Y392D01*
X588Y392D02*
X596Y392D01*
X607Y392D02*
X616Y392D01*
X631Y392D02*
X641Y392D01*
X652Y392D02*
X660Y392D01*
X677Y392D02*
X685Y392D01*
X725Y392D02*
X731Y392D01*
X750Y392D02*
X756Y392D01*
X768Y392D02*
X774Y392D01*
X792Y392D02*
X798Y392D01*
X810Y392D02*
X816Y392D01*
X835Y392D02*
X841Y392D01*
X852Y392D02*
X858Y392D01*
X877Y392D02*
X883Y392D01*
X891Y392D02*
X896Y392D01*
X907Y392D02*
X913Y392D01*
X923Y392D02*
X929Y392D01*
X937Y392D02*
X943Y392D01*
X961Y392D02*
X967Y392D01*
X979Y392D02*
X985Y392D01*
X1004Y392D02*
X1010Y392D01*
X1021Y392D02*
X1027Y392D01*
X1046Y392D02*
X1052Y392D01*
X1566Y392D02*
X1573Y392D01*
X0Y391D02*
X7Y391D01*
X518Y391D02*
X527Y391D01*
X543Y391D02*
X552Y391D01*
X563Y391D02*
X571Y391D01*
X588Y391D02*
X596Y391D01*
X607Y391D02*
X616Y391D01*
X629Y391D02*
X641Y391D01*
X651Y391D02*
X660Y391D01*
X677Y391D02*
X685Y391D01*
X725Y391D02*
X731Y391D01*
X750Y391D02*
X756Y391D01*
X768Y391D02*
X774Y391D01*
X793Y391D02*
X799Y391D01*
X810Y391D02*
X816Y391D01*
X835Y391D02*
X841Y391D01*
X852Y391D02*
X858Y391D01*
X877Y391D02*
X883Y391D01*
X891Y391D02*
X896Y391D01*
X907Y391D02*
X913Y391D01*
X923Y391D02*
X929Y391D01*
X937Y391D02*
X943Y391D01*
X962Y391D02*
X967Y391D01*
X979Y391D02*
X985Y391D01*
X1004Y391D02*
X1010Y391D01*
X1021Y391D02*
X1027Y391D01*
X1046Y391D02*
X1052Y391D01*
X1566Y391D02*
X1573Y391D01*
X0Y390D02*
X7Y390D01*
X518Y390D02*
X527Y390D01*
X543Y390D02*
X552Y390D01*
X563Y390D02*
X571Y390D01*
X588Y390D02*
X596Y390D01*
X607Y390D02*
X616Y390D01*
X627Y390D02*
X641Y390D01*
X651Y390D02*
X660Y390D01*
X677Y390D02*
X685Y390D01*
X725Y390D02*
X731Y390D01*
X750Y390D02*
X756Y390D01*
X768Y390D02*
X773Y390D01*
X793Y390D02*
X799Y390D01*
X810Y390D02*
X816Y390D01*
X835Y390D02*
X841Y390D01*
X852Y390D02*
X858Y390D01*
X877Y390D02*
X883Y390D01*
X891Y390D02*
X896Y390D01*
X907Y390D02*
X913Y390D01*
X923Y390D02*
X929Y390D01*
X937Y390D02*
X942Y390D01*
X962Y390D02*
X968Y390D01*
X979Y390D02*
X985Y390D01*
X1004Y390D02*
X1010Y390D01*
X1021Y390D02*
X1027Y390D01*
X1046Y390D02*
X1052Y390D01*
X1566Y390D02*
X1573Y390D01*
X0Y389D02*
X7Y389D01*
X518Y389D02*
X527Y389D01*
X543Y389D02*
X552Y389D01*
X563Y389D02*
X571Y389D01*
X588Y389D02*
X596Y389D01*
X607Y389D02*
X616Y389D01*
X625Y389D02*
X641Y389D01*
X651Y389D02*
X660Y389D01*
X677Y389D02*
X685Y389D01*
X725Y389D02*
X731Y389D01*
X751Y389D02*
X756Y389D01*
X768Y389D02*
X773Y389D01*
X792Y389D02*
X799Y389D01*
X810Y389D02*
X816Y389D01*
X835Y389D02*
X840Y389D01*
X852Y389D02*
X858Y389D01*
X877Y389D02*
X883Y389D01*
X891Y389D02*
X896Y389D01*
X907Y389D02*
X913Y389D01*
X923Y389D02*
X929Y389D01*
X937Y389D02*
X942Y389D01*
X961Y389D02*
X968Y389D01*
X979Y389D02*
X985Y389D01*
X1004Y389D02*
X1009Y389D01*
X1021Y389D02*
X1027Y389D01*
X1044Y389D02*
X1052Y389D01*
X1526Y389D02*
X1527Y389D01*
X1566Y389D02*
X1573Y389D01*
X0Y388D02*
X7Y388D01*
X518Y388D02*
X527Y388D01*
X543Y388D02*
X552Y388D01*
X563Y388D02*
X571Y388D01*
X588Y388D02*
X596Y388D01*
X607Y388D02*
X616Y388D01*
X622Y388D02*
X641Y388D01*
X651Y388D02*
X660Y388D01*
X677Y388D02*
X685Y388D01*
X725Y388D02*
X731Y388D01*
X751Y388D02*
X756Y388D01*
X768Y388D02*
X771Y388D01*
X789Y388D02*
X799Y388D01*
X810Y388D02*
X816Y388D01*
X835Y388D02*
X837Y388D01*
X852Y388D02*
X858Y388D01*
X877Y388D02*
X883Y388D01*
X891Y388D02*
X896Y388D01*
X907Y388D02*
X913Y388D01*
X923Y388D02*
X929Y388D01*
X937Y388D02*
X940Y388D01*
X958Y388D02*
X968Y388D01*
X979Y388D02*
X985Y388D01*
X1004Y388D02*
X1006Y388D01*
X1021Y388D02*
X1027Y388D01*
X1041Y388D02*
X1052Y388D01*
X1525Y388D02*
X1528Y388D01*
X1566Y388D02*
X1573Y388D01*
X0Y387D02*
X7Y387D01*
X518Y387D02*
X527Y387D01*
X543Y387D02*
X552Y387D01*
X563Y387D02*
X571Y387D01*
X588Y387D02*
X596Y387D01*
X607Y387D02*
X616Y387D01*
X620Y387D02*
X641Y387D01*
X651Y387D02*
X660Y387D01*
X677Y387D02*
X685Y387D01*
X725Y387D02*
X731Y387D01*
X751Y387D02*
X756Y387D01*
X768Y387D02*
X769Y387D01*
X787Y387D02*
X799Y387D01*
X810Y387D02*
X816Y387D01*
X835Y387D02*
X835Y387D01*
X852Y387D02*
X858Y387D01*
X877Y387D02*
X883Y387D01*
X891Y387D02*
X896Y387D01*
X907Y387D02*
X913Y387D01*
X923Y387D02*
X929Y387D01*
X937Y387D02*
X938Y387D01*
X956Y387D02*
X968Y387D01*
X979Y387D02*
X985Y387D01*
X1004Y387D02*
X1004Y387D01*
X1021Y387D02*
X1027Y387D01*
X1039Y387D02*
X1052Y387D01*
X1524Y387D02*
X1529Y387D01*
X1566Y387D02*
X1573Y387D01*
X0Y386D02*
X7Y386D01*
X518Y386D02*
X527Y386D01*
X543Y386D02*
X552Y386D01*
X563Y386D02*
X571Y386D01*
X588Y386D02*
X596Y386D01*
X607Y386D02*
X616Y386D01*
X618Y386D02*
X640Y386D01*
X651Y386D02*
X660Y386D01*
X677Y386D02*
X685Y386D01*
X725Y386D02*
X731Y386D01*
X751Y386D02*
X756Y386D01*
X785Y386D02*
X799Y386D01*
X810Y386D02*
X816Y386D01*
X852Y386D02*
X858Y386D01*
X877Y386D02*
X883Y386D01*
X891Y386D02*
X896Y386D01*
X907Y386D02*
X913Y386D01*
X923Y386D02*
X929Y386D01*
X954Y386D02*
X968Y386D01*
X979Y386D02*
X985Y386D01*
X1021Y386D02*
X1027Y386D01*
X1037Y386D02*
X1052Y386D01*
X1524Y386D02*
X1530Y386D01*
X1566Y386D02*
X1573Y386D01*
X0Y385D02*
X7Y385D01*
X518Y385D02*
X527Y385D01*
X543Y385D02*
X552Y385D01*
X563Y385D02*
X571Y385D01*
X588Y385D02*
X596Y385D01*
X607Y385D02*
X638Y385D01*
X651Y385D02*
X660Y385D01*
X677Y385D02*
X685Y385D01*
X725Y385D02*
X731Y385D01*
X751Y385D02*
X756Y385D01*
X782Y385D02*
X799Y385D01*
X810Y385D02*
X816Y385D01*
X852Y385D02*
X858Y385D01*
X877Y385D02*
X883Y385D01*
X891Y385D02*
X896Y385D01*
X907Y385D02*
X913Y385D01*
X923Y385D02*
X929Y385D01*
X951Y385D02*
X968Y385D01*
X979Y385D02*
X985Y385D01*
X1021Y385D02*
X1027Y385D01*
X1035Y385D02*
X1050Y385D01*
X1525Y385D02*
X1531Y385D01*
X1566Y385D02*
X1573Y385D01*
X0Y384D02*
X7Y384D01*
X518Y384D02*
X527Y384D01*
X543Y384D02*
X552Y384D01*
X563Y384D02*
X571Y384D01*
X588Y384D02*
X596Y384D01*
X607Y384D02*
X636Y384D01*
X651Y384D02*
X660Y384D01*
X677Y384D02*
X685Y384D01*
X725Y384D02*
X731Y384D01*
X751Y384D02*
X756Y384D01*
X780Y384D02*
X799Y384D01*
X810Y384D02*
X816Y384D01*
X852Y384D02*
X858Y384D01*
X877Y384D02*
X883Y384D01*
X891Y384D02*
X896Y384D01*
X907Y384D02*
X913Y384D01*
X923Y384D02*
X929Y384D01*
X949Y384D02*
X968Y384D01*
X979Y384D02*
X985Y384D01*
X1021Y384D02*
X1027Y384D01*
X1032Y384D02*
X1048Y384D01*
X1526Y384D02*
X1532Y384D01*
X1566Y384D02*
X1573Y384D01*
X0Y383D02*
X7Y383D01*
X518Y383D02*
X527Y383D01*
X543Y383D02*
X552Y383D01*
X563Y383D02*
X571Y383D01*
X588Y383D02*
X596Y383D01*
X607Y383D02*
X634Y383D01*
X651Y383D02*
X660Y383D01*
X677Y383D02*
X685Y383D01*
X725Y383D02*
X731Y383D01*
X751Y383D02*
X756Y383D01*
X777Y383D02*
X799Y383D01*
X810Y383D02*
X816Y383D01*
X852Y383D02*
X858Y383D01*
X877Y383D02*
X883Y383D01*
X891Y383D02*
X896Y383D01*
X907Y383D02*
X913Y383D01*
X923Y383D02*
X929Y383D01*
X946Y383D02*
X968Y383D01*
X979Y383D02*
X985Y383D01*
X1021Y383D02*
X1027Y383D01*
X1030Y383D02*
X1046Y383D01*
X1527Y383D02*
X1533Y383D01*
X1566Y383D02*
X1573Y383D01*
X0Y382D02*
X7Y382D01*
X518Y382D02*
X527Y382D01*
X543Y382D02*
X552Y382D01*
X563Y382D02*
X571Y382D01*
X588Y382D02*
X596Y382D01*
X607Y382D02*
X631Y382D01*
X651Y382D02*
X660Y382D01*
X677Y382D02*
X685Y382D01*
X725Y382D02*
X731Y382D01*
X751Y382D02*
X756Y382D01*
X775Y382D02*
X799Y382D01*
X810Y382D02*
X816Y382D01*
X852Y382D02*
X858Y382D01*
X877Y382D02*
X883Y382D01*
X891Y382D02*
X896Y382D01*
X907Y382D02*
X913Y382D01*
X923Y382D02*
X929Y382D01*
X944Y382D02*
X968Y382D01*
X979Y382D02*
X985Y382D01*
X1021Y382D02*
X1044Y382D01*
X1566Y382D02*
X1573Y382D01*
X0Y381D02*
X7Y381D01*
X518Y381D02*
X527Y381D01*
X543Y381D02*
X552Y381D01*
X563Y381D02*
X571Y381D01*
X588Y381D02*
X596Y381D01*
X607Y381D02*
X629Y381D01*
X641Y381D02*
X641Y381D01*
X651Y381D02*
X660Y381D01*
X677Y381D02*
X685Y381D01*
X725Y381D02*
X731Y381D01*
X751Y381D02*
X756Y381D01*
X773Y381D02*
X789Y381D01*
X793Y381D02*
X799Y381D01*
X810Y381D02*
X816Y381D01*
X852Y381D02*
X858Y381D01*
X877Y381D02*
X883Y381D01*
X891Y381D02*
X896Y381D01*
X907Y381D02*
X913Y381D01*
X923Y381D02*
X929Y381D01*
X942Y381D02*
X958Y381D01*
X962Y381D02*
X968Y381D01*
X979Y381D02*
X985Y381D01*
X1021Y381D02*
X1041Y381D01*
X1566Y381D02*
X1573Y381D01*
X0Y380D02*
X7Y380D01*
X518Y380D02*
X527Y380D01*
X543Y380D02*
X552Y380D01*
X563Y380D02*
X571Y380D01*
X588Y380D02*
X596Y380D01*
X607Y380D02*
X627Y380D01*
X639Y380D02*
X641Y380D01*
X651Y380D02*
X660Y380D01*
X677Y380D02*
X685Y380D01*
X725Y380D02*
X731Y380D01*
X751Y380D02*
X756Y380D01*
X772Y380D02*
X787Y380D01*
X793Y380D02*
X799Y380D01*
X810Y380D02*
X816Y380D01*
X852Y380D02*
X858Y380D01*
X877Y380D02*
X883Y380D01*
X891Y380D02*
X896Y380D01*
X907Y380D02*
X913Y380D01*
X923Y380D02*
X929Y380D01*
X941Y380D02*
X956Y380D01*
X962Y380D02*
X968Y380D01*
X979Y380D02*
X985Y380D01*
X1021Y380D02*
X1039Y380D01*
X1566Y380D02*
X1573Y380D01*
X0Y379D02*
X7Y379D01*
X518Y379D02*
X527Y379D01*
X543Y379D02*
X552Y379D01*
X563Y379D02*
X571Y379D01*
X588Y379D02*
X596Y379D01*
X607Y379D02*
X625Y379D01*
X636Y379D02*
X641Y379D01*
X651Y379D02*
X660Y379D01*
X677Y379D02*
X685Y379D01*
X725Y379D02*
X731Y379D01*
X751Y379D02*
X756Y379D01*
X771Y379D02*
X785Y379D01*
X793Y379D02*
X799Y379D01*
X810Y379D02*
X816Y379D01*
X852Y379D02*
X858Y379D01*
X877Y379D02*
X883Y379D01*
X891Y379D02*
X896Y379D01*
X907Y379D02*
X913Y379D01*
X923Y379D02*
X929Y379D01*
X940Y379D02*
X954Y379D01*
X962Y379D02*
X968Y379D01*
X979Y379D02*
X985Y379D01*
X1021Y379D02*
X1037Y379D01*
X1566Y379D02*
X1573Y379D01*
X0Y378D02*
X7Y378D01*
X518Y378D02*
X527Y378D01*
X543Y378D02*
X552Y378D01*
X563Y378D02*
X571Y378D01*
X588Y378D02*
X596Y378D01*
X607Y378D02*
X622Y378D01*
X634Y378D02*
X641Y378D01*
X651Y378D02*
X660Y378D01*
X677Y378D02*
X685Y378D01*
X725Y378D02*
X731Y378D01*
X751Y378D02*
X756Y378D01*
X770Y378D02*
X782Y378D01*
X793Y378D02*
X799Y378D01*
X810Y378D02*
X816Y378D01*
X852Y378D02*
X858Y378D01*
X877Y378D02*
X883Y378D01*
X891Y378D02*
X896Y378D01*
X907Y378D02*
X913Y378D01*
X923Y378D02*
X929Y378D01*
X939Y378D02*
X951Y378D01*
X962Y378D02*
X968Y378D01*
X979Y378D02*
X985Y378D01*
X1021Y378D02*
X1035Y378D01*
X1566Y378D02*
X1573Y378D01*
X0Y377D02*
X7Y377D01*
X518Y377D02*
X527Y377D01*
X543Y377D02*
X552Y377D01*
X563Y377D02*
X571Y377D01*
X588Y377D02*
X596Y377D01*
X607Y377D02*
X620Y377D01*
X632Y377D02*
X641Y377D01*
X651Y377D02*
X660Y377D01*
X677Y377D02*
X685Y377D01*
X725Y377D02*
X731Y377D01*
X751Y377D02*
X756Y377D01*
X769Y377D02*
X780Y377D01*
X793Y377D02*
X799Y377D01*
X810Y377D02*
X816Y377D01*
X852Y377D02*
X858Y377D01*
X877Y377D02*
X883Y377D01*
X891Y377D02*
X896Y377D01*
X907Y377D02*
X913Y377D01*
X923Y377D02*
X929Y377D01*
X938Y377D02*
X949Y377D01*
X962Y377D02*
X968Y377D01*
X979Y377D02*
X985Y377D01*
X1021Y377D02*
X1032Y377D01*
X1051Y377D02*
X1052Y377D01*
X1566Y377D02*
X1573Y377D01*
X0Y376D02*
X7Y376D01*
X518Y376D02*
X527Y376D01*
X543Y376D02*
X552Y376D01*
X563Y376D02*
X571Y376D01*
X588Y376D02*
X596Y376D01*
X607Y376D02*
X618Y376D01*
X632Y376D02*
X641Y376D01*
X651Y376D02*
X660Y376D01*
X677Y376D02*
X685Y376D01*
X725Y376D02*
X731Y376D01*
X751Y376D02*
X756Y376D01*
X768Y376D02*
X777Y376D01*
X793Y376D02*
X799Y376D01*
X810Y376D02*
X816Y376D01*
X852Y376D02*
X858Y376D01*
X877Y376D02*
X883Y376D01*
X891Y376D02*
X896Y376D01*
X907Y376D02*
X913Y376D01*
X923Y376D02*
X929Y376D01*
X937Y376D02*
X946Y376D01*
X962Y376D02*
X968Y376D01*
X979Y376D02*
X985Y376D01*
X1021Y376D02*
X1030Y376D01*
X1049Y376D02*
X1052Y376D01*
X1566Y376D02*
X1573Y376D01*
X0Y375D02*
X7Y375D01*
X518Y375D02*
X527Y375D01*
X543Y375D02*
X552Y375D01*
X563Y375D02*
X571Y375D01*
X588Y375D02*
X596Y375D01*
X607Y375D02*
X616Y375D01*
X632Y375D02*
X641Y375D01*
X651Y375D02*
X660Y375D01*
X677Y375D02*
X685Y375D01*
X725Y375D02*
X731Y375D01*
X751Y375D02*
X756Y375D01*
X768Y375D02*
X776Y375D01*
X793Y375D02*
X799Y375D01*
X810Y375D02*
X816Y375D01*
X852Y375D02*
X858Y375D01*
X877Y375D02*
X883Y375D01*
X891Y375D02*
X896Y375D01*
X907Y375D02*
X913Y375D01*
X923Y375D02*
X929Y375D01*
X937Y375D02*
X945Y375D01*
X962Y375D02*
X968Y375D01*
X979Y375D02*
X985Y375D01*
X1021Y375D02*
X1028Y375D01*
X1047Y375D02*
X1052Y375D01*
X1566Y375D02*
X1573Y375D01*
X0Y374D02*
X7Y374D01*
X518Y374D02*
X527Y374D01*
X543Y374D02*
X552Y374D01*
X563Y374D02*
X571Y374D01*
X588Y374D02*
X596Y374D01*
X607Y374D02*
X616Y374D01*
X632Y374D02*
X641Y374D01*
X651Y374D02*
X660Y374D01*
X677Y374D02*
X685Y374D01*
X725Y374D02*
X731Y374D01*
X751Y374D02*
X756Y374D01*
X768Y374D02*
X775Y374D01*
X793Y374D02*
X799Y374D01*
X810Y374D02*
X816Y374D01*
X852Y374D02*
X858Y374D01*
X877Y374D02*
X883Y374D01*
X891Y374D02*
X896Y374D01*
X907Y374D02*
X913Y374D01*
X923Y374D02*
X929Y374D01*
X937Y374D02*
X944Y374D01*
X962Y374D02*
X968Y374D01*
X979Y374D02*
X985Y374D01*
X1021Y374D02*
X1027Y374D01*
X1046Y374D02*
X1052Y374D01*
X1566Y374D02*
X1573Y374D01*
X0Y373D02*
X7Y373D01*
X518Y373D02*
X527Y373D01*
X543Y373D02*
X552Y373D01*
X563Y373D02*
X572Y373D01*
X587Y373D02*
X596Y373D01*
X607Y373D02*
X616Y373D01*
X632Y373D02*
X640Y373D01*
X651Y373D02*
X660Y373D01*
X677Y373D02*
X685Y373D01*
X725Y373D02*
X731Y373D01*
X751Y373D02*
X756Y373D01*
X768Y373D02*
X774Y373D01*
X793Y373D02*
X799Y373D01*
X810Y373D02*
X816Y373D01*
X852Y373D02*
X858Y373D01*
X877Y373D02*
X883Y373D01*
X891Y373D02*
X896Y373D01*
X907Y373D02*
X913Y373D01*
X923Y373D02*
X929Y373D01*
X937Y373D02*
X943Y373D01*
X962Y373D02*
X968Y373D01*
X979Y373D02*
X985Y373D01*
X1021Y373D02*
X1027Y373D01*
X1046Y373D02*
X1052Y373D01*
X1566Y373D02*
X1573Y373D01*
X0Y372D02*
X7Y372D01*
X518Y372D02*
X528Y372D01*
X542Y372D02*
X552Y372D01*
X563Y372D02*
X572Y372D01*
X587Y372D02*
X596Y372D01*
X607Y372D02*
X616Y372D01*
X631Y372D02*
X640Y372D01*
X651Y372D02*
X660Y372D01*
X677Y372D02*
X685Y372D01*
X725Y372D02*
X731Y372D01*
X751Y372D02*
X756Y372D01*
X768Y372D02*
X774Y372D01*
X793Y372D02*
X799Y372D01*
X810Y372D02*
X816Y372D01*
X852Y372D02*
X858Y372D01*
X877Y372D02*
X883Y372D01*
X891Y372D02*
X896Y372D01*
X907Y372D02*
X913Y372D01*
X923Y372D02*
X929Y372D01*
X937Y372D02*
X943Y372D01*
X962Y372D02*
X968Y372D01*
X979Y372D02*
X985Y372D01*
X1021Y372D02*
X1027Y372D01*
X1046Y372D02*
X1052Y372D01*
X1566Y372D02*
X1573Y372D01*
X0Y371D02*
X7Y371D01*
X519Y371D02*
X528Y371D01*
X542Y371D02*
X551Y371D01*
X563Y371D02*
X573Y371D01*
X586Y371D02*
X596Y371D01*
X608Y371D02*
X617Y371D01*
X631Y371D02*
X640Y371D01*
X651Y371D02*
X660Y371D01*
X677Y371D02*
X685Y371D01*
X725Y371D02*
X731Y371D01*
X751Y371D02*
X756Y371D01*
X767Y371D02*
X773Y371D01*
X793Y371D02*
X799Y371D01*
X810Y371D02*
X816Y371D01*
X852Y371D02*
X858Y371D01*
X877Y371D02*
X883Y371D01*
X891Y371D02*
X896Y371D01*
X907Y371D02*
X913Y371D01*
X923Y371D02*
X929Y371D01*
X936Y371D02*
X942Y371D01*
X962Y371D02*
X968Y371D01*
X979Y371D02*
X985Y371D01*
X1021Y371D02*
X1027Y371D01*
X1046Y371D02*
X1052Y371D01*
X1566Y371D02*
X1573Y371D01*
X0Y370D02*
X7Y370D01*
X519Y370D02*
X529Y370D01*
X541Y370D02*
X551Y370D01*
X563Y370D02*
X574Y370D01*
X585Y370D02*
X595Y370D01*
X608Y370D02*
X618Y370D01*
X630Y370D02*
X640Y370D01*
X651Y370D02*
X660Y370D01*
X677Y370D02*
X685Y370D01*
X725Y370D02*
X731Y370D01*
X751Y370D02*
X756Y370D01*
X768Y370D02*
X774Y370D01*
X793Y370D02*
X799Y370D01*
X810Y370D02*
X816Y370D01*
X853Y370D02*
X859Y370D01*
X876Y370D02*
X882Y370D01*
X891Y370D02*
X896Y370D01*
X907Y370D02*
X913Y370D01*
X923Y370D02*
X929Y370D01*
X937Y370D02*
X943Y370D01*
X962Y370D02*
X968Y370D01*
X979Y370D02*
X985Y370D01*
X1022Y370D02*
X1028Y370D01*
X1045Y370D02*
X1051Y370D01*
X1566Y370D02*
X1573Y370D01*
X0Y369D02*
X7Y369D01*
X519Y369D02*
X530Y369D01*
X540Y369D02*
X551Y369D01*
X563Y369D02*
X575Y369D01*
X584Y369D02*
X595Y369D01*
X608Y369D02*
X619Y369D01*
X629Y369D02*
X639Y369D01*
X651Y369D02*
X660Y369D01*
X677Y369D02*
X685Y369D01*
X725Y369D02*
X731Y369D01*
X751Y369D02*
X756Y369D01*
X768Y369D02*
X774Y369D01*
X793Y369D02*
X799Y369D01*
X810Y369D02*
X816Y369D01*
X853Y369D02*
X860Y369D01*
X876Y369D02*
X882Y369D01*
X891Y369D02*
X897Y369D01*
X907Y369D02*
X913Y369D01*
X923Y369D02*
X929Y369D01*
X937Y369D02*
X943Y369D01*
X962Y369D02*
X968Y369D01*
X979Y369D02*
X985Y369D01*
X1022Y369D02*
X1029Y369D01*
X1045Y369D02*
X1051Y369D01*
X1566Y369D02*
X1573Y369D01*
X0Y368D02*
X7Y368D01*
X520Y368D02*
X533Y368D01*
X538Y368D02*
X550Y368D01*
X563Y368D02*
X577Y368D01*
X582Y368D02*
X595Y368D01*
X609Y368D02*
X622Y368D01*
X626Y368D02*
X639Y368D01*
X651Y368D02*
X660Y368D01*
X677Y368D02*
X685Y368D01*
X725Y368D02*
X731Y368D01*
X751Y368D02*
X756Y368D01*
X768Y368D02*
X774Y368D01*
X793Y368D02*
X799Y368D01*
X810Y368D02*
X816Y368D01*
X853Y368D02*
X860Y368D01*
X875Y368D02*
X882Y368D01*
X891Y368D02*
X897Y368D01*
X906Y368D02*
X913Y368D01*
X923Y368D02*
X929Y368D01*
X937Y368D02*
X943Y368D01*
X962Y368D02*
X968Y368D01*
X979Y368D02*
X985Y368D01*
X1022Y368D02*
X1029Y368D01*
X1044Y368D02*
X1051Y368D01*
X1566Y368D02*
X1573Y368D01*
X0Y367D02*
X7Y367D01*
X520Y367D02*
X550Y367D01*
X563Y367D02*
X594Y367D01*
X609Y367D02*
X638Y367D01*
X651Y367D02*
X660Y367D01*
X677Y367D02*
X685Y367D01*
X725Y367D02*
X731Y367D01*
X751Y367D02*
X756Y367D01*
X768Y367D02*
X775Y367D01*
X793Y367D02*
X799Y367D01*
X810Y367D02*
X816Y367D01*
X854Y367D02*
X862Y367D01*
X874Y367D02*
X881Y367D01*
X891Y367D02*
X897Y367D01*
X906Y367D02*
X914Y367D01*
X922Y367D02*
X929Y367D01*
X937Y367D02*
X944Y367D01*
X962Y367D02*
X968Y367D01*
X979Y367D02*
X985Y367D01*
X1023Y367D02*
X1030Y367D01*
X1043Y367D02*
X1050Y367D01*
X1566Y367D02*
X1573Y367D01*
X0Y366D02*
X7Y366D01*
X521Y366D02*
X549Y366D01*
X563Y366D02*
X594Y366D01*
X610Y366D02*
X638Y366D01*
X651Y366D02*
X660Y366D01*
X677Y366D02*
X685Y366D01*
X725Y366D02*
X731Y366D01*
X751Y366D02*
X756Y366D01*
X769Y366D02*
X777Y366D01*
X786Y366D02*
X786Y366D01*
X793Y366D02*
X799Y366D01*
X810Y366D02*
X816Y366D01*
X854Y366D02*
X863Y366D01*
X872Y366D02*
X881Y366D01*
X891Y366D02*
X898Y366D01*
X905Y366D02*
X915Y366D01*
X921Y366D02*
X928Y366D01*
X938Y366D02*
X946Y366D01*
X955Y366D02*
X955Y366D01*
X962Y366D02*
X968Y366D01*
X979Y366D02*
X985Y366D01*
X1023Y366D02*
X1032Y366D01*
X1041Y366D02*
X1049Y366D01*
X1566Y366D02*
X1573Y366D01*
X0Y365D02*
X7Y365D01*
X522Y365D02*
X548Y365D01*
X563Y365D02*
X593Y365D01*
X611Y365D02*
X637Y365D01*
X651Y365D02*
X660Y365D01*
X677Y365D02*
X685Y365D01*
X725Y365D02*
X731Y365D01*
X751Y365D02*
X756Y365D01*
X769Y365D02*
X786Y365D01*
X793Y365D02*
X799Y365D01*
X810Y365D02*
X816Y365D01*
X855Y365D02*
X880Y365D01*
X892Y365D02*
X900Y365D01*
X903Y365D02*
X917Y365D01*
X919Y365D02*
X928Y365D01*
X938Y365D02*
X955Y365D01*
X962Y365D02*
X968Y365D01*
X979Y365D02*
X985Y365D01*
X1024Y365D02*
X1049Y365D01*
X1566Y365D02*
X1573Y365D01*
X0Y364D02*
X7Y364D01*
X523Y364D02*
X547Y364D01*
X563Y364D02*
X592Y364D01*
X611Y364D02*
X636Y364D01*
X651Y364D02*
X660Y364D01*
X677Y364D02*
X685Y364D01*
X725Y364D02*
X731Y364D01*
X751Y364D02*
X756Y364D01*
X770Y364D02*
X787Y364D01*
X793Y364D02*
X799Y364D01*
X810Y364D02*
X816Y364D01*
X856Y364D02*
X879Y364D01*
X892Y364D02*
X928Y364D01*
X939Y364D02*
X956Y364D01*
X962Y364D02*
X968Y364D01*
X979Y364D02*
X985Y364D01*
X1025Y364D02*
X1048Y364D01*
X1566Y364D02*
X1573Y364D01*
X0Y363D02*
X7Y363D01*
X523Y363D02*
X547Y363D01*
X563Y363D02*
X591Y363D01*
X612Y363D02*
X635Y363D01*
X651Y363D02*
X660Y363D01*
X677Y363D02*
X685Y363D01*
X725Y363D02*
X731Y363D01*
X751Y363D02*
X756Y363D01*
X771Y363D02*
X787Y363D01*
X793Y363D02*
X799Y363D01*
X810Y363D02*
X816Y363D01*
X857Y363D02*
X878Y363D01*
X893Y363D02*
X927Y363D01*
X940Y363D02*
X956Y363D01*
X962Y363D02*
X968Y363D01*
X979Y363D02*
X985Y363D01*
X1026Y363D02*
X1047Y363D01*
X1566Y363D02*
X1573Y363D01*
X0Y362D02*
X7Y362D01*
X525Y362D02*
X545Y362D01*
X563Y362D02*
X590Y362D01*
X614Y362D02*
X634Y362D01*
X651Y362D02*
X660Y362D01*
X677Y362D02*
X685Y362D01*
X725Y362D02*
X731Y362D01*
X751Y362D02*
X756Y362D01*
X772Y362D02*
X788Y362D01*
X793Y362D02*
X799Y362D01*
X810Y362D02*
X816Y362D01*
X858Y362D02*
X877Y362D01*
X893Y362D02*
X926Y362D01*
X941Y362D02*
X957Y362D01*
X962Y362D02*
X968Y362D01*
X979Y362D02*
X985Y362D01*
X1027Y362D02*
X1046Y362D01*
X1554Y362D02*
X1554Y362D01*
X1566Y362D02*
X1573Y362D01*
X0Y361D02*
X7Y361D01*
X526Y361D02*
X544Y361D01*
X563Y361D02*
X589Y361D01*
X615Y361D02*
X633Y361D01*
X651Y361D02*
X659Y361D01*
X677Y361D02*
X684Y361D01*
X725Y361D02*
X731Y361D01*
X751Y361D02*
X756Y361D01*
X773Y361D02*
X788Y361D01*
X793Y361D02*
X798Y361D01*
X810Y361D02*
X815Y361D01*
X859Y361D02*
X876Y361D01*
X894Y361D02*
X909Y361D01*
X911Y361D02*
X925Y361D01*
X942Y361D02*
X957Y361D01*
X962Y361D02*
X967Y361D01*
X979Y361D02*
X984Y361D01*
X1028Y361D02*
X1045Y361D01*
X1554Y361D02*
X1555Y361D01*
X1566Y361D02*
X1573Y361D01*
X0Y360D02*
X7Y360D01*
X528Y360D02*
X542Y360D01*
X563Y360D02*
X587Y360D01*
X617Y360D02*
X631Y360D01*
X651Y360D02*
X656Y360D01*
X677Y360D02*
X682Y360D01*
X725Y360D02*
X729Y360D01*
X751Y360D02*
X754Y360D01*
X775Y360D02*
X788Y360D01*
X793Y360D02*
X796Y360D01*
X810Y360D02*
X813Y360D01*
X861Y360D02*
X874Y360D01*
X896Y360D02*
X907Y360D01*
X912Y360D02*
X924Y360D01*
X944Y360D02*
X957Y360D01*
X962Y360D02*
X965Y360D01*
X979Y360D02*
X982Y360D01*
X1030Y360D02*
X1043Y360D01*
X1554Y360D02*
X1556Y360D01*
X1566Y360D02*
X1573Y360D01*
X0Y359D02*
X7Y359D01*
X530Y359D02*
X540Y359D01*
X563Y359D02*
X571Y359D01*
X574Y359D02*
X584Y359D01*
X619Y359D02*
X629Y359D01*
X651Y359D02*
X654Y359D01*
X677Y359D02*
X679Y359D01*
X725Y359D02*
X726Y359D01*
X751Y359D02*
X751Y359D01*
X777Y359D02*
X786Y359D01*
X793Y359D02*
X794Y359D01*
X810Y359D02*
X811Y359D01*
X863Y359D02*
X872Y359D01*
X898Y359D02*
X906Y359D01*
X914Y359D02*
X922Y359D01*
X946Y359D02*
X955Y359D01*
X962Y359D02*
X963Y359D01*
X979Y359D02*
X980Y359D01*
X1032Y359D02*
X1041Y359D01*
X1554Y359D02*
X1557Y359D01*
X1566Y359D02*
X1573Y359D01*
X0Y358D02*
X7Y358D01*
X563Y358D02*
X571Y358D01*
X651Y358D02*
X652Y358D01*
X677Y358D02*
X677Y358D01*
X1554Y358D02*
X1558Y358D01*
X1566Y358D02*
X1573Y358D01*
X0Y357D02*
X7Y357D01*
X563Y357D02*
X571Y357D01*
X1554Y357D02*
X1559Y357D01*
X1566Y357D02*
X1573Y357D01*
X0Y356D02*
X7Y356D01*
X563Y356D02*
X571Y356D01*
X1554Y356D02*
X1560Y356D01*
X1566Y356D02*
X1573Y356D01*
X0Y355D02*
X7Y355D01*
X563Y355D02*
X571Y355D01*
X1555Y355D02*
X1561Y355D01*
X1566Y355D02*
X1573Y355D01*
X0Y354D02*
X7Y354D01*
X563Y354D02*
X571Y354D01*
X1556Y354D02*
X1560Y354D01*
X1566Y354D02*
X1573Y354D01*
X0Y353D02*
X7Y353D01*
X563Y353D02*
X571Y353D01*
X1557Y353D02*
X1559Y353D01*
X1566Y353D02*
X1573Y353D01*
X0Y352D02*
X7Y352D01*
X563Y352D02*
X571Y352D01*
X1558Y352D02*
X1558Y352D01*
X1566Y352D02*
X1573Y352D01*
X0Y351D02*
X7Y351D01*
X563Y351D02*
X571Y351D01*
X1566Y351D02*
X1573Y351D01*
X0Y350D02*
X7Y350D01*
X563Y350D02*
X571Y350D01*
X1566Y350D02*
X1573Y350D01*
X0Y349D02*
X7Y349D01*
X563Y349D02*
X571Y349D01*
X1566Y349D02*
X1573Y349D01*
X0Y348D02*
X7Y348D01*
X563Y348D02*
X571Y348D01*
X1566Y348D02*
X1573Y348D01*
X0Y347D02*
X7Y347D01*
X563Y347D02*
X571Y347D01*
X1566Y347D02*
X1573Y347D01*
X0Y346D02*
X7Y346D01*
X563Y346D02*
X571Y346D01*
X1566Y346D02*
X1573Y346D01*
X0Y345D02*
X7Y345D01*
X563Y345D02*
X571Y345D01*
X1566Y345D02*
X1573Y345D01*
X0Y344D02*
X7Y344D01*
X563Y344D02*
X569Y344D01*
X1566Y344D02*
X1573Y344D01*
X0Y343D02*
X7Y343D01*
X563Y343D02*
X567Y343D01*
X1566Y343D02*
X1573Y343D01*
X0Y342D02*
X7Y342D01*
X563Y342D02*
X564Y342D01*
X1566Y342D02*
X1573Y342D01*
X0Y341D02*
X7Y341D01*
X1566Y341D02*
X1573Y341D01*
X0Y340D02*
X7Y340D01*
X1566Y340D02*
X1573Y340D01*
X0Y339D02*
X7Y339D01*
X1566Y339D02*
X1573Y339D01*
X0Y338D02*
X7Y338D01*
X1566Y338D02*
X1573Y338D01*
X0Y337D02*
X7Y337D01*
X1566Y337D02*
X1573Y337D01*
X0Y336D02*
X7Y336D01*
X1566Y336D02*
X1573Y336D01*
X0Y335D02*
X7Y335D01*
X1566Y335D02*
X1573Y335D01*
X0Y334D02*
X7Y334D01*
X1566Y334D02*
X1573Y334D01*
X0Y333D02*
X7Y333D01*
X1566Y333D02*
X1573Y333D01*
X0Y332D02*
X7Y332D01*
X1566Y332D02*
X1573Y332D01*
X0Y331D02*
X7Y331D01*
X1566Y331D02*
X1573Y331D01*
X0Y330D02*
X7Y330D01*
X1566Y330D02*
X1573Y330D01*
X0Y329D02*
X7Y329D01*
X1566Y329D02*
X1573Y329D01*
X0Y328D02*
X7Y328D01*
X1566Y328D02*
X1573Y328D01*
X0Y327D02*
X7Y327D01*
X1566Y327D02*
X1573Y327D01*
X0Y326D02*
X7Y326D01*
X1566Y326D02*
X1573Y326D01*
X0Y325D02*
X7Y325D01*
X1566Y325D02*
X1573Y325D01*
X0Y324D02*
X7Y324D01*
X1566Y324D02*
X1573Y324D01*
X0Y323D02*
X7Y323D01*
X1566Y323D02*
X1573Y323D01*
X0Y322D02*
X7Y322D01*
X1566Y322D02*
X1573Y322D01*
X0Y321D02*
X7Y321D01*
X1566Y321D02*
X1573Y321D01*
X0Y320D02*
X7Y320D01*
X1566Y320D02*
X1573Y320D01*
X0Y319D02*
X7Y319D01*
X1566Y319D02*
X1573Y319D01*
X0Y318D02*
X7Y318D01*
X1566Y318D02*
X1573Y318D01*
X0Y317D02*
X7Y317D01*
X1566Y317D02*
X1573Y317D01*
X0Y316D02*
X7Y316D01*
X1566Y316D02*
X1573Y316D01*
X0Y315D02*
X7Y315D01*
X1566Y315D02*
X1573Y315D01*
X0Y314D02*
X7Y314D01*
X1566Y314D02*
X1573Y314D01*
X0Y313D02*
X7Y313D01*
X1566Y313D02*
X1573Y313D01*
X0Y312D02*
X7Y312D01*
X1566Y312D02*
X1573Y312D01*
X0Y311D02*
X7Y311D01*
X1566Y311D02*
X1573Y311D01*
X0Y310D02*
X7Y310D01*
X1566Y310D02*
X1573Y310D01*
X0Y309D02*
X7Y309D01*
X1566Y309D02*
X1573Y309D01*
X0Y308D02*
X7Y308D01*
X1566Y308D02*
X1573Y308D01*
X0Y307D02*
X7Y307D01*
X1566Y307D02*
X1573Y307D01*
X0Y306D02*
X7Y306D01*
X1566Y306D02*
X1573Y306D01*
X0Y305D02*
X7Y305D01*
X1566Y305D02*
X1573Y305D01*
X0Y304D02*
X7Y304D01*
X1566Y304D02*
X1573Y304D01*
X0Y303D02*
X7Y303D01*
X1566Y303D02*
X1573Y303D01*
X0Y302D02*
X7Y302D01*
X1566Y302D02*
X1573Y302D01*
X0Y301D02*
X11Y301D01*
X1566Y301D02*
X1573Y301D01*
X0Y300D02*
X13Y300D01*
X1566Y300D02*
X1573Y300D01*
X0Y299D02*
X14Y299D01*
X1566Y299D02*
X1573Y299D01*
X0Y298D02*
X14Y298D01*
X1566Y298D02*
X1573Y298D01*
X0Y297D02*
X14Y297D01*
X1566Y297D02*
X1573Y297D01*
X0Y296D02*
X14Y296D01*
X1566Y296D02*
X1573Y296D01*
X0Y295D02*
X14Y295D01*
X1566Y295D02*
X1573Y295D01*
X0Y294D02*
X14Y294D01*
X1566Y294D02*
X1573Y294D01*
X0Y293D02*
X14Y293D01*
X1566Y293D02*
X1573Y293D01*
X0Y292D02*
X14Y292D01*
X1566Y292D02*
X1573Y292D01*
X0Y291D02*
X14Y291D01*
X1566Y291D02*
X1573Y291D01*
X0Y290D02*
X14Y290D01*
X1566Y290D02*
X1573Y290D01*
X0Y289D02*
X14Y289D01*
X1566Y289D02*
X1573Y289D01*
X0Y288D02*
X14Y288D01*
X1566Y288D02*
X1573Y288D01*
X0Y287D02*
X14Y287D01*
X1566Y287D02*
X1573Y287D01*
X0Y286D02*
X14Y286D01*
X1566Y286D02*
X1573Y286D01*
X0Y285D02*
X14Y285D01*
X1566Y285D02*
X1573Y285D01*
X0Y284D02*
X14Y284D01*
X1566Y284D02*
X1573Y284D01*
X0Y283D02*
X14Y283D01*
X1566Y283D02*
X1573Y283D01*
X0Y282D02*
X14Y282D01*
X1566Y282D02*
X1573Y282D01*
X0Y281D02*
X14Y281D01*
X1566Y281D02*
X1573Y281D01*
X0Y280D02*
X14Y280D01*
X1566Y280D02*
X1573Y280D01*
X0Y279D02*
X14Y279D01*
X1566Y279D02*
X1573Y279D01*
X0Y278D02*
X14Y278D01*
X1566Y278D02*
X1573Y278D01*
X0Y277D02*
X14Y277D01*
X1566Y277D02*
X1573Y277D01*
X0Y276D02*
X14Y276D01*
X1566Y276D02*
X1573Y276D01*
X0Y275D02*
X14Y275D01*
X1566Y275D02*
X1573Y275D01*
X0Y274D02*
X14Y274D01*
X1566Y274D02*
X1573Y274D01*
X0Y273D02*
X14Y273D01*
X1566Y273D02*
X1573Y273D01*
X0Y272D02*
X14Y272D01*
X1566Y272D02*
X1573Y272D01*
X0Y271D02*
X14Y271D01*
X1566Y271D02*
X1573Y271D01*
X0Y270D02*
X14Y270D01*
X1566Y270D02*
X1573Y270D01*
X0Y269D02*
X7Y269D01*
X9Y269D02*
X14Y269D01*
X1566Y269D02*
X1573Y269D01*
X0Y268D02*
X7Y268D01*
X9Y268D02*
X14Y268D01*
X1566Y268D02*
X1573Y268D01*
X0Y267D02*
X7Y267D01*
X10Y267D02*
X13Y267D01*
X1566Y267D02*
X1573Y267D01*
X0Y266D02*
X7Y266D01*
X1566Y266D02*
X1573Y266D01*
X0Y265D02*
X7Y265D01*
X1566Y265D02*
X1573Y265D01*
X0Y264D02*
X7Y264D01*
X1566Y264D02*
X1573Y264D01*
X0Y263D02*
X7Y263D01*
X1566Y263D02*
X1573Y263D01*
X0Y262D02*
X7Y262D01*
X1566Y262D02*
X1573Y262D01*
X0Y261D02*
X7Y261D01*
X1566Y261D02*
X1573Y261D01*
X0Y260D02*
X7Y260D01*
X1566Y260D02*
X1573Y260D01*
X0Y259D02*
X7Y259D01*
X1566Y259D02*
X1573Y259D01*
X0Y258D02*
X7Y258D01*
X1566Y258D02*
X1573Y258D01*
X0Y257D02*
X7Y257D01*
X1566Y257D02*
X1573Y257D01*
X0Y256D02*
X7Y256D01*
X1566Y256D02*
X1573Y256D01*
X0Y255D02*
X7Y255D01*
X1566Y255D02*
X1573Y255D01*
X0Y254D02*
X7Y254D01*
X1566Y254D02*
X1573Y254D01*
X0Y253D02*
X7Y253D01*
X1566Y253D02*
X1573Y253D01*
X0Y252D02*
X7Y252D01*
X1566Y252D02*
X1573Y252D01*
X0Y251D02*
X7Y251D01*
X1566Y251D02*
X1573Y251D01*
X0Y250D02*
X7Y250D01*
X1566Y250D02*
X1573Y250D01*
X0Y249D02*
X7Y249D01*
X1566Y249D02*
X1573Y249D01*
X0Y248D02*
X7Y248D01*
X1566Y248D02*
X1573Y248D01*
X0Y247D02*
X7Y247D01*
X1566Y247D02*
X1573Y247D01*
X0Y246D02*
X7Y246D01*
X1566Y246D02*
X1573Y246D01*
X0Y245D02*
X7Y245D01*
X1566Y245D02*
X1573Y245D01*
X0Y244D02*
X7Y244D01*
X1566Y244D02*
X1573Y244D01*
X0Y243D02*
X7Y243D01*
X1566Y243D02*
X1573Y243D01*
X0Y242D02*
X7Y242D01*
X1566Y242D02*
X1573Y242D01*
X0Y241D02*
X7Y241D01*
X1566Y241D02*
X1573Y241D01*
X0Y240D02*
X7Y240D01*
X1566Y240D02*
X1573Y240D01*
X0Y239D02*
X7Y239D01*
X1566Y239D02*
X1573Y239D01*
X0Y238D02*
X7Y238D01*
X1566Y238D02*
X1573Y238D01*
X0Y237D02*
X7Y237D01*
X1566Y237D02*
X1573Y237D01*
X0Y236D02*
X7Y236D01*
X1566Y236D02*
X1573Y236D01*
X0Y235D02*
X7Y235D01*
X1566Y235D02*
X1573Y235D01*
X0Y234D02*
X7Y234D01*
X1566Y234D02*
X1573Y234D01*
X0Y233D02*
X7Y233D01*
X1566Y233D02*
X1573Y233D01*
X0Y232D02*
X7Y232D01*
X1566Y232D02*
X1573Y232D01*
X0Y231D02*
X7Y231D01*
X1566Y231D02*
X1573Y231D01*
X0Y230D02*
X7Y230D01*
X1566Y230D02*
X1573Y230D01*
X0Y229D02*
X7Y229D01*
X1566Y229D02*
X1573Y229D01*
X0Y228D02*
X7Y228D01*
X1566Y228D02*
X1573Y228D01*
X0Y227D02*
X7Y227D01*
X1566Y227D02*
X1573Y227D01*
X0Y226D02*
X7Y226D01*
X1566Y226D02*
X1573Y226D01*
X0Y225D02*
X7Y225D01*
X1566Y225D02*
X1573Y225D01*
X0Y224D02*
X7Y224D01*
X1566Y224D02*
X1573Y224D01*
X0Y223D02*
X12Y223D01*
X1566Y223D02*
X1573Y223D01*
X0Y222D02*
X13Y222D01*
X1566Y222D02*
X1573Y222D01*
X0Y221D02*
X14Y221D01*
X1566Y221D02*
X1573Y221D01*
X0Y220D02*
X14Y220D01*
X1566Y220D02*
X1573Y220D01*
X0Y219D02*
X14Y219D01*
X1566Y219D02*
X1573Y219D01*
X0Y218D02*
X14Y218D01*
X1566Y218D02*
X1573Y218D01*
X0Y217D02*
X13Y217D01*
X1566Y217D02*
X1573Y217D01*
X0Y216D02*
X7Y216D01*
X1566Y216D02*
X1573Y216D01*
X0Y215D02*
X7Y215D01*
X1566Y215D02*
X1573Y215D01*
X0Y214D02*
X7Y214D01*
X1566Y214D02*
X1573Y214D01*
X0Y213D02*
X7Y213D01*
X1566Y213D02*
X1573Y213D01*
X0Y212D02*
X7Y212D01*
X1566Y212D02*
X1573Y212D01*
X0Y211D02*
X7Y211D01*
X1566Y211D02*
X1573Y211D01*
X0Y210D02*
X7Y210D01*
X1566Y210D02*
X1573Y210D01*
X0Y209D02*
X7Y209D01*
X1566Y209D02*
X1573Y209D01*
X0Y208D02*
X7Y208D01*
X1566Y208D02*
X1573Y208D01*
X0Y207D02*
X7Y207D01*
X1566Y207D02*
X1573Y207D01*
X0Y206D02*
X7Y206D01*
X1566Y206D02*
X1573Y206D01*
X0Y205D02*
X7Y205D01*
X1566Y205D02*
X1573Y205D01*
X0Y204D02*
X7Y204D01*
X1566Y204D02*
X1573Y204D01*
X0Y203D02*
X7Y203D01*
X1566Y203D02*
X1573Y203D01*
X0Y202D02*
X7Y202D01*
X1566Y202D02*
X1573Y202D01*
X0Y201D02*
X7Y201D01*
X1566Y201D02*
X1573Y201D01*
X0Y200D02*
X7Y200D01*
X1566Y200D02*
X1573Y200D01*
X0Y199D02*
X7Y199D01*
X1566Y199D02*
X1573Y199D01*
X0Y198D02*
X7Y198D01*
X1566Y198D02*
X1573Y198D01*
X0Y197D02*
X7Y197D01*
X1566Y197D02*
X1573Y197D01*
X0Y196D02*
X7Y196D01*
X1566Y196D02*
X1573Y196D01*
X0Y195D02*
X7Y195D01*
X1566Y195D02*
X1573Y195D01*
X0Y194D02*
X7Y194D01*
X1566Y194D02*
X1573Y194D01*
X0Y193D02*
X7Y193D01*
X1566Y193D02*
X1573Y193D01*
X0Y192D02*
X7Y192D01*
X1566Y192D02*
X1573Y192D01*
X0Y191D02*
X7Y191D01*
X1566Y191D02*
X1573Y191D01*
X0Y190D02*
X7Y190D01*
X1566Y190D02*
X1573Y190D01*
X0Y189D02*
X7Y189D01*
X1526Y189D02*
X1527Y189D01*
X1566Y189D02*
X1573Y189D01*
X0Y188D02*
X7Y188D01*
X1525Y188D02*
X1528Y188D01*
X1566Y188D02*
X1573Y188D01*
X0Y187D02*
X7Y187D01*
X1524Y187D02*
X1529Y187D01*
X1566Y187D02*
X1573Y187D01*
X0Y186D02*
X7Y186D01*
X1524Y186D02*
X1530Y186D01*
X1566Y186D02*
X1573Y186D01*
X0Y185D02*
X7Y185D01*
X1525Y185D02*
X1531Y185D01*
X1566Y185D02*
X1573Y185D01*
X0Y184D02*
X7Y184D01*
X1526Y184D02*
X1532Y184D01*
X1566Y184D02*
X1573Y184D01*
X0Y183D02*
X7Y183D01*
X1527Y183D02*
X1533Y183D01*
X1566Y183D02*
X1573Y183D01*
X0Y182D02*
X7Y182D01*
X1566Y182D02*
X1573Y182D01*
X0Y181D02*
X7Y181D01*
X1566Y181D02*
X1573Y181D01*
X0Y180D02*
X7Y180D01*
X1566Y180D02*
X1573Y180D01*
X0Y179D02*
X7Y179D01*
X1566Y179D02*
X1573Y179D01*
X0Y178D02*
X7Y178D01*
X1566Y178D02*
X1573Y178D01*
X0Y177D02*
X7Y177D01*
X1566Y177D02*
X1573Y177D01*
X0Y176D02*
X7Y176D01*
X1566Y176D02*
X1573Y176D01*
X0Y175D02*
X7Y175D01*
X1566Y175D02*
X1573Y175D01*
X0Y174D02*
X7Y174D01*
X1566Y174D02*
X1573Y174D01*
X0Y173D02*
X7Y173D01*
X1566Y173D02*
X1573Y173D01*
X0Y172D02*
X7Y172D01*
X1566Y172D02*
X1573Y172D01*
X0Y171D02*
X7Y171D01*
X1566Y171D02*
X1573Y171D01*
X0Y170D02*
X7Y170D01*
X1566Y170D02*
X1573Y170D01*
X0Y169D02*
X7Y169D01*
X1566Y169D02*
X1573Y169D01*
X0Y168D02*
X7Y168D01*
X1566Y168D02*
X1573Y168D01*
X0Y167D02*
X7Y167D01*
X1566Y167D02*
X1573Y167D01*
X0Y166D02*
X7Y166D01*
X1566Y166D02*
X1573Y166D01*
X0Y165D02*
X7Y165D01*
X1566Y165D02*
X1573Y165D01*
X0Y164D02*
X7Y164D01*
X1566Y164D02*
X1573Y164D01*
X0Y163D02*
X7Y163D01*
X1566Y163D02*
X1573Y163D01*
X0Y162D02*
X7Y162D01*
X1554Y162D02*
X1554Y162D01*
X1566Y162D02*
X1573Y162D01*
X0Y161D02*
X7Y161D01*
X1554Y161D02*
X1555Y161D01*
X1566Y161D02*
X1573Y161D01*
X0Y160D02*
X7Y160D01*
X1554Y160D02*
X1556Y160D01*
X1566Y160D02*
X1573Y160D01*
X0Y159D02*
X7Y159D01*
X1554Y159D02*
X1557Y159D01*
X1566Y159D02*
X1573Y159D01*
X0Y158D02*
X7Y158D01*
X1554Y158D02*
X1558Y158D01*
X1566Y158D02*
X1573Y158D01*
X0Y157D02*
X7Y157D01*
X1554Y157D02*
X1559Y157D01*
X1566Y157D02*
X1573Y157D01*
X0Y156D02*
X7Y156D01*
X1554Y156D02*
X1560Y156D01*
X1566Y156D02*
X1573Y156D01*
X0Y155D02*
X7Y155D01*
X1555Y155D02*
X1561Y155D01*
X1566Y155D02*
X1573Y155D01*
X0Y154D02*
X7Y154D01*
X1556Y154D02*
X1560Y154D01*
X1566Y154D02*
X1573Y154D01*
X0Y153D02*
X7Y153D01*
X1557Y153D02*
X1559Y153D01*
X1566Y153D02*
X1573Y153D01*
X0Y152D02*
X7Y152D01*
X1558Y152D02*
X1558Y152D01*
X1566Y152D02*
X1573Y152D01*
X0Y151D02*
X7Y151D01*
X1566Y151D02*
X1573Y151D01*
X0Y150D02*
X7Y150D01*
X1566Y150D02*
X1573Y150D01*
X0Y149D02*
X7Y149D01*
X1566Y149D02*
X1573Y149D01*
X0Y148D02*
X7Y148D01*
X1566Y148D02*
X1573Y148D01*
X0Y147D02*
X7Y147D01*
X1566Y147D02*
X1573Y147D01*
X0Y146D02*
X7Y146D01*
X1566Y146D02*
X1573Y146D01*
X0Y145D02*
X7Y145D01*
X1566Y145D02*
X1573Y145D01*
X0Y144D02*
X7Y144D01*
X1566Y144D02*
X1573Y144D01*
X0Y143D02*
X7Y143D01*
X1566Y143D02*
X1573Y143D01*
X0Y142D02*
X7Y142D01*
X1566Y142D02*
X1573Y142D01*
X0Y141D02*
X7Y141D01*
X1566Y141D02*
X1573Y141D01*
X0Y140D02*
X7Y140D01*
X1566Y140D02*
X1573Y140D01*
X0Y139D02*
X7Y139D01*
X1566Y139D02*
X1573Y139D01*
X0Y138D02*
X7Y138D01*
X1566Y138D02*
X1573Y138D01*
X0Y137D02*
X7Y137D01*
X1566Y137D02*
X1573Y137D01*
X0Y136D02*
X7Y136D01*
X1566Y136D02*
X1573Y136D01*
X0Y135D02*
X7Y135D01*
X1566Y135D02*
X1573Y135D01*
X0Y134D02*
X7Y134D01*
X1566Y134D02*
X1573Y134D01*
X0Y133D02*
X7Y133D01*
X1566Y133D02*
X1573Y133D01*
X0Y132D02*
X7Y132D01*
X1566Y132D02*
X1573Y132D01*
X0Y131D02*
X7Y131D01*
X1566Y131D02*
X1573Y131D01*
X0Y130D02*
X7Y130D01*
X1566Y130D02*
X1573Y130D01*
X0Y129D02*
X7Y129D01*
X1566Y129D02*
X1573Y129D01*
X0Y128D02*
X7Y128D01*
X1566Y128D02*
X1573Y128D01*
X0Y127D02*
X7Y127D01*
X1566Y127D02*
X1573Y127D01*
X0Y126D02*
X7Y126D01*
X1566Y126D02*
X1573Y126D01*
X0Y125D02*
X7Y125D01*
X1566Y125D02*
X1573Y125D01*
X0Y124D02*
X7Y124D01*
X62Y124D02*
X63Y124D01*
X1566Y124D02*
X1573Y124D01*
X0Y123D02*
X7Y123D01*
X61Y123D02*
X64Y123D01*
X1566Y123D02*
X1573Y123D01*
X0Y122D02*
X7Y122D01*
X60Y122D02*
X65Y122D01*
X1566Y122D02*
X1573Y122D01*
X0Y121D02*
X7Y121D01*
X60Y121D02*
X66Y121D01*
X1566Y121D02*
X1573Y121D01*
X0Y120D02*
X7Y120D01*
X61Y120D02*
X66Y120D01*
X1566Y120D02*
X1573Y120D01*
X0Y119D02*
X7Y119D01*
X62Y119D02*
X66Y119D01*
X1566Y119D02*
X1573Y119D01*
X0Y118D02*
X7Y118D01*
X63Y118D02*
X66Y118D01*
X1566Y118D02*
X1573Y118D01*
X0Y117D02*
X7Y117D01*
X64Y117D02*
X66Y117D01*
X1566Y117D02*
X1573Y117D01*
X0Y116D02*
X7Y116D01*
X65Y116D02*
X66Y116D01*
X1566Y116D02*
X1573Y116D01*
X0Y115D02*
X7Y115D01*
X66Y115D02*
X66Y115D01*
X1566Y115D02*
X1573Y115D01*
X0Y114D02*
X7Y114D01*
X1566Y114D02*
X1573Y114D01*
X0Y113D02*
X7Y113D01*
X1566Y113D02*
X1573Y113D01*
X0Y112D02*
X7Y112D01*
X1566Y112D02*
X1573Y112D01*
X0Y111D02*
X7Y111D01*
X1566Y111D02*
X1573Y111D01*
X0Y110D02*
X7Y110D01*
X1566Y110D02*
X1573Y110D01*
X0Y109D02*
X7Y109D01*
X1566Y109D02*
X1573Y109D01*
X0Y108D02*
X7Y108D01*
X1566Y108D02*
X1573Y108D01*
X0Y107D02*
X7Y107D01*
X1566Y107D02*
X1573Y107D01*
X0Y106D02*
X7Y106D01*
X1566Y106D02*
X1573Y106D01*
X0Y105D02*
X7Y105D01*
X1566Y105D02*
X1573Y105D01*
X0Y104D02*
X7Y104D01*
X1566Y104D02*
X1573Y104D01*
X0Y103D02*
X7Y103D01*
X1566Y103D02*
X1573Y103D01*
X0Y102D02*
X7Y102D01*
X1566Y102D02*
X1573Y102D01*
X0Y101D02*
X7Y101D01*
X1566Y101D02*
X1573Y101D01*
X0Y100D02*
X7Y100D01*
X1566Y100D02*
X1573Y100D01*
X0Y99D02*
X7Y99D01*
X1566Y99D02*
X1573Y99D01*
X0Y98D02*
X7Y98D01*
X1566Y98D02*
X1573Y98D01*
X0Y97D02*
X7Y97D01*
X1566Y97D02*
X1573Y97D01*
X0Y96D02*
X7Y96D01*
X1566Y96D02*
X1573Y96D01*
X0Y95D02*
X7Y95D01*
X1566Y95D02*
X1573Y95D01*
X0Y94D02*
X7Y94D01*
X87Y94D02*
X93Y94D01*
X1566Y94D02*
X1573Y94D01*
X0Y93D02*
X7Y93D01*
X88Y93D02*
X94Y93D01*
X1566Y93D02*
X1573Y93D01*
X0Y92D02*
X7Y92D01*
X89Y92D02*
X95Y92D01*
X1566Y92D02*
X1573Y92D01*
X0Y91D02*
X7Y91D01*
X90Y91D02*
X96Y91D01*
X1566Y91D02*
X1573Y91D01*
X0Y90D02*
X7Y90D01*
X91Y90D02*
X97Y90D01*
X1566Y90D02*
X1573Y90D01*
X0Y89D02*
X7Y89D01*
X92Y89D02*
X96Y89D01*
X1566Y89D02*
X1573Y89D01*
X0Y88D02*
X7Y88D01*
X93Y88D02*
X95Y88D01*
X1566Y88D02*
X1573Y88D01*
X0Y87D02*
X7Y87D01*
X1566Y87D02*
X1573Y87D01*
X0Y86D02*
X7Y86D01*
X1566Y86D02*
X1573Y86D01*
X0Y85D02*
X7Y85D01*
X1566Y85D02*
X1573Y85D01*
X0Y84D02*
X7Y84D01*
X1566Y84D02*
X1573Y84D01*
X0Y83D02*
X7Y83D01*
X1566Y83D02*
X1573Y83D01*
X0Y82D02*
X7Y82D01*
X1566Y82D02*
X1573Y82D01*
X0Y81D02*
X7Y81D01*
X1566Y81D02*
X1573Y81D01*
X0Y80D02*
X7Y80D01*
X1566Y80D02*
X1573Y80D01*
X0Y79D02*
X7Y79D01*
X1566Y79D02*
X1573Y79D01*
X0Y78D02*
X7Y78D01*
X1566Y78D02*
X1573Y78D01*
X0Y77D02*
X7Y77D01*
X1566Y77D02*
X1573Y77D01*
X0Y76D02*
X7Y76D01*
X1566Y76D02*
X1573Y76D01*
X0Y75D02*
X7Y75D01*
X1566Y75D02*
X1573Y75D01*
X0Y74D02*
X7Y74D01*
X1566Y74D02*
X1573Y74D01*
X0Y73D02*
X7Y73D01*
X1566Y73D02*
X1573Y73D01*
X0Y72D02*
X7Y72D01*
X1566Y72D02*
X1573Y72D01*
X0Y71D02*
X7Y71D01*
X1566Y71D02*
X1573Y71D01*
X0Y70D02*
X7Y70D01*
X1566Y70D02*
X1573Y70D01*
X0Y69D02*
X7Y69D01*
X1566Y69D02*
X1573Y69D01*
X0Y68D02*
X7Y68D01*
X1566Y68D02*
X1573Y68D01*
X0Y67D02*
X7Y67D01*
X1566Y67D02*
X1573Y67D01*
X0Y66D02*
X7Y66D01*
X1566Y66D02*
X1573Y66D01*
X0Y65D02*
X7Y65D01*
X1566Y65D02*
X1573Y65D01*
X0Y64D02*
X7Y64D01*
X1566Y64D02*
X1573Y64D01*
X0Y63D02*
X7Y63D01*
X1566Y63D02*
X1573Y63D01*
X0Y62D02*
X7Y62D01*
X1566Y62D02*
X1573Y62D01*
X0Y61D02*
X7Y61D01*
X1566Y61D02*
X1573Y61D01*
X0Y60D02*
X7Y60D01*
X1566Y60D02*
X1573Y60D01*
X0Y59D02*
X7Y59D01*
X1566Y59D02*
X1573Y59D01*
X0Y58D02*
X7Y58D01*
X1566Y58D02*
X1573Y58D01*
X0Y57D02*
X7Y57D01*
X1566Y57D02*
X1573Y57D01*
X0Y56D02*
X7Y56D01*
X1566Y56D02*
X1573Y56D01*
X0Y55D02*
X7Y55D01*
X1566Y55D02*
X1573Y55D01*
X0Y54D02*
X7Y54D01*
X1566Y54D02*
X1573Y54D01*
X0Y53D02*
X7Y53D01*
X1566Y53D02*
X1573Y53D01*
X0Y52D02*
X7Y52D01*
X1566Y52D02*
X1573Y52D01*
X0Y51D02*
X7Y51D01*
X1566Y51D02*
X1573Y51D01*
X0Y50D02*
X7Y50D01*
X1566Y50D02*
X1573Y50D01*
X0Y49D02*
X7Y49D01*
X1566Y49D02*
X1573Y49D01*
X0Y48D02*
X7Y48D01*
X1566Y48D02*
X1573Y48D01*
X0Y47D02*
X7Y47D01*
X1566Y47D02*
X1573Y47D01*
X0Y46D02*
X7Y46D01*
X1566Y46D02*
X1573Y46D01*
X0Y45D02*
X7Y45D01*
X1566Y45D02*
X1573Y45D01*
X0Y44D02*
X7Y44D01*
X1566Y44D02*
X1573Y44D01*
X0Y43D02*
X7Y43D01*
X1566Y43D02*
X1573Y43D01*
X0Y42D02*
X7Y42D01*
X1566Y42D02*
X1573Y42D01*
X0Y41D02*
X7Y41D01*
X1566Y41D02*
X1573Y41D01*
X0Y40D02*
X7Y40D01*
X1566Y40D02*
X1573Y40D01*
X0Y39D02*
X7Y39D01*
X1566Y39D02*
X1573Y39D01*
X0Y38D02*
X7Y38D01*
X1566Y38D02*
X1573Y38D01*
X0Y37D02*
X7Y37D01*
X1566Y37D02*
X1573Y37D01*
X0Y36D02*
X7Y36D01*
X1566Y36D02*
X1573Y36D01*
X0Y35D02*
X7Y35D01*
X1566Y35D02*
X1573Y35D01*
X0Y34D02*
X7Y34D01*
X1566Y34D02*
X1573Y34D01*
X0Y33D02*
X7Y33D01*
X1566Y33D02*
X1573Y33D01*
X0Y32D02*
X7Y32D01*
X1566Y32D02*
X1573Y32D01*
X0Y31D02*
X7Y31D01*
X1566Y31D02*
X1573Y31D01*
X0Y30D02*
X7Y30D01*
X1566Y30D02*
X1573Y30D01*
X0Y29D02*
X7Y29D01*
X1566Y29D02*
X1573Y29D01*
X0Y28D02*
X7Y28D01*
X1566Y28D02*
X1573Y28D01*
X0Y27D02*
X7Y27D01*
X1566Y27D02*
X1573Y27D01*
X0Y26D02*
X7Y26D01*
X1566Y26D02*
X1573Y26D01*
X0Y25D02*
X7Y25D01*
X1566Y25D02*
X1573Y25D01*
X0Y24D02*
X7Y24D01*
X1566Y24D02*
X1573Y24D01*
X0Y23D02*
X7Y23D01*
X1566Y23D02*
X1573Y23D01*
X0Y22D02*
X7Y22D01*
X1566Y22D02*
X1573Y22D01*
X0Y21D02*
X7Y21D01*
X1566Y21D02*
X1573Y21D01*
X0Y20D02*
X7Y20D01*
X1566Y20D02*
X1573Y20D01*
X0Y19D02*
X7Y19D01*
X1566Y19D02*
X1573Y19D01*
X0Y18D02*
X7Y18D01*
X1566Y18D02*
X1573Y18D01*
X0Y17D02*
X7Y17D01*
X1566Y17D02*
X1573Y17D01*
X0Y16D02*
X7Y16D01*
X1566Y16D02*
X1573Y16D01*
X0Y15D02*
X7Y15D01*
X1566Y15D02*
X1573Y15D01*
X0Y14D02*
X7Y14D01*
X1566Y14D02*
X1573Y14D01*
X0Y13D02*
X7Y13D01*
X1566Y13D02*
X1573Y13D01*
X0Y12D02*
X7Y12D01*
X1566Y12D02*
X1573Y12D01*
X0Y11D02*
X7Y11D01*
X1566Y11D02*
X1573Y11D01*
X0Y10D02*
X7Y10D01*
X1566Y10D02*
X1573Y10D01*
X0Y9D02*
X1573Y9D01*
X0Y8D02*
X1573Y8D01*
X0Y7D02*
X1573Y7D01*
X0Y6D02*
X1573Y6D01*
X0Y5D02*
X1573Y5D01*
X0Y4D02*
X1573Y4D01*
X0Y3D02*
X1573Y3D01*
X0Y2D02*
X1573Y2D01*
D02*
G04 End of Silk1*
M02*