G04 MADE WITH FRITZING*
G04 WWW.FRITZING.ORG*
G04 DOUBLE SIDED*
G04 HOLES PLATED*
G04 CONTOUR ON CENTER OF CONTOUR VECTOR*
%ASAXBY*%
%FSLAX23Y23*%
%MOIN*%
%OFA0B0*%
%SFA1.0B1.0*%
%ADD10C,0.075000*%
%ADD11C,0.039370*%
%ADD12C,0.079370*%
%ADD13C,0.078000*%
%ADD14C,0.065000*%
%ADD15R,0.078000X0.078000*%
%ADD16C,0.024000*%
%LNCOPPER1*%
G90*
G70*
G54D10*
X539Y268D03*
X839Y268D03*
G54D11*
X1139Y168D03*
G54D10*
X939Y68D03*
X539Y68D03*
X939Y68D03*
X539Y68D03*
G54D11*
X339Y668D03*
G54D12*
X411Y1337D03*
X411Y1237D03*
X411Y1137D03*
X411Y1037D03*
X411Y937D03*
X411Y837D03*
X411Y737D03*
X411Y637D03*
X411Y537D03*
X411Y437D03*
X411Y337D03*
X411Y237D03*
X1111Y1337D03*
X1111Y1237D03*
X1111Y1137D03*
X1111Y1037D03*
X1111Y937D03*
X1111Y837D03*
X1111Y737D03*
X1111Y637D03*
X1111Y537D03*
X1111Y437D03*
X1111Y337D03*
X1111Y237D03*
G54D13*
X111Y137D03*
X211Y137D03*
X211Y1237D03*
X211Y1337D03*
X211Y1437D03*
G54D12*
X139Y268D03*
X139Y368D03*
X139Y468D03*
X139Y568D03*
X139Y668D03*
X139Y768D03*
X139Y868D03*
X139Y968D03*
X139Y1068D03*
G54D13*
X1439Y468D03*
X1339Y468D03*
X1239Y468D03*
X1439Y668D03*
X1339Y668D03*
X1239Y668D03*
X1439Y868D03*
X1339Y868D03*
X1239Y868D03*
G54D14*
X1239Y268D03*
X1318Y268D03*
X1397Y268D03*
X1476Y268D03*
G54D13*
X711Y1137D03*
X811Y1137D03*
X711Y1137D03*
X811Y1137D03*
G54D12*
X711Y937D03*
X811Y937D03*
X711Y937D03*
X811Y937D03*
G54D13*
X1411Y1437D03*
X1311Y1437D03*
G54D15*
X111Y137D03*
X1439Y468D03*
X1439Y668D03*
X1439Y868D03*
X1411Y1437D03*
G54D16*
X166Y684D02*
X385Y821D01*
D02*
X385Y921D02*
X166Y784D01*
D02*
X166Y884D02*
X385Y1021D01*
D02*
X385Y1121D02*
X166Y984D01*
D02*
X139Y1368D02*
X139Y1098D01*
D02*
X189Y1416D02*
X139Y1368D01*
D02*
X840Y468D02*
X840Y296D01*
D02*
X540Y768D02*
X840Y468D01*
D02*
X540Y1369D02*
X540Y768D01*
D02*
X1080Y1339D02*
X540Y1369D01*
D02*
X140Y68D02*
X511Y68D01*
D02*
X123Y109D02*
X140Y68D01*
D02*
X540Y667D02*
X540Y567D01*
D02*
X540Y567D02*
X539Y296D01*
D02*
X438Y722D02*
X540Y667D01*
D02*
X380Y1237D02*
X241Y1237D01*
D02*
X440Y1468D02*
X241Y1441D01*
D02*
X1039Y1468D02*
X440Y1468D01*
D02*
X1096Y1364D02*
X1039Y1468D01*
D02*
X340Y567D02*
X383Y549D01*
D02*
X340Y649D02*
X340Y567D01*
D02*
X1239Y168D02*
X1304Y249D01*
D02*
X1158Y168D02*
X1239Y168D01*
D02*
X1141Y244D02*
X1216Y262D01*
D02*
X1438Y1068D02*
X1439Y898D01*
D02*
X1239Y767D02*
X1239Y698D01*
D02*
X1239Y567D02*
X1239Y498D01*
D02*
X1141Y844D02*
X1210Y861D01*
D02*
X1141Y744D02*
X1239Y767D01*
D02*
X1138Y622D02*
X1239Y567D01*
D02*
X811Y968D02*
X811Y1107D01*
D02*
X167Y554D02*
X383Y450D01*
D02*
X167Y454D02*
X383Y350D01*
D02*
X383Y250D02*
X167Y354D01*
D02*
X811Y1237D02*
X811Y1167D01*
D02*
X1012Y1237D02*
X811Y1237D01*
D02*
X1089Y1315D02*
X1012Y1237D01*
D02*
X938Y569D02*
X1081Y543D01*
D02*
X639Y868D02*
X739Y768D01*
D02*
X639Y967D02*
X639Y868D01*
D02*
X639Y1068D02*
X639Y967D01*
D02*
X739Y768D02*
X938Y569D01*
D02*
X689Y1116D02*
X639Y1068D01*
D02*
X1438Y1068D02*
X1413Y1407D01*
D02*
X1142Y1040D02*
X1438Y1068D01*
D02*
X411Y1237D02*
X411Y1237D01*
D02*
X1012Y837D02*
X1111Y937D01*
D02*
X911Y837D02*
X1012Y837D01*
D02*
X811Y837D02*
X910Y837D01*
D02*
X733Y915D02*
X811Y837D01*
G04 End of Copper1*
M02*