; NON-PLATED HOLES START AT T1
; THROUGH (PLATED) HOLES START AT T100
M48
INCH
T100C0.025000
T101C0.038000
T102C0.039370
T103C0.015748
%
T100
X013111Y006582
X013111Y007370
X013111Y008156
X013111Y008944
T101
X014111Y003370
X013111Y014370
X002111Y012370
X001111Y001370
X015111Y001370
X013111Y001370
X009111Y001370
X014111Y005370
X002111Y014370
X015111Y003370
X014111Y014370
X013111Y003370
X002111Y001370
X008111Y011370
X014111Y001370
X002111Y013370
X007111Y011370
X015111Y005370
X008111Y001370
X013111Y005370
X007111Y001370
T102
X011111Y010370
X001111Y005370
X004111Y013370
X011111Y002370
X004111Y005370
X011111Y007370
X001111Y003370
X004111Y011370
X011111Y013370
X004111Y003370
X001111Y008370
X011111Y005370
X004111Y008370
X011111Y011370
X001111Y006370
X011111Y003370
X004111Y006370
X011111Y008370
X001111Y004370
X004111Y012370
X004111Y004370
X001111Y009370
X011111Y006370
X008111Y009370
X004111Y009370
X001111Y010370
X007111Y009370
X004111Y010370
X011111Y012370
X004111Y002370
X001111Y007370
X011111Y004370
X004111Y007370
X011111Y009370
T103
X005394Y012675
T00
M30
