G04 MADE WITH FRITZING*
G04 WWW.FRITZING.ORG*
G04 DOUBLE SIDED*
G04 HOLES PLATED*
G04 CONTOUR ON CENTER OF CONTOUR VECTOR*
%ASAXBY*%
%FSLAX23Y23*%
%MOIN*%
%OFA0B0*%
%SFA1.0B1.0*%
%ADD10C,0.079370*%
%ADD11C,0.078000*%
%ADD12C,0.065000*%
%ADD13R,0.078000X0.078000*%
%ADD14C,0.024000*%
%LNCOPPER1*%
G90*
G70*
G54D10*
X1337Y1164D03*
X1237Y1164D03*
X1137Y1164D03*
X1037Y1164D03*
X937Y1164D03*
X837Y1164D03*
X737Y1164D03*
X637Y1164D03*
X537Y1164D03*
X437Y1164D03*
X337Y1164D03*
X237Y1164D03*
X1337Y464D03*
X1237Y464D03*
X1137Y464D03*
X1037Y464D03*
X937Y464D03*
X837Y464D03*
X737Y464D03*
X637Y464D03*
X537Y464D03*
X437Y464D03*
X337Y464D03*
X237Y464D03*
G54D11*
X137Y1464D03*
X137Y1364D03*
X1237Y1364D03*
X1337Y1364D03*
X1437Y1364D03*
G54D10*
X337Y1464D03*
X437Y1464D03*
X537Y1464D03*
X637Y1464D03*
X737Y1464D03*
G54D11*
X137Y64D03*
X137Y164D03*
X137Y264D03*
X337Y64D03*
X337Y164D03*
X337Y264D03*
X537Y64D03*
X537Y164D03*
X537Y264D03*
X137Y864D03*
X137Y764D03*
X137Y664D03*
G54D12*
X658Y264D03*
X737Y264D03*
X816Y264D03*
X894Y264D03*
G54D11*
X1137Y864D03*
X1137Y764D03*
X1137Y864D03*
X1137Y764D03*
G54D10*
X937Y864D03*
X937Y764D03*
X937Y864D03*
X937Y764D03*
G54D11*
X1437Y164D03*
X1437Y264D03*
G54D13*
X137Y1464D03*
X137Y64D03*
X337Y64D03*
X537Y64D03*
X1437Y164D03*
G54D14*
X224Y1191D02*
X151Y1336D01*
D02*
X1237Y1194D02*
X1237Y1333D01*
D02*
X1437Y494D02*
X1437Y1364D01*
D02*
X1337Y464D02*
X1406Y464D01*
D02*
X437Y1194D02*
X437Y1433D01*
D02*
X537Y1194D02*
X537Y1433D01*
D02*
X637Y1194D02*
X637Y1433D01*
D02*
X151Y291D02*
X224Y437D01*
D02*
X337Y434D02*
X337Y294D01*
D02*
X523Y291D02*
X450Y437D01*
D02*
X354Y738D02*
X537Y464D01*
D02*
X137Y764D02*
X307Y764D01*
D02*
X640Y440D02*
X655Y294D01*
D02*
X746Y442D02*
X804Y292D01*
D02*
X844Y441D02*
X886Y293D01*
D02*
X737Y87D02*
X737Y264D01*
D02*
X537Y64D02*
X707Y64D01*
D02*
X1137Y594D02*
X1137Y764D01*
D02*
X1037Y464D02*
X1115Y542D01*
D02*
X837Y564D02*
X737Y664D01*
D02*
X737Y664D02*
X737Y864D01*
D02*
X768Y864D02*
X937Y864D01*
D02*
X937Y464D02*
X859Y542D01*
D02*
X947Y734D02*
X1027Y493D01*
D02*
X967Y864D02*
X1106Y864D01*
D02*
X737Y1094D02*
X737Y1164D01*
D02*
X837Y964D02*
X737Y1064D01*
D02*
X1137Y964D02*
X837Y964D01*
D02*
X1137Y864D02*
X1137Y934D01*
G04 End of Copper1*
M02*