G04 MADE WITH FRITZING*
G04 WWW.FRITZING.ORG*
G04 DOUBLE SIDED*
G04 HOLES PLATED*
G04 CONTOUR ON CENTER OF CONTOUR VECTOR*
%ASAXBY*%
%FSLAX23Y23*%
%MOIN*%
%OFA0B0*%
%SFA1.0B1.0*%
%ADD10C,0.089370*%
%ADD11C,0.088000*%
%ADD12C,0.075000*%
%ADD13C,0.049370*%
%ADD14R,0.088000X0.088000*%
%LNMASK0*%
G90*
G70*
G54D10*
X411Y1337D03*
X411Y1237D03*
X411Y1137D03*
X411Y1037D03*
X411Y937D03*
X411Y837D03*
X411Y737D03*
X411Y637D03*
X411Y537D03*
X411Y437D03*
X411Y337D03*
X411Y237D03*
X1111Y1337D03*
X1111Y1237D03*
X1111Y1137D03*
X1111Y1037D03*
X1111Y937D03*
X1111Y837D03*
X1111Y737D03*
X1111Y637D03*
X1111Y537D03*
X1111Y437D03*
X1111Y337D03*
X1111Y237D03*
G54D11*
X111Y137D03*
X211Y137D03*
X211Y1237D03*
X211Y1337D03*
X211Y1437D03*
G54D10*
X111Y337D03*
X111Y437D03*
X111Y537D03*
X111Y637D03*
X111Y737D03*
X111Y837D03*
X111Y937D03*
X111Y1037D03*
G54D11*
X1511Y137D03*
X1411Y137D03*
X1311Y137D03*
X1511Y337D03*
X1411Y337D03*
X1311Y337D03*
X1511Y537D03*
X1411Y537D03*
X1311Y537D03*
X711Y137D03*
X811Y137D03*
X911Y137D03*
G54D12*
X1311Y658D03*
X1311Y737D03*
X1311Y816D03*
X1311Y894D03*
G54D11*
X711Y1137D03*
X811Y1137D03*
X711Y1137D03*
X811Y1137D03*
G54D10*
X711Y937D03*
X811Y937D03*
X711Y937D03*
X811Y937D03*
G54D11*
X1411Y1437D03*
X1311Y1437D03*
G54D13*
X539Y1268D03*
G54D14*
X111Y137D03*
X1511Y137D03*
X1511Y337D03*
X1511Y537D03*
X1411Y1437D03*
G04 End of Mask0*
M02*