G04 MADE WITH FRITZING*
G04 WWW.FRITZING.ORG*
G04 DOUBLE SIDED*
G04 HOLES PLATED*
G04 CONTOUR ON CENTER OF CONTOUR VECTOR*
%ASAXBY*%
%FSLAX23Y23*%
%MOIN*%
%OFA0B0*%
%SFA1.0B1.0*%
%ADD10C,0.089370*%
%ADD11C,0.088000*%
%ADD12C,0.075000*%
%ADD13R,0.088000X0.088000*%
%ADD14R,0.135984X0.080866*%
%LNMASK0*%
G90*
G70*
G54D10*
X1337Y1164D03*
X1237Y1164D03*
X1137Y1164D03*
X1037Y1164D03*
X937Y1164D03*
X837Y1164D03*
X737Y1164D03*
X637Y1164D03*
X537Y1164D03*
X437Y1164D03*
X337Y1164D03*
X237Y1164D03*
X1337Y464D03*
X1237Y464D03*
X1137Y464D03*
X1037Y464D03*
X937Y464D03*
X837Y464D03*
X737Y464D03*
X637Y464D03*
X537Y464D03*
X437Y464D03*
X337Y464D03*
X237Y464D03*
G54D11*
X137Y1464D03*
X137Y1364D03*
X1237Y1364D03*
X1337Y1364D03*
X1437Y1364D03*
G54D10*
X337Y1464D03*
X437Y1464D03*
X537Y1464D03*
X637Y1464D03*
X737Y1464D03*
G54D11*
X137Y64D03*
X137Y164D03*
X137Y264D03*
X337Y64D03*
X337Y164D03*
X337Y264D03*
X537Y64D03*
X537Y164D03*
X537Y264D03*
X137Y864D03*
X137Y764D03*
X137Y664D03*
G54D12*
X658Y264D03*
X737Y264D03*
X816Y264D03*
X894Y264D03*
G54D11*
X1137Y864D03*
X1137Y764D03*
X1137Y864D03*
X1137Y764D03*
G54D10*
X937Y864D03*
X937Y764D03*
X937Y864D03*
X937Y764D03*
G54D11*
X1437Y164D03*
X1437Y264D03*
G54D13*
X137Y1464D03*
X137Y64D03*
X337Y64D03*
X537Y64D03*
G54D14*
X537Y643D03*
X537Y864D03*
G54D13*
X1437Y164D03*
G04 End of Mask0*
M02*