; NON-PLATED HOLES START AT T1
; THROUGH (PLATED) HOLES START AT T100
M48
INCH
T100C0.025000
T101C0.039370
T102C0.038000
T103C0.015748
T104C0.035000
%
T100
X013968Y002675
X013182Y002675
X014756Y002675
X012394Y002675
T101
X011111Y005370
X004111Y008370
X001394Y003675
X011111Y011370
X001394Y008675
X011111Y003370
X004111Y006370
X011111Y008370
X004111Y012370
X001394Y006675
X004111Y004370
X011111Y006370
X004111Y009370
X007111Y009370
X004111Y010370
X001394Y004675
X008111Y009370
X011111Y012370
X004111Y002370
X001394Y009675
X011111Y004370
X004111Y007370
X011111Y009370
X001394Y010675
X001394Y002675
X011111Y010370
X004111Y013370
X001394Y007675
X011111Y002370
X004111Y005370
X011111Y007370
X004111Y011370
X001394Y005675
X011111Y013370
X004111Y003370
T102
X013394Y006675
X008111Y011370
X012394Y006675
X014394Y004675
X002111Y014370
X013394Y008675
X012394Y008675
X014111Y014370
X002111Y001370
X013111Y014370
X014394Y006675
X002111Y013370
X007111Y011370
X013394Y004675
X014394Y008675
X012394Y004675
X002111Y012370
X001111Y001370
T103
X003394Y006675
X011394Y001675
T104
X008394Y002675
X009394Y000675
X005394Y002675
X005394Y000675
T00
M30
