G04 MADE WITH FRITZING*
G04 WWW.FRITZING.ORG*
G04 DOUBLE SIDED*
G04 HOLES PLATED*
G04 CONTOUR ON CENTER OF CONTOUR VECTOR*
%ASAXBY*%
%FSLAX23Y23*%
%MOIN*%
%OFA0B0*%
%SFA1.0B1.0*%
%ADD10C,0.079370*%
%ADD11C,0.078000*%
%ADD12C,0.065000*%
%ADD13C,0.039370*%
%ADD14R,0.078000X0.078000*%
%ADD15C,0.024000*%
%ADD16R,0.001000X0.001000*%
%LNCOPPER1*%
G90*
G70*
G54D10*
X411Y1337D03*
X411Y1237D03*
X411Y1137D03*
X411Y1037D03*
X411Y937D03*
X411Y837D03*
X411Y737D03*
X411Y637D03*
X411Y537D03*
X411Y437D03*
X411Y337D03*
X411Y237D03*
X1111Y1337D03*
X1111Y1237D03*
X1111Y1137D03*
X1111Y1037D03*
X1111Y937D03*
X1111Y837D03*
X1111Y737D03*
X1111Y637D03*
X1111Y537D03*
X1111Y437D03*
X1111Y337D03*
X1111Y237D03*
G54D11*
X111Y137D03*
X211Y137D03*
X211Y1237D03*
X211Y1337D03*
X211Y1437D03*
G54D10*
X111Y337D03*
X111Y437D03*
X111Y537D03*
X111Y637D03*
X111Y737D03*
X111Y837D03*
X111Y937D03*
X111Y1037D03*
G54D11*
X1511Y137D03*
X1411Y137D03*
X1311Y137D03*
X1511Y337D03*
X1411Y337D03*
X1311Y337D03*
X1511Y537D03*
X1411Y537D03*
X1311Y537D03*
X711Y137D03*
X811Y137D03*
X911Y137D03*
G54D12*
X1311Y658D03*
X1311Y737D03*
X1311Y816D03*
X1311Y894D03*
G54D11*
X711Y1137D03*
X811Y1137D03*
X711Y1137D03*
X811Y1137D03*
G54D10*
X711Y937D03*
X811Y937D03*
X711Y937D03*
X811Y937D03*
G54D11*
X1411Y1437D03*
X1311Y1437D03*
G54D13*
X539Y1268D03*
G54D14*
X111Y137D03*
X1511Y137D03*
X1511Y337D03*
X1511Y537D03*
X1411Y1437D03*
G54D15*
X137Y620D02*
X385Y454D01*
D02*
X137Y520D02*
X385Y354D01*
D02*
X385Y254D02*
X137Y420D01*
D02*
X137Y954D02*
X385Y1120D01*
D02*
X137Y854D02*
X385Y1020D01*
D02*
X137Y754D02*
X385Y920D01*
D02*
X1439Y668D02*
X1332Y726D01*
D02*
X1497Y563D02*
X1439Y668D01*
D02*
X1112Y38D02*
X1012Y137D01*
D02*
X1012Y137D02*
X941Y137D01*
D02*
X1412Y38D02*
X1112Y38D01*
D02*
X1411Y107D02*
X1412Y38D01*
D02*
X811Y1237D02*
X811Y1167D01*
D02*
X1012Y1237D02*
X811Y1237D01*
D02*
X1089Y1315D02*
X1012Y1237D01*
D02*
X1012Y437D02*
X1089Y515D01*
D02*
X511Y937D02*
X610Y437D01*
D02*
X511Y1138D02*
X511Y937D01*
D02*
X610Y437D02*
X1012Y437D01*
D02*
X681Y1137D02*
X511Y1138D01*
D02*
X811Y338D02*
X811Y167D01*
D02*
X511Y338D02*
X811Y338D01*
D02*
X511Y738D02*
X511Y338D01*
D02*
X442Y737D02*
X511Y738D01*
D02*
X1412Y1036D02*
X1411Y1407D01*
D02*
X1142Y1037D02*
X1412Y1036D01*
D02*
X411Y1237D02*
X211Y1237D01*
D02*
X911Y1537D02*
X1111Y1337D01*
D02*
X511Y1537D02*
X911Y1537D01*
D02*
X240Y1447D02*
X511Y1537D01*
D02*
X1111Y1337D02*
X1130Y1312D01*
D02*
X1284Y151D02*
X1138Y224D01*
D02*
X1141Y337D02*
X1280Y337D01*
D02*
X1284Y523D02*
X1138Y450D01*
D02*
X1135Y640D02*
X1280Y655D01*
D02*
X1133Y746D02*
X1282Y804D01*
D02*
X1134Y844D02*
X1282Y886D01*
D02*
X1012Y837D02*
X1111Y937D01*
D02*
X910Y837D02*
X1012Y837D01*
D02*
X811Y837D02*
X910Y837D01*
D02*
X733Y915D02*
X811Y837D01*
D02*
X811Y968D02*
X811Y1107D01*
D02*
X440Y1467D02*
X540Y1467D01*
D02*
X237Y1352D02*
X440Y1467D01*
D02*
X540Y1467D02*
X539Y1287D01*
G54D16*
X107Y1449D02*
X214Y1449D01*
X105Y1448D02*
X216Y1448D01*
X103Y1447D02*
X218Y1447D01*
X102Y1446D02*
X219Y1446D01*
X101Y1445D02*
X220Y1445D01*
X101Y1444D02*
X220Y1444D01*
X100Y1443D02*
X221Y1443D01*
X100Y1442D02*
X221Y1442D01*
X100Y1441D02*
X222Y1441D01*
X99Y1440D02*
X222Y1440D01*
X99Y1439D02*
X222Y1439D01*
X99Y1438D02*
X222Y1438D01*
X99Y1437D02*
X222Y1437D01*
X99Y1436D02*
X222Y1436D01*
X99Y1435D02*
X222Y1435D01*
X99Y1434D02*
X221Y1434D01*
X99Y1433D02*
X221Y1433D01*
X99Y1432D02*
X220Y1432D01*
X99Y1431D02*
X220Y1431D01*
X99Y1430D02*
X219Y1430D01*
X99Y1429D02*
X218Y1429D01*
X99Y1428D02*
X217Y1428D01*
X99Y1427D02*
X215Y1427D01*
X99Y1426D02*
X212Y1426D01*
X99Y1425D02*
X122Y1425D01*
X99Y1424D02*
X122Y1424D01*
X99Y1423D02*
X122Y1423D01*
X99Y1422D02*
X122Y1422D01*
X99Y1421D02*
X122Y1421D01*
X99Y1420D02*
X122Y1420D01*
X99Y1419D02*
X122Y1419D01*
X99Y1418D02*
X122Y1418D01*
X99Y1417D02*
X122Y1417D01*
X99Y1416D02*
X122Y1416D01*
X99Y1415D02*
X122Y1415D01*
X99Y1414D02*
X122Y1414D01*
X99Y1413D02*
X122Y1413D01*
X99Y1412D02*
X122Y1412D01*
X99Y1411D02*
X122Y1411D01*
X99Y1410D02*
X122Y1410D01*
X99Y1409D02*
X122Y1409D01*
X99Y1408D02*
X122Y1408D01*
X99Y1407D02*
X122Y1407D01*
X99Y1406D02*
X122Y1406D01*
X99Y1405D02*
X122Y1405D01*
X99Y1404D02*
X122Y1404D01*
X99Y1403D02*
X122Y1403D01*
X99Y1402D02*
X122Y1402D01*
X99Y1401D02*
X122Y1401D01*
X99Y1400D02*
X122Y1400D01*
X99Y1399D02*
X122Y1399D01*
X99Y1398D02*
X122Y1398D01*
X99Y1397D02*
X122Y1397D01*
X99Y1396D02*
X122Y1396D01*
X99Y1395D02*
X122Y1395D01*
X99Y1394D02*
X122Y1394D01*
X99Y1393D02*
X122Y1393D01*
X99Y1392D02*
X122Y1392D01*
X99Y1391D02*
X122Y1391D01*
X99Y1390D02*
X122Y1390D01*
X99Y1389D02*
X122Y1389D01*
X99Y1388D02*
X122Y1388D01*
X99Y1387D02*
X122Y1387D01*
X99Y1386D02*
X122Y1386D01*
X99Y1385D02*
X122Y1385D01*
X99Y1384D02*
X122Y1384D01*
X99Y1383D02*
X122Y1383D01*
X99Y1382D02*
X122Y1382D01*
X99Y1381D02*
X122Y1381D01*
X99Y1380D02*
X122Y1380D01*
X99Y1379D02*
X122Y1379D01*
X99Y1378D02*
X122Y1378D01*
X99Y1377D02*
X122Y1377D01*
X99Y1376D02*
X122Y1376D01*
X99Y1375D02*
X122Y1375D01*
X99Y1374D02*
X122Y1374D01*
X99Y1373D02*
X122Y1373D01*
X99Y1372D02*
X122Y1372D01*
X99Y1371D02*
X122Y1371D01*
X99Y1370D02*
X122Y1370D01*
X99Y1369D02*
X122Y1369D01*
X99Y1368D02*
X122Y1368D01*
X99Y1367D02*
X122Y1367D01*
X99Y1366D02*
X122Y1366D01*
X99Y1365D02*
X122Y1365D01*
X99Y1364D02*
X122Y1364D01*
X99Y1363D02*
X122Y1363D01*
X99Y1362D02*
X122Y1362D01*
X99Y1361D02*
X122Y1361D01*
X99Y1360D02*
X122Y1360D01*
X99Y1359D02*
X122Y1359D01*
X99Y1358D02*
X122Y1358D01*
X99Y1357D02*
X122Y1357D01*
X99Y1356D02*
X122Y1356D01*
X99Y1355D02*
X122Y1355D01*
X99Y1354D02*
X122Y1354D01*
X99Y1353D02*
X122Y1353D01*
X99Y1352D02*
X122Y1352D01*
X99Y1351D02*
X122Y1351D01*
X99Y1350D02*
X122Y1350D01*
X99Y1349D02*
X122Y1349D01*
X99Y1348D02*
X122Y1348D01*
X99Y1347D02*
X122Y1347D01*
X99Y1346D02*
X122Y1346D01*
X99Y1345D02*
X122Y1345D01*
X99Y1344D02*
X122Y1344D01*
X99Y1343D02*
X122Y1343D01*
X99Y1342D02*
X122Y1342D01*
X99Y1341D02*
X122Y1341D01*
X99Y1340D02*
X122Y1340D01*
X99Y1339D02*
X122Y1339D01*
X99Y1338D02*
X122Y1338D01*
X99Y1337D02*
X122Y1337D01*
X99Y1336D02*
X122Y1336D01*
X99Y1335D02*
X122Y1335D01*
X99Y1334D02*
X122Y1334D01*
X99Y1333D02*
X122Y1333D01*
X99Y1332D02*
X122Y1332D01*
X99Y1331D02*
X122Y1331D01*
X99Y1330D02*
X122Y1330D01*
X99Y1329D02*
X122Y1329D01*
X99Y1328D02*
X122Y1328D01*
X99Y1327D02*
X122Y1327D01*
X99Y1326D02*
X122Y1326D01*
X99Y1325D02*
X122Y1325D01*
X99Y1324D02*
X122Y1324D01*
X99Y1323D02*
X122Y1323D01*
X99Y1322D02*
X122Y1322D01*
X99Y1321D02*
X122Y1321D01*
X99Y1320D02*
X122Y1320D01*
X99Y1319D02*
X122Y1319D01*
X99Y1318D02*
X122Y1318D01*
X99Y1317D02*
X122Y1317D01*
X99Y1316D02*
X122Y1316D01*
X99Y1315D02*
X122Y1315D01*
X99Y1314D02*
X122Y1314D01*
X99Y1313D02*
X122Y1313D01*
X99Y1312D02*
X122Y1312D01*
X99Y1311D02*
X122Y1311D01*
X99Y1310D02*
X122Y1310D01*
X99Y1309D02*
X122Y1309D01*
X99Y1308D02*
X122Y1308D01*
X99Y1307D02*
X122Y1307D01*
X99Y1306D02*
X122Y1306D01*
X99Y1305D02*
X122Y1305D01*
X99Y1304D02*
X122Y1304D01*
X99Y1303D02*
X122Y1303D01*
X99Y1302D02*
X122Y1302D01*
X99Y1301D02*
X122Y1301D01*
X99Y1300D02*
X122Y1300D01*
X99Y1299D02*
X122Y1299D01*
X99Y1298D02*
X122Y1298D01*
X99Y1297D02*
X122Y1297D01*
X99Y1296D02*
X122Y1296D01*
X99Y1295D02*
X122Y1295D01*
X99Y1294D02*
X122Y1294D01*
X99Y1293D02*
X122Y1293D01*
X99Y1292D02*
X122Y1292D01*
X99Y1291D02*
X122Y1291D01*
X99Y1290D02*
X122Y1290D01*
X99Y1289D02*
X122Y1289D01*
X99Y1288D02*
X122Y1288D01*
X99Y1287D02*
X122Y1287D01*
X99Y1286D02*
X122Y1286D01*
X99Y1285D02*
X122Y1285D01*
X99Y1284D02*
X122Y1284D01*
X99Y1283D02*
X122Y1283D01*
X99Y1282D02*
X122Y1282D01*
X99Y1281D02*
X122Y1281D01*
X99Y1280D02*
X122Y1280D01*
X99Y1279D02*
X122Y1279D01*
X99Y1278D02*
X122Y1278D01*
X99Y1277D02*
X122Y1277D01*
X99Y1276D02*
X122Y1276D01*
X99Y1275D02*
X122Y1275D01*
X99Y1274D02*
X122Y1274D01*
X99Y1273D02*
X122Y1273D01*
X99Y1272D02*
X122Y1272D01*
X99Y1271D02*
X122Y1271D01*
X99Y1270D02*
X122Y1270D01*
X99Y1269D02*
X122Y1269D01*
X99Y1268D02*
X122Y1268D01*
X99Y1267D02*
X122Y1267D01*
X99Y1266D02*
X122Y1266D01*
X99Y1265D02*
X122Y1265D01*
X99Y1264D02*
X122Y1264D01*
X99Y1263D02*
X122Y1263D01*
X99Y1262D02*
X122Y1262D01*
X99Y1261D02*
X122Y1261D01*
X99Y1260D02*
X122Y1260D01*
X99Y1259D02*
X122Y1259D01*
X99Y1258D02*
X122Y1258D01*
X99Y1257D02*
X122Y1257D01*
X99Y1256D02*
X122Y1256D01*
X99Y1255D02*
X122Y1255D01*
X99Y1254D02*
X122Y1254D01*
X99Y1253D02*
X122Y1253D01*
X99Y1252D02*
X122Y1252D01*
X99Y1251D02*
X122Y1251D01*
X99Y1250D02*
X122Y1250D01*
X99Y1249D02*
X122Y1249D01*
X99Y1248D02*
X122Y1248D01*
X99Y1247D02*
X122Y1247D01*
X99Y1246D02*
X122Y1246D01*
X99Y1245D02*
X122Y1245D01*
X99Y1244D02*
X122Y1244D01*
X99Y1243D02*
X122Y1243D01*
X99Y1242D02*
X122Y1242D01*
X99Y1241D02*
X122Y1241D01*
X99Y1240D02*
X122Y1240D01*
X99Y1239D02*
X122Y1239D01*
X99Y1238D02*
X122Y1238D01*
X99Y1237D02*
X122Y1237D01*
X99Y1236D02*
X122Y1236D01*
X99Y1235D02*
X122Y1235D01*
X99Y1234D02*
X122Y1234D01*
X99Y1233D02*
X122Y1233D01*
X99Y1232D02*
X122Y1232D01*
X99Y1231D02*
X122Y1231D01*
X99Y1230D02*
X122Y1230D01*
X99Y1229D02*
X122Y1229D01*
X99Y1228D02*
X122Y1228D01*
X99Y1227D02*
X122Y1227D01*
X99Y1226D02*
X122Y1226D01*
X99Y1225D02*
X122Y1225D01*
X99Y1224D02*
X122Y1224D01*
X99Y1223D02*
X122Y1223D01*
X99Y1222D02*
X122Y1222D01*
X99Y1221D02*
X122Y1221D01*
X99Y1220D02*
X122Y1220D01*
X99Y1219D02*
X122Y1219D01*
X99Y1218D02*
X122Y1218D01*
X99Y1217D02*
X122Y1217D01*
X99Y1216D02*
X122Y1216D01*
X99Y1215D02*
X122Y1215D01*
X99Y1214D02*
X122Y1214D01*
X99Y1213D02*
X122Y1213D01*
X99Y1212D02*
X122Y1212D01*
X99Y1211D02*
X122Y1211D01*
X99Y1210D02*
X122Y1210D01*
X99Y1209D02*
X122Y1209D01*
X99Y1208D02*
X122Y1208D01*
X99Y1207D02*
X122Y1207D01*
X99Y1206D02*
X122Y1206D01*
X99Y1205D02*
X122Y1205D01*
X99Y1204D02*
X122Y1204D01*
X99Y1203D02*
X122Y1203D01*
X99Y1202D02*
X122Y1202D01*
X99Y1201D02*
X122Y1201D01*
X99Y1200D02*
X122Y1200D01*
X99Y1199D02*
X122Y1199D01*
X99Y1198D02*
X122Y1198D01*
X99Y1197D02*
X122Y1197D01*
X99Y1196D02*
X122Y1196D01*
X99Y1195D02*
X122Y1195D01*
X99Y1194D02*
X122Y1194D01*
X99Y1193D02*
X122Y1193D01*
X99Y1192D02*
X122Y1192D01*
X99Y1191D02*
X122Y1191D01*
X99Y1190D02*
X122Y1190D01*
X99Y1189D02*
X122Y1189D01*
X99Y1188D02*
X122Y1188D01*
X99Y1187D02*
X122Y1187D01*
X99Y1186D02*
X122Y1186D01*
X99Y1185D02*
X122Y1185D01*
X99Y1184D02*
X122Y1184D01*
X99Y1183D02*
X122Y1183D01*
X99Y1182D02*
X122Y1182D01*
X99Y1181D02*
X122Y1181D01*
X99Y1180D02*
X122Y1180D01*
X99Y1179D02*
X122Y1179D01*
X99Y1178D02*
X122Y1178D01*
X99Y1177D02*
X122Y1177D01*
X99Y1176D02*
X122Y1176D01*
X99Y1175D02*
X122Y1175D01*
X99Y1174D02*
X122Y1174D01*
X99Y1173D02*
X122Y1173D01*
X99Y1172D02*
X122Y1172D01*
X99Y1171D02*
X122Y1171D01*
X99Y1170D02*
X122Y1170D01*
X99Y1169D02*
X122Y1169D01*
X99Y1168D02*
X122Y1168D01*
X99Y1167D02*
X122Y1167D01*
X99Y1166D02*
X122Y1166D01*
X99Y1165D02*
X122Y1165D01*
X99Y1164D02*
X122Y1164D01*
X99Y1163D02*
X122Y1163D01*
X99Y1162D02*
X122Y1162D01*
X99Y1161D02*
X122Y1161D01*
X99Y1160D02*
X122Y1160D01*
X99Y1159D02*
X122Y1159D01*
X99Y1158D02*
X122Y1158D01*
X99Y1157D02*
X122Y1157D01*
X99Y1156D02*
X122Y1156D01*
X99Y1155D02*
X122Y1155D01*
X99Y1154D02*
X122Y1154D01*
X99Y1153D02*
X122Y1153D01*
X99Y1152D02*
X122Y1152D01*
X99Y1151D02*
X122Y1151D01*
X99Y1150D02*
X122Y1150D01*
X99Y1149D02*
X122Y1149D01*
X99Y1148D02*
X122Y1148D01*
X99Y1147D02*
X122Y1147D01*
X99Y1146D02*
X122Y1146D01*
X99Y1145D02*
X122Y1145D01*
X99Y1144D02*
X122Y1144D01*
X99Y1143D02*
X122Y1143D01*
X99Y1142D02*
X122Y1142D01*
X99Y1141D02*
X122Y1141D01*
X99Y1140D02*
X122Y1140D01*
X99Y1139D02*
X122Y1139D01*
X99Y1138D02*
X122Y1138D01*
X99Y1137D02*
X122Y1137D01*
X99Y1136D02*
X122Y1136D01*
X99Y1135D02*
X122Y1135D01*
X99Y1134D02*
X122Y1134D01*
X99Y1133D02*
X122Y1133D01*
X99Y1132D02*
X122Y1132D01*
X99Y1131D02*
X122Y1131D01*
X99Y1130D02*
X122Y1130D01*
X99Y1129D02*
X122Y1129D01*
X99Y1128D02*
X122Y1128D01*
X99Y1127D02*
X122Y1127D01*
X99Y1126D02*
X122Y1126D01*
X99Y1125D02*
X122Y1125D01*
X99Y1124D02*
X122Y1124D01*
X99Y1123D02*
X122Y1123D01*
X99Y1122D02*
X122Y1122D01*
X99Y1121D02*
X122Y1121D01*
X99Y1120D02*
X122Y1120D01*
X99Y1119D02*
X122Y1119D01*
X99Y1118D02*
X122Y1118D01*
X99Y1117D02*
X122Y1117D01*
X99Y1116D02*
X122Y1116D01*
X99Y1115D02*
X122Y1115D01*
X99Y1114D02*
X122Y1114D01*
X99Y1113D02*
X122Y1113D01*
X99Y1112D02*
X122Y1112D01*
X99Y1111D02*
X122Y1111D01*
X99Y1110D02*
X122Y1110D01*
X99Y1109D02*
X122Y1109D01*
X99Y1108D02*
X122Y1108D01*
X99Y1107D02*
X122Y1107D01*
X99Y1106D02*
X122Y1106D01*
X99Y1105D02*
X122Y1105D01*
X99Y1104D02*
X122Y1104D01*
X99Y1103D02*
X122Y1103D01*
X99Y1102D02*
X122Y1102D01*
X99Y1101D02*
X122Y1101D01*
X99Y1100D02*
X122Y1100D01*
X99Y1099D02*
X122Y1099D01*
X99Y1098D02*
X122Y1098D01*
X99Y1097D02*
X122Y1097D01*
X99Y1096D02*
X122Y1096D01*
X99Y1095D02*
X122Y1095D01*
X99Y1094D02*
X122Y1094D01*
X99Y1093D02*
X122Y1093D01*
X99Y1092D02*
X122Y1092D01*
X99Y1091D02*
X122Y1091D01*
X99Y1090D02*
X122Y1090D01*
X99Y1089D02*
X122Y1089D01*
X99Y1088D02*
X122Y1088D01*
X99Y1087D02*
X122Y1087D01*
X99Y1086D02*
X122Y1086D01*
X99Y1085D02*
X122Y1085D01*
X99Y1084D02*
X122Y1084D01*
X99Y1083D02*
X122Y1083D01*
X99Y1082D02*
X122Y1082D01*
X99Y1081D02*
X122Y1081D01*
X99Y1080D02*
X122Y1080D01*
X99Y1079D02*
X122Y1079D01*
X99Y1078D02*
X122Y1078D01*
X99Y1077D02*
X122Y1077D01*
X99Y1076D02*
X122Y1076D01*
X99Y1075D02*
X122Y1075D01*
X99Y1074D02*
X122Y1074D01*
X99Y1073D02*
X122Y1073D01*
X99Y1072D02*
X122Y1072D01*
X99Y1071D02*
X122Y1071D01*
X99Y1070D02*
X122Y1070D01*
X99Y1069D02*
X122Y1069D01*
X99Y1068D02*
X122Y1068D01*
X99Y1067D02*
X122Y1067D01*
X99Y1066D02*
X122Y1066D01*
X99Y1065D02*
X122Y1065D01*
X99Y1064D02*
X122Y1064D01*
X99Y1063D02*
X122Y1063D01*
X99Y1062D02*
X122Y1062D01*
X99Y1061D02*
X122Y1061D01*
X99Y1060D02*
X122Y1060D01*
X99Y1059D02*
X122Y1059D01*
X99Y1058D02*
X122Y1058D01*
X99Y1057D02*
X122Y1057D01*
X99Y1056D02*
X122Y1056D01*
X99Y1055D02*
X122Y1055D01*
X99Y1054D02*
X122Y1054D01*
X99Y1053D02*
X122Y1053D01*
X99Y1052D02*
X122Y1052D01*
X99Y1051D02*
X122Y1051D01*
X99Y1050D02*
X122Y1050D01*
X99Y1049D02*
X122Y1049D01*
X99Y1048D02*
X122Y1048D01*
X99Y1047D02*
X122Y1047D01*
X99Y1046D02*
X122Y1046D01*
X99Y1045D02*
X122Y1045D01*
X99Y1044D02*
X122Y1044D01*
X99Y1043D02*
X122Y1043D01*
X99Y1042D02*
X122Y1042D01*
X99Y1041D02*
X122Y1041D01*
X99Y1040D02*
X122Y1040D01*
X99Y1039D02*
X122Y1039D01*
X99Y1038D02*
X122Y1038D01*
X99Y1037D02*
X122Y1037D01*
X99Y1036D02*
X122Y1036D01*
X99Y1035D02*
X122Y1035D01*
X100Y1034D02*
X121Y1034D01*
X100Y1033D02*
X121Y1033D01*
X101Y1032D02*
X120Y1032D01*
X101Y1031D02*
X120Y1031D01*
X102Y1030D02*
X119Y1030D01*
X103Y1029D02*
X118Y1029D01*
X104Y1028D02*
X117Y1028D01*
X106Y1027D02*
X115Y1027D01*
D02*
G04 End of Copper1*
M02*