G04 MADE WITH FRITZING*
G04 WWW.FRITZING.ORG*
G04 DOUBLE SIDED*
G04 HOLES PLATED*
G04 CONTOUR ON CENTER OF CONTOUR VECTOR*
%ASAXBY*%
%FSLAX23Y23*%
%MOIN*%
%OFA0B0*%
%SFA1.0B1.0*%
%ADD10C,0.010000*%
%ADD11C,0.005000*%
%ADD12R,0.001000X0.001000*%
%LNSILK1*%
G90*
G70*
G54D10*
X577Y267D02*
X614Y267D01*
D02*
X764Y267D02*
X802Y267D01*
D02*
X614Y292D02*
X764Y292D01*
D02*
X764Y292D02*
X764Y242D01*
D02*
X764Y242D02*
X614Y242D01*
D02*
X614Y242D02*
X614Y292D01*
D02*
X361Y1387D02*
X361Y187D01*
D02*
X361Y187D02*
X461Y187D01*
D02*
X461Y187D02*
X461Y1387D01*
D02*
X461Y1387D02*
X361Y1387D01*
G54D11*
D02*
X361Y1352D02*
X396Y1387D01*
G54D10*
D02*
X1061Y1387D02*
X1061Y187D01*
D02*
X1161Y1387D02*
X1061Y1387D01*
G54D11*
D02*
X1061Y1352D02*
X1096Y1387D01*
G54D10*
D02*
X61Y87D02*
X261Y87D01*
D02*
X261Y87D02*
X261Y187D01*
D02*
X261Y187D02*
X61Y187D01*
D02*
X61Y187D02*
X61Y87D01*
D02*
X261Y1187D02*
X261Y1487D01*
D02*
X261Y1487D02*
X161Y1487D01*
D02*
X161Y1487D02*
X161Y1187D01*
D02*
X161Y1187D02*
X261Y1187D01*
G54D11*
D02*
X261Y1222D02*
X226Y1187D01*
G54D10*
D02*
X189Y218D02*
X189Y1118D01*
D02*
X189Y1118D02*
X89Y1118D01*
D02*
X89Y1118D02*
X89Y218D01*
D02*
X89Y218D02*
X189Y218D01*
G54D11*
D02*
X189Y253D02*
X154Y218D01*
G54D10*
D02*
X1489Y518D02*
X1189Y518D01*
D02*
X1189Y518D02*
X1189Y418D01*
D02*
X1189Y418D02*
X1489Y418D01*
D02*
X1489Y418D02*
X1489Y518D01*
D02*
X1489Y718D02*
X1189Y718D01*
D02*
X1189Y718D02*
X1189Y618D01*
D02*
X1189Y618D02*
X1489Y618D01*
D02*
X1489Y618D02*
X1489Y718D01*
D02*
X1489Y918D02*
X1189Y918D01*
D02*
X1189Y918D02*
X1189Y818D01*
D02*
X1189Y818D02*
X1489Y818D01*
D02*
X1489Y818D02*
X1489Y918D01*
G54D12*
X0Y1575D02*
X1573Y1575D01*
X0Y1574D02*
X1573Y1574D01*
X0Y1573D02*
X1573Y1573D01*
X0Y1572D02*
X1573Y1572D01*
X0Y1571D02*
X1573Y1571D01*
X0Y1570D02*
X1573Y1570D01*
X0Y1569D02*
X1573Y1569D01*
X0Y1568D02*
X1573Y1568D01*
X0Y1567D02*
X7Y1567D01*
X1566Y1567D02*
X1573Y1567D01*
X0Y1566D02*
X7Y1566D01*
X1566Y1566D02*
X1573Y1566D01*
X0Y1565D02*
X7Y1565D01*
X1566Y1565D02*
X1573Y1565D01*
X0Y1564D02*
X7Y1564D01*
X1566Y1564D02*
X1573Y1564D01*
X0Y1563D02*
X7Y1563D01*
X1566Y1563D02*
X1573Y1563D01*
X0Y1562D02*
X7Y1562D01*
X1566Y1562D02*
X1573Y1562D01*
X0Y1561D02*
X7Y1561D01*
X1566Y1561D02*
X1573Y1561D01*
X0Y1560D02*
X7Y1560D01*
X1566Y1560D02*
X1573Y1560D01*
X0Y1559D02*
X7Y1559D01*
X1566Y1559D02*
X1573Y1559D01*
X0Y1558D02*
X7Y1558D01*
X1566Y1558D02*
X1573Y1558D01*
X0Y1557D02*
X7Y1557D01*
X1566Y1557D02*
X1573Y1557D01*
X0Y1556D02*
X7Y1556D01*
X1566Y1556D02*
X1573Y1556D01*
X0Y1555D02*
X7Y1555D01*
X1566Y1555D02*
X1573Y1555D01*
X0Y1554D02*
X7Y1554D01*
X1566Y1554D02*
X1573Y1554D01*
X0Y1553D02*
X7Y1553D01*
X1566Y1553D02*
X1573Y1553D01*
X0Y1552D02*
X7Y1552D01*
X1566Y1552D02*
X1573Y1552D01*
X0Y1551D02*
X7Y1551D01*
X1566Y1551D02*
X1573Y1551D01*
X0Y1550D02*
X7Y1550D01*
X1566Y1550D02*
X1573Y1550D01*
X0Y1549D02*
X7Y1549D01*
X1566Y1549D02*
X1573Y1549D01*
X0Y1548D02*
X7Y1548D01*
X1566Y1548D02*
X1573Y1548D01*
X0Y1547D02*
X7Y1547D01*
X1566Y1547D02*
X1573Y1547D01*
X0Y1546D02*
X7Y1546D01*
X1566Y1546D02*
X1573Y1546D01*
X0Y1545D02*
X7Y1545D01*
X1566Y1545D02*
X1573Y1545D01*
X0Y1544D02*
X7Y1544D01*
X1566Y1544D02*
X1573Y1544D01*
X0Y1543D02*
X7Y1543D01*
X1566Y1543D02*
X1573Y1543D01*
X0Y1542D02*
X7Y1542D01*
X1566Y1542D02*
X1573Y1542D01*
X0Y1541D02*
X7Y1541D01*
X1566Y1541D02*
X1573Y1541D01*
X0Y1540D02*
X7Y1540D01*
X1566Y1540D02*
X1573Y1540D01*
X0Y1539D02*
X7Y1539D01*
X1566Y1539D02*
X1573Y1539D01*
X0Y1538D02*
X7Y1538D01*
X1566Y1538D02*
X1573Y1538D01*
X0Y1537D02*
X7Y1537D01*
X1566Y1537D02*
X1573Y1537D01*
X0Y1536D02*
X7Y1536D01*
X1566Y1536D02*
X1573Y1536D01*
X0Y1535D02*
X7Y1535D01*
X1566Y1535D02*
X1573Y1535D01*
X0Y1534D02*
X7Y1534D01*
X1566Y1534D02*
X1573Y1534D01*
X0Y1533D02*
X7Y1533D01*
X1566Y1533D02*
X1573Y1533D01*
X0Y1532D02*
X7Y1532D01*
X1566Y1532D02*
X1573Y1532D01*
X0Y1531D02*
X7Y1531D01*
X1566Y1531D02*
X1573Y1531D01*
X0Y1530D02*
X7Y1530D01*
X1566Y1530D02*
X1573Y1530D01*
X0Y1529D02*
X7Y1529D01*
X1566Y1529D02*
X1573Y1529D01*
X0Y1528D02*
X7Y1528D01*
X1566Y1528D02*
X1573Y1528D01*
X0Y1527D02*
X7Y1527D01*
X1566Y1527D02*
X1573Y1527D01*
X0Y1526D02*
X7Y1526D01*
X1566Y1526D02*
X1573Y1526D01*
X0Y1525D02*
X7Y1525D01*
X1566Y1525D02*
X1573Y1525D01*
X0Y1524D02*
X7Y1524D01*
X1566Y1524D02*
X1573Y1524D01*
X0Y1523D02*
X7Y1523D01*
X1566Y1523D02*
X1573Y1523D01*
X0Y1522D02*
X7Y1522D01*
X1566Y1522D02*
X1573Y1522D01*
X0Y1521D02*
X7Y1521D01*
X1566Y1521D02*
X1573Y1521D01*
X0Y1520D02*
X7Y1520D01*
X1566Y1520D02*
X1573Y1520D01*
X0Y1519D02*
X7Y1519D01*
X1566Y1519D02*
X1573Y1519D01*
X0Y1518D02*
X7Y1518D01*
X1566Y1518D02*
X1573Y1518D01*
X0Y1517D02*
X7Y1517D01*
X1566Y1517D02*
X1573Y1517D01*
X0Y1516D02*
X7Y1516D01*
X1566Y1516D02*
X1573Y1516D01*
X0Y1515D02*
X7Y1515D01*
X1566Y1515D02*
X1573Y1515D01*
X0Y1514D02*
X7Y1514D01*
X1566Y1514D02*
X1573Y1514D01*
X0Y1513D02*
X7Y1513D01*
X1566Y1513D02*
X1573Y1513D01*
X0Y1512D02*
X7Y1512D01*
X1566Y1512D02*
X1573Y1512D01*
X0Y1511D02*
X7Y1511D01*
X1566Y1511D02*
X1573Y1511D01*
X0Y1510D02*
X7Y1510D01*
X1566Y1510D02*
X1573Y1510D01*
X0Y1509D02*
X7Y1509D01*
X1566Y1509D02*
X1573Y1509D01*
X0Y1508D02*
X7Y1508D01*
X1566Y1508D02*
X1573Y1508D01*
X0Y1507D02*
X7Y1507D01*
X1566Y1507D02*
X1573Y1507D01*
X0Y1506D02*
X7Y1506D01*
X1566Y1506D02*
X1573Y1506D01*
X0Y1505D02*
X7Y1505D01*
X1566Y1505D02*
X1573Y1505D01*
X0Y1504D02*
X7Y1504D01*
X1566Y1504D02*
X1573Y1504D01*
X0Y1503D02*
X7Y1503D01*
X1566Y1503D02*
X1573Y1503D01*
X0Y1502D02*
X7Y1502D01*
X1566Y1502D02*
X1573Y1502D01*
X0Y1501D02*
X7Y1501D01*
X1566Y1501D02*
X1573Y1501D01*
X0Y1500D02*
X7Y1500D01*
X1566Y1500D02*
X1573Y1500D01*
X0Y1499D02*
X7Y1499D01*
X1566Y1499D02*
X1573Y1499D01*
X0Y1498D02*
X7Y1498D01*
X1566Y1498D02*
X1573Y1498D01*
X0Y1497D02*
X7Y1497D01*
X1566Y1497D02*
X1573Y1497D01*
X0Y1496D02*
X7Y1496D01*
X1566Y1496D02*
X1573Y1496D01*
X0Y1495D02*
X7Y1495D01*
X1566Y1495D02*
X1573Y1495D01*
X0Y1494D02*
X7Y1494D01*
X1566Y1494D02*
X1573Y1494D01*
X0Y1493D02*
X7Y1493D01*
X1566Y1493D02*
X1573Y1493D01*
X0Y1492D02*
X7Y1492D01*
X1566Y1492D02*
X1573Y1492D01*
X0Y1491D02*
X7Y1491D01*
X1566Y1491D02*
X1573Y1491D01*
X0Y1490D02*
X7Y1490D01*
X1566Y1490D02*
X1573Y1490D01*
X0Y1489D02*
X7Y1489D01*
X1566Y1489D02*
X1573Y1489D01*
X0Y1488D02*
X7Y1488D01*
X1566Y1488D02*
X1573Y1488D01*
X0Y1487D02*
X7Y1487D01*
X1566Y1487D02*
X1573Y1487D01*
X0Y1486D02*
X7Y1486D01*
X1566Y1486D02*
X1573Y1486D01*
X0Y1485D02*
X7Y1485D01*
X1566Y1485D02*
X1573Y1485D01*
X0Y1484D02*
X7Y1484D01*
X1566Y1484D02*
X1573Y1484D01*
X0Y1483D02*
X7Y1483D01*
X1566Y1483D02*
X1573Y1483D01*
X0Y1482D02*
X7Y1482D01*
X1566Y1482D02*
X1573Y1482D01*
X0Y1481D02*
X7Y1481D01*
X1566Y1481D02*
X1573Y1481D01*
X0Y1480D02*
X7Y1480D01*
X1566Y1480D02*
X1573Y1480D01*
X0Y1479D02*
X7Y1479D01*
X1566Y1479D02*
X1573Y1479D01*
X0Y1478D02*
X7Y1478D01*
X1566Y1478D02*
X1573Y1478D01*
X0Y1477D02*
X7Y1477D01*
X1566Y1477D02*
X1573Y1477D01*
X0Y1476D02*
X7Y1476D01*
X1566Y1476D02*
X1573Y1476D01*
X0Y1475D02*
X7Y1475D01*
X1566Y1475D02*
X1573Y1475D01*
X0Y1474D02*
X7Y1474D01*
X1566Y1474D02*
X1573Y1474D01*
X0Y1473D02*
X7Y1473D01*
X1566Y1473D02*
X1573Y1473D01*
X0Y1472D02*
X7Y1472D01*
X1566Y1472D02*
X1573Y1472D01*
X0Y1471D02*
X7Y1471D01*
X1566Y1471D02*
X1573Y1471D01*
X0Y1470D02*
X7Y1470D01*
X1566Y1470D02*
X1573Y1470D01*
X0Y1469D02*
X7Y1469D01*
X95Y1469D02*
X114Y1469D01*
X1566Y1469D02*
X1573Y1469D01*
X0Y1468D02*
X7Y1468D01*
X94Y1468D02*
X116Y1468D01*
X1566Y1468D02*
X1573Y1468D01*
X0Y1467D02*
X7Y1467D01*
X93Y1467D02*
X116Y1467D01*
X1566Y1467D02*
X1573Y1467D01*
X0Y1466D02*
X7Y1466D01*
X93Y1466D02*
X117Y1466D01*
X1566Y1466D02*
X1573Y1466D01*
X0Y1465D02*
X7Y1465D01*
X93Y1465D02*
X117Y1465D01*
X1566Y1465D02*
X1573Y1465D01*
X0Y1464D02*
X7Y1464D01*
X94Y1464D02*
X117Y1464D01*
X1566Y1464D02*
X1573Y1464D01*
X0Y1463D02*
X7Y1463D01*
X94Y1463D02*
X117Y1463D01*
X1566Y1463D02*
X1573Y1463D01*
X0Y1462D02*
X7Y1462D01*
X111Y1462D02*
X117Y1462D01*
X1566Y1462D02*
X1573Y1462D01*
X0Y1461D02*
X7Y1461D01*
X111Y1461D02*
X117Y1461D01*
X1566Y1461D02*
X1573Y1461D01*
X0Y1460D02*
X7Y1460D01*
X111Y1460D02*
X117Y1460D01*
X1566Y1460D02*
X1573Y1460D01*
X0Y1459D02*
X7Y1459D01*
X111Y1459D02*
X117Y1459D01*
X1566Y1459D02*
X1573Y1459D01*
X0Y1458D02*
X7Y1458D01*
X111Y1458D02*
X117Y1458D01*
X1566Y1458D02*
X1573Y1458D01*
X0Y1457D02*
X7Y1457D01*
X111Y1457D02*
X117Y1457D01*
X1566Y1457D02*
X1573Y1457D01*
X0Y1456D02*
X7Y1456D01*
X111Y1456D02*
X117Y1456D01*
X1566Y1456D02*
X1573Y1456D01*
X0Y1455D02*
X7Y1455D01*
X64Y1455D02*
X117Y1455D01*
X1566Y1455D02*
X1573Y1455D01*
X0Y1454D02*
X7Y1454D01*
X64Y1454D02*
X117Y1454D01*
X1566Y1454D02*
X1573Y1454D01*
X0Y1453D02*
X7Y1453D01*
X64Y1453D02*
X117Y1453D01*
X1566Y1453D02*
X1573Y1453D01*
X0Y1452D02*
X7Y1452D01*
X64Y1452D02*
X117Y1452D01*
X1566Y1452D02*
X1573Y1452D01*
X0Y1451D02*
X7Y1451D01*
X64Y1451D02*
X117Y1451D01*
X1566Y1451D02*
X1573Y1451D01*
X0Y1450D02*
X7Y1450D01*
X64Y1450D02*
X117Y1450D01*
X1566Y1450D02*
X1573Y1450D01*
X0Y1449D02*
X7Y1449D01*
X64Y1449D02*
X117Y1449D01*
X1566Y1449D02*
X1573Y1449D01*
X0Y1448D02*
X7Y1448D01*
X64Y1448D02*
X70Y1448D01*
X111Y1448D02*
X117Y1448D01*
X1566Y1448D02*
X1573Y1448D01*
X0Y1447D02*
X7Y1447D01*
X64Y1447D02*
X70Y1447D01*
X111Y1447D02*
X117Y1447D01*
X1566Y1447D02*
X1573Y1447D01*
X0Y1446D02*
X7Y1446D01*
X64Y1446D02*
X70Y1446D01*
X111Y1446D02*
X117Y1446D01*
X1566Y1446D02*
X1573Y1446D01*
X0Y1445D02*
X7Y1445D01*
X64Y1445D02*
X70Y1445D01*
X111Y1445D02*
X117Y1445D01*
X1566Y1445D02*
X1573Y1445D01*
X0Y1444D02*
X7Y1444D01*
X64Y1444D02*
X70Y1444D01*
X111Y1444D02*
X117Y1444D01*
X1566Y1444D02*
X1573Y1444D01*
X0Y1443D02*
X7Y1443D01*
X64Y1443D02*
X70Y1443D01*
X111Y1443D02*
X117Y1443D01*
X1566Y1443D02*
X1573Y1443D01*
X0Y1442D02*
X7Y1442D01*
X64Y1442D02*
X70Y1442D01*
X111Y1442D02*
X117Y1442D01*
X1566Y1442D02*
X1573Y1442D01*
X0Y1441D02*
X7Y1441D01*
X64Y1441D02*
X70Y1441D01*
X111Y1441D02*
X117Y1441D01*
X1566Y1441D02*
X1573Y1441D01*
X0Y1440D02*
X7Y1440D01*
X64Y1440D02*
X70Y1440D01*
X111Y1440D02*
X117Y1440D01*
X1566Y1440D02*
X1573Y1440D01*
X0Y1439D02*
X7Y1439D01*
X64Y1439D02*
X70Y1439D01*
X111Y1439D02*
X117Y1439D01*
X1566Y1439D02*
X1573Y1439D01*
X0Y1438D02*
X7Y1438D01*
X64Y1438D02*
X70Y1438D01*
X111Y1438D02*
X117Y1438D01*
X1566Y1438D02*
X1573Y1438D01*
X0Y1437D02*
X7Y1437D01*
X64Y1437D02*
X69Y1437D01*
X111Y1437D02*
X117Y1437D01*
X1566Y1437D02*
X1573Y1437D01*
X0Y1436D02*
X7Y1436D01*
X64Y1436D02*
X69Y1436D01*
X112Y1436D02*
X116Y1436D01*
X1566Y1436D02*
X1573Y1436D01*
X0Y1435D02*
X7Y1435D01*
X66Y1435D02*
X67Y1435D01*
X113Y1435D02*
X115Y1435D01*
X1566Y1435D02*
X1573Y1435D01*
X0Y1434D02*
X7Y1434D01*
X1566Y1434D02*
X1573Y1434D01*
X0Y1433D02*
X7Y1433D01*
X1566Y1433D02*
X1573Y1433D01*
X0Y1432D02*
X7Y1432D01*
X1566Y1432D02*
X1573Y1432D01*
X0Y1431D02*
X7Y1431D01*
X1566Y1431D02*
X1573Y1431D01*
X0Y1430D02*
X7Y1430D01*
X1566Y1430D02*
X1573Y1430D01*
X0Y1429D02*
X7Y1429D01*
X1566Y1429D02*
X1573Y1429D01*
X0Y1428D02*
X7Y1428D01*
X1566Y1428D02*
X1573Y1428D01*
X0Y1427D02*
X7Y1427D01*
X1566Y1427D02*
X1573Y1427D01*
X0Y1426D02*
X7Y1426D01*
X1566Y1426D02*
X1573Y1426D01*
X0Y1425D02*
X7Y1425D01*
X1566Y1425D02*
X1573Y1425D01*
X0Y1424D02*
X7Y1424D01*
X1566Y1424D02*
X1573Y1424D01*
X0Y1423D02*
X7Y1423D01*
X1566Y1423D02*
X1573Y1423D01*
X0Y1422D02*
X7Y1422D01*
X1566Y1422D02*
X1573Y1422D01*
X0Y1421D02*
X7Y1421D01*
X1566Y1421D02*
X1573Y1421D01*
X0Y1420D02*
X7Y1420D01*
X1566Y1420D02*
X1573Y1420D01*
X0Y1419D02*
X7Y1419D01*
X64Y1419D02*
X114Y1419D01*
X1566Y1419D02*
X1573Y1419D01*
X0Y1418D02*
X7Y1418D01*
X64Y1418D02*
X116Y1418D01*
X1566Y1418D02*
X1573Y1418D01*
X0Y1417D02*
X7Y1417D01*
X64Y1417D02*
X116Y1417D01*
X1566Y1417D02*
X1573Y1417D01*
X0Y1416D02*
X7Y1416D01*
X64Y1416D02*
X117Y1416D01*
X1566Y1416D02*
X1573Y1416D01*
X0Y1415D02*
X7Y1415D01*
X64Y1415D02*
X117Y1415D01*
X1566Y1415D02*
X1573Y1415D01*
X0Y1414D02*
X7Y1414D01*
X64Y1414D02*
X116Y1414D01*
X1566Y1414D02*
X1573Y1414D01*
X0Y1413D02*
X7Y1413D01*
X64Y1413D02*
X116Y1413D01*
X1566Y1413D02*
X1573Y1413D01*
X0Y1412D02*
X7Y1412D01*
X64Y1412D02*
X73Y1412D01*
X1566Y1412D02*
X1573Y1412D01*
X0Y1411D02*
X7Y1411D01*
X64Y1411D02*
X74Y1411D01*
X1566Y1411D02*
X1573Y1411D01*
X0Y1410D02*
X7Y1410D01*
X64Y1410D02*
X75Y1410D01*
X1566Y1410D02*
X1573Y1410D01*
X0Y1409D02*
X7Y1409D01*
X65Y1409D02*
X77Y1409D01*
X1566Y1409D02*
X1573Y1409D01*
X0Y1408D02*
X7Y1408D01*
X67Y1408D02*
X78Y1408D01*
X1566Y1408D02*
X1573Y1408D01*
X0Y1407D02*
X7Y1407D01*
X68Y1407D02*
X80Y1407D01*
X1566Y1407D02*
X1573Y1407D01*
X0Y1406D02*
X7Y1406D01*
X70Y1406D02*
X81Y1406D01*
X1566Y1406D02*
X1573Y1406D01*
X0Y1405D02*
X7Y1405D01*
X71Y1405D02*
X85Y1405D01*
X1566Y1405D02*
X1573Y1405D01*
X0Y1404D02*
X7Y1404D01*
X73Y1404D02*
X86Y1404D01*
X1566Y1404D02*
X1573Y1404D01*
X0Y1403D02*
X7Y1403D01*
X74Y1403D02*
X87Y1403D01*
X1566Y1403D02*
X1573Y1403D01*
X0Y1402D02*
X7Y1402D01*
X75Y1402D02*
X87Y1402D01*
X1566Y1402D02*
X1573Y1402D01*
X0Y1401D02*
X7Y1401D01*
X75Y1401D02*
X87Y1401D01*
X1566Y1401D02*
X1573Y1401D01*
X0Y1400D02*
X7Y1400D01*
X73Y1400D02*
X87Y1400D01*
X1566Y1400D02*
X1573Y1400D01*
X0Y1399D02*
X7Y1399D01*
X72Y1399D02*
X86Y1399D01*
X1566Y1399D02*
X1573Y1399D01*
X0Y1398D02*
X7Y1398D01*
X70Y1398D02*
X82Y1398D01*
X1566Y1398D02*
X1573Y1398D01*
X0Y1397D02*
X7Y1397D01*
X69Y1397D02*
X80Y1397D01*
X1566Y1397D02*
X1573Y1397D01*
X0Y1396D02*
X7Y1396D01*
X68Y1396D02*
X79Y1396D01*
X1566Y1396D02*
X1573Y1396D01*
X0Y1395D02*
X7Y1395D01*
X66Y1395D02*
X77Y1395D01*
X1566Y1395D02*
X1573Y1395D01*
X0Y1394D02*
X7Y1394D01*
X65Y1394D02*
X76Y1394D01*
X1566Y1394D02*
X1573Y1394D01*
X0Y1393D02*
X7Y1393D01*
X64Y1393D02*
X75Y1393D01*
X1566Y1393D02*
X1573Y1393D01*
X0Y1392D02*
X7Y1392D01*
X64Y1392D02*
X73Y1392D01*
X1566Y1392D02*
X1573Y1392D01*
X0Y1391D02*
X7Y1391D01*
X64Y1391D02*
X115Y1391D01*
X1566Y1391D02*
X1573Y1391D01*
X0Y1390D02*
X7Y1390D01*
X64Y1390D02*
X116Y1390D01*
X1566Y1390D02*
X1573Y1390D01*
X0Y1389D02*
X7Y1389D01*
X64Y1389D02*
X117Y1389D01*
X1566Y1389D02*
X1573Y1389D01*
X0Y1388D02*
X7Y1388D01*
X64Y1388D02*
X117Y1388D01*
X1566Y1388D02*
X1573Y1388D01*
X0Y1387D02*
X7Y1387D01*
X64Y1387D02*
X117Y1387D01*
X1156Y1387D02*
X1165Y1387D01*
X1566Y1387D02*
X1573Y1387D01*
X0Y1386D02*
X7Y1386D01*
X64Y1386D02*
X116Y1386D01*
X1156Y1386D02*
X1165Y1386D01*
X1566Y1386D02*
X1573Y1386D01*
X0Y1385D02*
X7Y1385D01*
X64Y1385D02*
X115Y1385D01*
X1156Y1385D02*
X1165Y1385D01*
X1566Y1385D02*
X1573Y1385D01*
X0Y1384D02*
X7Y1384D01*
X1156Y1384D02*
X1165Y1384D01*
X1566Y1384D02*
X1573Y1384D01*
X0Y1383D02*
X7Y1383D01*
X1156Y1383D02*
X1165Y1383D01*
X1566Y1383D02*
X1573Y1383D01*
X0Y1382D02*
X7Y1382D01*
X1156Y1382D02*
X1165Y1382D01*
X1566Y1382D02*
X1573Y1382D01*
X0Y1381D02*
X7Y1381D01*
X1156Y1381D02*
X1165Y1381D01*
X1566Y1381D02*
X1573Y1381D01*
X0Y1380D02*
X7Y1380D01*
X982Y1380D02*
X986Y1380D01*
X1008Y1380D02*
X1037Y1380D01*
X1156Y1380D02*
X1165Y1380D01*
X1566Y1380D02*
X1573Y1380D01*
X0Y1379D02*
X7Y1379D01*
X981Y1379D02*
X987Y1379D01*
X1008Y1379D02*
X1038Y1379D01*
X1156Y1379D02*
X1165Y1379D01*
X1566Y1379D02*
X1573Y1379D01*
X0Y1378D02*
X7Y1378D01*
X981Y1378D02*
X987Y1378D01*
X1007Y1378D02*
X1039Y1378D01*
X1156Y1378D02*
X1165Y1378D01*
X1566Y1378D02*
X1573Y1378D01*
X0Y1377D02*
X7Y1377D01*
X981Y1377D02*
X987Y1377D01*
X1007Y1377D02*
X1040Y1377D01*
X1156Y1377D02*
X1165Y1377D01*
X1566Y1377D02*
X1573Y1377D01*
X0Y1376D02*
X7Y1376D01*
X981Y1376D02*
X987Y1376D01*
X1007Y1376D02*
X1040Y1376D01*
X1156Y1376D02*
X1165Y1376D01*
X1566Y1376D02*
X1573Y1376D01*
X0Y1375D02*
X7Y1375D01*
X981Y1375D02*
X987Y1375D01*
X1008Y1375D02*
X1041Y1375D01*
X1156Y1375D02*
X1165Y1375D01*
X1566Y1375D02*
X1573Y1375D01*
X0Y1374D02*
X7Y1374D01*
X981Y1374D02*
X987Y1374D01*
X1010Y1374D02*
X1041Y1374D01*
X1156Y1374D02*
X1165Y1374D01*
X1566Y1374D02*
X1573Y1374D01*
X0Y1373D02*
X7Y1373D01*
X981Y1373D02*
X987Y1373D01*
X1035Y1373D02*
X1041Y1373D01*
X1156Y1373D02*
X1165Y1373D01*
X1566Y1373D02*
X1573Y1373D01*
X0Y1372D02*
X7Y1372D01*
X981Y1372D02*
X987Y1372D01*
X1035Y1372D02*
X1041Y1372D01*
X1156Y1372D02*
X1165Y1372D01*
X1566Y1372D02*
X1573Y1372D01*
X0Y1371D02*
X7Y1371D01*
X981Y1371D02*
X987Y1371D01*
X1035Y1371D02*
X1041Y1371D01*
X1156Y1371D02*
X1165Y1371D01*
X1566Y1371D02*
X1573Y1371D01*
X0Y1370D02*
X7Y1370D01*
X981Y1370D02*
X987Y1370D01*
X1035Y1370D02*
X1041Y1370D01*
X1156Y1370D02*
X1165Y1370D01*
X1566Y1370D02*
X1573Y1370D01*
X0Y1369D02*
X7Y1369D01*
X981Y1369D02*
X987Y1369D01*
X1035Y1369D02*
X1041Y1369D01*
X1156Y1369D02*
X1165Y1369D01*
X1566Y1369D02*
X1573Y1369D01*
X0Y1368D02*
X7Y1368D01*
X981Y1368D02*
X987Y1368D01*
X1035Y1368D02*
X1041Y1368D01*
X1156Y1368D02*
X1165Y1368D01*
X1566Y1368D02*
X1573Y1368D01*
X0Y1367D02*
X7Y1367D01*
X981Y1367D02*
X987Y1367D01*
X1035Y1367D02*
X1041Y1367D01*
X1156Y1367D02*
X1165Y1367D01*
X1566Y1367D02*
X1573Y1367D01*
X0Y1366D02*
X7Y1366D01*
X981Y1366D02*
X987Y1366D01*
X1035Y1366D02*
X1041Y1366D01*
X1156Y1366D02*
X1165Y1366D01*
X1566Y1366D02*
X1573Y1366D01*
X0Y1365D02*
X7Y1365D01*
X504Y1365D02*
X505Y1365D01*
X530Y1365D02*
X547Y1365D01*
X981Y1365D02*
X987Y1365D01*
X1035Y1365D02*
X1041Y1365D01*
X1156Y1365D02*
X1165Y1365D01*
X1566Y1365D02*
X1573Y1365D01*
X0Y1364D02*
X7Y1364D01*
X503Y1364D02*
X507Y1364D01*
X529Y1364D02*
X548Y1364D01*
X981Y1364D02*
X987Y1364D01*
X1035Y1364D02*
X1041Y1364D01*
X1156Y1364D02*
X1165Y1364D01*
X1566Y1364D02*
X1573Y1364D01*
X0Y1363D02*
X7Y1363D01*
X502Y1363D02*
X507Y1363D01*
X528Y1363D02*
X548Y1363D01*
X981Y1363D02*
X987Y1363D01*
X1035Y1363D02*
X1041Y1363D01*
X1156Y1363D02*
X1165Y1363D01*
X1566Y1363D02*
X1573Y1363D01*
X0Y1362D02*
X7Y1362D01*
X502Y1362D02*
X508Y1362D01*
X528Y1362D02*
X548Y1362D01*
X981Y1362D02*
X987Y1362D01*
X1035Y1362D02*
X1041Y1362D01*
X1156Y1362D02*
X1165Y1362D01*
X1566Y1362D02*
X1573Y1362D01*
X0Y1361D02*
X7Y1361D01*
X502Y1361D02*
X508Y1361D01*
X528Y1361D02*
X548Y1361D01*
X981Y1361D02*
X987Y1361D01*
X1035Y1361D02*
X1041Y1361D01*
X1156Y1361D02*
X1165Y1361D01*
X1566Y1361D02*
X1573Y1361D01*
X0Y1360D02*
X7Y1360D01*
X502Y1360D02*
X508Y1360D01*
X528Y1360D02*
X548Y1360D01*
X981Y1360D02*
X987Y1360D01*
X1035Y1360D02*
X1041Y1360D01*
X1156Y1360D02*
X1165Y1360D01*
X1566Y1360D02*
X1573Y1360D01*
X0Y1359D02*
X7Y1359D01*
X502Y1359D02*
X508Y1359D01*
X529Y1359D02*
X548Y1359D01*
X981Y1359D02*
X987Y1359D01*
X1035Y1359D02*
X1041Y1359D01*
X1156Y1359D02*
X1165Y1359D01*
X1566Y1359D02*
X1573Y1359D01*
X0Y1358D02*
X7Y1358D01*
X502Y1358D02*
X508Y1358D01*
X541Y1358D02*
X548Y1358D01*
X981Y1358D02*
X987Y1358D01*
X1035Y1358D02*
X1041Y1358D01*
X1156Y1358D02*
X1165Y1358D01*
X1566Y1358D02*
X1573Y1358D01*
X0Y1357D02*
X7Y1357D01*
X502Y1357D02*
X508Y1357D01*
X541Y1357D02*
X548Y1357D01*
X981Y1357D02*
X987Y1357D01*
X1012Y1357D02*
X1041Y1357D01*
X1156Y1357D02*
X1165Y1357D01*
X1566Y1357D02*
X1573Y1357D01*
X0Y1356D02*
X7Y1356D01*
X502Y1356D02*
X508Y1356D01*
X541Y1356D02*
X548Y1356D01*
X981Y1356D02*
X987Y1356D01*
X1010Y1356D02*
X1041Y1356D01*
X1156Y1356D02*
X1165Y1356D01*
X1566Y1356D02*
X1573Y1356D01*
X0Y1355D02*
X7Y1355D01*
X502Y1355D02*
X508Y1355D01*
X541Y1355D02*
X548Y1355D01*
X981Y1355D02*
X987Y1355D01*
X1009Y1355D02*
X1040Y1355D01*
X1156Y1355D02*
X1165Y1355D01*
X1566Y1355D02*
X1573Y1355D01*
X0Y1354D02*
X7Y1354D01*
X502Y1354D02*
X508Y1354D01*
X541Y1354D02*
X548Y1354D01*
X981Y1354D02*
X987Y1354D01*
X1008Y1354D02*
X1040Y1354D01*
X1156Y1354D02*
X1165Y1354D01*
X1566Y1354D02*
X1573Y1354D01*
X0Y1353D02*
X7Y1353D01*
X502Y1353D02*
X508Y1353D01*
X541Y1353D02*
X548Y1353D01*
X981Y1353D02*
X987Y1353D01*
X1008Y1353D02*
X1039Y1353D01*
X1156Y1353D02*
X1165Y1353D01*
X1566Y1353D02*
X1573Y1353D01*
X0Y1352D02*
X7Y1352D01*
X502Y1352D02*
X508Y1352D01*
X541Y1352D02*
X548Y1352D01*
X981Y1352D02*
X987Y1352D01*
X1007Y1352D02*
X1038Y1352D01*
X1156Y1352D02*
X1165Y1352D01*
X1566Y1352D02*
X1573Y1352D01*
X0Y1351D02*
X7Y1351D01*
X502Y1351D02*
X508Y1351D01*
X541Y1351D02*
X548Y1351D01*
X962Y1351D02*
X964Y1351D01*
X981Y1351D02*
X987Y1351D01*
X1007Y1351D02*
X1037Y1351D01*
X1156Y1351D02*
X1165Y1351D01*
X1566Y1351D02*
X1573Y1351D01*
X0Y1350D02*
X7Y1350D01*
X502Y1350D02*
X508Y1350D01*
X541Y1350D02*
X548Y1350D01*
X961Y1350D02*
X966Y1350D01*
X981Y1350D02*
X987Y1350D01*
X1007Y1350D02*
X1013Y1350D01*
X1156Y1350D02*
X1165Y1350D01*
X1566Y1350D02*
X1573Y1350D01*
X0Y1349D02*
X7Y1349D01*
X502Y1349D02*
X508Y1349D01*
X541Y1349D02*
X548Y1349D01*
X961Y1349D02*
X966Y1349D01*
X981Y1349D02*
X987Y1349D01*
X1007Y1349D02*
X1013Y1349D01*
X1156Y1349D02*
X1165Y1349D01*
X1566Y1349D02*
X1573Y1349D01*
X0Y1348D02*
X7Y1348D01*
X502Y1348D02*
X508Y1348D01*
X541Y1348D02*
X548Y1348D01*
X960Y1348D02*
X966Y1348D01*
X981Y1348D02*
X987Y1348D01*
X1007Y1348D02*
X1013Y1348D01*
X1156Y1348D02*
X1165Y1348D01*
X1566Y1348D02*
X1573Y1348D01*
X0Y1347D02*
X7Y1347D01*
X502Y1347D02*
X508Y1347D01*
X541Y1347D02*
X548Y1347D01*
X960Y1347D02*
X966Y1347D01*
X981Y1347D02*
X987Y1347D01*
X1007Y1347D02*
X1013Y1347D01*
X1156Y1347D02*
X1165Y1347D01*
X1566Y1347D02*
X1573Y1347D01*
X0Y1346D02*
X7Y1346D01*
X502Y1346D02*
X508Y1346D01*
X541Y1346D02*
X548Y1346D01*
X960Y1346D02*
X966Y1346D01*
X981Y1346D02*
X987Y1346D01*
X1007Y1346D02*
X1013Y1346D01*
X1156Y1346D02*
X1165Y1346D01*
X1566Y1346D02*
X1573Y1346D01*
X0Y1345D02*
X7Y1345D01*
X502Y1345D02*
X508Y1345D01*
X541Y1345D02*
X548Y1345D01*
X960Y1345D02*
X966Y1345D01*
X981Y1345D02*
X987Y1345D01*
X1007Y1345D02*
X1013Y1345D01*
X1156Y1345D02*
X1165Y1345D01*
X1566Y1345D02*
X1573Y1345D01*
X0Y1344D02*
X7Y1344D01*
X502Y1344D02*
X508Y1344D01*
X541Y1344D02*
X548Y1344D01*
X960Y1344D02*
X966Y1344D01*
X981Y1344D02*
X987Y1344D01*
X1007Y1344D02*
X1013Y1344D01*
X1156Y1344D02*
X1165Y1344D01*
X1566Y1344D02*
X1573Y1344D01*
X0Y1343D02*
X7Y1343D01*
X502Y1343D02*
X508Y1343D01*
X541Y1343D02*
X548Y1343D01*
X960Y1343D02*
X966Y1343D01*
X981Y1343D02*
X987Y1343D01*
X1007Y1343D02*
X1013Y1343D01*
X1156Y1343D02*
X1165Y1343D01*
X1566Y1343D02*
X1573Y1343D01*
X0Y1342D02*
X7Y1342D01*
X502Y1342D02*
X508Y1342D01*
X541Y1342D02*
X548Y1342D01*
X960Y1342D02*
X966Y1342D01*
X981Y1342D02*
X987Y1342D01*
X1007Y1342D02*
X1013Y1342D01*
X1156Y1342D02*
X1165Y1342D01*
X1566Y1342D02*
X1573Y1342D01*
X0Y1341D02*
X7Y1341D01*
X502Y1341D02*
X508Y1341D01*
X541Y1341D02*
X548Y1341D01*
X960Y1341D02*
X966Y1341D01*
X981Y1341D02*
X987Y1341D01*
X1007Y1341D02*
X1013Y1341D01*
X1156Y1341D02*
X1165Y1341D01*
X1566Y1341D02*
X1573Y1341D01*
X0Y1340D02*
X7Y1340D01*
X502Y1340D02*
X508Y1340D01*
X541Y1340D02*
X548Y1340D01*
X960Y1340D02*
X966Y1340D01*
X981Y1340D02*
X987Y1340D01*
X1007Y1340D02*
X1013Y1340D01*
X1156Y1340D02*
X1165Y1340D01*
X1566Y1340D02*
X1573Y1340D01*
X0Y1339D02*
X7Y1339D01*
X502Y1339D02*
X508Y1339D01*
X541Y1339D02*
X548Y1339D01*
X960Y1339D02*
X966Y1339D01*
X981Y1339D02*
X987Y1339D01*
X1007Y1339D02*
X1013Y1339D01*
X1156Y1339D02*
X1165Y1339D01*
X1566Y1339D02*
X1573Y1339D01*
X0Y1338D02*
X7Y1338D01*
X502Y1338D02*
X508Y1338D01*
X541Y1338D02*
X548Y1338D01*
X960Y1338D02*
X966Y1338D01*
X981Y1338D02*
X987Y1338D01*
X1007Y1338D02*
X1013Y1338D01*
X1156Y1338D02*
X1165Y1338D01*
X1566Y1338D02*
X1573Y1338D01*
X0Y1337D02*
X7Y1337D01*
X502Y1337D02*
X508Y1337D01*
X541Y1337D02*
X548Y1337D01*
X960Y1337D02*
X966Y1337D01*
X981Y1337D02*
X987Y1337D01*
X1007Y1337D02*
X1013Y1337D01*
X1156Y1337D02*
X1165Y1337D01*
X1566Y1337D02*
X1573Y1337D01*
X0Y1336D02*
X7Y1336D01*
X502Y1336D02*
X508Y1336D01*
X541Y1336D02*
X548Y1336D01*
X960Y1336D02*
X967Y1336D01*
X981Y1336D02*
X987Y1336D01*
X1007Y1336D02*
X1013Y1336D01*
X1156Y1336D02*
X1165Y1336D01*
X1566Y1336D02*
X1573Y1336D01*
X0Y1335D02*
X7Y1335D01*
X482Y1335D02*
X486Y1335D01*
X502Y1335D02*
X508Y1335D01*
X541Y1335D02*
X548Y1335D01*
X557Y1335D02*
X560Y1335D01*
X961Y1335D02*
X967Y1335D01*
X980Y1335D02*
X987Y1335D01*
X1007Y1335D02*
X1013Y1335D01*
X1156Y1335D02*
X1165Y1335D01*
X1566Y1335D02*
X1573Y1335D01*
X0Y1334D02*
X7Y1334D01*
X481Y1334D02*
X486Y1334D01*
X502Y1334D02*
X508Y1334D01*
X541Y1334D02*
X548Y1334D01*
X556Y1334D02*
X561Y1334D01*
X961Y1334D02*
X969Y1334D01*
X979Y1334D02*
X986Y1334D01*
X1007Y1334D02*
X1013Y1334D01*
X1156Y1334D02*
X1165Y1334D01*
X1566Y1334D02*
X1573Y1334D01*
X0Y1333D02*
X7Y1333D01*
X481Y1333D02*
X487Y1333D01*
X502Y1333D02*
X508Y1333D01*
X541Y1333D02*
X548Y1333D01*
X555Y1333D02*
X561Y1333D01*
X961Y1333D02*
X986Y1333D01*
X1007Y1333D02*
X1039Y1333D01*
X1156Y1333D02*
X1165Y1333D01*
X1566Y1333D02*
X1573Y1333D01*
X0Y1332D02*
X7Y1332D01*
X481Y1332D02*
X487Y1332D01*
X502Y1332D02*
X508Y1332D01*
X541Y1332D02*
X548Y1332D01*
X555Y1332D02*
X561Y1332D01*
X962Y1332D02*
X986Y1332D01*
X1007Y1332D02*
X1040Y1332D01*
X1156Y1332D02*
X1165Y1332D01*
X1566Y1332D02*
X1573Y1332D01*
X0Y1331D02*
X7Y1331D01*
X481Y1331D02*
X487Y1331D01*
X502Y1331D02*
X508Y1331D01*
X541Y1331D02*
X548Y1331D01*
X555Y1331D02*
X561Y1331D01*
X962Y1331D02*
X985Y1331D01*
X1007Y1331D02*
X1041Y1331D01*
X1156Y1331D02*
X1165Y1331D01*
X1566Y1331D02*
X1573Y1331D01*
X0Y1330D02*
X7Y1330D01*
X481Y1330D02*
X487Y1330D01*
X502Y1330D02*
X508Y1330D01*
X541Y1330D02*
X548Y1330D01*
X555Y1330D02*
X561Y1330D01*
X963Y1330D02*
X984Y1330D01*
X1007Y1330D02*
X1041Y1330D01*
X1156Y1330D02*
X1165Y1330D01*
X1566Y1330D02*
X1573Y1330D01*
X0Y1329D02*
X7Y1329D01*
X481Y1329D02*
X487Y1329D01*
X502Y1329D02*
X508Y1329D01*
X541Y1329D02*
X548Y1329D01*
X555Y1329D02*
X561Y1329D01*
X964Y1329D02*
X983Y1329D01*
X1007Y1329D02*
X1040Y1329D01*
X1156Y1329D02*
X1165Y1329D01*
X1566Y1329D02*
X1573Y1329D01*
X0Y1328D02*
X7Y1328D01*
X481Y1328D02*
X487Y1328D01*
X502Y1328D02*
X508Y1328D01*
X541Y1328D02*
X548Y1328D01*
X555Y1328D02*
X561Y1328D01*
X966Y1328D02*
X981Y1328D01*
X1007Y1328D02*
X1040Y1328D01*
X1156Y1328D02*
X1165Y1328D01*
X1566Y1328D02*
X1573Y1328D01*
X0Y1327D02*
X7Y1327D01*
X481Y1327D02*
X487Y1327D01*
X502Y1327D02*
X508Y1327D01*
X541Y1327D02*
X548Y1327D01*
X555Y1327D02*
X561Y1327D01*
X968Y1327D02*
X979Y1327D01*
X1007Y1327D02*
X1038Y1327D01*
X1156Y1327D02*
X1165Y1327D01*
X1566Y1327D02*
X1573Y1327D01*
X0Y1326D02*
X7Y1326D01*
X481Y1326D02*
X487Y1326D01*
X502Y1326D02*
X508Y1326D01*
X541Y1326D02*
X548Y1326D01*
X555Y1326D02*
X561Y1326D01*
X1156Y1326D02*
X1165Y1326D01*
X1566Y1326D02*
X1573Y1326D01*
X0Y1325D02*
X7Y1325D01*
X481Y1325D02*
X487Y1325D01*
X502Y1325D02*
X508Y1325D01*
X541Y1325D02*
X548Y1325D01*
X555Y1325D02*
X561Y1325D01*
X1156Y1325D02*
X1165Y1325D01*
X1566Y1325D02*
X1573Y1325D01*
X0Y1324D02*
X7Y1324D01*
X481Y1324D02*
X487Y1324D01*
X502Y1324D02*
X508Y1324D01*
X541Y1324D02*
X548Y1324D01*
X555Y1324D02*
X561Y1324D01*
X1156Y1324D02*
X1165Y1324D01*
X1566Y1324D02*
X1573Y1324D01*
X0Y1323D02*
X7Y1323D01*
X481Y1323D02*
X487Y1323D01*
X502Y1323D02*
X508Y1323D01*
X541Y1323D02*
X548Y1323D01*
X555Y1323D02*
X561Y1323D01*
X1156Y1323D02*
X1165Y1323D01*
X1566Y1323D02*
X1573Y1323D01*
X0Y1322D02*
X7Y1322D01*
X481Y1322D02*
X487Y1322D01*
X502Y1322D02*
X508Y1322D01*
X541Y1322D02*
X548Y1322D01*
X555Y1322D02*
X561Y1322D01*
X1156Y1322D02*
X1165Y1322D01*
X1566Y1322D02*
X1573Y1322D01*
X0Y1321D02*
X7Y1321D01*
X481Y1321D02*
X487Y1321D01*
X502Y1321D02*
X508Y1321D01*
X541Y1321D02*
X548Y1321D01*
X555Y1321D02*
X561Y1321D01*
X1156Y1321D02*
X1165Y1321D01*
X1566Y1321D02*
X1573Y1321D01*
X0Y1320D02*
X7Y1320D01*
X481Y1320D02*
X487Y1320D01*
X501Y1320D02*
X508Y1320D01*
X541Y1320D02*
X548Y1320D01*
X555Y1320D02*
X561Y1320D01*
X1156Y1320D02*
X1165Y1320D01*
X1566Y1320D02*
X1573Y1320D01*
X0Y1319D02*
X7Y1319D01*
X481Y1319D02*
X488Y1319D01*
X500Y1319D02*
X507Y1319D01*
X541Y1319D02*
X548Y1319D01*
X555Y1319D02*
X561Y1319D01*
X1156Y1319D02*
X1165Y1319D01*
X1566Y1319D02*
X1573Y1319D01*
X0Y1318D02*
X7Y1318D01*
X482Y1318D02*
X507Y1318D01*
X531Y1318D02*
X561Y1318D01*
X1156Y1318D02*
X1165Y1318D01*
X1566Y1318D02*
X1573Y1318D01*
X0Y1317D02*
X7Y1317D01*
X482Y1317D02*
X507Y1317D01*
X529Y1317D02*
X561Y1317D01*
X1156Y1317D02*
X1165Y1317D01*
X1566Y1317D02*
X1573Y1317D01*
X0Y1316D02*
X7Y1316D01*
X483Y1316D02*
X506Y1316D01*
X528Y1316D02*
X561Y1316D01*
X1156Y1316D02*
X1165Y1316D01*
X1566Y1316D02*
X1573Y1316D01*
X0Y1315D02*
X7Y1315D01*
X483Y1315D02*
X505Y1315D01*
X528Y1315D02*
X561Y1315D01*
X1156Y1315D02*
X1165Y1315D01*
X1566Y1315D02*
X1573Y1315D01*
X0Y1314D02*
X7Y1314D01*
X484Y1314D02*
X504Y1314D01*
X528Y1314D02*
X561Y1314D01*
X1156Y1314D02*
X1165Y1314D01*
X1566Y1314D02*
X1573Y1314D01*
X0Y1313D02*
X7Y1313D01*
X486Y1313D02*
X503Y1313D01*
X528Y1313D02*
X561Y1313D01*
X1156Y1313D02*
X1165Y1313D01*
X1566Y1313D02*
X1573Y1313D01*
X0Y1312D02*
X7Y1312D01*
X487Y1312D02*
X501Y1312D01*
X529Y1312D02*
X560Y1312D01*
X1156Y1312D02*
X1165Y1312D01*
X1566Y1312D02*
X1573Y1312D01*
X0Y1311D02*
X7Y1311D01*
X1156Y1311D02*
X1165Y1311D01*
X1566Y1311D02*
X1573Y1311D01*
X0Y1310D02*
X7Y1310D01*
X1156Y1310D02*
X1165Y1310D01*
X1566Y1310D02*
X1573Y1310D01*
X0Y1309D02*
X7Y1309D01*
X1156Y1309D02*
X1165Y1309D01*
X1566Y1309D02*
X1573Y1309D01*
X0Y1308D02*
X7Y1308D01*
X1156Y1308D02*
X1165Y1308D01*
X1566Y1308D02*
X1573Y1308D01*
X0Y1307D02*
X7Y1307D01*
X1156Y1307D02*
X1165Y1307D01*
X1566Y1307D02*
X1573Y1307D01*
X0Y1306D02*
X7Y1306D01*
X1156Y1306D02*
X1165Y1306D01*
X1566Y1306D02*
X1573Y1306D01*
X0Y1305D02*
X7Y1305D01*
X1156Y1305D02*
X1165Y1305D01*
X1566Y1305D02*
X1573Y1305D01*
X0Y1304D02*
X7Y1304D01*
X1156Y1304D02*
X1165Y1304D01*
X1566Y1304D02*
X1573Y1304D01*
X0Y1303D02*
X7Y1303D01*
X1156Y1303D02*
X1165Y1303D01*
X1566Y1303D02*
X1573Y1303D01*
X0Y1302D02*
X7Y1302D01*
X1156Y1302D02*
X1165Y1302D01*
X1566Y1302D02*
X1573Y1302D01*
X0Y1301D02*
X7Y1301D01*
X1156Y1301D02*
X1165Y1301D01*
X1566Y1301D02*
X1573Y1301D01*
X0Y1300D02*
X7Y1300D01*
X1156Y1300D02*
X1165Y1300D01*
X1566Y1300D02*
X1573Y1300D01*
X0Y1299D02*
X7Y1299D01*
X1156Y1299D02*
X1165Y1299D01*
X1566Y1299D02*
X1573Y1299D01*
X0Y1298D02*
X7Y1298D01*
X1156Y1298D02*
X1165Y1298D01*
X1566Y1298D02*
X1573Y1298D01*
X0Y1297D02*
X7Y1297D01*
X1156Y1297D02*
X1165Y1297D01*
X1566Y1297D02*
X1573Y1297D01*
X0Y1296D02*
X7Y1296D01*
X1156Y1296D02*
X1165Y1296D01*
X1566Y1296D02*
X1573Y1296D01*
X0Y1295D02*
X7Y1295D01*
X1156Y1295D02*
X1165Y1295D01*
X1566Y1295D02*
X1573Y1295D01*
X0Y1294D02*
X7Y1294D01*
X1156Y1294D02*
X1165Y1294D01*
X1566Y1294D02*
X1573Y1294D01*
X0Y1293D02*
X7Y1293D01*
X1156Y1293D02*
X1165Y1293D01*
X1566Y1293D02*
X1573Y1293D01*
X0Y1292D02*
X7Y1292D01*
X1156Y1292D02*
X1165Y1292D01*
X1566Y1292D02*
X1573Y1292D01*
X0Y1291D02*
X7Y1291D01*
X1156Y1291D02*
X1165Y1291D01*
X1566Y1291D02*
X1573Y1291D01*
X0Y1290D02*
X7Y1290D01*
X1156Y1290D02*
X1165Y1290D01*
X1566Y1290D02*
X1573Y1290D01*
X0Y1289D02*
X7Y1289D01*
X1156Y1289D02*
X1165Y1289D01*
X1566Y1289D02*
X1573Y1289D01*
X0Y1288D02*
X7Y1288D01*
X1156Y1288D02*
X1165Y1288D01*
X1566Y1288D02*
X1573Y1288D01*
X0Y1287D02*
X7Y1287D01*
X1156Y1287D02*
X1165Y1287D01*
X1566Y1287D02*
X1573Y1287D01*
X0Y1286D02*
X7Y1286D01*
X1156Y1286D02*
X1165Y1286D01*
X1566Y1286D02*
X1573Y1286D01*
X0Y1285D02*
X7Y1285D01*
X1156Y1285D02*
X1165Y1285D01*
X1566Y1285D02*
X1573Y1285D01*
X0Y1284D02*
X7Y1284D01*
X1156Y1284D02*
X1165Y1284D01*
X1566Y1284D02*
X1573Y1284D01*
X0Y1283D02*
X7Y1283D01*
X1156Y1283D02*
X1165Y1283D01*
X1566Y1283D02*
X1573Y1283D01*
X0Y1282D02*
X7Y1282D01*
X1156Y1282D02*
X1165Y1282D01*
X1566Y1282D02*
X1573Y1282D01*
X0Y1281D02*
X7Y1281D01*
X1156Y1281D02*
X1165Y1281D01*
X1566Y1281D02*
X1573Y1281D01*
X0Y1280D02*
X7Y1280D01*
X1156Y1280D02*
X1165Y1280D01*
X1566Y1280D02*
X1573Y1280D01*
X0Y1279D02*
X7Y1279D01*
X1156Y1279D02*
X1165Y1279D01*
X1566Y1279D02*
X1573Y1279D01*
X0Y1278D02*
X7Y1278D01*
X1156Y1278D02*
X1165Y1278D01*
X1566Y1278D02*
X1573Y1278D01*
X0Y1277D02*
X7Y1277D01*
X1156Y1277D02*
X1165Y1277D01*
X1566Y1277D02*
X1573Y1277D01*
X0Y1276D02*
X7Y1276D01*
X1156Y1276D02*
X1165Y1276D01*
X1566Y1276D02*
X1573Y1276D01*
X0Y1275D02*
X7Y1275D01*
X1156Y1275D02*
X1165Y1275D01*
X1566Y1275D02*
X1573Y1275D01*
X0Y1274D02*
X7Y1274D01*
X1156Y1274D02*
X1165Y1274D01*
X1566Y1274D02*
X1573Y1274D01*
X0Y1273D02*
X7Y1273D01*
X1156Y1273D02*
X1165Y1273D01*
X1566Y1273D02*
X1573Y1273D01*
X0Y1272D02*
X7Y1272D01*
X1156Y1272D02*
X1165Y1272D01*
X1566Y1272D02*
X1573Y1272D01*
X0Y1271D02*
X7Y1271D01*
X1156Y1271D02*
X1165Y1271D01*
X1566Y1271D02*
X1573Y1271D01*
X0Y1270D02*
X7Y1270D01*
X1156Y1270D02*
X1165Y1270D01*
X1566Y1270D02*
X1573Y1270D01*
X0Y1269D02*
X7Y1269D01*
X1156Y1269D02*
X1165Y1269D01*
X1566Y1269D02*
X1573Y1269D01*
X0Y1268D02*
X7Y1268D01*
X1156Y1268D02*
X1165Y1268D01*
X1566Y1268D02*
X1573Y1268D01*
X0Y1267D02*
X7Y1267D01*
X1156Y1267D02*
X1165Y1267D01*
X1566Y1267D02*
X1573Y1267D01*
X0Y1266D02*
X7Y1266D01*
X1156Y1266D02*
X1165Y1266D01*
X1566Y1266D02*
X1573Y1266D01*
X0Y1265D02*
X7Y1265D01*
X1156Y1265D02*
X1165Y1265D01*
X1566Y1265D02*
X1573Y1265D01*
X0Y1264D02*
X7Y1264D01*
X1156Y1264D02*
X1165Y1264D01*
X1566Y1264D02*
X1573Y1264D01*
X0Y1263D02*
X7Y1263D01*
X1156Y1263D02*
X1165Y1263D01*
X1566Y1263D02*
X1573Y1263D01*
X0Y1262D02*
X7Y1262D01*
X1156Y1262D02*
X1165Y1262D01*
X1566Y1262D02*
X1573Y1262D01*
X0Y1261D02*
X7Y1261D01*
X1156Y1261D02*
X1165Y1261D01*
X1566Y1261D02*
X1573Y1261D01*
X0Y1260D02*
X7Y1260D01*
X1156Y1260D02*
X1165Y1260D01*
X1566Y1260D02*
X1573Y1260D01*
X0Y1259D02*
X7Y1259D01*
X1156Y1259D02*
X1165Y1259D01*
X1566Y1259D02*
X1573Y1259D01*
X0Y1258D02*
X7Y1258D01*
X1156Y1258D02*
X1165Y1258D01*
X1566Y1258D02*
X1573Y1258D01*
X0Y1257D02*
X7Y1257D01*
X1156Y1257D02*
X1165Y1257D01*
X1566Y1257D02*
X1573Y1257D01*
X0Y1256D02*
X7Y1256D01*
X1156Y1256D02*
X1165Y1256D01*
X1566Y1256D02*
X1573Y1256D01*
X0Y1255D02*
X7Y1255D01*
X1156Y1255D02*
X1165Y1255D01*
X1566Y1255D02*
X1573Y1255D01*
X0Y1254D02*
X7Y1254D01*
X1156Y1254D02*
X1165Y1254D01*
X1566Y1254D02*
X1573Y1254D01*
X0Y1253D02*
X7Y1253D01*
X1156Y1253D02*
X1165Y1253D01*
X1566Y1253D02*
X1573Y1253D01*
X0Y1252D02*
X7Y1252D01*
X1156Y1252D02*
X1165Y1252D01*
X1566Y1252D02*
X1573Y1252D01*
X0Y1251D02*
X7Y1251D01*
X1156Y1251D02*
X1165Y1251D01*
X1566Y1251D02*
X1573Y1251D01*
X0Y1250D02*
X7Y1250D01*
X1156Y1250D02*
X1165Y1250D01*
X1566Y1250D02*
X1573Y1250D01*
X0Y1249D02*
X7Y1249D01*
X1156Y1249D02*
X1165Y1249D01*
X1566Y1249D02*
X1573Y1249D01*
X0Y1248D02*
X7Y1248D01*
X1156Y1248D02*
X1165Y1248D01*
X1566Y1248D02*
X1573Y1248D01*
X0Y1247D02*
X7Y1247D01*
X1156Y1247D02*
X1165Y1247D01*
X1566Y1247D02*
X1573Y1247D01*
X0Y1246D02*
X7Y1246D01*
X1156Y1246D02*
X1165Y1246D01*
X1566Y1246D02*
X1573Y1246D01*
X0Y1245D02*
X7Y1245D01*
X1156Y1245D02*
X1165Y1245D01*
X1566Y1245D02*
X1573Y1245D01*
X0Y1244D02*
X7Y1244D01*
X1156Y1244D02*
X1165Y1244D01*
X1566Y1244D02*
X1573Y1244D01*
X0Y1243D02*
X7Y1243D01*
X1156Y1243D02*
X1165Y1243D01*
X1566Y1243D02*
X1573Y1243D01*
X0Y1242D02*
X7Y1242D01*
X1156Y1242D02*
X1165Y1242D01*
X1566Y1242D02*
X1573Y1242D01*
X0Y1241D02*
X7Y1241D01*
X1156Y1241D02*
X1165Y1241D01*
X1566Y1241D02*
X1573Y1241D01*
X0Y1240D02*
X7Y1240D01*
X1156Y1240D02*
X1165Y1240D01*
X1566Y1240D02*
X1573Y1240D01*
X0Y1239D02*
X7Y1239D01*
X1156Y1239D02*
X1165Y1239D01*
X1566Y1239D02*
X1573Y1239D01*
X0Y1238D02*
X7Y1238D01*
X1156Y1238D02*
X1165Y1238D01*
X1566Y1238D02*
X1573Y1238D01*
X0Y1237D02*
X7Y1237D01*
X1156Y1237D02*
X1165Y1237D01*
X1566Y1237D02*
X1573Y1237D01*
X0Y1236D02*
X7Y1236D01*
X1156Y1236D02*
X1165Y1236D01*
X1566Y1236D02*
X1573Y1236D01*
X0Y1235D02*
X7Y1235D01*
X1156Y1235D02*
X1165Y1235D01*
X1566Y1235D02*
X1573Y1235D01*
X0Y1234D02*
X7Y1234D01*
X1156Y1234D02*
X1165Y1234D01*
X1566Y1234D02*
X1573Y1234D01*
X0Y1233D02*
X7Y1233D01*
X1156Y1233D02*
X1165Y1233D01*
X1566Y1233D02*
X1573Y1233D01*
X0Y1232D02*
X7Y1232D01*
X1156Y1232D02*
X1165Y1232D01*
X1566Y1232D02*
X1573Y1232D01*
X0Y1231D02*
X7Y1231D01*
X1156Y1231D02*
X1165Y1231D01*
X1566Y1231D02*
X1573Y1231D01*
X0Y1230D02*
X7Y1230D01*
X1156Y1230D02*
X1165Y1230D01*
X1566Y1230D02*
X1573Y1230D01*
X0Y1229D02*
X7Y1229D01*
X1156Y1229D02*
X1165Y1229D01*
X1566Y1229D02*
X1573Y1229D01*
X0Y1228D02*
X7Y1228D01*
X1156Y1228D02*
X1165Y1228D01*
X1566Y1228D02*
X1573Y1228D01*
X0Y1227D02*
X7Y1227D01*
X1156Y1227D02*
X1165Y1227D01*
X1566Y1227D02*
X1573Y1227D01*
X0Y1226D02*
X7Y1226D01*
X1156Y1226D02*
X1165Y1226D01*
X1566Y1226D02*
X1573Y1226D01*
X0Y1225D02*
X7Y1225D01*
X1156Y1225D02*
X1165Y1225D01*
X1566Y1225D02*
X1573Y1225D01*
X0Y1224D02*
X7Y1224D01*
X1156Y1224D02*
X1165Y1224D01*
X1566Y1224D02*
X1573Y1224D01*
X0Y1223D02*
X7Y1223D01*
X1156Y1223D02*
X1165Y1223D01*
X1566Y1223D02*
X1573Y1223D01*
X0Y1222D02*
X7Y1222D01*
X1156Y1222D02*
X1165Y1222D01*
X1566Y1222D02*
X1573Y1222D01*
X0Y1221D02*
X7Y1221D01*
X1156Y1221D02*
X1165Y1221D01*
X1566Y1221D02*
X1573Y1221D01*
X0Y1220D02*
X7Y1220D01*
X1156Y1220D02*
X1165Y1220D01*
X1566Y1220D02*
X1573Y1220D01*
X0Y1219D02*
X7Y1219D01*
X1156Y1219D02*
X1165Y1219D01*
X1566Y1219D02*
X1573Y1219D01*
X0Y1218D02*
X7Y1218D01*
X1156Y1218D02*
X1165Y1218D01*
X1566Y1218D02*
X1573Y1218D01*
X0Y1217D02*
X7Y1217D01*
X1156Y1217D02*
X1165Y1217D01*
X1566Y1217D02*
X1573Y1217D01*
X0Y1216D02*
X7Y1216D01*
X1156Y1216D02*
X1165Y1216D01*
X1566Y1216D02*
X1573Y1216D01*
X0Y1215D02*
X7Y1215D01*
X1156Y1215D02*
X1165Y1215D01*
X1566Y1215D02*
X1573Y1215D01*
X0Y1214D02*
X7Y1214D01*
X1156Y1214D02*
X1165Y1214D01*
X1566Y1214D02*
X1573Y1214D01*
X0Y1213D02*
X7Y1213D01*
X1156Y1213D02*
X1165Y1213D01*
X1566Y1213D02*
X1573Y1213D01*
X0Y1212D02*
X7Y1212D01*
X1156Y1212D02*
X1165Y1212D01*
X1566Y1212D02*
X1573Y1212D01*
X0Y1211D02*
X7Y1211D01*
X1156Y1211D02*
X1165Y1211D01*
X1566Y1211D02*
X1573Y1211D01*
X0Y1210D02*
X7Y1210D01*
X1156Y1210D02*
X1165Y1210D01*
X1566Y1210D02*
X1573Y1210D01*
X0Y1209D02*
X7Y1209D01*
X1156Y1209D02*
X1165Y1209D01*
X1566Y1209D02*
X1573Y1209D01*
X0Y1208D02*
X7Y1208D01*
X1156Y1208D02*
X1165Y1208D01*
X1566Y1208D02*
X1573Y1208D01*
X0Y1207D02*
X7Y1207D01*
X1156Y1207D02*
X1165Y1207D01*
X1566Y1207D02*
X1573Y1207D01*
X0Y1206D02*
X7Y1206D01*
X1156Y1206D02*
X1165Y1206D01*
X1566Y1206D02*
X1573Y1206D01*
X0Y1205D02*
X7Y1205D01*
X1156Y1205D02*
X1165Y1205D01*
X1566Y1205D02*
X1573Y1205D01*
X0Y1204D02*
X7Y1204D01*
X1156Y1204D02*
X1165Y1204D01*
X1566Y1204D02*
X1573Y1204D01*
X0Y1203D02*
X7Y1203D01*
X1156Y1203D02*
X1165Y1203D01*
X1566Y1203D02*
X1573Y1203D01*
X0Y1202D02*
X7Y1202D01*
X1156Y1202D02*
X1165Y1202D01*
X1566Y1202D02*
X1573Y1202D01*
X0Y1201D02*
X7Y1201D01*
X1156Y1201D02*
X1165Y1201D01*
X1566Y1201D02*
X1573Y1201D01*
X0Y1200D02*
X7Y1200D01*
X1156Y1200D02*
X1165Y1200D01*
X1566Y1200D02*
X1573Y1200D01*
X0Y1199D02*
X7Y1199D01*
X1156Y1199D02*
X1165Y1199D01*
X1566Y1199D02*
X1573Y1199D01*
X0Y1198D02*
X7Y1198D01*
X1156Y1198D02*
X1165Y1198D01*
X1566Y1198D02*
X1573Y1198D01*
X0Y1197D02*
X7Y1197D01*
X1156Y1197D02*
X1165Y1197D01*
X1566Y1197D02*
X1573Y1197D01*
X0Y1196D02*
X7Y1196D01*
X1156Y1196D02*
X1165Y1196D01*
X1566Y1196D02*
X1573Y1196D01*
X0Y1195D02*
X7Y1195D01*
X1156Y1195D02*
X1165Y1195D01*
X1566Y1195D02*
X1573Y1195D01*
X0Y1194D02*
X7Y1194D01*
X1156Y1194D02*
X1165Y1194D01*
X1566Y1194D02*
X1573Y1194D01*
X0Y1193D02*
X7Y1193D01*
X1156Y1193D02*
X1165Y1193D01*
X1566Y1193D02*
X1573Y1193D01*
X0Y1192D02*
X7Y1192D01*
X31Y1192D02*
X62Y1192D01*
X109Y1192D02*
X112Y1192D01*
X144Y1192D02*
X150Y1192D01*
X1156Y1192D02*
X1165Y1192D01*
X1566Y1192D02*
X1573Y1192D01*
X0Y1191D02*
X7Y1191D01*
X30Y1191D02*
X63Y1191D01*
X108Y1191D02*
X113Y1191D01*
X142Y1191D02*
X152Y1191D01*
X1156Y1191D02*
X1165Y1191D01*
X1566Y1191D02*
X1573Y1191D01*
X0Y1190D02*
X7Y1190D01*
X30Y1190D02*
X63Y1190D01*
X107Y1190D02*
X114Y1190D01*
X141Y1190D02*
X153Y1190D01*
X1156Y1190D02*
X1165Y1190D01*
X1566Y1190D02*
X1573Y1190D01*
X0Y1189D02*
X7Y1189D01*
X30Y1189D02*
X63Y1189D01*
X107Y1189D02*
X114Y1189D01*
X140Y1189D02*
X154Y1189D01*
X1156Y1189D02*
X1165Y1189D01*
X1566Y1189D02*
X1573Y1189D01*
X0Y1188D02*
X7Y1188D01*
X30Y1188D02*
X63Y1188D01*
X106Y1188D02*
X113Y1188D01*
X139Y1188D02*
X155Y1188D01*
X1156Y1188D02*
X1165Y1188D01*
X1566Y1188D02*
X1573Y1188D01*
X0Y1187D02*
X7Y1187D01*
X31Y1187D02*
X62Y1187D01*
X106Y1187D02*
X113Y1187D01*
X139Y1187D02*
X155Y1187D01*
X1156Y1187D02*
X1165Y1187D01*
X1566Y1187D02*
X1573Y1187D01*
X0Y1186D02*
X7Y1186D01*
X33Y1186D02*
X60Y1186D01*
X105Y1186D02*
X112Y1186D01*
X138Y1186D02*
X156Y1186D01*
X1156Y1186D02*
X1165Y1186D01*
X1566Y1186D02*
X1573Y1186D01*
X0Y1185D02*
X7Y1185D01*
X44Y1185D02*
X50Y1185D01*
X104Y1185D02*
X112Y1185D01*
X138Y1185D02*
X145Y1185D01*
X149Y1185D02*
X156Y1185D01*
X1156Y1185D02*
X1165Y1185D01*
X1566Y1185D02*
X1573Y1185D01*
X0Y1184D02*
X7Y1184D01*
X44Y1184D02*
X50Y1184D01*
X104Y1184D02*
X111Y1184D01*
X137Y1184D02*
X144Y1184D01*
X150Y1184D02*
X157Y1184D01*
X1156Y1184D02*
X1165Y1184D01*
X1566Y1184D02*
X1573Y1184D01*
X0Y1183D02*
X7Y1183D01*
X44Y1183D02*
X50Y1183D01*
X103Y1183D02*
X111Y1183D01*
X137Y1183D02*
X144Y1183D01*
X150Y1183D02*
X157Y1183D01*
X1156Y1183D02*
X1165Y1183D01*
X1566Y1183D02*
X1573Y1183D01*
X0Y1182D02*
X7Y1182D01*
X44Y1182D02*
X50Y1182D01*
X103Y1182D02*
X110Y1182D01*
X136Y1182D02*
X143Y1182D01*
X151Y1182D02*
X158Y1182D01*
X1156Y1182D02*
X1165Y1182D01*
X1566Y1182D02*
X1573Y1182D01*
X0Y1181D02*
X7Y1181D01*
X44Y1181D02*
X50Y1181D01*
X102Y1181D02*
X109Y1181D01*
X136Y1181D02*
X143Y1181D01*
X151Y1181D02*
X158Y1181D01*
X1156Y1181D02*
X1165Y1181D01*
X1566Y1181D02*
X1573Y1181D01*
X0Y1180D02*
X7Y1180D01*
X44Y1180D02*
X50Y1180D01*
X102Y1180D02*
X109Y1180D01*
X135Y1180D02*
X142Y1180D01*
X152Y1180D02*
X159Y1180D01*
X1156Y1180D02*
X1165Y1180D01*
X1566Y1180D02*
X1573Y1180D01*
X0Y1179D02*
X7Y1179D01*
X44Y1179D02*
X50Y1179D01*
X101Y1179D02*
X108Y1179D01*
X135Y1179D02*
X142Y1179D01*
X152Y1179D02*
X159Y1179D01*
X1156Y1179D02*
X1165Y1179D01*
X1566Y1179D02*
X1573Y1179D01*
X0Y1178D02*
X7Y1178D01*
X44Y1178D02*
X50Y1178D01*
X100Y1178D02*
X108Y1178D01*
X134Y1178D02*
X141Y1178D01*
X153Y1178D02*
X160Y1178D01*
X1156Y1178D02*
X1165Y1178D01*
X1566Y1178D02*
X1573Y1178D01*
X0Y1177D02*
X7Y1177D01*
X44Y1177D02*
X50Y1177D01*
X100Y1177D02*
X107Y1177D01*
X134Y1177D02*
X141Y1177D01*
X153Y1177D02*
X160Y1177D01*
X1156Y1177D02*
X1165Y1177D01*
X1566Y1177D02*
X1573Y1177D01*
X0Y1176D02*
X7Y1176D01*
X44Y1176D02*
X50Y1176D01*
X99Y1176D02*
X106Y1176D01*
X133Y1176D02*
X140Y1176D01*
X154Y1176D02*
X161Y1176D01*
X1156Y1176D02*
X1165Y1176D01*
X1566Y1176D02*
X1573Y1176D01*
X0Y1175D02*
X7Y1175D01*
X44Y1175D02*
X50Y1175D01*
X99Y1175D02*
X106Y1175D01*
X133Y1175D02*
X140Y1175D01*
X154Y1175D02*
X161Y1175D01*
X1156Y1175D02*
X1165Y1175D01*
X1566Y1175D02*
X1573Y1175D01*
X0Y1174D02*
X7Y1174D01*
X44Y1174D02*
X50Y1174D01*
X98Y1174D02*
X105Y1174D01*
X132Y1174D02*
X139Y1174D01*
X155Y1174D02*
X162Y1174D01*
X1156Y1174D02*
X1165Y1174D01*
X1566Y1174D02*
X1573Y1174D01*
X0Y1173D02*
X7Y1173D01*
X44Y1173D02*
X50Y1173D01*
X97Y1173D02*
X105Y1173D01*
X132Y1173D02*
X139Y1173D01*
X155Y1173D02*
X162Y1173D01*
X1156Y1173D02*
X1165Y1173D01*
X1566Y1173D02*
X1573Y1173D01*
X0Y1172D02*
X7Y1172D01*
X44Y1172D02*
X50Y1172D01*
X97Y1172D02*
X104Y1172D01*
X132Y1172D02*
X138Y1172D01*
X156Y1172D02*
X163Y1172D01*
X1156Y1172D02*
X1165Y1172D01*
X1566Y1172D02*
X1573Y1172D01*
X0Y1171D02*
X7Y1171D01*
X44Y1171D02*
X50Y1171D01*
X96Y1171D02*
X103Y1171D01*
X131Y1171D02*
X138Y1171D01*
X156Y1171D02*
X163Y1171D01*
X1156Y1171D02*
X1165Y1171D01*
X1566Y1171D02*
X1573Y1171D01*
X0Y1170D02*
X7Y1170D01*
X44Y1170D02*
X50Y1170D01*
X96Y1170D02*
X103Y1170D01*
X131Y1170D02*
X137Y1170D01*
X157Y1170D02*
X163Y1170D01*
X1156Y1170D02*
X1165Y1170D01*
X1566Y1170D02*
X1573Y1170D01*
X0Y1169D02*
X7Y1169D01*
X44Y1169D02*
X50Y1169D01*
X95Y1169D02*
X102Y1169D01*
X131Y1169D02*
X137Y1169D01*
X157Y1169D02*
X164Y1169D01*
X1156Y1169D02*
X1165Y1169D01*
X1566Y1169D02*
X1573Y1169D01*
X0Y1168D02*
X7Y1168D01*
X44Y1168D02*
X50Y1168D01*
X95Y1168D02*
X102Y1168D01*
X130Y1168D02*
X137Y1168D01*
X158Y1168D02*
X164Y1168D01*
X1156Y1168D02*
X1165Y1168D01*
X1566Y1168D02*
X1573Y1168D01*
X0Y1167D02*
X7Y1167D01*
X44Y1167D02*
X50Y1167D01*
X94Y1167D02*
X101Y1167D01*
X130Y1167D02*
X136Y1167D01*
X158Y1167D02*
X164Y1167D01*
X1156Y1167D02*
X1165Y1167D01*
X1566Y1167D02*
X1573Y1167D01*
X0Y1166D02*
X7Y1166D01*
X44Y1166D02*
X50Y1166D01*
X93Y1166D02*
X101Y1166D01*
X130Y1166D02*
X136Y1166D01*
X158Y1166D02*
X164Y1166D01*
X1156Y1166D02*
X1165Y1166D01*
X1566Y1166D02*
X1573Y1166D01*
X0Y1165D02*
X7Y1165D01*
X44Y1165D02*
X50Y1165D01*
X93Y1165D02*
X100Y1165D01*
X130Y1165D02*
X136Y1165D01*
X158Y1165D02*
X164Y1165D01*
X1156Y1165D02*
X1165Y1165D01*
X1566Y1165D02*
X1573Y1165D01*
X0Y1164D02*
X7Y1164D01*
X44Y1164D02*
X50Y1164D01*
X92Y1164D02*
X99Y1164D01*
X130Y1164D02*
X137Y1164D01*
X158Y1164D02*
X164Y1164D01*
X1156Y1164D02*
X1165Y1164D01*
X1566Y1164D02*
X1573Y1164D01*
X0Y1163D02*
X7Y1163D01*
X44Y1163D02*
X50Y1163D01*
X92Y1163D02*
X99Y1163D01*
X131Y1163D02*
X137Y1163D01*
X157Y1163D02*
X164Y1163D01*
X1156Y1163D02*
X1165Y1163D01*
X1566Y1163D02*
X1573Y1163D01*
X0Y1162D02*
X7Y1162D01*
X44Y1162D02*
X50Y1162D01*
X91Y1162D02*
X98Y1162D01*
X131Y1162D02*
X137Y1162D01*
X157Y1162D02*
X163Y1162D01*
X1156Y1162D02*
X1165Y1162D01*
X1566Y1162D02*
X1573Y1162D01*
X0Y1161D02*
X7Y1161D01*
X44Y1161D02*
X50Y1161D01*
X90Y1161D02*
X98Y1161D01*
X131Y1161D02*
X138Y1161D01*
X156Y1161D02*
X163Y1161D01*
X1156Y1161D02*
X1165Y1161D01*
X1566Y1161D02*
X1573Y1161D01*
X0Y1160D02*
X7Y1160D01*
X44Y1160D02*
X50Y1160D01*
X90Y1160D02*
X97Y1160D01*
X132Y1160D02*
X138Y1160D01*
X156Y1160D02*
X163Y1160D01*
X1156Y1160D02*
X1165Y1160D01*
X1566Y1160D02*
X1573Y1160D01*
X0Y1159D02*
X7Y1159D01*
X44Y1159D02*
X50Y1159D01*
X89Y1159D02*
X96Y1159D01*
X132Y1159D02*
X139Y1159D01*
X155Y1159D02*
X162Y1159D01*
X1156Y1159D02*
X1165Y1159D01*
X1566Y1159D02*
X1573Y1159D01*
X0Y1158D02*
X7Y1158D01*
X44Y1158D02*
X50Y1158D01*
X89Y1158D02*
X96Y1158D01*
X132Y1158D02*
X139Y1158D01*
X155Y1158D02*
X162Y1158D01*
X1156Y1158D02*
X1165Y1158D01*
X1566Y1158D02*
X1573Y1158D01*
X0Y1157D02*
X7Y1157D01*
X44Y1157D02*
X50Y1157D01*
X88Y1157D02*
X95Y1157D01*
X133Y1157D02*
X140Y1157D01*
X154Y1157D02*
X161Y1157D01*
X1156Y1157D02*
X1165Y1157D01*
X1566Y1157D02*
X1573Y1157D01*
X0Y1156D02*
X7Y1156D01*
X44Y1156D02*
X50Y1156D01*
X88Y1156D02*
X95Y1156D01*
X133Y1156D02*
X140Y1156D01*
X154Y1156D02*
X161Y1156D01*
X1156Y1156D02*
X1165Y1156D01*
X1566Y1156D02*
X1573Y1156D01*
X0Y1155D02*
X7Y1155D01*
X44Y1155D02*
X50Y1155D01*
X87Y1155D02*
X94Y1155D01*
X134Y1155D02*
X141Y1155D01*
X153Y1155D02*
X160Y1155D01*
X1156Y1155D02*
X1165Y1155D01*
X1566Y1155D02*
X1573Y1155D01*
X0Y1154D02*
X7Y1154D01*
X44Y1154D02*
X50Y1154D01*
X86Y1154D02*
X94Y1154D01*
X134Y1154D02*
X141Y1154D01*
X153Y1154D02*
X160Y1154D01*
X1156Y1154D02*
X1165Y1154D01*
X1566Y1154D02*
X1573Y1154D01*
X0Y1153D02*
X7Y1153D01*
X44Y1153D02*
X50Y1153D01*
X86Y1153D02*
X93Y1153D01*
X135Y1153D02*
X142Y1153D01*
X153Y1153D02*
X159Y1153D01*
X1156Y1153D02*
X1165Y1153D01*
X1566Y1153D02*
X1573Y1153D01*
X0Y1152D02*
X7Y1152D01*
X44Y1152D02*
X50Y1152D01*
X85Y1152D02*
X92Y1152D01*
X135Y1152D02*
X142Y1152D01*
X152Y1152D02*
X159Y1152D01*
X1156Y1152D02*
X1165Y1152D01*
X1566Y1152D02*
X1573Y1152D01*
X0Y1151D02*
X7Y1151D01*
X44Y1151D02*
X50Y1151D01*
X85Y1151D02*
X92Y1151D01*
X136Y1151D02*
X143Y1151D01*
X152Y1151D02*
X158Y1151D01*
X1156Y1151D02*
X1165Y1151D01*
X1566Y1151D02*
X1573Y1151D01*
X0Y1150D02*
X7Y1150D01*
X44Y1150D02*
X50Y1150D01*
X84Y1150D02*
X91Y1150D01*
X136Y1150D02*
X143Y1150D01*
X151Y1150D02*
X158Y1150D01*
X1156Y1150D02*
X1165Y1150D01*
X1566Y1150D02*
X1573Y1150D01*
X0Y1149D02*
X7Y1149D01*
X44Y1149D02*
X50Y1149D01*
X83Y1149D02*
X91Y1149D01*
X137Y1149D02*
X144Y1149D01*
X151Y1149D02*
X157Y1149D01*
X1156Y1149D02*
X1165Y1149D01*
X1566Y1149D02*
X1573Y1149D01*
X0Y1148D02*
X7Y1148D01*
X44Y1148D02*
X50Y1148D01*
X83Y1148D02*
X90Y1148D01*
X137Y1148D02*
X144Y1148D01*
X150Y1148D02*
X157Y1148D01*
X1156Y1148D02*
X1165Y1148D01*
X1566Y1148D02*
X1573Y1148D01*
X0Y1147D02*
X7Y1147D01*
X44Y1147D02*
X50Y1147D01*
X82Y1147D02*
X89Y1147D01*
X138Y1147D02*
X145Y1147D01*
X149Y1147D02*
X156Y1147D01*
X1156Y1147D02*
X1165Y1147D01*
X1566Y1147D02*
X1573Y1147D01*
X0Y1146D02*
X7Y1146D01*
X43Y1146D02*
X50Y1146D01*
X82Y1146D02*
X89Y1146D01*
X138Y1146D02*
X146Y1146D01*
X148Y1146D02*
X156Y1146D01*
X1156Y1146D02*
X1165Y1146D01*
X1566Y1146D02*
X1573Y1146D01*
X0Y1145D02*
X7Y1145D01*
X31Y1145D02*
X62Y1145D01*
X81Y1145D02*
X88Y1145D01*
X139Y1145D02*
X155Y1145D01*
X1156Y1145D02*
X1165Y1145D01*
X1566Y1145D02*
X1573Y1145D01*
X0Y1144D02*
X7Y1144D01*
X30Y1144D02*
X63Y1144D01*
X81Y1144D02*
X88Y1144D01*
X139Y1144D02*
X155Y1144D01*
X1156Y1144D02*
X1165Y1144D01*
X1566Y1144D02*
X1573Y1144D01*
X0Y1143D02*
X7Y1143D01*
X30Y1143D02*
X63Y1143D01*
X80Y1143D02*
X87Y1143D01*
X140Y1143D02*
X154Y1143D01*
X1156Y1143D02*
X1165Y1143D01*
X1566Y1143D02*
X1573Y1143D01*
X0Y1142D02*
X7Y1142D01*
X30Y1142D02*
X63Y1142D01*
X80Y1142D02*
X87Y1142D01*
X141Y1142D02*
X153Y1142D01*
X1156Y1142D02*
X1165Y1142D01*
X1566Y1142D02*
X1573Y1142D01*
X0Y1141D02*
X7Y1141D01*
X30Y1141D02*
X63Y1141D01*
X80Y1141D02*
X86Y1141D01*
X142Y1141D02*
X152Y1141D01*
X1156Y1141D02*
X1165Y1141D01*
X1566Y1141D02*
X1573Y1141D01*
X0Y1140D02*
X7Y1140D01*
X31Y1140D02*
X63Y1140D01*
X81Y1140D02*
X85Y1140D01*
X143Y1140D02*
X151Y1140D01*
X1156Y1140D02*
X1165Y1140D01*
X1566Y1140D02*
X1573Y1140D01*
X0Y1139D02*
X7Y1139D01*
X32Y1139D02*
X61Y1139D01*
X83Y1139D02*
X84Y1139D01*
X146Y1139D02*
X148Y1139D01*
X1156Y1139D02*
X1165Y1139D01*
X1566Y1139D02*
X1573Y1139D01*
X0Y1138D02*
X7Y1138D01*
X1156Y1138D02*
X1165Y1138D01*
X1566Y1138D02*
X1573Y1138D01*
X0Y1137D02*
X7Y1137D01*
X1156Y1137D02*
X1165Y1137D01*
X1566Y1137D02*
X1573Y1137D01*
X0Y1136D02*
X7Y1136D01*
X1156Y1136D02*
X1165Y1136D01*
X1566Y1136D02*
X1573Y1136D01*
X0Y1135D02*
X7Y1135D01*
X1156Y1135D02*
X1165Y1135D01*
X1566Y1135D02*
X1573Y1135D01*
X0Y1134D02*
X7Y1134D01*
X1156Y1134D02*
X1165Y1134D01*
X1566Y1134D02*
X1573Y1134D01*
X0Y1133D02*
X7Y1133D01*
X1156Y1133D02*
X1165Y1133D01*
X1566Y1133D02*
X1573Y1133D01*
X0Y1132D02*
X7Y1132D01*
X1156Y1132D02*
X1165Y1132D01*
X1566Y1132D02*
X1573Y1132D01*
X0Y1131D02*
X7Y1131D01*
X1156Y1131D02*
X1165Y1131D01*
X1566Y1131D02*
X1573Y1131D01*
X0Y1130D02*
X7Y1130D01*
X1156Y1130D02*
X1165Y1130D01*
X1566Y1130D02*
X1573Y1130D01*
X0Y1129D02*
X7Y1129D01*
X1156Y1129D02*
X1165Y1129D01*
X1566Y1129D02*
X1573Y1129D01*
X0Y1128D02*
X7Y1128D01*
X1156Y1128D02*
X1165Y1128D01*
X1566Y1128D02*
X1573Y1128D01*
X0Y1127D02*
X7Y1127D01*
X1156Y1127D02*
X1165Y1127D01*
X1566Y1127D02*
X1573Y1127D01*
X0Y1126D02*
X7Y1126D01*
X1156Y1126D02*
X1165Y1126D01*
X1566Y1126D02*
X1573Y1126D01*
X0Y1125D02*
X7Y1125D01*
X1156Y1125D02*
X1165Y1125D01*
X1566Y1125D02*
X1573Y1125D01*
X0Y1124D02*
X7Y1124D01*
X1156Y1124D02*
X1165Y1124D01*
X1566Y1124D02*
X1573Y1124D01*
X0Y1123D02*
X7Y1123D01*
X1156Y1123D02*
X1165Y1123D01*
X1566Y1123D02*
X1573Y1123D01*
X0Y1122D02*
X7Y1122D01*
X1156Y1122D02*
X1165Y1122D01*
X1566Y1122D02*
X1573Y1122D01*
X0Y1121D02*
X7Y1121D01*
X1156Y1121D02*
X1165Y1121D01*
X1566Y1121D02*
X1573Y1121D01*
X0Y1120D02*
X7Y1120D01*
X1156Y1120D02*
X1165Y1120D01*
X1566Y1120D02*
X1573Y1120D01*
X0Y1119D02*
X7Y1119D01*
X1156Y1119D02*
X1165Y1119D01*
X1566Y1119D02*
X1573Y1119D01*
X0Y1118D02*
X7Y1118D01*
X1156Y1118D02*
X1165Y1118D01*
X1566Y1118D02*
X1573Y1118D01*
X0Y1117D02*
X7Y1117D01*
X1156Y1117D02*
X1165Y1117D01*
X1566Y1117D02*
X1573Y1117D01*
X0Y1116D02*
X7Y1116D01*
X1156Y1116D02*
X1165Y1116D01*
X1566Y1116D02*
X1573Y1116D01*
X0Y1115D02*
X7Y1115D01*
X1156Y1115D02*
X1165Y1115D01*
X1566Y1115D02*
X1573Y1115D01*
X0Y1114D02*
X7Y1114D01*
X1156Y1114D02*
X1165Y1114D01*
X1566Y1114D02*
X1573Y1114D01*
X0Y1113D02*
X7Y1113D01*
X1156Y1113D02*
X1165Y1113D01*
X1566Y1113D02*
X1573Y1113D01*
X0Y1112D02*
X7Y1112D01*
X1156Y1112D02*
X1165Y1112D01*
X1566Y1112D02*
X1573Y1112D01*
X0Y1111D02*
X7Y1111D01*
X1156Y1111D02*
X1165Y1111D01*
X1566Y1111D02*
X1573Y1111D01*
X0Y1110D02*
X7Y1110D01*
X1156Y1110D02*
X1165Y1110D01*
X1566Y1110D02*
X1573Y1110D01*
X0Y1109D02*
X7Y1109D01*
X1156Y1109D02*
X1165Y1109D01*
X1566Y1109D02*
X1573Y1109D01*
X0Y1108D02*
X7Y1108D01*
X1156Y1108D02*
X1165Y1108D01*
X1566Y1108D02*
X1573Y1108D01*
X0Y1107D02*
X7Y1107D01*
X1156Y1107D02*
X1165Y1107D01*
X1566Y1107D02*
X1573Y1107D01*
X0Y1106D02*
X7Y1106D01*
X1156Y1106D02*
X1165Y1106D01*
X1566Y1106D02*
X1573Y1106D01*
X0Y1105D02*
X7Y1105D01*
X1156Y1105D02*
X1165Y1105D01*
X1566Y1105D02*
X1573Y1105D01*
X0Y1104D02*
X7Y1104D01*
X1156Y1104D02*
X1165Y1104D01*
X1566Y1104D02*
X1573Y1104D01*
X0Y1103D02*
X7Y1103D01*
X1156Y1103D02*
X1165Y1103D01*
X1566Y1103D02*
X1573Y1103D01*
X0Y1102D02*
X7Y1102D01*
X1156Y1102D02*
X1165Y1102D01*
X1566Y1102D02*
X1573Y1102D01*
X0Y1101D02*
X7Y1101D01*
X1156Y1101D02*
X1165Y1101D01*
X1566Y1101D02*
X1573Y1101D01*
X0Y1100D02*
X7Y1100D01*
X1156Y1100D02*
X1165Y1100D01*
X1566Y1100D02*
X1573Y1100D01*
X0Y1099D02*
X7Y1099D01*
X1156Y1099D02*
X1165Y1099D01*
X1566Y1099D02*
X1573Y1099D01*
X0Y1098D02*
X7Y1098D01*
X1156Y1098D02*
X1165Y1098D01*
X1566Y1098D02*
X1573Y1098D01*
X0Y1097D02*
X7Y1097D01*
X1156Y1097D02*
X1165Y1097D01*
X1566Y1097D02*
X1573Y1097D01*
X0Y1096D02*
X7Y1096D01*
X1156Y1096D02*
X1165Y1096D01*
X1566Y1096D02*
X1573Y1096D01*
X0Y1095D02*
X7Y1095D01*
X1156Y1095D02*
X1165Y1095D01*
X1566Y1095D02*
X1573Y1095D01*
X0Y1094D02*
X7Y1094D01*
X1156Y1094D02*
X1165Y1094D01*
X1566Y1094D02*
X1573Y1094D01*
X0Y1093D02*
X7Y1093D01*
X1156Y1093D02*
X1165Y1093D01*
X1566Y1093D02*
X1573Y1093D01*
X0Y1092D02*
X7Y1092D01*
X1156Y1092D02*
X1165Y1092D01*
X1566Y1092D02*
X1573Y1092D01*
X0Y1091D02*
X7Y1091D01*
X1156Y1091D02*
X1165Y1091D01*
X1566Y1091D02*
X1573Y1091D01*
X0Y1090D02*
X7Y1090D01*
X1156Y1090D02*
X1165Y1090D01*
X1566Y1090D02*
X1573Y1090D01*
X0Y1089D02*
X7Y1089D01*
X1156Y1089D02*
X1165Y1089D01*
X1566Y1089D02*
X1573Y1089D01*
X0Y1088D02*
X7Y1088D01*
X1156Y1088D02*
X1165Y1088D01*
X1566Y1088D02*
X1573Y1088D01*
X0Y1087D02*
X7Y1087D01*
X1156Y1087D02*
X1165Y1087D01*
X1566Y1087D02*
X1573Y1087D01*
X0Y1086D02*
X7Y1086D01*
X1156Y1086D02*
X1165Y1086D01*
X1566Y1086D02*
X1573Y1086D01*
X0Y1085D02*
X7Y1085D01*
X1156Y1085D02*
X1165Y1085D01*
X1566Y1085D02*
X1573Y1085D01*
X0Y1084D02*
X7Y1084D01*
X1156Y1084D02*
X1165Y1084D01*
X1566Y1084D02*
X1573Y1084D01*
X0Y1083D02*
X7Y1083D01*
X1156Y1083D02*
X1165Y1083D01*
X1566Y1083D02*
X1573Y1083D01*
X0Y1082D02*
X7Y1082D01*
X1156Y1082D02*
X1165Y1082D01*
X1566Y1082D02*
X1573Y1082D01*
X0Y1081D02*
X7Y1081D01*
X1156Y1081D02*
X1165Y1081D01*
X1566Y1081D02*
X1573Y1081D01*
X0Y1080D02*
X7Y1080D01*
X1156Y1080D02*
X1165Y1080D01*
X1566Y1080D02*
X1573Y1080D01*
X0Y1079D02*
X7Y1079D01*
X1156Y1079D02*
X1165Y1079D01*
X1566Y1079D02*
X1573Y1079D01*
X0Y1078D02*
X7Y1078D01*
X1156Y1078D02*
X1165Y1078D01*
X1566Y1078D02*
X1573Y1078D01*
X0Y1077D02*
X7Y1077D01*
X1156Y1077D02*
X1165Y1077D01*
X1566Y1077D02*
X1573Y1077D01*
X0Y1076D02*
X7Y1076D01*
X1156Y1076D02*
X1165Y1076D01*
X1566Y1076D02*
X1573Y1076D01*
X0Y1075D02*
X7Y1075D01*
X1156Y1075D02*
X1165Y1075D01*
X1566Y1075D02*
X1573Y1075D01*
X0Y1074D02*
X7Y1074D01*
X1156Y1074D02*
X1165Y1074D01*
X1566Y1074D02*
X1573Y1074D01*
X0Y1073D02*
X7Y1073D01*
X1156Y1073D02*
X1165Y1073D01*
X1566Y1073D02*
X1573Y1073D01*
X0Y1072D02*
X7Y1072D01*
X1156Y1072D02*
X1165Y1072D01*
X1566Y1072D02*
X1573Y1072D01*
X0Y1071D02*
X7Y1071D01*
X1156Y1071D02*
X1165Y1071D01*
X1566Y1071D02*
X1573Y1071D01*
X0Y1070D02*
X7Y1070D01*
X1156Y1070D02*
X1165Y1070D01*
X1566Y1070D02*
X1573Y1070D01*
X0Y1069D02*
X7Y1069D01*
X1156Y1069D02*
X1165Y1069D01*
X1566Y1069D02*
X1573Y1069D01*
X0Y1068D02*
X7Y1068D01*
X1156Y1068D02*
X1165Y1068D01*
X1566Y1068D02*
X1573Y1068D01*
X0Y1067D02*
X7Y1067D01*
X1156Y1067D02*
X1165Y1067D01*
X1566Y1067D02*
X1573Y1067D01*
X0Y1066D02*
X7Y1066D01*
X1156Y1066D02*
X1165Y1066D01*
X1566Y1066D02*
X1573Y1066D01*
X0Y1065D02*
X7Y1065D01*
X1156Y1065D02*
X1165Y1065D01*
X1566Y1065D02*
X1573Y1065D01*
X0Y1064D02*
X7Y1064D01*
X1156Y1064D02*
X1165Y1064D01*
X1566Y1064D02*
X1573Y1064D01*
X0Y1063D02*
X7Y1063D01*
X1156Y1063D02*
X1165Y1063D01*
X1566Y1063D02*
X1573Y1063D01*
X0Y1062D02*
X7Y1062D01*
X1156Y1062D02*
X1165Y1062D01*
X1566Y1062D02*
X1573Y1062D01*
X0Y1061D02*
X7Y1061D01*
X1156Y1061D02*
X1165Y1061D01*
X1566Y1061D02*
X1573Y1061D01*
X0Y1060D02*
X7Y1060D01*
X1156Y1060D02*
X1165Y1060D01*
X1566Y1060D02*
X1573Y1060D01*
X0Y1059D02*
X7Y1059D01*
X1156Y1059D02*
X1165Y1059D01*
X1566Y1059D02*
X1573Y1059D01*
X0Y1058D02*
X7Y1058D01*
X1156Y1058D02*
X1165Y1058D01*
X1566Y1058D02*
X1573Y1058D01*
X0Y1057D02*
X7Y1057D01*
X1156Y1057D02*
X1165Y1057D01*
X1566Y1057D02*
X1573Y1057D01*
X0Y1056D02*
X7Y1056D01*
X1156Y1056D02*
X1165Y1056D01*
X1566Y1056D02*
X1573Y1056D01*
X0Y1055D02*
X7Y1055D01*
X1156Y1055D02*
X1165Y1055D01*
X1566Y1055D02*
X1573Y1055D01*
X0Y1054D02*
X7Y1054D01*
X1156Y1054D02*
X1165Y1054D01*
X1566Y1054D02*
X1573Y1054D01*
X0Y1053D02*
X7Y1053D01*
X1156Y1053D02*
X1165Y1053D01*
X1566Y1053D02*
X1573Y1053D01*
X0Y1052D02*
X7Y1052D01*
X1156Y1052D02*
X1165Y1052D01*
X1566Y1052D02*
X1573Y1052D01*
X0Y1051D02*
X7Y1051D01*
X1156Y1051D02*
X1165Y1051D01*
X1566Y1051D02*
X1573Y1051D01*
X0Y1050D02*
X7Y1050D01*
X1156Y1050D02*
X1165Y1050D01*
X1566Y1050D02*
X1573Y1050D01*
X0Y1049D02*
X7Y1049D01*
X1156Y1049D02*
X1165Y1049D01*
X1566Y1049D02*
X1573Y1049D01*
X0Y1048D02*
X7Y1048D01*
X1156Y1048D02*
X1165Y1048D01*
X1566Y1048D02*
X1573Y1048D01*
X0Y1047D02*
X7Y1047D01*
X1156Y1047D02*
X1165Y1047D01*
X1566Y1047D02*
X1573Y1047D01*
X0Y1046D02*
X7Y1046D01*
X1156Y1046D02*
X1165Y1046D01*
X1566Y1046D02*
X1573Y1046D01*
X0Y1045D02*
X7Y1045D01*
X1156Y1045D02*
X1165Y1045D01*
X1566Y1045D02*
X1573Y1045D01*
X0Y1044D02*
X7Y1044D01*
X1156Y1044D02*
X1165Y1044D01*
X1566Y1044D02*
X1573Y1044D01*
X0Y1043D02*
X7Y1043D01*
X1156Y1043D02*
X1165Y1043D01*
X1566Y1043D02*
X1573Y1043D01*
X0Y1042D02*
X7Y1042D01*
X1156Y1042D02*
X1165Y1042D01*
X1566Y1042D02*
X1573Y1042D01*
X0Y1041D02*
X7Y1041D01*
X1156Y1041D02*
X1165Y1041D01*
X1566Y1041D02*
X1573Y1041D01*
X0Y1040D02*
X7Y1040D01*
X1156Y1040D02*
X1165Y1040D01*
X1566Y1040D02*
X1573Y1040D01*
X0Y1039D02*
X7Y1039D01*
X1156Y1039D02*
X1165Y1039D01*
X1566Y1039D02*
X1573Y1039D01*
X0Y1038D02*
X7Y1038D01*
X1156Y1038D02*
X1165Y1038D01*
X1566Y1038D02*
X1573Y1038D01*
X0Y1037D02*
X7Y1037D01*
X1156Y1037D02*
X1165Y1037D01*
X1566Y1037D02*
X1573Y1037D01*
X0Y1036D02*
X7Y1036D01*
X1156Y1036D02*
X1165Y1036D01*
X1566Y1036D02*
X1573Y1036D01*
X0Y1035D02*
X7Y1035D01*
X1156Y1035D02*
X1165Y1035D01*
X1566Y1035D02*
X1573Y1035D01*
X0Y1034D02*
X7Y1034D01*
X1156Y1034D02*
X1165Y1034D01*
X1566Y1034D02*
X1573Y1034D01*
X0Y1033D02*
X7Y1033D01*
X1156Y1033D02*
X1165Y1033D01*
X1566Y1033D02*
X1573Y1033D01*
X0Y1032D02*
X7Y1032D01*
X1156Y1032D02*
X1165Y1032D01*
X1566Y1032D02*
X1573Y1032D01*
X0Y1031D02*
X7Y1031D01*
X1156Y1031D02*
X1165Y1031D01*
X1566Y1031D02*
X1573Y1031D01*
X0Y1030D02*
X7Y1030D01*
X1156Y1030D02*
X1165Y1030D01*
X1566Y1030D02*
X1573Y1030D01*
X0Y1029D02*
X7Y1029D01*
X1156Y1029D02*
X1165Y1029D01*
X1566Y1029D02*
X1573Y1029D01*
X0Y1028D02*
X7Y1028D01*
X1156Y1028D02*
X1165Y1028D01*
X1566Y1028D02*
X1573Y1028D01*
X0Y1027D02*
X7Y1027D01*
X1156Y1027D02*
X1165Y1027D01*
X1566Y1027D02*
X1573Y1027D01*
X0Y1026D02*
X7Y1026D01*
X1156Y1026D02*
X1165Y1026D01*
X1566Y1026D02*
X1573Y1026D01*
X0Y1025D02*
X7Y1025D01*
X1156Y1025D02*
X1165Y1025D01*
X1566Y1025D02*
X1573Y1025D01*
X0Y1024D02*
X7Y1024D01*
X1156Y1024D02*
X1165Y1024D01*
X1566Y1024D02*
X1573Y1024D01*
X0Y1023D02*
X7Y1023D01*
X1156Y1023D02*
X1165Y1023D01*
X1566Y1023D02*
X1573Y1023D01*
X0Y1022D02*
X7Y1022D01*
X1156Y1022D02*
X1165Y1022D01*
X1566Y1022D02*
X1573Y1022D01*
X0Y1021D02*
X7Y1021D01*
X1156Y1021D02*
X1165Y1021D01*
X1566Y1021D02*
X1573Y1021D01*
X0Y1020D02*
X7Y1020D01*
X1156Y1020D02*
X1165Y1020D01*
X1566Y1020D02*
X1573Y1020D01*
X0Y1019D02*
X7Y1019D01*
X1156Y1019D02*
X1165Y1019D01*
X1566Y1019D02*
X1573Y1019D01*
X0Y1018D02*
X7Y1018D01*
X1156Y1018D02*
X1165Y1018D01*
X1566Y1018D02*
X1573Y1018D01*
X0Y1017D02*
X7Y1017D01*
X1156Y1017D02*
X1165Y1017D01*
X1566Y1017D02*
X1573Y1017D01*
X0Y1016D02*
X7Y1016D01*
X1156Y1016D02*
X1165Y1016D01*
X1566Y1016D02*
X1573Y1016D01*
X0Y1015D02*
X7Y1015D01*
X1156Y1015D02*
X1165Y1015D01*
X1566Y1015D02*
X1573Y1015D01*
X0Y1014D02*
X7Y1014D01*
X1156Y1014D02*
X1165Y1014D01*
X1566Y1014D02*
X1573Y1014D01*
X0Y1013D02*
X7Y1013D01*
X1156Y1013D02*
X1165Y1013D01*
X1566Y1013D02*
X1573Y1013D01*
X0Y1012D02*
X7Y1012D01*
X1156Y1012D02*
X1165Y1012D01*
X1566Y1012D02*
X1573Y1012D01*
X0Y1011D02*
X7Y1011D01*
X1156Y1011D02*
X1165Y1011D01*
X1566Y1011D02*
X1573Y1011D01*
X0Y1010D02*
X7Y1010D01*
X1156Y1010D02*
X1165Y1010D01*
X1566Y1010D02*
X1573Y1010D01*
X0Y1009D02*
X7Y1009D01*
X1156Y1009D02*
X1165Y1009D01*
X1566Y1009D02*
X1573Y1009D01*
X0Y1008D02*
X7Y1008D01*
X1156Y1008D02*
X1165Y1008D01*
X1566Y1008D02*
X1573Y1008D01*
X0Y1007D02*
X7Y1007D01*
X1156Y1007D02*
X1165Y1007D01*
X1566Y1007D02*
X1573Y1007D01*
X0Y1006D02*
X7Y1006D01*
X1156Y1006D02*
X1165Y1006D01*
X1566Y1006D02*
X1573Y1006D01*
X0Y1005D02*
X7Y1005D01*
X1156Y1005D02*
X1165Y1005D01*
X1566Y1005D02*
X1573Y1005D01*
X0Y1004D02*
X7Y1004D01*
X1156Y1004D02*
X1165Y1004D01*
X1566Y1004D02*
X1573Y1004D01*
X0Y1003D02*
X7Y1003D01*
X1156Y1003D02*
X1165Y1003D01*
X1566Y1003D02*
X1573Y1003D01*
X0Y1002D02*
X7Y1002D01*
X1156Y1002D02*
X1165Y1002D01*
X1566Y1002D02*
X1573Y1002D01*
X0Y1001D02*
X7Y1001D01*
X1156Y1001D02*
X1165Y1001D01*
X1566Y1001D02*
X1573Y1001D01*
X0Y1000D02*
X7Y1000D01*
X1156Y1000D02*
X1165Y1000D01*
X1566Y1000D02*
X1573Y1000D01*
X0Y999D02*
X7Y999D01*
X1156Y999D02*
X1165Y999D01*
X1566Y999D02*
X1573Y999D01*
X0Y998D02*
X7Y998D01*
X1156Y998D02*
X1165Y998D01*
X1566Y998D02*
X1573Y998D01*
X0Y997D02*
X7Y997D01*
X1156Y997D02*
X1165Y997D01*
X1566Y997D02*
X1573Y997D01*
X0Y996D02*
X7Y996D01*
X1156Y996D02*
X1165Y996D01*
X1566Y996D02*
X1573Y996D01*
X0Y995D02*
X7Y995D01*
X1156Y995D02*
X1165Y995D01*
X1566Y995D02*
X1573Y995D01*
X0Y994D02*
X7Y994D01*
X1156Y994D02*
X1165Y994D01*
X1566Y994D02*
X1573Y994D01*
X0Y993D02*
X7Y993D01*
X1156Y993D02*
X1165Y993D01*
X1566Y993D02*
X1573Y993D01*
X0Y992D02*
X7Y992D01*
X1156Y992D02*
X1165Y992D01*
X1566Y992D02*
X1573Y992D01*
X0Y991D02*
X7Y991D01*
X1156Y991D02*
X1165Y991D01*
X1566Y991D02*
X1573Y991D01*
X0Y990D02*
X7Y990D01*
X1156Y990D02*
X1165Y990D01*
X1566Y990D02*
X1573Y990D01*
X0Y989D02*
X7Y989D01*
X1156Y989D02*
X1165Y989D01*
X1566Y989D02*
X1573Y989D01*
X0Y988D02*
X7Y988D01*
X1156Y988D02*
X1165Y988D01*
X1566Y988D02*
X1573Y988D01*
X0Y987D02*
X7Y987D01*
X1156Y987D02*
X1165Y987D01*
X1566Y987D02*
X1573Y987D01*
X0Y986D02*
X7Y986D01*
X1156Y986D02*
X1165Y986D01*
X1566Y986D02*
X1573Y986D01*
X0Y985D02*
X7Y985D01*
X1156Y985D02*
X1165Y985D01*
X1566Y985D02*
X1573Y985D01*
X0Y984D02*
X7Y984D01*
X1156Y984D02*
X1165Y984D01*
X1566Y984D02*
X1573Y984D01*
X0Y983D02*
X7Y983D01*
X1156Y983D02*
X1165Y983D01*
X1566Y983D02*
X1573Y983D01*
X0Y982D02*
X7Y982D01*
X1156Y982D02*
X1165Y982D01*
X1566Y982D02*
X1573Y982D01*
X0Y981D02*
X7Y981D01*
X1156Y981D02*
X1165Y981D01*
X1566Y981D02*
X1573Y981D01*
X0Y980D02*
X7Y980D01*
X1156Y980D02*
X1165Y980D01*
X1566Y980D02*
X1573Y980D01*
X0Y979D02*
X7Y979D01*
X1156Y979D02*
X1165Y979D01*
X1566Y979D02*
X1573Y979D01*
X0Y978D02*
X7Y978D01*
X1156Y978D02*
X1165Y978D01*
X1566Y978D02*
X1573Y978D01*
X0Y977D02*
X7Y977D01*
X1156Y977D02*
X1165Y977D01*
X1566Y977D02*
X1573Y977D01*
X0Y976D02*
X7Y976D01*
X1156Y976D02*
X1165Y976D01*
X1566Y976D02*
X1573Y976D01*
X0Y975D02*
X7Y975D01*
X1156Y975D02*
X1165Y975D01*
X1566Y975D02*
X1573Y975D01*
X0Y974D02*
X7Y974D01*
X1156Y974D02*
X1165Y974D01*
X1566Y974D02*
X1573Y974D01*
X0Y973D02*
X7Y973D01*
X1156Y973D02*
X1165Y973D01*
X1566Y973D02*
X1573Y973D01*
X0Y972D02*
X7Y972D01*
X1156Y972D02*
X1165Y972D01*
X1566Y972D02*
X1573Y972D01*
X0Y971D02*
X7Y971D01*
X1156Y971D02*
X1165Y971D01*
X1566Y971D02*
X1573Y971D01*
X0Y970D02*
X7Y970D01*
X1156Y970D02*
X1165Y970D01*
X1566Y970D02*
X1573Y970D01*
X0Y969D02*
X7Y969D01*
X1156Y969D02*
X1165Y969D01*
X1566Y969D02*
X1573Y969D01*
X0Y968D02*
X7Y968D01*
X1156Y968D02*
X1165Y968D01*
X1566Y968D02*
X1573Y968D01*
X0Y967D02*
X7Y967D01*
X1156Y967D02*
X1165Y967D01*
X1566Y967D02*
X1573Y967D01*
X0Y966D02*
X7Y966D01*
X1156Y966D02*
X1165Y966D01*
X1566Y966D02*
X1573Y966D01*
X0Y965D02*
X7Y965D01*
X1156Y965D02*
X1165Y965D01*
X1566Y965D02*
X1573Y965D01*
X0Y964D02*
X7Y964D01*
X1156Y964D02*
X1165Y964D01*
X1566Y964D02*
X1573Y964D01*
X0Y963D02*
X7Y963D01*
X1156Y963D02*
X1165Y963D01*
X1566Y963D02*
X1573Y963D01*
X0Y962D02*
X7Y962D01*
X1156Y962D02*
X1165Y962D01*
X1566Y962D02*
X1573Y962D01*
X0Y961D02*
X7Y961D01*
X1156Y961D02*
X1165Y961D01*
X1566Y961D02*
X1573Y961D01*
X0Y960D02*
X7Y960D01*
X1156Y960D02*
X1165Y960D01*
X1566Y960D02*
X1573Y960D01*
X0Y959D02*
X7Y959D01*
X1156Y959D02*
X1165Y959D01*
X1566Y959D02*
X1573Y959D01*
X0Y958D02*
X7Y958D01*
X1156Y958D02*
X1165Y958D01*
X1566Y958D02*
X1573Y958D01*
X0Y957D02*
X7Y957D01*
X1156Y957D02*
X1165Y957D01*
X1566Y957D02*
X1573Y957D01*
X0Y956D02*
X7Y956D01*
X1156Y956D02*
X1165Y956D01*
X1566Y956D02*
X1573Y956D01*
X0Y955D02*
X7Y955D01*
X1156Y955D02*
X1165Y955D01*
X1566Y955D02*
X1573Y955D01*
X0Y954D02*
X7Y954D01*
X1156Y954D02*
X1165Y954D01*
X1566Y954D02*
X1573Y954D01*
X0Y953D02*
X7Y953D01*
X1156Y953D02*
X1165Y953D01*
X1566Y953D02*
X1573Y953D01*
X0Y952D02*
X7Y952D01*
X1156Y952D02*
X1165Y952D01*
X1566Y952D02*
X1573Y952D01*
X0Y951D02*
X7Y951D01*
X1156Y951D02*
X1165Y951D01*
X1566Y951D02*
X1573Y951D01*
X0Y950D02*
X7Y950D01*
X1156Y950D02*
X1165Y950D01*
X1566Y950D02*
X1573Y950D01*
X0Y949D02*
X7Y949D01*
X1156Y949D02*
X1165Y949D01*
X1566Y949D02*
X1573Y949D01*
X0Y948D02*
X7Y948D01*
X1156Y948D02*
X1165Y948D01*
X1566Y948D02*
X1573Y948D01*
X0Y947D02*
X7Y947D01*
X1156Y947D02*
X1165Y947D01*
X1566Y947D02*
X1573Y947D01*
X0Y946D02*
X7Y946D01*
X1156Y946D02*
X1165Y946D01*
X1566Y946D02*
X1573Y946D01*
X0Y945D02*
X7Y945D01*
X1156Y945D02*
X1165Y945D01*
X1566Y945D02*
X1573Y945D01*
X0Y944D02*
X7Y944D01*
X1156Y944D02*
X1165Y944D01*
X1566Y944D02*
X1573Y944D01*
X0Y943D02*
X7Y943D01*
X1156Y943D02*
X1165Y943D01*
X1566Y943D02*
X1573Y943D01*
X0Y942D02*
X7Y942D01*
X1156Y942D02*
X1165Y942D01*
X1566Y942D02*
X1573Y942D01*
X0Y941D02*
X7Y941D01*
X1156Y941D02*
X1165Y941D01*
X1566Y941D02*
X1573Y941D01*
X0Y940D02*
X7Y940D01*
X1156Y940D02*
X1165Y940D01*
X1566Y940D02*
X1573Y940D01*
X0Y939D02*
X7Y939D01*
X1156Y939D02*
X1165Y939D01*
X1566Y939D02*
X1573Y939D01*
X0Y938D02*
X7Y938D01*
X1156Y938D02*
X1165Y938D01*
X1566Y938D02*
X1573Y938D01*
X0Y937D02*
X7Y937D01*
X1156Y937D02*
X1165Y937D01*
X1566Y937D02*
X1573Y937D01*
X0Y936D02*
X7Y936D01*
X1156Y936D02*
X1165Y936D01*
X1566Y936D02*
X1573Y936D01*
X0Y935D02*
X7Y935D01*
X1156Y935D02*
X1165Y935D01*
X1566Y935D02*
X1573Y935D01*
X0Y934D02*
X7Y934D01*
X1156Y934D02*
X1165Y934D01*
X1566Y934D02*
X1573Y934D01*
X0Y933D02*
X7Y933D01*
X1156Y933D02*
X1165Y933D01*
X1566Y933D02*
X1573Y933D01*
X0Y932D02*
X7Y932D01*
X1156Y932D02*
X1165Y932D01*
X1566Y932D02*
X1573Y932D01*
X0Y931D02*
X7Y931D01*
X1156Y931D02*
X1165Y931D01*
X1566Y931D02*
X1573Y931D01*
X0Y930D02*
X7Y930D01*
X1156Y930D02*
X1165Y930D01*
X1566Y930D02*
X1573Y930D01*
X0Y929D02*
X7Y929D01*
X1156Y929D02*
X1165Y929D01*
X1566Y929D02*
X1573Y929D01*
X0Y928D02*
X7Y928D01*
X1156Y928D02*
X1165Y928D01*
X1566Y928D02*
X1573Y928D01*
X0Y927D02*
X7Y927D01*
X1156Y927D02*
X1165Y927D01*
X1566Y927D02*
X1573Y927D01*
X0Y926D02*
X7Y926D01*
X1156Y926D02*
X1165Y926D01*
X1566Y926D02*
X1573Y926D01*
X0Y925D02*
X7Y925D01*
X1156Y925D02*
X1165Y925D01*
X1566Y925D02*
X1573Y925D01*
X0Y924D02*
X7Y924D01*
X1156Y924D02*
X1165Y924D01*
X1566Y924D02*
X1573Y924D01*
X0Y923D02*
X7Y923D01*
X1156Y923D02*
X1165Y923D01*
X1566Y923D02*
X1573Y923D01*
X0Y922D02*
X7Y922D01*
X1156Y922D02*
X1165Y922D01*
X1566Y922D02*
X1573Y922D01*
X0Y921D02*
X7Y921D01*
X1156Y921D02*
X1165Y921D01*
X1566Y921D02*
X1573Y921D01*
X0Y920D02*
X7Y920D01*
X1156Y920D02*
X1165Y920D01*
X1455Y920D02*
X1455Y920D01*
X1566Y920D02*
X1573Y920D01*
X0Y919D02*
X7Y919D01*
X1156Y919D02*
X1165Y919D01*
X1454Y919D02*
X1456Y919D01*
X1566Y919D02*
X1573Y919D01*
X0Y918D02*
X7Y918D01*
X1156Y918D02*
X1165Y918D01*
X1453Y918D02*
X1457Y918D01*
X1566Y918D02*
X1573Y918D01*
X0Y917D02*
X7Y917D01*
X1156Y917D02*
X1165Y917D01*
X1452Y917D02*
X1458Y917D01*
X1566Y917D02*
X1573Y917D01*
X0Y916D02*
X7Y916D01*
X1156Y916D02*
X1165Y916D01*
X1453Y916D02*
X1459Y916D01*
X1566Y916D02*
X1573Y916D01*
X0Y915D02*
X7Y915D01*
X1156Y915D02*
X1165Y915D01*
X1454Y915D02*
X1460Y915D01*
X1566Y915D02*
X1573Y915D01*
X0Y914D02*
X7Y914D01*
X1156Y914D02*
X1165Y914D01*
X1455Y914D02*
X1461Y914D01*
X1566Y914D02*
X1573Y914D01*
X0Y913D02*
X7Y913D01*
X1156Y913D02*
X1165Y913D01*
X1456Y913D02*
X1462Y913D01*
X1566Y913D02*
X1573Y913D01*
X0Y912D02*
X7Y912D01*
X1156Y912D02*
X1165Y912D01*
X1566Y912D02*
X1573Y912D01*
X0Y911D02*
X7Y911D01*
X1156Y911D02*
X1165Y911D01*
X1566Y911D02*
X1573Y911D01*
X0Y910D02*
X7Y910D01*
X1156Y910D02*
X1165Y910D01*
X1504Y910D02*
X1554Y910D01*
X1566Y910D02*
X1573Y910D01*
X0Y909D02*
X7Y909D01*
X1156Y909D02*
X1165Y909D01*
X1503Y909D02*
X1555Y909D01*
X1566Y909D02*
X1573Y909D01*
X0Y908D02*
X7Y908D01*
X1156Y908D02*
X1165Y908D01*
X1502Y908D02*
X1555Y908D01*
X1566Y908D02*
X1573Y908D01*
X0Y907D02*
X7Y907D01*
X1156Y907D02*
X1165Y907D01*
X1502Y907D02*
X1555Y907D01*
X1566Y907D02*
X1573Y907D01*
X0Y906D02*
X7Y906D01*
X1156Y906D02*
X1165Y906D01*
X1502Y906D02*
X1555Y906D01*
X1566Y906D02*
X1573Y906D01*
X0Y905D02*
X7Y905D01*
X1156Y905D02*
X1165Y905D01*
X1503Y905D02*
X1554Y905D01*
X1566Y905D02*
X1573Y905D01*
X0Y904D02*
X7Y904D01*
X1156Y904D02*
X1165Y904D01*
X1504Y904D02*
X1553Y904D01*
X1566Y904D02*
X1573Y904D01*
X0Y903D02*
X7Y903D01*
X1156Y903D02*
X1165Y903D01*
X1526Y903D02*
X1532Y903D01*
X1566Y903D02*
X1573Y903D01*
X0Y902D02*
X7Y902D01*
X1156Y902D02*
X1165Y902D01*
X1526Y902D02*
X1532Y902D01*
X1566Y902D02*
X1573Y902D01*
X0Y901D02*
X7Y901D01*
X1156Y901D02*
X1165Y901D01*
X1526Y901D02*
X1532Y901D01*
X1566Y901D02*
X1573Y901D01*
X0Y900D02*
X7Y900D01*
X1156Y900D02*
X1165Y900D01*
X1526Y900D02*
X1532Y900D01*
X1566Y900D02*
X1573Y900D01*
X0Y899D02*
X7Y899D01*
X1156Y899D02*
X1165Y899D01*
X1526Y899D02*
X1532Y899D01*
X1566Y899D02*
X1573Y899D01*
X0Y898D02*
X7Y898D01*
X1156Y898D02*
X1165Y898D01*
X1526Y898D02*
X1532Y898D01*
X1566Y898D02*
X1573Y898D01*
X0Y897D02*
X7Y897D01*
X1156Y897D02*
X1165Y897D01*
X1526Y897D02*
X1532Y897D01*
X1566Y897D02*
X1573Y897D01*
X0Y896D02*
X7Y896D01*
X1156Y896D02*
X1165Y896D01*
X1526Y896D02*
X1532Y896D01*
X1566Y896D02*
X1573Y896D01*
X0Y895D02*
X7Y895D01*
X1156Y895D02*
X1165Y895D01*
X1526Y895D02*
X1532Y895D01*
X1566Y895D02*
X1573Y895D01*
X0Y894D02*
X7Y894D01*
X1156Y894D02*
X1165Y894D01*
X1526Y894D02*
X1532Y894D01*
X1566Y894D02*
X1573Y894D01*
X0Y893D02*
X7Y893D01*
X1156Y893D02*
X1165Y893D01*
X1526Y893D02*
X1532Y893D01*
X1566Y893D02*
X1573Y893D01*
X0Y892D02*
X7Y892D01*
X1156Y892D02*
X1165Y892D01*
X1483Y892D02*
X1483Y892D01*
X1526Y892D02*
X1532Y892D01*
X1566Y892D02*
X1573Y892D01*
X0Y891D02*
X7Y891D01*
X1156Y891D02*
X1165Y891D01*
X1483Y891D02*
X1484Y891D01*
X1526Y891D02*
X1532Y891D01*
X1566Y891D02*
X1573Y891D01*
X0Y890D02*
X7Y890D01*
X1156Y890D02*
X1165Y890D01*
X1483Y890D02*
X1485Y890D01*
X1526Y890D02*
X1532Y890D01*
X1566Y890D02*
X1573Y890D01*
X0Y889D02*
X7Y889D01*
X1156Y889D02*
X1165Y889D01*
X1483Y889D02*
X1486Y889D01*
X1526Y889D02*
X1532Y889D01*
X1566Y889D02*
X1573Y889D01*
X0Y888D02*
X7Y888D01*
X1156Y888D02*
X1165Y888D01*
X1483Y888D02*
X1487Y888D01*
X1526Y888D02*
X1532Y888D01*
X1566Y888D02*
X1573Y888D01*
X0Y887D02*
X7Y887D01*
X1156Y887D02*
X1165Y887D01*
X1483Y887D02*
X1488Y887D01*
X1526Y887D02*
X1532Y887D01*
X1566Y887D02*
X1573Y887D01*
X0Y886D02*
X7Y886D01*
X1156Y886D02*
X1165Y886D01*
X1483Y886D02*
X1489Y886D01*
X1526Y886D02*
X1532Y886D01*
X1566Y886D02*
X1573Y886D01*
X0Y885D02*
X7Y885D01*
X1156Y885D02*
X1165Y885D01*
X1484Y885D02*
X1489Y885D01*
X1526Y885D02*
X1532Y885D01*
X1566Y885D02*
X1573Y885D01*
X0Y884D02*
X7Y884D01*
X1156Y884D02*
X1165Y884D01*
X1485Y884D02*
X1488Y884D01*
X1526Y884D02*
X1532Y884D01*
X1566Y884D02*
X1573Y884D01*
X0Y883D02*
X7Y883D01*
X1156Y883D02*
X1165Y883D01*
X1486Y883D02*
X1487Y883D01*
X1505Y883D02*
X1553Y883D01*
X1566Y883D02*
X1573Y883D01*
X0Y882D02*
X7Y882D01*
X1156Y882D02*
X1165Y882D01*
X1503Y882D02*
X1554Y882D01*
X1566Y882D02*
X1573Y882D01*
X0Y881D02*
X7Y881D01*
X1156Y881D02*
X1165Y881D01*
X1502Y881D02*
X1555Y881D01*
X1566Y881D02*
X1573Y881D01*
X0Y880D02*
X7Y880D01*
X1156Y880D02*
X1165Y880D01*
X1502Y880D02*
X1555Y880D01*
X1566Y880D02*
X1573Y880D01*
X0Y879D02*
X7Y879D01*
X1156Y879D02*
X1165Y879D01*
X1502Y879D02*
X1555Y879D01*
X1566Y879D02*
X1573Y879D01*
X0Y878D02*
X7Y878D01*
X1156Y878D02*
X1165Y878D01*
X1503Y878D02*
X1555Y878D01*
X1566Y878D02*
X1573Y878D01*
X0Y877D02*
X7Y877D01*
X1156Y877D02*
X1165Y877D01*
X1503Y877D02*
X1554Y877D01*
X1566Y877D02*
X1573Y877D01*
X0Y876D02*
X7Y876D01*
X1156Y876D02*
X1165Y876D01*
X1566Y876D02*
X1573Y876D01*
X0Y875D02*
X7Y875D01*
X1156Y875D02*
X1165Y875D01*
X1566Y875D02*
X1573Y875D01*
X0Y874D02*
X7Y874D01*
X1156Y874D02*
X1165Y874D01*
X1566Y874D02*
X1573Y874D01*
X0Y873D02*
X7Y873D01*
X1156Y873D02*
X1165Y873D01*
X1566Y873D02*
X1573Y873D01*
X0Y872D02*
X7Y872D01*
X1156Y872D02*
X1165Y872D01*
X1566Y872D02*
X1573Y872D01*
X0Y871D02*
X7Y871D01*
X1156Y871D02*
X1165Y871D01*
X1566Y871D02*
X1573Y871D01*
X0Y870D02*
X7Y870D01*
X1156Y870D02*
X1165Y870D01*
X1566Y870D02*
X1573Y870D01*
X0Y869D02*
X7Y869D01*
X1156Y869D02*
X1165Y869D01*
X1566Y869D02*
X1573Y869D01*
X0Y868D02*
X7Y868D01*
X1156Y868D02*
X1165Y868D01*
X1566Y868D02*
X1573Y868D01*
X0Y867D02*
X7Y867D01*
X1156Y867D02*
X1165Y867D01*
X1566Y867D02*
X1573Y867D01*
X0Y866D02*
X7Y866D01*
X1156Y866D02*
X1165Y866D01*
X1566Y866D02*
X1573Y866D01*
X0Y865D02*
X7Y865D01*
X1156Y865D02*
X1165Y865D01*
X1566Y865D02*
X1573Y865D01*
X0Y864D02*
X7Y864D01*
X1156Y864D02*
X1165Y864D01*
X1566Y864D02*
X1573Y864D01*
X0Y863D02*
X7Y863D01*
X1156Y863D02*
X1165Y863D01*
X1566Y863D02*
X1573Y863D01*
X0Y862D02*
X7Y862D01*
X1156Y862D02*
X1165Y862D01*
X1566Y862D02*
X1573Y862D01*
X0Y861D02*
X7Y861D01*
X1156Y861D02*
X1165Y861D01*
X1566Y861D02*
X1573Y861D01*
X0Y860D02*
X7Y860D01*
X1156Y860D02*
X1165Y860D01*
X1504Y860D02*
X1506Y860D01*
X1551Y860D02*
X1553Y860D01*
X1566Y860D02*
X1573Y860D01*
X0Y859D02*
X7Y859D01*
X1156Y859D02*
X1165Y859D01*
X1503Y859D02*
X1507Y859D01*
X1550Y859D02*
X1555Y859D01*
X1566Y859D02*
X1573Y859D01*
X0Y858D02*
X7Y858D01*
X1156Y858D02*
X1165Y858D01*
X1502Y858D02*
X1508Y858D01*
X1549Y858D02*
X1555Y858D01*
X1566Y858D02*
X1573Y858D01*
X0Y857D02*
X7Y857D01*
X1156Y857D02*
X1165Y857D01*
X1502Y857D02*
X1508Y857D01*
X1549Y857D02*
X1555Y857D01*
X1566Y857D02*
X1573Y857D01*
X0Y856D02*
X7Y856D01*
X1156Y856D02*
X1165Y856D01*
X1502Y856D02*
X1508Y856D01*
X1549Y856D02*
X1555Y856D01*
X1566Y856D02*
X1573Y856D01*
X0Y855D02*
X7Y855D01*
X1156Y855D02*
X1165Y855D01*
X1502Y855D02*
X1508Y855D01*
X1549Y855D02*
X1555Y855D01*
X1566Y855D02*
X1573Y855D01*
X0Y854D02*
X7Y854D01*
X1156Y854D02*
X1165Y854D01*
X1502Y854D02*
X1508Y854D01*
X1549Y854D02*
X1555Y854D01*
X1566Y854D02*
X1573Y854D01*
X0Y853D02*
X7Y853D01*
X1156Y853D02*
X1165Y853D01*
X1502Y853D02*
X1508Y853D01*
X1549Y853D02*
X1555Y853D01*
X1566Y853D02*
X1573Y853D01*
X0Y852D02*
X7Y852D01*
X1156Y852D02*
X1165Y852D01*
X1502Y852D02*
X1508Y852D01*
X1549Y852D02*
X1555Y852D01*
X1566Y852D02*
X1573Y852D01*
X0Y851D02*
X7Y851D01*
X1156Y851D02*
X1165Y851D01*
X1502Y851D02*
X1508Y851D01*
X1549Y851D02*
X1555Y851D01*
X1566Y851D02*
X1573Y851D01*
X0Y850D02*
X7Y850D01*
X1156Y850D02*
X1165Y850D01*
X1502Y850D02*
X1508Y850D01*
X1549Y850D02*
X1555Y850D01*
X1566Y850D02*
X1573Y850D01*
X0Y849D02*
X7Y849D01*
X1156Y849D02*
X1165Y849D01*
X1502Y849D02*
X1508Y849D01*
X1549Y849D02*
X1555Y849D01*
X1566Y849D02*
X1573Y849D01*
X0Y848D02*
X7Y848D01*
X1156Y848D02*
X1165Y848D01*
X1502Y848D02*
X1508Y848D01*
X1549Y848D02*
X1555Y848D01*
X1566Y848D02*
X1573Y848D01*
X0Y847D02*
X7Y847D01*
X1156Y847D02*
X1165Y847D01*
X1502Y847D02*
X1508Y847D01*
X1549Y847D02*
X1555Y847D01*
X1566Y847D02*
X1573Y847D01*
X0Y846D02*
X7Y846D01*
X1156Y846D02*
X1165Y846D01*
X1502Y846D02*
X1555Y846D01*
X1566Y846D02*
X1573Y846D01*
X0Y845D02*
X7Y845D01*
X1156Y845D02*
X1165Y845D01*
X1502Y845D02*
X1555Y845D01*
X1566Y845D02*
X1573Y845D01*
X0Y844D02*
X7Y844D01*
X1156Y844D02*
X1165Y844D01*
X1502Y844D02*
X1555Y844D01*
X1566Y844D02*
X1573Y844D01*
X0Y843D02*
X7Y843D01*
X1156Y843D02*
X1165Y843D01*
X1502Y843D02*
X1555Y843D01*
X1566Y843D02*
X1573Y843D01*
X0Y842D02*
X7Y842D01*
X1156Y842D02*
X1165Y842D01*
X1502Y842D02*
X1555Y842D01*
X1566Y842D02*
X1573Y842D01*
X0Y841D02*
X7Y841D01*
X1156Y841D02*
X1165Y841D01*
X1502Y841D02*
X1555Y841D01*
X1566Y841D02*
X1573Y841D01*
X0Y840D02*
X7Y840D01*
X1156Y840D02*
X1165Y840D01*
X1502Y840D02*
X1555Y840D01*
X1566Y840D02*
X1573Y840D01*
X0Y839D02*
X7Y839D01*
X1156Y839D02*
X1165Y839D01*
X1502Y839D02*
X1508Y839D01*
X1566Y839D02*
X1573Y839D01*
X0Y838D02*
X7Y838D01*
X1156Y838D02*
X1165Y838D01*
X1502Y838D02*
X1508Y838D01*
X1566Y838D02*
X1573Y838D01*
X0Y837D02*
X7Y837D01*
X1156Y837D02*
X1165Y837D01*
X1502Y837D02*
X1508Y837D01*
X1566Y837D02*
X1573Y837D01*
X0Y836D02*
X7Y836D01*
X1156Y836D02*
X1165Y836D01*
X1502Y836D02*
X1508Y836D01*
X1566Y836D02*
X1573Y836D01*
X0Y835D02*
X7Y835D01*
X1156Y835D02*
X1165Y835D01*
X1502Y835D02*
X1508Y835D01*
X1566Y835D02*
X1573Y835D01*
X0Y834D02*
X7Y834D01*
X1156Y834D02*
X1165Y834D01*
X1502Y834D02*
X1508Y834D01*
X1566Y834D02*
X1573Y834D01*
X0Y833D02*
X7Y833D01*
X1156Y833D02*
X1165Y833D01*
X1502Y833D02*
X1509Y833D01*
X1566Y833D02*
X1573Y833D01*
X0Y832D02*
X7Y832D01*
X1156Y832D02*
X1165Y832D01*
X1502Y832D02*
X1525Y832D01*
X1566Y832D02*
X1573Y832D01*
X0Y831D02*
X7Y831D01*
X1156Y831D02*
X1165Y831D01*
X1502Y831D02*
X1525Y831D01*
X1566Y831D02*
X1573Y831D01*
X0Y830D02*
X7Y830D01*
X1156Y830D02*
X1165Y830D01*
X1502Y830D02*
X1526Y830D01*
X1566Y830D02*
X1573Y830D01*
X0Y829D02*
X7Y829D01*
X1156Y829D02*
X1165Y829D01*
X1502Y829D02*
X1526Y829D01*
X1566Y829D02*
X1573Y829D01*
X0Y828D02*
X7Y828D01*
X1156Y828D02*
X1165Y828D01*
X1502Y828D02*
X1525Y828D01*
X1566Y828D02*
X1573Y828D01*
X0Y827D02*
X7Y827D01*
X1156Y827D02*
X1165Y827D01*
X1503Y827D02*
X1525Y827D01*
X1566Y827D02*
X1573Y827D01*
X0Y826D02*
X7Y826D01*
X1156Y826D02*
X1165Y826D01*
X1505Y826D02*
X1522Y826D01*
X1566Y826D02*
X1573Y826D01*
X0Y825D02*
X7Y825D01*
X1156Y825D02*
X1165Y825D01*
X1566Y825D02*
X1573Y825D01*
X0Y824D02*
X7Y824D01*
X1156Y824D02*
X1165Y824D01*
X1566Y824D02*
X1573Y824D01*
X0Y823D02*
X7Y823D01*
X1156Y823D02*
X1165Y823D01*
X1566Y823D02*
X1573Y823D01*
X0Y822D02*
X7Y822D01*
X1156Y822D02*
X1165Y822D01*
X1566Y822D02*
X1573Y822D01*
X0Y821D02*
X7Y821D01*
X1156Y821D02*
X1165Y821D01*
X1566Y821D02*
X1573Y821D01*
X0Y820D02*
X7Y820D01*
X1156Y820D02*
X1165Y820D01*
X1566Y820D02*
X1573Y820D01*
X0Y819D02*
X7Y819D01*
X1156Y819D02*
X1165Y819D01*
X1566Y819D02*
X1573Y819D01*
X0Y818D02*
X7Y818D01*
X1156Y818D02*
X1165Y818D01*
X1566Y818D02*
X1573Y818D01*
X0Y817D02*
X7Y817D01*
X1156Y817D02*
X1165Y817D01*
X1566Y817D02*
X1573Y817D01*
X0Y816D02*
X7Y816D01*
X1156Y816D02*
X1165Y816D01*
X1566Y816D02*
X1573Y816D01*
X0Y815D02*
X7Y815D01*
X1156Y815D02*
X1165Y815D01*
X1566Y815D02*
X1573Y815D01*
X0Y814D02*
X7Y814D01*
X1156Y814D02*
X1165Y814D01*
X1566Y814D02*
X1573Y814D01*
X0Y813D02*
X7Y813D01*
X1156Y813D02*
X1165Y813D01*
X1566Y813D02*
X1573Y813D01*
X0Y812D02*
X7Y812D01*
X1156Y812D02*
X1165Y812D01*
X1566Y812D02*
X1573Y812D01*
X0Y811D02*
X7Y811D01*
X1156Y811D02*
X1165Y811D01*
X1566Y811D02*
X1573Y811D01*
X0Y810D02*
X7Y810D01*
X1156Y810D02*
X1165Y810D01*
X1566Y810D02*
X1573Y810D01*
X0Y809D02*
X7Y809D01*
X1156Y809D02*
X1165Y809D01*
X1566Y809D02*
X1573Y809D01*
X0Y808D02*
X7Y808D01*
X1156Y808D02*
X1165Y808D01*
X1566Y808D02*
X1573Y808D01*
X0Y807D02*
X7Y807D01*
X1156Y807D02*
X1165Y807D01*
X1566Y807D02*
X1573Y807D01*
X0Y806D02*
X7Y806D01*
X1156Y806D02*
X1165Y806D01*
X1566Y806D02*
X1573Y806D01*
X0Y805D02*
X7Y805D01*
X1156Y805D02*
X1165Y805D01*
X1566Y805D02*
X1573Y805D01*
X0Y804D02*
X7Y804D01*
X1156Y804D02*
X1165Y804D01*
X1566Y804D02*
X1573Y804D01*
X0Y803D02*
X7Y803D01*
X1156Y803D02*
X1165Y803D01*
X1566Y803D02*
X1573Y803D01*
X0Y802D02*
X7Y802D01*
X1156Y802D02*
X1165Y802D01*
X1566Y802D02*
X1573Y802D01*
X0Y801D02*
X7Y801D01*
X1156Y801D02*
X1165Y801D01*
X1566Y801D02*
X1573Y801D01*
X0Y800D02*
X7Y800D01*
X1156Y800D02*
X1165Y800D01*
X1566Y800D02*
X1573Y800D01*
X0Y799D02*
X7Y799D01*
X1156Y799D02*
X1165Y799D01*
X1566Y799D02*
X1573Y799D01*
X0Y798D02*
X7Y798D01*
X1156Y798D02*
X1165Y798D01*
X1566Y798D02*
X1573Y798D01*
X0Y797D02*
X7Y797D01*
X1156Y797D02*
X1165Y797D01*
X1566Y797D02*
X1573Y797D01*
X0Y796D02*
X7Y796D01*
X1156Y796D02*
X1165Y796D01*
X1566Y796D02*
X1573Y796D01*
X0Y795D02*
X7Y795D01*
X1156Y795D02*
X1165Y795D01*
X1566Y795D02*
X1573Y795D01*
X0Y794D02*
X7Y794D01*
X1156Y794D02*
X1165Y794D01*
X1566Y794D02*
X1573Y794D01*
X0Y793D02*
X7Y793D01*
X1156Y793D02*
X1165Y793D01*
X1566Y793D02*
X1573Y793D01*
X0Y792D02*
X7Y792D01*
X1156Y792D02*
X1165Y792D01*
X1566Y792D02*
X1573Y792D01*
X0Y791D02*
X7Y791D01*
X1156Y791D02*
X1165Y791D01*
X1566Y791D02*
X1573Y791D01*
X0Y790D02*
X7Y790D01*
X1156Y790D02*
X1165Y790D01*
X1566Y790D02*
X1573Y790D01*
X0Y789D02*
X7Y789D01*
X1156Y789D02*
X1165Y789D01*
X1566Y789D02*
X1573Y789D01*
X0Y788D02*
X7Y788D01*
X1156Y788D02*
X1165Y788D01*
X1566Y788D02*
X1573Y788D01*
X0Y787D02*
X7Y787D01*
X1156Y787D02*
X1165Y787D01*
X1566Y787D02*
X1573Y787D01*
X0Y786D02*
X7Y786D01*
X1156Y786D02*
X1165Y786D01*
X1566Y786D02*
X1573Y786D01*
X0Y785D02*
X7Y785D01*
X1156Y785D02*
X1165Y785D01*
X1566Y785D02*
X1573Y785D01*
X0Y784D02*
X7Y784D01*
X1156Y784D02*
X1165Y784D01*
X1566Y784D02*
X1573Y784D01*
X0Y783D02*
X7Y783D01*
X1156Y783D02*
X1165Y783D01*
X1566Y783D02*
X1573Y783D01*
X0Y782D02*
X7Y782D01*
X1156Y782D02*
X1165Y782D01*
X1566Y782D02*
X1573Y782D01*
X0Y781D02*
X7Y781D01*
X1156Y781D02*
X1165Y781D01*
X1566Y781D02*
X1573Y781D01*
X0Y780D02*
X7Y780D01*
X1156Y780D02*
X1165Y780D01*
X1566Y780D02*
X1573Y780D01*
X0Y779D02*
X7Y779D01*
X1156Y779D02*
X1165Y779D01*
X1566Y779D02*
X1573Y779D01*
X0Y778D02*
X7Y778D01*
X1156Y778D02*
X1165Y778D01*
X1566Y778D02*
X1573Y778D01*
X0Y777D02*
X7Y777D01*
X1156Y777D02*
X1165Y777D01*
X1566Y777D02*
X1573Y777D01*
X0Y776D02*
X7Y776D01*
X1156Y776D02*
X1165Y776D01*
X1566Y776D02*
X1573Y776D01*
X0Y775D02*
X7Y775D01*
X1156Y775D02*
X1165Y775D01*
X1566Y775D02*
X1573Y775D01*
X0Y774D02*
X7Y774D01*
X1156Y774D02*
X1165Y774D01*
X1566Y774D02*
X1573Y774D01*
X0Y773D02*
X7Y773D01*
X1156Y773D02*
X1165Y773D01*
X1566Y773D02*
X1573Y773D01*
X0Y772D02*
X7Y772D01*
X1156Y772D02*
X1165Y772D01*
X1566Y772D02*
X1573Y772D01*
X0Y771D02*
X7Y771D01*
X1156Y771D02*
X1165Y771D01*
X1566Y771D02*
X1573Y771D01*
X0Y770D02*
X7Y770D01*
X1156Y770D02*
X1165Y770D01*
X1566Y770D02*
X1573Y770D01*
X0Y769D02*
X7Y769D01*
X1156Y769D02*
X1165Y769D01*
X1566Y769D02*
X1573Y769D01*
X0Y768D02*
X7Y768D01*
X1156Y768D02*
X1165Y768D01*
X1566Y768D02*
X1573Y768D01*
X0Y767D02*
X7Y767D01*
X1156Y767D02*
X1165Y767D01*
X1566Y767D02*
X1573Y767D01*
X0Y766D02*
X7Y766D01*
X1156Y766D02*
X1165Y766D01*
X1566Y766D02*
X1573Y766D01*
X0Y765D02*
X7Y765D01*
X1156Y765D02*
X1165Y765D01*
X1566Y765D02*
X1573Y765D01*
X0Y764D02*
X7Y764D01*
X1156Y764D02*
X1165Y764D01*
X1566Y764D02*
X1573Y764D01*
X0Y763D02*
X7Y763D01*
X1156Y763D02*
X1165Y763D01*
X1566Y763D02*
X1573Y763D01*
X0Y762D02*
X7Y762D01*
X1156Y762D02*
X1165Y762D01*
X1566Y762D02*
X1573Y762D01*
X0Y761D02*
X7Y761D01*
X1156Y761D02*
X1165Y761D01*
X1566Y761D02*
X1573Y761D01*
X0Y760D02*
X7Y760D01*
X1156Y760D02*
X1165Y760D01*
X1566Y760D02*
X1573Y760D01*
X0Y759D02*
X7Y759D01*
X1156Y759D02*
X1165Y759D01*
X1566Y759D02*
X1573Y759D01*
X0Y758D02*
X7Y758D01*
X1156Y758D02*
X1165Y758D01*
X1566Y758D02*
X1573Y758D01*
X0Y757D02*
X7Y757D01*
X1156Y757D02*
X1165Y757D01*
X1566Y757D02*
X1573Y757D01*
X0Y756D02*
X7Y756D01*
X1156Y756D02*
X1165Y756D01*
X1566Y756D02*
X1573Y756D01*
X0Y755D02*
X7Y755D01*
X1156Y755D02*
X1165Y755D01*
X1566Y755D02*
X1573Y755D01*
X0Y754D02*
X7Y754D01*
X1156Y754D02*
X1165Y754D01*
X1566Y754D02*
X1573Y754D01*
X0Y753D02*
X7Y753D01*
X1156Y753D02*
X1165Y753D01*
X1566Y753D02*
X1573Y753D01*
X0Y752D02*
X7Y752D01*
X1156Y752D02*
X1165Y752D01*
X1566Y752D02*
X1573Y752D01*
X0Y751D02*
X7Y751D01*
X1156Y751D02*
X1165Y751D01*
X1566Y751D02*
X1573Y751D01*
X0Y750D02*
X7Y750D01*
X1156Y750D02*
X1165Y750D01*
X1566Y750D02*
X1573Y750D01*
X0Y749D02*
X7Y749D01*
X1156Y749D02*
X1165Y749D01*
X1566Y749D02*
X1573Y749D01*
X0Y748D02*
X7Y748D01*
X1156Y748D02*
X1165Y748D01*
X1566Y748D02*
X1573Y748D01*
X0Y747D02*
X7Y747D01*
X1156Y747D02*
X1165Y747D01*
X1566Y747D02*
X1573Y747D01*
X0Y746D02*
X7Y746D01*
X1156Y746D02*
X1165Y746D01*
X1566Y746D02*
X1573Y746D01*
X0Y745D02*
X7Y745D01*
X1156Y745D02*
X1165Y745D01*
X1566Y745D02*
X1573Y745D01*
X0Y744D02*
X7Y744D01*
X1156Y744D02*
X1165Y744D01*
X1566Y744D02*
X1573Y744D01*
X0Y743D02*
X7Y743D01*
X1156Y743D02*
X1165Y743D01*
X1566Y743D02*
X1573Y743D01*
X0Y742D02*
X7Y742D01*
X1156Y742D02*
X1165Y742D01*
X1500Y742D02*
X1549Y742D01*
X1566Y742D02*
X1573Y742D01*
X0Y741D02*
X7Y741D01*
X1156Y741D02*
X1165Y741D01*
X1499Y741D02*
X1551Y741D01*
X1566Y741D02*
X1573Y741D01*
X0Y740D02*
X7Y740D01*
X1156Y740D02*
X1165Y740D01*
X1499Y740D02*
X1552Y740D01*
X1566Y740D02*
X1573Y740D01*
X0Y739D02*
X7Y739D01*
X1156Y739D02*
X1165Y739D01*
X1499Y739D02*
X1552Y739D01*
X1566Y739D02*
X1573Y739D01*
X0Y738D02*
X7Y738D01*
X1156Y738D02*
X1165Y738D01*
X1499Y738D02*
X1552Y738D01*
X1566Y738D02*
X1573Y738D01*
X0Y737D02*
X7Y737D01*
X1156Y737D02*
X1165Y737D01*
X1499Y737D02*
X1552Y737D01*
X1566Y737D02*
X1573Y737D01*
X0Y736D02*
X7Y736D01*
X1156Y736D02*
X1165Y736D01*
X1499Y736D02*
X1551Y736D01*
X1566Y736D02*
X1573Y736D01*
X0Y735D02*
X7Y735D01*
X1156Y735D02*
X1165Y735D01*
X1499Y735D02*
X1506Y735D01*
X1566Y735D02*
X1573Y735D01*
X0Y734D02*
X7Y734D01*
X1156Y734D02*
X1165Y734D01*
X1499Y734D02*
X1505Y734D01*
X1566Y734D02*
X1573Y734D01*
X0Y733D02*
X7Y733D01*
X1156Y733D02*
X1165Y733D01*
X1499Y733D02*
X1505Y733D01*
X1566Y733D02*
X1573Y733D01*
X0Y732D02*
X7Y732D01*
X1156Y732D02*
X1165Y732D01*
X1499Y732D02*
X1505Y732D01*
X1566Y732D02*
X1573Y732D01*
X0Y731D02*
X7Y731D01*
X1156Y731D02*
X1165Y731D01*
X1499Y731D02*
X1505Y731D01*
X1566Y731D02*
X1573Y731D01*
X0Y730D02*
X7Y730D01*
X1156Y730D02*
X1165Y730D01*
X1499Y730D02*
X1505Y730D01*
X1566Y730D02*
X1573Y730D01*
X0Y729D02*
X7Y729D01*
X1156Y729D02*
X1165Y729D01*
X1499Y729D02*
X1505Y729D01*
X1566Y729D02*
X1573Y729D01*
X0Y728D02*
X7Y728D01*
X1156Y728D02*
X1165Y728D01*
X1499Y728D02*
X1505Y728D01*
X1566Y728D02*
X1573Y728D01*
X0Y727D02*
X7Y727D01*
X1156Y727D02*
X1165Y727D01*
X1499Y727D02*
X1505Y727D01*
X1566Y727D02*
X1573Y727D01*
X0Y726D02*
X7Y726D01*
X1156Y726D02*
X1165Y726D01*
X1499Y726D02*
X1505Y726D01*
X1566Y726D02*
X1573Y726D01*
X0Y725D02*
X7Y725D01*
X1156Y725D02*
X1165Y725D01*
X1499Y725D02*
X1505Y725D01*
X1566Y725D02*
X1573Y725D01*
X0Y724D02*
X7Y724D01*
X1156Y724D02*
X1165Y724D01*
X1499Y724D02*
X1505Y724D01*
X1566Y724D02*
X1573Y724D01*
X0Y723D02*
X7Y723D01*
X1156Y723D02*
X1165Y723D01*
X1499Y723D02*
X1505Y723D01*
X1566Y723D02*
X1573Y723D01*
X0Y722D02*
X7Y722D01*
X1156Y722D02*
X1165Y722D01*
X1499Y722D02*
X1505Y722D01*
X1566Y722D02*
X1573Y722D01*
X0Y721D02*
X7Y721D01*
X1156Y721D02*
X1165Y721D01*
X1499Y721D02*
X1505Y721D01*
X1566Y721D02*
X1573Y721D01*
X0Y720D02*
X7Y720D01*
X1156Y720D02*
X1165Y720D01*
X1455Y720D02*
X1455Y720D01*
X1499Y720D02*
X1505Y720D01*
X1566Y720D02*
X1573Y720D01*
X0Y719D02*
X7Y719D01*
X1156Y719D02*
X1165Y719D01*
X1454Y719D02*
X1456Y719D01*
X1499Y719D02*
X1505Y719D01*
X1566Y719D02*
X1573Y719D01*
X0Y718D02*
X7Y718D01*
X1156Y718D02*
X1165Y718D01*
X1453Y718D02*
X1457Y718D01*
X1499Y718D02*
X1505Y718D01*
X1566Y718D02*
X1573Y718D01*
X0Y717D02*
X7Y717D01*
X1156Y717D02*
X1165Y717D01*
X1452Y717D02*
X1458Y717D01*
X1499Y717D02*
X1505Y717D01*
X1566Y717D02*
X1573Y717D01*
X0Y716D02*
X7Y716D01*
X1156Y716D02*
X1165Y716D01*
X1453Y716D02*
X1459Y716D01*
X1499Y716D02*
X1505Y716D01*
X1566Y716D02*
X1573Y716D01*
X0Y715D02*
X7Y715D01*
X1156Y715D02*
X1165Y715D01*
X1454Y715D02*
X1460Y715D01*
X1499Y715D02*
X1505Y715D01*
X1566Y715D02*
X1573Y715D01*
X0Y714D02*
X7Y714D01*
X1156Y714D02*
X1165Y714D01*
X1455Y714D02*
X1461Y714D01*
X1499Y714D02*
X1505Y714D01*
X1566Y714D02*
X1573Y714D01*
X0Y713D02*
X7Y713D01*
X1156Y713D02*
X1165Y713D01*
X1456Y713D02*
X1462Y713D01*
X1499Y713D02*
X1505Y713D01*
X1566Y713D02*
X1573Y713D01*
X0Y712D02*
X7Y712D01*
X1156Y712D02*
X1165Y712D01*
X1499Y712D02*
X1505Y712D01*
X1566Y712D02*
X1573Y712D01*
X0Y711D02*
X7Y711D01*
X1156Y711D02*
X1165Y711D01*
X1499Y711D02*
X1505Y711D01*
X1566Y711D02*
X1573Y711D01*
X0Y710D02*
X7Y710D01*
X1156Y710D02*
X1165Y710D01*
X1499Y710D02*
X1505Y710D01*
X1566Y710D02*
X1573Y710D01*
X0Y709D02*
X7Y709D01*
X1156Y709D02*
X1165Y709D01*
X1500Y709D02*
X1505Y709D01*
X1566Y709D02*
X1573Y709D01*
X0Y708D02*
X7Y708D01*
X1156Y708D02*
X1165Y708D01*
X1501Y708D02*
X1503Y708D01*
X1566Y708D02*
X1573Y708D01*
X0Y707D02*
X7Y707D01*
X1156Y707D02*
X1165Y707D01*
X1566Y707D02*
X1573Y707D01*
X0Y706D02*
X7Y706D01*
X1156Y706D02*
X1165Y706D01*
X1566Y706D02*
X1573Y706D01*
X0Y705D02*
X7Y705D01*
X1156Y705D02*
X1165Y705D01*
X1566Y705D02*
X1573Y705D01*
X0Y704D02*
X7Y704D01*
X1156Y704D02*
X1165Y704D01*
X1566Y704D02*
X1573Y704D01*
X0Y703D02*
X7Y703D01*
X1156Y703D02*
X1165Y703D01*
X1566Y703D02*
X1573Y703D01*
X0Y702D02*
X7Y702D01*
X1156Y702D02*
X1165Y702D01*
X1566Y702D02*
X1573Y702D01*
X0Y701D02*
X7Y701D01*
X1156Y701D02*
X1165Y701D01*
X1566Y701D02*
X1573Y701D01*
X0Y700D02*
X7Y700D01*
X1156Y700D02*
X1165Y700D01*
X1566Y700D02*
X1573Y700D01*
X0Y699D02*
X7Y699D01*
X1156Y699D02*
X1165Y699D01*
X1566Y699D02*
X1573Y699D01*
X0Y698D02*
X7Y698D01*
X1156Y698D02*
X1165Y698D01*
X1566Y698D02*
X1573Y698D01*
X0Y697D02*
X7Y697D01*
X1156Y697D02*
X1165Y697D01*
X1566Y697D02*
X1573Y697D01*
X0Y696D02*
X7Y696D01*
X1156Y696D02*
X1165Y696D01*
X1566Y696D02*
X1573Y696D01*
X0Y695D02*
X7Y695D01*
X1156Y695D02*
X1165Y695D01*
X1566Y695D02*
X1573Y695D01*
X0Y694D02*
X7Y694D01*
X1156Y694D02*
X1165Y694D01*
X1566Y694D02*
X1573Y694D01*
X0Y693D02*
X7Y693D01*
X1156Y693D02*
X1165Y693D01*
X1566Y693D02*
X1573Y693D01*
X0Y692D02*
X7Y692D01*
X1156Y692D02*
X1165Y692D01*
X1483Y692D02*
X1483Y692D01*
X1566Y692D02*
X1573Y692D01*
X0Y691D02*
X7Y691D01*
X1156Y691D02*
X1165Y691D01*
X1483Y691D02*
X1484Y691D01*
X1499Y691D02*
X1552Y691D01*
X1566Y691D02*
X1573Y691D01*
X0Y690D02*
X7Y690D01*
X1156Y690D02*
X1165Y690D01*
X1483Y690D02*
X1485Y690D01*
X1499Y690D02*
X1552Y690D01*
X1566Y690D02*
X1573Y690D01*
X0Y689D02*
X7Y689D01*
X1156Y689D02*
X1165Y689D01*
X1483Y689D02*
X1486Y689D01*
X1499Y689D02*
X1552Y689D01*
X1566Y689D02*
X1573Y689D01*
X0Y688D02*
X7Y688D01*
X1156Y688D02*
X1165Y688D01*
X1483Y688D02*
X1487Y688D01*
X1499Y688D02*
X1552Y688D01*
X1566Y688D02*
X1573Y688D01*
X0Y687D02*
X7Y687D01*
X1156Y687D02*
X1165Y687D01*
X1483Y687D02*
X1488Y687D01*
X1499Y687D02*
X1552Y687D01*
X1566Y687D02*
X1573Y687D01*
X0Y686D02*
X7Y686D01*
X1156Y686D02*
X1165Y686D01*
X1483Y686D02*
X1489Y686D01*
X1499Y686D02*
X1552Y686D01*
X1566Y686D02*
X1573Y686D01*
X0Y685D02*
X7Y685D01*
X1156Y685D02*
X1165Y685D01*
X1484Y685D02*
X1489Y685D01*
X1499Y685D02*
X1552Y685D01*
X1566Y685D02*
X1573Y685D01*
X0Y684D02*
X7Y684D01*
X1156Y684D02*
X1165Y684D01*
X1485Y684D02*
X1488Y684D01*
X1499Y684D02*
X1505Y684D01*
X1523Y684D02*
X1529Y684D01*
X1546Y684D02*
X1552Y684D01*
X1566Y684D02*
X1573Y684D01*
X0Y683D02*
X7Y683D01*
X1156Y683D02*
X1165Y683D01*
X1486Y683D02*
X1487Y683D01*
X1499Y683D02*
X1505Y683D01*
X1523Y683D02*
X1529Y683D01*
X1546Y683D02*
X1552Y683D01*
X1566Y683D02*
X1573Y683D01*
X0Y682D02*
X7Y682D01*
X1156Y682D02*
X1165Y682D01*
X1499Y682D02*
X1505Y682D01*
X1523Y682D02*
X1529Y682D01*
X1546Y682D02*
X1552Y682D01*
X1566Y682D02*
X1573Y682D01*
X0Y681D02*
X7Y681D01*
X1156Y681D02*
X1165Y681D01*
X1499Y681D02*
X1505Y681D01*
X1523Y681D02*
X1529Y681D01*
X1546Y681D02*
X1552Y681D01*
X1566Y681D02*
X1573Y681D01*
X0Y680D02*
X7Y680D01*
X1156Y680D02*
X1165Y680D01*
X1499Y680D02*
X1505Y680D01*
X1523Y680D02*
X1529Y680D01*
X1546Y680D02*
X1552Y680D01*
X1566Y680D02*
X1573Y680D01*
X0Y679D02*
X7Y679D01*
X1156Y679D02*
X1165Y679D01*
X1499Y679D02*
X1505Y679D01*
X1523Y679D02*
X1529Y679D01*
X1546Y679D02*
X1552Y679D01*
X1566Y679D02*
X1573Y679D01*
X0Y678D02*
X7Y678D01*
X1156Y678D02*
X1165Y678D01*
X1499Y678D02*
X1505Y678D01*
X1523Y678D02*
X1529Y678D01*
X1546Y678D02*
X1552Y678D01*
X1566Y678D02*
X1573Y678D01*
X0Y677D02*
X7Y677D01*
X1156Y677D02*
X1165Y677D01*
X1499Y677D02*
X1505Y677D01*
X1523Y677D02*
X1529Y677D01*
X1546Y677D02*
X1552Y677D01*
X1566Y677D02*
X1573Y677D01*
X0Y676D02*
X7Y676D01*
X1156Y676D02*
X1165Y676D01*
X1499Y676D02*
X1505Y676D01*
X1523Y676D02*
X1529Y676D01*
X1546Y676D02*
X1552Y676D01*
X1566Y676D02*
X1573Y676D01*
X0Y675D02*
X7Y675D01*
X1156Y675D02*
X1165Y675D01*
X1499Y675D02*
X1505Y675D01*
X1523Y675D02*
X1529Y675D01*
X1546Y675D02*
X1552Y675D01*
X1566Y675D02*
X1573Y675D01*
X0Y674D02*
X7Y674D01*
X1156Y674D02*
X1165Y674D01*
X1499Y674D02*
X1505Y674D01*
X1523Y674D02*
X1529Y674D01*
X1546Y674D02*
X1552Y674D01*
X1566Y674D02*
X1573Y674D01*
X0Y673D02*
X7Y673D01*
X1156Y673D02*
X1165Y673D01*
X1499Y673D02*
X1505Y673D01*
X1523Y673D02*
X1528Y673D01*
X1546Y673D02*
X1552Y673D01*
X1566Y673D02*
X1573Y673D01*
X0Y672D02*
X7Y672D01*
X1156Y672D02*
X1165Y672D01*
X1499Y672D02*
X1505Y672D01*
X1524Y672D02*
X1528Y672D01*
X1546Y672D02*
X1552Y672D01*
X1566Y672D02*
X1573Y672D01*
X0Y671D02*
X7Y671D01*
X1156Y671D02*
X1165Y671D01*
X1499Y671D02*
X1505Y671D01*
X1546Y671D02*
X1552Y671D01*
X1566Y671D02*
X1573Y671D01*
X0Y670D02*
X7Y670D01*
X1156Y670D02*
X1165Y670D01*
X1499Y670D02*
X1505Y670D01*
X1546Y670D02*
X1552Y670D01*
X1566Y670D02*
X1573Y670D01*
X0Y669D02*
X7Y669D01*
X1156Y669D02*
X1165Y669D01*
X1499Y669D02*
X1505Y669D01*
X1546Y669D02*
X1552Y669D01*
X1566Y669D02*
X1573Y669D01*
X0Y668D02*
X7Y668D01*
X1156Y668D02*
X1165Y668D01*
X1499Y668D02*
X1505Y668D01*
X1546Y668D02*
X1552Y668D01*
X1566Y668D02*
X1573Y668D01*
X0Y667D02*
X7Y667D01*
X1156Y667D02*
X1165Y667D01*
X1499Y667D02*
X1505Y667D01*
X1546Y667D02*
X1552Y667D01*
X1566Y667D02*
X1573Y667D01*
X0Y666D02*
X7Y666D01*
X1156Y666D02*
X1165Y666D01*
X1499Y666D02*
X1505Y666D01*
X1546Y666D02*
X1552Y666D01*
X1566Y666D02*
X1573Y666D01*
X0Y665D02*
X7Y665D01*
X1156Y665D02*
X1165Y665D01*
X1499Y665D02*
X1505Y665D01*
X1546Y665D02*
X1552Y665D01*
X1566Y665D02*
X1573Y665D01*
X0Y664D02*
X7Y664D01*
X1156Y664D02*
X1165Y664D01*
X1499Y664D02*
X1505Y664D01*
X1546Y664D02*
X1552Y664D01*
X1566Y664D02*
X1573Y664D01*
X0Y663D02*
X7Y663D01*
X1156Y663D02*
X1165Y663D01*
X1499Y663D02*
X1505Y663D01*
X1546Y663D02*
X1552Y663D01*
X1566Y663D02*
X1573Y663D01*
X0Y662D02*
X7Y662D01*
X1156Y662D02*
X1165Y662D01*
X1499Y662D02*
X1505Y662D01*
X1546Y662D02*
X1552Y662D01*
X1566Y662D02*
X1573Y662D01*
X0Y661D02*
X7Y661D01*
X1156Y661D02*
X1165Y661D01*
X1499Y661D02*
X1505Y661D01*
X1546Y661D02*
X1552Y661D01*
X1566Y661D02*
X1573Y661D01*
X0Y660D02*
X7Y660D01*
X1156Y660D02*
X1165Y660D01*
X1499Y660D02*
X1505Y660D01*
X1547Y660D02*
X1552Y660D01*
X1566Y660D02*
X1573Y660D01*
X0Y659D02*
X7Y659D01*
X1156Y659D02*
X1165Y659D01*
X1500Y659D02*
X1505Y659D01*
X1547Y659D02*
X1552Y659D01*
X1566Y659D02*
X1573Y659D01*
X0Y658D02*
X7Y658D01*
X1156Y658D02*
X1165Y658D01*
X1501Y658D02*
X1504Y658D01*
X1548Y658D02*
X1551Y658D01*
X1566Y658D02*
X1573Y658D01*
X0Y657D02*
X7Y657D01*
X1156Y657D02*
X1165Y657D01*
X1566Y657D02*
X1573Y657D01*
X0Y656D02*
X7Y656D01*
X1156Y656D02*
X1165Y656D01*
X1566Y656D02*
X1573Y656D01*
X0Y655D02*
X7Y655D01*
X1156Y655D02*
X1165Y655D01*
X1566Y655D02*
X1573Y655D01*
X0Y654D02*
X7Y654D01*
X1156Y654D02*
X1165Y654D01*
X1566Y654D02*
X1573Y654D01*
X0Y653D02*
X7Y653D01*
X1156Y653D02*
X1165Y653D01*
X1566Y653D02*
X1573Y653D01*
X0Y652D02*
X7Y652D01*
X1156Y652D02*
X1165Y652D01*
X1566Y652D02*
X1573Y652D01*
X0Y651D02*
X7Y651D01*
X1156Y651D02*
X1165Y651D01*
X1566Y651D02*
X1573Y651D01*
X0Y650D02*
X7Y650D01*
X1156Y650D02*
X1165Y650D01*
X1566Y650D02*
X1573Y650D01*
X0Y649D02*
X7Y649D01*
X1156Y649D02*
X1165Y649D01*
X1566Y649D02*
X1573Y649D01*
X0Y648D02*
X7Y648D01*
X1156Y648D02*
X1165Y648D01*
X1566Y648D02*
X1573Y648D01*
X0Y647D02*
X7Y647D01*
X1156Y647D02*
X1165Y647D01*
X1566Y647D02*
X1573Y647D01*
X0Y646D02*
X7Y646D01*
X1156Y646D02*
X1165Y646D01*
X1566Y646D02*
X1573Y646D01*
X0Y645D02*
X7Y645D01*
X1156Y645D02*
X1165Y645D01*
X1566Y645D02*
X1573Y645D01*
X0Y644D02*
X7Y644D01*
X1156Y644D02*
X1165Y644D01*
X1566Y644D02*
X1573Y644D01*
X0Y643D02*
X7Y643D01*
X1156Y643D02*
X1165Y643D01*
X1566Y643D02*
X1573Y643D01*
X0Y642D02*
X7Y642D01*
X1156Y642D02*
X1165Y642D01*
X1566Y642D02*
X1573Y642D01*
X0Y641D02*
X7Y641D01*
X1156Y641D02*
X1165Y641D01*
X1501Y641D02*
X1504Y641D01*
X1548Y641D02*
X1551Y641D01*
X1566Y641D02*
X1573Y641D01*
X0Y640D02*
X7Y640D01*
X1156Y640D02*
X1165Y640D01*
X1500Y640D02*
X1505Y640D01*
X1547Y640D02*
X1552Y640D01*
X1566Y640D02*
X1573Y640D01*
X0Y639D02*
X7Y639D01*
X1156Y639D02*
X1165Y639D01*
X1499Y639D02*
X1505Y639D01*
X1547Y639D02*
X1552Y639D01*
X1566Y639D02*
X1573Y639D01*
X0Y638D02*
X7Y638D01*
X1156Y638D02*
X1165Y638D01*
X1499Y638D02*
X1505Y638D01*
X1546Y638D02*
X1552Y638D01*
X1566Y638D02*
X1573Y638D01*
X0Y637D02*
X7Y637D01*
X1156Y637D02*
X1165Y637D01*
X1499Y637D02*
X1505Y637D01*
X1546Y637D02*
X1552Y637D01*
X1566Y637D02*
X1573Y637D01*
X0Y636D02*
X7Y636D01*
X1156Y636D02*
X1165Y636D01*
X1499Y636D02*
X1505Y636D01*
X1546Y636D02*
X1552Y636D01*
X1566Y636D02*
X1573Y636D01*
X0Y635D02*
X7Y635D01*
X1156Y635D02*
X1165Y635D01*
X1499Y635D02*
X1505Y635D01*
X1546Y635D02*
X1552Y635D01*
X1566Y635D02*
X1573Y635D01*
X0Y634D02*
X7Y634D01*
X1156Y634D02*
X1165Y634D01*
X1499Y634D02*
X1505Y634D01*
X1546Y634D02*
X1552Y634D01*
X1566Y634D02*
X1573Y634D01*
X0Y633D02*
X7Y633D01*
X1156Y633D02*
X1165Y633D01*
X1499Y633D02*
X1505Y633D01*
X1546Y633D02*
X1552Y633D01*
X1566Y633D02*
X1573Y633D01*
X0Y632D02*
X7Y632D01*
X1156Y632D02*
X1165Y632D01*
X1499Y632D02*
X1505Y632D01*
X1546Y632D02*
X1552Y632D01*
X1566Y632D02*
X1573Y632D01*
X0Y631D02*
X7Y631D01*
X1156Y631D02*
X1165Y631D01*
X1499Y631D02*
X1505Y631D01*
X1546Y631D02*
X1552Y631D01*
X1566Y631D02*
X1573Y631D01*
X0Y630D02*
X7Y630D01*
X1156Y630D02*
X1165Y630D01*
X1499Y630D02*
X1505Y630D01*
X1546Y630D02*
X1552Y630D01*
X1566Y630D02*
X1573Y630D01*
X0Y629D02*
X7Y629D01*
X1156Y629D02*
X1165Y629D01*
X1499Y629D02*
X1505Y629D01*
X1546Y629D02*
X1552Y629D01*
X1566Y629D02*
X1573Y629D01*
X0Y628D02*
X7Y628D01*
X1156Y628D02*
X1165Y628D01*
X1499Y628D02*
X1506Y628D01*
X1546Y628D02*
X1552Y628D01*
X1566Y628D02*
X1573Y628D01*
X0Y627D02*
X7Y627D01*
X1156Y627D02*
X1165Y627D01*
X1499Y627D02*
X1552Y627D01*
X1566Y627D02*
X1573Y627D01*
X0Y626D02*
X7Y626D01*
X1156Y626D02*
X1165Y626D01*
X1499Y626D02*
X1552Y626D01*
X1566Y626D02*
X1573Y626D01*
X0Y625D02*
X7Y625D01*
X1156Y625D02*
X1165Y625D01*
X1499Y625D02*
X1552Y625D01*
X1566Y625D02*
X1573Y625D01*
X0Y624D02*
X7Y624D01*
X1156Y624D02*
X1165Y624D01*
X1499Y624D02*
X1552Y624D01*
X1566Y624D02*
X1573Y624D01*
X0Y623D02*
X7Y623D01*
X1156Y623D02*
X1165Y623D01*
X1499Y623D02*
X1552Y623D01*
X1566Y623D02*
X1573Y623D01*
X0Y622D02*
X7Y622D01*
X1156Y622D02*
X1165Y622D01*
X1499Y622D02*
X1552Y622D01*
X1566Y622D02*
X1573Y622D01*
X0Y621D02*
X7Y621D01*
X1156Y621D02*
X1165Y621D01*
X1499Y621D02*
X1552Y621D01*
X1566Y621D02*
X1573Y621D01*
X0Y620D02*
X7Y620D01*
X1156Y620D02*
X1165Y620D01*
X1499Y620D02*
X1505Y620D01*
X1566Y620D02*
X1573Y620D01*
X0Y619D02*
X7Y619D01*
X1156Y619D02*
X1165Y619D01*
X1499Y619D02*
X1505Y619D01*
X1566Y619D02*
X1573Y619D01*
X0Y618D02*
X7Y618D01*
X1156Y618D02*
X1165Y618D01*
X1499Y618D02*
X1505Y618D01*
X1566Y618D02*
X1573Y618D01*
X0Y617D02*
X7Y617D01*
X1156Y617D02*
X1165Y617D01*
X1499Y617D02*
X1505Y617D01*
X1566Y617D02*
X1573Y617D01*
X0Y616D02*
X7Y616D01*
X1156Y616D02*
X1165Y616D01*
X1499Y616D02*
X1505Y616D01*
X1566Y616D02*
X1573Y616D01*
X0Y615D02*
X7Y615D01*
X1156Y615D02*
X1165Y615D01*
X1499Y615D02*
X1505Y615D01*
X1566Y615D02*
X1573Y615D01*
X0Y614D02*
X7Y614D01*
X1156Y614D02*
X1165Y614D01*
X1499Y614D02*
X1520Y614D01*
X1566Y614D02*
X1573Y614D01*
X0Y613D02*
X7Y613D01*
X1156Y613D02*
X1165Y613D01*
X1499Y613D02*
X1522Y613D01*
X1566Y613D02*
X1573Y613D01*
X0Y612D02*
X7Y612D01*
X1156Y612D02*
X1165Y612D01*
X1499Y612D02*
X1523Y612D01*
X1566Y612D02*
X1573Y612D01*
X0Y611D02*
X7Y611D01*
X1156Y611D02*
X1165Y611D01*
X1499Y611D02*
X1523Y611D01*
X1566Y611D02*
X1573Y611D01*
X0Y610D02*
X7Y610D01*
X1156Y610D02*
X1165Y610D01*
X1499Y610D02*
X1523Y610D01*
X1566Y610D02*
X1573Y610D01*
X0Y609D02*
X7Y609D01*
X1156Y609D02*
X1165Y609D01*
X1500Y609D02*
X1522Y609D01*
X1566Y609D02*
X1573Y609D01*
X0Y608D02*
X7Y608D01*
X1156Y608D02*
X1165Y608D01*
X1501Y608D02*
X1522Y608D01*
X1566Y608D02*
X1573Y608D01*
X0Y607D02*
X7Y607D01*
X1156Y607D02*
X1165Y607D01*
X1566Y607D02*
X1573Y607D01*
X0Y606D02*
X7Y606D01*
X1156Y606D02*
X1165Y606D01*
X1566Y606D02*
X1573Y606D01*
X0Y605D02*
X7Y605D01*
X1156Y605D02*
X1165Y605D01*
X1566Y605D02*
X1573Y605D01*
X0Y604D02*
X7Y604D01*
X1156Y604D02*
X1165Y604D01*
X1566Y604D02*
X1573Y604D01*
X0Y603D02*
X7Y603D01*
X1156Y603D02*
X1165Y603D01*
X1566Y603D02*
X1573Y603D01*
X0Y602D02*
X7Y602D01*
X1156Y602D02*
X1165Y602D01*
X1566Y602D02*
X1573Y602D01*
X0Y601D02*
X7Y601D01*
X1156Y601D02*
X1165Y601D01*
X1566Y601D02*
X1573Y601D01*
X0Y600D02*
X7Y600D01*
X1156Y600D02*
X1165Y600D01*
X1566Y600D02*
X1573Y600D01*
X0Y599D02*
X7Y599D01*
X1156Y599D02*
X1165Y599D01*
X1566Y599D02*
X1573Y599D01*
X0Y598D02*
X7Y598D01*
X1156Y598D02*
X1165Y598D01*
X1566Y598D02*
X1573Y598D01*
X0Y597D02*
X7Y597D01*
X1156Y597D02*
X1165Y597D01*
X1566Y597D02*
X1573Y597D01*
X0Y596D02*
X7Y596D01*
X1156Y596D02*
X1165Y596D01*
X1566Y596D02*
X1573Y596D01*
X0Y595D02*
X7Y595D01*
X1156Y595D02*
X1165Y595D01*
X1566Y595D02*
X1573Y595D01*
X0Y594D02*
X7Y594D01*
X1156Y594D02*
X1165Y594D01*
X1566Y594D02*
X1573Y594D01*
X0Y593D02*
X7Y593D01*
X1156Y593D02*
X1165Y593D01*
X1566Y593D02*
X1573Y593D01*
X0Y592D02*
X7Y592D01*
X1156Y592D02*
X1165Y592D01*
X1566Y592D02*
X1573Y592D01*
X0Y591D02*
X7Y591D01*
X1156Y591D02*
X1165Y591D01*
X1566Y591D02*
X1573Y591D01*
X0Y590D02*
X7Y590D01*
X1156Y590D02*
X1165Y590D01*
X1566Y590D02*
X1573Y590D01*
X0Y589D02*
X7Y589D01*
X1156Y589D02*
X1165Y589D01*
X1566Y589D02*
X1573Y589D01*
X0Y588D02*
X7Y588D01*
X1156Y588D02*
X1165Y588D01*
X1566Y588D02*
X1573Y588D01*
X0Y587D02*
X7Y587D01*
X1156Y587D02*
X1165Y587D01*
X1566Y587D02*
X1573Y587D01*
X0Y586D02*
X7Y586D01*
X1156Y586D02*
X1165Y586D01*
X1566Y586D02*
X1573Y586D01*
X0Y585D02*
X7Y585D01*
X1156Y585D02*
X1165Y585D01*
X1566Y585D02*
X1573Y585D01*
X0Y584D02*
X7Y584D01*
X1156Y584D02*
X1165Y584D01*
X1566Y584D02*
X1573Y584D01*
X0Y583D02*
X7Y583D01*
X1156Y583D02*
X1165Y583D01*
X1566Y583D02*
X1573Y583D01*
X0Y582D02*
X7Y582D01*
X1156Y582D02*
X1165Y582D01*
X1566Y582D02*
X1573Y582D01*
X0Y581D02*
X7Y581D01*
X1156Y581D02*
X1165Y581D01*
X1566Y581D02*
X1573Y581D01*
X0Y580D02*
X7Y580D01*
X1156Y580D02*
X1165Y580D01*
X1566Y580D02*
X1573Y580D01*
X0Y579D02*
X7Y579D01*
X1156Y579D02*
X1165Y579D01*
X1566Y579D02*
X1573Y579D01*
X0Y578D02*
X7Y578D01*
X1156Y578D02*
X1165Y578D01*
X1566Y578D02*
X1573Y578D01*
X0Y577D02*
X7Y577D01*
X1156Y577D02*
X1165Y577D01*
X1566Y577D02*
X1573Y577D01*
X0Y576D02*
X7Y576D01*
X1156Y576D02*
X1165Y576D01*
X1566Y576D02*
X1573Y576D01*
X0Y575D02*
X7Y575D01*
X1156Y575D02*
X1165Y575D01*
X1566Y575D02*
X1573Y575D01*
X0Y574D02*
X7Y574D01*
X1156Y574D02*
X1165Y574D01*
X1566Y574D02*
X1573Y574D01*
X0Y573D02*
X7Y573D01*
X1156Y573D02*
X1165Y573D01*
X1566Y573D02*
X1573Y573D01*
X0Y572D02*
X7Y572D01*
X1156Y572D02*
X1165Y572D01*
X1566Y572D02*
X1573Y572D01*
X0Y571D02*
X7Y571D01*
X1156Y571D02*
X1165Y571D01*
X1566Y571D02*
X1573Y571D01*
X0Y570D02*
X7Y570D01*
X1156Y570D02*
X1165Y570D01*
X1566Y570D02*
X1573Y570D01*
X0Y569D02*
X7Y569D01*
X1156Y569D02*
X1165Y569D01*
X1566Y569D02*
X1573Y569D01*
X0Y568D02*
X7Y568D01*
X1156Y568D02*
X1165Y568D01*
X1566Y568D02*
X1573Y568D01*
X0Y567D02*
X7Y567D01*
X1156Y567D02*
X1165Y567D01*
X1566Y567D02*
X1573Y567D01*
X0Y566D02*
X7Y566D01*
X1156Y566D02*
X1165Y566D01*
X1566Y566D02*
X1573Y566D01*
X0Y565D02*
X7Y565D01*
X1156Y565D02*
X1165Y565D01*
X1566Y565D02*
X1573Y565D01*
X0Y564D02*
X7Y564D01*
X1156Y564D02*
X1165Y564D01*
X1566Y564D02*
X1573Y564D01*
X0Y563D02*
X7Y563D01*
X1156Y563D02*
X1165Y563D01*
X1566Y563D02*
X1573Y563D01*
X0Y562D02*
X7Y562D01*
X1156Y562D02*
X1165Y562D01*
X1566Y562D02*
X1573Y562D01*
X0Y561D02*
X7Y561D01*
X1156Y561D02*
X1165Y561D01*
X1566Y561D02*
X1573Y561D01*
X0Y560D02*
X7Y560D01*
X1156Y560D02*
X1165Y560D01*
X1566Y560D02*
X1573Y560D01*
X0Y559D02*
X7Y559D01*
X1156Y559D02*
X1165Y559D01*
X1566Y559D02*
X1573Y559D01*
X0Y558D02*
X7Y558D01*
X1156Y558D02*
X1165Y558D01*
X1566Y558D02*
X1573Y558D01*
X0Y557D02*
X7Y557D01*
X1156Y557D02*
X1165Y557D01*
X1566Y557D02*
X1573Y557D01*
X0Y556D02*
X7Y556D01*
X1156Y556D02*
X1165Y556D01*
X1566Y556D02*
X1573Y556D01*
X0Y555D02*
X7Y555D01*
X1156Y555D02*
X1165Y555D01*
X1566Y555D02*
X1573Y555D01*
X0Y554D02*
X7Y554D01*
X1156Y554D02*
X1165Y554D01*
X1566Y554D02*
X1573Y554D01*
X0Y553D02*
X7Y553D01*
X1156Y553D02*
X1165Y553D01*
X1566Y553D02*
X1573Y553D01*
X0Y552D02*
X7Y552D01*
X1156Y552D02*
X1165Y552D01*
X1566Y552D02*
X1573Y552D01*
X0Y551D02*
X7Y551D01*
X1156Y551D02*
X1165Y551D01*
X1566Y551D02*
X1573Y551D01*
X0Y550D02*
X7Y550D01*
X1156Y550D02*
X1165Y550D01*
X1566Y550D02*
X1573Y550D01*
X0Y549D02*
X7Y549D01*
X1156Y549D02*
X1165Y549D01*
X1566Y549D02*
X1573Y549D01*
X0Y548D02*
X7Y548D01*
X1156Y548D02*
X1165Y548D01*
X1566Y548D02*
X1573Y548D01*
X0Y547D02*
X7Y547D01*
X1156Y547D02*
X1165Y547D01*
X1566Y547D02*
X1573Y547D01*
X0Y546D02*
X7Y546D01*
X1156Y546D02*
X1165Y546D01*
X1566Y546D02*
X1573Y546D01*
X0Y545D02*
X7Y545D01*
X1156Y545D02*
X1165Y545D01*
X1566Y545D02*
X1573Y545D01*
X0Y544D02*
X7Y544D01*
X1156Y544D02*
X1165Y544D01*
X1566Y544D02*
X1573Y544D01*
X0Y543D02*
X7Y543D01*
X1156Y543D02*
X1165Y543D01*
X1566Y543D02*
X1573Y543D01*
X0Y542D02*
X7Y542D01*
X1156Y542D02*
X1165Y542D01*
X1566Y542D02*
X1573Y542D01*
X0Y541D02*
X7Y541D01*
X1156Y541D02*
X1165Y541D01*
X1566Y541D02*
X1573Y541D01*
X0Y540D02*
X7Y540D01*
X1156Y540D02*
X1165Y540D01*
X1566Y540D02*
X1573Y540D01*
X0Y539D02*
X7Y539D01*
X1156Y539D02*
X1165Y539D01*
X1566Y539D02*
X1573Y539D01*
X0Y538D02*
X7Y538D01*
X1156Y538D02*
X1165Y538D01*
X1566Y538D02*
X1573Y538D01*
X0Y537D02*
X7Y537D01*
X1156Y537D02*
X1165Y537D01*
X1501Y537D02*
X1552Y537D01*
X1566Y537D02*
X1573Y537D01*
X0Y536D02*
X7Y536D01*
X1156Y536D02*
X1165Y536D01*
X1500Y536D02*
X1552Y536D01*
X1566Y536D02*
X1573Y536D01*
X0Y535D02*
X7Y535D01*
X1156Y535D02*
X1165Y535D01*
X1499Y535D02*
X1552Y535D01*
X1566Y535D02*
X1573Y535D01*
X0Y534D02*
X7Y534D01*
X1156Y534D02*
X1165Y534D01*
X1499Y534D02*
X1552Y534D01*
X1566Y534D02*
X1573Y534D01*
X0Y533D02*
X7Y533D01*
X1156Y533D02*
X1165Y533D01*
X1500Y533D02*
X1552Y533D01*
X1566Y533D02*
X1573Y533D01*
X0Y532D02*
X7Y532D01*
X1156Y532D02*
X1165Y532D01*
X1500Y532D02*
X1552Y532D01*
X1566Y532D02*
X1573Y532D01*
X0Y531D02*
X7Y531D01*
X1156Y531D02*
X1165Y531D01*
X1502Y531D02*
X1552Y531D01*
X1566Y531D02*
X1573Y531D01*
X0Y530D02*
X7Y530D01*
X1156Y530D02*
X1165Y530D01*
X1529Y530D02*
X1535Y530D01*
X1546Y530D02*
X1552Y530D01*
X1566Y530D02*
X1573Y530D01*
X0Y529D02*
X7Y529D01*
X1156Y529D02*
X1165Y529D01*
X1529Y529D02*
X1535Y529D01*
X1546Y529D02*
X1552Y529D01*
X1566Y529D02*
X1573Y529D01*
X0Y528D02*
X7Y528D01*
X1156Y528D02*
X1165Y528D01*
X1529Y528D02*
X1535Y528D01*
X1546Y528D02*
X1552Y528D01*
X1566Y528D02*
X1573Y528D01*
X0Y527D02*
X7Y527D01*
X1156Y527D02*
X1165Y527D01*
X1529Y527D02*
X1535Y527D01*
X1546Y527D02*
X1552Y527D01*
X1566Y527D02*
X1573Y527D01*
X0Y526D02*
X7Y526D01*
X1156Y526D02*
X1165Y526D01*
X1529Y526D02*
X1535Y526D01*
X1546Y526D02*
X1552Y526D01*
X1566Y526D02*
X1573Y526D01*
X0Y525D02*
X7Y525D01*
X1156Y525D02*
X1165Y525D01*
X1527Y525D02*
X1535Y525D01*
X1546Y525D02*
X1552Y525D01*
X1566Y525D02*
X1573Y525D01*
X0Y524D02*
X7Y524D01*
X1156Y524D02*
X1165Y524D01*
X1525Y524D02*
X1535Y524D01*
X1546Y524D02*
X1552Y524D01*
X1566Y524D02*
X1573Y524D01*
X0Y523D02*
X7Y523D01*
X1156Y523D02*
X1165Y523D01*
X1524Y523D02*
X1535Y523D01*
X1546Y523D02*
X1552Y523D01*
X1566Y523D02*
X1573Y523D01*
X0Y522D02*
X7Y522D01*
X1156Y522D02*
X1165Y522D01*
X1522Y522D02*
X1535Y522D01*
X1546Y522D02*
X1552Y522D01*
X1566Y522D02*
X1573Y522D01*
X0Y521D02*
X7Y521D01*
X1156Y521D02*
X1165Y521D01*
X1520Y521D02*
X1535Y521D01*
X1546Y521D02*
X1552Y521D01*
X1566Y521D02*
X1573Y521D01*
X0Y520D02*
X7Y520D01*
X1156Y520D02*
X1165Y520D01*
X1455Y520D02*
X1455Y520D01*
X1518Y520D02*
X1535Y520D01*
X1546Y520D02*
X1552Y520D01*
X1566Y520D02*
X1573Y520D01*
X0Y519D02*
X7Y519D01*
X1156Y519D02*
X1165Y519D01*
X1454Y519D02*
X1456Y519D01*
X1517Y519D02*
X1535Y519D01*
X1546Y519D02*
X1552Y519D01*
X1566Y519D02*
X1573Y519D01*
X0Y518D02*
X7Y518D01*
X1156Y518D02*
X1165Y518D01*
X1453Y518D02*
X1457Y518D01*
X1515Y518D02*
X1535Y518D01*
X1546Y518D02*
X1552Y518D01*
X1566Y518D02*
X1573Y518D01*
X0Y517D02*
X7Y517D01*
X1156Y517D02*
X1165Y517D01*
X1452Y517D02*
X1458Y517D01*
X1513Y517D02*
X1526Y517D01*
X1529Y517D02*
X1535Y517D01*
X1546Y517D02*
X1552Y517D01*
X1566Y517D02*
X1573Y517D01*
X0Y516D02*
X7Y516D01*
X1156Y516D02*
X1165Y516D01*
X1453Y516D02*
X1459Y516D01*
X1512Y516D02*
X1525Y516D01*
X1529Y516D02*
X1535Y516D01*
X1546Y516D02*
X1552Y516D01*
X1566Y516D02*
X1573Y516D01*
X0Y515D02*
X7Y515D01*
X1156Y515D02*
X1165Y515D01*
X1454Y515D02*
X1460Y515D01*
X1510Y515D02*
X1523Y515D01*
X1529Y515D02*
X1535Y515D01*
X1546Y515D02*
X1552Y515D01*
X1566Y515D02*
X1573Y515D01*
X0Y514D02*
X7Y514D01*
X1156Y514D02*
X1165Y514D01*
X1455Y514D02*
X1461Y514D01*
X1508Y514D02*
X1521Y514D01*
X1529Y514D02*
X1535Y514D01*
X1546Y514D02*
X1552Y514D01*
X1566Y514D02*
X1573Y514D01*
X0Y513D02*
X7Y513D01*
X1156Y513D02*
X1165Y513D01*
X1456Y513D02*
X1462Y513D01*
X1506Y513D02*
X1519Y513D01*
X1529Y513D02*
X1535Y513D01*
X1546Y513D02*
X1552Y513D01*
X1566Y513D02*
X1573Y513D01*
X0Y512D02*
X7Y512D01*
X1156Y512D02*
X1165Y512D01*
X1505Y512D02*
X1518Y512D01*
X1529Y512D02*
X1535Y512D01*
X1546Y512D02*
X1552Y512D01*
X1566Y512D02*
X1573Y512D01*
X0Y511D02*
X7Y511D01*
X1156Y511D02*
X1165Y511D01*
X1503Y511D02*
X1516Y511D01*
X1529Y511D02*
X1536Y511D01*
X1545Y511D02*
X1552Y511D01*
X1566Y511D02*
X1573Y511D01*
X0Y510D02*
X7Y510D01*
X1156Y510D02*
X1165Y510D01*
X1501Y510D02*
X1514Y510D01*
X1529Y510D02*
X1552Y510D01*
X1566Y510D02*
X1573Y510D01*
X0Y509D02*
X7Y509D01*
X1156Y509D02*
X1165Y509D01*
X1500Y509D02*
X1513Y509D01*
X1530Y509D02*
X1551Y509D01*
X1566Y509D02*
X1573Y509D01*
X0Y508D02*
X7Y508D01*
X1156Y508D02*
X1165Y508D01*
X1500Y508D02*
X1511Y508D01*
X1531Y508D02*
X1551Y508D01*
X1566Y508D02*
X1573Y508D01*
X0Y507D02*
X7Y507D01*
X1156Y507D02*
X1165Y507D01*
X1499Y507D02*
X1509Y507D01*
X1531Y507D02*
X1550Y507D01*
X1566Y507D02*
X1573Y507D01*
X0Y506D02*
X7Y506D01*
X1156Y506D02*
X1165Y506D01*
X1499Y506D02*
X1507Y506D01*
X1532Y506D02*
X1549Y506D01*
X1566Y506D02*
X1573Y506D01*
X0Y505D02*
X7Y505D01*
X1156Y505D02*
X1165Y505D01*
X1500Y505D02*
X1506Y505D01*
X1534Y505D02*
X1548Y505D01*
X1566Y505D02*
X1573Y505D01*
X0Y504D02*
X7Y504D01*
X1156Y504D02*
X1165Y504D01*
X1501Y504D02*
X1504Y504D01*
X1535Y504D02*
X1546Y504D01*
X1566Y504D02*
X1573Y504D01*
X0Y503D02*
X7Y503D01*
X1156Y503D02*
X1165Y503D01*
X1566Y503D02*
X1573Y503D01*
X0Y502D02*
X7Y502D01*
X1156Y502D02*
X1165Y502D01*
X1566Y502D02*
X1573Y502D01*
X0Y501D02*
X7Y501D01*
X1156Y501D02*
X1165Y501D01*
X1566Y501D02*
X1573Y501D01*
X0Y500D02*
X7Y500D01*
X1156Y500D02*
X1165Y500D01*
X1566Y500D02*
X1573Y500D01*
X0Y499D02*
X7Y499D01*
X1156Y499D02*
X1165Y499D01*
X1566Y499D02*
X1573Y499D01*
X0Y498D02*
X7Y498D01*
X1156Y498D02*
X1165Y498D01*
X1566Y498D02*
X1573Y498D01*
X0Y497D02*
X7Y497D01*
X1156Y497D02*
X1165Y497D01*
X1566Y497D02*
X1573Y497D01*
X0Y496D02*
X7Y496D01*
X1156Y496D02*
X1165Y496D01*
X1566Y496D02*
X1573Y496D01*
X0Y495D02*
X7Y495D01*
X1156Y495D02*
X1165Y495D01*
X1566Y495D02*
X1573Y495D01*
X0Y494D02*
X7Y494D01*
X1156Y494D02*
X1165Y494D01*
X1566Y494D02*
X1573Y494D01*
X0Y493D02*
X7Y493D01*
X1156Y493D02*
X1165Y493D01*
X1566Y493D02*
X1573Y493D01*
X0Y492D02*
X7Y492D01*
X1156Y492D02*
X1165Y492D01*
X1483Y492D02*
X1483Y492D01*
X1566Y492D02*
X1573Y492D01*
X0Y491D02*
X7Y491D01*
X1156Y491D02*
X1165Y491D01*
X1483Y491D02*
X1484Y491D01*
X1566Y491D02*
X1573Y491D01*
X0Y490D02*
X7Y490D01*
X1156Y490D02*
X1165Y490D01*
X1483Y490D02*
X1485Y490D01*
X1566Y490D02*
X1573Y490D01*
X0Y489D02*
X7Y489D01*
X1156Y489D02*
X1165Y489D01*
X1483Y489D02*
X1486Y489D01*
X1566Y489D02*
X1573Y489D01*
X0Y488D02*
X7Y488D01*
X1156Y488D02*
X1165Y488D01*
X1483Y488D02*
X1487Y488D01*
X1566Y488D02*
X1573Y488D01*
X0Y487D02*
X7Y487D01*
X1156Y487D02*
X1165Y487D01*
X1483Y487D02*
X1488Y487D01*
X1501Y487D02*
X1504Y487D01*
X1548Y487D02*
X1551Y487D01*
X1566Y487D02*
X1573Y487D01*
X0Y486D02*
X7Y486D01*
X1156Y486D02*
X1165Y486D01*
X1483Y486D02*
X1489Y486D01*
X1500Y486D02*
X1505Y486D01*
X1547Y486D02*
X1552Y486D01*
X1566Y486D02*
X1573Y486D01*
X0Y485D02*
X7Y485D01*
X1156Y485D02*
X1165Y485D01*
X1484Y485D02*
X1489Y485D01*
X1499Y485D02*
X1505Y485D01*
X1547Y485D02*
X1552Y485D01*
X1566Y485D02*
X1573Y485D01*
X0Y484D02*
X7Y484D01*
X1156Y484D02*
X1165Y484D01*
X1485Y484D02*
X1488Y484D01*
X1499Y484D02*
X1505Y484D01*
X1546Y484D02*
X1552Y484D01*
X1566Y484D02*
X1573Y484D01*
X0Y483D02*
X7Y483D01*
X1156Y483D02*
X1165Y483D01*
X1486Y483D02*
X1487Y483D01*
X1499Y483D02*
X1505Y483D01*
X1546Y483D02*
X1552Y483D01*
X1566Y483D02*
X1573Y483D01*
X0Y482D02*
X7Y482D01*
X1156Y482D02*
X1165Y482D01*
X1499Y482D02*
X1505Y482D01*
X1546Y482D02*
X1552Y482D01*
X1566Y482D02*
X1573Y482D01*
X0Y481D02*
X7Y481D01*
X1156Y481D02*
X1165Y481D01*
X1499Y481D02*
X1505Y481D01*
X1546Y481D02*
X1552Y481D01*
X1566Y481D02*
X1573Y481D01*
X0Y480D02*
X7Y480D01*
X1156Y480D02*
X1165Y480D01*
X1499Y480D02*
X1505Y480D01*
X1546Y480D02*
X1552Y480D01*
X1566Y480D02*
X1573Y480D01*
X0Y479D02*
X7Y479D01*
X1156Y479D02*
X1165Y479D01*
X1499Y479D02*
X1505Y479D01*
X1546Y479D02*
X1552Y479D01*
X1566Y479D02*
X1573Y479D01*
X0Y478D02*
X7Y478D01*
X1156Y478D02*
X1165Y478D01*
X1499Y478D02*
X1505Y478D01*
X1546Y478D02*
X1552Y478D01*
X1566Y478D02*
X1573Y478D01*
X0Y477D02*
X7Y477D01*
X1156Y477D02*
X1165Y477D01*
X1499Y477D02*
X1505Y477D01*
X1546Y477D02*
X1552Y477D01*
X1566Y477D02*
X1573Y477D01*
X0Y476D02*
X7Y476D01*
X1156Y476D02*
X1165Y476D01*
X1499Y476D02*
X1505Y476D01*
X1546Y476D02*
X1552Y476D01*
X1566Y476D02*
X1573Y476D01*
X0Y475D02*
X7Y475D01*
X1156Y475D02*
X1165Y475D01*
X1499Y475D02*
X1505Y475D01*
X1546Y475D02*
X1552Y475D01*
X1566Y475D02*
X1573Y475D01*
X0Y474D02*
X7Y474D01*
X1156Y474D02*
X1165Y474D01*
X1499Y474D02*
X1506Y474D01*
X1546Y474D02*
X1552Y474D01*
X1566Y474D02*
X1573Y474D01*
X0Y473D02*
X7Y473D01*
X1156Y473D02*
X1165Y473D01*
X1499Y473D02*
X1552Y473D01*
X1566Y473D02*
X1573Y473D01*
X0Y472D02*
X7Y472D01*
X1156Y472D02*
X1165Y472D01*
X1499Y472D02*
X1552Y472D01*
X1566Y472D02*
X1573Y472D01*
X0Y471D02*
X7Y471D01*
X1156Y471D02*
X1165Y471D01*
X1499Y471D02*
X1552Y471D01*
X1566Y471D02*
X1573Y471D01*
X0Y470D02*
X7Y470D01*
X1156Y470D02*
X1165Y470D01*
X1499Y470D02*
X1552Y470D01*
X1566Y470D02*
X1573Y470D01*
X0Y469D02*
X7Y469D01*
X1156Y469D02*
X1165Y469D01*
X1499Y469D02*
X1552Y469D01*
X1566Y469D02*
X1573Y469D01*
X0Y468D02*
X7Y468D01*
X1156Y468D02*
X1165Y468D01*
X1499Y468D02*
X1552Y468D01*
X1566Y468D02*
X1573Y468D01*
X0Y467D02*
X7Y467D01*
X1156Y467D02*
X1165Y467D01*
X1499Y467D02*
X1552Y467D01*
X1566Y467D02*
X1573Y467D01*
X0Y466D02*
X7Y466D01*
X1156Y466D02*
X1165Y466D01*
X1499Y466D02*
X1505Y466D01*
X1546Y466D02*
X1552Y466D01*
X1566Y466D02*
X1573Y466D01*
X0Y465D02*
X7Y465D01*
X1156Y465D02*
X1165Y465D01*
X1499Y465D02*
X1505Y465D01*
X1546Y465D02*
X1552Y465D01*
X1566Y465D02*
X1573Y465D01*
X0Y464D02*
X7Y464D01*
X1156Y464D02*
X1165Y464D01*
X1499Y464D02*
X1505Y464D01*
X1546Y464D02*
X1552Y464D01*
X1566Y464D02*
X1573Y464D01*
X0Y463D02*
X7Y463D01*
X1156Y463D02*
X1165Y463D01*
X1499Y463D02*
X1505Y463D01*
X1546Y463D02*
X1552Y463D01*
X1566Y463D02*
X1573Y463D01*
X0Y462D02*
X7Y462D01*
X1156Y462D02*
X1165Y462D01*
X1499Y462D02*
X1505Y462D01*
X1546Y462D02*
X1552Y462D01*
X1566Y462D02*
X1573Y462D01*
X0Y461D02*
X7Y461D01*
X1156Y461D02*
X1165Y461D01*
X1499Y461D02*
X1505Y461D01*
X1546Y461D02*
X1552Y461D01*
X1566Y461D02*
X1573Y461D01*
X0Y460D02*
X7Y460D01*
X1156Y460D02*
X1165Y460D01*
X1499Y460D02*
X1505Y460D01*
X1546Y460D02*
X1552Y460D01*
X1566Y460D02*
X1573Y460D01*
X0Y459D02*
X7Y459D01*
X1156Y459D02*
X1165Y459D01*
X1499Y459D02*
X1505Y459D01*
X1546Y459D02*
X1552Y459D01*
X1566Y459D02*
X1573Y459D01*
X0Y458D02*
X7Y458D01*
X1156Y458D02*
X1165Y458D01*
X1499Y458D02*
X1505Y458D01*
X1546Y458D02*
X1552Y458D01*
X1566Y458D02*
X1573Y458D01*
X0Y457D02*
X7Y457D01*
X1156Y457D02*
X1165Y457D01*
X1499Y457D02*
X1505Y457D01*
X1546Y457D02*
X1552Y457D01*
X1566Y457D02*
X1573Y457D01*
X0Y456D02*
X7Y456D01*
X1156Y456D02*
X1165Y456D01*
X1499Y456D02*
X1505Y456D01*
X1547Y456D02*
X1552Y456D01*
X1566Y456D02*
X1573Y456D01*
X0Y455D02*
X7Y455D01*
X1156Y455D02*
X1165Y455D01*
X1500Y455D02*
X1505Y455D01*
X1547Y455D02*
X1552Y455D01*
X1566Y455D02*
X1573Y455D01*
X0Y454D02*
X7Y454D01*
X1156Y454D02*
X1165Y454D01*
X1501Y454D02*
X1504Y454D01*
X1548Y454D02*
X1551Y454D01*
X1566Y454D02*
X1573Y454D01*
X0Y453D02*
X7Y453D01*
X1156Y453D02*
X1165Y453D01*
X1566Y453D02*
X1573Y453D01*
X0Y452D02*
X7Y452D01*
X1156Y452D02*
X1165Y452D01*
X1566Y452D02*
X1573Y452D01*
X0Y451D02*
X7Y451D01*
X1156Y451D02*
X1165Y451D01*
X1566Y451D02*
X1573Y451D01*
X0Y450D02*
X7Y450D01*
X1156Y450D02*
X1165Y450D01*
X1566Y450D02*
X1573Y450D01*
X0Y449D02*
X7Y449D01*
X1156Y449D02*
X1165Y449D01*
X1566Y449D02*
X1573Y449D01*
X0Y448D02*
X7Y448D01*
X1156Y448D02*
X1165Y448D01*
X1566Y448D02*
X1573Y448D01*
X0Y447D02*
X7Y447D01*
X1156Y447D02*
X1165Y447D01*
X1566Y447D02*
X1573Y447D01*
X0Y446D02*
X7Y446D01*
X1156Y446D02*
X1165Y446D01*
X1566Y446D02*
X1573Y446D01*
X0Y445D02*
X7Y445D01*
X1156Y445D02*
X1165Y445D01*
X1566Y445D02*
X1573Y445D01*
X0Y444D02*
X7Y444D01*
X1156Y444D02*
X1165Y444D01*
X1566Y444D02*
X1573Y444D01*
X0Y443D02*
X7Y443D01*
X1156Y443D02*
X1165Y443D01*
X1566Y443D02*
X1573Y443D01*
X0Y442D02*
X7Y442D01*
X1156Y442D02*
X1165Y442D01*
X1566Y442D02*
X1573Y442D01*
X0Y441D02*
X7Y441D01*
X1156Y441D02*
X1165Y441D01*
X1566Y441D02*
X1573Y441D01*
X0Y440D02*
X7Y440D01*
X1156Y440D02*
X1165Y440D01*
X1566Y440D02*
X1573Y440D01*
X0Y439D02*
X7Y439D01*
X1156Y439D02*
X1165Y439D01*
X1566Y439D02*
X1573Y439D01*
X0Y438D02*
X7Y438D01*
X1156Y438D02*
X1165Y438D01*
X1566Y438D02*
X1573Y438D01*
X0Y437D02*
X7Y437D01*
X1156Y437D02*
X1165Y437D01*
X1501Y437D02*
X1503Y437D01*
X1548Y437D02*
X1551Y437D01*
X1566Y437D02*
X1573Y437D01*
X0Y436D02*
X7Y436D01*
X1156Y436D02*
X1165Y436D01*
X1500Y436D02*
X1505Y436D01*
X1547Y436D02*
X1552Y436D01*
X1566Y436D02*
X1573Y436D01*
X0Y435D02*
X7Y435D01*
X1156Y435D02*
X1165Y435D01*
X1500Y435D02*
X1505Y435D01*
X1547Y435D02*
X1552Y435D01*
X1566Y435D02*
X1573Y435D01*
X0Y434D02*
X7Y434D01*
X1156Y434D02*
X1165Y434D01*
X1499Y434D02*
X1505Y434D01*
X1546Y434D02*
X1552Y434D01*
X1566Y434D02*
X1573Y434D01*
X0Y433D02*
X7Y433D01*
X1156Y433D02*
X1165Y433D01*
X1499Y433D02*
X1505Y433D01*
X1546Y433D02*
X1552Y433D01*
X1566Y433D02*
X1573Y433D01*
X0Y432D02*
X7Y432D01*
X1156Y432D02*
X1165Y432D01*
X1499Y432D02*
X1505Y432D01*
X1546Y432D02*
X1552Y432D01*
X1566Y432D02*
X1573Y432D01*
X0Y431D02*
X7Y431D01*
X1156Y431D02*
X1165Y431D01*
X1499Y431D02*
X1505Y431D01*
X1546Y431D02*
X1552Y431D01*
X1566Y431D02*
X1573Y431D01*
X0Y430D02*
X7Y430D01*
X1156Y430D02*
X1165Y430D01*
X1499Y430D02*
X1505Y430D01*
X1546Y430D02*
X1552Y430D01*
X1566Y430D02*
X1573Y430D01*
X0Y429D02*
X7Y429D01*
X1156Y429D02*
X1165Y429D01*
X1499Y429D02*
X1505Y429D01*
X1546Y429D02*
X1552Y429D01*
X1566Y429D02*
X1573Y429D01*
X0Y428D02*
X7Y428D01*
X1156Y428D02*
X1165Y428D01*
X1499Y428D02*
X1505Y428D01*
X1546Y428D02*
X1552Y428D01*
X1566Y428D02*
X1573Y428D01*
X0Y427D02*
X7Y427D01*
X1156Y427D02*
X1165Y427D01*
X1499Y427D02*
X1505Y427D01*
X1546Y427D02*
X1552Y427D01*
X1566Y427D02*
X1573Y427D01*
X0Y426D02*
X7Y426D01*
X1156Y426D02*
X1165Y426D01*
X1499Y426D02*
X1505Y426D01*
X1546Y426D02*
X1552Y426D01*
X1566Y426D02*
X1573Y426D01*
X0Y425D02*
X7Y425D01*
X1156Y425D02*
X1165Y425D01*
X1499Y425D02*
X1505Y425D01*
X1546Y425D02*
X1552Y425D01*
X1566Y425D02*
X1573Y425D01*
X0Y424D02*
X7Y424D01*
X1156Y424D02*
X1165Y424D01*
X1499Y424D02*
X1505Y424D01*
X1546Y424D02*
X1552Y424D01*
X1566Y424D02*
X1573Y424D01*
X0Y423D02*
X7Y423D01*
X1156Y423D02*
X1165Y423D01*
X1499Y423D02*
X1552Y423D01*
X1566Y423D02*
X1573Y423D01*
X0Y422D02*
X7Y422D01*
X1156Y422D02*
X1165Y422D01*
X1499Y422D02*
X1552Y422D01*
X1566Y422D02*
X1573Y422D01*
X0Y421D02*
X7Y421D01*
X1156Y421D02*
X1165Y421D01*
X1499Y421D02*
X1552Y421D01*
X1566Y421D02*
X1573Y421D01*
X0Y420D02*
X7Y420D01*
X1156Y420D02*
X1165Y420D01*
X1499Y420D02*
X1552Y420D01*
X1566Y420D02*
X1573Y420D01*
X0Y419D02*
X7Y419D01*
X1156Y419D02*
X1165Y419D01*
X1499Y419D02*
X1552Y419D01*
X1566Y419D02*
X1573Y419D01*
X0Y418D02*
X7Y418D01*
X1156Y418D02*
X1165Y418D01*
X1499Y418D02*
X1552Y418D01*
X1566Y418D02*
X1573Y418D01*
X0Y417D02*
X7Y417D01*
X1156Y417D02*
X1165Y417D01*
X1499Y417D02*
X1552Y417D01*
X1566Y417D02*
X1573Y417D01*
X0Y416D02*
X7Y416D01*
X1156Y416D02*
X1165Y416D01*
X1334Y416D02*
X1353Y416D01*
X1499Y416D02*
X1505Y416D01*
X1566Y416D02*
X1573Y416D01*
X0Y415D02*
X7Y415D01*
X1156Y415D02*
X1165Y415D01*
X1324Y415D02*
X1363Y415D01*
X1499Y415D02*
X1505Y415D01*
X1566Y415D02*
X1573Y415D01*
X0Y414D02*
X7Y414D01*
X1156Y414D02*
X1165Y414D01*
X1318Y414D02*
X1369Y414D01*
X1499Y414D02*
X1505Y414D01*
X1566Y414D02*
X1573Y414D01*
X0Y413D02*
X7Y413D01*
X1156Y413D02*
X1165Y413D01*
X1313Y413D02*
X1374Y413D01*
X1499Y413D02*
X1505Y413D01*
X1566Y413D02*
X1573Y413D01*
X0Y412D02*
X7Y412D01*
X1156Y412D02*
X1165Y412D01*
X1308Y412D02*
X1378Y412D01*
X1499Y412D02*
X1505Y412D01*
X1566Y412D02*
X1573Y412D01*
X0Y411D02*
X7Y411D01*
X1156Y411D02*
X1165Y411D01*
X1305Y411D02*
X1382Y411D01*
X1499Y411D02*
X1505Y411D01*
X1566Y411D02*
X1573Y411D01*
X0Y410D02*
X7Y410D01*
X1156Y410D02*
X1165Y410D01*
X1301Y410D02*
X1385Y410D01*
X1499Y410D02*
X1506Y410D01*
X1566Y410D02*
X1573Y410D01*
X0Y409D02*
X7Y409D01*
X1156Y409D02*
X1165Y409D01*
X1298Y409D02*
X1388Y409D01*
X1499Y409D02*
X1522Y409D01*
X1566Y409D02*
X1573Y409D01*
X0Y408D02*
X7Y408D01*
X1156Y408D02*
X1165Y408D01*
X1295Y408D02*
X1391Y408D01*
X1499Y408D02*
X1523Y408D01*
X1566Y408D02*
X1573Y408D01*
X0Y407D02*
X7Y407D01*
X1156Y407D02*
X1165Y407D01*
X1292Y407D02*
X1394Y407D01*
X1499Y407D02*
X1523Y407D01*
X1566Y407D02*
X1573Y407D01*
X0Y406D02*
X7Y406D01*
X1156Y406D02*
X1165Y406D01*
X1290Y406D02*
X1397Y406D01*
X1499Y406D02*
X1523Y406D01*
X1566Y406D02*
X1573Y406D01*
X0Y405D02*
X7Y405D01*
X1156Y405D02*
X1165Y405D01*
X1287Y405D02*
X1334Y405D01*
X1352Y405D02*
X1399Y405D01*
X1500Y405D02*
X1523Y405D01*
X1566Y405D02*
X1573Y405D01*
X0Y404D02*
X7Y404D01*
X1156Y404D02*
X1165Y404D01*
X1285Y404D02*
X1324Y404D01*
X1363Y404D02*
X1402Y404D01*
X1500Y404D02*
X1522Y404D01*
X1566Y404D02*
X1573Y404D01*
X0Y403D02*
X7Y403D01*
X1156Y403D02*
X1165Y403D01*
X1283Y403D02*
X1318Y403D01*
X1369Y403D02*
X1404Y403D01*
X1502Y403D02*
X1520Y403D01*
X1566Y403D02*
X1573Y403D01*
X0Y402D02*
X7Y402D01*
X1156Y402D02*
X1165Y402D01*
X1281Y402D02*
X1313Y402D01*
X1374Y402D02*
X1406Y402D01*
X1566Y402D02*
X1573Y402D01*
X0Y401D02*
X7Y401D01*
X1156Y401D02*
X1165Y401D01*
X1279Y401D02*
X1309Y401D01*
X1378Y401D02*
X1408Y401D01*
X1566Y401D02*
X1573Y401D01*
X0Y400D02*
X7Y400D01*
X1156Y400D02*
X1165Y400D01*
X1277Y400D02*
X1305Y400D01*
X1382Y400D02*
X1410Y400D01*
X1566Y400D02*
X1573Y400D01*
X0Y399D02*
X7Y399D01*
X1156Y399D02*
X1165Y399D01*
X1275Y399D02*
X1301Y399D01*
X1385Y399D02*
X1412Y399D01*
X1566Y399D02*
X1573Y399D01*
X0Y398D02*
X7Y398D01*
X1156Y398D02*
X1165Y398D01*
X1273Y398D02*
X1298Y398D01*
X1388Y398D02*
X1414Y398D01*
X1566Y398D02*
X1573Y398D01*
X0Y397D02*
X7Y397D01*
X1156Y397D02*
X1165Y397D01*
X1271Y397D02*
X1296Y397D01*
X1391Y397D02*
X1415Y397D01*
X1566Y397D02*
X1573Y397D01*
X0Y396D02*
X7Y396D01*
X1156Y396D02*
X1165Y396D01*
X1269Y396D02*
X1293Y396D01*
X1394Y396D02*
X1417Y396D01*
X1566Y396D02*
X1573Y396D01*
X0Y395D02*
X7Y395D01*
X1156Y395D02*
X1165Y395D01*
X1268Y395D02*
X1290Y395D01*
X1396Y395D02*
X1419Y395D01*
X1566Y395D02*
X1573Y395D01*
X0Y394D02*
X7Y394D01*
X1156Y394D02*
X1165Y394D01*
X1266Y394D02*
X1288Y394D01*
X1399Y394D02*
X1420Y394D01*
X1566Y394D02*
X1573Y394D01*
X0Y393D02*
X7Y393D01*
X1156Y393D02*
X1165Y393D01*
X1264Y393D02*
X1286Y393D01*
X1401Y393D02*
X1422Y393D01*
X1566Y393D02*
X1573Y393D01*
X0Y392D02*
X7Y392D01*
X1156Y392D02*
X1165Y392D01*
X1263Y392D02*
X1284Y392D01*
X1403Y392D02*
X1424Y392D01*
X1566Y392D02*
X1573Y392D01*
X0Y391D02*
X7Y391D01*
X1156Y391D02*
X1165Y391D01*
X1261Y391D02*
X1282Y391D01*
X1405Y391D02*
X1425Y391D01*
X1566Y391D02*
X1573Y391D01*
X0Y390D02*
X7Y390D01*
X1156Y390D02*
X1165Y390D01*
X1260Y390D02*
X1280Y390D01*
X1407Y390D02*
X1427Y390D01*
X1566Y390D02*
X1573Y390D01*
X0Y389D02*
X7Y389D01*
X1156Y389D02*
X1165Y389D01*
X1258Y389D02*
X1278Y389D01*
X1409Y389D02*
X1428Y389D01*
X1566Y389D02*
X1573Y389D01*
X0Y388D02*
X7Y388D01*
X1156Y388D02*
X1165Y388D01*
X1257Y388D02*
X1276Y388D01*
X1411Y388D02*
X1429Y388D01*
X1566Y388D02*
X1573Y388D01*
X0Y387D02*
X7Y387D01*
X1156Y387D02*
X1165Y387D01*
X1256Y387D02*
X1274Y387D01*
X1413Y387D02*
X1431Y387D01*
X1566Y387D02*
X1573Y387D01*
X0Y386D02*
X7Y386D01*
X1156Y386D02*
X1165Y386D01*
X1254Y386D02*
X1273Y386D01*
X1414Y386D02*
X1432Y386D01*
X1566Y386D02*
X1573Y386D01*
X0Y385D02*
X7Y385D01*
X1156Y385D02*
X1165Y385D01*
X1253Y385D02*
X1271Y385D01*
X1416Y385D02*
X1433Y385D01*
X1566Y385D02*
X1573Y385D01*
X0Y384D02*
X7Y384D01*
X1156Y384D02*
X1165Y384D01*
X1252Y384D02*
X1269Y384D01*
X1417Y384D02*
X1435Y384D01*
X1566Y384D02*
X1573Y384D01*
X0Y383D02*
X7Y383D01*
X1156Y383D02*
X1165Y383D01*
X1251Y383D02*
X1268Y383D01*
X1419Y383D02*
X1436Y383D01*
X1566Y383D02*
X1573Y383D01*
X0Y382D02*
X7Y382D01*
X1156Y382D02*
X1165Y382D01*
X1249Y382D02*
X1266Y382D01*
X1421Y382D02*
X1437Y382D01*
X1566Y382D02*
X1573Y382D01*
X0Y381D02*
X7Y381D01*
X1156Y381D02*
X1165Y381D01*
X1248Y381D02*
X1265Y381D01*
X1422Y381D02*
X1438Y381D01*
X1566Y381D02*
X1573Y381D01*
X0Y380D02*
X7Y380D01*
X1156Y380D02*
X1165Y380D01*
X1247Y380D02*
X1263Y380D01*
X1423Y380D02*
X1439Y380D01*
X1566Y380D02*
X1573Y380D01*
X0Y379D02*
X7Y379D01*
X1156Y379D02*
X1165Y379D01*
X1246Y379D02*
X1262Y379D01*
X1425Y379D02*
X1441Y379D01*
X1566Y379D02*
X1573Y379D01*
X0Y378D02*
X7Y378D01*
X1156Y378D02*
X1165Y378D01*
X1245Y378D02*
X1261Y378D01*
X1426Y378D02*
X1442Y378D01*
X1566Y378D02*
X1573Y378D01*
X0Y377D02*
X7Y377D01*
X644Y377D02*
X646Y377D01*
X694Y377D02*
X710Y377D01*
X742Y377D02*
X768Y377D01*
X1156Y377D02*
X1165Y377D01*
X1244Y377D02*
X1259Y377D01*
X1427Y377D02*
X1443Y377D01*
X1566Y377D02*
X1573Y377D01*
X0Y376D02*
X7Y376D01*
X642Y376D02*
X647Y376D01*
X693Y376D02*
X712Y376D01*
X742Y376D02*
X770Y376D01*
X1156Y376D02*
X1165Y376D01*
X1243Y376D02*
X1258Y376D01*
X1429Y376D02*
X1444Y376D01*
X1566Y376D02*
X1573Y376D01*
X0Y375D02*
X7Y375D01*
X642Y375D02*
X647Y375D01*
X692Y375D02*
X714Y375D01*
X742Y375D02*
X772Y375D01*
X1156Y375D02*
X1165Y375D01*
X1242Y375D02*
X1257Y375D01*
X1430Y375D02*
X1445Y375D01*
X1566Y375D02*
X1573Y375D01*
X0Y374D02*
X7Y374D01*
X642Y374D02*
X648Y374D01*
X692Y374D02*
X715Y374D01*
X742Y374D02*
X773Y374D01*
X1156Y374D02*
X1165Y374D01*
X1240Y374D02*
X1256Y374D01*
X1431Y374D02*
X1446Y374D01*
X1566Y374D02*
X1573Y374D01*
X0Y373D02*
X7Y373D01*
X642Y373D02*
X648Y373D01*
X692Y373D02*
X716Y373D01*
X742Y373D02*
X774Y373D01*
X1156Y373D02*
X1165Y373D01*
X1239Y373D02*
X1255Y373D01*
X1432Y373D02*
X1447Y373D01*
X1566Y373D02*
X1573Y373D01*
X0Y372D02*
X7Y372D01*
X642Y372D02*
X648Y372D01*
X692Y372D02*
X716Y372D01*
X742Y372D02*
X774Y372D01*
X1156Y372D02*
X1165Y372D01*
X1238Y372D02*
X1253Y372D01*
X1434Y372D02*
X1448Y372D01*
X1566Y372D02*
X1573Y372D01*
X0Y371D02*
X7Y371D01*
X642Y371D02*
X648Y371D01*
X693Y371D02*
X717Y371D01*
X742Y371D02*
X775Y371D01*
X1156Y371D02*
X1165Y371D01*
X1238Y371D02*
X1252Y371D01*
X1435Y371D02*
X1449Y371D01*
X1566Y371D02*
X1573Y371D01*
X0Y370D02*
X7Y370D01*
X642Y370D02*
X648Y370D01*
X699Y370D02*
X705Y370D01*
X710Y370D02*
X717Y370D01*
X742Y370D02*
X748Y370D01*
X768Y370D02*
X775Y370D01*
X1156Y370D02*
X1165Y370D01*
X1237Y370D02*
X1251Y370D01*
X1436Y370D02*
X1450Y370D01*
X1566Y370D02*
X1573Y370D01*
X0Y369D02*
X7Y369D01*
X642Y369D02*
X648Y369D01*
X699Y369D02*
X705Y369D01*
X711Y369D02*
X718Y369D01*
X742Y369D02*
X748Y369D01*
X769Y369D02*
X775Y369D01*
X1156Y369D02*
X1165Y369D01*
X1236Y369D02*
X1250Y369D01*
X1437Y369D02*
X1451Y369D01*
X1566Y369D02*
X1573Y369D01*
X0Y368D02*
X7Y368D01*
X642Y368D02*
X648Y368D01*
X699Y368D02*
X705Y368D01*
X711Y368D02*
X718Y368D01*
X742Y368D02*
X748Y368D01*
X769Y368D02*
X775Y368D01*
X1156Y368D02*
X1165Y368D01*
X1235Y368D02*
X1249Y368D01*
X1438Y368D02*
X1452Y368D01*
X1566Y368D02*
X1573Y368D01*
X0Y367D02*
X7Y367D01*
X642Y367D02*
X648Y367D01*
X699Y367D02*
X705Y367D01*
X712Y367D02*
X719Y367D01*
X742Y367D02*
X748Y367D01*
X770Y367D02*
X776Y367D01*
X1156Y367D02*
X1165Y367D01*
X1234Y367D02*
X1248Y367D01*
X1439Y367D02*
X1453Y367D01*
X1566Y367D02*
X1573Y367D01*
X0Y366D02*
X7Y366D01*
X642Y366D02*
X648Y366D01*
X699Y366D02*
X705Y366D01*
X712Y366D02*
X719Y366D01*
X742Y366D02*
X748Y366D01*
X770Y366D02*
X776Y366D01*
X1156Y366D02*
X1165Y366D01*
X1233Y366D02*
X1247Y366D01*
X1440Y366D02*
X1454Y366D01*
X1566Y366D02*
X1573Y366D01*
X0Y365D02*
X7Y365D01*
X642Y365D02*
X648Y365D01*
X699Y365D02*
X705Y365D01*
X713Y365D02*
X720Y365D01*
X742Y365D02*
X748Y365D01*
X770Y365D02*
X776Y365D01*
X1156Y365D02*
X1165Y365D01*
X1232Y365D02*
X1246Y365D01*
X1441Y365D02*
X1454Y365D01*
X1566Y365D02*
X1573Y365D01*
X0Y364D02*
X7Y364D01*
X642Y364D02*
X648Y364D01*
X699Y364D02*
X705Y364D01*
X714Y364D02*
X720Y364D01*
X742Y364D02*
X748Y364D01*
X770Y364D02*
X776Y364D01*
X1156Y364D02*
X1165Y364D01*
X1231Y364D02*
X1245Y364D01*
X1442Y364D02*
X1455Y364D01*
X1566Y364D02*
X1573Y364D01*
X0Y363D02*
X7Y363D01*
X642Y363D02*
X648Y363D01*
X699Y363D02*
X705Y363D01*
X714Y363D02*
X721Y363D01*
X742Y363D02*
X748Y363D01*
X769Y363D02*
X776Y363D01*
X1156Y363D02*
X1165Y363D01*
X1230Y363D02*
X1244Y363D01*
X1443Y363D02*
X1456Y363D01*
X1566Y363D02*
X1573Y363D01*
X0Y362D02*
X7Y362D01*
X642Y362D02*
X648Y362D01*
X699Y362D02*
X705Y362D01*
X715Y362D02*
X721Y362D01*
X742Y362D02*
X748Y362D01*
X769Y362D02*
X775Y362D01*
X1156Y362D02*
X1165Y362D01*
X1229Y362D02*
X1243Y362D01*
X1444Y362D02*
X1457Y362D01*
X1566Y362D02*
X1573Y362D01*
X0Y361D02*
X7Y361D01*
X642Y361D02*
X648Y361D01*
X699Y361D02*
X705Y361D01*
X715Y361D02*
X722Y361D01*
X742Y361D02*
X748Y361D01*
X769Y361D02*
X775Y361D01*
X1156Y361D02*
X1165Y361D01*
X1229Y361D02*
X1242Y361D01*
X1445Y361D02*
X1458Y361D01*
X1566Y361D02*
X1573Y361D01*
X0Y360D02*
X7Y360D01*
X642Y360D02*
X648Y360D01*
X699Y360D02*
X705Y360D01*
X716Y360D02*
X722Y360D01*
X742Y360D02*
X748Y360D01*
X767Y360D02*
X775Y360D01*
X1156Y360D02*
X1165Y360D01*
X1228Y360D02*
X1241Y360D01*
X1446Y360D02*
X1459Y360D01*
X1566Y360D02*
X1573Y360D01*
X0Y359D02*
X7Y359D01*
X642Y359D02*
X648Y359D01*
X699Y359D02*
X705Y359D01*
X716Y359D02*
X723Y359D01*
X742Y359D02*
X775Y359D01*
X1156Y359D02*
X1165Y359D01*
X1227Y359D02*
X1240Y359D01*
X1447Y359D02*
X1459Y359D01*
X1566Y359D02*
X1573Y359D01*
X0Y358D02*
X7Y358D01*
X642Y358D02*
X648Y358D01*
X699Y358D02*
X705Y358D01*
X717Y358D02*
X723Y358D01*
X742Y358D02*
X774Y358D01*
X1156Y358D02*
X1165Y358D01*
X1226Y358D02*
X1240Y358D01*
X1447Y358D02*
X1460Y358D01*
X1566Y358D02*
X1573Y358D01*
X0Y357D02*
X7Y357D01*
X642Y357D02*
X648Y357D01*
X699Y357D02*
X705Y357D01*
X717Y357D02*
X724Y357D01*
X742Y357D02*
X773Y357D01*
X1156Y357D02*
X1165Y357D01*
X1226Y357D02*
X1239Y357D01*
X1448Y357D02*
X1461Y357D01*
X1566Y357D02*
X1573Y357D01*
X0Y356D02*
X7Y356D01*
X642Y356D02*
X648Y356D01*
X699Y356D02*
X705Y356D01*
X718Y356D02*
X724Y356D01*
X742Y356D02*
X773Y356D01*
X1156Y356D02*
X1165Y356D01*
X1225Y356D02*
X1238Y356D01*
X1449Y356D02*
X1462Y356D01*
X1566Y356D02*
X1573Y356D01*
X0Y355D02*
X7Y355D01*
X642Y355D02*
X648Y355D01*
X699Y355D02*
X705Y355D01*
X718Y355D02*
X725Y355D01*
X742Y355D02*
X771Y355D01*
X1156Y355D02*
X1165Y355D01*
X1224Y355D02*
X1237Y355D01*
X1450Y355D02*
X1462Y355D01*
X1566Y355D02*
X1573Y355D01*
X0Y354D02*
X7Y354D01*
X642Y354D02*
X648Y354D01*
X699Y354D02*
X705Y354D01*
X719Y354D02*
X725Y354D01*
X742Y354D02*
X770Y354D01*
X1156Y354D02*
X1165Y354D01*
X1223Y354D02*
X1236Y354D01*
X1451Y354D02*
X1463Y354D01*
X1566Y354D02*
X1573Y354D01*
X0Y353D02*
X7Y353D01*
X642Y353D02*
X648Y353D01*
X699Y353D02*
X705Y353D01*
X719Y353D02*
X725Y353D01*
X742Y353D02*
X767Y353D01*
X1156Y353D02*
X1165Y353D01*
X1223Y353D02*
X1235Y353D01*
X1451Y353D02*
X1464Y353D01*
X1566Y353D02*
X1573Y353D01*
X0Y352D02*
X7Y352D01*
X642Y352D02*
X648Y352D01*
X699Y352D02*
X705Y352D01*
X719Y352D02*
X725Y352D01*
X742Y352D02*
X748Y352D01*
X754Y352D02*
X761Y352D01*
X1156Y352D02*
X1165Y352D01*
X1222Y352D02*
X1235Y352D01*
X1452Y352D02*
X1465Y352D01*
X1566Y352D02*
X1573Y352D01*
X0Y351D02*
X7Y351D01*
X642Y351D02*
X648Y351D01*
X699Y351D02*
X705Y351D01*
X719Y351D02*
X725Y351D01*
X742Y351D02*
X748Y351D01*
X755Y351D02*
X762Y351D01*
X1156Y351D02*
X1165Y351D01*
X1221Y351D02*
X1234Y351D01*
X1453Y351D02*
X1465Y351D01*
X1566Y351D02*
X1573Y351D01*
X0Y350D02*
X7Y350D01*
X642Y350D02*
X648Y350D01*
X699Y350D02*
X705Y350D01*
X719Y350D02*
X725Y350D01*
X742Y350D02*
X748Y350D01*
X755Y350D02*
X763Y350D01*
X1156Y350D02*
X1165Y350D01*
X1221Y350D02*
X1233Y350D01*
X1454Y350D02*
X1466Y350D01*
X1566Y350D02*
X1573Y350D01*
X0Y349D02*
X7Y349D01*
X642Y349D02*
X648Y349D01*
X699Y349D02*
X705Y349D01*
X719Y349D02*
X725Y349D01*
X742Y349D02*
X748Y349D01*
X756Y349D02*
X763Y349D01*
X1156Y349D02*
X1165Y349D01*
X1220Y349D02*
X1232Y349D01*
X1454Y349D02*
X1467Y349D01*
X1566Y349D02*
X1573Y349D01*
X0Y348D02*
X7Y348D01*
X642Y348D02*
X648Y348D01*
X699Y348D02*
X705Y348D01*
X719Y348D02*
X725Y348D01*
X742Y348D02*
X748Y348D01*
X757Y348D02*
X764Y348D01*
X1156Y348D02*
X1165Y348D01*
X1220Y348D02*
X1232Y348D01*
X1455Y348D02*
X1467Y348D01*
X1566Y348D02*
X1573Y348D01*
X0Y347D02*
X7Y347D01*
X642Y347D02*
X648Y347D01*
X699Y347D02*
X705Y347D01*
X719Y347D02*
X725Y347D01*
X742Y347D02*
X748Y347D01*
X757Y347D02*
X764Y347D01*
X1156Y347D02*
X1165Y347D01*
X1220Y347D02*
X1231Y347D01*
X1456Y347D02*
X1468Y347D01*
X1566Y347D02*
X1573Y347D01*
X0Y346D02*
X7Y346D01*
X642Y346D02*
X648Y346D01*
X699Y346D02*
X705Y346D01*
X718Y346D02*
X725Y346D01*
X742Y346D02*
X748Y346D01*
X758Y346D02*
X765Y346D01*
X1156Y346D02*
X1165Y346D01*
X1220Y346D02*
X1231Y346D01*
X1457Y346D02*
X1469Y346D01*
X1566Y346D02*
X1573Y346D01*
X0Y345D02*
X7Y345D01*
X642Y345D02*
X648Y345D01*
X699Y345D02*
X705Y345D01*
X718Y345D02*
X724Y345D01*
X742Y345D02*
X748Y345D01*
X758Y345D02*
X765Y345D01*
X1156Y345D02*
X1165Y345D01*
X1220Y345D02*
X1230Y345D01*
X1457Y345D02*
X1469Y345D01*
X1566Y345D02*
X1573Y345D01*
X0Y344D02*
X7Y344D01*
X642Y344D02*
X648Y344D01*
X699Y344D02*
X705Y344D01*
X717Y344D02*
X724Y344D01*
X742Y344D02*
X748Y344D01*
X759Y344D02*
X766Y344D01*
X1156Y344D02*
X1165Y344D01*
X1220Y344D02*
X1230Y344D01*
X1458Y344D02*
X1470Y344D01*
X1566Y344D02*
X1573Y344D01*
X0Y343D02*
X7Y343D01*
X642Y343D02*
X648Y343D01*
X699Y343D02*
X705Y343D01*
X717Y343D02*
X724Y343D01*
X742Y343D02*
X748Y343D01*
X759Y343D02*
X767Y343D01*
X1156Y343D02*
X1165Y343D01*
X1220Y343D02*
X1230Y343D01*
X1459Y343D02*
X1470Y343D01*
X1566Y343D02*
X1573Y343D01*
X0Y342D02*
X7Y342D01*
X642Y342D02*
X648Y342D01*
X699Y342D02*
X705Y342D01*
X716Y342D02*
X723Y342D01*
X742Y342D02*
X748Y342D01*
X760Y342D02*
X767Y342D01*
X1156Y342D02*
X1165Y342D01*
X1220Y342D02*
X1230Y342D01*
X1459Y342D02*
X1471Y342D01*
X1566Y342D02*
X1573Y342D01*
X0Y341D02*
X7Y341D01*
X642Y341D02*
X648Y341D01*
X699Y341D02*
X705Y341D01*
X716Y341D02*
X723Y341D01*
X742Y341D02*
X748Y341D01*
X761Y341D02*
X768Y341D01*
X1156Y341D02*
X1165Y341D01*
X1220Y341D02*
X1230Y341D01*
X1460Y341D02*
X1472Y341D01*
X1566Y341D02*
X1573Y341D01*
X0Y340D02*
X7Y340D01*
X642Y340D02*
X648Y340D01*
X699Y340D02*
X705Y340D01*
X715Y340D02*
X722Y340D01*
X742Y340D02*
X748Y340D01*
X761Y340D02*
X768Y340D01*
X1156Y340D02*
X1165Y340D01*
X1220Y340D02*
X1230Y340D01*
X1460Y340D02*
X1472Y340D01*
X1566Y340D02*
X1573Y340D01*
X0Y339D02*
X7Y339D01*
X642Y339D02*
X648Y339D01*
X699Y339D02*
X705Y339D01*
X715Y339D02*
X722Y339D01*
X742Y339D02*
X748Y339D01*
X762Y339D02*
X769Y339D01*
X1156Y339D02*
X1165Y339D01*
X1220Y339D02*
X1230Y339D01*
X1461Y339D02*
X1473Y339D01*
X1566Y339D02*
X1573Y339D01*
X0Y338D02*
X7Y338D01*
X642Y338D02*
X648Y338D01*
X699Y338D02*
X705Y338D01*
X714Y338D02*
X721Y338D01*
X742Y338D02*
X748Y338D01*
X762Y338D02*
X770Y338D01*
X1156Y338D02*
X1165Y338D01*
X1220Y338D02*
X1230Y338D01*
X1462Y338D02*
X1473Y338D01*
X1566Y338D02*
X1573Y338D01*
X0Y337D02*
X7Y337D01*
X642Y337D02*
X648Y337D01*
X699Y337D02*
X705Y337D01*
X714Y337D02*
X721Y337D01*
X742Y337D02*
X748Y337D01*
X763Y337D02*
X770Y337D01*
X1156Y337D02*
X1165Y337D01*
X1220Y337D02*
X1230Y337D01*
X1462Y337D02*
X1474Y337D01*
X1566Y337D02*
X1573Y337D01*
X0Y336D02*
X7Y336D01*
X642Y336D02*
X648Y336D01*
X699Y336D02*
X705Y336D01*
X713Y336D02*
X720Y336D01*
X742Y336D02*
X748Y336D01*
X764Y336D02*
X771Y336D01*
X1156Y336D02*
X1165Y336D01*
X1220Y336D02*
X1230Y336D01*
X1463Y336D02*
X1474Y336D01*
X1566Y336D02*
X1573Y336D01*
X0Y335D02*
X7Y335D01*
X642Y335D02*
X648Y335D01*
X699Y335D02*
X705Y335D01*
X713Y335D02*
X720Y335D01*
X742Y335D02*
X748Y335D01*
X764Y335D02*
X771Y335D01*
X1156Y335D02*
X1165Y335D01*
X1220Y335D02*
X1230Y335D01*
X1463Y335D02*
X1475Y335D01*
X1566Y335D02*
X1573Y335D01*
X0Y334D02*
X7Y334D01*
X642Y334D02*
X648Y334D01*
X699Y334D02*
X705Y334D01*
X712Y334D02*
X719Y334D01*
X742Y334D02*
X748Y334D01*
X765Y334D02*
X772Y334D01*
X1156Y334D02*
X1165Y334D01*
X1220Y334D02*
X1230Y334D01*
X1464Y334D02*
X1475Y334D01*
X1566Y334D02*
X1573Y334D01*
X0Y333D02*
X7Y333D01*
X642Y333D02*
X648Y333D01*
X699Y333D02*
X705Y333D01*
X712Y333D02*
X719Y333D01*
X742Y333D02*
X748Y333D01*
X765Y333D02*
X772Y333D01*
X1156Y333D02*
X1165Y333D01*
X1220Y333D02*
X1230Y333D01*
X1464Y333D02*
X1476Y333D01*
X1566Y333D02*
X1573Y333D01*
X0Y332D02*
X7Y332D01*
X642Y332D02*
X648Y332D01*
X699Y332D02*
X705Y332D01*
X711Y332D02*
X718Y332D01*
X742Y332D02*
X748Y332D01*
X766Y332D02*
X773Y332D01*
X1156Y332D02*
X1165Y332D01*
X1220Y332D02*
X1230Y332D01*
X1465Y332D02*
X1476Y332D01*
X1566Y332D02*
X1573Y332D01*
X0Y331D02*
X7Y331D01*
X642Y331D02*
X648Y331D01*
X699Y331D02*
X705Y331D01*
X710Y331D02*
X718Y331D01*
X742Y331D02*
X748Y331D01*
X766Y331D02*
X774Y331D01*
X1156Y331D02*
X1165Y331D01*
X1220Y331D02*
X1230Y331D01*
X1465Y331D02*
X1477Y331D01*
X1566Y331D02*
X1573Y331D01*
X0Y330D02*
X7Y330D01*
X642Y330D02*
X673Y330D01*
X694Y330D02*
X717Y330D01*
X742Y330D02*
X748Y330D01*
X767Y330D02*
X774Y330D01*
X1156Y330D02*
X1165Y330D01*
X1220Y330D02*
X1230Y330D01*
X1466Y330D02*
X1477Y330D01*
X1566Y330D02*
X1573Y330D01*
X0Y329D02*
X7Y329D01*
X642Y329D02*
X674Y329D01*
X693Y329D02*
X717Y329D01*
X742Y329D02*
X748Y329D01*
X768Y329D02*
X775Y329D01*
X1156Y329D02*
X1165Y329D01*
X1220Y329D02*
X1230Y329D01*
X1466Y329D02*
X1478Y329D01*
X1566Y329D02*
X1573Y329D01*
X0Y328D02*
X7Y328D01*
X642Y328D02*
X675Y328D01*
X692Y328D02*
X716Y328D01*
X742Y328D02*
X748Y328D01*
X768Y328D02*
X775Y328D01*
X1156Y328D02*
X1165Y328D01*
X1220Y328D02*
X1230Y328D01*
X1467Y328D02*
X1478Y328D01*
X1566Y328D02*
X1573Y328D01*
X0Y327D02*
X7Y327D01*
X642Y327D02*
X675Y327D01*
X692Y327D02*
X715Y327D01*
X742Y327D02*
X748Y327D01*
X769Y327D02*
X775Y327D01*
X1156Y327D02*
X1165Y327D01*
X1220Y327D02*
X1230Y327D01*
X1467Y327D02*
X1478Y327D01*
X1566Y327D02*
X1573Y327D01*
X0Y326D02*
X7Y326D01*
X642Y326D02*
X675Y326D01*
X692Y326D02*
X714Y326D01*
X742Y326D02*
X748Y326D01*
X769Y326D02*
X775Y326D01*
X1156Y326D02*
X1165Y326D01*
X1220Y326D02*
X1230Y326D01*
X1468Y326D02*
X1479Y326D01*
X1566Y326D02*
X1573Y326D01*
X0Y325D02*
X7Y325D01*
X642Y325D02*
X675Y325D01*
X692Y325D02*
X713Y325D01*
X743Y325D02*
X747Y325D01*
X770Y325D02*
X775Y325D01*
X1156Y325D02*
X1165Y325D01*
X1220Y325D02*
X1230Y325D01*
X1468Y325D02*
X1479Y325D01*
X1566Y325D02*
X1573Y325D01*
X0Y324D02*
X7Y324D01*
X642Y324D02*
X674Y324D01*
X693Y324D02*
X711Y324D01*
X743Y324D02*
X746Y324D01*
X771Y324D02*
X774Y324D01*
X1156Y324D02*
X1165Y324D01*
X1220Y324D02*
X1230Y324D01*
X1469Y324D02*
X1480Y324D01*
X1566Y324D02*
X1573Y324D01*
X0Y323D02*
X7Y323D01*
X1156Y323D02*
X1165Y323D01*
X1220Y323D02*
X1230Y323D01*
X1469Y323D02*
X1480Y323D01*
X1566Y323D02*
X1573Y323D01*
X0Y322D02*
X7Y322D01*
X1156Y322D02*
X1165Y322D01*
X1220Y322D02*
X1230Y322D01*
X1470Y322D02*
X1481Y322D01*
X1566Y322D02*
X1573Y322D01*
X0Y321D02*
X7Y321D01*
X1156Y321D02*
X1165Y321D01*
X1220Y321D02*
X1230Y321D01*
X1470Y321D02*
X1481Y321D01*
X1566Y321D02*
X1573Y321D01*
X0Y320D02*
X7Y320D01*
X1156Y320D02*
X1165Y320D01*
X1220Y320D02*
X1230Y320D01*
X1470Y320D02*
X1481Y320D01*
X1566Y320D02*
X1573Y320D01*
X0Y319D02*
X7Y319D01*
X1156Y319D02*
X1165Y319D01*
X1220Y319D02*
X1230Y319D01*
X1471Y319D02*
X1482Y319D01*
X1566Y319D02*
X1573Y319D01*
X0Y318D02*
X7Y318D01*
X1156Y318D02*
X1165Y318D01*
X1220Y318D02*
X1230Y318D01*
X1471Y318D02*
X1482Y318D01*
X1566Y318D02*
X1573Y318D01*
X0Y317D02*
X7Y317D01*
X1156Y317D02*
X1165Y317D01*
X1220Y317D02*
X1230Y317D01*
X1472Y317D02*
X1482Y317D01*
X1566Y317D02*
X1573Y317D01*
X0Y316D02*
X7Y316D01*
X1156Y316D02*
X1165Y316D01*
X1220Y316D02*
X1230Y316D01*
X1472Y316D02*
X1483Y316D01*
X1566Y316D02*
X1573Y316D01*
X0Y315D02*
X7Y315D01*
X1156Y315D02*
X1165Y315D01*
X1220Y315D02*
X1230Y315D01*
X1472Y315D02*
X1483Y315D01*
X1566Y315D02*
X1573Y315D01*
X0Y314D02*
X7Y314D01*
X1156Y314D02*
X1165Y314D01*
X1220Y314D02*
X1230Y314D01*
X1473Y314D02*
X1480Y314D01*
X1566Y314D02*
X1573Y314D01*
X0Y313D02*
X7Y313D01*
X1156Y313D02*
X1165Y313D01*
X1473Y313D02*
X1477Y313D01*
X1566Y313D02*
X1573Y313D01*
X0Y312D02*
X7Y312D01*
X1156Y312D02*
X1165Y312D01*
X1473Y312D02*
X1474Y312D01*
X1566Y312D02*
X1573Y312D01*
X0Y311D02*
X7Y311D01*
X1156Y311D02*
X1165Y311D01*
X1566Y311D02*
X1573Y311D01*
X0Y310D02*
X7Y310D01*
X1156Y310D02*
X1165Y310D01*
X1566Y310D02*
X1573Y310D01*
X0Y309D02*
X7Y309D01*
X1156Y309D02*
X1165Y309D01*
X1566Y309D02*
X1573Y309D01*
X0Y308D02*
X7Y308D01*
X1156Y308D02*
X1165Y308D01*
X1566Y308D02*
X1573Y308D01*
X0Y307D02*
X7Y307D01*
X1156Y307D02*
X1165Y307D01*
X1566Y307D02*
X1573Y307D01*
X0Y306D02*
X7Y306D01*
X1156Y306D02*
X1165Y306D01*
X1566Y306D02*
X1573Y306D01*
X0Y305D02*
X7Y305D01*
X1156Y305D02*
X1165Y305D01*
X1566Y305D02*
X1573Y305D01*
X0Y304D02*
X7Y304D01*
X1156Y304D02*
X1165Y304D01*
X1566Y304D02*
X1573Y304D01*
X0Y303D02*
X7Y303D01*
X1156Y303D02*
X1165Y303D01*
X1566Y303D02*
X1573Y303D01*
X0Y302D02*
X7Y302D01*
X1156Y302D02*
X1165Y302D01*
X1566Y302D02*
X1573Y302D01*
X0Y301D02*
X7Y301D01*
X1156Y301D02*
X1165Y301D01*
X1566Y301D02*
X1573Y301D01*
X0Y300D02*
X7Y300D01*
X1156Y300D02*
X1165Y300D01*
X1566Y300D02*
X1573Y300D01*
X0Y299D02*
X7Y299D01*
X1156Y299D02*
X1165Y299D01*
X1566Y299D02*
X1573Y299D01*
X0Y298D02*
X7Y298D01*
X1156Y298D02*
X1165Y298D01*
X1566Y298D02*
X1573Y298D01*
X0Y297D02*
X7Y297D01*
X1156Y297D02*
X1165Y297D01*
X1566Y297D02*
X1573Y297D01*
X0Y296D02*
X7Y296D01*
X1156Y296D02*
X1165Y296D01*
X1566Y296D02*
X1573Y296D01*
X0Y295D02*
X7Y295D01*
X1156Y295D02*
X1165Y295D01*
X1566Y295D02*
X1573Y295D01*
X0Y294D02*
X7Y294D01*
X1156Y294D02*
X1165Y294D01*
X1566Y294D02*
X1573Y294D01*
X0Y293D02*
X7Y293D01*
X1156Y293D02*
X1165Y293D01*
X1566Y293D02*
X1573Y293D01*
X0Y292D02*
X7Y292D01*
X1156Y292D02*
X1165Y292D01*
X1566Y292D02*
X1573Y292D01*
X0Y291D02*
X7Y291D01*
X1156Y291D02*
X1165Y291D01*
X1566Y291D02*
X1573Y291D01*
X0Y290D02*
X7Y290D01*
X1156Y290D02*
X1165Y290D01*
X1566Y290D02*
X1573Y290D01*
X0Y289D02*
X7Y289D01*
X1156Y289D02*
X1165Y289D01*
X1566Y289D02*
X1573Y289D01*
X0Y288D02*
X7Y288D01*
X1156Y288D02*
X1165Y288D01*
X1566Y288D02*
X1573Y288D01*
X0Y287D02*
X7Y287D01*
X1156Y287D02*
X1165Y287D01*
X1566Y287D02*
X1573Y287D01*
X0Y286D02*
X7Y286D01*
X1156Y286D02*
X1165Y286D01*
X1566Y286D02*
X1573Y286D01*
X0Y285D02*
X7Y285D01*
X1156Y285D02*
X1165Y285D01*
X1566Y285D02*
X1573Y285D01*
X0Y284D02*
X7Y284D01*
X1156Y284D02*
X1165Y284D01*
X1566Y284D02*
X1573Y284D01*
X0Y283D02*
X7Y283D01*
X1156Y283D02*
X1165Y283D01*
X1566Y283D02*
X1573Y283D01*
X0Y282D02*
X7Y282D01*
X1156Y282D02*
X1165Y282D01*
X1566Y282D02*
X1573Y282D01*
X0Y281D02*
X7Y281D01*
X1156Y281D02*
X1165Y281D01*
X1566Y281D02*
X1573Y281D01*
X0Y280D02*
X7Y280D01*
X1156Y280D02*
X1165Y280D01*
X1566Y280D02*
X1573Y280D01*
X0Y279D02*
X7Y279D01*
X1156Y279D02*
X1165Y279D01*
X1566Y279D02*
X1573Y279D01*
X0Y278D02*
X7Y278D01*
X1156Y278D02*
X1165Y278D01*
X1566Y278D02*
X1573Y278D01*
X0Y277D02*
X7Y277D01*
X1156Y277D02*
X1165Y277D01*
X1566Y277D02*
X1573Y277D01*
X0Y276D02*
X7Y276D01*
X1156Y276D02*
X1165Y276D01*
X1566Y276D02*
X1573Y276D01*
X0Y275D02*
X7Y275D01*
X1156Y275D02*
X1165Y275D01*
X1566Y275D02*
X1573Y275D01*
X0Y274D02*
X7Y274D01*
X1156Y274D02*
X1165Y274D01*
X1566Y274D02*
X1573Y274D01*
X0Y273D02*
X7Y273D01*
X1156Y273D02*
X1165Y273D01*
X1566Y273D02*
X1573Y273D01*
X0Y272D02*
X7Y272D01*
X1156Y272D02*
X1165Y272D01*
X1566Y272D02*
X1573Y272D01*
X0Y271D02*
X7Y271D01*
X1156Y271D02*
X1165Y271D01*
X1566Y271D02*
X1573Y271D01*
X0Y270D02*
X7Y270D01*
X1156Y270D02*
X1165Y270D01*
X1566Y270D02*
X1573Y270D01*
X0Y269D02*
X7Y269D01*
X1156Y269D02*
X1165Y269D01*
X1566Y269D02*
X1573Y269D01*
X0Y268D02*
X7Y268D01*
X1156Y268D02*
X1165Y268D01*
X1566Y268D02*
X1573Y268D01*
X0Y267D02*
X7Y267D01*
X1156Y267D02*
X1165Y267D01*
X1566Y267D02*
X1573Y267D01*
X0Y266D02*
X7Y266D01*
X1156Y266D02*
X1165Y266D01*
X1566Y266D02*
X1573Y266D01*
X0Y265D02*
X7Y265D01*
X1156Y265D02*
X1165Y265D01*
X1566Y265D02*
X1573Y265D01*
X0Y264D02*
X7Y264D01*
X1156Y264D02*
X1165Y264D01*
X1566Y264D02*
X1573Y264D01*
X0Y263D02*
X7Y263D01*
X1156Y263D02*
X1165Y263D01*
X1566Y263D02*
X1573Y263D01*
X0Y262D02*
X7Y262D01*
X1156Y262D02*
X1165Y262D01*
X1566Y262D02*
X1573Y262D01*
X0Y261D02*
X7Y261D01*
X1156Y261D02*
X1165Y261D01*
X1566Y261D02*
X1573Y261D01*
X0Y260D02*
X7Y260D01*
X1156Y260D02*
X1165Y260D01*
X1566Y260D02*
X1573Y260D01*
X0Y259D02*
X7Y259D01*
X1156Y259D02*
X1165Y259D01*
X1566Y259D02*
X1573Y259D01*
X0Y258D02*
X7Y258D01*
X1156Y258D02*
X1165Y258D01*
X1566Y258D02*
X1573Y258D01*
X0Y257D02*
X7Y257D01*
X1156Y257D02*
X1165Y257D01*
X1566Y257D02*
X1573Y257D01*
X0Y256D02*
X7Y256D01*
X1156Y256D02*
X1165Y256D01*
X1566Y256D02*
X1573Y256D01*
X0Y255D02*
X7Y255D01*
X1156Y255D02*
X1165Y255D01*
X1566Y255D02*
X1573Y255D01*
X0Y254D02*
X7Y254D01*
X1156Y254D02*
X1165Y254D01*
X1566Y254D02*
X1573Y254D01*
X0Y253D02*
X7Y253D01*
X1156Y253D02*
X1165Y253D01*
X1566Y253D02*
X1573Y253D01*
X0Y252D02*
X7Y252D01*
X1156Y252D02*
X1165Y252D01*
X1566Y252D02*
X1573Y252D01*
X0Y251D02*
X7Y251D01*
X1156Y251D02*
X1165Y251D01*
X1566Y251D02*
X1573Y251D01*
X0Y250D02*
X7Y250D01*
X1156Y250D02*
X1165Y250D01*
X1566Y250D02*
X1573Y250D01*
X0Y249D02*
X7Y249D01*
X1156Y249D02*
X1165Y249D01*
X1566Y249D02*
X1573Y249D01*
X0Y248D02*
X7Y248D01*
X1156Y248D02*
X1165Y248D01*
X1566Y248D02*
X1573Y248D01*
X0Y247D02*
X7Y247D01*
X1156Y247D02*
X1165Y247D01*
X1566Y247D02*
X1573Y247D01*
X0Y246D02*
X7Y246D01*
X1156Y246D02*
X1165Y246D01*
X1566Y246D02*
X1573Y246D01*
X0Y245D02*
X7Y245D01*
X1156Y245D02*
X1165Y245D01*
X1566Y245D02*
X1573Y245D01*
X0Y244D02*
X7Y244D01*
X1156Y244D02*
X1165Y244D01*
X1566Y244D02*
X1573Y244D01*
X0Y243D02*
X7Y243D01*
X1156Y243D02*
X1165Y243D01*
X1566Y243D02*
X1573Y243D01*
X0Y242D02*
X7Y242D01*
X1156Y242D02*
X1165Y242D01*
X1566Y242D02*
X1573Y242D01*
X0Y241D02*
X7Y241D01*
X1156Y241D02*
X1165Y241D01*
X1566Y241D02*
X1573Y241D01*
X0Y240D02*
X7Y240D01*
X1156Y240D02*
X1165Y240D01*
X1566Y240D02*
X1573Y240D01*
X0Y239D02*
X7Y239D01*
X1156Y239D02*
X1165Y239D01*
X1566Y239D02*
X1573Y239D01*
X0Y238D02*
X7Y238D01*
X1156Y238D02*
X1165Y238D01*
X1566Y238D02*
X1573Y238D01*
X0Y237D02*
X7Y237D01*
X1156Y237D02*
X1165Y237D01*
X1566Y237D02*
X1573Y237D01*
X0Y236D02*
X7Y236D01*
X1156Y236D02*
X1165Y236D01*
X1566Y236D02*
X1573Y236D01*
X0Y235D02*
X7Y235D01*
X1156Y235D02*
X1165Y235D01*
X1566Y235D02*
X1573Y235D01*
X0Y234D02*
X7Y234D01*
X1156Y234D02*
X1165Y234D01*
X1566Y234D02*
X1573Y234D01*
X0Y233D02*
X7Y233D01*
X1156Y233D02*
X1165Y233D01*
X1566Y233D02*
X1573Y233D01*
X0Y232D02*
X7Y232D01*
X1156Y232D02*
X1165Y232D01*
X1566Y232D02*
X1573Y232D01*
X0Y231D02*
X7Y231D01*
X1156Y231D02*
X1165Y231D01*
X1566Y231D02*
X1573Y231D01*
X0Y230D02*
X7Y230D01*
X1156Y230D02*
X1165Y230D01*
X1566Y230D02*
X1573Y230D01*
X0Y229D02*
X7Y229D01*
X1156Y229D02*
X1165Y229D01*
X1566Y229D02*
X1573Y229D01*
X0Y228D02*
X7Y228D01*
X1156Y228D02*
X1165Y228D01*
X1566Y228D02*
X1573Y228D01*
X0Y227D02*
X7Y227D01*
X1156Y227D02*
X1165Y227D01*
X1566Y227D02*
X1573Y227D01*
X0Y226D02*
X7Y226D01*
X1156Y226D02*
X1165Y226D01*
X1566Y226D02*
X1573Y226D01*
X0Y225D02*
X7Y225D01*
X1156Y225D02*
X1165Y225D01*
X1473Y225D02*
X1476Y225D01*
X1566Y225D02*
X1573Y225D01*
X0Y224D02*
X7Y224D01*
X1156Y224D02*
X1165Y224D01*
X1220Y224D02*
X1230Y224D01*
X1473Y224D02*
X1479Y224D01*
X1566Y224D02*
X1573Y224D01*
X0Y223D02*
X7Y223D01*
X1156Y223D02*
X1165Y223D01*
X1220Y223D02*
X1230Y223D01*
X1472Y223D02*
X1482Y223D01*
X1566Y223D02*
X1573Y223D01*
X0Y222D02*
X7Y222D01*
X1156Y222D02*
X1165Y222D01*
X1220Y222D02*
X1230Y222D01*
X1472Y222D02*
X1483Y222D01*
X1566Y222D02*
X1573Y222D01*
X0Y221D02*
X7Y221D01*
X1156Y221D02*
X1165Y221D01*
X1220Y221D02*
X1230Y221D01*
X1472Y221D02*
X1482Y221D01*
X1566Y221D02*
X1573Y221D01*
X0Y220D02*
X7Y220D01*
X1156Y220D02*
X1165Y220D01*
X1220Y220D02*
X1230Y220D01*
X1471Y220D02*
X1482Y220D01*
X1566Y220D02*
X1573Y220D01*
X0Y219D02*
X7Y219D01*
X1156Y219D02*
X1165Y219D01*
X1220Y219D02*
X1230Y219D01*
X1471Y219D02*
X1482Y219D01*
X1566Y219D02*
X1573Y219D01*
X0Y218D02*
X7Y218D01*
X1156Y218D02*
X1165Y218D01*
X1220Y218D02*
X1230Y218D01*
X1470Y218D02*
X1481Y218D01*
X1566Y218D02*
X1573Y218D01*
X0Y217D02*
X7Y217D01*
X1156Y217D02*
X1165Y217D01*
X1220Y217D02*
X1230Y217D01*
X1470Y217D02*
X1481Y217D01*
X1566Y217D02*
X1573Y217D01*
X0Y216D02*
X7Y216D01*
X1156Y216D02*
X1165Y216D01*
X1220Y216D02*
X1230Y216D01*
X1470Y216D02*
X1481Y216D01*
X1566Y216D02*
X1573Y216D01*
X0Y215D02*
X7Y215D01*
X1156Y215D02*
X1165Y215D01*
X1220Y215D02*
X1230Y215D01*
X1469Y215D02*
X1480Y215D01*
X1566Y215D02*
X1573Y215D01*
X0Y214D02*
X7Y214D01*
X1156Y214D02*
X1165Y214D01*
X1220Y214D02*
X1230Y214D01*
X1469Y214D02*
X1480Y214D01*
X1566Y214D02*
X1573Y214D01*
X0Y213D02*
X7Y213D01*
X1156Y213D02*
X1165Y213D01*
X1220Y213D02*
X1230Y213D01*
X1468Y213D02*
X1479Y213D01*
X1566Y213D02*
X1573Y213D01*
X0Y212D02*
X7Y212D01*
X1156Y212D02*
X1165Y212D01*
X1220Y212D02*
X1230Y212D01*
X1468Y212D02*
X1479Y212D01*
X1566Y212D02*
X1573Y212D01*
X0Y211D02*
X7Y211D01*
X1156Y211D02*
X1165Y211D01*
X1220Y211D02*
X1230Y211D01*
X1467Y211D02*
X1479Y211D01*
X1566Y211D02*
X1573Y211D01*
X0Y210D02*
X7Y210D01*
X1156Y210D02*
X1165Y210D01*
X1220Y210D02*
X1230Y210D01*
X1467Y210D02*
X1478Y210D01*
X1566Y210D02*
X1573Y210D01*
X0Y209D02*
X7Y209D01*
X1156Y209D02*
X1165Y209D01*
X1220Y209D02*
X1230Y209D01*
X1467Y209D02*
X1478Y209D01*
X1566Y209D02*
X1573Y209D01*
X0Y208D02*
X7Y208D01*
X1156Y208D02*
X1165Y208D01*
X1220Y208D02*
X1230Y208D01*
X1466Y208D02*
X1477Y208D01*
X1566Y208D02*
X1573Y208D01*
X0Y207D02*
X7Y207D01*
X1156Y207D02*
X1165Y207D01*
X1220Y207D02*
X1230Y207D01*
X1466Y207D02*
X1477Y207D01*
X1566Y207D02*
X1573Y207D01*
X0Y206D02*
X7Y206D01*
X1156Y206D02*
X1165Y206D01*
X1220Y206D02*
X1230Y206D01*
X1465Y206D02*
X1476Y206D01*
X1566Y206D02*
X1573Y206D01*
X0Y205D02*
X7Y205D01*
X1156Y205D02*
X1165Y205D01*
X1220Y205D02*
X1230Y205D01*
X1465Y205D02*
X1476Y205D01*
X1566Y205D02*
X1573Y205D01*
X0Y204D02*
X7Y204D01*
X1156Y204D02*
X1165Y204D01*
X1220Y204D02*
X1230Y204D01*
X1464Y204D02*
X1475Y204D01*
X1566Y204D02*
X1573Y204D01*
X0Y203D02*
X7Y203D01*
X1156Y203D02*
X1165Y203D01*
X1220Y203D02*
X1230Y203D01*
X1463Y203D02*
X1475Y203D01*
X1566Y203D02*
X1573Y203D01*
X0Y202D02*
X7Y202D01*
X1156Y202D02*
X1165Y202D01*
X1220Y202D02*
X1230Y202D01*
X1463Y202D02*
X1474Y202D01*
X1566Y202D02*
X1573Y202D01*
X0Y201D02*
X7Y201D01*
X1156Y201D02*
X1165Y201D01*
X1220Y201D02*
X1230Y201D01*
X1462Y201D02*
X1474Y201D01*
X1566Y201D02*
X1573Y201D01*
X0Y200D02*
X7Y200D01*
X1156Y200D02*
X1165Y200D01*
X1220Y200D02*
X1230Y200D01*
X1462Y200D02*
X1473Y200D01*
X1566Y200D02*
X1573Y200D01*
X0Y199D02*
X7Y199D01*
X1156Y199D02*
X1165Y199D01*
X1220Y199D02*
X1230Y199D01*
X1461Y199D02*
X1473Y199D01*
X1566Y199D02*
X1573Y199D01*
X0Y198D02*
X7Y198D01*
X1156Y198D02*
X1165Y198D01*
X1220Y198D02*
X1230Y198D01*
X1461Y198D02*
X1472Y198D01*
X1566Y198D02*
X1573Y198D01*
X0Y197D02*
X7Y197D01*
X1156Y197D02*
X1165Y197D01*
X1220Y197D02*
X1230Y197D01*
X1460Y197D02*
X1472Y197D01*
X1566Y197D02*
X1573Y197D01*
X0Y196D02*
X7Y196D01*
X1156Y196D02*
X1165Y196D01*
X1220Y196D02*
X1230Y196D01*
X1459Y196D02*
X1471Y196D01*
X1566Y196D02*
X1573Y196D01*
X0Y195D02*
X7Y195D01*
X1156Y195D02*
X1165Y195D01*
X1220Y195D02*
X1230Y195D01*
X1459Y195D02*
X1471Y195D01*
X1566Y195D02*
X1573Y195D01*
X0Y194D02*
X7Y194D01*
X1156Y194D02*
X1165Y194D01*
X1220Y194D02*
X1230Y194D01*
X1458Y194D02*
X1470Y194D01*
X1566Y194D02*
X1573Y194D01*
X0Y193D02*
X7Y193D01*
X1061Y193D02*
X1133Y193D01*
X1144Y193D02*
X1165Y193D01*
X1220Y193D02*
X1230Y193D01*
X1457Y193D02*
X1469Y193D01*
X1566Y193D02*
X1573Y193D01*
X0Y192D02*
X7Y192D01*
X1061Y192D02*
X1130Y192D01*
X1147Y192D02*
X1165Y192D01*
X1220Y192D02*
X1231Y192D01*
X1457Y192D02*
X1469Y192D01*
X1566Y192D02*
X1573Y192D01*
X0Y191D02*
X7Y191D01*
X1061Y191D02*
X1128Y191D01*
X1149Y191D02*
X1165Y191D01*
X1220Y191D02*
X1231Y191D01*
X1456Y191D02*
X1468Y191D01*
X1566Y191D02*
X1573Y191D01*
X0Y190D02*
X7Y190D01*
X1061Y190D02*
X1126Y190D01*
X1150Y190D02*
X1165Y190D01*
X1220Y190D02*
X1232Y190D01*
X1455Y190D02*
X1467Y190D01*
X1566Y190D02*
X1573Y190D01*
X0Y189D02*
X7Y189D01*
X1061Y189D02*
X1125Y189D01*
X1152Y189D02*
X1165Y189D01*
X1220Y189D02*
X1233Y189D01*
X1455Y189D02*
X1467Y189D01*
X1566Y189D02*
X1573Y189D01*
X0Y188D02*
X7Y188D01*
X1061Y188D02*
X1123Y188D01*
X1153Y188D02*
X1160Y188D01*
X1221Y188D02*
X1233Y188D01*
X1454Y188D02*
X1466Y188D01*
X1566Y188D02*
X1573Y188D01*
X0Y187D02*
X7Y187D01*
X1061Y187D02*
X1122Y187D01*
X1154Y187D02*
X1160Y187D01*
X1221Y187D02*
X1234Y187D01*
X1453Y187D02*
X1465Y187D01*
X1566Y187D02*
X1573Y187D01*
X0Y186D02*
X7Y186D01*
X1061Y186D02*
X1121Y186D01*
X1156Y186D02*
X1160Y186D01*
X1222Y186D02*
X1235Y186D01*
X1452Y186D02*
X1465Y186D01*
X1566Y186D02*
X1573Y186D01*
X0Y185D02*
X7Y185D01*
X1061Y185D02*
X1120Y185D01*
X1156Y185D02*
X1160Y185D01*
X1223Y185D02*
X1236Y185D01*
X1452Y185D02*
X1464Y185D01*
X1566Y185D02*
X1573Y185D01*
X0Y184D02*
X7Y184D01*
X1061Y184D02*
X1119Y184D01*
X1157Y184D02*
X1160Y184D01*
X1223Y184D02*
X1236Y184D01*
X1451Y184D02*
X1463Y184D01*
X1566Y184D02*
X1573Y184D01*
X0Y183D02*
X7Y183D01*
X1224Y183D02*
X1237Y183D01*
X1450Y183D02*
X1463Y183D01*
X1566Y183D02*
X1573Y183D01*
X0Y182D02*
X7Y182D01*
X1225Y182D02*
X1238Y182D01*
X1449Y182D02*
X1462Y182D01*
X1566Y182D02*
X1573Y182D01*
X0Y181D02*
X7Y181D01*
X1226Y181D02*
X1239Y181D01*
X1448Y181D02*
X1461Y181D01*
X1566Y181D02*
X1573Y181D01*
X0Y180D02*
X7Y180D01*
X1226Y180D02*
X1240Y180D01*
X1448Y180D02*
X1460Y180D01*
X1566Y180D02*
X1573Y180D01*
X0Y179D02*
X7Y179D01*
X1227Y179D02*
X1240Y179D01*
X1447Y179D02*
X1460Y179D01*
X1566Y179D02*
X1573Y179D01*
X0Y178D02*
X7Y178D01*
X1228Y178D02*
X1241Y178D01*
X1446Y178D02*
X1459Y178D01*
X1566Y178D02*
X1573Y178D01*
X0Y177D02*
X7Y177D01*
X1229Y177D02*
X1242Y177D01*
X1445Y177D02*
X1458Y177D01*
X1566Y177D02*
X1573Y177D01*
X0Y176D02*
X7Y176D01*
X1230Y176D02*
X1243Y176D01*
X1444Y176D02*
X1457Y176D01*
X1566Y176D02*
X1573Y176D01*
X0Y175D02*
X7Y175D01*
X1230Y175D02*
X1244Y175D01*
X1443Y175D02*
X1456Y175D01*
X1566Y175D02*
X1573Y175D01*
X0Y174D02*
X7Y174D01*
X1231Y174D02*
X1245Y174D01*
X1442Y174D02*
X1456Y174D01*
X1566Y174D02*
X1573Y174D01*
X0Y173D02*
X7Y173D01*
X1232Y173D02*
X1246Y173D01*
X1441Y173D02*
X1455Y173D01*
X1566Y173D02*
X1573Y173D01*
X0Y172D02*
X7Y172D01*
X1233Y172D02*
X1247Y172D01*
X1440Y172D02*
X1454Y172D01*
X1566Y172D02*
X1573Y172D01*
X0Y171D02*
X7Y171D01*
X1234Y171D02*
X1248Y171D01*
X1439Y171D02*
X1453Y171D01*
X1566Y171D02*
X1573Y171D01*
X0Y170D02*
X7Y170D01*
X1235Y170D02*
X1249Y170D01*
X1438Y170D02*
X1452Y170D01*
X1566Y170D02*
X1573Y170D01*
X0Y169D02*
X7Y169D01*
X1236Y169D02*
X1250Y169D01*
X1437Y169D02*
X1451Y169D01*
X1566Y169D02*
X1573Y169D01*
X0Y168D02*
X7Y168D01*
X1237Y168D02*
X1251Y168D01*
X1436Y168D02*
X1450Y168D01*
X1566Y168D02*
X1573Y168D01*
X0Y167D02*
X7Y167D01*
X1238Y167D02*
X1252Y167D01*
X1435Y167D02*
X1449Y167D01*
X1566Y167D02*
X1573Y167D01*
X0Y166D02*
X7Y166D01*
X1239Y166D02*
X1253Y166D01*
X1434Y166D02*
X1448Y166D01*
X1566Y166D02*
X1573Y166D01*
X0Y165D02*
X7Y165D01*
X1239Y165D02*
X1255Y165D01*
X1433Y165D02*
X1447Y165D01*
X1566Y165D02*
X1573Y165D01*
X0Y164D02*
X7Y164D01*
X1241Y164D02*
X1256Y164D01*
X1431Y164D02*
X1446Y164D01*
X1566Y164D02*
X1573Y164D01*
X0Y163D02*
X7Y163D01*
X1242Y163D02*
X1257Y163D01*
X1430Y163D02*
X1445Y163D01*
X1566Y163D02*
X1573Y163D01*
X0Y162D02*
X7Y162D01*
X1243Y162D02*
X1258Y162D01*
X1429Y162D02*
X1444Y162D01*
X1566Y162D02*
X1573Y162D01*
X0Y161D02*
X7Y161D01*
X1244Y161D02*
X1259Y161D01*
X1428Y161D02*
X1443Y161D01*
X1566Y161D02*
X1573Y161D01*
X0Y160D02*
X7Y160D01*
X1245Y160D02*
X1261Y160D01*
X1426Y160D02*
X1442Y160D01*
X1566Y160D02*
X1573Y160D01*
X0Y159D02*
X7Y159D01*
X1246Y159D02*
X1262Y159D01*
X1425Y159D02*
X1441Y159D01*
X1566Y159D02*
X1573Y159D01*
X0Y158D02*
X7Y158D01*
X1247Y158D02*
X1263Y158D01*
X1424Y158D02*
X1440Y158D01*
X1566Y158D02*
X1573Y158D01*
X0Y157D02*
X7Y157D01*
X1248Y157D02*
X1265Y157D01*
X1422Y157D02*
X1439Y157D01*
X1566Y157D02*
X1573Y157D01*
X0Y156D02*
X7Y156D01*
X1249Y156D02*
X1266Y156D01*
X1421Y156D02*
X1437Y156D01*
X1566Y156D02*
X1573Y156D01*
X0Y155D02*
X7Y155D01*
X1251Y155D02*
X1268Y155D01*
X1419Y155D02*
X1436Y155D01*
X1566Y155D02*
X1573Y155D01*
X0Y154D02*
X7Y154D01*
X1252Y154D02*
X1269Y154D01*
X1418Y154D02*
X1435Y154D01*
X1566Y154D02*
X1573Y154D01*
X0Y153D02*
X7Y153D01*
X1253Y153D02*
X1271Y153D01*
X1416Y153D02*
X1434Y153D01*
X1566Y153D02*
X1573Y153D01*
X0Y152D02*
X7Y152D01*
X1254Y152D02*
X1272Y152D01*
X1415Y152D02*
X1432Y152D01*
X1566Y152D02*
X1573Y152D01*
X0Y151D02*
X7Y151D01*
X1256Y151D02*
X1274Y151D01*
X1413Y151D02*
X1431Y151D01*
X1566Y151D02*
X1573Y151D01*
X0Y150D02*
X7Y150D01*
X1257Y150D02*
X1276Y150D01*
X1411Y150D02*
X1430Y150D01*
X1566Y150D02*
X1573Y150D01*
X0Y149D02*
X7Y149D01*
X1258Y149D02*
X1278Y149D01*
X1409Y149D02*
X1428Y149D01*
X1566Y149D02*
X1573Y149D01*
X0Y148D02*
X7Y148D01*
X1260Y148D02*
X1279Y148D01*
X1408Y148D02*
X1427Y148D01*
X1566Y148D02*
X1573Y148D01*
X0Y147D02*
X7Y147D01*
X1261Y147D02*
X1281Y147D01*
X1406Y147D02*
X1426Y147D01*
X1566Y147D02*
X1573Y147D01*
X0Y146D02*
X7Y146D01*
X1263Y146D02*
X1283Y146D01*
X1404Y146D02*
X1424Y146D01*
X1566Y146D02*
X1573Y146D01*
X0Y145D02*
X7Y145D01*
X1264Y145D02*
X1286Y145D01*
X1402Y145D02*
X1422Y145D01*
X1566Y145D02*
X1573Y145D01*
X0Y144D02*
X7Y144D01*
X1266Y144D02*
X1288Y144D01*
X1399Y144D02*
X1421Y144D01*
X1566Y144D02*
X1573Y144D01*
X0Y143D02*
X7Y143D01*
X1267Y143D02*
X1290Y143D01*
X1397Y143D02*
X1419Y143D01*
X1566Y143D02*
X1573Y143D01*
X0Y142D02*
X7Y142D01*
X1269Y142D02*
X1292Y142D01*
X1394Y142D02*
X1418Y142D01*
X1566Y142D02*
X1573Y142D01*
X0Y141D02*
X7Y141D01*
X1271Y141D02*
X1295Y141D01*
X1392Y141D02*
X1416Y141D01*
X1566Y141D02*
X1573Y141D01*
X0Y140D02*
X7Y140D01*
X1273Y140D02*
X1298Y140D01*
X1389Y140D02*
X1414Y140D01*
X1566Y140D02*
X1573Y140D01*
X0Y139D02*
X7Y139D01*
X1274Y139D02*
X1301Y139D01*
X1386Y139D02*
X1412Y139D01*
X1566Y139D02*
X1573Y139D01*
X0Y138D02*
X7Y138D01*
X1276Y138D02*
X1304Y138D01*
X1383Y138D02*
X1410Y138D01*
X1566Y138D02*
X1573Y138D01*
X0Y137D02*
X7Y137D01*
X1278Y137D02*
X1308Y137D01*
X1379Y137D02*
X1408Y137D01*
X1566Y137D02*
X1573Y137D01*
X0Y136D02*
X7Y136D01*
X1280Y136D02*
X1312Y136D01*
X1375Y136D02*
X1406Y136D01*
X1566Y136D02*
X1573Y136D01*
X0Y135D02*
X7Y135D01*
X1282Y135D02*
X1316Y135D01*
X1370Y135D02*
X1404Y135D01*
X1566Y135D02*
X1573Y135D01*
X0Y134D02*
X7Y134D01*
X1285Y134D02*
X1322Y134D01*
X1365Y134D02*
X1402Y134D01*
X1566Y134D02*
X1573Y134D01*
X0Y133D02*
X7Y133D01*
X1287Y133D02*
X1331Y133D01*
X1356Y133D02*
X1400Y133D01*
X1566Y133D02*
X1573Y133D01*
X0Y132D02*
X7Y132D01*
X1289Y132D02*
X1397Y132D01*
X1566Y132D02*
X1573Y132D01*
X0Y131D02*
X7Y131D01*
X1292Y131D02*
X1395Y131D01*
X1566Y131D02*
X1573Y131D01*
X0Y130D02*
X7Y130D01*
X1295Y130D02*
X1392Y130D01*
X1566Y130D02*
X1573Y130D01*
X0Y129D02*
X7Y129D01*
X1297Y129D02*
X1389Y129D01*
X1566Y129D02*
X1573Y129D01*
X0Y128D02*
X7Y128D01*
X1300Y128D02*
X1386Y128D01*
X1566Y128D02*
X1573Y128D01*
X0Y127D02*
X7Y127D01*
X1304Y127D02*
X1383Y127D01*
X1566Y127D02*
X1573Y127D01*
X0Y126D02*
X7Y126D01*
X1307Y126D02*
X1379Y126D01*
X1566Y126D02*
X1573Y126D01*
X0Y125D02*
X7Y125D01*
X1312Y125D02*
X1375Y125D01*
X1566Y125D02*
X1573Y125D01*
X0Y124D02*
X7Y124D01*
X62Y124D02*
X63Y124D01*
X1316Y124D02*
X1370Y124D01*
X1566Y124D02*
X1573Y124D01*
X0Y123D02*
X7Y123D01*
X61Y123D02*
X64Y123D01*
X302Y123D02*
X318Y123D01*
X1322Y123D02*
X1365Y123D01*
X1566Y123D02*
X1573Y123D01*
X0Y122D02*
X7Y122D01*
X60Y122D02*
X65Y122D01*
X299Y122D02*
X320Y122D01*
X1330Y122D02*
X1356Y122D01*
X1566Y122D02*
X1573Y122D01*
X0Y121D02*
X7Y121D01*
X60Y121D02*
X66Y121D01*
X298Y121D02*
X321Y121D01*
X1566Y121D02*
X1573Y121D01*
X0Y120D02*
X7Y120D01*
X61Y120D02*
X66Y120D01*
X298Y120D02*
X321Y120D01*
X1566Y120D02*
X1573Y120D01*
X0Y119D02*
X7Y119D01*
X62Y119D02*
X66Y119D01*
X298Y119D02*
X321Y119D01*
X1566Y119D02*
X1573Y119D01*
X0Y118D02*
X7Y118D01*
X63Y118D02*
X66Y118D01*
X298Y118D02*
X321Y118D01*
X1566Y118D02*
X1573Y118D01*
X0Y117D02*
X7Y117D01*
X64Y117D02*
X66Y117D01*
X299Y117D02*
X321Y117D01*
X1566Y117D02*
X1573Y117D01*
X0Y116D02*
X7Y116D01*
X65Y116D02*
X66Y116D01*
X301Y116D02*
X321Y116D01*
X1566Y116D02*
X1573Y116D01*
X0Y115D02*
X7Y115D01*
X66Y115D02*
X66Y115D01*
X315Y115D02*
X321Y115D01*
X1566Y115D02*
X1573Y115D01*
X0Y114D02*
X7Y114D01*
X315Y114D02*
X321Y114D01*
X1566Y114D02*
X1573Y114D01*
X0Y113D02*
X7Y113D01*
X315Y113D02*
X321Y113D01*
X1566Y113D02*
X1573Y113D01*
X0Y112D02*
X7Y112D01*
X315Y112D02*
X321Y112D01*
X1566Y112D02*
X1573Y112D01*
X0Y111D02*
X7Y111D01*
X315Y111D02*
X321Y111D01*
X1566Y111D02*
X1573Y111D01*
X0Y110D02*
X7Y110D01*
X315Y110D02*
X321Y110D01*
X1566Y110D02*
X1573Y110D01*
X0Y109D02*
X7Y109D01*
X269Y109D02*
X321Y109D01*
X1566Y109D02*
X1573Y109D01*
X0Y108D02*
X7Y108D01*
X268Y108D02*
X321Y108D01*
X1566Y108D02*
X1573Y108D01*
X0Y107D02*
X7Y107D01*
X268Y107D02*
X321Y107D01*
X1566Y107D02*
X1573Y107D01*
X0Y106D02*
X7Y106D01*
X268Y106D02*
X321Y106D01*
X1566Y106D02*
X1573Y106D01*
X0Y105D02*
X7Y105D01*
X268Y105D02*
X321Y105D01*
X1287Y105D02*
X1314Y105D01*
X1354Y105D02*
X1369Y105D01*
X1387Y105D02*
X1411Y105D01*
X1566Y105D02*
X1573Y105D01*
X0Y104D02*
X7Y104D01*
X268Y104D02*
X321Y104D01*
X1287Y104D02*
X1316Y104D01*
X1352Y104D02*
X1370Y104D01*
X1387Y104D02*
X1413Y104D01*
X1566Y104D02*
X1573Y104D01*
X0Y103D02*
X7Y103D01*
X268Y103D02*
X321Y103D01*
X1287Y103D02*
X1317Y103D01*
X1351Y103D02*
X1371Y103D01*
X1387Y103D02*
X1415Y103D01*
X1566Y103D02*
X1573Y103D01*
X0Y102D02*
X7Y102D01*
X268Y102D02*
X275Y102D01*
X315Y102D02*
X321Y102D01*
X1287Y102D02*
X1318Y102D01*
X1350Y102D02*
X1371Y102D01*
X1387Y102D02*
X1416Y102D01*
X1566Y102D02*
X1573Y102D01*
X0Y101D02*
X7Y101D01*
X268Y101D02*
X274Y101D01*
X315Y101D02*
X321Y101D01*
X1287Y101D02*
X1319Y101D01*
X1349Y101D02*
X1370Y101D01*
X1387Y101D02*
X1417Y101D01*
X1566Y101D02*
X1573Y101D01*
X0Y100D02*
X7Y100D01*
X268Y100D02*
X274Y100D01*
X315Y100D02*
X321Y100D01*
X1287Y100D02*
X1319Y100D01*
X1348Y100D02*
X1370Y100D01*
X1387Y100D02*
X1418Y100D01*
X1566Y100D02*
X1573Y100D01*
X0Y99D02*
X7Y99D01*
X268Y99D02*
X274Y99D01*
X315Y99D02*
X321Y99D01*
X1287Y99D02*
X1320Y99D01*
X1347Y99D02*
X1368Y99D01*
X1387Y99D02*
X1419Y99D01*
X1566Y99D02*
X1573Y99D01*
X0Y98D02*
X7Y98D01*
X268Y98D02*
X274Y98D01*
X315Y98D02*
X321Y98D01*
X1287Y98D02*
X1293Y98D01*
X1313Y98D02*
X1320Y98D01*
X1347Y98D02*
X1355Y98D01*
X1387Y98D02*
X1393Y98D01*
X1411Y98D02*
X1419Y98D01*
X1566Y98D02*
X1573Y98D01*
X0Y97D02*
X7Y97D01*
X268Y97D02*
X274Y97D01*
X315Y97D02*
X321Y97D01*
X1287Y97D02*
X1293Y97D01*
X1314Y97D02*
X1320Y97D01*
X1346Y97D02*
X1354Y97D01*
X1387Y97D02*
X1393Y97D01*
X1412Y97D02*
X1420Y97D01*
X1566Y97D02*
X1573Y97D01*
X0Y96D02*
X7Y96D01*
X268Y96D02*
X274Y96D01*
X315Y96D02*
X321Y96D01*
X1287Y96D02*
X1293Y96D01*
X1314Y96D02*
X1320Y96D01*
X1345Y96D02*
X1353Y96D01*
X1387Y96D02*
X1393Y96D01*
X1413Y96D02*
X1420Y96D01*
X1566Y96D02*
X1573Y96D01*
X0Y95D02*
X7Y95D01*
X268Y95D02*
X274Y95D01*
X315Y95D02*
X321Y95D01*
X1287Y95D02*
X1293Y95D01*
X1314Y95D02*
X1320Y95D01*
X1344Y95D02*
X1352Y95D01*
X1387Y95D02*
X1393Y95D01*
X1414Y95D02*
X1420Y95D01*
X1566Y95D02*
X1573Y95D01*
X0Y94D02*
X7Y94D01*
X87Y94D02*
X93Y94D01*
X268Y94D02*
X274Y94D01*
X315Y94D02*
X321Y94D01*
X1287Y94D02*
X1293Y94D01*
X1314Y94D02*
X1320Y94D01*
X1343Y94D02*
X1351Y94D01*
X1387Y94D02*
X1393Y94D01*
X1414Y94D02*
X1421Y94D01*
X1566Y94D02*
X1573Y94D01*
X0Y93D02*
X7Y93D01*
X88Y93D02*
X94Y93D01*
X268Y93D02*
X274Y93D01*
X315Y93D02*
X321Y93D01*
X1287Y93D02*
X1293Y93D01*
X1314Y93D02*
X1320Y93D01*
X1343Y93D02*
X1351Y93D01*
X1387Y93D02*
X1393Y93D01*
X1415Y93D02*
X1421Y93D01*
X1566Y93D02*
X1573Y93D01*
X0Y92D02*
X7Y92D01*
X89Y92D02*
X95Y92D01*
X268Y92D02*
X274Y92D01*
X315Y92D02*
X321Y92D01*
X1287Y92D02*
X1293Y92D01*
X1314Y92D02*
X1320Y92D01*
X1342Y92D02*
X1350Y92D01*
X1387Y92D02*
X1393Y92D01*
X1415Y92D02*
X1421Y92D01*
X1566Y92D02*
X1573Y92D01*
X0Y91D02*
X7Y91D01*
X90Y91D02*
X96Y91D01*
X269Y91D02*
X274Y91D01*
X316Y91D02*
X321Y91D01*
X1287Y91D02*
X1293Y91D01*
X1314Y91D02*
X1320Y91D01*
X1341Y91D02*
X1349Y91D01*
X1387Y91D02*
X1393Y91D01*
X1415Y91D02*
X1421Y91D01*
X1566Y91D02*
X1573Y91D01*
X0Y90D02*
X7Y90D01*
X91Y90D02*
X97Y90D01*
X269Y90D02*
X274Y90D01*
X316Y90D02*
X321Y90D01*
X1287Y90D02*
X1293Y90D01*
X1314Y90D02*
X1320Y90D01*
X1340Y90D02*
X1348Y90D01*
X1387Y90D02*
X1393Y90D01*
X1415Y90D02*
X1421Y90D01*
X1566Y90D02*
X1573Y90D01*
X0Y89D02*
X7Y89D01*
X92Y89D02*
X96Y89D01*
X270Y89D02*
X273Y89D01*
X317Y89D02*
X320Y89D01*
X1287Y89D02*
X1293Y89D01*
X1313Y89D02*
X1320Y89D01*
X1340Y89D02*
X1347Y89D01*
X1387Y89D02*
X1393Y89D01*
X1415Y89D02*
X1421Y89D01*
X1566Y89D02*
X1573Y89D01*
X0Y88D02*
X7Y88D01*
X93Y88D02*
X95Y88D01*
X1287Y88D02*
X1320Y88D01*
X1339Y88D02*
X1347Y88D01*
X1387Y88D02*
X1393Y88D01*
X1415Y88D02*
X1421Y88D01*
X1566Y88D02*
X1573Y88D01*
X0Y87D02*
X7Y87D01*
X1287Y87D02*
X1319Y87D01*
X1338Y87D02*
X1346Y87D01*
X1387Y87D02*
X1393Y87D01*
X1414Y87D02*
X1421Y87D01*
X1566Y87D02*
X1573Y87D01*
X0Y86D02*
X7Y86D01*
X1287Y86D02*
X1319Y86D01*
X1338Y86D02*
X1345Y86D01*
X1387Y86D02*
X1393Y86D01*
X1414Y86D02*
X1420Y86D01*
X1566Y86D02*
X1573Y86D01*
X0Y85D02*
X7Y85D01*
X1287Y85D02*
X1318Y85D01*
X1338Y85D02*
X1344Y85D01*
X1387Y85D02*
X1393Y85D01*
X1413Y85D02*
X1420Y85D01*
X1566Y85D02*
X1573Y85D01*
X0Y84D02*
X7Y84D01*
X1287Y84D02*
X1317Y84D01*
X1337Y84D02*
X1344Y84D01*
X1387Y84D02*
X1393Y84D01*
X1412Y84D02*
X1420Y84D01*
X1566Y84D02*
X1573Y84D01*
X0Y83D02*
X7Y83D01*
X1287Y83D02*
X1316Y83D01*
X1337Y83D02*
X1343Y83D01*
X1387Y83D02*
X1393Y83D01*
X1411Y83D02*
X1419Y83D01*
X1566Y83D02*
X1573Y83D01*
X0Y82D02*
X7Y82D01*
X1287Y82D02*
X1314Y82D01*
X1337Y82D02*
X1343Y82D01*
X1387Y82D02*
X1419Y82D01*
X1566Y82D02*
X1573Y82D01*
X0Y81D02*
X7Y81D01*
X1287Y81D02*
X1293Y81D01*
X1298Y81D02*
X1307Y81D01*
X1337Y81D02*
X1343Y81D01*
X1387Y81D02*
X1418Y81D01*
X1566Y81D02*
X1573Y81D01*
X0Y80D02*
X7Y80D01*
X1287Y80D02*
X1293Y80D01*
X1299Y80D02*
X1307Y80D01*
X1337Y80D02*
X1343Y80D01*
X1387Y80D02*
X1417Y80D01*
X1566Y80D02*
X1573Y80D01*
X0Y79D02*
X7Y79D01*
X1287Y79D02*
X1293Y79D01*
X1300Y79D02*
X1307Y79D01*
X1337Y79D02*
X1343Y79D01*
X1387Y79D02*
X1416Y79D01*
X1566Y79D02*
X1573Y79D01*
X0Y78D02*
X7Y78D01*
X1287Y78D02*
X1293Y78D01*
X1300Y78D02*
X1308Y78D01*
X1337Y78D02*
X1343Y78D01*
X1387Y78D02*
X1417Y78D01*
X1566Y78D02*
X1573Y78D01*
X0Y77D02*
X7Y77D01*
X1287Y77D02*
X1293Y77D01*
X1301Y77D02*
X1308Y77D01*
X1337Y77D02*
X1343Y77D01*
X1387Y77D02*
X1418Y77D01*
X1566Y77D02*
X1573Y77D01*
X0Y76D02*
X7Y76D01*
X1287Y76D02*
X1293Y76D01*
X1302Y76D02*
X1309Y76D01*
X1337Y76D02*
X1343Y76D01*
X1356Y76D02*
X1371Y76D01*
X1387Y76D02*
X1418Y76D01*
X1566Y76D02*
X1573Y76D01*
X0Y75D02*
X7Y75D01*
X1287Y75D02*
X1293Y75D01*
X1302Y75D02*
X1309Y75D01*
X1337Y75D02*
X1343Y75D01*
X1355Y75D02*
X1371Y75D01*
X1387Y75D02*
X1394Y75D01*
X1409Y75D02*
X1419Y75D01*
X1566Y75D02*
X1573Y75D01*
X0Y74D02*
X7Y74D01*
X1287Y74D02*
X1293Y74D01*
X1303Y74D02*
X1310Y74D01*
X1337Y74D02*
X1343Y74D01*
X1355Y74D02*
X1371Y74D01*
X1387Y74D02*
X1393Y74D01*
X1412Y74D02*
X1420Y74D01*
X1566Y74D02*
X1573Y74D01*
X0Y73D02*
X7Y73D01*
X1287Y73D02*
X1293Y73D01*
X1303Y73D02*
X1311Y73D01*
X1337Y73D02*
X1343Y73D01*
X1354Y73D02*
X1371Y73D01*
X1387Y73D02*
X1393Y73D01*
X1413Y73D02*
X1420Y73D01*
X1566Y73D02*
X1573Y73D01*
X0Y72D02*
X7Y72D01*
X275Y72D02*
X294Y72D01*
X1287Y72D02*
X1293Y72D01*
X1304Y72D02*
X1311Y72D01*
X1337Y72D02*
X1343Y72D01*
X1354Y72D02*
X1371Y72D01*
X1387Y72D02*
X1393Y72D01*
X1414Y72D02*
X1420Y72D01*
X1566Y72D02*
X1573Y72D01*
X0Y71D02*
X7Y71D01*
X273Y71D02*
X296Y71D01*
X1287Y71D02*
X1293Y71D01*
X1305Y71D02*
X1312Y71D01*
X1337Y71D02*
X1343Y71D01*
X1355Y71D02*
X1371Y71D01*
X1387Y71D02*
X1393Y71D01*
X1414Y71D02*
X1421Y71D01*
X1566Y71D02*
X1573Y71D01*
X0Y70D02*
X7Y70D01*
X272Y70D02*
X297Y70D01*
X1287Y70D02*
X1293Y70D01*
X1305Y70D02*
X1312Y70D01*
X1337Y70D02*
X1343Y70D01*
X1356Y70D02*
X1371Y70D01*
X1387Y70D02*
X1393Y70D01*
X1415Y70D02*
X1421Y70D01*
X1566Y70D02*
X1573Y70D01*
X0Y69D02*
X7Y69D01*
X271Y69D02*
X298Y69D01*
X1287Y69D02*
X1293Y69D01*
X1306Y69D02*
X1313Y69D01*
X1337Y69D02*
X1343Y69D01*
X1365Y69D02*
X1371Y69D01*
X1387Y69D02*
X1393Y69D01*
X1415Y69D02*
X1421Y69D01*
X1566Y69D02*
X1573Y69D01*
X0Y68D02*
X7Y68D01*
X270Y68D02*
X299Y68D01*
X1287Y68D02*
X1293Y68D01*
X1306Y68D02*
X1314Y68D01*
X1337Y68D02*
X1343Y68D01*
X1365Y68D02*
X1371Y68D01*
X1387Y68D02*
X1393Y68D01*
X1415Y68D02*
X1421Y68D01*
X1566Y68D02*
X1573Y68D01*
X0Y67D02*
X7Y67D01*
X270Y67D02*
X300Y67D01*
X1287Y67D02*
X1293Y67D01*
X1307Y67D02*
X1314Y67D01*
X1337Y67D02*
X1343Y67D01*
X1365Y67D02*
X1371Y67D01*
X1387Y67D02*
X1393Y67D01*
X1415Y67D02*
X1421Y67D01*
X1566Y67D02*
X1573Y67D01*
X0Y66D02*
X7Y66D01*
X269Y66D02*
X300Y66D01*
X1287Y66D02*
X1293Y66D01*
X1307Y66D02*
X1315Y66D01*
X1337Y66D02*
X1343Y66D01*
X1365Y66D02*
X1371Y66D01*
X1387Y66D02*
X1393Y66D01*
X1415Y66D02*
X1421Y66D01*
X1566Y66D02*
X1573Y66D01*
X0Y65D02*
X7Y65D01*
X269Y65D02*
X276Y65D01*
X293Y65D02*
X300Y65D01*
X1287Y65D02*
X1293Y65D01*
X1308Y65D02*
X1315Y65D01*
X1337Y65D02*
X1343Y65D01*
X1365Y65D02*
X1371Y65D01*
X1387Y65D02*
X1393Y65D01*
X1415Y65D02*
X1421Y65D01*
X1566Y65D02*
X1573Y65D01*
X0Y64D02*
X7Y64D01*
X269Y64D02*
X275Y64D01*
X294Y64D02*
X301Y64D01*
X1287Y64D02*
X1293Y64D01*
X1309Y64D02*
X1316Y64D01*
X1337Y64D02*
X1343Y64D01*
X1365Y64D02*
X1371Y64D01*
X1387Y64D02*
X1393Y64D01*
X1415Y64D02*
X1421Y64D01*
X1566Y64D02*
X1573Y64D01*
X0Y63D02*
X7Y63D01*
X268Y63D02*
X275Y63D01*
X295Y63D02*
X301Y63D01*
X1287Y63D02*
X1293Y63D01*
X1309Y63D02*
X1316Y63D01*
X1337Y63D02*
X1343Y63D01*
X1365Y63D02*
X1371Y63D01*
X1387Y63D02*
X1393Y63D01*
X1414Y63D02*
X1421Y63D01*
X1566Y63D02*
X1573Y63D01*
X0Y62D02*
X7Y62D01*
X268Y62D02*
X274Y62D01*
X295Y62D02*
X301Y62D01*
X1287Y62D02*
X1293Y62D01*
X1310Y62D02*
X1317Y62D01*
X1337Y62D02*
X1343Y62D01*
X1365Y62D02*
X1371Y62D01*
X1387Y62D02*
X1393Y62D01*
X1414Y62D02*
X1420Y62D01*
X1566Y62D02*
X1573Y62D01*
X0Y61D02*
X7Y61D01*
X268Y61D02*
X274Y61D01*
X295Y61D02*
X301Y61D01*
X1287Y61D02*
X1293Y61D01*
X1310Y61D02*
X1318Y61D01*
X1337Y61D02*
X1343Y61D01*
X1364Y61D02*
X1371Y61D01*
X1387Y61D02*
X1393Y61D01*
X1413Y61D02*
X1420Y61D01*
X1566Y61D02*
X1573Y61D01*
X0Y60D02*
X7Y60D01*
X268Y60D02*
X274Y60D01*
X295Y60D02*
X301Y60D01*
X1287Y60D02*
X1293Y60D01*
X1311Y60D02*
X1318Y60D01*
X1337Y60D02*
X1344Y60D01*
X1364Y60D02*
X1370Y60D01*
X1387Y60D02*
X1393Y60D01*
X1412Y60D02*
X1420Y60D01*
X1566Y60D02*
X1573Y60D01*
X0Y59D02*
X7Y59D01*
X268Y59D02*
X274Y59D01*
X295Y59D02*
X301Y59D01*
X1287Y59D02*
X1293Y59D01*
X1312Y59D02*
X1319Y59D01*
X1338Y59D02*
X1345Y59D01*
X1363Y59D02*
X1370Y59D01*
X1387Y59D02*
X1393Y59D01*
X1410Y59D02*
X1419Y59D01*
X1566Y59D02*
X1573Y59D01*
X0Y58D02*
X7Y58D01*
X268Y58D02*
X274Y58D01*
X295Y58D02*
X301Y58D01*
X1287Y58D02*
X1293Y58D01*
X1312Y58D02*
X1319Y58D01*
X1338Y58D02*
X1370Y58D01*
X1387Y58D02*
X1419Y58D01*
X1566Y58D02*
X1573Y58D01*
X0Y57D02*
X7Y57D01*
X268Y57D02*
X274Y57D01*
X295Y57D02*
X301Y57D01*
X1287Y57D02*
X1293Y57D01*
X1313Y57D02*
X1320Y57D01*
X1338Y57D02*
X1369Y57D01*
X1387Y57D02*
X1418Y57D01*
X1566Y57D02*
X1573Y57D01*
X0Y56D02*
X7Y56D01*
X268Y56D02*
X274Y56D01*
X295Y56D02*
X301Y56D01*
X1287Y56D02*
X1293Y56D01*
X1313Y56D02*
X1320Y56D01*
X1339Y56D02*
X1369Y56D01*
X1387Y56D02*
X1417Y56D01*
X1566Y56D02*
X1573Y56D01*
X0Y55D02*
X7Y55D01*
X268Y55D02*
X274Y55D01*
X295Y55D02*
X301Y55D01*
X1287Y55D02*
X1293Y55D01*
X1314Y55D02*
X1320Y55D01*
X1340Y55D02*
X1368Y55D01*
X1387Y55D02*
X1416Y55D01*
X1566Y55D02*
X1573Y55D01*
X0Y54D02*
X7Y54D01*
X268Y54D02*
X274Y54D01*
X295Y54D02*
X301Y54D01*
X1287Y54D02*
X1293Y54D01*
X1314Y54D02*
X1320Y54D01*
X1341Y54D02*
X1367Y54D01*
X1387Y54D02*
X1415Y54D01*
X1566Y54D02*
X1573Y54D01*
X0Y53D02*
X7Y53D01*
X268Y53D02*
X274Y53D01*
X295Y53D02*
X301Y53D01*
X1288Y53D02*
X1292Y53D01*
X1315Y53D02*
X1320Y53D01*
X1342Y53D02*
X1365Y53D01*
X1387Y53D02*
X1413Y53D01*
X1566Y53D02*
X1573Y53D01*
X0Y52D02*
X7Y52D01*
X268Y52D02*
X274Y52D01*
X295Y52D02*
X301Y52D01*
X1289Y52D02*
X1291Y52D01*
X1316Y52D02*
X1318Y52D01*
X1345Y52D02*
X1363Y52D01*
X1387Y52D02*
X1410Y52D01*
X1566Y52D02*
X1573Y52D01*
X0Y51D02*
X7Y51D01*
X268Y51D02*
X274Y51D01*
X295Y51D02*
X301Y51D01*
X1566Y51D02*
X1573Y51D01*
X0Y50D02*
X7Y50D01*
X268Y50D02*
X274Y50D01*
X295Y50D02*
X301Y50D01*
X1566Y50D02*
X1573Y50D01*
X0Y49D02*
X7Y49D01*
X268Y49D02*
X274Y49D01*
X295Y49D02*
X301Y49D01*
X1566Y49D02*
X1573Y49D01*
X0Y48D02*
X7Y48D01*
X268Y48D02*
X274Y48D01*
X295Y48D02*
X301Y48D01*
X1566Y48D02*
X1573Y48D01*
X0Y47D02*
X7Y47D01*
X268Y47D02*
X274Y47D01*
X295Y47D02*
X301Y47D01*
X1566Y47D02*
X1573Y47D01*
X0Y46D02*
X7Y46D01*
X268Y46D02*
X274Y46D01*
X295Y46D02*
X301Y46D01*
X1566Y46D02*
X1573Y46D01*
X0Y45D02*
X7Y45D01*
X268Y45D02*
X319Y45D01*
X1566Y45D02*
X1573Y45D01*
X0Y44D02*
X7Y44D01*
X268Y44D02*
X321Y44D01*
X1566Y44D02*
X1573Y44D01*
X0Y43D02*
X7Y43D01*
X268Y43D02*
X321Y43D01*
X1566Y43D02*
X1573Y43D01*
X0Y42D02*
X7Y42D01*
X268Y42D02*
X321Y42D01*
X1566Y42D02*
X1573Y42D01*
X0Y41D02*
X7Y41D01*
X268Y41D02*
X321Y41D01*
X1566Y41D02*
X1573Y41D01*
X0Y40D02*
X7Y40D01*
X268Y40D02*
X321Y40D01*
X1566Y40D02*
X1573Y40D01*
X0Y39D02*
X7Y39D01*
X268Y39D02*
X320Y39D01*
X1566Y39D02*
X1573Y39D01*
X0Y38D02*
X7Y38D01*
X1566Y38D02*
X1573Y38D01*
X0Y37D02*
X7Y37D01*
X1566Y37D02*
X1573Y37D01*
X0Y36D02*
X7Y36D01*
X1566Y36D02*
X1573Y36D01*
X0Y35D02*
X7Y35D01*
X1566Y35D02*
X1573Y35D01*
X0Y34D02*
X7Y34D01*
X1566Y34D02*
X1573Y34D01*
X0Y33D02*
X7Y33D01*
X1566Y33D02*
X1573Y33D01*
X0Y32D02*
X7Y32D01*
X1566Y32D02*
X1573Y32D01*
X0Y31D02*
X7Y31D01*
X1566Y31D02*
X1573Y31D01*
X0Y30D02*
X7Y30D01*
X1566Y30D02*
X1573Y30D01*
X0Y29D02*
X7Y29D01*
X1566Y29D02*
X1573Y29D01*
X0Y28D02*
X7Y28D01*
X1566Y28D02*
X1573Y28D01*
X0Y27D02*
X7Y27D01*
X1566Y27D02*
X1573Y27D01*
X0Y26D02*
X7Y26D01*
X1566Y26D02*
X1573Y26D01*
X0Y25D02*
X7Y25D01*
X1566Y25D02*
X1573Y25D01*
X0Y24D02*
X7Y24D01*
X1566Y24D02*
X1573Y24D01*
X0Y23D02*
X7Y23D01*
X1566Y23D02*
X1573Y23D01*
X0Y22D02*
X7Y22D01*
X1566Y22D02*
X1573Y22D01*
X0Y21D02*
X7Y21D01*
X1566Y21D02*
X1573Y21D01*
X0Y20D02*
X7Y20D01*
X1566Y20D02*
X1573Y20D01*
X0Y19D02*
X7Y19D01*
X1566Y19D02*
X1573Y19D01*
X0Y18D02*
X7Y18D01*
X1566Y18D02*
X1573Y18D01*
X0Y17D02*
X7Y17D01*
X1566Y17D02*
X1573Y17D01*
X0Y16D02*
X7Y16D01*
X1566Y16D02*
X1573Y16D01*
X0Y15D02*
X7Y15D01*
X1566Y15D02*
X1573Y15D01*
X0Y14D02*
X7Y14D01*
X1566Y14D02*
X1573Y14D01*
X0Y13D02*
X7Y13D01*
X1566Y13D02*
X1573Y13D01*
X0Y12D02*
X7Y12D01*
X1566Y12D02*
X1573Y12D01*
X0Y11D02*
X7Y11D01*
X1566Y11D02*
X1573Y11D01*
X0Y10D02*
X7Y10D01*
X1566Y10D02*
X1573Y10D01*
X0Y9D02*
X1573Y9D01*
X0Y8D02*
X1573Y8D01*
X0Y7D02*
X1573Y7D01*
X0Y6D02*
X1573Y6D01*
X0Y5D02*
X1573Y5D01*
X0Y4D02*
X1573Y4D01*
X0Y3D02*
X1573Y3D01*
X0Y2D02*
X1573Y2D01*
D02*
G04 End of Silk1*
M02*