G04 MADE WITH FRITZING*
G04 WWW.FRITZING.ORG*
G04 DOUBLE SIDED*
G04 HOLES PLATED*
G04 CONTOUR ON CENTER OF CONTOUR VECTOR*
%ASAXBY*%
%FSLAX23Y23*%
%MOIN*%
%OFA0B0*%
%SFA1.0B1.0*%
%ADD10C,0.010000*%
%ADD11C,0.005000*%
%ADD12R,0.001000X0.001000*%
%LNSILK0*%
G90*
G70*
G54D10*
X187Y914D02*
X187Y614D01*
D02*
X187Y614D02*
X87Y614D01*
D02*
X87Y614D02*
X87Y914D01*
D02*
X87Y914D02*
X187Y914D01*
G54D11*
D02*
X187Y879D02*
X152Y914D01*
G54D10*
D02*
X1187Y914D02*
X1187Y714D01*
D02*
X1187Y714D02*
X1087Y714D01*
D02*
X1087Y714D02*
X1087Y914D01*
D02*
X1087Y914D02*
X1187Y914D01*
G54D11*
D02*
X1187Y879D02*
X1152Y914D01*
G54D10*
D02*
X987Y914D02*
X987Y714D01*
D02*
X987Y714D02*
X887Y714D01*
D02*
X887Y714D02*
X887Y914D01*
D02*
X887Y914D02*
X987Y914D01*
G54D11*
D02*
X987Y879D02*
X952Y914D01*
G54D10*
D02*
X1387Y314D02*
X1487Y314D01*
D02*
X1487Y314D02*
X1487Y114D01*
D02*
X1487Y114D02*
X1387Y114D01*
G54D12*
X0Y1575D02*
X1573Y1575D01*
X0Y1574D02*
X1573Y1574D01*
X0Y1573D02*
X1573Y1573D01*
X0Y1572D02*
X1573Y1572D01*
X0Y1571D02*
X1573Y1571D01*
X0Y1570D02*
X1573Y1570D01*
X0Y1569D02*
X1573Y1569D01*
X0Y1568D02*
X1573Y1568D01*
X0Y1567D02*
X7Y1567D01*
X1566Y1567D02*
X1573Y1567D01*
X0Y1566D02*
X7Y1566D01*
X1566Y1566D02*
X1573Y1566D01*
X0Y1565D02*
X7Y1565D01*
X1566Y1565D02*
X1573Y1565D01*
X0Y1564D02*
X7Y1564D01*
X1566Y1564D02*
X1573Y1564D01*
X0Y1563D02*
X7Y1563D01*
X1566Y1563D02*
X1573Y1563D01*
X0Y1562D02*
X7Y1562D01*
X1566Y1562D02*
X1573Y1562D01*
X0Y1561D02*
X7Y1561D01*
X1566Y1561D02*
X1573Y1561D01*
X0Y1560D02*
X7Y1560D01*
X1566Y1560D02*
X1573Y1560D01*
X0Y1559D02*
X7Y1559D01*
X1566Y1559D02*
X1573Y1559D01*
X0Y1558D02*
X7Y1558D01*
X1566Y1558D02*
X1573Y1558D01*
X0Y1557D02*
X7Y1557D01*
X1566Y1557D02*
X1573Y1557D01*
X0Y1556D02*
X7Y1556D01*
X1566Y1556D02*
X1573Y1556D01*
X0Y1555D02*
X7Y1555D01*
X1566Y1555D02*
X1573Y1555D01*
X0Y1554D02*
X7Y1554D01*
X1566Y1554D02*
X1573Y1554D01*
X0Y1553D02*
X7Y1553D01*
X1566Y1553D02*
X1573Y1553D01*
X0Y1552D02*
X7Y1552D01*
X1566Y1552D02*
X1573Y1552D01*
X0Y1551D02*
X7Y1551D01*
X1566Y1551D02*
X1573Y1551D01*
X0Y1550D02*
X7Y1550D01*
X1566Y1550D02*
X1573Y1550D01*
X0Y1549D02*
X7Y1549D01*
X1566Y1549D02*
X1573Y1549D01*
X0Y1548D02*
X7Y1548D01*
X1566Y1548D02*
X1573Y1548D01*
X0Y1547D02*
X7Y1547D01*
X1566Y1547D02*
X1573Y1547D01*
X0Y1546D02*
X7Y1546D01*
X1566Y1546D02*
X1573Y1546D01*
X0Y1545D02*
X7Y1545D01*
X1566Y1545D02*
X1573Y1545D01*
X0Y1544D02*
X7Y1544D01*
X1566Y1544D02*
X1573Y1544D01*
X0Y1543D02*
X7Y1543D01*
X1566Y1543D02*
X1573Y1543D01*
X0Y1542D02*
X7Y1542D01*
X1566Y1542D02*
X1573Y1542D01*
X0Y1541D02*
X7Y1541D01*
X1566Y1541D02*
X1573Y1541D01*
X0Y1540D02*
X7Y1540D01*
X1566Y1540D02*
X1573Y1540D01*
X0Y1539D02*
X7Y1539D01*
X1566Y1539D02*
X1573Y1539D01*
X0Y1538D02*
X7Y1538D01*
X1566Y1538D02*
X1573Y1538D01*
X0Y1537D02*
X7Y1537D01*
X1566Y1537D02*
X1573Y1537D01*
X0Y1536D02*
X7Y1536D01*
X1566Y1536D02*
X1573Y1536D01*
X0Y1535D02*
X7Y1535D01*
X1566Y1535D02*
X1573Y1535D01*
X0Y1534D02*
X7Y1534D01*
X1566Y1534D02*
X1573Y1534D01*
X0Y1533D02*
X7Y1533D01*
X1566Y1533D02*
X1573Y1533D01*
X0Y1532D02*
X7Y1532D01*
X1566Y1532D02*
X1573Y1532D01*
X0Y1531D02*
X7Y1531D01*
X1566Y1531D02*
X1573Y1531D01*
X0Y1530D02*
X7Y1530D01*
X1566Y1530D02*
X1573Y1530D01*
X0Y1529D02*
X7Y1529D01*
X1566Y1529D02*
X1573Y1529D01*
X0Y1528D02*
X7Y1528D01*
X1566Y1528D02*
X1573Y1528D01*
X0Y1527D02*
X7Y1527D01*
X1566Y1527D02*
X1573Y1527D01*
X0Y1526D02*
X7Y1526D01*
X1566Y1526D02*
X1573Y1526D01*
X0Y1525D02*
X7Y1525D01*
X1566Y1525D02*
X1573Y1525D01*
X0Y1524D02*
X7Y1524D01*
X1566Y1524D02*
X1573Y1524D01*
X0Y1523D02*
X7Y1523D01*
X1566Y1523D02*
X1573Y1523D01*
X0Y1522D02*
X7Y1522D01*
X1566Y1522D02*
X1573Y1522D01*
X0Y1521D02*
X7Y1521D01*
X1566Y1521D02*
X1573Y1521D01*
X0Y1520D02*
X7Y1520D01*
X1566Y1520D02*
X1573Y1520D01*
X0Y1519D02*
X7Y1519D01*
X1566Y1519D02*
X1573Y1519D01*
X0Y1518D02*
X7Y1518D01*
X1566Y1518D02*
X1573Y1518D01*
X0Y1517D02*
X7Y1517D01*
X1566Y1517D02*
X1573Y1517D01*
X0Y1516D02*
X7Y1516D01*
X1566Y1516D02*
X1573Y1516D01*
X0Y1515D02*
X7Y1515D01*
X1566Y1515D02*
X1573Y1515D01*
X0Y1514D02*
X7Y1514D01*
X1566Y1514D02*
X1573Y1514D01*
X0Y1513D02*
X7Y1513D01*
X1566Y1513D02*
X1573Y1513D01*
X0Y1512D02*
X7Y1512D01*
X1566Y1512D02*
X1573Y1512D01*
X0Y1511D02*
X7Y1511D01*
X1566Y1511D02*
X1573Y1511D01*
X0Y1510D02*
X7Y1510D01*
X1566Y1510D02*
X1573Y1510D01*
X0Y1509D02*
X7Y1509D01*
X1566Y1509D02*
X1573Y1509D01*
X0Y1508D02*
X7Y1508D01*
X1566Y1508D02*
X1573Y1508D01*
X0Y1507D02*
X7Y1507D01*
X1566Y1507D02*
X1573Y1507D01*
X0Y1506D02*
X7Y1506D01*
X1566Y1506D02*
X1573Y1506D01*
X0Y1505D02*
X7Y1505D01*
X1566Y1505D02*
X1573Y1505D01*
X0Y1504D02*
X7Y1504D01*
X1566Y1504D02*
X1573Y1504D01*
X0Y1503D02*
X7Y1503D01*
X1566Y1503D02*
X1573Y1503D01*
X0Y1502D02*
X7Y1502D01*
X1566Y1502D02*
X1573Y1502D01*
X0Y1501D02*
X7Y1501D01*
X1566Y1501D02*
X1573Y1501D01*
X0Y1500D02*
X7Y1500D01*
X1566Y1500D02*
X1573Y1500D01*
X0Y1499D02*
X7Y1499D01*
X1566Y1499D02*
X1573Y1499D01*
X0Y1498D02*
X7Y1498D01*
X1566Y1498D02*
X1573Y1498D01*
X0Y1497D02*
X7Y1497D01*
X1566Y1497D02*
X1573Y1497D01*
X0Y1496D02*
X7Y1496D01*
X1566Y1496D02*
X1573Y1496D01*
X0Y1495D02*
X7Y1495D01*
X1566Y1495D02*
X1573Y1495D01*
X0Y1494D02*
X7Y1494D01*
X1566Y1494D02*
X1573Y1494D01*
X0Y1493D02*
X7Y1493D01*
X1566Y1493D02*
X1573Y1493D01*
X0Y1492D02*
X7Y1492D01*
X1566Y1492D02*
X1573Y1492D01*
X0Y1491D02*
X7Y1491D01*
X1566Y1491D02*
X1573Y1491D01*
X0Y1490D02*
X7Y1490D01*
X1566Y1490D02*
X1573Y1490D01*
X0Y1489D02*
X7Y1489D01*
X1566Y1489D02*
X1573Y1489D01*
X0Y1488D02*
X7Y1488D01*
X1566Y1488D02*
X1573Y1488D01*
X0Y1487D02*
X7Y1487D01*
X1566Y1487D02*
X1573Y1487D01*
X0Y1486D02*
X7Y1486D01*
X1566Y1486D02*
X1573Y1486D01*
X0Y1485D02*
X7Y1485D01*
X1566Y1485D02*
X1573Y1485D01*
X0Y1484D02*
X7Y1484D01*
X1566Y1484D02*
X1573Y1484D01*
X0Y1483D02*
X7Y1483D01*
X1566Y1483D02*
X1573Y1483D01*
X0Y1482D02*
X7Y1482D01*
X1566Y1482D02*
X1573Y1482D01*
X0Y1481D02*
X7Y1481D01*
X1566Y1481D02*
X1573Y1481D01*
X0Y1480D02*
X7Y1480D01*
X1566Y1480D02*
X1573Y1480D01*
X0Y1479D02*
X7Y1479D01*
X1566Y1479D02*
X1573Y1479D01*
X0Y1478D02*
X7Y1478D01*
X1566Y1478D02*
X1573Y1478D01*
X0Y1477D02*
X7Y1477D01*
X1566Y1477D02*
X1573Y1477D01*
X0Y1476D02*
X7Y1476D01*
X1566Y1476D02*
X1573Y1476D01*
X0Y1475D02*
X7Y1475D01*
X1566Y1475D02*
X1573Y1475D01*
X0Y1474D02*
X7Y1474D01*
X1566Y1474D02*
X1573Y1474D01*
X0Y1473D02*
X7Y1473D01*
X1566Y1473D02*
X1573Y1473D01*
X0Y1472D02*
X7Y1472D01*
X1566Y1472D02*
X1573Y1472D01*
X0Y1471D02*
X7Y1471D01*
X1566Y1471D02*
X1573Y1471D01*
X0Y1470D02*
X7Y1470D01*
X1566Y1470D02*
X1573Y1470D01*
X0Y1469D02*
X7Y1469D01*
X1566Y1469D02*
X1573Y1469D01*
X0Y1468D02*
X7Y1468D01*
X1566Y1468D02*
X1573Y1468D01*
X0Y1467D02*
X7Y1467D01*
X1566Y1467D02*
X1573Y1467D01*
X0Y1466D02*
X7Y1466D01*
X1566Y1466D02*
X1573Y1466D01*
X0Y1465D02*
X7Y1465D01*
X1566Y1465D02*
X1573Y1465D01*
X0Y1464D02*
X7Y1464D01*
X1566Y1464D02*
X1573Y1464D01*
X0Y1463D02*
X7Y1463D01*
X1566Y1463D02*
X1573Y1463D01*
X0Y1462D02*
X7Y1462D01*
X1566Y1462D02*
X1573Y1462D01*
X0Y1461D02*
X7Y1461D01*
X1566Y1461D02*
X1573Y1461D01*
X0Y1460D02*
X7Y1460D01*
X1566Y1460D02*
X1573Y1460D01*
X0Y1459D02*
X7Y1459D01*
X1566Y1459D02*
X1573Y1459D01*
X0Y1458D02*
X7Y1458D01*
X1566Y1458D02*
X1573Y1458D01*
X0Y1457D02*
X7Y1457D01*
X1566Y1457D02*
X1573Y1457D01*
X0Y1456D02*
X7Y1456D01*
X1566Y1456D02*
X1573Y1456D01*
X0Y1455D02*
X7Y1455D01*
X1566Y1455D02*
X1573Y1455D01*
X0Y1454D02*
X7Y1454D01*
X1566Y1454D02*
X1573Y1454D01*
X0Y1453D02*
X7Y1453D01*
X1566Y1453D02*
X1573Y1453D01*
X0Y1452D02*
X7Y1452D01*
X1566Y1452D02*
X1573Y1452D01*
X0Y1451D02*
X7Y1451D01*
X1566Y1451D02*
X1573Y1451D01*
X0Y1450D02*
X7Y1450D01*
X1566Y1450D02*
X1573Y1450D01*
X0Y1449D02*
X7Y1449D01*
X1566Y1449D02*
X1573Y1449D01*
X0Y1448D02*
X7Y1448D01*
X1566Y1448D02*
X1573Y1448D01*
X0Y1447D02*
X7Y1447D01*
X1566Y1447D02*
X1573Y1447D01*
X0Y1446D02*
X7Y1446D01*
X1566Y1446D02*
X1573Y1446D01*
X0Y1445D02*
X7Y1445D01*
X1566Y1445D02*
X1573Y1445D01*
X0Y1444D02*
X7Y1444D01*
X1566Y1444D02*
X1573Y1444D01*
X0Y1443D02*
X7Y1443D01*
X1566Y1443D02*
X1573Y1443D01*
X0Y1442D02*
X7Y1442D01*
X1566Y1442D02*
X1573Y1442D01*
X0Y1441D02*
X7Y1441D01*
X1566Y1441D02*
X1573Y1441D01*
X0Y1440D02*
X7Y1440D01*
X1566Y1440D02*
X1573Y1440D01*
X0Y1439D02*
X7Y1439D01*
X1566Y1439D02*
X1573Y1439D01*
X0Y1438D02*
X7Y1438D01*
X1566Y1438D02*
X1573Y1438D01*
X0Y1437D02*
X7Y1437D01*
X1566Y1437D02*
X1573Y1437D01*
X0Y1436D02*
X7Y1436D01*
X1566Y1436D02*
X1573Y1436D01*
X0Y1435D02*
X7Y1435D01*
X1566Y1435D02*
X1573Y1435D01*
X0Y1434D02*
X7Y1434D01*
X1566Y1434D02*
X1573Y1434D01*
X0Y1433D02*
X7Y1433D01*
X1566Y1433D02*
X1573Y1433D01*
X0Y1432D02*
X7Y1432D01*
X1566Y1432D02*
X1573Y1432D01*
X0Y1431D02*
X7Y1431D01*
X1566Y1431D02*
X1573Y1431D01*
X0Y1430D02*
X7Y1430D01*
X1566Y1430D02*
X1573Y1430D01*
X0Y1429D02*
X7Y1429D01*
X1566Y1429D02*
X1573Y1429D01*
X0Y1428D02*
X7Y1428D01*
X1566Y1428D02*
X1573Y1428D01*
X0Y1427D02*
X7Y1427D01*
X1566Y1427D02*
X1573Y1427D01*
X0Y1426D02*
X7Y1426D01*
X1566Y1426D02*
X1573Y1426D01*
X0Y1425D02*
X7Y1425D01*
X1566Y1425D02*
X1573Y1425D01*
X0Y1424D02*
X7Y1424D01*
X1566Y1424D02*
X1573Y1424D01*
X0Y1423D02*
X7Y1423D01*
X1566Y1423D02*
X1573Y1423D01*
X0Y1422D02*
X7Y1422D01*
X1566Y1422D02*
X1573Y1422D01*
X0Y1421D02*
X7Y1421D01*
X1566Y1421D02*
X1573Y1421D01*
X0Y1420D02*
X7Y1420D01*
X1566Y1420D02*
X1573Y1420D01*
X0Y1419D02*
X7Y1419D01*
X1566Y1419D02*
X1573Y1419D01*
X0Y1418D02*
X7Y1418D01*
X1566Y1418D02*
X1573Y1418D01*
X0Y1417D02*
X7Y1417D01*
X1566Y1417D02*
X1573Y1417D01*
X0Y1416D02*
X7Y1416D01*
X1566Y1416D02*
X1573Y1416D01*
X0Y1415D02*
X7Y1415D01*
X1566Y1415D02*
X1573Y1415D01*
X0Y1414D02*
X7Y1414D01*
X1566Y1414D02*
X1573Y1414D01*
X0Y1413D02*
X7Y1413D01*
X1566Y1413D02*
X1573Y1413D01*
X0Y1412D02*
X7Y1412D01*
X1566Y1412D02*
X1573Y1412D01*
X0Y1411D02*
X7Y1411D01*
X1566Y1411D02*
X1573Y1411D01*
X0Y1410D02*
X7Y1410D01*
X1566Y1410D02*
X1573Y1410D01*
X0Y1409D02*
X7Y1409D01*
X1566Y1409D02*
X1573Y1409D01*
X0Y1408D02*
X7Y1408D01*
X1566Y1408D02*
X1573Y1408D01*
X0Y1407D02*
X7Y1407D01*
X1566Y1407D02*
X1573Y1407D01*
X0Y1406D02*
X7Y1406D01*
X1566Y1406D02*
X1573Y1406D01*
X0Y1405D02*
X7Y1405D01*
X1566Y1405D02*
X1573Y1405D01*
X0Y1404D02*
X7Y1404D01*
X1566Y1404D02*
X1573Y1404D01*
X0Y1403D02*
X7Y1403D01*
X1566Y1403D02*
X1573Y1403D01*
X0Y1402D02*
X7Y1402D01*
X1566Y1402D02*
X1573Y1402D01*
X0Y1401D02*
X7Y1401D01*
X1566Y1401D02*
X1573Y1401D01*
X0Y1400D02*
X7Y1400D01*
X1566Y1400D02*
X1573Y1400D01*
X0Y1399D02*
X7Y1399D01*
X1566Y1399D02*
X1573Y1399D01*
X0Y1398D02*
X7Y1398D01*
X1566Y1398D02*
X1573Y1398D01*
X0Y1397D02*
X7Y1397D01*
X1566Y1397D02*
X1573Y1397D01*
X0Y1396D02*
X7Y1396D01*
X1566Y1396D02*
X1573Y1396D01*
X0Y1395D02*
X7Y1395D01*
X1566Y1395D02*
X1573Y1395D01*
X0Y1394D02*
X7Y1394D01*
X1566Y1394D02*
X1573Y1394D01*
X0Y1393D02*
X7Y1393D01*
X1566Y1393D02*
X1573Y1393D01*
X0Y1392D02*
X7Y1392D01*
X1566Y1392D02*
X1573Y1392D01*
X0Y1391D02*
X7Y1391D01*
X1566Y1391D02*
X1573Y1391D01*
X0Y1390D02*
X7Y1390D01*
X1566Y1390D02*
X1573Y1390D01*
X0Y1389D02*
X7Y1389D01*
X1566Y1389D02*
X1573Y1389D01*
X0Y1388D02*
X7Y1388D01*
X1566Y1388D02*
X1573Y1388D01*
X0Y1387D02*
X7Y1387D01*
X1566Y1387D02*
X1573Y1387D01*
X0Y1386D02*
X7Y1386D01*
X1566Y1386D02*
X1573Y1386D01*
X0Y1385D02*
X7Y1385D01*
X1566Y1385D02*
X1573Y1385D01*
X0Y1384D02*
X7Y1384D01*
X1566Y1384D02*
X1573Y1384D01*
X0Y1383D02*
X7Y1383D01*
X1566Y1383D02*
X1573Y1383D01*
X0Y1382D02*
X7Y1382D01*
X1566Y1382D02*
X1573Y1382D01*
X0Y1381D02*
X7Y1381D01*
X1566Y1381D02*
X1573Y1381D01*
X0Y1380D02*
X7Y1380D01*
X1566Y1380D02*
X1573Y1380D01*
X0Y1379D02*
X7Y1379D01*
X1566Y1379D02*
X1573Y1379D01*
X0Y1378D02*
X7Y1378D01*
X1566Y1378D02*
X1573Y1378D01*
X0Y1377D02*
X7Y1377D01*
X1566Y1377D02*
X1573Y1377D01*
X0Y1376D02*
X7Y1376D01*
X1566Y1376D02*
X1573Y1376D01*
X0Y1375D02*
X7Y1375D01*
X1566Y1375D02*
X1573Y1375D01*
X0Y1374D02*
X7Y1374D01*
X1566Y1374D02*
X1573Y1374D01*
X0Y1373D02*
X7Y1373D01*
X1566Y1373D02*
X1573Y1373D01*
X0Y1372D02*
X7Y1372D01*
X1566Y1372D02*
X1573Y1372D01*
X0Y1371D02*
X7Y1371D01*
X1566Y1371D02*
X1573Y1371D01*
X0Y1370D02*
X7Y1370D01*
X1566Y1370D02*
X1573Y1370D01*
X0Y1369D02*
X7Y1369D01*
X1566Y1369D02*
X1573Y1369D01*
X0Y1368D02*
X7Y1368D01*
X1566Y1368D02*
X1573Y1368D01*
X0Y1367D02*
X7Y1367D01*
X1566Y1367D02*
X1573Y1367D01*
X0Y1366D02*
X7Y1366D01*
X1566Y1366D02*
X1573Y1366D01*
X0Y1365D02*
X7Y1365D01*
X1566Y1365D02*
X1573Y1365D01*
X0Y1364D02*
X7Y1364D01*
X1566Y1364D02*
X1573Y1364D01*
X0Y1363D02*
X7Y1363D01*
X1566Y1363D02*
X1573Y1363D01*
X0Y1362D02*
X7Y1362D01*
X1566Y1362D02*
X1573Y1362D01*
X0Y1361D02*
X7Y1361D01*
X1566Y1361D02*
X1573Y1361D01*
X0Y1360D02*
X7Y1360D01*
X1566Y1360D02*
X1573Y1360D01*
X0Y1359D02*
X7Y1359D01*
X1566Y1359D02*
X1573Y1359D01*
X0Y1358D02*
X7Y1358D01*
X1566Y1358D02*
X1573Y1358D01*
X0Y1357D02*
X7Y1357D01*
X1566Y1357D02*
X1573Y1357D01*
X0Y1356D02*
X7Y1356D01*
X1566Y1356D02*
X1573Y1356D01*
X0Y1355D02*
X7Y1355D01*
X1566Y1355D02*
X1573Y1355D01*
X0Y1354D02*
X7Y1354D01*
X1566Y1354D02*
X1573Y1354D01*
X0Y1353D02*
X7Y1353D01*
X1566Y1353D02*
X1573Y1353D01*
X0Y1352D02*
X7Y1352D01*
X1566Y1352D02*
X1573Y1352D01*
X0Y1351D02*
X7Y1351D01*
X1566Y1351D02*
X1573Y1351D01*
X0Y1350D02*
X7Y1350D01*
X1566Y1350D02*
X1573Y1350D01*
X0Y1349D02*
X7Y1349D01*
X1566Y1349D02*
X1573Y1349D01*
X0Y1348D02*
X7Y1348D01*
X1566Y1348D02*
X1573Y1348D01*
X0Y1347D02*
X7Y1347D01*
X1566Y1347D02*
X1573Y1347D01*
X0Y1346D02*
X7Y1346D01*
X1566Y1346D02*
X1573Y1346D01*
X0Y1345D02*
X7Y1345D01*
X1566Y1345D02*
X1573Y1345D01*
X0Y1344D02*
X7Y1344D01*
X1566Y1344D02*
X1573Y1344D01*
X0Y1343D02*
X7Y1343D01*
X1566Y1343D02*
X1573Y1343D01*
X0Y1342D02*
X7Y1342D01*
X1566Y1342D02*
X1573Y1342D01*
X0Y1341D02*
X7Y1341D01*
X1566Y1341D02*
X1573Y1341D01*
X0Y1340D02*
X7Y1340D01*
X1566Y1340D02*
X1573Y1340D01*
X0Y1339D02*
X7Y1339D01*
X1566Y1339D02*
X1573Y1339D01*
X0Y1338D02*
X7Y1338D01*
X1566Y1338D02*
X1573Y1338D01*
X0Y1337D02*
X7Y1337D01*
X1566Y1337D02*
X1573Y1337D01*
X0Y1336D02*
X7Y1336D01*
X1566Y1336D02*
X1573Y1336D01*
X0Y1335D02*
X7Y1335D01*
X1566Y1335D02*
X1573Y1335D01*
X0Y1334D02*
X7Y1334D01*
X1566Y1334D02*
X1573Y1334D01*
X0Y1333D02*
X7Y1333D01*
X1566Y1333D02*
X1573Y1333D01*
X0Y1332D02*
X7Y1332D01*
X1566Y1332D02*
X1573Y1332D01*
X0Y1331D02*
X7Y1331D01*
X1566Y1331D02*
X1573Y1331D01*
X0Y1330D02*
X7Y1330D01*
X1566Y1330D02*
X1573Y1330D01*
X0Y1329D02*
X7Y1329D01*
X1566Y1329D02*
X1573Y1329D01*
X0Y1328D02*
X7Y1328D01*
X1566Y1328D02*
X1573Y1328D01*
X0Y1327D02*
X7Y1327D01*
X1566Y1327D02*
X1573Y1327D01*
X0Y1326D02*
X7Y1326D01*
X1566Y1326D02*
X1573Y1326D01*
X0Y1325D02*
X7Y1325D01*
X1566Y1325D02*
X1573Y1325D01*
X0Y1324D02*
X7Y1324D01*
X1566Y1324D02*
X1573Y1324D01*
X0Y1323D02*
X7Y1323D01*
X1566Y1323D02*
X1573Y1323D01*
X0Y1322D02*
X7Y1322D01*
X1566Y1322D02*
X1573Y1322D01*
X0Y1321D02*
X7Y1321D01*
X1566Y1321D02*
X1573Y1321D01*
X0Y1320D02*
X7Y1320D01*
X1566Y1320D02*
X1573Y1320D01*
X0Y1319D02*
X7Y1319D01*
X1566Y1319D02*
X1573Y1319D01*
X0Y1318D02*
X7Y1318D01*
X1566Y1318D02*
X1573Y1318D01*
X0Y1317D02*
X7Y1317D01*
X1566Y1317D02*
X1573Y1317D01*
X0Y1316D02*
X7Y1316D01*
X1566Y1316D02*
X1573Y1316D01*
X0Y1315D02*
X7Y1315D01*
X1566Y1315D02*
X1573Y1315D01*
X0Y1314D02*
X7Y1314D01*
X1566Y1314D02*
X1573Y1314D01*
X0Y1313D02*
X7Y1313D01*
X1566Y1313D02*
X1573Y1313D01*
X0Y1312D02*
X7Y1312D01*
X1566Y1312D02*
X1573Y1312D01*
X0Y1311D02*
X7Y1311D01*
X1566Y1311D02*
X1573Y1311D01*
X0Y1310D02*
X7Y1310D01*
X1566Y1310D02*
X1573Y1310D01*
X0Y1309D02*
X7Y1309D01*
X1566Y1309D02*
X1573Y1309D01*
X0Y1308D02*
X7Y1308D01*
X1566Y1308D02*
X1573Y1308D01*
X0Y1307D02*
X7Y1307D01*
X1566Y1307D02*
X1573Y1307D01*
X0Y1306D02*
X7Y1306D01*
X1566Y1306D02*
X1573Y1306D01*
X0Y1305D02*
X7Y1305D01*
X1566Y1305D02*
X1573Y1305D01*
X0Y1304D02*
X7Y1304D01*
X1566Y1304D02*
X1573Y1304D01*
X0Y1303D02*
X7Y1303D01*
X1566Y1303D02*
X1573Y1303D01*
X0Y1302D02*
X7Y1302D01*
X1566Y1302D02*
X1573Y1302D01*
X0Y1301D02*
X7Y1301D01*
X1566Y1301D02*
X1573Y1301D01*
X0Y1300D02*
X7Y1300D01*
X1566Y1300D02*
X1573Y1300D01*
X0Y1299D02*
X7Y1299D01*
X1566Y1299D02*
X1573Y1299D01*
X0Y1298D02*
X7Y1298D01*
X1566Y1298D02*
X1573Y1298D01*
X0Y1297D02*
X7Y1297D01*
X1566Y1297D02*
X1573Y1297D01*
X0Y1296D02*
X7Y1296D01*
X1566Y1296D02*
X1573Y1296D01*
X0Y1295D02*
X7Y1295D01*
X1566Y1295D02*
X1573Y1295D01*
X0Y1294D02*
X7Y1294D01*
X1566Y1294D02*
X1573Y1294D01*
X0Y1293D02*
X7Y1293D01*
X1566Y1293D02*
X1573Y1293D01*
X0Y1292D02*
X7Y1292D01*
X1566Y1292D02*
X1573Y1292D01*
X0Y1291D02*
X7Y1291D01*
X1566Y1291D02*
X1573Y1291D01*
X0Y1290D02*
X7Y1290D01*
X1566Y1290D02*
X1573Y1290D01*
X0Y1289D02*
X7Y1289D01*
X1566Y1289D02*
X1573Y1289D01*
X0Y1288D02*
X7Y1288D01*
X1566Y1288D02*
X1573Y1288D01*
X0Y1287D02*
X7Y1287D01*
X1566Y1287D02*
X1573Y1287D01*
X0Y1286D02*
X7Y1286D01*
X1566Y1286D02*
X1573Y1286D01*
X0Y1285D02*
X7Y1285D01*
X1566Y1285D02*
X1573Y1285D01*
X0Y1284D02*
X7Y1284D01*
X1566Y1284D02*
X1573Y1284D01*
X0Y1283D02*
X7Y1283D01*
X1566Y1283D02*
X1573Y1283D01*
X0Y1282D02*
X7Y1282D01*
X1566Y1282D02*
X1573Y1282D01*
X0Y1281D02*
X7Y1281D01*
X1566Y1281D02*
X1573Y1281D01*
X0Y1280D02*
X7Y1280D01*
X1566Y1280D02*
X1573Y1280D01*
X0Y1279D02*
X7Y1279D01*
X1566Y1279D02*
X1573Y1279D01*
X0Y1278D02*
X7Y1278D01*
X1566Y1278D02*
X1573Y1278D01*
X0Y1277D02*
X7Y1277D01*
X1566Y1277D02*
X1573Y1277D01*
X0Y1276D02*
X7Y1276D01*
X1566Y1276D02*
X1573Y1276D01*
X0Y1275D02*
X7Y1275D01*
X1566Y1275D02*
X1573Y1275D01*
X0Y1274D02*
X7Y1274D01*
X1566Y1274D02*
X1573Y1274D01*
X0Y1273D02*
X7Y1273D01*
X1566Y1273D02*
X1573Y1273D01*
X0Y1272D02*
X7Y1272D01*
X1566Y1272D02*
X1573Y1272D01*
X0Y1271D02*
X7Y1271D01*
X1566Y1271D02*
X1573Y1271D01*
X0Y1270D02*
X7Y1270D01*
X1566Y1270D02*
X1573Y1270D01*
X0Y1269D02*
X7Y1269D01*
X1566Y1269D02*
X1573Y1269D01*
X0Y1268D02*
X7Y1268D01*
X1566Y1268D02*
X1573Y1268D01*
X0Y1267D02*
X7Y1267D01*
X1566Y1267D02*
X1573Y1267D01*
X0Y1266D02*
X7Y1266D01*
X1566Y1266D02*
X1573Y1266D01*
X0Y1265D02*
X7Y1265D01*
X1566Y1265D02*
X1573Y1265D01*
X0Y1264D02*
X7Y1264D01*
X1566Y1264D02*
X1573Y1264D01*
X0Y1263D02*
X7Y1263D01*
X1566Y1263D02*
X1573Y1263D01*
X0Y1262D02*
X7Y1262D01*
X1566Y1262D02*
X1573Y1262D01*
X0Y1261D02*
X7Y1261D01*
X1566Y1261D02*
X1573Y1261D01*
X0Y1260D02*
X7Y1260D01*
X1566Y1260D02*
X1573Y1260D01*
X0Y1259D02*
X7Y1259D01*
X1566Y1259D02*
X1573Y1259D01*
X0Y1258D02*
X7Y1258D01*
X1566Y1258D02*
X1573Y1258D01*
X0Y1257D02*
X7Y1257D01*
X1566Y1257D02*
X1573Y1257D01*
X0Y1256D02*
X7Y1256D01*
X1566Y1256D02*
X1573Y1256D01*
X0Y1255D02*
X7Y1255D01*
X1566Y1255D02*
X1573Y1255D01*
X0Y1254D02*
X7Y1254D01*
X1566Y1254D02*
X1573Y1254D01*
X0Y1253D02*
X7Y1253D01*
X1566Y1253D02*
X1573Y1253D01*
X0Y1252D02*
X7Y1252D01*
X1566Y1252D02*
X1573Y1252D01*
X0Y1251D02*
X7Y1251D01*
X1566Y1251D02*
X1573Y1251D01*
X0Y1250D02*
X7Y1250D01*
X1566Y1250D02*
X1573Y1250D01*
X0Y1249D02*
X7Y1249D01*
X1566Y1249D02*
X1573Y1249D01*
X0Y1248D02*
X7Y1248D01*
X1566Y1248D02*
X1573Y1248D01*
X0Y1247D02*
X7Y1247D01*
X1566Y1247D02*
X1573Y1247D01*
X0Y1246D02*
X7Y1246D01*
X1566Y1246D02*
X1573Y1246D01*
X0Y1245D02*
X7Y1245D01*
X1566Y1245D02*
X1573Y1245D01*
X0Y1244D02*
X7Y1244D01*
X1566Y1244D02*
X1573Y1244D01*
X0Y1243D02*
X7Y1243D01*
X1566Y1243D02*
X1573Y1243D01*
X0Y1242D02*
X7Y1242D01*
X1566Y1242D02*
X1573Y1242D01*
X0Y1241D02*
X7Y1241D01*
X1566Y1241D02*
X1573Y1241D01*
X0Y1240D02*
X7Y1240D01*
X1566Y1240D02*
X1573Y1240D01*
X0Y1239D02*
X7Y1239D01*
X1566Y1239D02*
X1573Y1239D01*
X0Y1238D02*
X7Y1238D01*
X1566Y1238D02*
X1573Y1238D01*
X0Y1237D02*
X7Y1237D01*
X1566Y1237D02*
X1573Y1237D01*
X0Y1236D02*
X7Y1236D01*
X1566Y1236D02*
X1573Y1236D01*
X0Y1235D02*
X7Y1235D01*
X1566Y1235D02*
X1573Y1235D01*
X0Y1234D02*
X7Y1234D01*
X1566Y1234D02*
X1573Y1234D01*
X0Y1233D02*
X7Y1233D01*
X1566Y1233D02*
X1573Y1233D01*
X0Y1232D02*
X7Y1232D01*
X1566Y1232D02*
X1573Y1232D01*
X0Y1231D02*
X7Y1231D01*
X1566Y1231D02*
X1573Y1231D01*
X0Y1230D02*
X7Y1230D01*
X1566Y1230D02*
X1573Y1230D01*
X0Y1229D02*
X7Y1229D01*
X1566Y1229D02*
X1573Y1229D01*
X0Y1228D02*
X7Y1228D01*
X1566Y1228D02*
X1573Y1228D01*
X0Y1227D02*
X7Y1227D01*
X1566Y1227D02*
X1573Y1227D01*
X0Y1226D02*
X7Y1226D01*
X1566Y1226D02*
X1573Y1226D01*
X0Y1225D02*
X7Y1225D01*
X1566Y1225D02*
X1573Y1225D01*
X0Y1224D02*
X7Y1224D01*
X1566Y1224D02*
X1573Y1224D01*
X0Y1223D02*
X7Y1223D01*
X1566Y1223D02*
X1573Y1223D01*
X0Y1222D02*
X7Y1222D01*
X1566Y1222D02*
X1573Y1222D01*
X0Y1221D02*
X7Y1221D01*
X1566Y1221D02*
X1573Y1221D01*
X0Y1220D02*
X7Y1220D01*
X1566Y1220D02*
X1573Y1220D01*
X0Y1219D02*
X7Y1219D01*
X1566Y1219D02*
X1573Y1219D01*
X0Y1218D02*
X7Y1218D01*
X1566Y1218D02*
X1573Y1218D01*
X0Y1217D02*
X7Y1217D01*
X1566Y1217D02*
X1573Y1217D01*
X0Y1216D02*
X7Y1216D01*
X1566Y1216D02*
X1573Y1216D01*
X0Y1215D02*
X7Y1215D01*
X1566Y1215D02*
X1573Y1215D01*
X0Y1214D02*
X7Y1214D01*
X1566Y1214D02*
X1573Y1214D01*
X0Y1213D02*
X7Y1213D01*
X1566Y1213D02*
X1573Y1213D01*
X0Y1212D02*
X7Y1212D01*
X1566Y1212D02*
X1573Y1212D01*
X0Y1211D02*
X7Y1211D01*
X1566Y1211D02*
X1573Y1211D01*
X0Y1210D02*
X7Y1210D01*
X1566Y1210D02*
X1573Y1210D01*
X0Y1209D02*
X7Y1209D01*
X1566Y1209D02*
X1573Y1209D01*
X0Y1208D02*
X7Y1208D01*
X1566Y1208D02*
X1573Y1208D01*
X0Y1207D02*
X7Y1207D01*
X1566Y1207D02*
X1573Y1207D01*
X0Y1206D02*
X7Y1206D01*
X1566Y1206D02*
X1573Y1206D01*
X0Y1205D02*
X7Y1205D01*
X1566Y1205D02*
X1573Y1205D01*
X0Y1204D02*
X7Y1204D01*
X1566Y1204D02*
X1573Y1204D01*
X0Y1203D02*
X7Y1203D01*
X1566Y1203D02*
X1573Y1203D01*
X0Y1202D02*
X7Y1202D01*
X1566Y1202D02*
X1573Y1202D01*
X0Y1201D02*
X7Y1201D01*
X1566Y1201D02*
X1573Y1201D01*
X0Y1200D02*
X7Y1200D01*
X1566Y1200D02*
X1573Y1200D01*
X0Y1199D02*
X7Y1199D01*
X1566Y1199D02*
X1573Y1199D01*
X0Y1198D02*
X7Y1198D01*
X1566Y1198D02*
X1573Y1198D01*
X0Y1197D02*
X7Y1197D01*
X1566Y1197D02*
X1573Y1197D01*
X0Y1196D02*
X7Y1196D01*
X1566Y1196D02*
X1573Y1196D01*
X0Y1195D02*
X7Y1195D01*
X1566Y1195D02*
X1573Y1195D01*
X0Y1194D02*
X7Y1194D01*
X1566Y1194D02*
X1573Y1194D01*
X0Y1193D02*
X7Y1193D01*
X1566Y1193D02*
X1573Y1193D01*
X0Y1192D02*
X7Y1192D01*
X1566Y1192D02*
X1573Y1192D01*
X0Y1191D02*
X7Y1191D01*
X1566Y1191D02*
X1573Y1191D01*
X0Y1190D02*
X7Y1190D01*
X1566Y1190D02*
X1573Y1190D01*
X0Y1189D02*
X7Y1189D01*
X1566Y1189D02*
X1573Y1189D01*
X0Y1188D02*
X7Y1188D01*
X1566Y1188D02*
X1573Y1188D01*
X0Y1187D02*
X7Y1187D01*
X1566Y1187D02*
X1573Y1187D01*
X0Y1186D02*
X7Y1186D01*
X1566Y1186D02*
X1573Y1186D01*
X0Y1185D02*
X7Y1185D01*
X1566Y1185D02*
X1573Y1185D01*
X0Y1184D02*
X7Y1184D01*
X1566Y1184D02*
X1573Y1184D01*
X0Y1183D02*
X7Y1183D01*
X1566Y1183D02*
X1573Y1183D01*
X0Y1182D02*
X7Y1182D01*
X1566Y1182D02*
X1573Y1182D01*
X0Y1181D02*
X7Y1181D01*
X1566Y1181D02*
X1573Y1181D01*
X0Y1180D02*
X7Y1180D01*
X1566Y1180D02*
X1573Y1180D01*
X0Y1179D02*
X7Y1179D01*
X1566Y1179D02*
X1573Y1179D01*
X0Y1178D02*
X7Y1178D01*
X1566Y1178D02*
X1573Y1178D01*
X0Y1177D02*
X7Y1177D01*
X1566Y1177D02*
X1573Y1177D01*
X0Y1176D02*
X7Y1176D01*
X1566Y1176D02*
X1573Y1176D01*
X0Y1175D02*
X7Y1175D01*
X1566Y1175D02*
X1573Y1175D01*
X0Y1174D02*
X7Y1174D01*
X1566Y1174D02*
X1573Y1174D01*
X0Y1173D02*
X7Y1173D01*
X1566Y1173D02*
X1573Y1173D01*
X0Y1172D02*
X7Y1172D01*
X1566Y1172D02*
X1573Y1172D01*
X0Y1171D02*
X7Y1171D01*
X1566Y1171D02*
X1573Y1171D01*
X0Y1170D02*
X7Y1170D01*
X1566Y1170D02*
X1573Y1170D01*
X0Y1169D02*
X7Y1169D01*
X1566Y1169D02*
X1573Y1169D01*
X0Y1168D02*
X7Y1168D01*
X1566Y1168D02*
X1573Y1168D01*
X0Y1167D02*
X7Y1167D01*
X1566Y1167D02*
X1573Y1167D01*
X0Y1166D02*
X7Y1166D01*
X1566Y1166D02*
X1573Y1166D01*
X0Y1165D02*
X7Y1165D01*
X1566Y1165D02*
X1573Y1165D01*
X0Y1164D02*
X7Y1164D01*
X1566Y1164D02*
X1573Y1164D01*
X0Y1163D02*
X7Y1163D01*
X1566Y1163D02*
X1573Y1163D01*
X0Y1162D02*
X7Y1162D01*
X1566Y1162D02*
X1573Y1162D01*
X0Y1161D02*
X7Y1161D01*
X1566Y1161D02*
X1573Y1161D01*
X0Y1160D02*
X7Y1160D01*
X1566Y1160D02*
X1573Y1160D01*
X0Y1159D02*
X7Y1159D01*
X1566Y1159D02*
X1573Y1159D01*
X0Y1158D02*
X7Y1158D01*
X1566Y1158D02*
X1573Y1158D01*
X0Y1157D02*
X7Y1157D01*
X1566Y1157D02*
X1573Y1157D01*
X0Y1156D02*
X7Y1156D01*
X1566Y1156D02*
X1573Y1156D01*
X0Y1155D02*
X7Y1155D01*
X1566Y1155D02*
X1573Y1155D01*
X0Y1154D02*
X7Y1154D01*
X1566Y1154D02*
X1573Y1154D01*
X0Y1153D02*
X7Y1153D01*
X1566Y1153D02*
X1573Y1153D01*
X0Y1152D02*
X7Y1152D01*
X1566Y1152D02*
X1573Y1152D01*
X0Y1151D02*
X7Y1151D01*
X1566Y1151D02*
X1573Y1151D01*
X0Y1150D02*
X7Y1150D01*
X1566Y1150D02*
X1573Y1150D01*
X0Y1149D02*
X7Y1149D01*
X1566Y1149D02*
X1573Y1149D01*
X0Y1148D02*
X7Y1148D01*
X1566Y1148D02*
X1573Y1148D01*
X0Y1147D02*
X7Y1147D01*
X1566Y1147D02*
X1573Y1147D01*
X0Y1146D02*
X7Y1146D01*
X1566Y1146D02*
X1573Y1146D01*
X0Y1145D02*
X7Y1145D01*
X1566Y1145D02*
X1573Y1145D01*
X0Y1144D02*
X7Y1144D01*
X1566Y1144D02*
X1573Y1144D01*
X0Y1143D02*
X7Y1143D01*
X1566Y1143D02*
X1573Y1143D01*
X0Y1142D02*
X7Y1142D01*
X1566Y1142D02*
X1573Y1142D01*
X0Y1141D02*
X7Y1141D01*
X1566Y1141D02*
X1573Y1141D01*
X0Y1140D02*
X7Y1140D01*
X1566Y1140D02*
X1573Y1140D01*
X0Y1139D02*
X7Y1139D01*
X1566Y1139D02*
X1573Y1139D01*
X0Y1138D02*
X7Y1138D01*
X1566Y1138D02*
X1573Y1138D01*
X0Y1137D02*
X7Y1137D01*
X1566Y1137D02*
X1573Y1137D01*
X0Y1136D02*
X7Y1136D01*
X1566Y1136D02*
X1573Y1136D01*
X0Y1135D02*
X7Y1135D01*
X1566Y1135D02*
X1573Y1135D01*
X0Y1134D02*
X7Y1134D01*
X1566Y1134D02*
X1573Y1134D01*
X0Y1133D02*
X7Y1133D01*
X1566Y1133D02*
X1573Y1133D01*
X0Y1132D02*
X7Y1132D01*
X1566Y1132D02*
X1573Y1132D01*
X0Y1131D02*
X7Y1131D01*
X1566Y1131D02*
X1573Y1131D01*
X0Y1130D02*
X7Y1130D01*
X1566Y1130D02*
X1573Y1130D01*
X0Y1129D02*
X7Y1129D01*
X1566Y1129D02*
X1573Y1129D01*
X0Y1128D02*
X7Y1128D01*
X1566Y1128D02*
X1573Y1128D01*
X0Y1127D02*
X7Y1127D01*
X1566Y1127D02*
X1573Y1127D01*
X0Y1126D02*
X7Y1126D01*
X1566Y1126D02*
X1573Y1126D01*
X0Y1125D02*
X7Y1125D01*
X1566Y1125D02*
X1573Y1125D01*
X0Y1124D02*
X7Y1124D01*
X1566Y1124D02*
X1573Y1124D01*
X0Y1123D02*
X7Y1123D01*
X1566Y1123D02*
X1573Y1123D01*
X0Y1122D02*
X7Y1122D01*
X1566Y1122D02*
X1573Y1122D01*
X0Y1121D02*
X7Y1121D01*
X1566Y1121D02*
X1573Y1121D01*
X0Y1120D02*
X7Y1120D01*
X1566Y1120D02*
X1573Y1120D01*
X0Y1119D02*
X7Y1119D01*
X1566Y1119D02*
X1573Y1119D01*
X0Y1118D02*
X7Y1118D01*
X1566Y1118D02*
X1573Y1118D01*
X0Y1117D02*
X7Y1117D01*
X1566Y1117D02*
X1573Y1117D01*
X0Y1116D02*
X7Y1116D01*
X1566Y1116D02*
X1573Y1116D01*
X0Y1115D02*
X7Y1115D01*
X1566Y1115D02*
X1573Y1115D01*
X0Y1114D02*
X7Y1114D01*
X1566Y1114D02*
X1573Y1114D01*
X0Y1113D02*
X7Y1113D01*
X1566Y1113D02*
X1573Y1113D01*
X0Y1112D02*
X7Y1112D01*
X1566Y1112D02*
X1573Y1112D01*
X0Y1111D02*
X7Y1111D01*
X1566Y1111D02*
X1573Y1111D01*
X0Y1110D02*
X7Y1110D01*
X1566Y1110D02*
X1573Y1110D01*
X0Y1109D02*
X7Y1109D01*
X1566Y1109D02*
X1573Y1109D01*
X0Y1108D02*
X7Y1108D01*
X1566Y1108D02*
X1573Y1108D01*
X0Y1107D02*
X7Y1107D01*
X1566Y1107D02*
X1573Y1107D01*
X0Y1106D02*
X7Y1106D01*
X1566Y1106D02*
X1573Y1106D01*
X0Y1105D02*
X7Y1105D01*
X1566Y1105D02*
X1573Y1105D01*
X0Y1104D02*
X7Y1104D01*
X1566Y1104D02*
X1573Y1104D01*
X0Y1103D02*
X7Y1103D01*
X1566Y1103D02*
X1573Y1103D01*
X0Y1102D02*
X7Y1102D01*
X1566Y1102D02*
X1573Y1102D01*
X0Y1101D02*
X7Y1101D01*
X1566Y1101D02*
X1573Y1101D01*
X0Y1100D02*
X7Y1100D01*
X1566Y1100D02*
X1573Y1100D01*
X0Y1099D02*
X7Y1099D01*
X1566Y1099D02*
X1573Y1099D01*
X0Y1098D02*
X7Y1098D01*
X1566Y1098D02*
X1573Y1098D01*
X0Y1097D02*
X7Y1097D01*
X1566Y1097D02*
X1573Y1097D01*
X0Y1096D02*
X7Y1096D01*
X1566Y1096D02*
X1573Y1096D01*
X0Y1095D02*
X7Y1095D01*
X1566Y1095D02*
X1573Y1095D01*
X0Y1094D02*
X7Y1094D01*
X1566Y1094D02*
X1573Y1094D01*
X0Y1093D02*
X7Y1093D01*
X1566Y1093D02*
X1573Y1093D01*
X0Y1092D02*
X7Y1092D01*
X1566Y1092D02*
X1573Y1092D01*
X0Y1091D02*
X7Y1091D01*
X1566Y1091D02*
X1573Y1091D01*
X0Y1090D02*
X7Y1090D01*
X1566Y1090D02*
X1573Y1090D01*
X0Y1089D02*
X7Y1089D01*
X1566Y1089D02*
X1573Y1089D01*
X0Y1088D02*
X7Y1088D01*
X1566Y1088D02*
X1573Y1088D01*
X0Y1087D02*
X7Y1087D01*
X1566Y1087D02*
X1573Y1087D01*
X0Y1086D02*
X7Y1086D01*
X1566Y1086D02*
X1573Y1086D01*
X0Y1085D02*
X7Y1085D01*
X1566Y1085D02*
X1573Y1085D01*
X0Y1084D02*
X7Y1084D01*
X1566Y1084D02*
X1573Y1084D01*
X0Y1083D02*
X7Y1083D01*
X1566Y1083D02*
X1573Y1083D01*
X0Y1082D02*
X7Y1082D01*
X1566Y1082D02*
X1573Y1082D01*
X0Y1081D02*
X7Y1081D01*
X1566Y1081D02*
X1573Y1081D01*
X0Y1080D02*
X7Y1080D01*
X1566Y1080D02*
X1573Y1080D01*
X0Y1079D02*
X7Y1079D01*
X1566Y1079D02*
X1573Y1079D01*
X0Y1078D02*
X7Y1078D01*
X1566Y1078D02*
X1573Y1078D01*
X0Y1077D02*
X7Y1077D01*
X1566Y1077D02*
X1573Y1077D01*
X0Y1076D02*
X7Y1076D01*
X1566Y1076D02*
X1573Y1076D01*
X0Y1075D02*
X7Y1075D01*
X1566Y1075D02*
X1573Y1075D01*
X0Y1074D02*
X7Y1074D01*
X1566Y1074D02*
X1573Y1074D01*
X0Y1073D02*
X7Y1073D01*
X1566Y1073D02*
X1573Y1073D01*
X0Y1072D02*
X7Y1072D01*
X1566Y1072D02*
X1573Y1072D01*
X0Y1071D02*
X7Y1071D01*
X1566Y1071D02*
X1573Y1071D01*
X0Y1070D02*
X7Y1070D01*
X1566Y1070D02*
X1573Y1070D01*
X0Y1069D02*
X7Y1069D01*
X1566Y1069D02*
X1573Y1069D01*
X0Y1068D02*
X7Y1068D01*
X1566Y1068D02*
X1573Y1068D01*
X0Y1067D02*
X7Y1067D01*
X1566Y1067D02*
X1573Y1067D01*
X0Y1066D02*
X7Y1066D01*
X1566Y1066D02*
X1573Y1066D01*
X0Y1065D02*
X7Y1065D01*
X1566Y1065D02*
X1573Y1065D01*
X0Y1064D02*
X7Y1064D01*
X1566Y1064D02*
X1573Y1064D01*
X0Y1063D02*
X7Y1063D01*
X1566Y1063D02*
X1573Y1063D01*
X0Y1062D02*
X7Y1062D01*
X1566Y1062D02*
X1573Y1062D01*
X0Y1061D02*
X7Y1061D01*
X1566Y1061D02*
X1573Y1061D01*
X0Y1060D02*
X7Y1060D01*
X1566Y1060D02*
X1573Y1060D01*
X0Y1059D02*
X7Y1059D01*
X1566Y1059D02*
X1573Y1059D01*
X0Y1058D02*
X7Y1058D01*
X1566Y1058D02*
X1573Y1058D01*
X0Y1057D02*
X7Y1057D01*
X1566Y1057D02*
X1573Y1057D01*
X0Y1056D02*
X7Y1056D01*
X1566Y1056D02*
X1573Y1056D01*
X0Y1055D02*
X7Y1055D01*
X1566Y1055D02*
X1573Y1055D01*
X0Y1054D02*
X7Y1054D01*
X1566Y1054D02*
X1573Y1054D01*
X0Y1053D02*
X7Y1053D01*
X1566Y1053D02*
X1573Y1053D01*
X0Y1052D02*
X7Y1052D01*
X1566Y1052D02*
X1573Y1052D01*
X0Y1051D02*
X7Y1051D01*
X1566Y1051D02*
X1573Y1051D01*
X0Y1050D02*
X7Y1050D01*
X1566Y1050D02*
X1573Y1050D01*
X0Y1049D02*
X7Y1049D01*
X1566Y1049D02*
X1573Y1049D01*
X0Y1048D02*
X7Y1048D01*
X1566Y1048D02*
X1573Y1048D01*
X0Y1047D02*
X7Y1047D01*
X1566Y1047D02*
X1573Y1047D01*
X0Y1046D02*
X7Y1046D01*
X1566Y1046D02*
X1573Y1046D01*
X0Y1045D02*
X7Y1045D01*
X1566Y1045D02*
X1573Y1045D01*
X0Y1044D02*
X7Y1044D01*
X1566Y1044D02*
X1573Y1044D01*
X0Y1043D02*
X7Y1043D01*
X1566Y1043D02*
X1573Y1043D01*
X0Y1042D02*
X7Y1042D01*
X1566Y1042D02*
X1573Y1042D01*
X0Y1041D02*
X7Y1041D01*
X1566Y1041D02*
X1573Y1041D01*
X0Y1040D02*
X7Y1040D01*
X1566Y1040D02*
X1573Y1040D01*
X0Y1039D02*
X7Y1039D01*
X1566Y1039D02*
X1573Y1039D01*
X0Y1038D02*
X7Y1038D01*
X1566Y1038D02*
X1573Y1038D01*
X0Y1037D02*
X7Y1037D01*
X1566Y1037D02*
X1573Y1037D01*
X0Y1036D02*
X7Y1036D01*
X1566Y1036D02*
X1573Y1036D01*
X0Y1035D02*
X7Y1035D01*
X1566Y1035D02*
X1573Y1035D01*
X0Y1034D02*
X7Y1034D01*
X1566Y1034D02*
X1573Y1034D01*
X0Y1033D02*
X7Y1033D01*
X1566Y1033D02*
X1573Y1033D01*
X0Y1032D02*
X7Y1032D01*
X1566Y1032D02*
X1573Y1032D01*
X0Y1031D02*
X7Y1031D01*
X1566Y1031D02*
X1573Y1031D01*
X0Y1030D02*
X7Y1030D01*
X1566Y1030D02*
X1573Y1030D01*
X0Y1029D02*
X7Y1029D01*
X1566Y1029D02*
X1573Y1029D01*
X0Y1028D02*
X7Y1028D01*
X1566Y1028D02*
X1573Y1028D01*
X0Y1027D02*
X7Y1027D01*
X1566Y1027D02*
X1573Y1027D01*
X0Y1026D02*
X7Y1026D01*
X1566Y1026D02*
X1573Y1026D01*
X0Y1025D02*
X7Y1025D01*
X1566Y1025D02*
X1573Y1025D01*
X0Y1024D02*
X7Y1024D01*
X1566Y1024D02*
X1573Y1024D01*
X0Y1023D02*
X7Y1023D01*
X1566Y1023D02*
X1573Y1023D01*
X0Y1022D02*
X7Y1022D01*
X1566Y1022D02*
X1573Y1022D01*
X0Y1021D02*
X7Y1021D01*
X1566Y1021D02*
X1573Y1021D01*
X0Y1020D02*
X7Y1020D01*
X1566Y1020D02*
X1573Y1020D01*
X0Y1019D02*
X7Y1019D01*
X1566Y1019D02*
X1573Y1019D01*
X0Y1018D02*
X7Y1018D01*
X1566Y1018D02*
X1573Y1018D01*
X0Y1017D02*
X7Y1017D01*
X1566Y1017D02*
X1573Y1017D01*
X0Y1016D02*
X7Y1016D01*
X1566Y1016D02*
X1573Y1016D01*
X0Y1015D02*
X7Y1015D01*
X1566Y1015D02*
X1573Y1015D01*
X0Y1014D02*
X7Y1014D01*
X25Y1014D02*
X58Y1014D01*
X477Y1014D02*
X505Y1014D01*
X687Y1014D02*
X705Y1014D01*
X835Y1014D02*
X858Y1014D01*
X1034Y1014D02*
X1058Y1014D01*
X1566Y1014D02*
X1573Y1014D01*
X0Y1013D02*
X7Y1013D01*
X25Y1013D02*
X58Y1013D01*
X476Y1013D02*
X506Y1013D01*
X687Y1013D02*
X706Y1013D01*
X832Y1013D02*
X858Y1013D01*
X1032Y1013D02*
X1058Y1013D01*
X1566Y1013D02*
X1573Y1013D01*
X0Y1012D02*
X7Y1012D01*
X25Y1012D02*
X58Y1012D01*
X475Y1012D02*
X506Y1012D01*
X687Y1012D02*
X706Y1012D01*
X830Y1012D02*
X858Y1012D01*
X1030Y1012D02*
X1058Y1012D01*
X1566Y1012D02*
X1573Y1012D01*
X0Y1011D02*
X7Y1011D01*
X25Y1011D02*
X58Y1011D01*
X474Y1011D02*
X506Y1011D01*
X687Y1011D02*
X706Y1011D01*
X746Y1011D02*
X749Y1011D01*
X829Y1011D02*
X858Y1011D01*
X896Y1011D02*
X899Y1011D01*
X946Y1011D02*
X949Y1011D01*
X1029Y1011D02*
X1058Y1011D01*
X1566Y1011D02*
X1573Y1011D01*
X0Y1010D02*
X7Y1010D01*
X25Y1010D02*
X58Y1010D01*
X473Y1010D02*
X506Y1010D01*
X687Y1010D02*
X706Y1010D01*
X745Y1010D02*
X750Y1010D01*
X828Y1010D02*
X858Y1010D01*
X895Y1010D02*
X900Y1010D01*
X945Y1010D02*
X950Y1010D01*
X1028Y1010D02*
X1058Y1010D01*
X1566Y1010D02*
X1573Y1010D01*
X0Y1009D02*
X7Y1009D01*
X25Y1009D02*
X58Y1009D01*
X473Y1009D02*
X506Y1009D01*
X687Y1009D02*
X706Y1009D01*
X745Y1009D02*
X750Y1009D01*
X827Y1009D02*
X858Y1009D01*
X894Y1009D02*
X900Y1009D01*
X945Y1009D02*
X950Y1009D01*
X1027Y1009D02*
X1058Y1009D01*
X1566Y1009D02*
X1573Y1009D01*
X0Y1008D02*
X7Y1008D01*
X25Y1008D02*
X58Y1008D01*
X473Y1008D02*
X505Y1008D01*
X687Y1008D02*
X705Y1008D01*
X745Y1008D02*
X750Y1008D01*
X826Y1008D02*
X858Y1008D01*
X894Y1008D02*
X900Y1008D01*
X944Y1008D02*
X950Y1008D01*
X1026Y1008D02*
X1058Y1008D01*
X1566Y1008D02*
X1573Y1008D01*
X0Y1007D02*
X7Y1007D01*
X25Y1007D02*
X31Y1007D01*
X38Y1007D02*
X44Y1007D01*
X52Y1007D02*
X58Y1007D01*
X473Y1007D02*
X479Y1007D01*
X687Y1007D02*
X700Y1007D01*
X744Y1007D02*
X751Y1007D01*
X826Y1007D02*
X835Y1007D01*
X852Y1007D02*
X858Y1007D01*
X894Y1007D02*
X900Y1007D01*
X944Y1007D02*
X950Y1007D01*
X1026Y1007D02*
X1035Y1007D01*
X1052Y1007D02*
X1058Y1007D01*
X1566Y1007D02*
X1573Y1007D01*
X0Y1006D02*
X7Y1006D01*
X25Y1006D02*
X31Y1006D01*
X38Y1006D02*
X44Y1006D01*
X52Y1006D02*
X58Y1006D01*
X473Y1006D02*
X479Y1006D01*
X687Y1006D02*
X700Y1006D01*
X744Y1006D02*
X751Y1006D01*
X825Y1006D02*
X833Y1006D01*
X852Y1006D02*
X858Y1006D01*
X894Y1006D02*
X900Y1006D01*
X944Y1006D02*
X950Y1006D01*
X1025Y1006D02*
X1033Y1006D01*
X1052Y1006D02*
X1058Y1006D01*
X1566Y1006D02*
X1573Y1006D01*
X0Y1005D02*
X7Y1005D01*
X25Y1005D02*
X31Y1005D01*
X38Y1005D02*
X44Y1005D01*
X52Y1005D02*
X58Y1005D01*
X473Y1005D02*
X479Y1005D01*
X687Y1005D02*
X700Y1005D01*
X744Y1005D02*
X751Y1005D01*
X825Y1005D02*
X832Y1005D01*
X852Y1005D02*
X858Y1005D01*
X894Y1005D02*
X900Y1005D01*
X944Y1005D02*
X950Y1005D01*
X1025Y1005D02*
X1032Y1005D01*
X1052Y1005D02*
X1058Y1005D01*
X1566Y1005D02*
X1573Y1005D01*
X0Y1004D02*
X7Y1004D01*
X25Y1004D02*
X30Y1004D01*
X38Y1004D02*
X44Y1004D01*
X52Y1004D02*
X58Y1004D01*
X473Y1004D02*
X479Y1004D01*
X687Y1004D02*
X700Y1004D01*
X744Y1004D02*
X751Y1004D01*
X825Y1004D02*
X831Y1004D01*
X852Y1004D02*
X858Y1004D01*
X894Y1004D02*
X900Y1004D01*
X944Y1004D02*
X950Y1004D01*
X1025Y1004D02*
X1031Y1004D01*
X1052Y1004D02*
X1058Y1004D01*
X1566Y1004D02*
X1573Y1004D01*
X0Y1003D02*
X7Y1003D01*
X25Y1003D02*
X30Y1003D01*
X38Y1003D02*
X44Y1003D01*
X53Y1003D02*
X57Y1003D01*
X473Y1003D02*
X479Y1003D01*
X687Y1003D02*
X700Y1003D01*
X744Y1003D02*
X751Y1003D01*
X824Y1003D02*
X831Y1003D01*
X852Y1003D02*
X858Y1003D01*
X894Y1003D02*
X900Y1003D01*
X944Y1003D02*
X950Y1003D01*
X1024Y1003D02*
X1031Y1003D01*
X1052Y1003D02*
X1058Y1003D01*
X1566Y1003D02*
X1573Y1003D01*
X0Y1002D02*
X7Y1002D01*
X27Y1002D02*
X29Y1002D01*
X38Y1002D02*
X44Y1002D01*
X54Y1002D02*
X56Y1002D01*
X473Y1002D02*
X479Y1002D01*
X687Y1002D02*
X700Y1002D01*
X744Y1002D02*
X751Y1002D01*
X824Y1002D02*
X830Y1002D01*
X852Y1002D02*
X858Y1002D01*
X894Y1002D02*
X900Y1002D01*
X944Y1002D02*
X950Y1002D01*
X1024Y1002D02*
X1030Y1002D01*
X1052Y1002D02*
X1058Y1002D01*
X1566Y1002D02*
X1573Y1002D01*
X0Y1001D02*
X7Y1001D01*
X38Y1001D02*
X44Y1001D01*
X473Y1001D02*
X479Y1001D01*
X687Y1001D02*
X700Y1001D01*
X744Y1001D02*
X751Y1001D01*
X824Y1001D02*
X830Y1001D01*
X852Y1001D02*
X858Y1001D01*
X894Y1001D02*
X900Y1001D01*
X944Y1001D02*
X950Y1001D01*
X1024Y1001D02*
X1030Y1001D01*
X1052Y1001D02*
X1058Y1001D01*
X1566Y1001D02*
X1573Y1001D01*
X0Y1000D02*
X7Y1000D01*
X38Y1000D02*
X44Y1000D01*
X473Y1000D02*
X479Y1000D01*
X687Y1000D02*
X701Y1000D01*
X744Y1000D02*
X751Y1000D01*
X824Y1000D02*
X830Y1000D01*
X852Y1000D02*
X858Y1000D01*
X894Y1000D02*
X900Y1000D01*
X944Y1000D02*
X951Y1000D01*
X1024Y1000D02*
X1030Y1000D01*
X1052Y1000D02*
X1058Y1000D01*
X1566Y1000D02*
X1573Y1000D01*
X0Y999D02*
X7Y999D01*
X38Y999D02*
X44Y999D01*
X473Y999D02*
X479Y999D01*
X581Y999D02*
X591Y999D01*
X602Y999D02*
X606Y999D01*
X632Y999D02*
X648Y999D01*
X679Y999D02*
X706Y999D01*
X729Y999D02*
X756Y999D01*
X775Y999D02*
X791Y999D01*
X802Y999D02*
X806Y999D01*
X824Y999D02*
X830Y999D01*
X832Y999D02*
X848Y999D01*
X852Y999D02*
X858Y999D01*
X878Y999D02*
X906Y999D01*
X929Y999D02*
X956Y999D01*
X975Y999D02*
X979Y999D01*
X1003Y999D02*
X1006Y999D01*
X1024Y999D02*
X1030Y999D01*
X1052Y999D02*
X1058Y999D01*
X1566Y999D02*
X1573Y999D01*
X0Y998D02*
X7Y998D01*
X38Y998D02*
X44Y998D01*
X473Y998D02*
X479Y998D01*
X579Y998D02*
X593Y998D01*
X601Y998D02*
X606Y998D01*
X631Y998D02*
X650Y998D01*
X678Y998D02*
X707Y998D01*
X728Y998D02*
X757Y998D01*
X774Y998D02*
X793Y998D01*
X801Y998D02*
X807Y998D01*
X824Y998D02*
X850Y998D01*
X852Y998D02*
X858Y998D01*
X878Y998D02*
X907Y998D01*
X928Y998D02*
X957Y998D01*
X974Y998D02*
X979Y998D01*
X1002Y998D02*
X1007Y998D01*
X1024Y998D02*
X1030Y998D01*
X1052Y998D02*
X1058Y998D01*
X1566Y998D02*
X1573Y998D01*
X0Y997D02*
X7Y997D01*
X38Y997D02*
X44Y997D01*
X473Y997D02*
X479Y997D01*
X578Y997D02*
X595Y997D01*
X601Y997D02*
X607Y997D01*
X629Y997D02*
X651Y997D01*
X677Y997D02*
X707Y997D01*
X727Y997D02*
X757Y997D01*
X774Y997D02*
X795Y997D01*
X801Y997D02*
X807Y997D01*
X824Y997D02*
X858Y997D01*
X877Y997D02*
X907Y997D01*
X927Y997D02*
X957Y997D01*
X974Y997D02*
X980Y997D01*
X1002Y997D02*
X1007Y997D01*
X1024Y997D02*
X1030Y997D01*
X1052Y997D02*
X1058Y997D01*
X1566Y997D02*
X1573Y997D01*
X0Y996D02*
X7Y996D01*
X38Y996D02*
X44Y996D01*
X473Y996D02*
X479Y996D01*
X577Y996D02*
X597Y996D01*
X601Y996D02*
X607Y996D01*
X628Y996D02*
X652Y996D01*
X677Y996D02*
X707Y996D01*
X727Y996D02*
X757Y996D01*
X774Y996D02*
X796Y996D01*
X801Y996D02*
X808Y996D01*
X824Y996D02*
X858Y996D01*
X877Y996D02*
X907Y996D01*
X927Y996D02*
X957Y996D01*
X974Y996D02*
X980Y996D01*
X1002Y996D02*
X1007Y996D01*
X1024Y996D02*
X1030Y996D01*
X1052Y996D02*
X1058Y996D01*
X1566Y996D02*
X1573Y996D01*
X0Y995D02*
X7Y995D01*
X38Y995D02*
X44Y995D01*
X473Y995D02*
X479Y995D01*
X576Y995D02*
X598Y995D01*
X601Y995D02*
X607Y995D01*
X627Y995D02*
X654Y995D01*
X677Y995D02*
X707Y995D01*
X728Y995D02*
X757Y995D01*
X774Y995D02*
X798Y995D01*
X801Y995D02*
X808Y995D01*
X825Y995D02*
X858Y995D01*
X877Y995D02*
X907Y995D01*
X928Y995D02*
X957Y995D01*
X974Y995D02*
X980Y995D01*
X1001Y995D02*
X1007Y995D01*
X1024Y995D02*
X1031Y995D01*
X1052Y995D02*
X1058Y995D01*
X1566Y995D02*
X1573Y995D01*
X0Y994D02*
X7Y994D01*
X38Y994D02*
X44Y994D01*
X473Y994D02*
X479Y994D01*
X575Y994D02*
X607Y994D01*
X626Y994D02*
X654Y994D01*
X678Y994D02*
X706Y994D01*
X728Y994D02*
X756Y994D01*
X774Y994D02*
X807Y994D01*
X825Y994D02*
X858Y994D01*
X878Y994D02*
X906Y994D01*
X928Y994D02*
X956Y994D01*
X974Y994D02*
X980Y994D01*
X1001Y994D02*
X1007Y994D01*
X1025Y994D02*
X1031Y994D01*
X1052Y994D02*
X1058Y994D01*
X1566Y994D02*
X1573Y994D01*
X0Y993D02*
X7Y993D01*
X38Y993D02*
X44Y993D01*
X473Y993D02*
X479Y993D01*
X575Y993D02*
X607Y993D01*
X625Y993D02*
X655Y993D01*
X680Y993D02*
X705Y993D01*
X730Y993D02*
X755Y993D01*
X774Y993D02*
X807Y993D01*
X825Y993D02*
X858Y993D01*
X880Y993D02*
X905Y993D01*
X930Y993D02*
X955Y993D01*
X974Y993D02*
X980Y993D01*
X1001Y993D02*
X1007Y993D01*
X1025Y993D02*
X1032Y993D01*
X1052Y993D02*
X1058Y993D01*
X1566Y993D02*
X1573Y993D01*
X0Y992D02*
X7Y992D01*
X38Y992D02*
X44Y992D01*
X473Y992D02*
X479Y992D01*
X575Y992D02*
X582Y992D01*
X591Y992D02*
X607Y992D01*
X625Y992D02*
X656Y992D01*
X687Y992D02*
X700Y992D01*
X744Y992D02*
X751Y992D01*
X774Y992D02*
X781Y992D01*
X791Y992D02*
X807Y992D01*
X825Y992D02*
X834Y992D01*
X847Y992D02*
X858Y992D01*
X894Y992D02*
X900Y992D01*
X944Y992D02*
X950Y992D01*
X974Y992D02*
X980Y992D01*
X1001Y992D02*
X1007Y992D01*
X1025Y992D02*
X1034Y992D01*
X1052Y992D02*
X1058Y992D01*
X1566Y992D02*
X1573Y992D01*
X0Y991D02*
X7Y991D01*
X38Y991D02*
X44Y991D01*
X473Y991D02*
X479Y991D01*
X574Y991D02*
X581Y991D01*
X592Y991D02*
X607Y991D01*
X624Y991D02*
X656Y991D01*
X687Y991D02*
X700Y991D01*
X744Y991D02*
X751Y991D01*
X774Y991D02*
X781Y991D01*
X792Y991D02*
X807Y991D01*
X824Y991D02*
X858Y991D01*
X894Y991D02*
X900Y991D01*
X944Y991D02*
X950Y991D01*
X974Y991D02*
X980Y991D01*
X1001Y991D02*
X1007Y991D01*
X1026Y991D02*
X1058Y991D01*
X1566Y991D02*
X1573Y991D01*
X0Y990D02*
X8Y990D01*
X38Y990D02*
X44Y990D01*
X473Y990D02*
X503Y990D01*
X574Y990D02*
X580Y990D01*
X594Y990D02*
X607Y990D01*
X624Y990D02*
X657Y990D01*
X687Y990D02*
X700Y990D01*
X744Y990D02*
X751Y990D01*
X774Y990D02*
X780Y990D01*
X794Y990D02*
X807Y990D01*
X824Y990D02*
X858Y990D01*
X894Y990D02*
X900Y990D01*
X944Y990D02*
X950Y990D01*
X974Y990D02*
X980Y990D01*
X1001Y990D02*
X1007Y990D01*
X1027Y990D02*
X1058Y990D01*
X1566Y990D02*
X1573Y990D01*
X0Y989D02*
X8Y989D01*
X38Y989D02*
X44Y989D01*
X473Y989D02*
X504Y989D01*
X574Y989D02*
X580Y989D01*
X595Y989D02*
X607Y989D01*
X624Y989D02*
X657Y989D01*
X687Y989D02*
X700Y989D01*
X744Y989D02*
X751Y989D01*
X774Y989D02*
X780Y989D01*
X795Y989D02*
X807Y989D01*
X824Y989D02*
X858Y989D01*
X894Y989D02*
X900Y989D01*
X944Y989D02*
X950Y989D01*
X974Y989D02*
X980Y989D01*
X1001Y989D02*
X1007Y989D01*
X1027Y989D02*
X1058Y989D01*
X1566Y989D02*
X1573Y989D01*
X0Y988D02*
X8Y988D01*
X38Y988D02*
X44Y988D01*
X474Y988D02*
X505Y988D01*
X574Y988D02*
X580Y988D01*
X597Y988D02*
X607Y988D01*
X624Y988D02*
X649Y988D01*
X651Y988D02*
X657Y988D01*
X687Y988D02*
X700Y988D01*
X744Y988D02*
X751Y988D01*
X774Y988D02*
X780Y988D01*
X797Y988D02*
X807Y988D01*
X823Y988D02*
X858Y988D01*
X894Y988D02*
X900Y988D01*
X944Y988D02*
X950Y988D01*
X974Y988D02*
X980Y988D01*
X1001Y988D02*
X1007Y988D01*
X1028Y988D02*
X1058Y988D01*
X1566Y988D02*
X1573Y988D01*
X0Y987D02*
X8Y987D01*
X38Y987D02*
X44Y987D01*
X474Y987D02*
X506Y987D01*
X574Y987D02*
X580Y987D01*
X599Y987D02*
X607Y987D01*
X623Y987D02*
X648Y987D01*
X651Y987D02*
X657Y987D01*
X687Y987D02*
X700Y987D01*
X744Y987D02*
X751Y987D01*
X774Y987D02*
X780Y987D01*
X798Y987D02*
X807Y987D01*
X823Y987D02*
X858Y987D01*
X894Y987D02*
X900Y987D01*
X944Y987D02*
X950Y987D01*
X974Y987D02*
X980Y987D01*
X1001Y987D02*
X1007Y987D01*
X1028Y987D02*
X1058Y987D01*
X1566Y987D02*
X1573Y987D01*
X0Y986D02*
X8Y986D01*
X38Y986D02*
X44Y986D01*
X475Y986D02*
X506Y986D01*
X574Y986D02*
X580Y986D01*
X600Y986D02*
X607Y986D01*
X623Y986D02*
X647Y986D01*
X651Y986D02*
X657Y986D01*
X687Y986D02*
X700Y986D01*
X744Y986D02*
X751Y986D01*
X774Y986D02*
X780Y986D01*
X800Y986D02*
X807Y986D01*
X823Y986D02*
X858Y986D01*
X894Y986D02*
X900Y986D01*
X944Y986D02*
X950Y986D01*
X974Y986D02*
X980Y986D01*
X1001Y986D02*
X1007Y986D01*
X1028Y986D02*
X1058Y986D01*
X1566Y986D02*
X1573Y986D01*
X0Y985D02*
X8Y985D01*
X38Y985D02*
X44Y985D01*
X476Y985D02*
X506Y985D01*
X574Y985D02*
X580Y985D01*
X601Y985D02*
X607Y985D01*
X623Y985D02*
X631Y985D01*
X651Y985D02*
X657Y985D01*
X676Y985D02*
X676Y985D01*
X687Y985D02*
X700Y985D01*
X744Y985D02*
X751Y985D01*
X774Y985D02*
X780Y985D01*
X801Y985D02*
X807Y985D01*
X823Y985D02*
X858Y985D01*
X894Y985D02*
X900Y985D01*
X944Y985D02*
X950Y985D01*
X974Y985D02*
X980Y985D01*
X1001Y985D02*
X1007Y985D01*
X1027Y985D02*
X1058Y985D01*
X1566Y985D02*
X1573Y985D01*
X0Y984D02*
X8Y984D01*
X38Y984D02*
X44Y984D01*
X480Y984D02*
X506Y984D01*
X574Y984D02*
X580Y984D01*
X601Y984D02*
X607Y984D01*
X623Y984D02*
X631Y984D01*
X651Y984D02*
X657Y984D01*
X674Y984D02*
X678Y984D01*
X687Y984D02*
X700Y984D01*
X744Y984D02*
X751Y984D01*
X774Y984D02*
X780Y984D01*
X801Y984D02*
X807Y984D01*
X823Y984D02*
X858Y984D01*
X894Y984D02*
X900Y984D01*
X944Y984D02*
X950Y984D01*
X974Y984D02*
X980Y984D01*
X1001Y984D02*
X1007Y984D01*
X1026Y984D02*
X1058Y984D01*
X1566Y984D02*
X1573Y984D01*
X0Y983D02*
X8Y983D01*
X38Y983D02*
X44Y983D01*
X500Y983D02*
X506Y983D01*
X574Y983D02*
X580Y983D01*
X601Y983D02*
X607Y983D01*
X623Y983D02*
X631Y983D01*
X651Y983D02*
X657Y983D01*
X673Y983D02*
X678Y983D01*
X687Y983D02*
X700Y983D01*
X744Y983D02*
X751Y983D01*
X774Y983D02*
X780Y983D01*
X801Y983D02*
X807Y983D01*
X823Y983D02*
X834Y983D01*
X851Y983D02*
X858Y983D01*
X894Y983D02*
X900Y983D01*
X944Y983D02*
X950Y983D01*
X974Y983D02*
X980Y983D01*
X1001Y983D02*
X1007Y983D01*
X1025Y983D02*
X1034Y983D01*
X1052Y983D02*
X1058Y983D01*
X1566Y983D02*
X1573Y983D01*
X0Y982D02*
X8Y982D01*
X38Y982D02*
X44Y982D01*
X500Y982D02*
X506Y982D01*
X574Y982D02*
X580Y982D01*
X601Y982D02*
X607Y982D01*
X623Y982D02*
X631Y982D01*
X651Y982D02*
X657Y982D01*
X673Y982D02*
X679Y982D01*
X687Y982D02*
X700Y982D01*
X744Y982D02*
X751Y982D01*
X774Y982D02*
X780Y982D01*
X801Y982D02*
X807Y982D01*
X823Y982D02*
X832Y982D01*
X851Y982D02*
X858Y982D01*
X894Y982D02*
X900Y982D01*
X944Y982D02*
X950Y982D01*
X974Y982D02*
X980Y982D01*
X1001Y982D02*
X1007Y982D01*
X1025Y982D02*
X1032Y982D01*
X1052Y982D02*
X1058Y982D01*
X1566Y982D02*
X1573Y982D01*
X0Y981D02*
X8Y981D01*
X38Y981D02*
X44Y981D01*
X500Y981D02*
X506Y981D01*
X574Y981D02*
X580Y981D01*
X601Y981D02*
X607Y981D01*
X623Y981D02*
X631Y981D01*
X651Y981D02*
X657Y981D01*
X673Y981D02*
X679Y981D01*
X687Y981D02*
X700Y981D01*
X744Y981D02*
X751Y981D01*
X774Y981D02*
X780Y981D01*
X801Y981D02*
X807Y981D01*
X823Y981D02*
X832Y981D01*
X851Y981D02*
X858Y981D01*
X894Y981D02*
X900Y981D01*
X944Y981D02*
X950Y981D01*
X974Y981D02*
X980Y981D01*
X1001Y981D02*
X1007Y981D01*
X1025Y981D02*
X1031Y981D01*
X1052Y981D02*
X1058Y981D01*
X1566Y981D02*
X1573Y981D01*
X0Y980D02*
X8Y980D01*
X38Y980D02*
X44Y980D01*
X500Y980D02*
X506Y980D01*
X574Y980D02*
X580Y980D01*
X601Y980D02*
X607Y980D01*
X623Y980D02*
X631Y980D01*
X651Y980D02*
X657Y980D01*
X673Y980D02*
X679Y980D01*
X687Y980D02*
X700Y980D01*
X744Y980D02*
X751Y980D01*
X774Y980D02*
X780Y980D01*
X801Y980D02*
X807Y980D01*
X823Y980D02*
X831Y980D01*
X851Y980D02*
X858Y980D01*
X894Y980D02*
X900Y980D01*
X944Y980D02*
X950Y980D01*
X974Y980D02*
X980Y980D01*
X1001Y980D02*
X1007Y980D01*
X1024Y980D02*
X1031Y980D01*
X1052Y980D02*
X1058Y980D01*
X1566Y980D02*
X1573Y980D01*
X0Y979D02*
X8Y979D01*
X38Y979D02*
X44Y979D01*
X500Y979D02*
X506Y979D01*
X574Y979D02*
X580Y979D01*
X601Y979D02*
X607Y979D01*
X623Y979D02*
X632Y979D01*
X651Y979D02*
X657Y979D01*
X673Y979D02*
X679Y979D01*
X687Y979D02*
X700Y979D01*
X744Y979D02*
X751Y979D01*
X774Y979D02*
X780Y979D01*
X801Y979D02*
X807Y979D01*
X823Y979D02*
X831Y979D01*
X851Y979D02*
X858Y979D01*
X894Y979D02*
X900Y979D01*
X944Y979D02*
X950Y979D01*
X974Y979D02*
X980Y979D01*
X1001Y979D02*
X1007Y979D01*
X1024Y979D02*
X1030Y979D01*
X1052Y979D02*
X1058Y979D01*
X1566Y979D02*
X1573Y979D01*
X0Y978D02*
X8Y978D01*
X38Y978D02*
X44Y978D01*
X500Y978D02*
X506Y978D01*
X574Y978D02*
X580Y978D01*
X601Y978D02*
X607Y978D01*
X623Y978D02*
X679Y978D01*
X687Y978D02*
X700Y978D01*
X744Y978D02*
X751Y978D01*
X774Y978D02*
X780Y978D01*
X801Y978D02*
X807Y978D01*
X823Y978D02*
X830Y978D01*
X851Y978D02*
X858Y978D01*
X894Y978D02*
X900Y978D01*
X944Y978D02*
X950Y978D01*
X974Y978D02*
X980Y978D01*
X1001Y978D02*
X1007Y978D01*
X1024Y978D02*
X1030Y978D01*
X1052Y978D02*
X1058Y978D01*
X1566Y978D02*
X1573Y978D01*
X0Y977D02*
X8Y977D01*
X38Y977D02*
X44Y977D01*
X500Y977D02*
X506Y977D01*
X574Y977D02*
X580Y977D01*
X601Y977D02*
X607Y977D01*
X623Y977D02*
X679Y977D01*
X687Y977D02*
X700Y977D01*
X744Y977D02*
X751Y977D01*
X774Y977D02*
X780Y977D01*
X801Y977D02*
X807Y977D01*
X823Y977D02*
X830Y977D01*
X851Y977D02*
X858Y977D01*
X894Y977D02*
X900Y977D01*
X944Y977D02*
X950Y977D01*
X974Y977D02*
X980Y977D01*
X1001Y977D02*
X1007Y977D01*
X1024Y977D02*
X1030Y977D01*
X1052Y977D02*
X1058Y977D01*
X1566Y977D02*
X1573Y977D01*
X0Y976D02*
X8Y976D01*
X38Y976D02*
X44Y976D01*
X500Y976D02*
X506Y976D01*
X574Y976D02*
X580Y976D01*
X601Y976D02*
X607Y976D01*
X623Y976D02*
X679Y976D01*
X687Y976D02*
X700Y976D01*
X744Y976D02*
X751Y976D01*
X774Y976D02*
X780Y976D01*
X801Y976D02*
X807Y976D01*
X823Y976D02*
X830Y976D01*
X851Y976D02*
X858Y976D01*
X894Y976D02*
X900Y976D01*
X944Y976D02*
X950Y976D01*
X974Y976D02*
X980Y976D01*
X1001Y976D02*
X1007Y976D01*
X1024Y976D02*
X1030Y976D01*
X1052Y976D02*
X1058Y976D01*
X1566Y976D02*
X1573Y976D01*
X0Y975D02*
X8Y975D01*
X38Y975D02*
X44Y975D01*
X500Y975D02*
X506Y975D01*
X574Y975D02*
X580Y975D01*
X601Y975D02*
X607Y975D01*
X623Y975D02*
X679Y975D01*
X687Y975D02*
X700Y975D01*
X744Y975D02*
X751Y975D01*
X774Y975D02*
X780Y975D01*
X801Y975D02*
X807Y975D01*
X823Y975D02*
X830Y975D01*
X851Y975D02*
X858Y975D01*
X894Y975D02*
X900Y975D01*
X944Y975D02*
X950Y975D01*
X974Y975D02*
X980Y975D01*
X1001Y975D02*
X1007Y975D01*
X1024Y975D02*
X1030Y975D01*
X1052Y975D02*
X1058Y975D01*
X1566Y975D02*
X1573Y975D01*
X0Y974D02*
X8Y974D01*
X38Y974D02*
X44Y974D01*
X500Y974D02*
X506Y974D01*
X574Y974D02*
X580Y974D01*
X601Y974D02*
X607Y974D01*
X623Y974D02*
X679Y974D01*
X687Y974D02*
X700Y974D01*
X744Y974D02*
X751Y974D01*
X774Y974D02*
X781Y974D01*
X801Y974D02*
X807Y974D01*
X823Y974D02*
X830Y974D01*
X851Y974D02*
X858Y974D01*
X894Y974D02*
X900Y974D01*
X944Y974D02*
X950Y974D01*
X974Y974D02*
X981Y974D01*
X1001Y974D02*
X1007Y974D01*
X1024Y974D02*
X1030Y974D01*
X1052Y974D02*
X1058Y974D01*
X1566Y974D02*
X1573Y974D01*
X0Y973D02*
X8Y973D01*
X38Y973D02*
X44Y973D01*
X500Y973D02*
X506Y973D01*
X574Y973D02*
X580Y973D01*
X601Y973D02*
X607Y973D01*
X623Y973D02*
X679Y973D01*
X687Y973D02*
X700Y973D01*
X726Y973D02*
X728Y973D01*
X744Y973D02*
X751Y973D01*
X774Y973D02*
X783Y973D01*
X801Y973D02*
X807Y973D01*
X823Y973D02*
X830Y973D01*
X851Y973D02*
X858Y973D01*
X876Y973D02*
X877Y973D01*
X894Y973D02*
X900Y973D01*
X926Y973D02*
X928Y973D01*
X944Y973D02*
X950Y973D01*
X974Y973D02*
X982Y973D01*
X1001Y973D02*
X1007Y973D01*
X1024Y973D02*
X1030Y973D01*
X1052Y973D02*
X1058Y973D01*
X1566Y973D02*
X1573Y973D01*
X0Y972D02*
X8Y972D01*
X38Y972D02*
X44Y972D01*
X500Y972D02*
X506Y972D01*
X574Y972D02*
X580Y972D01*
X601Y972D02*
X607Y972D01*
X624Y972D02*
X679Y972D01*
X687Y972D02*
X700Y972D01*
X725Y972D02*
X729Y972D01*
X744Y972D02*
X751Y972D01*
X773Y972D02*
X784Y972D01*
X801Y972D02*
X807Y972D01*
X823Y972D02*
X831Y972D01*
X851Y972D02*
X858Y972D01*
X874Y972D02*
X879Y972D01*
X894Y972D02*
X900Y972D01*
X925Y972D02*
X929Y972D01*
X944Y972D02*
X950Y972D01*
X974Y972D02*
X984Y972D01*
X1001Y972D02*
X1007Y972D01*
X1024Y972D02*
X1031Y972D01*
X1052Y972D02*
X1058Y972D01*
X1566Y972D02*
X1573Y972D01*
X0Y971D02*
X8Y971D01*
X38Y971D02*
X44Y971D01*
X500Y971D02*
X506Y971D01*
X574Y971D02*
X580Y971D01*
X601Y971D02*
X607Y971D01*
X624Y971D02*
X631Y971D01*
X650Y971D02*
X657Y971D01*
X673Y971D02*
X679Y971D01*
X687Y971D02*
X700Y971D01*
X724Y971D02*
X730Y971D01*
X744Y971D02*
X751Y971D01*
X773Y971D02*
X786Y971D01*
X801Y971D02*
X807Y971D01*
X824Y971D02*
X831Y971D01*
X850Y971D02*
X858Y971D01*
X874Y971D02*
X879Y971D01*
X894Y971D02*
X900Y971D01*
X924Y971D02*
X929Y971D01*
X944Y971D02*
X950Y971D01*
X974Y971D02*
X986Y971D01*
X1001Y971D02*
X1007Y971D01*
X1025Y971D02*
X1031Y971D01*
X1052Y971D02*
X1058Y971D01*
X1566Y971D02*
X1573Y971D01*
X0Y970D02*
X8Y970D01*
X38Y970D02*
X44Y970D01*
X500Y970D02*
X506Y970D01*
X574Y970D02*
X579Y970D01*
X601Y970D02*
X607Y970D01*
X624Y970D02*
X631Y970D01*
X649Y970D02*
X657Y970D01*
X673Y970D02*
X680Y970D01*
X687Y970D02*
X700Y970D01*
X724Y970D02*
X730Y970D01*
X744Y970D02*
X750Y970D01*
X773Y970D02*
X787Y970D01*
X801Y970D02*
X807Y970D01*
X824Y970D02*
X832Y970D01*
X849Y970D02*
X858Y970D01*
X874Y970D02*
X880Y970D01*
X894Y970D02*
X900Y970D01*
X924Y970D02*
X930Y970D01*
X944Y970D02*
X950Y970D01*
X974Y970D02*
X987Y970D01*
X1000Y970D02*
X1007Y970D01*
X1025Y970D02*
X1032Y970D01*
X1052Y970D02*
X1058Y970D01*
X1566Y970D02*
X1573Y970D01*
X0Y969D02*
X7Y969D01*
X38Y969D02*
X44Y969D01*
X500Y969D02*
X506Y969D01*
X574Y969D02*
X579Y969D01*
X601Y969D02*
X607Y969D01*
X624Y969D02*
X632Y969D01*
X648Y969D02*
X656Y969D01*
X673Y969D02*
X680Y969D01*
X687Y969D02*
X700Y969D01*
X724Y969D02*
X730Y969D01*
X744Y969D02*
X750Y969D01*
X773Y969D02*
X789Y969D01*
X800Y969D02*
X807Y969D01*
X824Y969D02*
X833Y969D01*
X848Y969D02*
X858Y969D01*
X874Y969D02*
X880Y969D01*
X894Y969D02*
X900Y969D01*
X924Y969D02*
X930Y969D01*
X944Y969D02*
X950Y969D01*
X974Y969D02*
X989Y969D01*
X1000Y969D02*
X1006Y969D01*
X1025Y969D02*
X1033Y969D01*
X1052Y969D02*
X1058Y969D01*
X1566Y969D02*
X1573Y969D01*
X0Y968D02*
X7Y968D01*
X38Y968D02*
X44Y968D01*
X500Y968D02*
X506Y968D01*
X573Y968D02*
X579Y968D01*
X601Y968D02*
X607Y968D01*
X625Y968D02*
X634Y968D01*
X647Y968D02*
X656Y968D01*
X673Y968D02*
X681Y968D01*
X687Y968D02*
X700Y968D01*
X724Y968D02*
X731Y968D01*
X743Y968D02*
X750Y968D01*
X773Y968D02*
X790Y968D01*
X799Y968D02*
X807Y968D01*
X825Y968D02*
X834Y968D01*
X847Y968D02*
X858Y968D01*
X874Y968D02*
X881Y968D01*
X893Y968D02*
X900Y968D01*
X924Y968D02*
X931Y968D01*
X943Y968D02*
X950Y968D01*
X974Y968D02*
X990Y968D01*
X999Y968D02*
X1006Y968D01*
X1026Y968D02*
X1034Y968D01*
X1052Y968D02*
X1058Y968D01*
X1566Y968D02*
X1573Y968D01*
X0Y967D02*
X7Y967D01*
X38Y967D02*
X44Y967D01*
X475Y967D02*
X506Y967D01*
X573Y967D02*
X579Y967D01*
X601Y967D02*
X607Y967D01*
X625Y967D02*
X655Y967D01*
X673Y967D02*
X704Y967D01*
X725Y967D02*
X750Y967D01*
X773Y967D02*
X807Y967D01*
X825Y967D02*
X858Y967D01*
X874Y967D02*
X899Y967D01*
X924Y967D02*
X950Y967D01*
X974Y967D02*
X1006Y967D01*
X1026Y967D02*
X1058Y967D01*
X1566Y967D02*
X1573Y967D01*
X0Y966D02*
X7Y966D01*
X38Y966D02*
X44Y966D01*
X474Y966D02*
X506Y966D01*
X573Y966D02*
X579Y966D01*
X601Y966D02*
X607Y966D01*
X625Y966D02*
X654Y966D01*
X673Y966D02*
X706Y966D01*
X725Y966D02*
X749Y966D01*
X773Y966D02*
X780Y966D01*
X782Y966D02*
X807Y966D01*
X826Y966D02*
X858Y966D01*
X875Y966D02*
X899Y966D01*
X925Y966D02*
X949Y966D01*
X974Y966D02*
X1005Y966D01*
X1027Y966D02*
X1058Y966D01*
X1566Y966D02*
X1573Y966D01*
X0Y965D02*
X7Y965D01*
X38Y965D02*
X44Y965D01*
X473Y965D02*
X506Y965D01*
X573Y965D02*
X579Y965D01*
X601Y965D02*
X607Y965D01*
X625Y965D02*
X653Y965D01*
X673Y965D02*
X706Y965D01*
X726Y965D02*
X749Y965D01*
X773Y965D02*
X780Y965D01*
X783Y965D02*
X807Y965D01*
X827Y965D02*
X858Y965D01*
X875Y965D02*
X898Y965D01*
X926Y965D02*
X949Y965D01*
X974Y965D02*
X980Y965D01*
X983Y965D02*
X1005Y965D01*
X1028Y965D02*
X1058Y965D01*
X1566Y965D02*
X1573Y965D01*
X0Y964D02*
X7Y964D01*
X38Y964D02*
X44Y964D01*
X473Y964D02*
X506Y964D01*
X573Y964D02*
X579Y964D01*
X601Y964D02*
X607Y964D01*
X625Y964D02*
X652Y964D01*
X673Y964D02*
X706Y964D01*
X726Y964D02*
X748Y964D01*
X773Y964D02*
X780Y964D01*
X785Y964D02*
X807Y964D01*
X828Y964D02*
X858Y964D01*
X876Y964D02*
X898Y964D01*
X926Y964D02*
X948Y964D01*
X974Y964D02*
X980Y964D01*
X985Y964D02*
X1004Y964D01*
X1029Y964D02*
X1058Y964D01*
X1566Y964D02*
X1573Y964D01*
X0Y963D02*
X7Y963D01*
X39Y963D02*
X44Y963D01*
X473Y963D02*
X506Y963D01*
X574Y963D02*
X579Y963D01*
X601Y963D02*
X607Y963D01*
X625Y963D02*
X651Y963D01*
X673Y963D02*
X706Y963D01*
X727Y963D02*
X747Y963D01*
X773Y963D02*
X780Y963D01*
X786Y963D02*
X807Y963D01*
X829Y963D02*
X858Y963D01*
X877Y963D02*
X897Y963D01*
X927Y963D02*
X947Y963D01*
X974Y963D02*
X980Y963D01*
X986Y963D02*
X1003Y963D01*
X1030Y963D02*
X1058Y963D01*
X1566Y963D02*
X1573Y963D01*
X0Y962D02*
X7Y962D01*
X39Y962D02*
X44Y962D01*
X474Y962D02*
X506Y962D01*
X574Y962D02*
X579Y962D01*
X601Y962D02*
X606Y962D01*
X625Y962D02*
X650Y962D01*
X673Y962D02*
X706Y962D01*
X729Y962D02*
X746Y962D01*
X774Y962D02*
X779Y962D01*
X788Y962D02*
X806Y962D01*
X831Y962D02*
X858Y962D01*
X879Y962D02*
X895Y962D01*
X929Y962D02*
X945Y962D01*
X975Y962D02*
X979Y962D01*
X988Y962D02*
X1002Y962D01*
X1032Y962D02*
X1058Y962D01*
X1566Y962D02*
X1573Y962D01*
X0Y961D02*
X7Y961D01*
X40Y961D02*
X43Y961D01*
X475Y961D02*
X506Y961D01*
X575Y961D02*
X578Y961D01*
X603Y961D02*
X605Y961D01*
X626Y961D02*
X631Y961D01*
X633Y961D02*
X647Y961D01*
X673Y961D02*
X705Y961D01*
X731Y961D02*
X744Y961D01*
X775Y961D02*
X778Y961D01*
X790Y961D02*
X800Y961D01*
X802Y961D02*
X805Y961D01*
X833Y961D02*
X858Y961D01*
X881Y961D02*
X893Y961D01*
X931Y961D02*
X943Y961D01*
X976Y961D02*
X978Y961D01*
X990Y961D02*
X1000Y961D01*
X1034Y961D02*
X1058Y961D01*
X1566Y961D02*
X1573Y961D01*
X0Y960D02*
X7Y960D01*
X626Y960D02*
X631Y960D01*
X673Y960D02*
X678Y960D01*
X1566Y960D02*
X1573Y960D01*
X0Y959D02*
X7Y959D01*
X627Y959D02*
X630Y959D01*
X674Y959D02*
X677Y959D01*
X1566Y959D02*
X1573Y959D01*
X0Y958D02*
X7Y958D01*
X1566Y958D02*
X1573Y958D01*
X0Y957D02*
X7Y957D01*
X1566Y957D02*
X1573Y957D01*
X0Y956D02*
X7Y956D01*
X1566Y956D02*
X1573Y956D01*
X0Y955D02*
X7Y955D01*
X1566Y955D02*
X1573Y955D01*
X0Y954D02*
X7Y954D01*
X1566Y954D02*
X1573Y954D01*
X0Y953D02*
X7Y953D01*
X1566Y953D02*
X1573Y953D01*
X0Y952D02*
X7Y952D01*
X1566Y952D02*
X1573Y952D01*
X0Y951D02*
X7Y951D01*
X1566Y951D02*
X1573Y951D01*
X0Y950D02*
X7Y950D01*
X1566Y950D02*
X1573Y950D01*
X0Y949D02*
X7Y949D01*
X1566Y949D02*
X1573Y949D01*
X0Y948D02*
X7Y948D01*
X1566Y948D02*
X1573Y948D01*
X0Y947D02*
X7Y947D01*
X1566Y947D02*
X1573Y947D01*
X0Y946D02*
X7Y946D01*
X1566Y946D02*
X1573Y946D01*
X0Y945D02*
X7Y945D01*
X1566Y945D02*
X1573Y945D01*
X0Y944D02*
X7Y944D01*
X1566Y944D02*
X1573Y944D01*
X0Y943D02*
X7Y943D01*
X1566Y943D02*
X1573Y943D01*
X0Y942D02*
X7Y942D01*
X627Y942D02*
X630Y942D01*
X662Y942D02*
X671Y942D01*
X1566Y942D02*
X1573Y942D01*
X0Y941D02*
X7Y941D01*
X626Y941D02*
X632Y941D01*
X660Y941D02*
X673Y941D01*
X1566Y941D02*
X1573Y941D01*
X0Y940D02*
X7Y940D01*
X626Y940D02*
X633Y940D01*
X659Y940D02*
X675Y940D01*
X1566Y940D02*
X1573Y940D01*
X0Y939D02*
X7Y939D01*
X625Y939D02*
X635Y939D01*
X658Y939D02*
X676Y939D01*
X1566Y939D02*
X1573Y939D01*
X0Y938D02*
X7Y938D01*
X626Y938D02*
X637Y938D01*
X657Y938D02*
X677Y938D01*
X1566Y938D02*
X1573Y938D01*
X0Y937D02*
X7Y937D01*
X626Y937D02*
X638Y937D01*
X656Y937D02*
X677Y937D01*
X1566Y937D02*
X1573Y937D01*
X0Y936D02*
X7Y936D01*
X627Y936D02*
X640Y936D01*
X656Y936D02*
X678Y936D01*
X1566Y936D02*
X1573Y936D01*
X0Y935D02*
X7Y935D01*
X629Y935D02*
X642Y935D01*
X655Y935D02*
X663Y935D01*
X671Y935D02*
X678Y935D01*
X1566Y935D02*
X1573Y935D01*
X0Y934D02*
X7Y934D01*
X631Y934D02*
X644Y934D01*
X655Y934D02*
X662Y934D01*
X672Y934D02*
X678Y934D01*
X1566Y934D02*
X1573Y934D01*
X0Y933D02*
X7Y933D01*
X632Y933D02*
X645Y933D01*
X655Y933D02*
X661Y933D01*
X672Y933D02*
X678Y933D01*
X1566Y933D02*
X1573Y933D01*
X0Y932D02*
X7Y932D01*
X634Y932D02*
X647Y932D01*
X655Y932D02*
X661Y932D01*
X672Y932D02*
X679Y932D01*
X1566Y932D02*
X1573Y932D01*
X0Y931D02*
X7Y931D01*
X636Y931D02*
X649Y931D01*
X655Y931D02*
X661Y931D01*
X673Y931D02*
X679Y931D01*
X1566Y931D02*
X1573Y931D01*
X0Y930D02*
X7Y930D01*
X637Y930D02*
X650Y930D01*
X655Y930D02*
X661Y930D01*
X673Y930D02*
X679Y930D01*
X1566Y930D02*
X1573Y930D01*
X0Y929D02*
X7Y929D01*
X639Y929D02*
X652Y929D01*
X655Y929D02*
X661Y929D01*
X673Y929D02*
X679Y929D01*
X1566Y929D02*
X1573Y929D01*
X0Y928D02*
X7Y928D01*
X641Y928D02*
X661Y928D01*
X673Y928D02*
X679Y928D01*
X1566Y928D02*
X1573Y928D01*
X0Y927D02*
X7Y927D01*
X643Y927D02*
X661Y927D01*
X673Y927D02*
X679Y927D01*
X1566Y927D02*
X1573Y927D01*
X0Y926D02*
X7Y926D01*
X644Y926D02*
X661Y926D01*
X673Y926D02*
X679Y926D01*
X1566Y926D02*
X1573Y926D01*
X0Y925D02*
X7Y925D01*
X646Y925D02*
X661Y925D01*
X673Y925D02*
X679Y925D01*
X1566Y925D02*
X1573Y925D01*
X0Y924D02*
X7Y924D01*
X648Y924D02*
X661Y924D01*
X673Y924D02*
X679Y924D01*
X1566Y924D02*
X1573Y924D01*
X0Y923D02*
X7Y923D01*
X649Y923D02*
X661Y923D01*
X673Y923D02*
X679Y923D01*
X1566Y923D02*
X1573Y923D01*
X0Y922D02*
X7Y922D01*
X651Y922D02*
X661Y922D01*
X673Y922D02*
X679Y922D01*
X1566Y922D02*
X1573Y922D01*
X0Y921D02*
X7Y921D01*
X653Y921D02*
X661Y921D01*
X673Y921D02*
X679Y921D01*
X1566Y921D02*
X1573Y921D01*
X0Y920D02*
X7Y920D01*
X654Y920D02*
X661Y920D01*
X673Y920D02*
X679Y920D01*
X1566Y920D02*
X1573Y920D01*
X0Y919D02*
X7Y919D01*
X655Y919D02*
X661Y919D01*
X673Y919D02*
X679Y919D01*
X1566Y919D02*
X1573Y919D01*
X0Y918D02*
X7Y918D01*
X655Y918D02*
X661Y918D01*
X673Y918D02*
X679Y918D01*
X1566Y918D02*
X1573Y918D01*
X0Y917D02*
X7Y917D01*
X655Y917D02*
X661Y917D01*
X673Y917D02*
X679Y917D01*
X1566Y917D02*
X1573Y917D01*
X0Y916D02*
X7Y916D01*
X655Y916D02*
X661Y916D01*
X673Y916D02*
X679Y916D01*
X1566Y916D02*
X1573Y916D01*
X0Y915D02*
X7Y915D01*
X629Y915D02*
X679Y915D01*
X1566Y915D02*
X1573Y915D01*
X0Y914D02*
X7Y914D01*
X627Y914D02*
X679Y914D01*
X1566Y914D02*
X1573Y914D01*
X0Y913D02*
X7Y913D01*
X626Y913D02*
X679Y913D01*
X1566Y913D02*
X1573Y913D01*
X0Y912D02*
X7Y912D01*
X625Y912D02*
X679Y912D01*
X1566Y912D02*
X1573Y912D01*
X0Y911D02*
X7Y911D01*
X625Y911D02*
X679Y911D01*
X1566Y911D02*
X1573Y911D01*
X0Y910D02*
X7Y910D01*
X626Y910D02*
X679Y910D01*
X1566Y910D02*
X1573Y910D01*
X0Y909D02*
X7Y909D01*
X627Y909D02*
X679Y909D01*
X1566Y909D02*
X1573Y909D01*
X0Y908D02*
X7Y908D01*
X1566Y908D02*
X1573Y908D01*
X0Y907D02*
X7Y907D01*
X1566Y907D02*
X1573Y907D01*
X0Y906D02*
X7Y906D01*
X1566Y906D02*
X1573Y906D01*
X0Y905D02*
X7Y905D01*
X1566Y905D02*
X1573Y905D01*
X0Y904D02*
X7Y904D01*
X1566Y904D02*
X1573Y904D01*
X0Y903D02*
X7Y903D01*
X1566Y903D02*
X1573Y903D01*
X0Y902D02*
X7Y902D01*
X1566Y902D02*
X1573Y902D01*
X0Y901D02*
X7Y901D01*
X1566Y901D02*
X1573Y901D01*
X0Y900D02*
X7Y900D01*
X1566Y900D02*
X1573Y900D01*
X0Y899D02*
X7Y899D01*
X1566Y899D02*
X1573Y899D01*
X0Y898D02*
X7Y898D01*
X1566Y898D02*
X1573Y898D01*
X0Y897D02*
X7Y897D01*
X1566Y897D02*
X1573Y897D01*
X0Y896D02*
X7Y896D01*
X1566Y896D02*
X1573Y896D01*
X0Y895D02*
X7Y895D01*
X1566Y895D02*
X1573Y895D01*
X0Y894D02*
X7Y894D01*
X1566Y894D02*
X1573Y894D01*
X0Y893D02*
X7Y893D01*
X1566Y893D02*
X1573Y893D01*
X0Y892D02*
X7Y892D01*
X1566Y892D02*
X1573Y892D01*
X0Y891D02*
X7Y891D01*
X1566Y891D02*
X1573Y891D01*
X0Y890D02*
X7Y890D01*
X1566Y890D02*
X1573Y890D01*
X0Y889D02*
X7Y889D01*
X1566Y889D02*
X1573Y889D01*
X0Y888D02*
X7Y888D01*
X1566Y888D02*
X1573Y888D01*
X0Y887D02*
X7Y887D01*
X1566Y887D02*
X1573Y887D01*
X0Y886D02*
X7Y886D01*
X1566Y886D02*
X1573Y886D01*
X0Y885D02*
X7Y885D01*
X1566Y885D02*
X1573Y885D01*
X0Y884D02*
X7Y884D01*
X1566Y884D02*
X1573Y884D01*
X0Y883D02*
X7Y883D01*
X1566Y883D02*
X1573Y883D01*
X0Y882D02*
X7Y882D01*
X1566Y882D02*
X1573Y882D01*
X0Y881D02*
X7Y881D01*
X1566Y881D02*
X1573Y881D01*
X0Y880D02*
X7Y880D01*
X1566Y880D02*
X1573Y880D01*
X0Y879D02*
X7Y879D01*
X1566Y879D02*
X1573Y879D01*
X0Y878D02*
X7Y878D01*
X1566Y878D02*
X1573Y878D01*
X0Y877D02*
X7Y877D01*
X1566Y877D02*
X1573Y877D01*
X0Y876D02*
X7Y876D01*
X1566Y876D02*
X1573Y876D01*
X0Y875D02*
X7Y875D01*
X1566Y875D02*
X1573Y875D01*
X0Y874D02*
X7Y874D01*
X1566Y874D02*
X1573Y874D01*
X0Y873D02*
X7Y873D01*
X1566Y873D02*
X1573Y873D01*
X0Y872D02*
X7Y872D01*
X1566Y872D02*
X1573Y872D01*
X0Y871D02*
X7Y871D01*
X1566Y871D02*
X1573Y871D01*
X0Y870D02*
X7Y870D01*
X1566Y870D02*
X1573Y870D01*
X0Y869D02*
X7Y869D01*
X1566Y869D02*
X1573Y869D01*
X0Y868D02*
X7Y868D01*
X1566Y868D02*
X1573Y868D01*
X0Y867D02*
X7Y867D01*
X1566Y867D02*
X1573Y867D01*
X0Y866D02*
X7Y866D01*
X1566Y866D02*
X1573Y866D01*
X0Y865D02*
X7Y865D01*
X1566Y865D02*
X1573Y865D01*
X0Y864D02*
X7Y864D01*
X1566Y864D02*
X1573Y864D01*
X0Y863D02*
X7Y863D01*
X1566Y863D02*
X1573Y863D01*
X0Y862D02*
X7Y862D01*
X1566Y862D02*
X1573Y862D01*
X0Y861D02*
X7Y861D01*
X1566Y861D02*
X1573Y861D01*
X0Y860D02*
X7Y860D01*
X1566Y860D02*
X1573Y860D01*
X0Y859D02*
X7Y859D01*
X1566Y859D02*
X1573Y859D01*
X0Y858D02*
X7Y858D01*
X1566Y858D02*
X1573Y858D01*
X0Y857D02*
X7Y857D01*
X1566Y857D02*
X1573Y857D01*
X0Y856D02*
X7Y856D01*
X1566Y856D02*
X1573Y856D01*
X0Y855D02*
X7Y855D01*
X1566Y855D02*
X1573Y855D01*
X0Y854D02*
X7Y854D01*
X1566Y854D02*
X1573Y854D01*
X0Y853D02*
X7Y853D01*
X1566Y853D02*
X1573Y853D01*
X0Y852D02*
X7Y852D01*
X1566Y852D02*
X1573Y852D01*
X0Y851D02*
X7Y851D01*
X1566Y851D02*
X1573Y851D01*
X0Y850D02*
X7Y850D01*
X1566Y850D02*
X1573Y850D01*
X0Y849D02*
X7Y849D01*
X1566Y849D02*
X1573Y849D01*
X0Y848D02*
X7Y848D01*
X1566Y848D02*
X1573Y848D01*
X0Y847D02*
X7Y847D01*
X1566Y847D02*
X1573Y847D01*
X0Y846D02*
X7Y846D01*
X1566Y846D02*
X1573Y846D01*
X0Y845D02*
X7Y845D01*
X1566Y845D02*
X1573Y845D01*
X0Y844D02*
X7Y844D01*
X1566Y844D02*
X1573Y844D01*
X0Y843D02*
X7Y843D01*
X1566Y843D02*
X1573Y843D01*
X0Y842D02*
X7Y842D01*
X1566Y842D02*
X1573Y842D01*
X0Y841D02*
X7Y841D01*
X1566Y841D02*
X1573Y841D01*
X0Y840D02*
X7Y840D01*
X1566Y840D02*
X1573Y840D01*
X0Y839D02*
X7Y839D01*
X1566Y839D02*
X1573Y839D01*
X0Y838D02*
X7Y838D01*
X1566Y838D02*
X1573Y838D01*
X0Y837D02*
X7Y837D01*
X1566Y837D02*
X1573Y837D01*
X0Y836D02*
X7Y836D01*
X1566Y836D02*
X1573Y836D01*
X0Y835D02*
X7Y835D01*
X1566Y835D02*
X1573Y835D01*
X0Y834D02*
X7Y834D01*
X1566Y834D02*
X1573Y834D01*
X0Y833D02*
X7Y833D01*
X1566Y833D02*
X1573Y833D01*
X0Y832D02*
X7Y832D01*
X1566Y832D02*
X1573Y832D01*
X0Y831D02*
X7Y831D01*
X1566Y831D02*
X1573Y831D01*
X0Y830D02*
X7Y830D01*
X1566Y830D02*
X1573Y830D01*
X0Y829D02*
X7Y829D01*
X1566Y829D02*
X1573Y829D01*
X0Y828D02*
X7Y828D01*
X1566Y828D02*
X1573Y828D01*
X0Y827D02*
X7Y827D01*
X1566Y827D02*
X1573Y827D01*
X0Y826D02*
X7Y826D01*
X1566Y826D02*
X1573Y826D01*
X0Y825D02*
X7Y825D01*
X1566Y825D02*
X1573Y825D01*
X0Y824D02*
X7Y824D01*
X476Y824D02*
X481Y824D01*
X592Y824D02*
X597Y824D01*
X1566Y824D02*
X1573Y824D01*
X0Y823D02*
X7Y823D01*
X476Y823D02*
X481Y823D01*
X592Y823D02*
X597Y823D01*
X1566Y823D02*
X1573Y823D01*
X0Y822D02*
X7Y822D01*
X476Y822D02*
X481Y822D01*
X592Y822D02*
X597Y822D01*
X1566Y822D02*
X1573Y822D01*
X0Y821D02*
X7Y821D01*
X476Y821D02*
X481Y821D01*
X592Y821D02*
X597Y821D01*
X1566Y821D02*
X1573Y821D01*
X0Y820D02*
X7Y820D01*
X476Y820D02*
X481Y820D01*
X592Y820D02*
X597Y820D01*
X1566Y820D02*
X1573Y820D01*
X0Y819D02*
X7Y819D01*
X476Y819D02*
X481Y819D01*
X592Y819D02*
X597Y819D01*
X1566Y819D02*
X1573Y819D01*
X0Y818D02*
X7Y818D01*
X476Y818D02*
X481Y818D01*
X592Y818D02*
X597Y818D01*
X1566Y818D02*
X1573Y818D01*
X0Y817D02*
X7Y817D01*
X476Y817D02*
X481Y817D01*
X592Y817D02*
X597Y817D01*
X1566Y817D02*
X1573Y817D01*
X0Y816D02*
X7Y816D01*
X476Y816D02*
X481Y816D01*
X592Y816D02*
X597Y816D01*
X1566Y816D02*
X1573Y816D01*
X0Y815D02*
X7Y815D01*
X476Y815D02*
X481Y815D01*
X592Y815D02*
X597Y815D01*
X1566Y815D02*
X1573Y815D01*
X0Y814D02*
X7Y814D01*
X476Y814D02*
X481Y814D01*
X592Y814D02*
X597Y814D01*
X1566Y814D02*
X1573Y814D01*
X0Y813D02*
X7Y813D01*
X476Y813D02*
X481Y813D01*
X592Y813D02*
X597Y813D01*
X1566Y813D02*
X1573Y813D01*
X0Y812D02*
X7Y812D01*
X476Y812D02*
X481Y812D01*
X592Y812D02*
X597Y812D01*
X1566Y812D02*
X1573Y812D01*
X0Y811D02*
X7Y811D01*
X476Y811D02*
X481Y811D01*
X592Y811D02*
X597Y811D01*
X1566Y811D02*
X1573Y811D01*
X0Y810D02*
X7Y810D01*
X476Y810D02*
X481Y810D01*
X592Y810D02*
X597Y810D01*
X1566Y810D02*
X1573Y810D01*
X0Y809D02*
X7Y809D01*
X476Y809D02*
X481Y809D01*
X592Y809D02*
X597Y809D01*
X1566Y809D02*
X1573Y809D01*
X0Y808D02*
X7Y808D01*
X476Y808D02*
X481Y808D01*
X592Y808D02*
X597Y808D01*
X1566Y808D02*
X1573Y808D01*
X0Y807D02*
X7Y807D01*
X476Y807D02*
X481Y807D01*
X592Y807D02*
X597Y807D01*
X1566Y807D02*
X1573Y807D01*
X0Y806D02*
X7Y806D01*
X476Y806D02*
X481Y806D01*
X592Y806D02*
X597Y806D01*
X1566Y806D02*
X1573Y806D01*
X0Y805D02*
X7Y805D01*
X476Y805D02*
X481Y805D01*
X592Y805D02*
X597Y805D01*
X1566Y805D02*
X1573Y805D01*
X0Y804D02*
X7Y804D01*
X476Y804D02*
X481Y804D01*
X592Y804D02*
X597Y804D01*
X1566Y804D02*
X1573Y804D01*
X0Y803D02*
X7Y803D01*
X476Y803D02*
X481Y803D01*
X592Y803D02*
X597Y803D01*
X1566Y803D02*
X1573Y803D01*
X0Y802D02*
X7Y802D01*
X476Y802D02*
X481Y802D01*
X592Y802D02*
X597Y802D01*
X1566Y802D02*
X1573Y802D01*
X0Y801D02*
X7Y801D01*
X476Y801D02*
X481Y801D01*
X592Y801D02*
X597Y801D01*
X1566Y801D02*
X1573Y801D01*
X0Y800D02*
X7Y800D01*
X476Y800D02*
X481Y800D01*
X592Y800D02*
X597Y800D01*
X1566Y800D02*
X1573Y800D01*
X0Y799D02*
X7Y799D01*
X476Y799D02*
X481Y799D01*
X592Y799D02*
X597Y799D01*
X1566Y799D02*
X1573Y799D01*
X0Y798D02*
X7Y798D01*
X476Y798D02*
X481Y798D01*
X592Y798D02*
X597Y798D01*
X1566Y798D02*
X1573Y798D01*
X0Y797D02*
X7Y797D01*
X476Y797D02*
X481Y797D01*
X592Y797D02*
X597Y797D01*
X1566Y797D02*
X1573Y797D01*
X0Y796D02*
X7Y796D01*
X476Y796D02*
X481Y796D01*
X592Y796D02*
X597Y796D01*
X1566Y796D02*
X1573Y796D01*
X0Y795D02*
X7Y795D01*
X476Y795D02*
X481Y795D01*
X592Y795D02*
X597Y795D01*
X1566Y795D02*
X1573Y795D01*
X0Y794D02*
X7Y794D01*
X476Y794D02*
X481Y794D01*
X592Y794D02*
X597Y794D01*
X1566Y794D02*
X1573Y794D01*
X0Y793D02*
X7Y793D01*
X476Y793D02*
X481Y793D01*
X592Y793D02*
X597Y793D01*
X1566Y793D02*
X1573Y793D01*
X0Y792D02*
X7Y792D01*
X476Y792D02*
X481Y792D01*
X592Y792D02*
X597Y792D01*
X1566Y792D02*
X1573Y792D01*
X0Y791D02*
X7Y791D01*
X476Y791D02*
X481Y791D01*
X592Y791D02*
X597Y791D01*
X1566Y791D02*
X1573Y791D01*
X0Y790D02*
X7Y790D01*
X476Y790D02*
X481Y790D01*
X592Y790D02*
X597Y790D01*
X1566Y790D02*
X1573Y790D01*
X0Y789D02*
X7Y789D01*
X476Y789D02*
X481Y789D01*
X592Y789D02*
X597Y789D01*
X1566Y789D02*
X1573Y789D01*
X0Y788D02*
X7Y788D01*
X476Y788D02*
X481Y788D01*
X592Y788D02*
X597Y788D01*
X1566Y788D02*
X1573Y788D01*
X0Y787D02*
X7Y787D01*
X476Y787D02*
X481Y787D01*
X592Y787D02*
X597Y787D01*
X1566Y787D02*
X1573Y787D01*
X0Y786D02*
X7Y786D01*
X476Y786D02*
X481Y786D01*
X592Y786D02*
X597Y786D01*
X1566Y786D02*
X1573Y786D01*
X0Y785D02*
X7Y785D01*
X476Y785D02*
X481Y785D01*
X592Y785D02*
X597Y785D01*
X1566Y785D02*
X1573Y785D01*
X0Y784D02*
X7Y784D01*
X476Y784D02*
X481Y784D01*
X592Y784D02*
X597Y784D01*
X1566Y784D02*
X1573Y784D01*
X0Y783D02*
X7Y783D01*
X476Y783D02*
X481Y783D01*
X592Y783D02*
X597Y783D01*
X1566Y783D02*
X1573Y783D01*
X0Y782D02*
X7Y782D01*
X476Y782D02*
X481Y782D01*
X592Y782D02*
X597Y782D01*
X1566Y782D02*
X1573Y782D01*
X0Y781D02*
X7Y781D01*
X476Y781D02*
X481Y781D01*
X592Y781D02*
X597Y781D01*
X1566Y781D02*
X1573Y781D01*
X0Y780D02*
X7Y780D01*
X476Y780D02*
X481Y780D01*
X592Y780D02*
X597Y780D01*
X1566Y780D02*
X1573Y780D01*
X0Y779D02*
X7Y779D01*
X476Y779D02*
X481Y779D01*
X592Y779D02*
X597Y779D01*
X1566Y779D02*
X1573Y779D01*
X0Y778D02*
X7Y778D01*
X476Y778D02*
X481Y778D01*
X592Y778D02*
X597Y778D01*
X1566Y778D02*
X1573Y778D01*
X0Y777D02*
X7Y777D01*
X476Y777D02*
X481Y777D01*
X592Y777D02*
X597Y777D01*
X1566Y777D02*
X1573Y777D01*
X0Y776D02*
X7Y776D01*
X476Y776D02*
X481Y776D01*
X592Y776D02*
X597Y776D01*
X1566Y776D02*
X1573Y776D01*
X0Y775D02*
X7Y775D01*
X476Y775D02*
X481Y775D01*
X592Y775D02*
X597Y775D01*
X1566Y775D02*
X1573Y775D01*
X0Y774D02*
X7Y774D01*
X476Y774D02*
X481Y774D01*
X592Y774D02*
X597Y774D01*
X1566Y774D02*
X1573Y774D01*
X0Y773D02*
X7Y773D01*
X476Y773D02*
X481Y773D01*
X592Y773D02*
X597Y773D01*
X1566Y773D02*
X1573Y773D01*
X0Y772D02*
X7Y772D01*
X476Y772D02*
X481Y772D01*
X592Y772D02*
X597Y772D01*
X1566Y772D02*
X1573Y772D01*
X0Y771D02*
X7Y771D01*
X476Y771D02*
X481Y771D01*
X592Y771D02*
X597Y771D01*
X1566Y771D02*
X1573Y771D01*
X0Y770D02*
X7Y770D01*
X476Y770D02*
X481Y770D01*
X592Y770D02*
X597Y770D01*
X1566Y770D02*
X1573Y770D01*
X0Y769D02*
X7Y769D01*
X476Y769D02*
X481Y769D01*
X592Y769D02*
X597Y769D01*
X1566Y769D02*
X1573Y769D01*
X0Y768D02*
X7Y768D01*
X476Y768D02*
X481Y768D01*
X592Y768D02*
X597Y768D01*
X1566Y768D02*
X1573Y768D01*
X0Y767D02*
X7Y767D01*
X476Y767D02*
X481Y767D01*
X592Y767D02*
X597Y767D01*
X1566Y767D02*
X1573Y767D01*
X0Y766D02*
X7Y766D01*
X476Y766D02*
X481Y766D01*
X592Y766D02*
X597Y766D01*
X1566Y766D02*
X1573Y766D01*
X0Y765D02*
X7Y765D01*
X476Y765D02*
X481Y765D01*
X592Y765D02*
X597Y765D01*
X1566Y765D02*
X1573Y765D01*
X0Y764D02*
X7Y764D01*
X476Y764D02*
X481Y764D01*
X592Y764D02*
X597Y764D01*
X1566Y764D02*
X1573Y764D01*
X0Y763D02*
X7Y763D01*
X476Y763D02*
X481Y763D01*
X592Y763D02*
X597Y763D01*
X1566Y763D02*
X1573Y763D01*
X0Y762D02*
X7Y762D01*
X476Y762D02*
X481Y762D01*
X592Y762D02*
X597Y762D01*
X1566Y762D02*
X1573Y762D01*
X0Y761D02*
X7Y761D01*
X476Y761D02*
X481Y761D01*
X592Y761D02*
X597Y761D01*
X1566Y761D02*
X1573Y761D01*
X0Y760D02*
X7Y760D01*
X476Y760D02*
X481Y760D01*
X592Y760D02*
X597Y760D01*
X1566Y760D02*
X1573Y760D01*
X0Y759D02*
X7Y759D01*
X476Y759D02*
X481Y759D01*
X592Y759D02*
X597Y759D01*
X1566Y759D02*
X1573Y759D01*
X0Y758D02*
X7Y758D01*
X476Y758D02*
X481Y758D01*
X592Y758D02*
X597Y758D01*
X1566Y758D02*
X1573Y758D01*
X0Y757D02*
X7Y757D01*
X476Y757D02*
X481Y757D01*
X592Y757D02*
X597Y757D01*
X1566Y757D02*
X1573Y757D01*
X0Y756D02*
X7Y756D01*
X476Y756D02*
X481Y756D01*
X592Y756D02*
X597Y756D01*
X1566Y756D02*
X1573Y756D01*
X0Y755D02*
X7Y755D01*
X476Y755D02*
X481Y755D01*
X592Y755D02*
X597Y755D01*
X1566Y755D02*
X1573Y755D01*
X0Y754D02*
X7Y754D01*
X476Y754D02*
X481Y754D01*
X592Y754D02*
X597Y754D01*
X1566Y754D02*
X1573Y754D01*
X0Y753D02*
X7Y753D01*
X476Y753D02*
X481Y753D01*
X592Y753D02*
X597Y753D01*
X1566Y753D02*
X1573Y753D01*
X0Y752D02*
X7Y752D01*
X476Y752D02*
X481Y752D01*
X592Y752D02*
X597Y752D01*
X1566Y752D02*
X1573Y752D01*
X0Y751D02*
X7Y751D01*
X476Y751D02*
X481Y751D01*
X592Y751D02*
X597Y751D01*
X1566Y751D02*
X1573Y751D01*
X0Y750D02*
X7Y750D01*
X476Y750D02*
X481Y750D01*
X592Y750D02*
X597Y750D01*
X1566Y750D02*
X1573Y750D01*
X0Y749D02*
X7Y749D01*
X476Y749D02*
X481Y749D01*
X592Y749D02*
X597Y749D01*
X1566Y749D02*
X1573Y749D01*
X0Y748D02*
X7Y748D01*
X476Y748D02*
X481Y748D01*
X592Y748D02*
X597Y748D01*
X1566Y748D02*
X1573Y748D01*
X0Y747D02*
X7Y747D01*
X476Y747D02*
X481Y747D01*
X592Y747D02*
X597Y747D01*
X1566Y747D02*
X1573Y747D01*
X0Y746D02*
X7Y746D01*
X476Y746D02*
X481Y746D01*
X592Y746D02*
X597Y746D01*
X1566Y746D02*
X1573Y746D01*
X0Y745D02*
X7Y745D01*
X476Y745D02*
X481Y745D01*
X592Y745D02*
X597Y745D01*
X1566Y745D02*
X1573Y745D01*
X0Y744D02*
X7Y744D01*
X476Y744D02*
X481Y744D01*
X592Y744D02*
X597Y744D01*
X1566Y744D02*
X1573Y744D01*
X0Y743D02*
X7Y743D01*
X476Y743D02*
X481Y743D01*
X592Y743D02*
X597Y743D01*
X1566Y743D02*
X1573Y743D01*
X0Y742D02*
X7Y742D01*
X476Y742D02*
X481Y742D01*
X592Y742D02*
X597Y742D01*
X1566Y742D02*
X1573Y742D01*
X0Y741D02*
X7Y741D01*
X476Y741D02*
X481Y741D01*
X592Y741D02*
X597Y741D01*
X1566Y741D02*
X1573Y741D01*
X0Y740D02*
X7Y740D01*
X476Y740D02*
X481Y740D01*
X592Y740D02*
X597Y740D01*
X1566Y740D02*
X1573Y740D01*
X0Y739D02*
X7Y739D01*
X476Y739D02*
X481Y739D01*
X592Y739D02*
X597Y739D01*
X1566Y739D02*
X1573Y739D01*
X0Y738D02*
X7Y738D01*
X476Y738D02*
X481Y738D01*
X592Y738D02*
X597Y738D01*
X1566Y738D02*
X1573Y738D01*
X0Y737D02*
X7Y737D01*
X476Y737D02*
X481Y737D01*
X592Y737D02*
X597Y737D01*
X1566Y737D02*
X1573Y737D01*
X0Y736D02*
X7Y736D01*
X476Y736D02*
X481Y736D01*
X592Y736D02*
X597Y736D01*
X1566Y736D02*
X1573Y736D01*
X0Y735D02*
X7Y735D01*
X476Y735D02*
X481Y735D01*
X592Y735D02*
X597Y735D01*
X1566Y735D02*
X1573Y735D01*
X0Y734D02*
X7Y734D01*
X476Y734D02*
X481Y734D01*
X592Y734D02*
X597Y734D01*
X1566Y734D02*
X1573Y734D01*
X0Y733D02*
X7Y733D01*
X476Y733D02*
X481Y733D01*
X592Y733D02*
X597Y733D01*
X1566Y733D02*
X1573Y733D01*
X0Y732D02*
X7Y732D01*
X476Y732D02*
X481Y732D01*
X592Y732D02*
X597Y732D01*
X1566Y732D02*
X1573Y732D01*
X0Y731D02*
X7Y731D01*
X476Y731D02*
X481Y731D01*
X592Y731D02*
X597Y731D01*
X1566Y731D02*
X1573Y731D01*
X0Y730D02*
X7Y730D01*
X476Y730D02*
X481Y730D01*
X592Y730D02*
X597Y730D01*
X1566Y730D02*
X1573Y730D01*
X0Y729D02*
X7Y729D01*
X476Y729D02*
X481Y729D01*
X592Y729D02*
X597Y729D01*
X1566Y729D02*
X1573Y729D01*
X0Y728D02*
X7Y728D01*
X476Y728D02*
X481Y728D01*
X592Y728D02*
X597Y728D01*
X1566Y728D02*
X1573Y728D01*
X0Y727D02*
X7Y727D01*
X476Y727D02*
X481Y727D01*
X592Y727D02*
X597Y727D01*
X1566Y727D02*
X1573Y727D01*
X0Y726D02*
X7Y726D01*
X476Y726D02*
X481Y726D01*
X592Y726D02*
X597Y726D01*
X1566Y726D02*
X1573Y726D01*
X0Y725D02*
X7Y725D01*
X476Y725D02*
X481Y725D01*
X592Y725D02*
X597Y725D01*
X1566Y725D02*
X1573Y725D01*
X0Y724D02*
X7Y724D01*
X476Y724D02*
X481Y724D01*
X592Y724D02*
X597Y724D01*
X1566Y724D02*
X1573Y724D01*
X0Y723D02*
X7Y723D01*
X476Y723D02*
X481Y723D01*
X592Y723D02*
X597Y723D01*
X1566Y723D02*
X1573Y723D01*
X0Y722D02*
X7Y722D01*
X476Y722D02*
X481Y722D01*
X592Y722D02*
X597Y722D01*
X1566Y722D02*
X1573Y722D01*
X0Y721D02*
X7Y721D01*
X476Y721D02*
X481Y721D01*
X592Y721D02*
X597Y721D01*
X1566Y721D02*
X1573Y721D01*
X0Y720D02*
X7Y720D01*
X476Y720D02*
X481Y720D01*
X592Y720D02*
X597Y720D01*
X1566Y720D02*
X1573Y720D01*
X0Y719D02*
X7Y719D01*
X476Y719D02*
X481Y719D01*
X592Y719D02*
X597Y719D01*
X1566Y719D02*
X1573Y719D01*
X0Y718D02*
X7Y718D01*
X476Y718D02*
X481Y718D01*
X592Y718D02*
X597Y718D01*
X1566Y718D02*
X1573Y718D01*
X0Y717D02*
X7Y717D01*
X476Y717D02*
X481Y717D01*
X592Y717D02*
X597Y717D01*
X1566Y717D02*
X1573Y717D01*
X0Y716D02*
X7Y716D01*
X476Y716D02*
X481Y716D01*
X592Y716D02*
X597Y716D01*
X1566Y716D02*
X1573Y716D01*
X0Y715D02*
X7Y715D01*
X476Y715D02*
X481Y715D01*
X592Y715D02*
X597Y715D01*
X1566Y715D02*
X1573Y715D01*
X0Y714D02*
X7Y714D01*
X476Y714D02*
X481Y714D01*
X592Y714D02*
X597Y714D01*
X1566Y714D02*
X1573Y714D01*
X0Y713D02*
X7Y713D01*
X476Y713D02*
X481Y713D01*
X592Y713D02*
X597Y713D01*
X1566Y713D02*
X1573Y713D01*
X0Y712D02*
X7Y712D01*
X476Y712D02*
X481Y712D01*
X592Y712D02*
X597Y712D01*
X1566Y712D02*
X1573Y712D01*
X0Y711D02*
X7Y711D01*
X476Y711D02*
X481Y711D01*
X592Y711D02*
X597Y711D01*
X1566Y711D02*
X1573Y711D01*
X0Y710D02*
X7Y710D01*
X476Y710D02*
X481Y710D01*
X592Y710D02*
X597Y710D01*
X1566Y710D02*
X1573Y710D01*
X0Y709D02*
X7Y709D01*
X476Y709D02*
X481Y709D01*
X592Y709D02*
X597Y709D01*
X1566Y709D02*
X1573Y709D01*
X0Y708D02*
X7Y708D01*
X476Y708D02*
X481Y708D01*
X592Y708D02*
X597Y708D01*
X1566Y708D02*
X1573Y708D01*
X0Y707D02*
X7Y707D01*
X476Y707D02*
X481Y707D01*
X592Y707D02*
X597Y707D01*
X1566Y707D02*
X1573Y707D01*
X0Y706D02*
X7Y706D01*
X476Y706D02*
X481Y706D01*
X592Y706D02*
X597Y706D01*
X1566Y706D02*
X1573Y706D01*
X0Y705D02*
X7Y705D01*
X476Y705D02*
X481Y705D01*
X592Y705D02*
X597Y705D01*
X1566Y705D02*
X1573Y705D01*
X0Y704D02*
X7Y704D01*
X476Y704D02*
X481Y704D01*
X592Y704D02*
X597Y704D01*
X1566Y704D02*
X1573Y704D01*
X0Y703D02*
X7Y703D01*
X476Y703D02*
X481Y703D01*
X592Y703D02*
X597Y703D01*
X1566Y703D02*
X1573Y703D01*
X0Y702D02*
X7Y702D01*
X476Y702D02*
X481Y702D01*
X592Y702D02*
X597Y702D01*
X1566Y702D02*
X1573Y702D01*
X0Y701D02*
X7Y701D01*
X476Y701D02*
X481Y701D01*
X592Y701D02*
X597Y701D01*
X1566Y701D02*
X1573Y701D01*
X0Y700D02*
X7Y700D01*
X476Y700D02*
X481Y700D01*
X592Y700D02*
X597Y700D01*
X1566Y700D02*
X1573Y700D01*
X0Y699D02*
X7Y699D01*
X476Y699D02*
X481Y699D01*
X592Y699D02*
X597Y699D01*
X1566Y699D02*
X1573Y699D01*
X0Y698D02*
X7Y698D01*
X476Y698D02*
X481Y698D01*
X592Y698D02*
X597Y698D01*
X1566Y698D02*
X1573Y698D01*
X0Y697D02*
X7Y697D01*
X476Y697D02*
X481Y697D01*
X592Y697D02*
X597Y697D01*
X1566Y697D02*
X1573Y697D01*
X0Y696D02*
X7Y696D01*
X476Y696D02*
X481Y696D01*
X592Y696D02*
X597Y696D01*
X1566Y696D02*
X1573Y696D01*
X0Y695D02*
X7Y695D01*
X476Y695D02*
X481Y695D01*
X592Y695D02*
X597Y695D01*
X1566Y695D02*
X1573Y695D01*
X0Y694D02*
X7Y694D01*
X476Y694D02*
X481Y694D01*
X592Y694D02*
X597Y694D01*
X1566Y694D02*
X1573Y694D01*
X0Y693D02*
X7Y693D01*
X476Y693D02*
X481Y693D01*
X592Y693D02*
X597Y693D01*
X1566Y693D02*
X1573Y693D01*
X0Y692D02*
X7Y692D01*
X476Y692D02*
X481Y692D01*
X592Y692D02*
X597Y692D01*
X1566Y692D02*
X1573Y692D01*
X0Y691D02*
X7Y691D01*
X476Y691D02*
X481Y691D01*
X592Y691D02*
X597Y691D01*
X1566Y691D02*
X1573Y691D01*
X0Y690D02*
X7Y690D01*
X476Y690D02*
X481Y690D01*
X592Y690D02*
X597Y690D01*
X1566Y690D02*
X1573Y690D01*
X0Y689D02*
X7Y689D01*
X476Y689D02*
X481Y689D01*
X592Y689D02*
X597Y689D01*
X1566Y689D02*
X1573Y689D01*
X0Y688D02*
X7Y688D01*
X476Y688D02*
X481Y688D01*
X592Y688D02*
X597Y688D01*
X1566Y688D02*
X1573Y688D01*
X0Y687D02*
X7Y687D01*
X476Y687D02*
X481Y687D01*
X592Y687D02*
X597Y687D01*
X1566Y687D02*
X1573Y687D01*
X0Y686D02*
X7Y686D01*
X476Y686D02*
X481Y686D01*
X592Y686D02*
X597Y686D01*
X1566Y686D02*
X1573Y686D01*
X0Y685D02*
X7Y685D01*
X476Y685D02*
X481Y685D01*
X592Y685D02*
X597Y685D01*
X1566Y685D02*
X1573Y685D01*
X0Y684D02*
X7Y684D01*
X1566Y684D02*
X1573Y684D01*
X0Y683D02*
X7Y683D01*
X1566Y683D02*
X1573Y683D01*
X0Y682D02*
X7Y682D01*
X1566Y682D02*
X1573Y682D01*
X0Y681D02*
X7Y681D01*
X1566Y681D02*
X1573Y681D01*
X0Y680D02*
X7Y680D01*
X1566Y680D02*
X1573Y680D01*
X0Y679D02*
X7Y679D01*
X1566Y679D02*
X1573Y679D01*
X0Y678D02*
X7Y678D01*
X1566Y678D02*
X1573Y678D01*
X0Y677D02*
X7Y677D01*
X1566Y677D02*
X1573Y677D01*
X0Y676D02*
X7Y676D01*
X1566Y676D02*
X1573Y676D01*
X0Y675D02*
X7Y675D01*
X1566Y675D02*
X1573Y675D01*
X0Y674D02*
X7Y674D01*
X1566Y674D02*
X1573Y674D01*
X0Y673D02*
X7Y673D01*
X1566Y673D02*
X1573Y673D01*
X0Y672D02*
X7Y672D01*
X1566Y672D02*
X1573Y672D01*
X0Y671D02*
X7Y671D01*
X1566Y671D02*
X1573Y671D01*
X0Y670D02*
X7Y670D01*
X1566Y670D02*
X1573Y670D01*
X0Y669D02*
X7Y669D01*
X1566Y669D02*
X1573Y669D01*
X0Y668D02*
X7Y668D01*
X1566Y668D02*
X1573Y668D01*
X0Y667D02*
X7Y667D01*
X1566Y667D02*
X1573Y667D01*
X0Y666D02*
X7Y666D01*
X1566Y666D02*
X1573Y666D01*
X0Y665D02*
X7Y665D01*
X1566Y665D02*
X1573Y665D01*
X0Y664D02*
X7Y664D01*
X1566Y664D02*
X1573Y664D01*
X0Y663D02*
X7Y663D01*
X1566Y663D02*
X1573Y663D01*
X0Y662D02*
X7Y662D01*
X1566Y662D02*
X1573Y662D01*
X0Y661D02*
X7Y661D01*
X1566Y661D02*
X1573Y661D01*
X0Y660D02*
X7Y660D01*
X1566Y660D02*
X1573Y660D01*
X0Y659D02*
X7Y659D01*
X1566Y659D02*
X1573Y659D01*
X0Y658D02*
X7Y658D01*
X1566Y658D02*
X1573Y658D01*
X0Y657D02*
X7Y657D01*
X1566Y657D02*
X1573Y657D01*
X0Y656D02*
X7Y656D01*
X1566Y656D02*
X1573Y656D01*
X0Y655D02*
X7Y655D01*
X1566Y655D02*
X1573Y655D01*
X0Y654D02*
X7Y654D01*
X1566Y654D02*
X1573Y654D01*
X0Y653D02*
X7Y653D01*
X1566Y653D02*
X1573Y653D01*
X0Y652D02*
X7Y652D01*
X1566Y652D02*
X1573Y652D01*
X0Y651D02*
X7Y651D01*
X1566Y651D02*
X1573Y651D01*
X0Y650D02*
X7Y650D01*
X1566Y650D02*
X1573Y650D01*
X0Y649D02*
X7Y649D01*
X1566Y649D02*
X1573Y649D01*
X0Y648D02*
X7Y648D01*
X1566Y648D02*
X1573Y648D01*
X0Y647D02*
X7Y647D01*
X1566Y647D02*
X1573Y647D01*
X0Y646D02*
X7Y646D01*
X1566Y646D02*
X1573Y646D01*
X0Y645D02*
X7Y645D01*
X1566Y645D02*
X1573Y645D01*
X0Y644D02*
X7Y644D01*
X1566Y644D02*
X1573Y644D01*
X0Y643D02*
X7Y643D01*
X1566Y643D02*
X1573Y643D01*
X0Y642D02*
X7Y642D01*
X1566Y642D02*
X1573Y642D01*
X0Y641D02*
X7Y641D01*
X1566Y641D02*
X1573Y641D01*
X0Y640D02*
X7Y640D01*
X1566Y640D02*
X1573Y640D01*
X0Y639D02*
X7Y639D01*
X1566Y639D02*
X1573Y639D01*
X0Y638D02*
X7Y638D01*
X1566Y638D02*
X1573Y638D01*
X0Y637D02*
X7Y637D01*
X1566Y637D02*
X1573Y637D01*
X0Y636D02*
X7Y636D01*
X1566Y636D02*
X1573Y636D01*
X0Y635D02*
X7Y635D01*
X1566Y635D02*
X1573Y635D01*
X0Y634D02*
X7Y634D01*
X1566Y634D02*
X1573Y634D01*
X0Y633D02*
X7Y633D01*
X1566Y633D02*
X1573Y633D01*
X0Y632D02*
X7Y632D01*
X1566Y632D02*
X1573Y632D01*
X0Y631D02*
X7Y631D01*
X1566Y631D02*
X1573Y631D01*
X0Y630D02*
X7Y630D01*
X1566Y630D02*
X1573Y630D01*
X0Y629D02*
X7Y629D01*
X1566Y629D02*
X1573Y629D01*
X0Y628D02*
X7Y628D01*
X1566Y628D02*
X1573Y628D01*
X0Y627D02*
X7Y627D01*
X1566Y627D02*
X1573Y627D01*
X0Y626D02*
X7Y626D01*
X1566Y626D02*
X1573Y626D01*
X0Y625D02*
X7Y625D01*
X1566Y625D02*
X1573Y625D01*
X0Y624D02*
X7Y624D01*
X1566Y624D02*
X1573Y624D01*
X0Y623D02*
X7Y623D01*
X1566Y623D02*
X1573Y623D01*
X0Y622D02*
X7Y622D01*
X1566Y622D02*
X1573Y622D01*
X0Y621D02*
X7Y621D01*
X1566Y621D02*
X1573Y621D01*
X0Y620D02*
X7Y620D01*
X1566Y620D02*
X1573Y620D01*
X0Y619D02*
X7Y619D01*
X1566Y619D02*
X1573Y619D01*
X0Y618D02*
X7Y618D01*
X1566Y618D02*
X1573Y618D01*
X0Y617D02*
X7Y617D01*
X1566Y617D02*
X1573Y617D01*
X0Y616D02*
X7Y616D01*
X1566Y616D02*
X1573Y616D01*
X0Y615D02*
X7Y615D01*
X1566Y615D02*
X1573Y615D01*
X0Y614D02*
X7Y614D01*
X1566Y614D02*
X1573Y614D01*
X0Y613D02*
X7Y613D01*
X1566Y613D02*
X1573Y613D01*
X0Y612D02*
X7Y612D01*
X1566Y612D02*
X1573Y612D01*
X0Y611D02*
X7Y611D01*
X1566Y611D02*
X1573Y611D01*
X0Y610D02*
X7Y610D01*
X1566Y610D02*
X1573Y610D01*
X0Y609D02*
X7Y609D01*
X1566Y609D02*
X1573Y609D01*
X0Y608D02*
X7Y608D01*
X1566Y608D02*
X1573Y608D01*
X0Y607D02*
X7Y607D01*
X1566Y607D02*
X1573Y607D01*
X0Y606D02*
X7Y606D01*
X1566Y606D02*
X1573Y606D01*
X0Y605D02*
X7Y605D01*
X1566Y605D02*
X1573Y605D01*
X0Y604D02*
X7Y604D01*
X1566Y604D02*
X1573Y604D01*
X0Y603D02*
X7Y603D01*
X1566Y603D02*
X1573Y603D01*
X0Y602D02*
X7Y602D01*
X1566Y602D02*
X1573Y602D01*
X0Y601D02*
X7Y601D01*
X1566Y601D02*
X1573Y601D01*
X0Y600D02*
X7Y600D01*
X1566Y600D02*
X1573Y600D01*
X0Y599D02*
X7Y599D01*
X1566Y599D02*
X1573Y599D01*
X0Y598D02*
X7Y598D01*
X1566Y598D02*
X1573Y598D01*
X0Y597D02*
X7Y597D01*
X1566Y597D02*
X1573Y597D01*
X0Y596D02*
X7Y596D01*
X1566Y596D02*
X1573Y596D01*
X0Y595D02*
X7Y595D01*
X1566Y595D02*
X1573Y595D01*
X0Y594D02*
X7Y594D01*
X1566Y594D02*
X1573Y594D01*
X0Y593D02*
X7Y593D01*
X1566Y593D02*
X1573Y593D01*
X0Y592D02*
X7Y592D01*
X1566Y592D02*
X1573Y592D01*
X0Y591D02*
X7Y591D01*
X1566Y591D02*
X1573Y591D01*
X0Y590D02*
X7Y590D01*
X1566Y590D02*
X1573Y590D01*
X0Y589D02*
X7Y589D01*
X1566Y589D02*
X1573Y589D01*
X0Y588D02*
X7Y588D01*
X1566Y588D02*
X1573Y588D01*
X0Y587D02*
X7Y587D01*
X1566Y587D02*
X1573Y587D01*
X0Y586D02*
X7Y586D01*
X1566Y586D02*
X1573Y586D01*
X0Y585D02*
X7Y585D01*
X1566Y585D02*
X1573Y585D01*
X0Y584D02*
X7Y584D01*
X1566Y584D02*
X1573Y584D01*
X0Y583D02*
X7Y583D01*
X1566Y583D02*
X1573Y583D01*
X0Y582D02*
X7Y582D01*
X1566Y582D02*
X1573Y582D01*
X0Y581D02*
X7Y581D01*
X1566Y581D02*
X1573Y581D01*
X0Y580D02*
X7Y580D01*
X1566Y580D02*
X1573Y580D01*
X0Y579D02*
X7Y579D01*
X1566Y579D02*
X1573Y579D01*
X0Y578D02*
X7Y578D01*
X1566Y578D02*
X1573Y578D01*
X0Y577D02*
X7Y577D01*
X1566Y577D02*
X1573Y577D01*
X0Y576D02*
X7Y576D01*
X1566Y576D02*
X1573Y576D01*
X0Y575D02*
X7Y575D01*
X1566Y575D02*
X1573Y575D01*
X0Y574D02*
X7Y574D01*
X1566Y574D02*
X1573Y574D01*
X0Y573D02*
X7Y573D01*
X1566Y573D02*
X1573Y573D01*
X0Y572D02*
X7Y572D01*
X1566Y572D02*
X1573Y572D01*
X0Y571D02*
X7Y571D01*
X1566Y571D02*
X1573Y571D01*
X0Y570D02*
X7Y570D01*
X1566Y570D02*
X1573Y570D01*
X0Y569D02*
X7Y569D01*
X1566Y569D02*
X1573Y569D01*
X0Y568D02*
X7Y568D01*
X1566Y568D02*
X1573Y568D01*
X0Y567D02*
X7Y567D01*
X1566Y567D02*
X1573Y567D01*
X0Y566D02*
X7Y566D01*
X1566Y566D02*
X1573Y566D01*
X0Y565D02*
X7Y565D01*
X1566Y565D02*
X1573Y565D01*
X0Y564D02*
X7Y564D01*
X1566Y564D02*
X1573Y564D01*
X0Y563D02*
X7Y563D01*
X1566Y563D02*
X1573Y563D01*
X0Y562D02*
X7Y562D01*
X1566Y562D02*
X1573Y562D01*
X0Y561D02*
X7Y561D01*
X1566Y561D02*
X1573Y561D01*
X0Y560D02*
X7Y560D01*
X1566Y560D02*
X1573Y560D01*
X0Y559D02*
X7Y559D01*
X1566Y559D02*
X1573Y559D01*
X0Y558D02*
X7Y558D01*
X1566Y558D02*
X1573Y558D01*
X0Y557D02*
X7Y557D01*
X1566Y557D02*
X1573Y557D01*
X0Y556D02*
X7Y556D01*
X1566Y556D02*
X1573Y556D01*
X0Y555D02*
X7Y555D01*
X1566Y555D02*
X1573Y555D01*
X0Y554D02*
X7Y554D01*
X1566Y554D02*
X1573Y554D01*
X0Y553D02*
X7Y553D01*
X1566Y553D02*
X1573Y553D01*
X0Y552D02*
X7Y552D01*
X1566Y552D02*
X1573Y552D01*
X0Y551D02*
X7Y551D01*
X1566Y551D02*
X1573Y551D01*
X0Y550D02*
X7Y550D01*
X1566Y550D02*
X1573Y550D01*
X0Y549D02*
X7Y549D01*
X1566Y549D02*
X1573Y549D01*
X0Y548D02*
X7Y548D01*
X1566Y548D02*
X1573Y548D01*
X0Y547D02*
X7Y547D01*
X1566Y547D02*
X1573Y547D01*
X0Y546D02*
X7Y546D01*
X1566Y546D02*
X1573Y546D01*
X0Y545D02*
X7Y545D01*
X1566Y545D02*
X1573Y545D01*
X0Y544D02*
X7Y544D01*
X1566Y544D02*
X1573Y544D01*
X0Y543D02*
X7Y543D01*
X1566Y543D02*
X1573Y543D01*
X0Y542D02*
X7Y542D01*
X1566Y542D02*
X1573Y542D01*
X0Y541D02*
X7Y541D01*
X1566Y541D02*
X1573Y541D01*
X0Y540D02*
X7Y540D01*
X1566Y540D02*
X1573Y540D01*
X0Y539D02*
X7Y539D01*
X1566Y539D02*
X1573Y539D01*
X0Y538D02*
X7Y538D01*
X1566Y538D02*
X1573Y538D01*
X0Y537D02*
X7Y537D01*
X1566Y537D02*
X1573Y537D01*
X0Y536D02*
X7Y536D01*
X1566Y536D02*
X1573Y536D01*
X0Y535D02*
X7Y535D01*
X1566Y535D02*
X1573Y535D01*
X0Y534D02*
X7Y534D01*
X1566Y534D02*
X1573Y534D01*
X0Y533D02*
X7Y533D01*
X1566Y533D02*
X1573Y533D01*
X0Y532D02*
X7Y532D01*
X1566Y532D02*
X1573Y532D01*
X0Y531D02*
X7Y531D01*
X1566Y531D02*
X1573Y531D01*
X0Y530D02*
X7Y530D01*
X1566Y530D02*
X1573Y530D01*
X0Y529D02*
X7Y529D01*
X1566Y529D02*
X1573Y529D01*
X0Y528D02*
X7Y528D01*
X1566Y528D02*
X1573Y528D01*
X0Y527D02*
X7Y527D01*
X1566Y527D02*
X1573Y527D01*
X0Y526D02*
X7Y526D01*
X1566Y526D02*
X1573Y526D01*
X0Y525D02*
X7Y525D01*
X1566Y525D02*
X1573Y525D01*
X0Y524D02*
X7Y524D01*
X1566Y524D02*
X1573Y524D01*
X0Y523D02*
X7Y523D01*
X1566Y523D02*
X1573Y523D01*
X0Y522D02*
X7Y522D01*
X1566Y522D02*
X1573Y522D01*
X0Y521D02*
X7Y521D01*
X1566Y521D02*
X1573Y521D01*
X0Y520D02*
X7Y520D01*
X1566Y520D02*
X1573Y520D01*
X0Y519D02*
X7Y519D01*
X1566Y519D02*
X1573Y519D01*
X0Y518D02*
X7Y518D01*
X1566Y518D02*
X1573Y518D01*
X0Y517D02*
X7Y517D01*
X1566Y517D02*
X1573Y517D01*
X0Y516D02*
X7Y516D01*
X1566Y516D02*
X1573Y516D01*
X0Y515D02*
X7Y515D01*
X1566Y515D02*
X1573Y515D01*
X0Y514D02*
X7Y514D01*
X1566Y514D02*
X1573Y514D01*
X0Y513D02*
X7Y513D01*
X1566Y513D02*
X1573Y513D01*
X0Y512D02*
X7Y512D01*
X1566Y512D02*
X1573Y512D01*
X0Y511D02*
X7Y511D01*
X1566Y511D02*
X1573Y511D01*
X0Y510D02*
X7Y510D01*
X1566Y510D02*
X1573Y510D01*
X0Y509D02*
X7Y509D01*
X1566Y509D02*
X1573Y509D01*
X0Y508D02*
X7Y508D01*
X1566Y508D02*
X1573Y508D01*
X0Y507D02*
X7Y507D01*
X1566Y507D02*
X1573Y507D01*
X0Y506D02*
X7Y506D01*
X1566Y506D02*
X1573Y506D01*
X0Y505D02*
X7Y505D01*
X1566Y505D02*
X1573Y505D01*
X0Y504D02*
X7Y504D01*
X1566Y504D02*
X1573Y504D01*
X0Y503D02*
X7Y503D01*
X1566Y503D02*
X1573Y503D01*
X0Y502D02*
X7Y502D01*
X1566Y502D02*
X1573Y502D01*
X0Y501D02*
X7Y501D01*
X1566Y501D02*
X1573Y501D01*
X0Y500D02*
X7Y500D01*
X1566Y500D02*
X1573Y500D01*
X0Y499D02*
X7Y499D01*
X1566Y499D02*
X1573Y499D01*
X0Y498D02*
X7Y498D01*
X1566Y498D02*
X1573Y498D01*
X0Y497D02*
X7Y497D01*
X1566Y497D02*
X1573Y497D01*
X0Y496D02*
X7Y496D01*
X1566Y496D02*
X1573Y496D01*
X0Y495D02*
X7Y495D01*
X1566Y495D02*
X1573Y495D01*
X0Y494D02*
X7Y494D01*
X1566Y494D02*
X1573Y494D01*
X0Y493D02*
X7Y493D01*
X1566Y493D02*
X1573Y493D01*
X0Y492D02*
X7Y492D01*
X1566Y492D02*
X1573Y492D01*
X0Y491D02*
X7Y491D01*
X1566Y491D02*
X1573Y491D01*
X0Y490D02*
X7Y490D01*
X1566Y490D02*
X1573Y490D01*
X0Y489D02*
X7Y489D01*
X1566Y489D02*
X1573Y489D01*
X0Y488D02*
X7Y488D01*
X1566Y488D02*
X1573Y488D01*
X0Y487D02*
X7Y487D01*
X1566Y487D02*
X1573Y487D01*
X0Y486D02*
X7Y486D01*
X1566Y486D02*
X1573Y486D01*
X0Y485D02*
X7Y485D01*
X1566Y485D02*
X1573Y485D01*
X0Y484D02*
X7Y484D01*
X1566Y484D02*
X1573Y484D01*
X0Y483D02*
X7Y483D01*
X1566Y483D02*
X1573Y483D01*
X0Y482D02*
X7Y482D01*
X1566Y482D02*
X1573Y482D01*
X0Y481D02*
X7Y481D01*
X1566Y481D02*
X1573Y481D01*
X0Y480D02*
X7Y480D01*
X1566Y480D02*
X1573Y480D01*
X0Y479D02*
X7Y479D01*
X1566Y479D02*
X1573Y479D01*
X0Y478D02*
X7Y478D01*
X1566Y478D02*
X1573Y478D01*
X0Y477D02*
X7Y477D01*
X1566Y477D02*
X1573Y477D01*
X0Y476D02*
X7Y476D01*
X1566Y476D02*
X1573Y476D01*
X0Y475D02*
X7Y475D01*
X1566Y475D02*
X1573Y475D01*
X0Y474D02*
X7Y474D01*
X1566Y474D02*
X1573Y474D01*
X0Y473D02*
X7Y473D01*
X1566Y473D02*
X1573Y473D01*
X0Y472D02*
X7Y472D01*
X1566Y472D02*
X1573Y472D01*
X0Y471D02*
X7Y471D01*
X1566Y471D02*
X1573Y471D01*
X0Y470D02*
X7Y470D01*
X1566Y470D02*
X1573Y470D01*
X0Y469D02*
X7Y469D01*
X1566Y469D02*
X1573Y469D01*
X0Y468D02*
X7Y468D01*
X1566Y468D02*
X1573Y468D01*
X0Y467D02*
X7Y467D01*
X1566Y467D02*
X1573Y467D01*
X0Y466D02*
X7Y466D01*
X1566Y466D02*
X1573Y466D01*
X0Y465D02*
X7Y465D01*
X1566Y465D02*
X1573Y465D01*
X0Y464D02*
X7Y464D01*
X1566Y464D02*
X1573Y464D01*
X0Y463D02*
X7Y463D01*
X1566Y463D02*
X1573Y463D01*
X0Y462D02*
X7Y462D01*
X1566Y462D02*
X1573Y462D01*
X0Y461D02*
X7Y461D01*
X1566Y461D02*
X1573Y461D01*
X0Y460D02*
X7Y460D01*
X1566Y460D02*
X1573Y460D01*
X0Y459D02*
X7Y459D01*
X1566Y459D02*
X1573Y459D01*
X0Y458D02*
X7Y458D01*
X1566Y458D02*
X1573Y458D01*
X0Y457D02*
X7Y457D01*
X1566Y457D02*
X1573Y457D01*
X0Y456D02*
X7Y456D01*
X1566Y456D02*
X1573Y456D01*
X0Y455D02*
X7Y455D01*
X1566Y455D02*
X1573Y455D01*
X0Y454D02*
X7Y454D01*
X1566Y454D02*
X1573Y454D01*
X0Y453D02*
X7Y453D01*
X1566Y453D02*
X1573Y453D01*
X0Y452D02*
X7Y452D01*
X1566Y452D02*
X1573Y452D01*
X0Y451D02*
X7Y451D01*
X1566Y451D02*
X1573Y451D01*
X0Y450D02*
X7Y450D01*
X1566Y450D02*
X1573Y450D01*
X0Y449D02*
X7Y449D01*
X1566Y449D02*
X1573Y449D01*
X0Y448D02*
X7Y448D01*
X1566Y448D02*
X1573Y448D01*
X0Y447D02*
X7Y447D01*
X1566Y447D02*
X1573Y447D01*
X0Y446D02*
X7Y446D01*
X1566Y446D02*
X1573Y446D01*
X0Y445D02*
X7Y445D01*
X1566Y445D02*
X1573Y445D01*
X0Y444D02*
X7Y444D01*
X1566Y444D02*
X1573Y444D01*
X0Y443D02*
X7Y443D01*
X1566Y443D02*
X1573Y443D01*
X0Y442D02*
X7Y442D01*
X1566Y442D02*
X1573Y442D01*
X0Y441D02*
X7Y441D01*
X1566Y441D02*
X1573Y441D01*
X0Y440D02*
X7Y440D01*
X1566Y440D02*
X1573Y440D01*
X0Y439D02*
X7Y439D01*
X1566Y439D02*
X1573Y439D01*
X0Y438D02*
X7Y438D01*
X1566Y438D02*
X1573Y438D01*
X0Y437D02*
X7Y437D01*
X1566Y437D02*
X1573Y437D01*
X0Y436D02*
X7Y436D01*
X1566Y436D02*
X1573Y436D01*
X0Y435D02*
X7Y435D01*
X1566Y435D02*
X1573Y435D01*
X0Y434D02*
X7Y434D01*
X1566Y434D02*
X1573Y434D01*
X0Y433D02*
X7Y433D01*
X1566Y433D02*
X1573Y433D01*
X0Y432D02*
X7Y432D01*
X1566Y432D02*
X1573Y432D01*
X0Y431D02*
X7Y431D01*
X1566Y431D02*
X1573Y431D01*
X0Y430D02*
X7Y430D01*
X1566Y430D02*
X1573Y430D01*
X0Y429D02*
X7Y429D01*
X1566Y429D02*
X1573Y429D01*
X0Y428D02*
X7Y428D01*
X1566Y428D02*
X1573Y428D01*
X0Y427D02*
X7Y427D01*
X1566Y427D02*
X1573Y427D01*
X0Y426D02*
X7Y426D01*
X1566Y426D02*
X1573Y426D01*
X0Y425D02*
X7Y425D01*
X1566Y425D02*
X1573Y425D01*
X0Y424D02*
X7Y424D01*
X1566Y424D02*
X1573Y424D01*
X0Y423D02*
X7Y423D01*
X1566Y423D02*
X1573Y423D01*
X0Y422D02*
X7Y422D01*
X1566Y422D02*
X1573Y422D01*
X0Y421D02*
X7Y421D01*
X1566Y421D02*
X1573Y421D01*
X0Y420D02*
X7Y420D01*
X1566Y420D02*
X1573Y420D01*
X0Y419D02*
X7Y419D01*
X1566Y419D02*
X1573Y419D01*
X0Y418D02*
X7Y418D01*
X1566Y418D02*
X1573Y418D01*
X0Y417D02*
X7Y417D01*
X1566Y417D02*
X1573Y417D01*
X0Y416D02*
X7Y416D01*
X1566Y416D02*
X1573Y416D01*
X0Y415D02*
X7Y415D01*
X1566Y415D02*
X1573Y415D01*
X0Y414D02*
X7Y414D01*
X1566Y414D02*
X1573Y414D01*
X0Y413D02*
X7Y413D01*
X1566Y413D02*
X1573Y413D01*
X0Y412D02*
X7Y412D01*
X1566Y412D02*
X1573Y412D01*
X0Y411D02*
X7Y411D01*
X1566Y411D02*
X1573Y411D01*
X0Y410D02*
X7Y410D01*
X1566Y410D02*
X1573Y410D01*
X0Y409D02*
X7Y409D01*
X1566Y409D02*
X1573Y409D01*
X0Y408D02*
X7Y408D01*
X1566Y408D02*
X1573Y408D01*
X0Y407D02*
X7Y407D01*
X1566Y407D02*
X1573Y407D01*
X0Y406D02*
X7Y406D01*
X1566Y406D02*
X1573Y406D01*
X0Y405D02*
X7Y405D01*
X1566Y405D02*
X1573Y405D01*
X0Y404D02*
X7Y404D01*
X1566Y404D02*
X1573Y404D01*
X0Y403D02*
X7Y403D01*
X1566Y403D02*
X1573Y403D01*
X0Y402D02*
X7Y402D01*
X1566Y402D02*
X1573Y402D01*
X0Y401D02*
X7Y401D01*
X1566Y401D02*
X1573Y401D01*
X0Y400D02*
X7Y400D01*
X1566Y400D02*
X1573Y400D01*
X0Y399D02*
X7Y399D01*
X1566Y399D02*
X1573Y399D01*
X0Y398D02*
X7Y398D01*
X1566Y398D02*
X1573Y398D01*
X0Y397D02*
X7Y397D01*
X1566Y397D02*
X1573Y397D01*
X0Y396D02*
X7Y396D01*
X1566Y396D02*
X1573Y396D01*
X0Y395D02*
X7Y395D01*
X1566Y395D02*
X1573Y395D01*
X0Y394D02*
X7Y394D01*
X1566Y394D02*
X1573Y394D01*
X0Y393D02*
X7Y393D01*
X1566Y393D02*
X1573Y393D01*
X0Y392D02*
X7Y392D01*
X1566Y392D02*
X1573Y392D01*
X0Y391D02*
X7Y391D01*
X1566Y391D02*
X1573Y391D01*
X0Y390D02*
X7Y390D01*
X1566Y390D02*
X1573Y390D01*
X0Y389D02*
X7Y389D01*
X1566Y389D02*
X1573Y389D01*
X0Y388D02*
X7Y388D01*
X1566Y388D02*
X1573Y388D01*
X0Y387D02*
X7Y387D01*
X1566Y387D02*
X1573Y387D01*
X0Y386D02*
X7Y386D01*
X1566Y386D02*
X1573Y386D01*
X0Y385D02*
X7Y385D01*
X1566Y385D02*
X1573Y385D01*
X0Y384D02*
X7Y384D01*
X1566Y384D02*
X1573Y384D01*
X0Y383D02*
X7Y383D01*
X1566Y383D02*
X1573Y383D01*
X0Y382D02*
X7Y382D01*
X1566Y382D02*
X1573Y382D01*
X0Y381D02*
X7Y381D01*
X1566Y381D02*
X1573Y381D01*
X0Y380D02*
X7Y380D01*
X1566Y380D02*
X1573Y380D01*
X0Y379D02*
X7Y379D01*
X1566Y379D02*
X1573Y379D01*
X0Y378D02*
X7Y378D01*
X1566Y378D02*
X1573Y378D01*
X0Y377D02*
X7Y377D01*
X1566Y377D02*
X1573Y377D01*
X0Y376D02*
X7Y376D01*
X1566Y376D02*
X1573Y376D01*
X0Y375D02*
X7Y375D01*
X1566Y375D02*
X1573Y375D01*
X0Y374D02*
X7Y374D01*
X1566Y374D02*
X1573Y374D01*
X0Y373D02*
X7Y373D01*
X1566Y373D02*
X1573Y373D01*
X0Y372D02*
X7Y372D01*
X1566Y372D02*
X1573Y372D01*
X0Y371D02*
X7Y371D01*
X1566Y371D02*
X1573Y371D01*
X0Y370D02*
X7Y370D01*
X1566Y370D02*
X1573Y370D01*
X0Y369D02*
X7Y369D01*
X1566Y369D02*
X1573Y369D01*
X0Y368D02*
X7Y368D01*
X1566Y368D02*
X1573Y368D01*
X0Y367D02*
X7Y367D01*
X1566Y367D02*
X1573Y367D01*
X0Y366D02*
X7Y366D01*
X1566Y366D02*
X1573Y366D01*
X0Y365D02*
X7Y365D01*
X1566Y365D02*
X1573Y365D01*
X0Y364D02*
X7Y364D01*
X1566Y364D02*
X1573Y364D01*
X0Y363D02*
X7Y363D01*
X1566Y363D02*
X1573Y363D01*
X0Y362D02*
X7Y362D01*
X1566Y362D02*
X1573Y362D01*
X0Y361D02*
X7Y361D01*
X1566Y361D02*
X1573Y361D01*
X0Y360D02*
X7Y360D01*
X1566Y360D02*
X1573Y360D01*
X0Y359D02*
X7Y359D01*
X1566Y359D02*
X1573Y359D01*
X0Y358D02*
X7Y358D01*
X1566Y358D02*
X1573Y358D01*
X0Y357D02*
X7Y357D01*
X1566Y357D02*
X1573Y357D01*
X0Y356D02*
X7Y356D01*
X1566Y356D02*
X1573Y356D01*
X0Y355D02*
X7Y355D01*
X1566Y355D02*
X1573Y355D01*
X0Y354D02*
X7Y354D01*
X1566Y354D02*
X1573Y354D01*
X0Y353D02*
X7Y353D01*
X1566Y353D02*
X1573Y353D01*
X0Y352D02*
X7Y352D01*
X1566Y352D02*
X1573Y352D01*
X0Y351D02*
X7Y351D01*
X1566Y351D02*
X1573Y351D01*
X0Y350D02*
X7Y350D01*
X1566Y350D02*
X1573Y350D01*
X0Y349D02*
X7Y349D01*
X1566Y349D02*
X1573Y349D01*
X0Y348D02*
X7Y348D01*
X1566Y348D02*
X1573Y348D01*
X0Y347D02*
X7Y347D01*
X1566Y347D02*
X1573Y347D01*
X0Y346D02*
X7Y346D01*
X1566Y346D02*
X1573Y346D01*
X0Y345D02*
X7Y345D01*
X1566Y345D02*
X1573Y345D01*
X0Y344D02*
X7Y344D01*
X1566Y344D02*
X1573Y344D01*
X0Y343D02*
X7Y343D01*
X1566Y343D02*
X1573Y343D01*
X0Y342D02*
X7Y342D01*
X1566Y342D02*
X1573Y342D01*
X0Y341D02*
X7Y341D01*
X1566Y341D02*
X1573Y341D01*
X0Y340D02*
X7Y340D01*
X1566Y340D02*
X1573Y340D01*
X0Y339D02*
X7Y339D01*
X1566Y339D02*
X1573Y339D01*
X0Y338D02*
X7Y338D01*
X1566Y338D02*
X1573Y338D01*
X0Y337D02*
X7Y337D01*
X1566Y337D02*
X1573Y337D01*
X0Y336D02*
X7Y336D01*
X1566Y336D02*
X1573Y336D01*
X0Y335D02*
X7Y335D01*
X1566Y335D02*
X1573Y335D01*
X0Y334D02*
X7Y334D01*
X1566Y334D02*
X1573Y334D01*
X0Y333D02*
X7Y333D01*
X1566Y333D02*
X1573Y333D01*
X0Y332D02*
X7Y332D01*
X1566Y332D02*
X1573Y332D01*
X0Y331D02*
X7Y331D01*
X1566Y331D02*
X1573Y331D01*
X0Y330D02*
X7Y330D01*
X1566Y330D02*
X1573Y330D01*
X0Y329D02*
X7Y329D01*
X1566Y329D02*
X1573Y329D01*
X0Y328D02*
X7Y328D01*
X1566Y328D02*
X1573Y328D01*
X0Y327D02*
X7Y327D01*
X1566Y327D02*
X1573Y327D01*
X0Y326D02*
X7Y326D01*
X1566Y326D02*
X1573Y326D01*
X0Y325D02*
X7Y325D01*
X1566Y325D02*
X1573Y325D01*
X0Y324D02*
X7Y324D01*
X1566Y324D02*
X1573Y324D01*
X0Y323D02*
X7Y323D01*
X1566Y323D02*
X1573Y323D01*
X0Y322D02*
X7Y322D01*
X1566Y322D02*
X1573Y322D01*
X0Y321D02*
X7Y321D01*
X1566Y321D02*
X1573Y321D01*
X0Y320D02*
X7Y320D01*
X1566Y320D02*
X1573Y320D01*
X0Y319D02*
X7Y319D01*
X1566Y319D02*
X1573Y319D01*
X0Y318D02*
X7Y318D01*
X1566Y318D02*
X1573Y318D01*
X0Y317D02*
X7Y317D01*
X1566Y317D02*
X1573Y317D01*
X0Y316D02*
X7Y316D01*
X1566Y316D02*
X1573Y316D01*
X0Y315D02*
X7Y315D01*
X1382Y315D02*
X1390Y315D01*
X1566Y315D02*
X1573Y315D01*
X0Y314D02*
X7Y314D01*
X1381Y314D02*
X1390Y314D01*
X1566Y314D02*
X1573Y314D01*
X0Y313D02*
X7Y313D01*
X1381Y313D02*
X1390Y313D01*
X1566Y313D02*
X1573Y313D01*
X0Y312D02*
X7Y312D01*
X1381Y312D02*
X1390Y312D01*
X1566Y312D02*
X1573Y312D01*
X0Y311D02*
X7Y311D01*
X1381Y311D02*
X1390Y311D01*
X1566Y311D02*
X1573Y311D01*
X0Y310D02*
X7Y310D01*
X1381Y310D02*
X1390Y310D01*
X1566Y310D02*
X1573Y310D01*
X0Y309D02*
X7Y309D01*
X1381Y309D02*
X1390Y309D01*
X1566Y309D02*
X1573Y309D01*
X0Y308D02*
X7Y308D01*
X1381Y308D02*
X1390Y308D01*
X1566Y308D02*
X1573Y308D01*
X0Y307D02*
X7Y307D01*
X1381Y307D02*
X1390Y307D01*
X1566Y307D02*
X1573Y307D01*
X0Y306D02*
X7Y306D01*
X1381Y306D02*
X1390Y306D01*
X1566Y306D02*
X1573Y306D01*
X0Y305D02*
X7Y305D01*
X1381Y305D02*
X1390Y305D01*
X1566Y305D02*
X1573Y305D01*
X0Y304D02*
X7Y304D01*
X1381Y304D02*
X1390Y304D01*
X1566Y304D02*
X1573Y304D01*
X0Y303D02*
X7Y303D01*
X1381Y303D02*
X1390Y303D01*
X1566Y303D02*
X1573Y303D01*
X0Y302D02*
X7Y302D01*
X1381Y302D02*
X1390Y302D01*
X1566Y302D02*
X1573Y302D01*
X0Y301D02*
X7Y301D01*
X1381Y301D02*
X1390Y301D01*
X1566Y301D02*
X1573Y301D01*
X0Y300D02*
X7Y300D01*
X1381Y300D02*
X1390Y300D01*
X1566Y300D02*
X1573Y300D01*
X0Y299D02*
X7Y299D01*
X1381Y299D02*
X1390Y299D01*
X1566Y299D02*
X1573Y299D01*
X0Y298D02*
X7Y298D01*
X1381Y298D02*
X1390Y298D01*
X1566Y298D02*
X1573Y298D01*
X0Y297D02*
X7Y297D01*
X1381Y297D02*
X1390Y297D01*
X1566Y297D02*
X1573Y297D01*
X0Y296D02*
X7Y296D01*
X1381Y296D02*
X1390Y296D01*
X1566Y296D02*
X1573Y296D01*
X0Y295D02*
X7Y295D01*
X1381Y295D02*
X1390Y295D01*
X1566Y295D02*
X1573Y295D01*
X0Y294D02*
X7Y294D01*
X1381Y294D02*
X1390Y294D01*
X1566Y294D02*
X1573Y294D01*
X0Y293D02*
X7Y293D01*
X1381Y293D02*
X1390Y293D01*
X1566Y293D02*
X1573Y293D01*
X0Y292D02*
X7Y292D01*
X1381Y292D02*
X1390Y292D01*
X1566Y292D02*
X1573Y292D01*
X0Y291D02*
X7Y291D01*
X1381Y291D02*
X1390Y291D01*
X1566Y291D02*
X1573Y291D01*
X0Y290D02*
X7Y290D01*
X1381Y290D02*
X1390Y290D01*
X1566Y290D02*
X1573Y290D01*
X0Y289D02*
X7Y289D01*
X1381Y289D02*
X1390Y289D01*
X1566Y289D02*
X1573Y289D01*
X0Y288D02*
X7Y288D01*
X1381Y288D02*
X1390Y288D01*
X1566Y288D02*
X1573Y288D01*
X0Y287D02*
X7Y287D01*
X1381Y287D02*
X1390Y287D01*
X1566Y287D02*
X1573Y287D01*
X0Y286D02*
X7Y286D01*
X1381Y286D02*
X1390Y286D01*
X1566Y286D02*
X1573Y286D01*
X0Y285D02*
X7Y285D01*
X1381Y285D02*
X1390Y285D01*
X1566Y285D02*
X1573Y285D01*
X0Y284D02*
X7Y284D01*
X1381Y284D02*
X1390Y284D01*
X1566Y284D02*
X1573Y284D01*
X0Y283D02*
X7Y283D01*
X1381Y283D02*
X1390Y283D01*
X1566Y283D02*
X1573Y283D01*
X0Y282D02*
X7Y282D01*
X1381Y282D02*
X1390Y282D01*
X1566Y282D02*
X1573Y282D01*
X0Y281D02*
X7Y281D01*
X1381Y281D02*
X1390Y281D01*
X1566Y281D02*
X1573Y281D01*
X0Y280D02*
X7Y280D01*
X1381Y280D02*
X1390Y280D01*
X1566Y280D02*
X1573Y280D01*
X0Y279D02*
X7Y279D01*
X1381Y279D02*
X1390Y279D01*
X1566Y279D02*
X1573Y279D01*
X0Y278D02*
X7Y278D01*
X1381Y278D02*
X1390Y278D01*
X1566Y278D02*
X1573Y278D01*
X0Y277D02*
X7Y277D01*
X1381Y277D02*
X1390Y277D01*
X1566Y277D02*
X1573Y277D01*
X0Y276D02*
X7Y276D01*
X1381Y276D02*
X1390Y276D01*
X1566Y276D02*
X1573Y276D01*
X0Y275D02*
X7Y275D01*
X1381Y275D02*
X1390Y275D01*
X1566Y275D02*
X1573Y275D01*
X0Y274D02*
X7Y274D01*
X1381Y274D02*
X1390Y274D01*
X1566Y274D02*
X1573Y274D01*
X0Y273D02*
X7Y273D01*
X1381Y273D02*
X1390Y273D01*
X1566Y273D02*
X1573Y273D01*
X0Y272D02*
X7Y272D01*
X1381Y272D02*
X1390Y272D01*
X1566Y272D02*
X1573Y272D01*
X0Y271D02*
X7Y271D01*
X1381Y271D02*
X1390Y271D01*
X1566Y271D02*
X1573Y271D01*
X0Y270D02*
X7Y270D01*
X1381Y270D02*
X1390Y270D01*
X1566Y270D02*
X1573Y270D01*
X0Y269D02*
X7Y269D01*
X1381Y269D02*
X1390Y269D01*
X1566Y269D02*
X1573Y269D01*
X0Y268D02*
X7Y268D01*
X1381Y268D02*
X1390Y268D01*
X1566Y268D02*
X1573Y268D01*
X0Y267D02*
X7Y267D01*
X1381Y267D02*
X1390Y267D01*
X1566Y267D02*
X1573Y267D01*
X0Y266D02*
X7Y266D01*
X1381Y266D02*
X1390Y266D01*
X1566Y266D02*
X1573Y266D01*
X0Y265D02*
X7Y265D01*
X1381Y265D02*
X1390Y265D01*
X1566Y265D02*
X1573Y265D01*
X0Y264D02*
X7Y264D01*
X1381Y264D02*
X1390Y264D01*
X1566Y264D02*
X1573Y264D01*
X0Y263D02*
X7Y263D01*
X1381Y263D02*
X1390Y263D01*
X1566Y263D02*
X1573Y263D01*
X0Y262D02*
X7Y262D01*
X1381Y262D02*
X1390Y262D01*
X1566Y262D02*
X1573Y262D01*
X0Y261D02*
X7Y261D01*
X1381Y261D02*
X1390Y261D01*
X1566Y261D02*
X1573Y261D01*
X0Y260D02*
X7Y260D01*
X1381Y260D02*
X1390Y260D01*
X1566Y260D02*
X1573Y260D01*
X0Y259D02*
X7Y259D01*
X1381Y259D02*
X1390Y259D01*
X1566Y259D02*
X1573Y259D01*
X0Y258D02*
X7Y258D01*
X1381Y258D02*
X1390Y258D01*
X1566Y258D02*
X1573Y258D01*
X0Y257D02*
X7Y257D01*
X1381Y257D02*
X1390Y257D01*
X1566Y257D02*
X1573Y257D01*
X0Y256D02*
X7Y256D01*
X1381Y256D02*
X1390Y256D01*
X1566Y256D02*
X1573Y256D01*
X0Y255D02*
X7Y255D01*
X1381Y255D02*
X1390Y255D01*
X1566Y255D02*
X1573Y255D01*
X0Y254D02*
X7Y254D01*
X1381Y254D02*
X1390Y254D01*
X1566Y254D02*
X1573Y254D01*
X0Y253D02*
X7Y253D01*
X1381Y253D02*
X1390Y253D01*
X1566Y253D02*
X1573Y253D01*
X0Y252D02*
X7Y252D01*
X1381Y252D02*
X1390Y252D01*
X1566Y252D02*
X1573Y252D01*
X0Y251D02*
X7Y251D01*
X1381Y251D02*
X1390Y251D01*
X1566Y251D02*
X1573Y251D01*
X0Y250D02*
X7Y250D01*
X1381Y250D02*
X1390Y250D01*
X1566Y250D02*
X1573Y250D01*
X0Y249D02*
X7Y249D01*
X1381Y249D02*
X1390Y249D01*
X1566Y249D02*
X1573Y249D01*
X0Y248D02*
X7Y248D01*
X1381Y248D02*
X1390Y248D01*
X1566Y248D02*
X1573Y248D01*
X0Y247D02*
X7Y247D01*
X1381Y247D02*
X1390Y247D01*
X1566Y247D02*
X1573Y247D01*
X0Y246D02*
X7Y246D01*
X1381Y246D02*
X1390Y246D01*
X1566Y246D02*
X1573Y246D01*
X0Y245D02*
X7Y245D01*
X1381Y245D02*
X1390Y245D01*
X1566Y245D02*
X1573Y245D01*
X0Y244D02*
X7Y244D01*
X1381Y244D02*
X1390Y244D01*
X1566Y244D02*
X1573Y244D01*
X0Y243D02*
X7Y243D01*
X1381Y243D02*
X1390Y243D01*
X1566Y243D02*
X1573Y243D01*
X0Y242D02*
X7Y242D01*
X1381Y242D02*
X1390Y242D01*
X1566Y242D02*
X1573Y242D01*
X0Y241D02*
X7Y241D01*
X1381Y241D02*
X1390Y241D01*
X1566Y241D02*
X1573Y241D01*
X0Y240D02*
X7Y240D01*
X1381Y240D02*
X1390Y240D01*
X1566Y240D02*
X1573Y240D01*
X0Y239D02*
X7Y239D01*
X1381Y239D02*
X1390Y239D01*
X1566Y239D02*
X1573Y239D01*
X0Y238D02*
X7Y238D01*
X1381Y238D02*
X1390Y238D01*
X1566Y238D02*
X1573Y238D01*
X0Y237D02*
X7Y237D01*
X1381Y237D02*
X1390Y237D01*
X1566Y237D02*
X1573Y237D01*
X0Y236D02*
X7Y236D01*
X1381Y236D02*
X1390Y236D01*
X1566Y236D02*
X1573Y236D01*
X0Y235D02*
X7Y235D01*
X1381Y235D02*
X1390Y235D01*
X1566Y235D02*
X1573Y235D01*
X0Y234D02*
X7Y234D01*
X1381Y234D02*
X1390Y234D01*
X1566Y234D02*
X1573Y234D01*
X0Y233D02*
X7Y233D01*
X1381Y233D02*
X1390Y233D01*
X1566Y233D02*
X1573Y233D01*
X0Y232D02*
X7Y232D01*
X1381Y232D02*
X1390Y232D01*
X1566Y232D02*
X1573Y232D01*
X0Y231D02*
X7Y231D01*
X1381Y231D02*
X1390Y231D01*
X1566Y231D02*
X1573Y231D01*
X0Y230D02*
X7Y230D01*
X1381Y230D02*
X1390Y230D01*
X1566Y230D02*
X1573Y230D01*
X0Y229D02*
X7Y229D01*
X1381Y229D02*
X1390Y229D01*
X1566Y229D02*
X1573Y229D01*
X0Y228D02*
X7Y228D01*
X1381Y228D02*
X1390Y228D01*
X1566Y228D02*
X1573Y228D01*
X0Y227D02*
X7Y227D01*
X1381Y227D02*
X1390Y227D01*
X1566Y227D02*
X1573Y227D01*
X0Y226D02*
X7Y226D01*
X1381Y226D02*
X1390Y226D01*
X1566Y226D02*
X1573Y226D01*
X0Y225D02*
X7Y225D01*
X1381Y225D02*
X1390Y225D01*
X1566Y225D02*
X1573Y225D01*
X0Y224D02*
X7Y224D01*
X1381Y224D02*
X1390Y224D01*
X1566Y224D02*
X1573Y224D01*
X0Y223D02*
X7Y223D01*
X1381Y223D02*
X1390Y223D01*
X1566Y223D02*
X1573Y223D01*
X0Y222D02*
X7Y222D01*
X1381Y222D02*
X1390Y222D01*
X1566Y222D02*
X1573Y222D01*
X0Y221D02*
X7Y221D01*
X1381Y221D02*
X1390Y221D01*
X1566Y221D02*
X1573Y221D01*
X0Y220D02*
X7Y220D01*
X1381Y220D02*
X1390Y220D01*
X1566Y220D02*
X1573Y220D01*
X0Y219D02*
X7Y219D01*
X1381Y219D02*
X1390Y219D01*
X1566Y219D02*
X1573Y219D01*
X0Y218D02*
X7Y218D01*
X1381Y218D02*
X1390Y218D01*
X1566Y218D02*
X1573Y218D01*
X0Y217D02*
X7Y217D01*
X1381Y217D02*
X1390Y217D01*
X1566Y217D02*
X1573Y217D01*
X0Y216D02*
X7Y216D01*
X1381Y216D02*
X1390Y216D01*
X1566Y216D02*
X1573Y216D01*
X0Y215D02*
X7Y215D01*
X1381Y215D02*
X1390Y215D01*
X1566Y215D02*
X1573Y215D01*
X0Y214D02*
X7Y214D01*
X1381Y214D02*
X1390Y214D01*
X1566Y214D02*
X1573Y214D01*
X0Y213D02*
X7Y213D01*
X1381Y213D02*
X1390Y213D01*
X1566Y213D02*
X1573Y213D01*
X0Y212D02*
X7Y212D01*
X1381Y212D02*
X1390Y212D01*
X1566Y212D02*
X1573Y212D01*
X0Y211D02*
X7Y211D01*
X1381Y211D02*
X1390Y211D01*
X1566Y211D02*
X1573Y211D01*
X0Y210D02*
X7Y210D01*
X1381Y210D02*
X1390Y210D01*
X1566Y210D02*
X1573Y210D01*
X0Y209D02*
X7Y209D01*
X1381Y209D02*
X1390Y209D01*
X1566Y209D02*
X1573Y209D01*
X0Y208D02*
X7Y208D01*
X1381Y208D02*
X1390Y208D01*
X1566Y208D02*
X1573Y208D01*
X0Y207D02*
X7Y207D01*
X1381Y207D02*
X1390Y207D01*
X1566Y207D02*
X1573Y207D01*
X0Y206D02*
X7Y206D01*
X1381Y206D02*
X1390Y206D01*
X1566Y206D02*
X1573Y206D01*
X0Y205D02*
X7Y205D01*
X1381Y205D02*
X1390Y205D01*
X1566Y205D02*
X1573Y205D01*
X0Y204D02*
X7Y204D01*
X1381Y204D02*
X1390Y204D01*
X1566Y204D02*
X1573Y204D01*
X0Y203D02*
X7Y203D01*
X1381Y203D02*
X1390Y203D01*
X1566Y203D02*
X1573Y203D01*
X0Y202D02*
X7Y202D01*
X1381Y202D02*
X1390Y202D01*
X1566Y202D02*
X1573Y202D01*
X0Y201D02*
X7Y201D01*
X1381Y201D02*
X1390Y201D01*
X1566Y201D02*
X1573Y201D01*
X0Y200D02*
X7Y200D01*
X1381Y200D02*
X1390Y200D01*
X1566Y200D02*
X1573Y200D01*
X0Y199D02*
X7Y199D01*
X1381Y199D02*
X1390Y199D01*
X1566Y199D02*
X1573Y199D01*
X0Y198D02*
X7Y198D01*
X1381Y198D02*
X1390Y198D01*
X1566Y198D02*
X1573Y198D01*
X0Y197D02*
X7Y197D01*
X1381Y197D02*
X1390Y197D01*
X1566Y197D02*
X1573Y197D01*
X0Y196D02*
X7Y196D01*
X1381Y196D02*
X1390Y196D01*
X1566Y196D02*
X1573Y196D01*
X0Y195D02*
X7Y195D01*
X1381Y195D02*
X1390Y195D01*
X1566Y195D02*
X1573Y195D01*
X0Y194D02*
X7Y194D01*
X1381Y194D02*
X1390Y194D01*
X1566Y194D02*
X1573Y194D01*
X0Y193D02*
X7Y193D01*
X1381Y193D02*
X1390Y193D01*
X1566Y193D02*
X1573Y193D01*
X0Y192D02*
X7Y192D01*
X1381Y192D02*
X1390Y192D01*
X1566Y192D02*
X1573Y192D01*
X0Y191D02*
X7Y191D01*
X1381Y191D02*
X1390Y191D01*
X1566Y191D02*
X1573Y191D01*
X0Y190D02*
X7Y190D01*
X1381Y190D02*
X1390Y190D01*
X1566Y190D02*
X1573Y190D01*
X0Y189D02*
X7Y189D01*
X1381Y189D02*
X1390Y189D01*
X1566Y189D02*
X1573Y189D01*
X0Y188D02*
X7Y188D01*
X1381Y188D02*
X1390Y188D01*
X1566Y188D02*
X1573Y188D01*
X0Y187D02*
X7Y187D01*
X1381Y187D02*
X1390Y187D01*
X1566Y187D02*
X1573Y187D01*
X0Y186D02*
X7Y186D01*
X1381Y186D02*
X1390Y186D01*
X1566Y186D02*
X1573Y186D01*
X0Y185D02*
X7Y185D01*
X1381Y185D02*
X1390Y185D01*
X1566Y185D02*
X1573Y185D01*
X0Y184D02*
X7Y184D01*
X1381Y184D02*
X1390Y184D01*
X1566Y184D02*
X1573Y184D01*
X0Y183D02*
X7Y183D01*
X1381Y183D02*
X1390Y183D01*
X1566Y183D02*
X1573Y183D01*
X0Y182D02*
X7Y182D01*
X1381Y182D02*
X1390Y182D01*
X1566Y182D02*
X1573Y182D01*
X0Y181D02*
X7Y181D01*
X1381Y181D02*
X1390Y181D01*
X1566Y181D02*
X1573Y181D01*
X0Y180D02*
X7Y180D01*
X1381Y180D02*
X1390Y180D01*
X1566Y180D02*
X1573Y180D01*
X0Y179D02*
X7Y179D01*
X1381Y179D02*
X1390Y179D01*
X1566Y179D02*
X1573Y179D01*
X0Y178D02*
X7Y178D01*
X1381Y178D02*
X1390Y178D01*
X1566Y178D02*
X1573Y178D01*
X0Y177D02*
X7Y177D01*
X1381Y177D02*
X1390Y177D01*
X1566Y177D02*
X1573Y177D01*
X0Y176D02*
X7Y176D01*
X1381Y176D02*
X1390Y176D01*
X1566Y176D02*
X1573Y176D01*
X0Y175D02*
X7Y175D01*
X1381Y175D02*
X1390Y175D01*
X1566Y175D02*
X1573Y175D01*
X0Y174D02*
X7Y174D01*
X1381Y174D02*
X1390Y174D01*
X1566Y174D02*
X1573Y174D01*
X0Y173D02*
X7Y173D01*
X1381Y173D02*
X1390Y173D01*
X1566Y173D02*
X1573Y173D01*
X0Y172D02*
X7Y172D01*
X1381Y172D02*
X1390Y172D01*
X1566Y172D02*
X1573Y172D01*
X0Y171D02*
X7Y171D01*
X1381Y171D02*
X1390Y171D01*
X1566Y171D02*
X1573Y171D01*
X0Y170D02*
X7Y170D01*
X1381Y170D02*
X1390Y170D01*
X1566Y170D02*
X1573Y170D01*
X0Y169D02*
X7Y169D01*
X1381Y169D02*
X1390Y169D01*
X1566Y169D02*
X1573Y169D01*
X0Y168D02*
X7Y168D01*
X1381Y168D02*
X1390Y168D01*
X1566Y168D02*
X1573Y168D01*
X0Y167D02*
X7Y167D01*
X1381Y167D02*
X1390Y167D01*
X1566Y167D02*
X1573Y167D01*
X0Y166D02*
X7Y166D01*
X1381Y166D02*
X1390Y166D01*
X1566Y166D02*
X1573Y166D01*
X0Y165D02*
X7Y165D01*
X1381Y165D02*
X1390Y165D01*
X1566Y165D02*
X1573Y165D01*
X0Y164D02*
X7Y164D01*
X1381Y164D02*
X1390Y164D01*
X1566Y164D02*
X1573Y164D01*
X0Y163D02*
X7Y163D01*
X1381Y163D02*
X1390Y163D01*
X1566Y163D02*
X1573Y163D01*
X0Y162D02*
X7Y162D01*
X1381Y162D02*
X1390Y162D01*
X1566Y162D02*
X1573Y162D01*
X0Y161D02*
X7Y161D01*
X1381Y161D02*
X1390Y161D01*
X1566Y161D02*
X1573Y161D01*
X0Y160D02*
X7Y160D01*
X1381Y160D02*
X1390Y160D01*
X1566Y160D02*
X1573Y160D01*
X0Y159D02*
X7Y159D01*
X1381Y159D02*
X1390Y159D01*
X1566Y159D02*
X1573Y159D01*
X0Y158D02*
X7Y158D01*
X1381Y158D02*
X1390Y158D01*
X1566Y158D02*
X1573Y158D01*
X0Y157D02*
X7Y157D01*
X1381Y157D02*
X1390Y157D01*
X1566Y157D02*
X1573Y157D01*
X0Y156D02*
X7Y156D01*
X1381Y156D02*
X1390Y156D01*
X1566Y156D02*
X1573Y156D01*
X0Y155D02*
X7Y155D01*
X1381Y155D02*
X1390Y155D01*
X1566Y155D02*
X1573Y155D01*
X0Y154D02*
X7Y154D01*
X1381Y154D02*
X1390Y154D01*
X1566Y154D02*
X1573Y154D01*
X0Y153D02*
X7Y153D01*
X1381Y153D02*
X1390Y153D01*
X1566Y153D02*
X1573Y153D01*
X0Y152D02*
X7Y152D01*
X1381Y152D02*
X1390Y152D01*
X1566Y152D02*
X1573Y152D01*
X0Y151D02*
X7Y151D01*
X1381Y151D02*
X1390Y151D01*
X1566Y151D02*
X1573Y151D01*
X0Y150D02*
X7Y150D01*
X1381Y150D02*
X1390Y150D01*
X1566Y150D02*
X1573Y150D01*
X0Y149D02*
X7Y149D01*
X1381Y149D02*
X1390Y149D01*
X1566Y149D02*
X1573Y149D01*
X0Y148D02*
X7Y148D01*
X1381Y148D02*
X1391Y148D01*
X1566Y148D02*
X1573Y148D01*
X0Y147D02*
X7Y147D01*
X1381Y147D02*
X1391Y147D01*
X1566Y147D02*
X1573Y147D01*
X0Y146D02*
X7Y146D01*
X1381Y146D02*
X1391Y146D01*
X1566Y146D02*
X1573Y146D01*
X0Y145D02*
X7Y145D01*
X1381Y145D02*
X1391Y145D01*
X1566Y145D02*
X1573Y145D01*
X0Y144D02*
X7Y144D01*
X1381Y144D02*
X1391Y144D01*
X1566Y144D02*
X1573Y144D01*
X0Y143D02*
X7Y143D01*
X1381Y143D02*
X1391Y143D01*
X1566Y143D02*
X1573Y143D01*
X0Y142D02*
X7Y142D01*
X1381Y142D02*
X1391Y142D01*
X1566Y142D02*
X1573Y142D01*
X0Y141D02*
X7Y141D01*
X1381Y141D02*
X1390Y141D01*
X1566Y141D02*
X1573Y141D01*
X0Y140D02*
X7Y140D01*
X1381Y140D02*
X1390Y140D01*
X1566Y140D02*
X1573Y140D01*
X0Y139D02*
X7Y139D01*
X1381Y139D02*
X1390Y139D01*
X1566Y139D02*
X1573Y139D01*
X0Y138D02*
X7Y138D01*
X1381Y138D02*
X1390Y138D01*
X1566Y138D02*
X1573Y138D01*
X0Y137D02*
X7Y137D01*
X1381Y137D02*
X1390Y137D01*
X1566Y137D02*
X1573Y137D01*
X0Y136D02*
X7Y136D01*
X1381Y136D02*
X1390Y136D01*
X1566Y136D02*
X1573Y136D01*
X0Y135D02*
X7Y135D01*
X1381Y135D02*
X1390Y135D01*
X1566Y135D02*
X1573Y135D01*
X0Y134D02*
X7Y134D01*
X1381Y134D02*
X1390Y134D01*
X1566Y134D02*
X1573Y134D01*
X0Y133D02*
X7Y133D01*
X1381Y133D02*
X1390Y133D01*
X1566Y133D02*
X1573Y133D01*
X0Y132D02*
X7Y132D01*
X1381Y132D02*
X1390Y132D01*
X1566Y132D02*
X1573Y132D01*
X0Y131D02*
X7Y131D01*
X1381Y131D02*
X1390Y131D01*
X1566Y131D02*
X1573Y131D01*
X0Y130D02*
X7Y130D01*
X1381Y130D02*
X1390Y130D01*
X1566Y130D02*
X1573Y130D01*
X0Y129D02*
X7Y129D01*
X1381Y129D02*
X1390Y129D01*
X1566Y129D02*
X1573Y129D01*
X0Y128D02*
X7Y128D01*
X1381Y128D02*
X1390Y128D01*
X1566Y128D02*
X1573Y128D01*
X0Y127D02*
X7Y127D01*
X1381Y127D02*
X1390Y127D01*
X1566Y127D02*
X1573Y127D01*
X0Y126D02*
X7Y126D01*
X1381Y126D02*
X1390Y126D01*
X1566Y126D02*
X1573Y126D01*
X0Y125D02*
X7Y125D01*
X1381Y125D02*
X1390Y125D01*
X1566Y125D02*
X1573Y125D01*
X0Y124D02*
X7Y124D01*
X1381Y124D02*
X1390Y124D01*
X1566Y124D02*
X1573Y124D01*
X0Y123D02*
X7Y123D01*
X1381Y123D02*
X1390Y123D01*
X1566Y123D02*
X1573Y123D01*
X0Y122D02*
X7Y122D01*
X1381Y122D02*
X1390Y122D01*
X1566Y122D02*
X1573Y122D01*
X0Y121D02*
X7Y121D01*
X1381Y121D02*
X1390Y121D01*
X1412Y121D02*
X1418Y121D01*
X1566Y121D02*
X1573Y121D01*
X0Y120D02*
X7Y120D01*
X1381Y120D02*
X1390Y120D01*
X1413Y120D02*
X1419Y120D01*
X1566Y120D02*
X1573Y120D01*
X0Y119D02*
X7Y119D01*
X1381Y119D02*
X1390Y119D01*
X1414Y119D02*
X1420Y119D01*
X1566Y119D02*
X1573Y119D01*
X0Y118D02*
X7Y118D01*
X1381Y118D02*
X1390Y118D01*
X1415Y118D02*
X1421Y118D01*
X1566Y118D02*
X1573Y118D01*
X0Y117D02*
X7Y117D01*
X1381Y117D02*
X1390Y117D01*
X1416Y117D02*
X1422Y117D01*
X1566Y117D02*
X1573Y117D01*
X0Y116D02*
X7Y116D01*
X1381Y116D02*
X1390Y116D01*
X1417Y116D02*
X1421Y116D01*
X1566Y116D02*
X1573Y116D01*
X0Y115D02*
X7Y115D01*
X1418Y115D02*
X1420Y115D01*
X1566Y115D02*
X1573Y115D01*
X0Y114D02*
X7Y114D01*
X1419Y114D02*
X1419Y114D01*
X1566Y114D02*
X1573Y114D01*
X0Y113D02*
X7Y113D01*
X1566Y113D02*
X1573Y113D01*
X0Y112D02*
X7Y112D01*
X1566Y112D02*
X1573Y112D01*
X0Y111D02*
X7Y111D01*
X1566Y111D02*
X1573Y111D01*
X0Y110D02*
X7Y110D01*
X1566Y110D02*
X1573Y110D01*
X0Y109D02*
X7Y109D01*
X1566Y109D02*
X1573Y109D01*
X0Y108D02*
X7Y108D01*
X1566Y108D02*
X1573Y108D01*
X0Y107D02*
X7Y107D01*
X1566Y107D02*
X1573Y107D01*
X0Y106D02*
X7Y106D01*
X1566Y106D02*
X1573Y106D01*
X0Y105D02*
X7Y105D01*
X1566Y105D02*
X1573Y105D01*
X0Y104D02*
X7Y104D01*
X1566Y104D02*
X1573Y104D01*
X0Y103D02*
X7Y103D01*
X1566Y103D02*
X1573Y103D01*
X0Y102D02*
X7Y102D01*
X1566Y102D02*
X1573Y102D01*
X0Y101D02*
X7Y101D01*
X1566Y101D02*
X1573Y101D01*
X0Y100D02*
X7Y100D01*
X1566Y100D02*
X1573Y100D01*
X0Y99D02*
X7Y99D01*
X1566Y99D02*
X1573Y99D01*
X0Y98D02*
X7Y98D01*
X1566Y98D02*
X1573Y98D01*
X0Y97D02*
X7Y97D01*
X1566Y97D02*
X1573Y97D01*
X0Y96D02*
X7Y96D01*
X1566Y96D02*
X1573Y96D01*
X0Y95D02*
X7Y95D01*
X1566Y95D02*
X1573Y95D01*
X0Y94D02*
X7Y94D01*
X1566Y94D02*
X1573Y94D01*
X0Y93D02*
X7Y93D01*
X1566Y93D02*
X1573Y93D01*
X0Y92D02*
X7Y92D01*
X1566Y92D02*
X1573Y92D01*
X0Y91D02*
X7Y91D01*
X1566Y91D02*
X1573Y91D01*
X0Y90D02*
X7Y90D01*
X1566Y90D02*
X1573Y90D01*
X0Y89D02*
X7Y89D01*
X1566Y89D02*
X1573Y89D01*
X0Y88D02*
X7Y88D01*
X1566Y88D02*
X1573Y88D01*
X0Y87D02*
X7Y87D01*
X1566Y87D02*
X1573Y87D01*
X0Y86D02*
X7Y86D01*
X1566Y86D02*
X1573Y86D01*
X0Y85D02*
X7Y85D01*
X1566Y85D02*
X1573Y85D01*
X0Y84D02*
X7Y84D01*
X1566Y84D02*
X1573Y84D01*
X0Y83D02*
X7Y83D01*
X1566Y83D02*
X1573Y83D01*
X0Y82D02*
X7Y82D01*
X1566Y82D02*
X1573Y82D01*
X0Y81D02*
X7Y81D01*
X1566Y81D02*
X1573Y81D01*
X0Y80D02*
X7Y80D01*
X1566Y80D02*
X1573Y80D01*
X0Y79D02*
X7Y79D01*
X1566Y79D02*
X1573Y79D01*
X0Y78D02*
X7Y78D01*
X1566Y78D02*
X1573Y78D01*
X0Y77D02*
X7Y77D01*
X1566Y77D02*
X1573Y77D01*
X0Y76D02*
X7Y76D01*
X1566Y76D02*
X1573Y76D01*
X0Y75D02*
X7Y75D01*
X1566Y75D02*
X1573Y75D01*
X0Y74D02*
X7Y74D01*
X1566Y74D02*
X1573Y74D01*
X0Y73D02*
X7Y73D01*
X1566Y73D02*
X1573Y73D01*
X0Y72D02*
X7Y72D01*
X1566Y72D02*
X1573Y72D01*
X0Y71D02*
X7Y71D01*
X1566Y71D02*
X1573Y71D01*
X0Y70D02*
X7Y70D01*
X1566Y70D02*
X1573Y70D01*
X0Y69D02*
X7Y69D01*
X1514Y69D02*
X1537Y69D01*
X0Y68D02*
X7Y68D01*
X1514Y68D02*
X1540Y68D01*
X0Y67D02*
X7Y67D01*
X1514Y67D02*
X1541Y67D01*
X0Y66D02*
X7Y66D01*
X1514Y66D02*
X1543Y66D01*
X0Y65D02*
X7Y65D01*
X1514Y65D02*
X1544Y65D01*
X0Y64D02*
X7Y64D01*
X1514Y64D02*
X1545Y64D01*
X0Y63D02*
X7Y63D01*
X1514Y63D02*
X1545Y63D01*
X0Y62D02*
X7Y62D01*
X1514Y62D02*
X1520Y62D01*
X1537Y62D02*
X1546Y62D01*
X1565Y62D02*
X1573Y62D01*
X0Y61D02*
X7Y61D01*
X1514Y61D02*
X1520Y61D01*
X1539Y61D02*
X1546Y61D01*
X1564Y61D02*
X1573Y61D01*
X0Y60D02*
X7Y60D01*
X1514Y60D02*
X1520Y60D01*
X1540Y60D02*
X1547Y60D01*
X1564Y60D02*
X1573Y60D01*
X0Y59D02*
X7Y59D01*
X1514Y59D02*
X1520Y59D01*
X1541Y59D02*
X1547Y59D01*
X1564Y59D02*
X1573Y59D01*
X0Y58D02*
X7Y58D01*
X1514Y58D02*
X1520Y58D01*
X1541Y58D02*
X1547Y58D01*
X1564Y58D02*
X1573Y58D01*
X0Y57D02*
X7Y57D01*
X1514Y57D02*
X1520Y57D01*
X1541Y57D02*
X1548Y57D01*
X1564Y57D02*
X1573Y57D01*
X0Y56D02*
X7Y56D01*
X1514Y56D02*
X1520Y56D01*
X1542Y56D02*
X1548Y56D01*
X1564Y56D02*
X1573Y56D01*
X0Y55D02*
X7Y55D01*
X1514Y55D02*
X1520Y55D01*
X1542Y55D02*
X1548Y55D01*
X1564Y55D02*
X1573Y55D01*
X0Y54D02*
X7Y54D01*
X1514Y54D02*
X1520Y54D01*
X1542Y54D02*
X1548Y54D01*
X1564Y54D02*
X1573Y54D01*
X0Y53D02*
X7Y53D01*
X1514Y53D02*
X1520Y53D01*
X1542Y53D02*
X1548Y53D01*
X1565Y53D02*
X1573Y53D01*
X0Y52D02*
X7Y52D01*
X1514Y52D02*
X1520Y52D01*
X1542Y52D02*
X1548Y52D01*
X1565Y52D02*
X1573Y52D01*
X0Y51D02*
X7Y51D01*
X1514Y51D02*
X1520Y51D01*
X1541Y51D02*
X1547Y51D01*
X0Y50D02*
X7Y50D01*
X1514Y50D02*
X1520Y50D01*
X1541Y50D02*
X1547Y50D01*
X0Y49D02*
X7Y49D01*
X1514Y49D02*
X1520Y49D01*
X1540Y49D02*
X1547Y49D01*
X0Y48D02*
X7Y48D01*
X1514Y48D02*
X1520Y48D01*
X1540Y48D02*
X1547Y48D01*
X0Y47D02*
X7Y47D01*
X1514Y47D02*
X1520Y47D01*
X1538Y47D02*
X1546Y47D01*
X0Y46D02*
X7Y46D01*
X1514Y46D02*
X1520Y46D01*
X1536Y46D02*
X1546Y46D01*
X0Y45D02*
X7Y45D01*
X1514Y45D02*
X1545Y45D01*
X0Y44D02*
X7Y44D01*
X1514Y44D02*
X1544Y44D01*
X1566Y44D02*
X1573Y44D01*
X0Y43D02*
X7Y43D01*
X1514Y43D02*
X1543Y43D01*
X1566Y43D02*
X1573Y43D01*
X0Y42D02*
X7Y42D01*
X1514Y42D02*
X1543Y42D01*
X1566Y42D02*
X1573Y42D01*
X0Y41D02*
X7Y41D01*
X1514Y41D02*
X1544Y41D01*
X1566Y41D02*
X1573Y41D01*
X0Y40D02*
X7Y40D01*
X1514Y40D02*
X1545Y40D01*
X1566Y40D02*
X1573Y40D01*
X0Y39D02*
X7Y39D01*
X1514Y39D02*
X1546Y39D01*
X1566Y39D02*
X1573Y39D01*
X0Y38D02*
X7Y38D01*
X1514Y38D02*
X1520Y38D01*
X1538Y38D02*
X1546Y38D01*
X1566Y38D02*
X1573Y38D01*
X0Y37D02*
X7Y37D01*
X1514Y37D02*
X1520Y37D01*
X1539Y37D02*
X1547Y37D01*
X0Y36D02*
X7Y36D01*
X1514Y36D02*
X1520Y36D01*
X1540Y36D02*
X1547Y36D01*
X0Y35D02*
X7Y35D01*
X1514Y35D02*
X1520Y35D01*
X1541Y35D02*
X1547Y35D01*
X0Y34D02*
X7Y34D01*
X1514Y34D02*
X1520Y34D01*
X1541Y34D02*
X1547Y34D01*
X0Y33D02*
X7Y33D01*
X1514Y33D02*
X1520Y33D01*
X1542Y33D02*
X1548Y33D01*
X0Y32D02*
X7Y32D01*
X1514Y32D02*
X1520Y32D01*
X1542Y32D02*
X1548Y32D01*
X0Y31D02*
X7Y31D01*
X1514Y31D02*
X1520Y31D01*
X1542Y31D02*
X1548Y31D01*
X0Y30D02*
X7Y30D01*
X1514Y30D02*
X1520Y30D01*
X1542Y30D02*
X1548Y30D01*
X1566Y30D02*
X1573Y30D01*
X0Y29D02*
X7Y29D01*
X1514Y29D02*
X1520Y29D01*
X1542Y29D02*
X1548Y29D01*
X1566Y29D02*
X1573Y29D01*
X0Y28D02*
X7Y28D01*
X1514Y28D02*
X1520Y28D01*
X1542Y28D02*
X1548Y28D01*
X1566Y28D02*
X1573Y28D01*
X0Y27D02*
X7Y27D01*
X1514Y27D02*
X1520Y27D01*
X1541Y27D02*
X1547Y27D01*
X1566Y27D02*
X1573Y27D01*
X0Y26D02*
X7Y26D01*
X1514Y26D02*
X1520Y26D01*
X1541Y26D02*
X1547Y26D01*
X1566Y26D02*
X1573Y26D01*
X0Y25D02*
X7Y25D01*
X1514Y25D02*
X1520Y25D01*
X1540Y25D02*
X1547Y25D01*
X1566Y25D02*
X1573Y25D01*
X0Y24D02*
X7Y24D01*
X1514Y24D02*
X1520Y24D01*
X1539Y24D02*
X1547Y24D01*
X1566Y24D02*
X1573Y24D01*
X0Y23D02*
X7Y23D01*
X1514Y23D02*
X1520Y23D01*
X1538Y23D02*
X1546Y23D01*
X1566Y23D02*
X1573Y23D01*
X0Y22D02*
X7Y22D01*
X1514Y22D02*
X1546Y22D01*
X1566Y22D02*
X1573Y22D01*
X0Y21D02*
X7Y21D01*
X1514Y21D02*
X1545Y21D01*
X1566Y21D02*
X1573Y21D01*
X0Y20D02*
X7Y20D01*
X1514Y20D02*
X1544Y20D01*
X1566Y20D02*
X1573Y20D01*
X0Y19D02*
X7Y19D01*
X1514Y19D02*
X1543Y19D01*
X1566Y19D02*
X1573Y19D01*
X0Y18D02*
X7Y18D01*
X1514Y18D02*
X1542Y18D01*
X1566Y18D02*
X1573Y18D01*
X0Y17D02*
X7Y17D01*
X1514Y17D02*
X1540Y17D01*
X1566Y17D02*
X1573Y17D01*
X0Y16D02*
X7Y16D01*
X1514Y16D02*
X1538Y16D01*
X1566Y16D02*
X1573Y16D01*
X0Y15D02*
X7Y15D01*
X1566Y15D02*
X1573Y15D01*
X0Y14D02*
X7Y14D01*
X1566Y14D02*
X1573Y14D01*
X0Y13D02*
X7Y13D01*
X1566Y13D02*
X1573Y13D01*
X0Y12D02*
X7Y12D01*
X1566Y12D02*
X1573Y12D01*
X0Y11D02*
X7Y11D01*
X1566Y11D02*
X1573Y11D01*
X0Y10D02*
X7Y10D01*
X1566Y10D02*
X1573Y10D01*
X0Y9D02*
X1573Y9D01*
X0Y8D02*
X1573Y8D01*
X0Y7D02*
X1573Y7D01*
X0Y6D02*
X1573Y6D01*
X0Y5D02*
X1573Y5D01*
X0Y4D02*
X1573Y4D01*
X0Y3D02*
X1573Y3D01*
X0Y2D02*
X1573Y2D01*
D02*
G04 End of Silk0*
M02*