G04 MADE WITH FRITZING*
G04 WWW.FRITZING.ORG*
G04 DOUBLE SIDED*
G04 HOLES PLATED*
G04 CONTOUR ON CENTER OF CONTOUR VECTOR*
%ASAXBY*%
%FSLAX23Y23*%
%MOIN*%
%OFA0B0*%
%SFA1.0B1.0*%
%ADD10C,0.049370*%
%ADD11C,0.085000*%
%ADD12C,0.089370*%
%ADD13C,0.088000*%
%ADD14C,0.075000*%
%ADD15R,0.088000X0.088000*%
%LNMASK1*%
G90*
G70*
G54D10*
X865Y477D03*
X1565Y177D03*
X1065Y77D03*
X1265Y185D03*
X965Y1477D03*
X1565Y1577D03*
X1365Y1177D03*
X1465Y1077D03*
X865Y577D03*
X865Y177D03*
X365Y177D03*
X565Y977D03*
X365Y1477D03*
G54D11*
X565Y277D03*
X865Y277D03*
G54D10*
X665Y1377D03*
G54D11*
X965Y77D03*
X565Y77D03*
X965Y77D03*
X565Y77D03*
G54D10*
X365Y677D03*
G54D12*
X437Y1346D03*
X437Y1246D03*
X437Y1146D03*
X437Y1046D03*
X437Y946D03*
X437Y846D03*
X437Y746D03*
X437Y646D03*
X437Y546D03*
X437Y446D03*
X437Y346D03*
X437Y246D03*
X1137Y1346D03*
X1137Y1246D03*
X1137Y1146D03*
X1137Y1046D03*
X1137Y946D03*
X1137Y846D03*
X1137Y746D03*
X1137Y646D03*
X1137Y546D03*
X1137Y446D03*
X1137Y346D03*
X1137Y246D03*
G54D13*
X137Y146D03*
X237Y146D03*
X237Y1246D03*
X237Y1346D03*
X237Y1446D03*
G54D12*
X165Y277D03*
X165Y377D03*
X165Y477D03*
X165Y577D03*
X165Y677D03*
X165Y777D03*
X165Y877D03*
X165Y977D03*
X165Y1077D03*
G54D13*
X1465Y77D03*
X1365Y77D03*
X1265Y77D03*
X1465Y277D03*
X1365Y277D03*
X1265Y277D03*
X1465Y477D03*
X1365Y477D03*
X1265Y477D03*
G54D14*
X1365Y677D03*
X1365Y755D03*
X1365Y834D03*
X1365Y913D03*
G54D13*
X737Y1146D03*
X837Y1146D03*
X737Y1146D03*
X837Y1146D03*
G54D12*
X737Y946D03*
X837Y946D03*
X737Y946D03*
X837Y946D03*
G54D13*
X1437Y1446D03*
X1337Y1446D03*
G54D15*
X137Y146D03*
X1465Y77D03*
X1465Y277D03*
X1465Y477D03*
X1437Y1446D03*
G04 End of Mask1*
M02*