; NON-PLATED HOLES START AT T1
; THROUGH (PLATED) HOLES START AT T100
M48
INCH
T100C0.025000
T101C0.038000
T102C0.039370
%
T100
X008944Y002636
X006582Y002636
X007370Y002636
X008156Y002636
T101
X014370Y001636
X001370Y013636
X005370Y000636
X001370Y006636
X011370Y008636
X014370Y013636
X013370Y013636
X001370Y000636
X003370Y001636
X005370Y002636
X001370Y008636
X011370Y007636
X001370Y002636
X014370Y002636
X003370Y000636
X001370Y014636
X005370Y001636
X001370Y007636
X012370Y013636
X001370Y001636
X003370Y002636
T102
X013370Y004636
X006370Y014636
X007370Y011636
X009370Y008636
X007370Y004636
X010370Y011636
X004370Y014636
X006370Y011636
X010370Y004636
X006370Y004636
X003370Y014636
X004370Y011636
X004370Y004636
X003370Y011636
X003370Y004636
X009370Y007636
X009370Y011636
X009370Y004636
X012370Y011636
X008370Y011636
X012370Y004636
X008370Y004636
X011370Y011636
X005370Y014636
X011370Y004636
X005370Y011636
X005370Y004636
X002370Y011636
X002370Y004636
X013370Y011636
X007370Y014636
T00
M30
