; NON-PLATED HOLES START AT T1
; THROUGH (PLATED) HOLES START AT T100
M48
INCH
T100C0.035000
T101C0.025000
T102C0.039370
T103C0.038000
T104C0.015748
%
T100
X005648Y000765
X008648Y002765
X009648Y000765
X005648Y002765
T101
X013648Y007553
X013648Y008339
X013648Y009127
X013648Y006765
T102
X001648Y003765
X011365Y002459
X001648Y008765
X004365Y011459
X011365Y007459
X004365Y003459
X004365Y008459
X011365Y013459
X001648Y006765
X011365Y005459
X004365Y006459
X011365Y011459
X001648Y004765
X011365Y003459
X001648Y009765
X004365Y012459
X011365Y008459
X004365Y004459
X001648Y010765
X004365Y009459
X001648Y002765
X007365Y009459
X001648Y007765
X004365Y010459
X011365Y006459
X008365Y009459
X004365Y002459
X004365Y007459
X011365Y012459
X001648Y005765
X011365Y004459
X004365Y013459
X011365Y009459
X004365Y005459
X011365Y010459
T103
X013648Y004765
X008365Y011459
X002365Y014459
X012648Y002765
X014365Y014459
X002365Y001459
X013365Y014459
X014648Y000765
X001365Y001459
X013648Y000765
X012648Y004765
X002365Y013459
X007365Y011459
X014648Y002765
X013648Y002765
X002365Y012459
X014648Y004765
X012648Y000765
T104
X009648Y014765
X015648Y001765
X003648Y014765
X012645Y001848
X005648Y009765
X010648Y000765
X008648Y001765
X006648Y013765
X003648Y006765
X003648Y001765
X015648Y015765
X008648Y004765
X013648Y011765
X014648Y010765
X008648Y005765
T00
M30
