G04 MADE WITH FRITZING*
G04 WWW.FRITZING.ORG*
G04 DOUBLE SIDED*
G04 HOLES PLATED*
G04 CONTOUR ON CENTER OF CONTOUR VECTOR*
%ASAXBY*%
%FSLAX23Y23*%
%MOIN*%
%OFA0B0*%
%SFA1.0B1.0*%
%ADD10C,0.075000*%
%ADD11C,0.039370*%
%ADD12C,0.079370*%
%ADD13C,0.078000*%
%ADD14C,0.065000*%
%ADD15R,0.078000X0.078000*%
%ADD16C,0.024000*%
%ADD17R,0.001000X0.001000*%
%LNCOPPER0*%
G90*
G70*
G54D10*
X539Y268D03*
X839Y268D03*
G54D11*
X1139Y168D03*
G54D10*
X939Y68D03*
X539Y68D03*
X939Y68D03*
X539Y68D03*
G54D11*
X339Y668D03*
G54D12*
X411Y1337D03*
X411Y1237D03*
X411Y1137D03*
X411Y1037D03*
X411Y937D03*
X411Y837D03*
X411Y737D03*
X411Y637D03*
X411Y537D03*
X411Y437D03*
X411Y337D03*
X411Y237D03*
X1111Y1337D03*
X1111Y1237D03*
X1111Y1137D03*
X1111Y1037D03*
X1111Y937D03*
X1111Y837D03*
X1111Y737D03*
X1111Y637D03*
X1111Y537D03*
X1111Y437D03*
X1111Y337D03*
X1111Y237D03*
G54D13*
X111Y137D03*
X211Y137D03*
X211Y1237D03*
X211Y1337D03*
X211Y1437D03*
G54D12*
X139Y268D03*
X139Y368D03*
X139Y468D03*
X139Y568D03*
X139Y668D03*
X139Y768D03*
X139Y868D03*
X139Y968D03*
X139Y1068D03*
G54D13*
X1439Y468D03*
X1339Y468D03*
X1239Y468D03*
X1439Y668D03*
X1339Y668D03*
X1239Y668D03*
X1439Y868D03*
X1339Y868D03*
X1239Y868D03*
G54D14*
X1239Y268D03*
X1318Y268D03*
X1397Y268D03*
X1476Y268D03*
G54D13*
X711Y1137D03*
X811Y1137D03*
X711Y1137D03*
X811Y1137D03*
G54D12*
X711Y937D03*
X811Y937D03*
X711Y937D03*
X811Y937D03*
G54D13*
X1411Y1437D03*
X1311Y1437D03*
G54D15*
X111Y137D03*
X1439Y468D03*
X1439Y668D03*
X1439Y868D03*
X1411Y1437D03*
G54D16*
X922Y589D02*
X1096Y910D01*
D02*
X1023Y267D02*
X922Y589D01*
D02*
X639Y768D02*
X442Y741D01*
D02*
X922Y589D02*
X639Y768D01*
D02*
X340Y1166D02*
X229Y1313D01*
D02*
X339Y687D02*
X340Y1166D01*
D02*
X1139Y368D02*
X1239Y168D01*
D02*
X1239Y168D02*
X1338Y168D01*
D02*
X1338Y168D02*
X1385Y247D01*
D02*
X1132Y360D02*
X1139Y368D01*
D02*
X1338Y368D02*
X1457Y281D01*
D02*
X1239Y368D02*
X1338Y368D01*
D02*
X1138Y422D02*
X1239Y368D01*
D02*
X1142Y69D02*
X1140Y149D01*
D02*
X951Y94D02*
X1023Y267D01*
D02*
X1023Y267D02*
X1044Y507D01*
X1044Y507D02*
X1083Y524D01*
D02*
X239Y367D02*
X340Y567D01*
D02*
X239Y267D02*
X239Y367D01*
D02*
X340Y567D02*
X389Y616D01*
D02*
X218Y166D02*
X239Y267D01*
D02*
X1039Y1468D02*
X1281Y1440D01*
D02*
X439Y1468D02*
X1039Y1468D01*
D02*
X418Y1367D02*
X439Y1468D01*
D02*
X1339Y1267D02*
X1339Y898D01*
D02*
X1141Y1328D02*
X1339Y1267D01*
D02*
X1405Y68D02*
X1142Y69D01*
D02*
X1540Y68D02*
X1405Y68D01*
D02*
X1540Y368D02*
X1540Y68D01*
D02*
X1440Y368D02*
X1540Y368D01*
D02*
X1440Y437D02*
X1440Y368D01*
D02*
X117Y166D02*
X133Y237D01*
D02*
X1339Y698D02*
X1339Y837D01*
D02*
X1339Y637D02*
X1339Y498D01*
D02*
X1439Y837D02*
X1439Y698D01*
D02*
X1439Y637D02*
X1439Y498D01*
G54D17*
X207Y1249D02*
X214Y1249D01*
X205Y1248D02*
X216Y1248D01*
X203Y1247D02*
X218Y1247D01*
X202Y1246D02*
X219Y1246D01*
X201Y1245D02*
X220Y1245D01*
X201Y1244D02*
X220Y1244D01*
X200Y1243D02*
X221Y1243D01*
X200Y1242D02*
X221Y1242D01*
X199Y1241D02*
X222Y1241D01*
X199Y1240D02*
X222Y1240D01*
X199Y1239D02*
X222Y1239D01*
X199Y1238D02*
X222Y1238D01*
X199Y1237D02*
X222Y1237D01*
X199Y1236D02*
X222Y1236D01*
X199Y1235D02*
X222Y1235D01*
X199Y1234D02*
X222Y1234D01*
X199Y1233D02*
X222Y1233D01*
X199Y1232D02*
X222Y1232D01*
X199Y1231D02*
X222Y1231D01*
X199Y1230D02*
X222Y1230D01*
X199Y1229D02*
X222Y1229D01*
X199Y1228D02*
X222Y1228D01*
X199Y1227D02*
X222Y1227D01*
X199Y1226D02*
X222Y1226D01*
X199Y1225D02*
X222Y1225D01*
X199Y1224D02*
X222Y1224D01*
X199Y1223D02*
X222Y1223D01*
X199Y1222D02*
X222Y1222D01*
X199Y1221D02*
X222Y1221D01*
X199Y1220D02*
X222Y1220D01*
X199Y1219D02*
X222Y1219D01*
X199Y1218D02*
X222Y1218D01*
X199Y1217D02*
X222Y1217D01*
X199Y1216D02*
X222Y1216D01*
X199Y1215D02*
X222Y1215D01*
X199Y1214D02*
X222Y1214D01*
X199Y1213D02*
X222Y1213D01*
X199Y1212D02*
X222Y1212D01*
X199Y1211D02*
X222Y1211D01*
X199Y1210D02*
X222Y1210D01*
X199Y1209D02*
X222Y1209D01*
X199Y1208D02*
X222Y1208D01*
X199Y1207D02*
X222Y1207D01*
X199Y1206D02*
X222Y1206D01*
X199Y1205D02*
X222Y1205D01*
X199Y1204D02*
X222Y1204D01*
X199Y1203D02*
X222Y1203D01*
X199Y1202D02*
X222Y1202D01*
X199Y1201D02*
X222Y1201D01*
X199Y1200D02*
X222Y1200D01*
X199Y1199D02*
X222Y1199D01*
X199Y1198D02*
X222Y1198D01*
X199Y1197D02*
X222Y1197D01*
X199Y1196D02*
X222Y1196D01*
X199Y1195D02*
X222Y1195D01*
X199Y1194D02*
X222Y1194D01*
X199Y1193D02*
X222Y1193D01*
X199Y1192D02*
X222Y1192D01*
X199Y1191D02*
X222Y1191D01*
X199Y1190D02*
X222Y1190D01*
X199Y1189D02*
X222Y1189D01*
X199Y1188D02*
X222Y1188D01*
X199Y1187D02*
X222Y1187D01*
X199Y1186D02*
X222Y1186D01*
X199Y1185D02*
X222Y1185D01*
X199Y1184D02*
X222Y1184D01*
X199Y1183D02*
X222Y1183D01*
X199Y1182D02*
X222Y1182D01*
X199Y1181D02*
X222Y1181D01*
X199Y1180D02*
X222Y1180D01*
X199Y1179D02*
X222Y1179D01*
X199Y1178D02*
X222Y1178D01*
X199Y1177D02*
X222Y1177D01*
X199Y1176D02*
X222Y1176D01*
X199Y1175D02*
X222Y1175D01*
X199Y1174D02*
X222Y1174D01*
X199Y1173D02*
X222Y1173D01*
X199Y1172D02*
X222Y1172D01*
X199Y1171D02*
X222Y1171D01*
X199Y1170D02*
X222Y1170D01*
X199Y1169D02*
X222Y1169D01*
X199Y1168D02*
X222Y1168D01*
X199Y1167D02*
X222Y1167D01*
X199Y1166D02*
X222Y1166D01*
X199Y1165D02*
X222Y1165D01*
X199Y1164D02*
X222Y1164D01*
X199Y1163D02*
X222Y1163D01*
X199Y1162D02*
X222Y1162D01*
X199Y1161D02*
X222Y1161D01*
X199Y1160D02*
X222Y1160D01*
X199Y1159D02*
X222Y1159D01*
X199Y1158D02*
X222Y1158D01*
X199Y1157D02*
X222Y1157D01*
X199Y1156D02*
X222Y1156D01*
X199Y1155D02*
X222Y1155D01*
X199Y1154D02*
X222Y1154D01*
X199Y1153D02*
X222Y1153D01*
X199Y1152D02*
X222Y1152D01*
X199Y1151D02*
X222Y1151D01*
X199Y1150D02*
X222Y1150D01*
X199Y1149D02*
X222Y1149D01*
X199Y1148D02*
X222Y1148D01*
X199Y1147D02*
X222Y1147D01*
X199Y1146D02*
X222Y1146D01*
X199Y1145D02*
X222Y1145D01*
X199Y1144D02*
X222Y1144D01*
X199Y1143D02*
X222Y1143D01*
X199Y1142D02*
X222Y1142D01*
X199Y1141D02*
X222Y1141D01*
X199Y1140D02*
X222Y1140D01*
X199Y1139D02*
X222Y1139D01*
X199Y1138D02*
X222Y1138D01*
X199Y1137D02*
X222Y1137D01*
X199Y1136D02*
X222Y1136D01*
X199Y1135D02*
X222Y1135D01*
X199Y1134D02*
X222Y1134D01*
X199Y1133D02*
X222Y1133D01*
X199Y1132D02*
X222Y1132D01*
X199Y1131D02*
X222Y1131D01*
X199Y1130D02*
X222Y1130D01*
X199Y1129D02*
X222Y1129D01*
X199Y1128D02*
X222Y1128D01*
X199Y1127D02*
X222Y1127D01*
X199Y1126D02*
X222Y1126D01*
X199Y1125D02*
X222Y1125D01*
X199Y1124D02*
X222Y1124D01*
X199Y1123D02*
X222Y1123D01*
X199Y1122D02*
X222Y1122D01*
X199Y1121D02*
X222Y1121D01*
X199Y1120D02*
X222Y1120D01*
X199Y1119D02*
X222Y1119D01*
X199Y1118D02*
X222Y1118D01*
X199Y1117D02*
X222Y1117D01*
X199Y1116D02*
X222Y1116D01*
X199Y1115D02*
X222Y1115D01*
X199Y1114D02*
X222Y1114D01*
X199Y1113D02*
X222Y1113D01*
X199Y1112D02*
X222Y1112D01*
X199Y1111D02*
X222Y1111D01*
X199Y1110D02*
X222Y1110D01*
X199Y1109D02*
X222Y1109D01*
X199Y1108D02*
X222Y1108D01*
X199Y1107D02*
X222Y1107D01*
X199Y1106D02*
X222Y1106D01*
X199Y1105D02*
X222Y1105D01*
X199Y1104D02*
X222Y1104D01*
X199Y1103D02*
X222Y1103D01*
X199Y1102D02*
X222Y1102D01*
X199Y1101D02*
X222Y1101D01*
X199Y1100D02*
X222Y1100D01*
X199Y1099D02*
X222Y1099D01*
X199Y1098D02*
X222Y1098D01*
X199Y1097D02*
X222Y1097D01*
X199Y1096D02*
X222Y1096D01*
X199Y1095D02*
X222Y1095D01*
X199Y1094D02*
X222Y1094D01*
X199Y1093D02*
X222Y1093D01*
X199Y1092D02*
X222Y1092D01*
X199Y1091D02*
X222Y1091D01*
X199Y1090D02*
X222Y1090D01*
X199Y1089D02*
X222Y1089D01*
X199Y1088D02*
X222Y1088D01*
X199Y1087D02*
X222Y1087D01*
X199Y1086D02*
X222Y1086D01*
X199Y1085D02*
X222Y1085D01*
X199Y1084D02*
X222Y1084D01*
X199Y1083D02*
X222Y1083D01*
X199Y1082D02*
X222Y1082D01*
X199Y1081D02*
X222Y1081D01*
X199Y1080D02*
X222Y1080D01*
X199Y1079D02*
X222Y1079D01*
X199Y1078D02*
X222Y1078D01*
X199Y1077D02*
X222Y1077D01*
X199Y1076D02*
X222Y1076D01*
X199Y1075D02*
X222Y1075D01*
X199Y1074D02*
X222Y1074D01*
X199Y1073D02*
X222Y1073D01*
X199Y1072D02*
X222Y1072D01*
X199Y1071D02*
X222Y1071D01*
X199Y1070D02*
X222Y1070D01*
X199Y1069D02*
X222Y1069D01*
X199Y1068D02*
X222Y1068D01*
X199Y1067D02*
X222Y1067D01*
X199Y1066D02*
X222Y1066D01*
X199Y1065D02*
X222Y1065D01*
X199Y1064D02*
X222Y1064D01*
X199Y1063D02*
X222Y1063D01*
X199Y1062D02*
X222Y1062D01*
X199Y1061D02*
X222Y1061D01*
X199Y1060D02*
X222Y1060D01*
X199Y1059D02*
X222Y1059D01*
X199Y1058D02*
X222Y1058D01*
X199Y1057D02*
X222Y1057D01*
X199Y1056D02*
X222Y1056D01*
X199Y1055D02*
X222Y1055D01*
X199Y1054D02*
X222Y1054D01*
X199Y1053D02*
X222Y1053D01*
X199Y1052D02*
X222Y1052D01*
X199Y1051D02*
X222Y1051D01*
X199Y1050D02*
X222Y1050D01*
X199Y1049D02*
X222Y1049D01*
X199Y1048D02*
X222Y1048D01*
X199Y1047D02*
X222Y1047D01*
X199Y1046D02*
X222Y1046D01*
X199Y1045D02*
X222Y1045D01*
X199Y1044D02*
X222Y1044D01*
X199Y1043D02*
X222Y1043D01*
X199Y1042D02*
X222Y1042D01*
X199Y1041D02*
X222Y1041D01*
X199Y1040D02*
X222Y1040D01*
X199Y1039D02*
X222Y1039D01*
X199Y1038D02*
X222Y1038D01*
X199Y1037D02*
X222Y1037D01*
X199Y1036D02*
X222Y1036D01*
X199Y1035D02*
X222Y1035D01*
X199Y1034D02*
X222Y1034D01*
X199Y1033D02*
X222Y1033D01*
X199Y1032D02*
X222Y1032D01*
X199Y1031D02*
X222Y1031D01*
X199Y1030D02*
X222Y1030D01*
X199Y1029D02*
X222Y1029D01*
X199Y1028D02*
X222Y1028D01*
X199Y1027D02*
X222Y1027D01*
X199Y1026D02*
X222Y1026D01*
X199Y1025D02*
X222Y1025D01*
X199Y1024D02*
X222Y1024D01*
X199Y1023D02*
X222Y1023D01*
X199Y1022D02*
X222Y1022D01*
X199Y1021D02*
X222Y1021D01*
X199Y1020D02*
X222Y1020D01*
X199Y1019D02*
X222Y1019D01*
X199Y1018D02*
X222Y1018D01*
X199Y1017D02*
X222Y1017D01*
X199Y1016D02*
X222Y1016D01*
X199Y1015D02*
X222Y1015D01*
X199Y1014D02*
X222Y1014D01*
X199Y1013D02*
X222Y1013D01*
X199Y1012D02*
X222Y1012D01*
X199Y1011D02*
X222Y1011D01*
X199Y1010D02*
X222Y1010D01*
X199Y1009D02*
X222Y1009D01*
X199Y1008D02*
X222Y1008D01*
X199Y1007D02*
X222Y1007D01*
X199Y1006D02*
X222Y1006D01*
X199Y1005D02*
X222Y1005D01*
X199Y1004D02*
X222Y1004D01*
X199Y1003D02*
X222Y1003D01*
X199Y1002D02*
X222Y1002D01*
X199Y1001D02*
X222Y1001D01*
X199Y1000D02*
X222Y1000D01*
X199Y999D02*
X222Y999D01*
X199Y998D02*
X222Y998D01*
X199Y997D02*
X222Y997D01*
X199Y996D02*
X222Y996D01*
X199Y995D02*
X222Y995D01*
X199Y994D02*
X222Y994D01*
X199Y993D02*
X222Y993D01*
X199Y992D02*
X222Y992D01*
X199Y991D02*
X222Y991D01*
X199Y990D02*
X222Y990D01*
X199Y989D02*
X222Y989D01*
X199Y988D02*
X222Y988D01*
X199Y987D02*
X222Y987D01*
X199Y986D02*
X222Y986D01*
X199Y985D02*
X222Y985D01*
X199Y984D02*
X222Y984D01*
X199Y983D02*
X222Y983D01*
X199Y982D02*
X222Y982D01*
X199Y981D02*
X222Y981D01*
X199Y980D02*
X222Y980D01*
X199Y979D02*
X222Y979D01*
X199Y978D02*
X222Y978D01*
X199Y977D02*
X222Y977D01*
X199Y976D02*
X222Y976D01*
X199Y975D02*
X222Y975D01*
X199Y974D02*
X222Y974D01*
X199Y973D02*
X222Y973D01*
X199Y972D02*
X222Y972D01*
X199Y971D02*
X222Y971D01*
X199Y970D02*
X222Y970D01*
X199Y969D02*
X222Y969D01*
X199Y968D02*
X222Y968D01*
X199Y967D02*
X222Y967D01*
X199Y966D02*
X222Y966D01*
X199Y965D02*
X222Y965D01*
X199Y964D02*
X222Y964D01*
X199Y963D02*
X222Y963D01*
X199Y962D02*
X222Y962D01*
X199Y961D02*
X222Y961D01*
X199Y960D02*
X222Y960D01*
X199Y959D02*
X222Y959D01*
X199Y958D02*
X222Y958D01*
X199Y957D02*
X222Y957D01*
X199Y956D02*
X222Y956D01*
X199Y955D02*
X222Y955D01*
X199Y954D02*
X222Y954D01*
X199Y953D02*
X222Y953D01*
X199Y952D02*
X222Y952D01*
X199Y951D02*
X222Y951D01*
X199Y950D02*
X222Y950D01*
X199Y949D02*
X222Y949D01*
X199Y948D02*
X222Y948D01*
X199Y947D02*
X222Y947D01*
X199Y946D02*
X222Y946D01*
X199Y945D02*
X222Y945D01*
X199Y944D02*
X222Y944D01*
X199Y943D02*
X222Y943D01*
X199Y942D02*
X222Y942D01*
X199Y941D02*
X222Y941D01*
X199Y940D02*
X222Y940D01*
X199Y939D02*
X222Y939D01*
X199Y938D02*
X222Y938D01*
X199Y937D02*
X222Y937D01*
X199Y936D02*
X222Y936D01*
X199Y935D02*
X222Y935D01*
X199Y934D02*
X222Y934D01*
X199Y933D02*
X222Y933D01*
X199Y932D02*
X222Y932D01*
X199Y931D02*
X222Y931D01*
X199Y930D02*
X222Y930D01*
X199Y929D02*
X222Y929D01*
X199Y928D02*
X222Y928D01*
X199Y927D02*
X222Y927D01*
X199Y926D02*
X222Y926D01*
X199Y925D02*
X222Y925D01*
X199Y924D02*
X222Y924D01*
X199Y923D02*
X222Y923D01*
X199Y922D02*
X222Y922D01*
X199Y921D02*
X222Y921D01*
X199Y920D02*
X222Y920D01*
X199Y919D02*
X222Y919D01*
X199Y918D02*
X222Y918D01*
X199Y917D02*
X222Y917D01*
X199Y916D02*
X222Y916D01*
X199Y915D02*
X222Y915D01*
X199Y914D02*
X222Y914D01*
X199Y913D02*
X222Y913D01*
X199Y912D02*
X222Y912D01*
X199Y911D02*
X222Y911D01*
X199Y910D02*
X222Y910D01*
X199Y909D02*
X222Y909D01*
X199Y908D02*
X222Y908D01*
X199Y907D02*
X222Y907D01*
X199Y906D02*
X222Y906D01*
X199Y905D02*
X222Y905D01*
X199Y904D02*
X222Y904D01*
X199Y903D02*
X222Y903D01*
X199Y902D02*
X222Y902D01*
X199Y901D02*
X222Y901D01*
X199Y900D02*
X222Y900D01*
X199Y899D02*
X222Y899D01*
X199Y898D02*
X222Y898D01*
X199Y897D02*
X222Y897D01*
X199Y896D02*
X222Y896D01*
X199Y895D02*
X222Y895D01*
X199Y894D02*
X222Y894D01*
X199Y893D02*
X222Y893D01*
X199Y892D02*
X222Y892D01*
X199Y891D02*
X222Y891D01*
X199Y890D02*
X222Y890D01*
X199Y889D02*
X222Y889D01*
X199Y888D02*
X222Y888D01*
X199Y887D02*
X222Y887D01*
X199Y886D02*
X222Y886D01*
X199Y885D02*
X222Y885D01*
X199Y884D02*
X222Y884D01*
X199Y883D02*
X222Y883D01*
X199Y882D02*
X222Y882D01*
X199Y881D02*
X222Y881D01*
X199Y880D02*
X222Y880D01*
X199Y879D02*
X222Y879D01*
X199Y878D02*
X222Y878D01*
X199Y877D02*
X222Y877D01*
X199Y876D02*
X222Y876D01*
X199Y875D02*
X222Y875D01*
X199Y874D02*
X222Y874D01*
X199Y873D02*
X222Y873D01*
X199Y872D02*
X222Y872D01*
X199Y871D02*
X222Y871D01*
X199Y870D02*
X222Y870D01*
X199Y869D02*
X222Y869D01*
X199Y868D02*
X222Y868D01*
X199Y867D02*
X222Y867D01*
X199Y866D02*
X222Y866D01*
X199Y865D02*
X222Y865D01*
X199Y864D02*
X222Y864D01*
X199Y863D02*
X222Y863D01*
X199Y862D02*
X222Y862D01*
X199Y861D02*
X222Y861D01*
X199Y860D02*
X222Y860D01*
X199Y859D02*
X222Y859D01*
X199Y858D02*
X222Y858D01*
X199Y857D02*
X222Y857D01*
X199Y856D02*
X222Y856D01*
X199Y855D02*
X222Y855D01*
X199Y854D02*
X222Y854D01*
X199Y853D02*
X222Y853D01*
X199Y852D02*
X222Y852D01*
X199Y851D02*
X222Y851D01*
X199Y850D02*
X222Y850D01*
X199Y849D02*
X222Y849D01*
X199Y848D02*
X222Y848D01*
X199Y847D02*
X222Y847D01*
X199Y846D02*
X222Y846D01*
X199Y845D02*
X222Y845D01*
X199Y844D02*
X222Y844D01*
X199Y843D02*
X222Y843D01*
X199Y842D02*
X222Y842D01*
X199Y841D02*
X222Y841D01*
X199Y840D02*
X222Y840D01*
X199Y839D02*
X222Y839D01*
X199Y838D02*
X222Y838D01*
X199Y837D02*
X222Y837D01*
X199Y836D02*
X222Y836D01*
X199Y835D02*
X222Y835D01*
X199Y834D02*
X222Y834D01*
X199Y833D02*
X222Y833D01*
X199Y832D02*
X222Y832D01*
X199Y831D02*
X222Y831D01*
X199Y830D02*
X222Y830D01*
X199Y829D02*
X222Y829D01*
X199Y828D02*
X222Y828D01*
X199Y827D02*
X222Y827D01*
X199Y826D02*
X222Y826D01*
X199Y825D02*
X222Y825D01*
X199Y824D02*
X222Y824D01*
X199Y823D02*
X222Y823D01*
X199Y822D02*
X222Y822D01*
X199Y821D02*
X222Y821D01*
X199Y820D02*
X222Y820D01*
X199Y819D02*
X222Y819D01*
X199Y818D02*
X222Y818D01*
X199Y817D02*
X222Y817D01*
X199Y816D02*
X222Y816D01*
X199Y815D02*
X222Y815D01*
X199Y814D02*
X222Y814D01*
X199Y813D02*
X222Y813D01*
X199Y812D02*
X222Y812D01*
X199Y811D02*
X222Y811D01*
X199Y810D02*
X222Y810D01*
X199Y809D02*
X222Y809D01*
X199Y808D02*
X222Y808D01*
X199Y807D02*
X222Y807D01*
X199Y806D02*
X222Y806D01*
X199Y805D02*
X222Y805D01*
X199Y804D02*
X222Y804D01*
X199Y803D02*
X222Y803D01*
X199Y802D02*
X222Y802D01*
X199Y801D02*
X222Y801D01*
X199Y800D02*
X222Y800D01*
X199Y799D02*
X222Y799D01*
X199Y798D02*
X222Y798D01*
X199Y797D02*
X222Y797D01*
X199Y796D02*
X222Y796D01*
X199Y795D02*
X222Y795D01*
X199Y794D02*
X222Y794D01*
X199Y793D02*
X222Y793D01*
X199Y792D02*
X222Y792D01*
X199Y791D02*
X222Y791D01*
X199Y790D02*
X222Y790D01*
X199Y789D02*
X222Y789D01*
X199Y788D02*
X222Y788D01*
X199Y787D02*
X222Y787D01*
X199Y786D02*
X222Y786D01*
X199Y785D02*
X222Y785D01*
X199Y784D02*
X222Y784D01*
X199Y783D02*
X222Y783D01*
X199Y782D02*
X222Y782D01*
X199Y781D02*
X222Y781D01*
X199Y780D02*
X222Y780D01*
X199Y779D02*
X222Y779D01*
X199Y778D02*
X222Y778D01*
X199Y777D02*
X222Y777D01*
X199Y776D02*
X222Y776D01*
X199Y775D02*
X222Y775D01*
X199Y774D02*
X222Y774D01*
X199Y773D02*
X222Y773D01*
X199Y772D02*
X222Y772D01*
X199Y771D02*
X222Y771D01*
X199Y770D02*
X222Y770D01*
X199Y769D02*
X222Y769D01*
X199Y768D02*
X222Y768D01*
X199Y767D02*
X222Y767D01*
X199Y766D02*
X222Y766D01*
X199Y765D02*
X222Y765D01*
X199Y764D02*
X222Y764D01*
X199Y763D02*
X222Y763D01*
X199Y762D02*
X222Y762D01*
X199Y761D02*
X222Y761D01*
X199Y760D02*
X222Y760D01*
X199Y759D02*
X222Y759D01*
X199Y758D02*
X222Y758D01*
X199Y757D02*
X222Y757D01*
X199Y756D02*
X222Y756D01*
X199Y755D02*
X222Y755D01*
X199Y754D02*
X222Y754D01*
X199Y753D02*
X222Y753D01*
X199Y752D02*
X222Y752D01*
X199Y751D02*
X222Y751D01*
X199Y750D02*
X222Y750D01*
X199Y749D02*
X222Y749D01*
X199Y748D02*
X222Y748D01*
X199Y747D02*
X222Y747D01*
X199Y746D02*
X222Y746D01*
X199Y745D02*
X222Y745D01*
X199Y744D02*
X222Y744D01*
X199Y743D02*
X222Y743D01*
X199Y742D02*
X222Y742D01*
X199Y741D02*
X222Y741D01*
X199Y740D02*
X222Y740D01*
X199Y739D02*
X222Y739D01*
X199Y738D02*
X222Y738D01*
X199Y737D02*
X222Y737D01*
X199Y736D02*
X222Y736D01*
X199Y735D02*
X222Y735D01*
X199Y734D02*
X222Y734D01*
X199Y733D02*
X222Y733D01*
X199Y732D02*
X222Y732D01*
X199Y731D02*
X222Y731D01*
X199Y730D02*
X222Y730D01*
X199Y729D02*
X222Y729D01*
X199Y728D02*
X222Y728D01*
X199Y727D02*
X222Y727D01*
X199Y726D02*
X222Y726D01*
X199Y725D02*
X222Y725D01*
X199Y724D02*
X222Y724D01*
X199Y723D02*
X222Y723D01*
X199Y722D02*
X222Y722D01*
X199Y721D02*
X222Y721D01*
X199Y720D02*
X222Y720D01*
X199Y719D02*
X222Y719D01*
X199Y718D02*
X222Y718D01*
X199Y717D02*
X222Y717D01*
X199Y716D02*
X222Y716D01*
X199Y715D02*
X222Y715D01*
X199Y714D02*
X222Y714D01*
X199Y713D02*
X222Y713D01*
X199Y712D02*
X222Y712D01*
X199Y711D02*
X222Y711D01*
X199Y710D02*
X222Y710D01*
X199Y709D02*
X222Y709D01*
X199Y708D02*
X222Y708D01*
X199Y707D02*
X222Y707D01*
X199Y706D02*
X222Y706D01*
X199Y705D02*
X222Y705D01*
X199Y704D02*
X222Y704D01*
X199Y703D02*
X222Y703D01*
X199Y702D02*
X222Y702D01*
X199Y701D02*
X222Y701D01*
X199Y700D02*
X222Y700D01*
X199Y699D02*
X222Y699D01*
X199Y698D02*
X222Y698D01*
X199Y697D02*
X222Y697D01*
X199Y696D02*
X222Y696D01*
X199Y695D02*
X222Y695D01*
X199Y694D02*
X222Y694D01*
X199Y693D02*
X222Y693D01*
X199Y692D02*
X222Y692D01*
X199Y691D02*
X222Y691D01*
X199Y690D02*
X222Y690D01*
X199Y689D02*
X222Y689D01*
X199Y688D02*
X222Y688D01*
X199Y687D02*
X222Y687D01*
X199Y686D02*
X222Y686D01*
X199Y685D02*
X222Y685D01*
X199Y684D02*
X222Y684D01*
X199Y683D02*
X222Y683D01*
X199Y682D02*
X222Y682D01*
X199Y681D02*
X222Y681D01*
X199Y680D02*
X222Y680D01*
X199Y679D02*
X222Y679D01*
X199Y678D02*
X222Y678D01*
X199Y677D02*
X222Y677D01*
X199Y676D02*
X222Y676D01*
X199Y675D02*
X222Y675D01*
X199Y674D02*
X222Y674D01*
X199Y673D02*
X222Y673D01*
X199Y672D02*
X222Y672D01*
X199Y671D02*
X222Y671D01*
X199Y670D02*
X222Y670D01*
X199Y669D02*
X222Y669D01*
X199Y668D02*
X222Y668D01*
X199Y667D02*
X222Y667D01*
X199Y666D02*
X222Y666D01*
X199Y665D02*
X222Y665D01*
X199Y664D02*
X222Y664D01*
X199Y663D02*
X222Y663D01*
X199Y662D02*
X222Y662D01*
X199Y661D02*
X222Y661D01*
X199Y660D02*
X222Y660D01*
X199Y659D02*
X222Y659D01*
X199Y658D02*
X222Y658D01*
X199Y657D02*
X222Y657D01*
X199Y656D02*
X222Y656D01*
X199Y655D02*
X222Y655D01*
X199Y654D02*
X222Y654D01*
X199Y653D02*
X222Y653D01*
X199Y652D02*
X222Y652D01*
X199Y651D02*
X222Y651D01*
X199Y650D02*
X222Y650D01*
X199Y649D02*
X222Y649D01*
X199Y648D02*
X222Y648D01*
X199Y647D02*
X222Y647D01*
X199Y646D02*
X222Y646D01*
X199Y645D02*
X222Y645D01*
X199Y644D02*
X222Y644D01*
X199Y643D02*
X222Y643D01*
X199Y642D02*
X222Y642D01*
X199Y641D02*
X222Y641D01*
X199Y640D02*
X222Y640D01*
X199Y639D02*
X222Y639D01*
X199Y638D02*
X222Y638D01*
X199Y637D02*
X222Y637D01*
X199Y636D02*
X222Y636D01*
X199Y635D02*
X222Y635D01*
X199Y634D02*
X222Y634D01*
X199Y633D02*
X222Y633D01*
X199Y632D02*
X222Y632D01*
X199Y631D02*
X222Y631D01*
X199Y630D02*
X222Y630D01*
X199Y629D02*
X222Y629D01*
X199Y628D02*
X222Y628D01*
X199Y627D02*
X222Y627D01*
X199Y626D02*
X222Y626D01*
X199Y625D02*
X222Y625D01*
X199Y624D02*
X222Y624D01*
X199Y623D02*
X222Y623D01*
X199Y622D02*
X222Y622D01*
X199Y621D02*
X222Y621D01*
X199Y620D02*
X222Y620D01*
X199Y619D02*
X222Y619D01*
X199Y618D02*
X222Y618D01*
X199Y617D02*
X222Y617D01*
X199Y616D02*
X222Y616D01*
X199Y615D02*
X222Y615D01*
X199Y614D02*
X222Y614D01*
X199Y613D02*
X222Y613D01*
X199Y612D02*
X222Y612D01*
X199Y611D02*
X222Y611D01*
X199Y610D02*
X222Y610D01*
X199Y609D02*
X222Y609D01*
X199Y608D02*
X222Y608D01*
X199Y607D02*
X222Y607D01*
X199Y606D02*
X222Y606D01*
X199Y605D02*
X222Y605D01*
X199Y604D02*
X222Y604D01*
X199Y603D02*
X222Y603D01*
X199Y602D02*
X222Y602D01*
X199Y601D02*
X222Y601D01*
X199Y600D02*
X222Y600D01*
X199Y599D02*
X222Y599D01*
X199Y598D02*
X222Y598D01*
X199Y597D02*
X222Y597D01*
X199Y596D02*
X222Y596D01*
X199Y595D02*
X222Y595D01*
X199Y594D02*
X222Y594D01*
X199Y593D02*
X222Y593D01*
X199Y592D02*
X222Y592D01*
X199Y591D02*
X222Y591D01*
X199Y590D02*
X222Y590D01*
X199Y589D02*
X222Y589D01*
X199Y588D02*
X222Y588D01*
X199Y587D02*
X222Y587D01*
X199Y586D02*
X222Y586D01*
X199Y585D02*
X222Y585D01*
X199Y584D02*
X222Y584D01*
X199Y583D02*
X222Y583D01*
X199Y582D02*
X222Y582D01*
X199Y581D02*
X222Y581D01*
X199Y580D02*
X222Y580D01*
X199Y579D02*
X222Y579D01*
X199Y578D02*
X222Y578D01*
X199Y577D02*
X222Y577D01*
X199Y576D02*
X222Y576D01*
X199Y575D02*
X222Y575D01*
X199Y574D02*
X222Y574D01*
X199Y573D02*
X222Y573D01*
X199Y572D02*
X222Y572D01*
X199Y571D02*
X222Y571D01*
X199Y570D02*
X222Y570D01*
X199Y569D02*
X222Y569D01*
X199Y568D02*
X222Y568D01*
X199Y567D02*
X222Y567D01*
X199Y566D02*
X222Y566D01*
X199Y565D02*
X222Y565D01*
X199Y564D02*
X222Y564D01*
X199Y563D02*
X222Y563D01*
X199Y562D02*
X222Y562D01*
X199Y561D02*
X222Y561D01*
X199Y560D02*
X222Y560D01*
X199Y559D02*
X222Y559D01*
X199Y558D02*
X222Y558D01*
X199Y557D02*
X222Y557D01*
X199Y556D02*
X222Y556D01*
X199Y555D02*
X222Y555D01*
X199Y554D02*
X222Y554D01*
X199Y553D02*
X222Y553D01*
X199Y552D02*
X222Y552D01*
X199Y551D02*
X222Y551D01*
X199Y550D02*
X222Y550D01*
X199Y549D02*
X222Y549D01*
X199Y548D02*
X222Y548D01*
X199Y547D02*
X222Y547D01*
X199Y546D02*
X222Y546D01*
X199Y545D02*
X222Y545D01*
X199Y544D02*
X222Y544D01*
X199Y543D02*
X222Y543D01*
X199Y542D02*
X222Y542D01*
X199Y541D02*
X222Y541D01*
X199Y540D02*
X222Y540D01*
X199Y539D02*
X222Y539D01*
X199Y538D02*
X222Y538D01*
X199Y537D02*
X222Y537D01*
X199Y536D02*
X222Y536D01*
X199Y535D02*
X222Y535D01*
X199Y534D02*
X222Y534D01*
X199Y533D02*
X222Y533D01*
X199Y532D02*
X222Y532D01*
X199Y531D02*
X222Y531D01*
X199Y530D02*
X222Y530D01*
X199Y529D02*
X222Y529D01*
X199Y528D02*
X222Y528D01*
X199Y527D02*
X222Y527D01*
X199Y526D02*
X222Y526D01*
X199Y525D02*
X222Y525D01*
X199Y524D02*
X222Y524D01*
X199Y523D02*
X222Y523D01*
X199Y522D02*
X222Y522D01*
X199Y521D02*
X222Y521D01*
X199Y520D02*
X222Y520D01*
X199Y519D02*
X222Y519D01*
X199Y518D02*
X222Y518D01*
X199Y517D02*
X222Y517D01*
X199Y516D02*
X222Y516D01*
X199Y515D02*
X222Y515D01*
X199Y514D02*
X222Y514D01*
X199Y513D02*
X222Y513D01*
X199Y512D02*
X222Y512D01*
X199Y511D02*
X222Y511D01*
X199Y510D02*
X222Y510D01*
X199Y509D02*
X222Y509D01*
X199Y508D02*
X222Y508D01*
X199Y507D02*
X222Y507D01*
X199Y506D02*
X222Y506D01*
X199Y505D02*
X222Y505D01*
X199Y504D02*
X222Y504D01*
X199Y503D02*
X222Y503D01*
X199Y502D02*
X222Y502D01*
X199Y501D02*
X222Y501D01*
X199Y500D02*
X222Y500D01*
X199Y499D02*
X222Y499D01*
X199Y498D02*
X222Y498D01*
X199Y497D02*
X222Y497D01*
X199Y496D02*
X222Y496D01*
X199Y495D02*
X222Y495D01*
X199Y494D02*
X222Y494D01*
X199Y493D02*
X222Y493D01*
X199Y492D02*
X222Y492D01*
X199Y491D02*
X222Y491D01*
X199Y490D02*
X222Y490D01*
X199Y489D02*
X222Y489D01*
X199Y488D02*
X222Y488D01*
X199Y487D02*
X222Y487D01*
X199Y486D02*
X222Y486D01*
X199Y485D02*
X222Y485D01*
X199Y484D02*
X222Y484D01*
X199Y483D02*
X222Y483D01*
X199Y482D02*
X222Y482D01*
X199Y481D02*
X222Y481D01*
X199Y480D02*
X222Y480D01*
X199Y479D02*
X222Y479D01*
X199Y478D02*
X222Y478D01*
X199Y477D02*
X222Y477D01*
X199Y476D02*
X222Y476D01*
X199Y475D02*
X222Y475D01*
X199Y474D02*
X222Y474D01*
X199Y473D02*
X222Y473D01*
X199Y472D02*
X222Y472D01*
X199Y471D02*
X222Y471D01*
X199Y470D02*
X222Y470D01*
X199Y469D02*
X222Y469D01*
X199Y468D02*
X222Y468D01*
X199Y467D02*
X222Y467D01*
X199Y466D02*
X222Y466D01*
X199Y465D02*
X222Y465D01*
X199Y464D02*
X222Y464D01*
X199Y463D02*
X222Y463D01*
X199Y462D02*
X222Y462D01*
X199Y461D02*
X222Y461D01*
X199Y460D02*
X222Y460D01*
X199Y459D02*
X222Y459D01*
X199Y458D02*
X222Y458D01*
X199Y457D02*
X222Y457D01*
X199Y456D02*
X222Y456D01*
X199Y455D02*
X222Y455D01*
X199Y454D02*
X222Y454D01*
X199Y453D02*
X222Y453D01*
X199Y452D02*
X222Y452D01*
X199Y451D02*
X222Y451D01*
X199Y450D02*
X222Y450D01*
X199Y449D02*
X222Y449D01*
X199Y448D02*
X222Y448D01*
X199Y447D02*
X222Y447D01*
X199Y446D02*
X222Y446D01*
X199Y445D02*
X222Y445D01*
X199Y444D02*
X222Y444D01*
X199Y443D02*
X222Y443D01*
X199Y442D02*
X222Y442D01*
X199Y441D02*
X222Y441D01*
X199Y440D02*
X222Y440D01*
X198Y439D02*
X222Y439D01*
X198Y438D02*
X222Y438D01*
X197Y437D02*
X222Y437D01*
X197Y436D02*
X222Y436D01*
X197Y435D02*
X221Y435D01*
X196Y434D02*
X221Y434D01*
X196Y433D02*
X221Y433D01*
X195Y432D02*
X220Y432D01*
X195Y431D02*
X220Y431D01*
X194Y430D02*
X220Y430D01*
X194Y429D02*
X219Y429D01*
X194Y428D02*
X219Y428D01*
X193Y427D02*
X218Y427D01*
X193Y426D02*
X218Y426D01*
X192Y425D02*
X217Y425D01*
X192Y424D02*
X217Y424D01*
X191Y423D02*
X217Y423D01*
X191Y422D02*
X216Y422D01*
X191Y421D02*
X216Y421D01*
X190Y420D02*
X215Y420D01*
X190Y419D02*
X215Y419D01*
X189Y418D02*
X214Y418D01*
X189Y417D02*
X214Y417D01*
X189Y416D02*
X214Y416D01*
X188Y415D02*
X213Y415D01*
X188Y414D02*
X213Y414D01*
X187Y413D02*
X212Y413D01*
X187Y412D02*
X212Y412D01*
X186Y411D02*
X211Y411D01*
X186Y410D02*
X211Y410D01*
X186Y409D02*
X211Y409D01*
X185Y408D02*
X210Y408D01*
X185Y407D02*
X210Y407D01*
X184Y406D02*
X209Y406D01*
X184Y405D02*
X209Y405D01*
X183Y404D02*
X209Y404D01*
X183Y403D02*
X208Y403D01*
X183Y402D02*
X208Y402D01*
X182Y401D02*
X207Y401D01*
X182Y400D02*
X207Y400D01*
X181Y399D02*
X206Y399D01*
X181Y398D02*
X206Y398D01*
X180Y397D02*
X206Y397D01*
X180Y396D02*
X205Y396D01*
X180Y395D02*
X205Y395D01*
X179Y394D02*
X204Y394D01*
X179Y393D02*
X204Y393D01*
X178Y392D02*
X203Y392D01*
X178Y391D02*
X203Y391D01*
X178Y390D02*
X203Y390D01*
X177Y389D02*
X202Y389D01*
X177Y388D02*
X202Y388D01*
X176Y387D02*
X201Y387D01*
X176Y386D02*
X201Y386D01*
X175Y385D02*
X200Y385D01*
X175Y384D02*
X200Y384D01*
X175Y383D02*
X200Y383D01*
X174Y382D02*
X199Y382D01*
X174Y381D02*
X199Y381D01*
X173Y380D02*
X198Y380D01*
X173Y379D02*
X198Y379D01*
X172Y378D02*
X198Y378D01*
X172Y377D02*
X197Y377D01*
X172Y376D02*
X197Y376D01*
X171Y375D02*
X196Y375D01*
X171Y374D02*
X196Y374D01*
X170Y373D02*
X195Y373D01*
X170Y372D02*
X195Y372D01*
X169Y371D02*
X195Y371D01*
X169Y370D02*
X194Y370D01*
X169Y369D02*
X194Y369D01*
X168Y368D02*
X193Y368D01*
X168Y367D02*
X193Y367D01*
X167Y366D02*
X192Y366D01*
X167Y365D02*
X192Y365D01*
X167Y364D02*
X192Y364D01*
X166Y363D02*
X191Y363D01*
X166Y362D02*
X191Y362D01*
X165Y361D02*
X190Y361D01*
X165Y360D02*
X190Y360D01*
X164Y359D02*
X189Y359D01*
X164Y358D02*
X189Y358D01*
X164Y357D02*
X189Y357D01*
X163Y356D02*
X188Y356D01*
X163Y355D02*
X188Y355D01*
X162Y354D02*
X187Y354D01*
X162Y353D02*
X187Y353D01*
X161Y352D02*
X187Y352D01*
X161Y351D02*
X186Y351D01*
X161Y350D02*
X186Y350D01*
X160Y349D02*
X185Y349D01*
X160Y348D02*
X185Y348D01*
X159Y347D02*
X184Y347D01*
X159Y346D02*
X184Y346D01*
X159Y345D02*
X184Y345D01*
X158Y344D02*
X183Y344D01*
X158Y343D02*
X183Y343D01*
X157Y342D02*
X182Y342D01*
X157Y341D02*
X182Y341D01*
X156Y340D02*
X181Y340D01*
X156Y339D02*
X181Y339D01*
X156Y338D02*
X181Y338D01*
X155Y337D02*
X180Y337D01*
X155Y336D02*
X180Y336D01*
X154Y335D02*
X179Y335D01*
X154Y334D02*
X179Y334D01*
X153Y333D02*
X178Y333D01*
X153Y332D02*
X178Y332D01*
X153Y331D02*
X178Y331D01*
X152Y330D02*
X177Y330D01*
X152Y329D02*
X177Y329D01*
X151Y328D02*
X176Y328D01*
X151Y327D02*
X176Y327D01*
X150Y326D02*
X176Y326D01*
X150Y325D02*
X175Y325D01*
X150Y324D02*
X175Y324D01*
X149Y323D02*
X174Y323D01*
X149Y322D02*
X174Y322D01*
X148Y321D02*
X173Y321D01*
X148Y320D02*
X173Y320D01*
X148Y319D02*
X173Y319D01*
X147Y318D02*
X172Y318D01*
X147Y317D02*
X172Y317D01*
X146Y316D02*
X171Y316D01*
X146Y315D02*
X171Y315D01*
X145Y314D02*
X170Y314D01*
X145Y313D02*
X170Y313D01*
X145Y312D02*
X170Y312D01*
X144Y311D02*
X169Y311D01*
X144Y310D02*
X169Y310D01*
X143Y309D02*
X168Y309D01*
X143Y308D02*
X168Y308D01*
X142Y307D02*
X167Y307D01*
X142Y306D02*
X167Y306D01*
X142Y305D02*
X167Y305D01*
X141Y304D02*
X166Y304D01*
X141Y303D02*
X166Y303D01*
X140Y302D02*
X165Y302D01*
X140Y301D02*
X165Y301D01*
X139Y300D02*
X165Y300D01*
X139Y299D02*
X164Y299D01*
X139Y298D02*
X164Y298D01*
X138Y297D02*
X163Y297D01*
X138Y296D02*
X163Y296D01*
X137Y295D02*
X162Y295D01*
X137Y294D02*
X162Y294D01*
X137Y293D02*
X162Y293D01*
X136Y292D02*
X161Y292D01*
X136Y291D02*
X161Y291D01*
X135Y290D02*
X160Y290D01*
X135Y289D02*
X160Y289D01*
X134Y288D02*
X159Y288D01*
X134Y287D02*
X159Y287D01*
X134Y286D02*
X159Y286D01*
X133Y285D02*
X158Y285D01*
X133Y284D02*
X158Y284D01*
X132Y283D02*
X157Y283D01*
X132Y282D02*
X157Y282D01*
X131Y281D02*
X156Y281D01*
X131Y280D02*
X156Y280D01*
X131Y279D02*
X156Y279D01*
X130Y278D02*
X155Y278D01*
X130Y277D02*
X155Y277D01*
X129Y276D02*
X154Y276D01*
X129Y275D02*
X154Y275D01*
X128Y274D02*
X154Y274D01*
X128Y273D02*
X153Y273D01*
X128Y272D02*
X153Y272D01*
X128Y271D02*
X152Y271D01*
X127Y270D02*
X152Y270D01*
X127Y269D02*
X151Y269D01*
X127Y268D02*
X151Y268D01*
X128Y267D02*
X151Y267D01*
X128Y266D02*
X150Y266D01*
X128Y265D02*
X150Y265D01*
X128Y264D02*
X149Y264D01*
X129Y263D02*
X149Y263D01*
X130Y262D02*
X148Y262D01*
X130Y261D02*
X147Y261D01*
X131Y260D02*
X146Y260D01*
X133Y259D02*
X145Y259D01*
X135Y258D02*
X143Y258D01*
X139Y257D02*
X139Y257D01*
D02*
G04 End of Copper0*
M02*