; NON-PLATED HOLES START AT T1
; THROUGH (PLATED) HOLES START AT T100
M48
INCH
T100C0.015748
T101C0.035000
T102C0.036000
T103C0.025000
T104C0.038000
T105C0.039370
T106C0.040000
T107C0.043307
%
T100
X010455Y026503
X002455Y035503
X001455Y037503
X015455Y023503
X016455Y033503
X010455Y022503
X003455Y021503
X003455Y018503
X008455Y025503
X013455Y022503
X015455Y021503
X002455Y034503
T101
X006455Y025503
X010455Y024503
X006455Y024503
X009455Y025503
T102
X012455Y014503
X006455Y017503
X012455Y007503
X012455Y011503
X006455Y014503
X012455Y004503
X006455Y007503
X006455Y011503
X006455Y004503
X012455Y016503
X012455Y009503
X012455Y013503
X006455Y016503
X012455Y006503
X006455Y009503
X012455Y010503
X006455Y013503
X012455Y003503
X006455Y006503
X006455Y010503
X006455Y003503
X012455Y015503
X012455Y008503
X012455Y012503
X006455Y015503
X012455Y005503
X006455Y008503
X006455Y012503
X006455Y005503
X012455Y017503
T103
X014455Y029503
X014455Y031865
X014455Y030291
X014455Y031077
T104
X008172Y034197
X002455Y013503
X001455Y013503
X002455Y010503
X002455Y003503
X001455Y010503
X003455Y007503
X001455Y003503
X003455Y011503
X014455Y024503
X015455Y036503
X002455Y012503
X002455Y005503
X001455Y012503
X001455Y005503
X009172Y034197
X003455Y013503
X003455Y010503
X003455Y003503
X002455Y007503
X015455Y035503
X002455Y011503
X001455Y007503
X001455Y011503
X003455Y012503
X003455Y005503
X014455Y025503
T105
X012455Y011503
X012172Y028197
X009455Y032503
X013455Y015503
X012455Y007503
X012172Y031197
X012455Y010503
X012172Y027197
X011455Y021503
X013455Y014503
X012455Y006503
X012172Y030197
X012172Y026197
X005455Y021503
X013455Y013503
X012455Y005503
X013455Y009503
X012172Y025197
X008455Y021503
X013455Y012503
X012455Y004503
X013455Y008503
X005172Y036197
X013455Y011503
X012455Y003503
X013455Y007503
X005172Y035197
X013455Y010503
X012455Y021503
X013455Y006503
X012455Y017503
X005172Y034197
X006455Y021503
X013455Y005503
X012455Y016503
X005172Y033197
X012172Y036197
X005172Y029197
X009455Y021503
X013455Y004503
X008455Y032503
X012455Y015503
X005172Y032197
X012172Y035197
X005172Y028197
X010455Y021503
X013455Y003503
X012455Y014503
X005172Y031197
X012172Y034197
X005172Y027197
X013455Y021503
X012455Y013503
X005172Y030197
X013455Y017503
X012455Y009503
X012172Y033197
X005172Y026197
X007455Y021503
X012455Y012503
X012172Y029197
X013455Y016503
X012455Y008503
X012172Y032197
X005172Y025197
T106
X003455Y035503
X003455Y036503
X003455Y037503
T107
X005455Y011503
X005455Y003503
X006455Y011503
X005455Y016503
X006455Y003503
X005455Y008503
X006455Y016503
X006455Y008503
X005455Y014503
X005455Y006503
X006455Y014503
X006455Y006503
X005455Y012503
X005455Y004503
X006455Y012503
X005455Y017503
X006455Y004503
X005455Y009503
X006455Y017503
X006455Y009503
X005455Y010503
X006455Y010503
X005455Y015503
X005455Y007503
X006455Y015503
X006455Y007503
X005455Y013503
X005455Y005503
X006455Y013503
X006455Y005503
T00
M30
