G04 MADE WITH FRITZING*
G04 WWW.FRITZING.ORG*
G04 DOUBLE SIDED*
G04 HOLES PLATED*
G04 CONTOUR ON CENTER OF CONTOUR VECTOR*
%ASAXBY*%
%FSLAX23Y23*%
%MOIN*%
%OFA0B0*%
%SFA1.0B1.0*%
%ADD10C,0.089370*%
%ADD11C,0.088000*%
%ADD12C,0.093307*%
%ADD13C,0.049370*%
%ADD14C,0.084000*%
%ADD15C,0.085000*%
%ADD16C,0.075000*%
%ADD17C,0.080000*%
%ADD18R,0.088000X0.088000*%
%ADD19R,0.079972X0.080000*%
%LNMASK0*%
G90*
G70*
G54D10*
X1246Y1750D03*
X1246Y1650D03*
X1246Y1550D03*
X1246Y1450D03*
X1246Y1350D03*
X1246Y1250D03*
X1246Y1150D03*
X1246Y1050D03*
X1246Y950D03*
X1246Y850D03*
X1246Y750D03*
X1246Y650D03*
X1246Y550D03*
X1246Y450D03*
X1246Y350D03*
X1246Y1750D03*
X1246Y1650D03*
X1246Y1550D03*
X1246Y1450D03*
X1246Y1350D03*
X1246Y1250D03*
X1246Y1150D03*
X1246Y1050D03*
X1246Y950D03*
X1246Y850D03*
X1246Y750D03*
X1246Y650D03*
X1246Y550D03*
X1246Y450D03*
X1246Y350D03*
X1346Y350D03*
X1346Y450D03*
X1346Y550D03*
X1346Y650D03*
X1346Y750D03*
X1346Y850D03*
X1346Y950D03*
X1346Y1050D03*
X1346Y1150D03*
X1346Y1250D03*
X1346Y1350D03*
X1346Y1450D03*
X1346Y1550D03*
X1346Y1650D03*
X1346Y1750D03*
G54D11*
X1546Y3650D03*
X1546Y3550D03*
G54D12*
X546Y1750D03*
X546Y1650D03*
X546Y1550D03*
X546Y1450D03*
X546Y1350D03*
X546Y1250D03*
X546Y1150D03*
X546Y1050D03*
X546Y950D03*
X546Y850D03*
X546Y750D03*
X546Y650D03*
X546Y550D03*
X546Y450D03*
X546Y350D03*
X546Y1750D03*
X546Y1650D03*
X546Y1550D03*
X546Y1450D03*
X546Y1350D03*
X546Y1250D03*
X546Y1150D03*
X546Y1050D03*
X546Y950D03*
X546Y850D03*
X546Y750D03*
X546Y650D03*
X546Y550D03*
X546Y450D03*
X546Y350D03*
X646Y350D03*
X646Y450D03*
X646Y550D03*
X646Y650D03*
X646Y750D03*
X646Y850D03*
X646Y950D03*
X646Y1050D03*
X646Y1150D03*
X646Y1250D03*
X646Y1350D03*
X646Y1450D03*
X646Y1550D03*
X646Y1650D03*
X646Y1750D03*
G54D13*
X1646Y3350D03*
G54D14*
X346Y3550D03*
X346Y3650D03*
X346Y3750D03*
G54D13*
X246Y3550D03*
X146Y3750D03*
X246Y3450D03*
X346Y2150D03*
X1046Y2650D03*
G54D15*
X646Y2550D03*
X946Y2550D03*
X646Y2550D03*
X946Y2550D03*
X1046Y2450D03*
X646Y2450D03*
X1046Y2450D03*
X646Y2450D03*
G54D10*
X517Y3620D03*
X517Y3520D03*
X517Y3420D03*
X517Y3320D03*
X517Y3220D03*
X517Y3120D03*
X517Y3020D03*
X517Y2920D03*
X517Y2820D03*
X517Y2720D03*
X517Y2620D03*
X517Y2520D03*
X1217Y3620D03*
X1217Y3520D03*
X1217Y3420D03*
X1217Y3320D03*
X1217Y3220D03*
X1217Y3120D03*
X1217Y3020D03*
X1217Y2920D03*
X1217Y2820D03*
X1217Y2720D03*
X1217Y2620D03*
X1217Y2520D03*
G54D11*
X1446Y2550D03*
X1446Y2450D03*
G54D10*
X1346Y2150D03*
X1246Y2150D03*
X1146Y2150D03*
X1046Y2150D03*
X946Y2150D03*
X846Y2150D03*
X746Y2150D03*
X646Y2150D03*
X546Y2150D03*
G54D16*
X1446Y2950D03*
X1446Y3029D03*
X1446Y3108D03*
X1446Y3187D03*
G54D11*
X817Y3420D03*
X917Y3420D03*
G54D10*
X846Y3250D03*
X946Y3250D03*
X846Y3250D03*
X946Y3250D03*
G54D13*
X1346Y2250D03*
X1046Y2250D03*
X1546Y2150D03*
X846Y2550D03*
X346Y1850D03*
X1546Y2350D03*
G54D17*
X646Y1750D03*
X646Y1650D03*
X646Y1550D03*
X646Y1450D03*
X646Y1350D03*
X646Y1250D03*
X646Y1150D03*
X646Y1050D03*
X646Y950D03*
X646Y850D03*
X646Y750D03*
X646Y650D03*
X646Y550D03*
X646Y450D03*
X646Y350D03*
X1246Y1750D03*
X1246Y1650D03*
X1246Y1550D03*
X1246Y1450D03*
X1246Y1350D03*
X1246Y1250D03*
X1246Y1150D03*
X1246Y1050D03*
X1246Y950D03*
X1246Y850D03*
X1246Y750D03*
X1246Y650D03*
X1246Y550D03*
X1246Y450D03*
X1246Y350D03*
G54D11*
X146Y350D03*
X246Y350D03*
X346Y350D03*
X146Y550D03*
X246Y550D03*
X346Y550D03*
X146Y750D03*
X246Y750D03*
X346Y750D03*
X246Y1350D03*
X246Y1250D03*
X246Y1150D03*
X246Y1050D03*
X346Y1350D03*
X346Y1250D03*
X346Y1150D03*
X346Y1050D03*
X146Y1350D03*
X146Y1250D03*
X146Y1150D03*
X146Y1050D03*
G54D18*
X1446Y2550D03*
G54D19*
X646Y1750D03*
G54D18*
X146Y350D03*
X146Y550D03*
X146Y750D03*
G04 End of Mask0*
M02*