G04 MADE WITH FRITZING*
G04 WWW.FRITZING.ORG*
G04 DOUBLE SIDED*
G04 HOLES PLATED*
G04 CONTOUR ON CENTER OF CONTOUR VECTOR*
%ASAXBY*%
%FSLAX23Y23*%
%MOIN*%
%OFA0B0*%
%SFA1.0B1.0*%
%ADD10C,0.010000*%
%ADD11C,0.005000*%
%ADD12R,0.001000X0.001000*%
%LNSILK0*%
G90*
G70*
G54D10*
X835Y563D02*
X635Y563D01*
D02*
X635Y563D02*
X635Y497D01*
D02*
X635Y497D02*
X835Y497D01*
D02*
X835Y497D02*
X835Y563D01*
D02*
X666Y1549D02*
X866Y1549D01*
D02*
X866Y1549D02*
X866Y1449D01*
D02*
X866Y1449D02*
X666Y1449D01*
D02*
X666Y1449D02*
X666Y1549D01*
G54D11*
D02*
X701Y1549D02*
X666Y1514D01*
G54D10*
D02*
X666Y1349D02*
X866Y1349D01*
D02*
X866Y1349D02*
X866Y1249D01*
D02*
X866Y1249D02*
X666Y1249D01*
D02*
X666Y1249D02*
X666Y1349D01*
G54D11*
D02*
X701Y1349D02*
X666Y1314D01*
G54D10*
D02*
X1466Y1749D02*
X1266Y1749D01*
D02*
X1266Y1749D02*
X1266Y1849D01*
D02*
X1266Y1849D02*
X1466Y1849D01*
D02*
X1466Y1849D02*
X1466Y1749D01*
G54D12*
X0Y1969D02*
X1652Y1969D01*
X0Y1968D02*
X1652Y1968D01*
X0Y1967D02*
X1652Y1967D01*
X0Y1966D02*
X1652Y1966D01*
X0Y1965D02*
X1652Y1965D01*
X0Y1964D02*
X1652Y1964D01*
X0Y1963D02*
X1652Y1963D01*
X0Y1962D02*
X1652Y1962D01*
X0Y1961D02*
X7Y1961D01*
X1645Y1961D02*
X1652Y1961D01*
X0Y1960D02*
X7Y1960D01*
X1645Y1960D02*
X1652Y1960D01*
X0Y1959D02*
X7Y1959D01*
X1645Y1959D02*
X1652Y1959D01*
X0Y1958D02*
X7Y1958D01*
X1645Y1958D02*
X1652Y1958D01*
X0Y1957D02*
X7Y1957D01*
X1645Y1957D02*
X1652Y1957D01*
X0Y1956D02*
X7Y1956D01*
X1645Y1956D02*
X1652Y1956D01*
X0Y1955D02*
X7Y1955D01*
X1645Y1955D02*
X1652Y1955D01*
X0Y1954D02*
X7Y1954D01*
X1645Y1954D02*
X1652Y1954D01*
X0Y1953D02*
X7Y1953D01*
X1645Y1953D02*
X1652Y1953D01*
X0Y1952D02*
X7Y1952D01*
X1645Y1952D02*
X1652Y1952D01*
X0Y1951D02*
X7Y1951D01*
X1645Y1951D02*
X1652Y1951D01*
X0Y1950D02*
X7Y1950D01*
X1645Y1950D02*
X1652Y1950D01*
X0Y1949D02*
X7Y1949D01*
X1645Y1949D02*
X1652Y1949D01*
X0Y1948D02*
X7Y1948D01*
X1645Y1948D02*
X1652Y1948D01*
X0Y1947D02*
X7Y1947D01*
X1645Y1947D02*
X1652Y1947D01*
X0Y1946D02*
X7Y1946D01*
X1645Y1946D02*
X1652Y1946D01*
X0Y1945D02*
X7Y1945D01*
X1645Y1945D02*
X1652Y1945D01*
X0Y1944D02*
X7Y1944D01*
X1645Y1944D02*
X1652Y1944D01*
X0Y1943D02*
X7Y1943D01*
X1645Y1943D02*
X1652Y1943D01*
X0Y1942D02*
X7Y1942D01*
X1645Y1942D02*
X1652Y1942D01*
X0Y1941D02*
X7Y1941D01*
X1645Y1941D02*
X1652Y1941D01*
X0Y1940D02*
X7Y1940D01*
X1645Y1940D02*
X1652Y1940D01*
X0Y1939D02*
X7Y1939D01*
X1645Y1939D02*
X1652Y1939D01*
X0Y1938D02*
X7Y1938D01*
X1645Y1938D02*
X1652Y1938D01*
X0Y1937D02*
X7Y1937D01*
X1645Y1937D02*
X1652Y1937D01*
X0Y1936D02*
X7Y1936D01*
X1645Y1936D02*
X1652Y1936D01*
X0Y1935D02*
X7Y1935D01*
X1645Y1935D02*
X1652Y1935D01*
X0Y1934D02*
X7Y1934D01*
X1645Y1934D02*
X1652Y1934D01*
X0Y1933D02*
X7Y1933D01*
X1645Y1933D02*
X1652Y1933D01*
X0Y1932D02*
X7Y1932D01*
X1645Y1932D02*
X1652Y1932D01*
X0Y1931D02*
X7Y1931D01*
X1645Y1931D02*
X1652Y1931D01*
X0Y1930D02*
X7Y1930D01*
X1645Y1930D02*
X1652Y1930D01*
X0Y1929D02*
X7Y1929D01*
X1645Y1929D02*
X1652Y1929D01*
X0Y1928D02*
X7Y1928D01*
X1645Y1928D02*
X1652Y1928D01*
X0Y1927D02*
X7Y1927D01*
X1645Y1927D02*
X1652Y1927D01*
X0Y1926D02*
X7Y1926D01*
X1645Y1926D02*
X1652Y1926D01*
X0Y1925D02*
X7Y1925D01*
X1645Y1925D02*
X1652Y1925D01*
X0Y1924D02*
X7Y1924D01*
X1645Y1924D02*
X1652Y1924D01*
X0Y1923D02*
X7Y1923D01*
X1645Y1923D02*
X1652Y1923D01*
X0Y1922D02*
X7Y1922D01*
X1645Y1922D02*
X1652Y1922D01*
X0Y1921D02*
X7Y1921D01*
X1645Y1921D02*
X1652Y1921D01*
X0Y1920D02*
X7Y1920D01*
X1645Y1920D02*
X1652Y1920D01*
X0Y1919D02*
X7Y1919D01*
X1506Y1919D02*
X1522Y1919D01*
X1645Y1919D02*
X1652Y1919D01*
X0Y1918D02*
X7Y1918D01*
X1505Y1918D02*
X1523Y1918D01*
X1645Y1918D02*
X1652Y1918D01*
X0Y1917D02*
X7Y1917D01*
X1505Y1917D02*
X1523Y1917D01*
X1645Y1917D02*
X1652Y1917D01*
X0Y1916D02*
X7Y1916D01*
X1505Y1916D02*
X1524Y1916D01*
X1645Y1916D02*
X1652Y1916D01*
X0Y1915D02*
X7Y1915D01*
X1505Y1915D02*
X1525Y1915D01*
X1645Y1915D02*
X1652Y1915D01*
X0Y1914D02*
X7Y1914D01*
X1505Y1914D02*
X1526Y1914D01*
X1645Y1914D02*
X1652Y1914D01*
X0Y1913D02*
X7Y1913D01*
X1505Y1913D02*
X1526Y1913D01*
X1645Y1913D02*
X1652Y1913D01*
X0Y1912D02*
X7Y1912D01*
X1505Y1912D02*
X1511Y1912D01*
X1645Y1912D02*
X1652Y1912D01*
X0Y1911D02*
X7Y1911D01*
X1505Y1911D02*
X1511Y1911D01*
X1645Y1911D02*
X1652Y1911D01*
X0Y1910D02*
X7Y1910D01*
X1505Y1910D02*
X1511Y1910D01*
X1645Y1910D02*
X1652Y1910D01*
X0Y1909D02*
X7Y1909D01*
X1505Y1909D02*
X1511Y1909D01*
X1645Y1909D02*
X1652Y1909D01*
X0Y1908D02*
X7Y1908D01*
X1505Y1908D02*
X1511Y1908D01*
X1645Y1908D02*
X1652Y1908D01*
X0Y1907D02*
X7Y1907D01*
X1505Y1907D02*
X1511Y1907D01*
X1645Y1907D02*
X1652Y1907D01*
X0Y1906D02*
X7Y1906D01*
X1505Y1906D02*
X1511Y1906D01*
X1645Y1906D02*
X1652Y1906D01*
X0Y1905D02*
X7Y1905D01*
X1505Y1905D02*
X1558Y1905D01*
X1645Y1905D02*
X1652Y1905D01*
X0Y1904D02*
X7Y1904D01*
X1505Y1904D02*
X1558Y1904D01*
X1645Y1904D02*
X1652Y1904D01*
X0Y1903D02*
X7Y1903D01*
X1505Y1903D02*
X1558Y1903D01*
X1645Y1903D02*
X1652Y1903D01*
X0Y1902D02*
X7Y1902D01*
X1505Y1902D02*
X1558Y1902D01*
X1645Y1902D02*
X1652Y1902D01*
X0Y1901D02*
X7Y1901D01*
X1505Y1901D02*
X1558Y1901D01*
X1645Y1901D02*
X1652Y1901D01*
X0Y1900D02*
X7Y1900D01*
X1505Y1900D02*
X1558Y1900D01*
X1645Y1900D02*
X1652Y1900D01*
X0Y1899D02*
X7Y1899D01*
X1505Y1899D02*
X1558Y1899D01*
X1645Y1899D02*
X1652Y1899D01*
X0Y1898D02*
X7Y1898D01*
X1505Y1898D02*
X1511Y1898D01*
X1552Y1898D02*
X1558Y1898D01*
X1645Y1898D02*
X1652Y1898D01*
X0Y1897D02*
X7Y1897D01*
X1505Y1897D02*
X1511Y1897D01*
X1552Y1897D02*
X1558Y1897D01*
X1645Y1897D02*
X1652Y1897D01*
X0Y1896D02*
X7Y1896D01*
X1505Y1896D02*
X1511Y1896D01*
X1552Y1896D02*
X1558Y1896D01*
X1645Y1896D02*
X1652Y1896D01*
X0Y1895D02*
X7Y1895D01*
X1505Y1895D02*
X1511Y1895D01*
X1552Y1895D02*
X1558Y1895D01*
X1645Y1895D02*
X1652Y1895D01*
X0Y1894D02*
X7Y1894D01*
X1505Y1894D02*
X1511Y1894D01*
X1552Y1894D02*
X1558Y1894D01*
X1645Y1894D02*
X1652Y1894D01*
X0Y1893D02*
X7Y1893D01*
X1505Y1893D02*
X1511Y1893D01*
X1552Y1893D02*
X1558Y1893D01*
X1645Y1893D02*
X1652Y1893D01*
X0Y1892D02*
X7Y1892D01*
X1505Y1892D02*
X1511Y1892D01*
X1552Y1892D02*
X1558Y1892D01*
X1645Y1892D02*
X1652Y1892D01*
X0Y1891D02*
X7Y1891D01*
X1505Y1891D02*
X1511Y1891D01*
X1552Y1891D02*
X1558Y1891D01*
X1645Y1891D02*
X1652Y1891D01*
X0Y1890D02*
X7Y1890D01*
X1505Y1890D02*
X1511Y1890D01*
X1552Y1890D02*
X1558Y1890D01*
X1645Y1890D02*
X1652Y1890D01*
X0Y1889D02*
X7Y1889D01*
X1505Y1889D02*
X1511Y1889D01*
X1552Y1889D02*
X1558Y1889D01*
X1645Y1889D02*
X1652Y1889D01*
X0Y1888D02*
X7Y1888D01*
X1505Y1888D02*
X1511Y1888D01*
X1552Y1888D02*
X1558Y1888D01*
X1645Y1888D02*
X1652Y1888D01*
X0Y1887D02*
X7Y1887D01*
X1505Y1887D02*
X1510Y1887D01*
X1552Y1887D02*
X1557Y1887D01*
X1645Y1887D02*
X1652Y1887D01*
X0Y1886D02*
X7Y1886D01*
X1506Y1886D02*
X1509Y1886D01*
X1553Y1886D02*
X1557Y1886D01*
X1645Y1886D02*
X1652Y1886D01*
X0Y1885D02*
X7Y1885D01*
X1645Y1885D02*
X1652Y1885D01*
X0Y1884D02*
X7Y1884D01*
X1645Y1884D02*
X1652Y1884D01*
X0Y1883D02*
X7Y1883D01*
X1645Y1883D02*
X1652Y1883D01*
X0Y1882D02*
X7Y1882D01*
X1645Y1882D02*
X1652Y1882D01*
X0Y1881D02*
X7Y1881D01*
X1645Y1881D02*
X1652Y1881D01*
X0Y1880D02*
X7Y1880D01*
X1645Y1880D02*
X1652Y1880D01*
X0Y1879D02*
X7Y1879D01*
X1645Y1879D02*
X1652Y1879D01*
X0Y1878D02*
X7Y1878D01*
X1645Y1878D02*
X1652Y1878D01*
X0Y1877D02*
X7Y1877D01*
X1645Y1877D02*
X1652Y1877D01*
X0Y1876D02*
X7Y1876D01*
X1645Y1876D02*
X1652Y1876D01*
X0Y1875D02*
X7Y1875D01*
X1645Y1875D02*
X1652Y1875D01*
X0Y1874D02*
X7Y1874D01*
X1645Y1874D02*
X1652Y1874D01*
X0Y1873D02*
X7Y1873D01*
X1645Y1873D02*
X1652Y1873D01*
X0Y1872D02*
X7Y1872D01*
X1645Y1872D02*
X1652Y1872D01*
X0Y1871D02*
X7Y1871D01*
X1645Y1871D02*
X1652Y1871D01*
X0Y1870D02*
X7Y1870D01*
X1645Y1870D02*
X1652Y1870D01*
X0Y1869D02*
X7Y1869D01*
X1548Y1869D02*
X1558Y1869D01*
X1645Y1869D02*
X1652Y1869D01*
X0Y1868D02*
X7Y1868D01*
X1547Y1868D02*
X1558Y1868D01*
X1645Y1868D02*
X1652Y1868D01*
X0Y1867D02*
X7Y1867D01*
X1546Y1867D02*
X1558Y1867D01*
X1645Y1867D02*
X1652Y1867D01*
X0Y1866D02*
X7Y1866D01*
X1546Y1866D02*
X1558Y1866D01*
X1645Y1866D02*
X1652Y1866D01*
X0Y1865D02*
X7Y1865D01*
X1546Y1865D02*
X1558Y1865D01*
X1645Y1865D02*
X1652Y1865D01*
X0Y1864D02*
X7Y1864D01*
X1547Y1864D02*
X1558Y1864D01*
X1645Y1864D02*
X1652Y1864D01*
X0Y1863D02*
X7Y1863D01*
X1548Y1863D02*
X1558Y1863D01*
X1645Y1863D02*
X1652Y1863D01*
X0Y1862D02*
X7Y1862D01*
X1552Y1862D02*
X1558Y1862D01*
X1645Y1862D02*
X1652Y1862D01*
X0Y1861D02*
X7Y1861D01*
X1552Y1861D02*
X1558Y1861D01*
X1645Y1861D02*
X1652Y1861D01*
X0Y1860D02*
X7Y1860D01*
X1552Y1860D02*
X1558Y1860D01*
X1645Y1860D02*
X1652Y1860D01*
X0Y1859D02*
X7Y1859D01*
X1552Y1859D02*
X1558Y1859D01*
X1645Y1859D02*
X1652Y1859D01*
X0Y1858D02*
X7Y1858D01*
X1552Y1858D02*
X1558Y1858D01*
X1645Y1858D02*
X1652Y1858D01*
X0Y1857D02*
X7Y1857D01*
X1552Y1857D02*
X1558Y1857D01*
X1645Y1857D02*
X1652Y1857D01*
X0Y1856D02*
X7Y1856D01*
X1552Y1856D02*
X1558Y1856D01*
X1645Y1856D02*
X1652Y1856D01*
X0Y1855D02*
X7Y1855D01*
X1506Y1855D02*
X1558Y1855D01*
X1645Y1855D02*
X1652Y1855D01*
X0Y1854D02*
X7Y1854D01*
X1505Y1854D02*
X1558Y1854D01*
X1645Y1854D02*
X1652Y1854D01*
X0Y1853D02*
X7Y1853D01*
X1505Y1853D02*
X1558Y1853D01*
X1645Y1853D02*
X1652Y1853D01*
X0Y1852D02*
X7Y1852D01*
X1505Y1852D02*
X1558Y1852D01*
X1645Y1852D02*
X1652Y1852D01*
X0Y1851D02*
X7Y1851D01*
X1505Y1851D02*
X1558Y1851D01*
X1645Y1851D02*
X1652Y1851D01*
X0Y1850D02*
X7Y1850D01*
X1506Y1850D02*
X1558Y1850D01*
X1645Y1850D02*
X1652Y1850D01*
X0Y1849D02*
X7Y1849D01*
X1507Y1849D02*
X1558Y1849D01*
X1645Y1849D02*
X1652Y1849D01*
X0Y1848D02*
X7Y1848D01*
X1552Y1848D02*
X1558Y1848D01*
X1645Y1848D02*
X1652Y1848D01*
X0Y1847D02*
X7Y1847D01*
X1552Y1847D02*
X1558Y1847D01*
X1645Y1847D02*
X1652Y1847D01*
X0Y1846D02*
X7Y1846D01*
X1552Y1846D02*
X1558Y1846D01*
X1645Y1846D02*
X1652Y1846D01*
X0Y1845D02*
X7Y1845D01*
X1552Y1845D02*
X1558Y1845D01*
X1645Y1845D02*
X1652Y1845D01*
X0Y1844D02*
X7Y1844D01*
X1552Y1844D02*
X1558Y1844D01*
X1645Y1844D02*
X1652Y1844D01*
X0Y1843D02*
X7Y1843D01*
X1552Y1843D02*
X1558Y1843D01*
X1645Y1843D02*
X1652Y1843D01*
X0Y1842D02*
X7Y1842D01*
X1551Y1842D02*
X1558Y1842D01*
X1645Y1842D02*
X1652Y1842D01*
X0Y1841D02*
X7Y1841D01*
X1547Y1841D02*
X1558Y1841D01*
X1645Y1841D02*
X1652Y1841D01*
X0Y1840D02*
X7Y1840D01*
X1546Y1840D02*
X1558Y1840D01*
X1645Y1840D02*
X1652Y1840D01*
X0Y1839D02*
X7Y1839D01*
X1546Y1839D02*
X1558Y1839D01*
X1645Y1839D02*
X1652Y1839D01*
X0Y1838D02*
X7Y1838D01*
X1546Y1838D02*
X1558Y1838D01*
X1645Y1838D02*
X1652Y1838D01*
X0Y1837D02*
X7Y1837D01*
X1546Y1837D02*
X1558Y1837D01*
X1645Y1837D02*
X1652Y1837D01*
X0Y1836D02*
X7Y1836D01*
X1547Y1836D02*
X1558Y1836D01*
X1645Y1836D02*
X1652Y1836D01*
X0Y1835D02*
X7Y1835D01*
X1549Y1835D02*
X1557Y1835D01*
X1645Y1835D02*
X1652Y1835D01*
X0Y1834D02*
X7Y1834D01*
X1645Y1834D02*
X1652Y1834D01*
X0Y1833D02*
X7Y1833D01*
X1645Y1833D02*
X1652Y1833D01*
X0Y1832D02*
X7Y1832D01*
X1645Y1832D02*
X1652Y1832D01*
X0Y1831D02*
X7Y1831D01*
X1645Y1831D02*
X1652Y1831D01*
X0Y1830D02*
X7Y1830D01*
X1645Y1830D02*
X1652Y1830D01*
X0Y1829D02*
X7Y1829D01*
X1645Y1829D02*
X1652Y1829D01*
X0Y1828D02*
X7Y1828D01*
X1645Y1828D02*
X1652Y1828D01*
X0Y1827D02*
X7Y1827D01*
X1645Y1827D02*
X1652Y1827D01*
X0Y1826D02*
X7Y1826D01*
X1645Y1826D02*
X1652Y1826D01*
X0Y1825D02*
X7Y1825D01*
X1645Y1825D02*
X1652Y1825D01*
X0Y1824D02*
X7Y1824D01*
X1645Y1824D02*
X1652Y1824D01*
X0Y1823D02*
X7Y1823D01*
X1645Y1823D02*
X1652Y1823D01*
X0Y1822D02*
X7Y1822D01*
X1645Y1822D02*
X1652Y1822D01*
X0Y1821D02*
X7Y1821D01*
X1645Y1821D02*
X1652Y1821D01*
X0Y1820D02*
X7Y1820D01*
X1645Y1820D02*
X1652Y1820D01*
X0Y1819D02*
X7Y1819D01*
X1548Y1819D02*
X1558Y1819D01*
X1645Y1819D02*
X1652Y1819D01*
X0Y1818D02*
X7Y1818D01*
X1547Y1818D02*
X1558Y1818D01*
X1645Y1818D02*
X1652Y1818D01*
X0Y1817D02*
X7Y1817D01*
X1546Y1817D02*
X1558Y1817D01*
X1645Y1817D02*
X1652Y1817D01*
X0Y1816D02*
X7Y1816D01*
X1546Y1816D02*
X1558Y1816D01*
X1645Y1816D02*
X1652Y1816D01*
X0Y1815D02*
X7Y1815D01*
X1546Y1815D02*
X1558Y1815D01*
X1645Y1815D02*
X1652Y1815D01*
X0Y1814D02*
X7Y1814D01*
X1546Y1814D02*
X1558Y1814D01*
X1645Y1814D02*
X1652Y1814D01*
X0Y1813D02*
X7Y1813D01*
X1547Y1813D02*
X1558Y1813D01*
X1645Y1813D02*
X1652Y1813D01*
X0Y1812D02*
X7Y1812D01*
X1552Y1812D02*
X1558Y1812D01*
X1645Y1812D02*
X1652Y1812D01*
X0Y1811D02*
X7Y1811D01*
X1552Y1811D02*
X1558Y1811D01*
X1645Y1811D02*
X1652Y1811D01*
X0Y1810D02*
X7Y1810D01*
X1552Y1810D02*
X1558Y1810D01*
X1645Y1810D02*
X1652Y1810D01*
X0Y1809D02*
X7Y1809D01*
X1552Y1809D02*
X1558Y1809D01*
X1645Y1809D02*
X1652Y1809D01*
X0Y1808D02*
X7Y1808D01*
X1552Y1808D02*
X1558Y1808D01*
X1645Y1808D02*
X1652Y1808D01*
X0Y1807D02*
X7Y1807D01*
X1552Y1807D02*
X1558Y1807D01*
X1645Y1807D02*
X1652Y1807D01*
X0Y1806D02*
X7Y1806D01*
X1552Y1806D02*
X1558Y1806D01*
X1645Y1806D02*
X1652Y1806D01*
X0Y1805D02*
X7Y1805D01*
X1506Y1805D02*
X1558Y1805D01*
X1645Y1805D02*
X1652Y1805D01*
X0Y1804D02*
X7Y1804D01*
X1505Y1804D02*
X1558Y1804D01*
X1645Y1804D02*
X1652Y1804D01*
X0Y1803D02*
X7Y1803D01*
X1505Y1803D02*
X1558Y1803D01*
X1645Y1803D02*
X1652Y1803D01*
X0Y1802D02*
X7Y1802D01*
X1505Y1802D02*
X1558Y1802D01*
X1645Y1802D02*
X1652Y1802D01*
X0Y1801D02*
X7Y1801D01*
X1505Y1801D02*
X1558Y1801D01*
X1645Y1801D02*
X1652Y1801D01*
X0Y1800D02*
X7Y1800D01*
X1505Y1800D02*
X1558Y1800D01*
X1645Y1800D02*
X1652Y1800D01*
X0Y1799D02*
X7Y1799D01*
X1506Y1799D02*
X1558Y1799D01*
X1645Y1799D02*
X1652Y1799D01*
X0Y1798D02*
X7Y1798D01*
X1552Y1798D02*
X1558Y1798D01*
X1645Y1798D02*
X1652Y1798D01*
X0Y1797D02*
X7Y1797D01*
X1552Y1797D02*
X1558Y1797D01*
X1645Y1797D02*
X1652Y1797D01*
X0Y1796D02*
X7Y1796D01*
X1552Y1796D02*
X1558Y1796D01*
X1645Y1796D02*
X1652Y1796D01*
X0Y1795D02*
X7Y1795D01*
X1552Y1795D02*
X1558Y1795D01*
X1645Y1795D02*
X1652Y1795D01*
X0Y1794D02*
X7Y1794D01*
X1552Y1794D02*
X1558Y1794D01*
X1645Y1794D02*
X1652Y1794D01*
X0Y1793D02*
X7Y1793D01*
X1552Y1793D02*
X1558Y1793D01*
X1645Y1793D02*
X1652Y1793D01*
X0Y1792D02*
X7Y1792D01*
X1552Y1792D02*
X1558Y1792D01*
X1645Y1792D02*
X1652Y1792D01*
X0Y1791D02*
X7Y1791D01*
X1547Y1791D02*
X1558Y1791D01*
X1645Y1791D02*
X1652Y1791D01*
X0Y1790D02*
X7Y1790D01*
X1546Y1790D02*
X1558Y1790D01*
X1645Y1790D02*
X1652Y1790D01*
X0Y1789D02*
X7Y1789D01*
X1546Y1789D02*
X1558Y1789D01*
X1645Y1789D02*
X1652Y1789D01*
X0Y1788D02*
X7Y1788D01*
X1546Y1788D02*
X1558Y1788D01*
X1645Y1788D02*
X1652Y1788D01*
X0Y1787D02*
X7Y1787D01*
X1546Y1787D02*
X1558Y1787D01*
X1645Y1787D02*
X1652Y1787D01*
X0Y1786D02*
X7Y1786D01*
X1463Y1786D02*
X1464Y1786D01*
X1547Y1786D02*
X1558Y1786D01*
X1645Y1786D02*
X1652Y1786D01*
X0Y1785D02*
X7Y1785D01*
X1462Y1785D02*
X1465Y1785D01*
X1548Y1785D02*
X1558Y1785D01*
X1645Y1785D02*
X1652Y1785D01*
X0Y1784D02*
X7Y1784D01*
X1461Y1784D02*
X1466Y1784D01*
X1645Y1784D02*
X1652Y1784D01*
X0Y1783D02*
X7Y1783D01*
X1460Y1783D02*
X1466Y1783D01*
X1645Y1783D02*
X1652Y1783D01*
X0Y1782D02*
X7Y1782D01*
X1460Y1782D02*
X1465Y1782D01*
X1645Y1782D02*
X1652Y1782D01*
X0Y1781D02*
X7Y1781D01*
X1460Y1781D02*
X1464Y1781D01*
X1645Y1781D02*
X1652Y1781D01*
X0Y1780D02*
X7Y1780D01*
X1460Y1780D02*
X1463Y1780D01*
X1645Y1780D02*
X1652Y1780D01*
X0Y1779D02*
X7Y1779D01*
X1460Y1779D02*
X1462Y1779D01*
X1645Y1779D02*
X1652Y1779D01*
X0Y1778D02*
X7Y1778D01*
X1460Y1778D02*
X1461Y1778D01*
X1645Y1778D02*
X1652Y1778D01*
X0Y1777D02*
X7Y1777D01*
X1460Y1777D02*
X1460Y1777D01*
X1645Y1777D02*
X1652Y1777D01*
X0Y1776D02*
X7Y1776D01*
X1645Y1776D02*
X1652Y1776D01*
X0Y1775D02*
X7Y1775D01*
X1645Y1775D02*
X1652Y1775D01*
X0Y1774D02*
X7Y1774D01*
X1645Y1774D02*
X1652Y1774D01*
X0Y1773D02*
X7Y1773D01*
X1645Y1773D02*
X1652Y1773D01*
X0Y1772D02*
X7Y1772D01*
X1645Y1772D02*
X1652Y1772D01*
X0Y1771D02*
X7Y1771D01*
X1645Y1771D02*
X1652Y1771D01*
X0Y1770D02*
X7Y1770D01*
X1645Y1770D02*
X1652Y1770D01*
X0Y1769D02*
X7Y1769D01*
X1507Y1769D02*
X1508Y1769D01*
X1645Y1769D02*
X1652Y1769D01*
X0Y1768D02*
X7Y1768D01*
X1506Y1768D02*
X1511Y1768D01*
X1645Y1768D02*
X1652Y1768D01*
X0Y1767D02*
X7Y1767D01*
X1505Y1767D02*
X1515Y1767D01*
X1645Y1767D02*
X1652Y1767D01*
X0Y1766D02*
X7Y1766D01*
X1505Y1766D02*
X1518Y1766D01*
X1645Y1766D02*
X1652Y1766D01*
X0Y1765D02*
X7Y1765D01*
X1505Y1765D02*
X1522Y1765D01*
X1645Y1765D02*
X1652Y1765D01*
X0Y1764D02*
X7Y1764D01*
X1505Y1764D02*
X1525Y1764D01*
X1645Y1764D02*
X1652Y1764D01*
X0Y1763D02*
X7Y1763D01*
X1506Y1763D02*
X1528Y1763D01*
X1645Y1763D02*
X1652Y1763D01*
X0Y1762D02*
X7Y1762D01*
X1508Y1762D02*
X1532Y1762D01*
X1645Y1762D02*
X1652Y1762D01*
X0Y1761D02*
X7Y1761D01*
X1511Y1761D02*
X1535Y1761D01*
X1645Y1761D02*
X1652Y1761D01*
X0Y1760D02*
X7Y1760D01*
X1515Y1760D02*
X1539Y1760D01*
X1645Y1760D02*
X1652Y1760D01*
X0Y1759D02*
X7Y1759D01*
X1516Y1759D02*
X1542Y1759D01*
X1645Y1759D02*
X1652Y1759D01*
X0Y1758D02*
X7Y1758D01*
X1516Y1758D02*
X1546Y1758D01*
X1645Y1758D02*
X1652Y1758D01*
X0Y1757D02*
X7Y1757D01*
X1516Y1757D02*
X1523Y1757D01*
X1525Y1757D02*
X1549Y1757D01*
X1645Y1757D02*
X1652Y1757D01*
X0Y1756D02*
X7Y1756D01*
X1433Y1756D02*
X1439Y1756D01*
X1516Y1756D02*
X1522Y1756D01*
X1528Y1756D02*
X1552Y1756D01*
X1645Y1756D02*
X1652Y1756D01*
X0Y1755D02*
X7Y1755D01*
X1432Y1755D02*
X1438Y1755D01*
X1516Y1755D02*
X1522Y1755D01*
X1532Y1755D02*
X1556Y1755D01*
X1645Y1755D02*
X1652Y1755D01*
X0Y1754D02*
X7Y1754D01*
X1431Y1754D02*
X1437Y1754D01*
X1516Y1754D02*
X1522Y1754D01*
X1535Y1754D02*
X1557Y1754D01*
X1645Y1754D02*
X1652Y1754D01*
X0Y1753D02*
X7Y1753D01*
X1430Y1753D02*
X1436Y1753D01*
X1516Y1753D02*
X1522Y1753D01*
X1539Y1753D02*
X1558Y1753D01*
X1645Y1753D02*
X1652Y1753D01*
X0Y1752D02*
X7Y1752D01*
X1429Y1752D02*
X1435Y1752D01*
X1516Y1752D02*
X1522Y1752D01*
X1542Y1752D02*
X1558Y1752D01*
X1645Y1752D02*
X1652Y1752D01*
X0Y1751D02*
X7Y1751D01*
X1430Y1751D02*
X1434Y1751D01*
X1516Y1751D02*
X1522Y1751D01*
X1540Y1751D02*
X1558Y1751D01*
X1645Y1751D02*
X1652Y1751D01*
X0Y1750D02*
X7Y1750D01*
X1431Y1750D02*
X1433Y1750D01*
X1516Y1750D02*
X1522Y1750D01*
X1537Y1750D02*
X1557Y1750D01*
X1645Y1750D02*
X1652Y1750D01*
X0Y1749D02*
X7Y1749D01*
X1432Y1749D02*
X1432Y1749D01*
X1516Y1749D02*
X1522Y1749D01*
X1533Y1749D02*
X1556Y1749D01*
X1645Y1749D02*
X1652Y1749D01*
X0Y1748D02*
X7Y1748D01*
X1516Y1748D02*
X1522Y1748D01*
X1530Y1748D02*
X1554Y1748D01*
X1645Y1748D02*
X1652Y1748D01*
X0Y1747D02*
X7Y1747D01*
X1516Y1747D02*
X1522Y1747D01*
X1526Y1747D02*
X1550Y1747D01*
X1645Y1747D02*
X1652Y1747D01*
X0Y1746D02*
X7Y1746D01*
X1516Y1746D02*
X1547Y1746D01*
X1645Y1746D02*
X1652Y1746D01*
X0Y1745D02*
X7Y1745D01*
X1516Y1745D02*
X1544Y1745D01*
X1645Y1745D02*
X1652Y1745D01*
X0Y1744D02*
X7Y1744D01*
X1516Y1744D02*
X1540Y1744D01*
X1645Y1744D02*
X1652Y1744D01*
X0Y1743D02*
X7Y1743D01*
X1513Y1743D02*
X1537Y1743D01*
X1645Y1743D02*
X1652Y1743D01*
X0Y1742D02*
X7Y1742D01*
X1509Y1742D02*
X1533Y1742D01*
X1645Y1742D02*
X1652Y1742D01*
X0Y1741D02*
X7Y1741D01*
X1506Y1741D02*
X1530Y1741D01*
X1645Y1741D02*
X1652Y1741D01*
X0Y1740D02*
X7Y1740D01*
X1505Y1740D02*
X1526Y1740D01*
X1645Y1740D02*
X1652Y1740D01*
X0Y1739D02*
X7Y1739D01*
X1505Y1739D02*
X1523Y1739D01*
X1645Y1739D02*
X1652Y1739D01*
X0Y1738D02*
X7Y1738D01*
X1505Y1738D02*
X1520Y1738D01*
X1645Y1738D02*
X1652Y1738D01*
X0Y1737D02*
X7Y1737D01*
X1505Y1737D02*
X1516Y1737D01*
X1645Y1737D02*
X1652Y1737D01*
X0Y1736D02*
X7Y1736D01*
X1505Y1736D02*
X1513Y1736D01*
X1645Y1736D02*
X1652Y1736D01*
X0Y1735D02*
X7Y1735D01*
X1506Y1735D02*
X1509Y1735D01*
X1645Y1735D02*
X1652Y1735D01*
X0Y1734D02*
X7Y1734D01*
X1645Y1734D02*
X1652Y1734D01*
X0Y1733D02*
X7Y1733D01*
X1645Y1733D02*
X1652Y1733D01*
X0Y1732D02*
X7Y1732D01*
X1645Y1732D02*
X1652Y1732D01*
X0Y1731D02*
X7Y1731D01*
X1645Y1731D02*
X1652Y1731D01*
X0Y1730D02*
X7Y1730D01*
X1645Y1730D02*
X1652Y1730D01*
X0Y1729D02*
X7Y1729D01*
X1645Y1729D02*
X1652Y1729D01*
X0Y1728D02*
X7Y1728D01*
X1645Y1728D02*
X1652Y1728D01*
X0Y1727D02*
X7Y1727D01*
X1645Y1727D02*
X1652Y1727D01*
X0Y1726D02*
X7Y1726D01*
X1645Y1726D02*
X1652Y1726D01*
X0Y1725D02*
X7Y1725D01*
X1645Y1725D02*
X1652Y1725D01*
X0Y1724D02*
X7Y1724D01*
X1645Y1724D02*
X1652Y1724D01*
X0Y1723D02*
X7Y1723D01*
X1645Y1723D02*
X1652Y1723D01*
X0Y1722D02*
X7Y1722D01*
X1645Y1722D02*
X1652Y1722D01*
X0Y1721D02*
X7Y1721D01*
X1645Y1721D02*
X1652Y1721D01*
X0Y1720D02*
X7Y1720D01*
X1645Y1720D02*
X1652Y1720D01*
X0Y1719D02*
X7Y1719D01*
X1645Y1719D02*
X1652Y1719D01*
X0Y1718D02*
X7Y1718D01*
X1514Y1718D02*
X1525Y1718D01*
X1537Y1718D02*
X1549Y1718D01*
X1645Y1718D02*
X1652Y1718D01*
X0Y1717D02*
X7Y1717D01*
X1512Y1717D02*
X1527Y1717D01*
X1535Y1717D02*
X1551Y1717D01*
X1645Y1717D02*
X1652Y1717D01*
X0Y1716D02*
X7Y1716D01*
X1510Y1716D02*
X1529Y1716D01*
X1534Y1716D02*
X1552Y1716D01*
X1645Y1716D02*
X1652Y1716D01*
X0Y1715D02*
X7Y1715D01*
X1509Y1715D02*
X1530Y1715D01*
X1533Y1715D02*
X1553Y1715D01*
X1645Y1715D02*
X1652Y1715D01*
X0Y1714D02*
X7Y1714D01*
X1508Y1714D02*
X1554Y1714D01*
X1645Y1714D02*
X1652Y1714D01*
X0Y1713D02*
X7Y1713D01*
X1507Y1713D02*
X1555Y1713D01*
X1645Y1713D02*
X1652Y1713D01*
X0Y1712D02*
X7Y1712D01*
X1507Y1712D02*
X1556Y1712D01*
X1645Y1712D02*
X1652Y1712D01*
X0Y1711D02*
X7Y1711D01*
X1506Y1711D02*
X1514Y1711D01*
X1525Y1711D02*
X1538Y1711D01*
X1548Y1711D02*
X1556Y1711D01*
X1645Y1711D02*
X1652Y1711D01*
X0Y1710D02*
X7Y1710D01*
X1506Y1710D02*
X1513Y1710D01*
X1526Y1710D02*
X1537Y1710D01*
X1549Y1710D02*
X1557Y1710D01*
X1645Y1710D02*
X1652Y1710D01*
X0Y1709D02*
X7Y1709D01*
X1505Y1709D02*
X1512Y1709D01*
X1527Y1709D02*
X1536Y1709D01*
X1550Y1709D02*
X1557Y1709D01*
X1645Y1709D02*
X1652Y1709D01*
X0Y1708D02*
X7Y1708D01*
X1505Y1708D02*
X1511Y1708D01*
X1527Y1708D02*
X1535Y1708D01*
X1551Y1708D02*
X1557Y1708D01*
X1645Y1708D02*
X1652Y1708D01*
X0Y1707D02*
X7Y1707D01*
X1505Y1707D02*
X1511Y1707D01*
X1528Y1707D02*
X1535Y1707D01*
X1551Y1707D02*
X1558Y1707D01*
X1645Y1707D02*
X1652Y1707D01*
X0Y1706D02*
X7Y1706D01*
X1505Y1706D02*
X1511Y1706D01*
X1528Y1706D02*
X1534Y1706D01*
X1552Y1706D02*
X1558Y1706D01*
X1645Y1706D02*
X1652Y1706D01*
X0Y1705D02*
X7Y1705D01*
X1505Y1705D02*
X1511Y1705D01*
X1528Y1705D02*
X1534Y1705D01*
X1552Y1705D02*
X1558Y1705D01*
X1645Y1705D02*
X1652Y1705D01*
X0Y1704D02*
X7Y1704D01*
X1505Y1704D02*
X1511Y1704D01*
X1528Y1704D02*
X1534Y1704D01*
X1552Y1704D02*
X1558Y1704D01*
X1645Y1704D02*
X1652Y1704D01*
X0Y1703D02*
X7Y1703D01*
X1505Y1703D02*
X1511Y1703D01*
X1528Y1703D02*
X1534Y1703D01*
X1552Y1703D02*
X1558Y1703D01*
X1645Y1703D02*
X1652Y1703D01*
X0Y1702D02*
X7Y1702D01*
X1505Y1702D02*
X1511Y1702D01*
X1528Y1702D02*
X1534Y1702D01*
X1552Y1702D02*
X1558Y1702D01*
X1645Y1702D02*
X1652Y1702D01*
X0Y1701D02*
X7Y1701D01*
X1505Y1701D02*
X1511Y1701D01*
X1528Y1701D02*
X1534Y1701D01*
X1552Y1701D02*
X1558Y1701D01*
X1645Y1701D02*
X1652Y1701D01*
X0Y1700D02*
X7Y1700D01*
X1505Y1700D02*
X1511Y1700D01*
X1528Y1700D02*
X1534Y1700D01*
X1552Y1700D02*
X1558Y1700D01*
X1645Y1700D02*
X1652Y1700D01*
X0Y1699D02*
X7Y1699D01*
X1505Y1699D02*
X1511Y1699D01*
X1528Y1699D02*
X1534Y1699D01*
X1552Y1699D02*
X1558Y1699D01*
X1645Y1699D02*
X1652Y1699D01*
X0Y1698D02*
X7Y1698D01*
X1505Y1698D02*
X1511Y1698D01*
X1528Y1698D02*
X1534Y1698D01*
X1552Y1698D02*
X1558Y1698D01*
X1645Y1698D02*
X1652Y1698D01*
X0Y1697D02*
X7Y1697D01*
X1505Y1697D02*
X1511Y1697D01*
X1528Y1697D02*
X1534Y1697D01*
X1552Y1697D02*
X1558Y1697D01*
X1645Y1697D02*
X1652Y1697D01*
X0Y1696D02*
X7Y1696D01*
X1505Y1696D02*
X1511Y1696D01*
X1528Y1696D02*
X1534Y1696D01*
X1552Y1696D02*
X1558Y1696D01*
X1645Y1696D02*
X1652Y1696D01*
X0Y1695D02*
X7Y1695D01*
X1505Y1695D02*
X1511Y1695D01*
X1528Y1695D02*
X1534Y1695D01*
X1552Y1695D02*
X1558Y1695D01*
X1645Y1695D02*
X1652Y1695D01*
X0Y1694D02*
X7Y1694D01*
X1505Y1694D02*
X1511Y1694D01*
X1528Y1694D02*
X1534Y1694D01*
X1552Y1694D02*
X1558Y1694D01*
X1645Y1694D02*
X1652Y1694D01*
X0Y1693D02*
X7Y1693D01*
X1505Y1693D02*
X1511Y1693D01*
X1528Y1693D02*
X1534Y1693D01*
X1552Y1693D02*
X1558Y1693D01*
X1645Y1693D02*
X1652Y1693D01*
X0Y1692D02*
X7Y1692D01*
X1505Y1692D02*
X1511Y1692D01*
X1528Y1692D02*
X1534Y1692D01*
X1552Y1692D02*
X1558Y1692D01*
X1645Y1692D02*
X1652Y1692D01*
X0Y1691D02*
X7Y1691D01*
X1505Y1691D02*
X1558Y1691D01*
X1645Y1691D02*
X1652Y1691D01*
X0Y1690D02*
X7Y1690D01*
X1505Y1690D02*
X1558Y1690D01*
X1645Y1690D02*
X1652Y1690D01*
X0Y1689D02*
X7Y1689D01*
X1505Y1689D02*
X1558Y1689D01*
X1645Y1689D02*
X1652Y1689D01*
X0Y1688D02*
X7Y1688D01*
X1505Y1688D02*
X1558Y1688D01*
X1645Y1688D02*
X1652Y1688D01*
X0Y1687D02*
X7Y1687D01*
X1505Y1687D02*
X1558Y1687D01*
X1645Y1687D02*
X1652Y1687D01*
X0Y1686D02*
X7Y1686D01*
X1505Y1686D02*
X1558Y1686D01*
X1645Y1686D02*
X1652Y1686D01*
X0Y1685D02*
X7Y1685D01*
X1505Y1685D02*
X1558Y1685D01*
X1645Y1685D02*
X1652Y1685D01*
X0Y1684D02*
X7Y1684D01*
X1645Y1684D02*
X1652Y1684D01*
X0Y1683D02*
X7Y1683D01*
X1645Y1683D02*
X1652Y1683D01*
X0Y1682D02*
X7Y1682D01*
X1645Y1682D02*
X1652Y1682D01*
X0Y1681D02*
X7Y1681D01*
X1645Y1681D02*
X1652Y1681D01*
X0Y1680D02*
X7Y1680D01*
X1645Y1680D02*
X1652Y1680D01*
X0Y1679D02*
X7Y1679D01*
X1645Y1679D02*
X1652Y1679D01*
X0Y1678D02*
X7Y1678D01*
X1645Y1678D02*
X1652Y1678D01*
X0Y1677D02*
X7Y1677D01*
X1645Y1677D02*
X1652Y1677D01*
X0Y1676D02*
X7Y1676D01*
X1645Y1676D02*
X1652Y1676D01*
X0Y1675D02*
X7Y1675D01*
X1645Y1675D02*
X1652Y1675D01*
X0Y1674D02*
X7Y1674D01*
X1645Y1674D02*
X1652Y1674D01*
X0Y1673D02*
X7Y1673D01*
X1645Y1673D02*
X1652Y1673D01*
X0Y1672D02*
X7Y1672D01*
X1645Y1672D02*
X1652Y1672D01*
X0Y1671D02*
X7Y1671D01*
X1645Y1671D02*
X1652Y1671D01*
X0Y1670D02*
X7Y1670D01*
X1645Y1670D02*
X1652Y1670D01*
X0Y1669D02*
X7Y1669D01*
X1645Y1669D02*
X1652Y1669D01*
X0Y1668D02*
X7Y1668D01*
X1645Y1668D02*
X1652Y1668D01*
X0Y1667D02*
X7Y1667D01*
X1645Y1667D02*
X1652Y1667D01*
X0Y1666D02*
X7Y1666D01*
X1645Y1666D02*
X1652Y1666D01*
X0Y1665D02*
X7Y1665D01*
X1645Y1665D02*
X1652Y1665D01*
X0Y1664D02*
X7Y1664D01*
X1645Y1664D02*
X1652Y1664D01*
X0Y1663D02*
X7Y1663D01*
X1645Y1663D02*
X1652Y1663D01*
X0Y1662D02*
X7Y1662D01*
X1645Y1662D02*
X1652Y1662D01*
X0Y1661D02*
X7Y1661D01*
X1645Y1661D02*
X1652Y1661D01*
X0Y1660D02*
X7Y1660D01*
X1645Y1660D02*
X1652Y1660D01*
X0Y1659D02*
X7Y1659D01*
X1645Y1659D02*
X1652Y1659D01*
X0Y1658D02*
X7Y1658D01*
X1645Y1658D02*
X1652Y1658D01*
X0Y1657D02*
X7Y1657D01*
X1645Y1657D02*
X1652Y1657D01*
X0Y1656D02*
X7Y1656D01*
X1645Y1656D02*
X1652Y1656D01*
X0Y1655D02*
X7Y1655D01*
X1645Y1655D02*
X1652Y1655D01*
X0Y1654D02*
X7Y1654D01*
X1645Y1654D02*
X1652Y1654D01*
X0Y1653D02*
X7Y1653D01*
X1645Y1653D02*
X1652Y1653D01*
X0Y1652D02*
X7Y1652D01*
X1645Y1652D02*
X1652Y1652D01*
X0Y1651D02*
X7Y1651D01*
X1645Y1651D02*
X1652Y1651D01*
X0Y1650D02*
X7Y1650D01*
X1645Y1650D02*
X1652Y1650D01*
X0Y1649D02*
X7Y1649D01*
X1645Y1649D02*
X1652Y1649D01*
X0Y1648D02*
X7Y1648D01*
X1645Y1648D02*
X1652Y1648D01*
X0Y1647D02*
X7Y1647D01*
X1645Y1647D02*
X1652Y1647D01*
X0Y1646D02*
X7Y1646D01*
X1645Y1646D02*
X1652Y1646D01*
X0Y1645D02*
X7Y1645D01*
X1645Y1645D02*
X1652Y1645D01*
X0Y1644D02*
X7Y1644D01*
X1645Y1644D02*
X1652Y1644D01*
X0Y1643D02*
X7Y1643D01*
X1645Y1643D02*
X1652Y1643D01*
X0Y1642D02*
X7Y1642D01*
X1645Y1642D02*
X1652Y1642D01*
X0Y1641D02*
X7Y1641D01*
X1645Y1641D02*
X1652Y1641D01*
X0Y1640D02*
X7Y1640D01*
X1645Y1640D02*
X1652Y1640D01*
X0Y1639D02*
X7Y1639D01*
X1645Y1639D02*
X1652Y1639D01*
X0Y1638D02*
X7Y1638D01*
X1645Y1638D02*
X1652Y1638D01*
X0Y1637D02*
X7Y1637D01*
X1645Y1637D02*
X1652Y1637D01*
X0Y1636D02*
X7Y1636D01*
X1645Y1636D02*
X1652Y1636D01*
X0Y1635D02*
X7Y1635D01*
X1645Y1635D02*
X1652Y1635D01*
X0Y1634D02*
X7Y1634D01*
X1645Y1634D02*
X1652Y1634D01*
X0Y1633D02*
X7Y1633D01*
X1645Y1633D02*
X1652Y1633D01*
X0Y1632D02*
X7Y1632D01*
X1645Y1632D02*
X1652Y1632D01*
X0Y1631D02*
X7Y1631D01*
X1645Y1631D02*
X1652Y1631D01*
X0Y1630D02*
X7Y1630D01*
X1645Y1630D02*
X1652Y1630D01*
X0Y1629D02*
X7Y1629D01*
X1645Y1629D02*
X1652Y1629D01*
X0Y1628D02*
X7Y1628D01*
X1645Y1628D02*
X1652Y1628D01*
X0Y1627D02*
X7Y1627D01*
X1645Y1627D02*
X1652Y1627D01*
X0Y1626D02*
X7Y1626D01*
X1645Y1626D02*
X1652Y1626D01*
X0Y1625D02*
X7Y1625D01*
X1645Y1625D02*
X1652Y1625D01*
X0Y1624D02*
X7Y1624D01*
X1645Y1624D02*
X1652Y1624D01*
X0Y1623D02*
X7Y1623D01*
X1645Y1623D02*
X1652Y1623D01*
X0Y1622D02*
X7Y1622D01*
X1645Y1622D02*
X1652Y1622D01*
X0Y1621D02*
X7Y1621D01*
X1645Y1621D02*
X1652Y1621D01*
X0Y1620D02*
X7Y1620D01*
X1645Y1620D02*
X1652Y1620D01*
X0Y1619D02*
X7Y1619D01*
X1645Y1619D02*
X1652Y1619D01*
X0Y1618D02*
X7Y1618D01*
X1645Y1618D02*
X1652Y1618D01*
X0Y1617D02*
X7Y1617D01*
X1645Y1617D02*
X1652Y1617D01*
X0Y1616D02*
X7Y1616D01*
X1645Y1616D02*
X1652Y1616D01*
X0Y1615D02*
X7Y1615D01*
X1645Y1615D02*
X1652Y1615D01*
X0Y1614D02*
X7Y1614D01*
X1645Y1614D02*
X1652Y1614D01*
X0Y1613D02*
X7Y1613D01*
X1645Y1613D02*
X1652Y1613D01*
X0Y1612D02*
X7Y1612D01*
X1645Y1612D02*
X1652Y1612D01*
X0Y1611D02*
X7Y1611D01*
X1645Y1611D02*
X1652Y1611D01*
X0Y1610D02*
X7Y1610D01*
X1645Y1610D02*
X1652Y1610D01*
X0Y1609D02*
X7Y1609D01*
X1645Y1609D02*
X1652Y1609D01*
X0Y1608D02*
X7Y1608D01*
X1645Y1608D02*
X1652Y1608D01*
X0Y1607D02*
X7Y1607D01*
X1645Y1607D02*
X1652Y1607D01*
X0Y1606D02*
X7Y1606D01*
X1645Y1606D02*
X1652Y1606D01*
X0Y1605D02*
X7Y1605D01*
X1645Y1605D02*
X1652Y1605D01*
X0Y1604D02*
X7Y1604D01*
X1645Y1604D02*
X1652Y1604D01*
X0Y1603D02*
X7Y1603D01*
X1645Y1603D02*
X1652Y1603D01*
X0Y1602D02*
X7Y1602D01*
X1645Y1602D02*
X1652Y1602D01*
X0Y1601D02*
X7Y1601D01*
X1645Y1601D02*
X1652Y1601D01*
X0Y1600D02*
X7Y1600D01*
X1645Y1600D02*
X1652Y1600D01*
X0Y1599D02*
X7Y1599D01*
X1645Y1599D02*
X1652Y1599D01*
X0Y1598D02*
X7Y1598D01*
X1645Y1598D02*
X1652Y1598D01*
X0Y1597D02*
X7Y1597D01*
X1645Y1597D02*
X1652Y1597D01*
X0Y1596D02*
X7Y1596D01*
X1645Y1596D02*
X1652Y1596D01*
X0Y1595D02*
X7Y1595D01*
X1645Y1595D02*
X1652Y1595D01*
X0Y1594D02*
X7Y1594D01*
X1645Y1594D02*
X1652Y1594D01*
X0Y1593D02*
X7Y1593D01*
X1645Y1593D02*
X1652Y1593D01*
X0Y1592D02*
X7Y1592D01*
X1645Y1592D02*
X1652Y1592D01*
X0Y1591D02*
X7Y1591D01*
X1645Y1591D02*
X1652Y1591D01*
X0Y1590D02*
X7Y1590D01*
X1645Y1590D02*
X1652Y1590D01*
X0Y1589D02*
X7Y1589D01*
X1645Y1589D02*
X1652Y1589D01*
X0Y1588D02*
X7Y1588D01*
X1645Y1588D02*
X1652Y1588D01*
X0Y1587D02*
X7Y1587D01*
X1645Y1587D02*
X1652Y1587D01*
X0Y1586D02*
X7Y1586D01*
X1645Y1586D02*
X1652Y1586D01*
X0Y1585D02*
X7Y1585D01*
X1645Y1585D02*
X1652Y1585D01*
X0Y1584D02*
X7Y1584D01*
X1645Y1584D02*
X1652Y1584D01*
X0Y1583D02*
X7Y1583D01*
X1645Y1583D02*
X1652Y1583D01*
X0Y1582D02*
X7Y1582D01*
X1645Y1582D02*
X1652Y1582D01*
X0Y1581D02*
X7Y1581D01*
X1645Y1581D02*
X1652Y1581D01*
X0Y1580D02*
X7Y1580D01*
X1645Y1580D02*
X1652Y1580D01*
X0Y1579D02*
X7Y1579D01*
X1645Y1579D02*
X1652Y1579D01*
X0Y1578D02*
X7Y1578D01*
X1645Y1578D02*
X1652Y1578D01*
X0Y1577D02*
X7Y1577D01*
X1645Y1577D02*
X1652Y1577D01*
X0Y1576D02*
X7Y1576D01*
X1645Y1576D02*
X1652Y1576D01*
X0Y1575D02*
X7Y1575D01*
X1645Y1575D02*
X1652Y1575D01*
X0Y1574D02*
X7Y1574D01*
X1645Y1574D02*
X1652Y1574D01*
X0Y1573D02*
X7Y1573D01*
X1645Y1573D02*
X1652Y1573D01*
X0Y1572D02*
X7Y1572D01*
X1645Y1572D02*
X1652Y1572D01*
X0Y1571D02*
X7Y1571D01*
X1645Y1571D02*
X1652Y1571D01*
X0Y1570D02*
X7Y1570D01*
X1645Y1570D02*
X1652Y1570D01*
X0Y1569D02*
X7Y1569D01*
X1645Y1569D02*
X1652Y1569D01*
X0Y1568D02*
X7Y1568D01*
X1645Y1568D02*
X1652Y1568D01*
X0Y1567D02*
X7Y1567D01*
X1645Y1567D02*
X1652Y1567D01*
X0Y1566D02*
X7Y1566D01*
X1645Y1566D02*
X1652Y1566D01*
X0Y1565D02*
X7Y1565D01*
X1645Y1565D02*
X1652Y1565D01*
X0Y1564D02*
X7Y1564D01*
X1645Y1564D02*
X1652Y1564D01*
X0Y1563D02*
X7Y1563D01*
X1645Y1563D02*
X1652Y1563D01*
X0Y1562D02*
X7Y1562D01*
X1645Y1562D02*
X1652Y1562D01*
X0Y1561D02*
X7Y1561D01*
X1645Y1561D02*
X1652Y1561D01*
X0Y1560D02*
X7Y1560D01*
X1645Y1560D02*
X1652Y1560D01*
X0Y1559D02*
X7Y1559D01*
X1645Y1559D02*
X1652Y1559D01*
X0Y1558D02*
X7Y1558D01*
X1645Y1558D02*
X1652Y1558D01*
X0Y1557D02*
X7Y1557D01*
X1645Y1557D02*
X1652Y1557D01*
X0Y1556D02*
X7Y1556D01*
X1645Y1556D02*
X1652Y1556D01*
X0Y1555D02*
X7Y1555D01*
X1645Y1555D02*
X1652Y1555D01*
X0Y1554D02*
X7Y1554D01*
X1645Y1554D02*
X1652Y1554D01*
X0Y1553D02*
X7Y1553D01*
X1645Y1553D02*
X1652Y1553D01*
X0Y1552D02*
X7Y1552D01*
X1645Y1552D02*
X1652Y1552D01*
X0Y1551D02*
X7Y1551D01*
X1645Y1551D02*
X1652Y1551D01*
X0Y1550D02*
X7Y1550D01*
X1645Y1550D02*
X1652Y1550D01*
X0Y1549D02*
X7Y1549D01*
X1645Y1549D02*
X1652Y1549D01*
X0Y1548D02*
X7Y1548D01*
X1645Y1548D02*
X1652Y1548D01*
X0Y1547D02*
X7Y1547D01*
X1645Y1547D02*
X1652Y1547D01*
X0Y1546D02*
X7Y1546D01*
X1645Y1546D02*
X1652Y1546D01*
X0Y1545D02*
X7Y1545D01*
X1645Y1545D02*
X1652Y1545D01*
X0Y1544D02*
X7Y1544D01*
X1645Y1544D02*
X1652Y1544D01*
X0Y1543D02*
X7Y1543D01*
X1645Y1543D02*
X1652Y1543D01*
X0Y1542D02*
X7Y1542D01*
X1645Y1542D02*
X1652Y1542D01*
X0Y1541D02*
X7Y1541D01*
X1645Y1541D02*
X1652Y1541D01*
X0Y1540D02*
X7Y1540D01*
X1645Y1540D02*
X1652Y1540D01*
X0Y1539D02*
X7Y1539D01*
X1645Y1539D02*
X1652Y1539D01*
X0Y1538D02*
X7Y1538D01*
X1645Y1538D02*
X1652Y1538D01*
X0Y1537D02*
X7Y1537D01*
X1645Y1537D02*
X1652Y1537D01*
X0Y1536D02*
X7Y1536D01*
X1645Y1536D02*
X1652Y1536D01*
X0Y1535D02*
X7Y1535D01*
X577Y1535D02*
X630Y1535D01*
X1645Y1535D02*
X1652Y1535D01*
X0Y1534D02*
X7Y1534D01*
X577Y1534D02*
X630Y1534D01*
X1645Y1534D02*
X1652Y1534D01*
X0Y1533D02*
X7Y1533D01*
X577Y1533D02*
X630Y1533D01*
X1645Y1533D02*
X1652Y1533D01*
X0Y1532D02*
X7Y1532D01*
X577Y1532D02*
X630Y1532D01*
X1645Y1532D02*
X1652Y1532D01*
X0Y1531D02*
X7Y1531D01*
X577Y1531D02*
X630Y1531D01*
X1645Y1531D02*
X1652Y1531D01*
X0Y1530D02*
X7Y1530D01*
X577Y1530D02*
X630Y1530D01*
X1645Y1530D02*
X1652Y1530D01*
X0Y1529D02*
X7Y1529D01*
X577Y1529D02*
X630Y1529D01*
X1645Y1529D02*
X1652Y1529D01*
X0Y1528D02*
X7Y1528D01*
X577Y1528D02*
X583Y1528D01*
X601Y1528D02*
X607Y1528D01*
X624Y1528D02*
X630Y1528D01*
X1645Y1528D02*
X1652Y1528D01*
X0Y1527D02*
X7Y1527D01*
X577Y1527D02*
X583Y1527D01*
X601Y1527D02*
X607Y1527D01*
X624Y1527D02*
X630Y1527D01*
X1645Y1527D02*
X1652Y1527D01*
X0Y1526D02*
X7Y1526D01*
X577Y1526D02*
X583Y1526D01*
X601Y1526D02*
X607Y1526D01*
X624Y1526D02*
X630Y1526D01*
X1645Y1526D02*
X1652Y1526D01*
X0Y1525D02*
X7Y1525D01*
X577Y1525D02*
X583Y1525D01*
X601Y1525D02*
X607Y1525D01*
X624Y1525D02*
X630Y1525D01*
X1645Y1525D02*
X1652Y1525D01*
X0Y1524D02*
X7Y1524D01*
X577Y1524D02*
X583Y1524D01*
X601Y1524D02*
X607Y1524D01*
X624Y1524D02*
X630Y1524D01*
X1645Y1524D02*
X1652Y1524D01*
X0Y1523D02*
X7Y1523D01*
X577Y1523D02*
X583Y1523D01*
X601Y1523D02*
X607Y1523D01*
X624Y1523D02*
X630Y1523D01*
X1645Y1523D02*
X1652Y1523D01*
X0Y1522D02*
X7Y1522D01*
X577Y1522D02*
X583Y1522D01*
X601Y1522D02*
X607Y1522D01*
X624Y1522D02*
X630Y1522D01*
X1645Y1522D02*
X1652Y1522D01*
X0Y1521D02*
X7Y1521D01*
X577Y1521D02*
X583Y1521D01*
X601Y1521D02*
X607Y1521D01*
X624Y1521D02*
X630Y1521D01*
X1645Y1521D02*
X1652Y1521D01*
X0Y1520D02*
X7Y1520D01*
X577Y1520D02*
X583Y1520D01*
X601Y1520D02*
X607Y1520D01*
X624Y1520D02*
X630Y1520D01*
X1645Y1520D02*
X1652Y1520D01*
X0Y1519D02*
X7Y1519D01*
X577Y1519D02*
X583Y1519D01*
X601Y1519D02*
X607Y1519D01*
X624Y1519D02*
X630Y1519D01*
X1645Y1519D02*
X1652Y1519D01*
X0Y1518D02*
X7Y1518D01*
X577Y1518D02*
X583Y1518D01*
X601Y1518D02*
X607Y1518D01*
X624Y1518D02*
X630Y1518D01*
X1645Y1518D02*
X1652Y1518D01*
X0Y1517D02*
X7Y1517D01*
X577Y1517D02*
X583Y1517D01*
X601Y1517D02*
X607Y1517D01*
X624Y1517D02*
X630Y1517D01*
X1645Y1517D02*
X1652Y1517D01*
X0Y1516D02*
X7Y1516D01*
X577Y1516D02*
X583Y1516D01*
X601Y1516D02*
X607Y1516D01*
X624Y1516D02*
X630Y1516D01*
X1645Y1516D02*
X1652Y1516D01*
X0Y1515D02*
X7Y1515D01*
X577Y1515D02*
X583Y1515D01*
X601Y1515D02*
X607Y1515D01*
X624Y1515D02*
X630Y1515D01*
X1645Y1515D02*
X1652Y1515D01*
X0Y1514D02*
X7Y1514D01*
X577Y1514D02*
X583Y1514D01*
X601Y1514D02*
X607Y1514D01*
X624Y1514D02*
X630Y1514D01*
X1645Y1514D02*
X1652Y1514D01*
X0Y1513D02*
X7Y1513D01*
X577Y1513D02*
X584Y1513D01*
X600Y1513D02*
X607Y1513D01*
X624Y1513D02*
X630Y1513D01*
X1645Y1513D02*
X1652Y1513D01*
X0Y1512D02*
X7Y1512D01*
X578Y1512D02*
X584Y1512D01*
X600Y1512D02*
X608Y1512D01*
X623Y1512D02*
X630Y1512D01*
X1645Y1512D02*
X1652Y1512D01*
X0Y1511D02*
X7Y1511D01*
X578Y1511D02*
X585Y1511D01*
X599Y1511D02*
X608Y1511D01*
X623Y1511D02*
X630Y1511D01*
X1645Y1511D02*
X1652Y1511D01*
X0Y1510D02*
X7Y1510D01*
X578Y1510D02*
X586Y1510D01*
X598Y1510D02*
X609Y1510D01*
X622Y1510D02*
X629Y1510D01*
X1645Y1510D02*
X1652Y1510D01*
X0Y1509D02*
X7Y1509D01*
X579Y1509D02*
X587Y1509D01*
X597Y1509D02*
X611Y1509D01*
X620Y1509D02*
X629Y1509D01*
X1645Y1509D02*
X1652Y1509D01*
X0Y1508D02*
X7Y1508D01*
X579Y1508D02*
X628Y1508D01*
X1645Y1508D02*
X1652Y1508D01*
X0Y1507D02*
X7Y1507D01*
X580Y1507D02*
X627Y1507D01*
X1645Y1507D02*
X1652Y1507D01*
X0Y1506D02*
X7Y1506D01*
X581Y1506D02*
X627Y1506D01*
X1645Y1506D02*
X1652Y1506D01*
X0Y1505D02*
X7Y1505D01*
X582Y1505D02*
X602Y1505D01*
X606Y1505D02*
X626Y1505D01*
X1645Y1505D02*
X1652Y1505D01*
X0Y1504D02*
X7Y1504D01*
X583Y1504D02*
X601Y1504D01*
X607Y1504D02*
X624Y1504D01*
X1645Y1504D02*
X1652Y1504D01*
X0Y1503D02*
X7Y1503D01*
X585Y1503D02*
X599Y1503D01*
X608Y1503D02*
X623Y1503D01*
X1645Y1503D02*
X1652Y1503D01*
X0Y1502D02*
X7Y1502D01*
X587Y1502D02*
X597Y1502D01*
X611Y1502D02*
X620Y1502D01*
X1645Y1502D02*
X1652Y1502D01*
X0Y1501D02*
X7Y1501D01*
X1645Y1501D02*
X1652Y1501D01*
X0Y1500D02*
X7Y1500D01*
X1645Y1500D02*
X1652Y1500D01*
X0Y1499D02*
X7Y1499D01*
X1645Y1499D02*
X1652Y1499D01*
X0Y1498D02*
X7Y1498D01*
X1645Y1498D02*
X1652Y1498D01*
X0Y1497D02*
X7Y1497D01*
X1645Y1497D02*
X1652Y1497D01*
X0Y1496D02*
X7Y1496D01*
X1645Y1496D02*
X1652Y1496D01*
X0Y1495D02*
X7Y1495D01*
X1645Y1495D02*
X1652Y1495D01*
X0Y1494D02*
X7Y1494D01*
X1645Y1494D02*
X1652Y1494D01*
X0Y1493D02*
X7Y1493D01*
X1645Y1493D02*
X1652Y1493D01*
X0Y1492D02*
X7Y1492D01*
X1645Y1492D02*
X1652Y1492D01*
X0Y1491D02*
X7Y1491D01*
X1645Y1491D02*
X1652Y1491D01*
X0Y1490D02*
X7Y1490D01*
X1645Y1490D02*
X1652Y1490D01*
X0Y1489D02*
X7Y1489D01*
X1645Y1489D02*
X1652Y1489D01*
X0Y1488D02*
X7Y1488D01*
X1645Y1488D02*
X1652Y1488D01*
X0Y1487D02*
X7Y1487D01*
X1645Y1487D02*
X1652Y1487D01*
X0Y1486D02*
X7Y1486D01*
X1645Y1486D02*
X1652Y1486D01*
X0Y1485D02*
X7Y1485D01*
X579Y1485D02*
X582Y1485D01*
X626Y1485D02*
X629Y1485D01*
X1645Y1485D02*
X1652Y1485D01*
X0Y1484D02*
X7Y1484D01*
X578Y1484D02*
X583Y1484D01*
X625Y1484D02*
X630Y1484D01*
X1645Y1484D02*
X1652Y1484D01*
X0Y1483D02*
X7Y1483D01*
X577Y1483D02*
X583Y1483D01*
X624Y1483D02*
X630Y1483D01*
X1645Y1483D02*
X1652Y1483D01*
X0Y1482D02*
X7Y1482D01*
X577Y1482D02*
X583Y1482D01*
X624Y1482D02*
X630Y1482D01*
X1645Y1482D02*
X1652Y1482D01*
X0Y1481D02*
X7Y1481D01*
X577Y1481D02*
X583Y1481D01*
X624Y1481D02*
X630Y1481D01*
X1645Y1481D02*
X1652Y1481D01*
X0Y1480D02*
X7Y1480D01*
X577Y1480D02*
X583Y1480D01*
X624Y1480D02*
X630Y1480D01*
X1645Y1480D02*
X1652Y1480D01*
X0Y1479D02*
X7Y1479D01*
X577Y1479D02*
X583Y1479D01*
X624Y1479D02*
X630Y1479D01*
X1645Y1479D02*
X1652Y1479D01*
X0Y1478D02*
X7Y1478D01*
X577Y1478D02*
X583Y1478D01*
X624Y1478D02*
X630Y1478D01*
X1645Y1478D02*
X1652Y1478D01*
X0Y1477D02*
X7Y1477D01*
X577Y1477D02*
X583Y1477D01*
X624Y1477D02*
X630Y1477D01*
X1645Y1477D02*
X1652Y1477D01*
X0Y1476D02*
X7Y1476D01*
X577Y1476D02*
X583Y1476D01*
X624Y1476D02*
X630Y1476D01*
X1645Y1476D02*
X1652Y1476D01*
X0Y1475D02*
X7Y1475D01*
X577Y1475D02*
X583Y1475D01*
X624Y1475D02*
X630Y1475D01*
X1645Y1475D02*
X1652Y1475D01*
X0Y1474D02*
X7Y1474D01*
X577Y1474D02*
X583Y1474D01*
X624Y1474D02*
X630Y1474D01*
X1645Y1474D02*
X1652Y1474D01*
X0Y1473D02*
X7Y1473D01*
X577Y1473D02*
X583Y1473D01*
X624Y1473D02*
X630Y1473D01*
X1645Y1473D02*
X1652Y1473D01*
X0Y1472D02*
X7Y1472D01*
X577Y1472D02*
X630Y1472D01*
X1645Y1472D02*
X1652Y1472D01*
X0Y1471D02*
X7Y1471D01*
X577Y1471D02*
X630Y1471D01*
X1645Y1471D02*
X1652Y1471D01*
X0Y1470D02*
X7Y1470D01*
X577Y1470D02*
X630Y1470D01*
X1645Y1470D02*
X1652Y1470D01*
X0Y1469D02*
X7Y1469D01*
X577Y1469D02*
X630Y1469D01*
X1645Y1469D02*
X1652Y1469D01*
X0Y1468D02*
X7Y1468D01*
X577Y1468D02*
X630Y1468D01*
X1645Y1468D02*
X1652Y1468D01*
X0Y1467D02*
X7Y1467D01*
X577Y1467D02*
X630Y1467D01*
X1645Y1467D02*
X1652Y1467D01*
X0Y1466D02*
X7Y1466D01*
X577Y1466D02*
X630Y1466D01*
X1645Y1466D02*
X1652Y1466D01*
X0Y1465D02*
X7Y1465D01*
X578Y1465D02*
X630Y1465D01*
X1645Y1465D02*
X1652Y1465D01*
X0Y1464D02*
X7Y1464D01*
X624Y1464D02*
X630Y1464D01*
X1645Y1464D02*
X1652Y1464D01*
X0Y1463D02*
X7Y1463D01*
X624Y1463D02*
X630Y1463D01*
X1645Y1463D02*
X1652Y1463D01*
X0Y1462D02*
X7Y1462D01*
X624Y1462D02*
X630Y1462D01*
X1645Y1462D02*
X1652Y1462D01*
X0Y1461D02*
X7Y1461D01*
X624Y1461D02*
X630Y1461D01*
X1645Y1461D02*
X1652Y1461D01*
X0Y1460D02*
X7Y1460D01*
X624Y1460D02*
X630Y1460D01*
X1645Y1460D02*
X1652Y1460D01*
X0Y1459D02*
X7Y1459D01*
X624Y1459D02*
X630Y1459D01*
X1645Y1459D02*
X1652Y1459D01*
X0Y1458D02*
X7Y1458D01*
X609Y1458D02*
X630Y1458D01*
X1645Y1458D02*
X1652Y1458D01*
X0Y1457D02*
X7Y1457D01*
X608Y1457D02*
X630Y1457D01*
X1645Y1457D02*
X1652Y1457D01*
X0Y1456D02*
X7Y1456D01*
X607Y1456D02*
X630Y1456D01*
X1645Y1456D02*
X1652Y1456D01*
X0Y1455D02*
X7Y1455D01*
X607Y1455D02*
X630Y1455D01*
X1645Y1455D02*
X1652Y1455D01*
X0Y1454D02*
X7Y1454D01*
X607Y1454D02*
X630Y1454D01*
X1645Y1454D02*
X1652Y1454D01*
X0Y1453D02*
X7Y1453D01*
X607Y1453D02*
X630Y1453D01*
X1645Y1453D02*
X1652Y1453D01*
X0Y1452D02*
X7Y1452D01*
X608Y1452D02*
X629Y1452D01*
X1645Y1452D02*
X1652Y1452D01*
X0Y1451D02*
X7Y1451D01*
X1645Y1451D02*
X1652Y1451D01*
X0Y1450D02*
X7Y1450D01*
X1645Y1450D02*
X1652Y1450D01*
X0Y1449D02*
X7Y1449D01*
X1645Y1449D02*
X1652Y1449D01*
X0Y1448D02*
X7Y1448D01*
X1645Y1448D02*
X1652Y1448D01*
X0Y1447D02*
X7Y1447D01*
X1645Y1447D02*
X1652Y1447D01*
X0Y1446D02*
X7Y1446D01*
X1645Y1446D02*
X1652Y1446D01*
X0Y1445D02*
X7Y1445D01*
X1645Y1445D02*
X1652Y1445D01*
X0Y1444D02*
X7Y1444D01*
X1645Y1444D02*
X1652Y1444D01*
X0Y1443D02*
X7Y1443D01*
X1645Y1443D02*
X1652Y1443D01*
X0Y1442D02*
X7Y1442D01*
X1645Y1442D02*
X1652Y1442D01*
X0Y1441D02*
X7Y1441D01*
X1645Y1441D02*
X1652Y1441D01*
X0Y1440D02*
X7Y1440D01*
X1645Y1440D02*
X1652Y1440D01*
X0Y1439D02*
X7Y1439D01*
X1645Y1439D02*
X1652Y1439D01*
X0Y1438D02*
X7Y1438D01*
X1645Y1438D02*
X1652Y1438D01*
X0Y1437D02*
X7Y1437D01*
X1645Y1437D02*
X1652Y1437D01*
X0Y1436D02*
X7Y1436D01*
X1645Y1436D02*
X1652Y1436D01*
X0Y1435D02*
X7Y1435D01*
X1645Y1435D02*
X1652Y1435D01*
X0Y1434D02*
X7Y1434D01*
X1645Y1434D02*
X1652Y1434D01*
X0Y1433D02*
X7Y1433D01*
X1645Y1433D02*
X1652Y1433D01*
X0Y1432D02*
X7Y1432D01*
X1645Y1432D02*
X1652Y1432D01*
X0Y1431D02*
X7Y1431D01*
X1645Y1431D02*
X1652Y1431D01*
X0Y1430D02*
X7Y1430D01*
X1645Y1430D02*
X1652Y1430D01*
X0Y1429D02*
X7Y1429D01*
X1645Y1429D02*
X1652Y1429D01*
X0Y1428D02*
X7Y1428D01*
X1645Y1428D02*
X1652Y1428D01*
X0Y1427D02*
X7Y1427D01*
X1645Y1427D02*
X1652Y1427D01*
X0Y1426D02*
X7Y1426D01*
X1645Y1426D02*
X1652Y1426D01*
X0Y1425D02*
X7Y1425D01*
X1645Y1425D02*
X1652Y1425D01*
X0Y1424D02*
X7Y1424D01*
X1645Y1424D02*
X1652Y1424D01*
X0Y1423D02*
X7Y1423D01*
X1645Y1423D02*
X1652Y1423D01*
X0Y1422D02*
X7Y1422D01*
X1645Y1422D02*
X1652Y1422D01*
X0Y1421D02*
X7Y1421D01*
X1645Y1421D02*
X1652Y1421D01*
X0Y1420D02*
X7Y1420D01*
X1645Y1420D02*
X1652Y1420D01*
X0Y1419D02*
X7Y1419D01*
X1645Y1419D02*
X1652Y1419D01*
X0Y1418D02*
X7Y1418D01*
X1645Y1418D02*
X1652Y1418D01*
X0Y1417D02*
X7Y1417D01*
X1645Y1417D02*
X1652Y1417D01*
X0Y1416D02*
X7Y1416D01*
X1645Y1416D02*
X1652Y1416D01*
X0Y1415D02*
X7Y1415D01*
X1645Y1415D02*
X1652Y1415D01*
X0Y1414D02*
X7Y1414D01*
X1645Y1414D02*
X1652Y1414D01*
X0Y1413D02*
X7Y1413D01*
X1645Y1413D02*
X1652Y1413D01*
X0Y1412D02*
X7Y1412D01*
X1645Y1412D02*
X1652Y1412D01*
X0Y1411D02*
X7Y1411D01*
X1645Y1411D02*
X1652Y1411D01*
X0Y1410D02*
X7Y1410D01*
X1645Y1410D02*
X1652Y1410D01*
X0Y1409D02*
X7Y1409D01*
X1645Y1409D02*
X1652Y1409D01*
X0Y1408D02*
X7Y1408D01*
X1645Y1408D02*
X1652Y1408D01*
X0Y1407D02*
X7Y1407D01*
X1645Y1407D02*
X1652Y1407D01*
X0Y1406D02*
X7Y1406D01*
X1645Y1406D02*
X1652Y1406D01*
X0Y1405D02*
X7Y1405D01*
X1645Y1405D02*
X1652Y1405D01*
X0Y1404D02*
X7Y1404D01*
X1645Y1404D02*
X1652Y1404D01*
X0Y1403D02*
X7Y1403D01*
X1645Y1403D02*
X1652Y1403D01*
X0Y1402D02*
X7Y1402D01*
X1645Y1402D02*
X1652Y1402D01*
X0Y1401D02*
X7Y1401D01*
X1645Y1401D02*
X1652Y1401D01*
X0Y1400D02*
X7Y1400D01*
X1645Y1400D02*
X1652Y1400D01*
X0Y1399D02*
X7Y1399D01*
X1645Y1399D02*
X1652Y1399D01*
X0Y1398D02*
X7Y1398D01*
X1645Y1398D02*
X1652Y1398D01*
X0Y1397D02*
X7Y1397D01*
X1645Y1397D02*
X1652Y1397D01*
X0Y1396D02*
X7Y1396D01*
X1645Y1396D02*
X1652Y1396D01*
X0Y1395D02*
X7Y1395D01*
X1645Y1395D02*
X1652Y1395D01*
X0Y1394D02*
X7Y1394D01*
X1645Y1394D02*
X1652Y1394D01*
X0Y1393D02*
X7Y1393D01*
X1645Y1393D02*
X1652Y1393D01*
X0Y1392D02*
X7Y1392D01*
X1645Y1392D02*
X1652Y1392D01*
X0Y1391D02*
X7Y1391D01*
X1645Y1391D02*
X1652Y1391D01*
X0Y1390D02*
X7Y1390D01*
X1645Y1390D02*
X1652Y1390D01*
X0Y1389D02*
X7Y1389D01*
X1645Y1389D02*
X1652Y1389D01*
X0Y1388D02*
X7Y1388D01*
X1645Y1388D02*
X1652Y1388D01*
X0Y1387D02*
X7Y1387D01*
X1645Y1387D02*
X1652Y1387D01*
X0Y1386D02*
X7Y1386D01*
X1645Y1386D02*
X1652Y1386D01*
X0Y1385D02*
X7Y1385D01*
X1645Y1385D02*
X1652Y1385D01*
X0Y1384D02*
X7Y1384D01*
X1645Y1384D02*
X1652Y1384D01*
X0Y1383D02*
X7Y1383D01*
X1645Y1383D02*
X1652Y1383D01*
X0Y1382D02*
X7Y1382D01*
X1645Y1382D02*
X1652Y1382D01*
X0Y1381D02*
X7Y1381D01*
X1645Y1381D02*
X1652Y1381D01*
X0Y1380D02*
X7Y1380D01*
X1645Y1380D02*
X1652Y1380D01*
X0Y1379D02*
X7Y1379D01*
X1645Y1379D02*
X1652Y1379D01*
X0Y1378D02*
X7Y1378D01*
X1645Y1378D02*
X1652Y1378D01*
X0Y1377D02*
X7Y1377D01*
X1645Y1377D02*
X1652Y1377D01*
X0Y1376D02*
X7Y1376D01*
X1645Y1376D02*
X1652Y1376D01*
X0Y1375D02*
X7Y1375D01*
X1645Y1375D02*
X1652Y1375D01*
X0Y1374D02*
X7Y1374D01*
X1645Y1374D02*
X1652Y1374D01*
X0Y1373D02*
X7Y1373D01*
X1645Y1373D02*
X1652Y1373D01*
X0Y1372D02*
X7Y1372D01*
X1645Y1372D02*
X1652Y1372D01*
X0Y1371D02*
X7Y1371D01*
X1645Y1371D02*
X1652Y1371D01*
X0Y1370D02*
X7Y1370D01*
X1645Y1370D02*
X1652Y1370D01*
X0Y1369D02*
X7Y1369D01*
X1645Y1369D02*
X1652Y1369D01*
X0Y1368D02*
X7Y1368D01*
X1645Y1368D02*
X1652Y1368D01*
X0Y1367D02*
X7Y1367D01*
X1645Y1367D02*
X1652Y1367D01*
X0Y1366D02*
X7Y1366D01*
X1645Y1366D02*
X1652Y1366D01*
X0Y1365D02*
X7Y1365D01*
X1645Y1365D02*
X1652Y1365D01*
X0Y1364D02*
X7Y1364D01*
X1645Y1364D02*
X1652Y1364D01*
X0Y1363D02*
X7Y1363D01*
X1645Y1363D02*
X1652Y1363D01*
X0Y1362D02*
X7Y1362D01*
X1645Y1362D02*
X1652Y1362D01*
X0Y1361D02*
X7Y1361D01*
X1645Y1361D02*
X1652Y1361D01*
X0Y1360D02*
X7Y1360D01*
X1645Y1360D02*
X1652Y1360D01*
X0Y1359D02*
X7Y1359D01*
X1645Y1359D02*
X1652Y1359D01*
X0Y1358D02*
X7Y1358D01*
X1645Y1358D02*
X1652Y1358D01*
X0Y1357D02*
X7Y1357D01*
X1645Y1357D02*
X1652Y1357D01*
X0Y1356D02*
X7Y1356D01*
X1645Y1356D02*
X1652Y1356D01*
X0Y1355D02*
X7Y1355D01*
X1645Y1355D02*
X1652Y1355D01*
X0Y1354D02*
X7Y1354D01*
X1645Y1354D02*
X1652Y1354D01*
X0Y1353D02*
X7Y1353D01*
X1645Y1353D02*
X1652Y1353D01*
X0Y1352D02*
X7Y1352D01*
X1645Y1352D02*
X1652Y1352D01*
X0Y1351D02*
X7Y1351D01*
X1645Y1351D02*
X1652Y1351D01*
X0Y1350D02*
X7Y1350D01*
X1645Y1350D02*
X1652Y1350D01*
X0Y1349D02*
X7Y1349D01*
X1645Y1349D02*
X1652Y1349D01*
X0Y1348D02*
X7Y1348D01*
X1645Y1348D02*
X1652Y1348D01*
X0Y1347D02*
X7Y1347D01*
X1645Y1347D02*
X1652Y1347D01*
X0Y1346D02*
X7Y1346D01*
X1645Y1346D02*
X1652Y1346D01*
X0Y1345D02*
X7Y1345D01*
X1645Y1345D02*
X1652Y1345D01*
X0Y1344D02*
X7Y1344D01*
X1645Y1344D02*
X1652Y1344D01*
X0Y1343D02*
X7Y1343D01*
X1645Y1343D02*
X1652Y1343D01*
X0Y1342D02*
X7Y1342D01*
X1645Y1342D02*
X1652Y1342D01*
X0Y1341D02*
X7Y1341D01*
X1645Y1341D02*
X1652Y1341D01*
X0Y1340D02*
X7Y1340D01*
X1645Y1340D02*
X1652Y1340D01*
X0Y1339D02*
X7Y1339D01*
X1645Y1339D02*
X1652Y1339D01*
X0Y1338D02*
X7Y1338D01*
X1645Y1338D02*
X1652Y1338D01*
X0Y1337D02*
X7Y1337D01*
X1645Y1337D02*
X1652Y1337D01*
X0Y1336D02*
X7Y1336D01*
X589Y1336D02*
X641Y1336D01*
X1645Y1336D02*
X1652Y1336D01*
X0Y1335D02*
X7Y1335D01*
X588Y1335D02*
X641Y1335D01*
X1645Y1335D02*
X1652Y1335D01*
X0Y1334D02*
X7Y1334D01*
X588Y1334D02*
X641Y1334D01*
X1645Y1334D02*
X1652Y1334D01*
X0Y1333D02*
X7Y1333D01*
X588Y1333D02*
X641Y1333D01*
X1645Y1333D02*
X1652Y1333D01*
X0Y1332D02*
X7Y1332D01*
X588Y1332D02*
X641Y1332D01*
X1645Y1332D02*
X1652Y1332D01*
X0Y1331D02*
X7Y1331D01*
X588Y1331D02*
X641Y1331D01*
X1645Y1331D02*
X1652Y1331D01*
X0Y1330D02*
X7Y1330D01*
X588Y1330D02*
X641Y1330D01*
X1645Y1330D02*
X1652Y1330D01*
X0Y1329D02*
X7Y1329D01*
X588Y1329D02*
X641Y1329D01*
X1645Y1329D02*
X1652Y1329D01*
X0Y1328D02*
X7Y1328D01*
X588Y1328D02*
X594Y1328D01*
X612Y1328D02*
X618Y1328D01*
X635Y1328D02*
X641Y1328D01*
X1645Y1328D02*
X1652Y1328D01*
X0Y1327D02*
X7Y1327D01*
X588Y1327D02*
X594Y1327D01*
X612Y1327D02*
X618Y1327D01*
X635Y1327D02*
X641Y1327D01*
X1645Y1327D02*
X1652Y1327D01*
X0Y1326D02*
X7Y1326D01*
X588Y1326D02*
X594Y1326D01*
X612Y1326D02*
X618Y1326D01*
X635Y1326D02*
X641Y1326D01*
X1645Y1326D02*
X1652Y1326D01*
X0Y1325D02*
X7Y1325D01*
X588Y1325D02*
X594Y1325D01*
X612Y1325D02*
X618Y1325D01*
X635Y1325D02*
X641Y1325D01*
X1645Y1325D02*
X1652Y1325D01*
X0Y1324D02*
X7Y1324D01*
X588Y1324D02*
X594Y1324D01*
X612Y1324D02*
X618Y1324D01*
X635Y1324D02*
X641Y1324D01*
X1645Y1324D02*
X1652Y1324D01*
X0Y1323D02*
X7Y1323D01*
X588Y1323D02*
X594Y1323D01*
X612Y1323D02*
X618Y1323D01*
X635Y1323D02*
X641Y1323D01*
X1645Y1323D02*
X1652Y1323D01*
X0Y1322D02*
X7Y1322D01*
X588Y1322D02*
X594Y1322D01*
X612Y1322D02*
X618Y1322D01*
X635Y1322D02*
X641Y1322D01*
X1645Y1322D02*
X1652Y1322D01*
X0Y1321D02*
X7Y1321D01*
X588Y1321D02*
X594Y1321D01*
X612Y1321D02*
X618Y1321D01*
X635Y1321D02*
X641Y1321D01*
X1645Y1321D02*
X1652Y1321D01*
X0Y1320D02*
X7Y1320D01*
X588Y1320D02*
X594Y1320D01*
X612Y1320D02*
X618Y1320D01*
X635Y1320D02*
X641Y1320D01*
X1645Y1320D02*
X1652Y1320D01*
X0Y1319D02*
X7Y1319D01*
X588Y1319D02*
X594Y1319D01*
X612Y1319D02*
X618Y1319D01*
X635Y1319D02*
X641Y1319D01*
X1645Y1319D02*
X1652Y1319D01*
X0Y1318D02*
X7Y1318D01*
X588Y1318D02*
X594Y1318D01*
X612Y1318D02*
X618Y1318D01*
X635Y1318D02*
X641Y1318D01*
X1645Y1318D02*
X1652Y1318D01*
X0Y1317D02*
X7Y1317D01*
X588Y1317D02*
X594Y1317D01*
X612Y1317D02*
X618Y1317D01*
X635Y1317D02*
X641Y1317D01*
X1645Y1317D02*
X1652Y1317D01*
X0Y1316D02*
X7Y1316D01*
X588Y1316D02*
X594Y1316D01*
X612Y1316D02*
X618Y1316D01*
X635Y1316D02*
X641Y1316D01*
X1645Y1316D02*
X1652Y1316D01*
X0Y1315D02*
X7Y1315D01*
X588Y1315D02*
X594Y1315D01*
X612Y1315D02*
X618Y1315D01*
X635Y1315D02*
X641Y1315D01*
X1645Y1315D02*
X1652Y1315D01*
X0Y1314D02*
X7Y1314D01*
X588Y1314D02*
X595Y1314D01*
X612Y1314D02*
X618Y1314D01*
X635Y1314D02*
X641Y1314D01*
X1645Y1314D02*
X1652Y1314D01*
X0Y1313D02*
X7Y1313D01*
X589Y1313D02*
X595Y1313D01*
X611Y1313D02*
X618Y1313D01*
X635Y1313D02*
X641Y1313D01*
X1645Y1313D02*
X1652Y1313D01*
X0Y1312D02*
X7Y1312D01*
X589Y1312D02*
X595Y1312D01*
X611Y1312D02*
X619Y1312D01*
X634Y1312D02*
X641Y1312D01*
X1645Y1312D02*
X1652Y1312D01*
X0Y1311D02*
X7Y1311D01*
X589Y1311D02*
X596Y1311D01*
X610Y1311D02*
X620Y1311D01*
X634Y1311D02*
X641Y1311D01*
X1645Y1311D02*
X1652Y1311D01*
X0Y1310D02*
X7Y1310D01*
X589Y1310D02*
X597Y1310D01*
X609Y1310D02*
X621Y1310D01*
X633Y1310D02*
X640Y1310D01*
X1645Y1310D02*
X1652Y1310D01*
X0Y1309D02*
X7Y1309D01*
X590Y1309D02*
X599Y1309D01*
X608Y1309D02*
X622Y1309D01*
X631Y1309D02*
X640Y1309D01*
X1645Y1309D02*
X1652Y1309D01*
X0Y1308D02*
X7Y1308D01*
X591Y1308D02*
X639Y1308D01*
X1645Y1308D02*
X1652Y1308D01*
X0Y1307D02*
X7Y1307D01*
X591Y1307D02*
X638Y1307D01*
X1645Y1307D02*
X1652Y1307D01*
X0Y1306D02*
X7Y1306D01*
X592Y1306D02*
X614Y1306D01*
X616Y1306D02*
X638Y1306D01*
X1645Y1306D02*
X1652Y1306D01*
X0Y1305D02*
X7Y1305D01*
X593Y1305D02*
X613Y1305D01*
X617Y1305D02*
X637Y1305D01*
X1645Y1305D02*
X1652Y1305D01*
X0Y1304D02*
X7Y1304D01*
X594Y1304D02*
X612Y1304D01*
X618Y1304D02*
X635Y1304D01*
X1645Y1304D02*
X1652Y1304D01*
X0Y1303D02*
X7Y1303D01*
X596Y1303D02*
X610Y1303D01*
X620Y1303D02*
X634Y1303D01*
X1645Y1303D02*
X1652Y1303D01*
X0Y1302D02*
X7Y1302D01*
X599Y1302D02*
X608Y1302D01*
X622Y1302D02*
X631Y1302D01*
X1645Y1302D02*
X1652Y1302D01*
X0Y1301D02*
X7Y1301D01*
X1645Y1301D02*
X1652Y1301D01*
X0Y1300D02*
X7Y1300D01*
X1645Y1300D02*
X1652Y1300D01*
X0Y1299D02*
X7Y1299D01*
X1645Y1299D02*
X1652Y1299D01*
X0Y1298D02*
X7Y1298D01*
X1645Y1298D02*
X1652Y1298D01*
X0Y1297D02*
X7Y1297D01*
X1645Y1297D02*
X1652Y1297D01*
X0Y1296D02*
X7Y1296D01*
X1645Y1296D02*
X1652Y1296D01*
X0Y1295D02*
X7Y1295D01*
X1645Y1295D02*
X1652Y1295D01*
X0Y1294D02*
X7Y1294D01*
X1645Y1294D02*
X1652Y1294D01*
X0Y1293D02*
X7Y1293D01*
X1645Y1293D02*
X1652Y1293D01*
X0Y1292D02*
X7Y1292D01*
X1645Y1292D02*
X1652Y1292D01*
X0Y1291D02*
X7Y1291D01*
X1645Y1291D02*
X1652Y1291D01*
X0Y1290D02*
X7Y1290D01*
X1645Y1290D02*
X1652Y1290D01*
X0Y1289D02*
X7Y1289D01*
X1645Y1289D02*
X1652Y1289D01*
X0Y1288D02*
X7Y1288D01*
X1645Y1288D02*
X1652Y1288D01*
X0Y1287D02*
X7Y1287D01*
X1645Y1287D02*
X1652Y1287D01*
X0Y1286D02*
X7Y1286D01*
X1645Y1286D02*
X1652Y1286D01*
X0Y1285D02*
X7Y1285D01*
X590Y1285D02*
X593Y1285D01*
X616Y1285D02*
X641Y1285D01*
X1645Y1285D02*
X1652Y1285D01*
X0Y1284D02*
X7Y1284D01*
X589Y1284D02*
X594Y1284D01*
X614Y1284D02*
X641Y1284D01*
X1645Y1284D02*
X1652Y1284D01*
X0Y1283D02*
X7Y1283D01*
X588Y1283D02*
X594Y1283D01*
X613Y1283D02*
X641Y1283D01*
X1645Y1283D02*
X1652Y1283D01*
X0Y1282D02*
X7Y1282D01*
X588Y1282D02*
X594Y1282D01*
X613Y1282D02*
X641Y1282D01*
X1645Y1282D02*
X1652Y1282D01*
X0Y1281D02*
X7Y1281D01*
X588Y1281D02*
X594Y1281D01*
X612Y1281D02*
X641Y1281D01*
X1645Y1281D02*
X1652Y1281D01*
X0Y1280D02*
X7Y1280D01*
X588Y1280D02*
X594Y1280D01*
X612Y1280D02*
X641Y1280D01*
X1645Y1280D02*
X1652Y1280D01*
X0Y1279D02*
X7Y1279D01*
X588Y1279D02*
X594Y1279D01*
X612Y1279D02*
X641Y1279D01*
X1645Y1279D02*
X1652Y1279D01*
X0Y1278D02*
X7Y1278D01*
X588Y1278D02*
X594Y1278D01*
X612Y1278D02*
X618Y1278D01*
X635Y1278D02*
X641Y1278D01*
X1645Y1278D02*
X1652Y1278D01*
X0Y1277D02*
X7Y1277D01*
X588Y1277D02*
X594Y1277D01*
X612Y1277D02*
X618Y1277D01*
X635Y1277D02*
X641Y1277D01*
X1645Y1277D02*
X1652Y1277D01*
X0Y1276D02*
X7Y1276D01*
X588Y1276D02*
X594Y1276D01*
X612Y1276D02*
X618Y1276D01*
X635Y1276D02*
X641Y1276D01*
X1645Y1276D02*
X1652Y1276D01*
X0Y1275D02*
X7Y1275D01*
X588Y1275D02*
X594Y1275D01*
X612Y1275D02*
X618Y1275D01*
X635Y1275D02*
X641Y1275D01*
X1645Y1275D02*
X1652Y1275D01*
X0Y1274D02*
X7Y1274D01*
X588Y1274D02*
X594Y1274D01*
X612Y1274D02*
X618Y1274D01*
X635Y1274D02*
X641Y1274D01*
X1645Y1274D02*
X1652Y1274D01*
X0Y1273D02*
X7Y1273D01*
X588Y1273D02*
X594Y1273D01*
X612Y1273D02*
X618Y1273D01*
X635Y1273D02*
X641Y1273D01*
X1645Y1273D02*
X1652Y1273D01*
X0Y1272D02*
X7Y1272D01*
X588Y1272D02*
X594Y1272D01*
X612Y1272D02*
X618Y1272D01*
X635Y1272D02*
X641Y1272D01*
X1645Y1272D02*
X1652Y1272D01*
X0Y1271D02*
X7Y1271D01*
X588Y1271D02*
X594Y1271D01*
X612Y1271D02*
X618Y1271D01*
X635Y1271D02*
X641Y1271D01*
X1645Y1271D02*
X1652Y1271D01*
X0Y1270D02*
X7Y1270D01*
X588Y1270D02*
X594Y1270D01*
X612Y1270D02*
X618Y1270D01*
X635Y1270D02*
X641Y1270D01*
X1645Y1270D02*
X1652Y1270D01*
X0Y1269D02*
X7Y1269D01*
X588Y1269D02*
X594Y1269D01*
X612Y1269D02*
X618Y1269D01*
X635Y1269D02*
X641Y1269D01*
X1645Y1269D02*
X1652Y1269D01*
X0Y1268D02*
X7Y1268D01*
X588Y1268D02*
X594Y1268D01*
X612Y1268D02*
X618Y1268D01*
X635Y1268D02*
X641Y1268D01*
X1645Y1268D02*
X1652Y1268D01*
X0Y1267D02*
X7Y1267D01*
X588Y1267D02*
X594Y1267D01*
X612Y1267D02*
X618Y1267D01*
X635Y1267D02*
X641Y1267D01*
X1645Y1267D02*
X1652Y1267D01*
X0Y1266D02*
X7Y1266D01*
X588Y1266D02*
X594Y1266D01*
X612Y1266D02*
X618Y1266D01*
X635Y1266D02*
X641Y1266D01*
X1645Y1266D02*
X1652Y1266D01*
X0Y1265D02*
X7Y1265D01*
X588Y1265D02*
X594Y1265D01*
X612Y1265D02*
X618Y1265D01*
X635Y1265D02*
X641Y1265D01*
X1645Y1265D02*
X1652Y1265D01*
X0Y1264D02*
X7Y1264D01*
X588Y1264D02*
X594Y1264D01*
X612Y1264D02*
X618Y1264D01*
X635Y1264D02*
X641Y1264D01*
X1645Y1264D02*
X1652Y1264D01*
X0Y1263D02*
X7Y1263D01*
X588Y1263D02*
X594Y1263D01*
X612Y1263D02*
X618Y1263D01*
X635Y1263D02*
X641Y1263D01*
X1645Y1263D02*
X1652Y1263D01*
X0Y1262D02*
X7Y1262D01*
X588Y1262D02*
X594Y1262D01*
X612Y1262D02*
X618Y1262D01*
X635Y1262D02*
X641Y1262D01*
X1645Y1262D02*
X1652Y1262D01*
X0Y1261D02*
X7Y1261D01*
X588Y1261D02*
X594Y1261D01*
X612Y1261D02*
X618Y1261D01*
X635Y1261D02*
X641Y1261D01*
X1645Y1261D02*
X1652Y1261D01*
X0Y1260D02*
X7Y1260D01*
X588Y1260D02*
X594Y1260D01*
X612Y1260D02*
X618Y1260D01*
X635Y1260D02*
X641Y1260D01*
X1645Y1260D02*
X1652Y1260D01*
X0Y1259D02*
X7Y1259D01*
X588Y1259D02*
X594Y1259D01*
X612Y1259D02*
X618Y1259D01*
X635Y1259D02*
X641Y1259D01*
X1645Y1259D02*
X1652Y1259D01*
X0Y1258D02*
X7Y1258D01*
X588Y1258D02*
X618Y1258D01*
X635Y1258D02*
X641Y1258D01*
X1645Y1258D02*
X1652Y1258D01*
X0Y1257D02*
X7Y1257D01*
X588Y1257D02*
X618Y1257D01*
X635Y1257D02*
X641Y1257D01*
X1645Y1257D02*
X1652Y1257D01*
X0Y1256D02*
X7Y1256D01*
X589Y1256D02*
X617Y1256D01*
X635Y1256D02*
X641Y1256D01*
X1645Y1256D02*
X1652Y1256D01*
X0Y1255D02*
X7Y1255D01*
X589Y1255D02*
X617Y1255D01*
X635Y1255D02*
X641Y1255D01*
X1645Y1255D02*
X1652Y1255D01*
X0Y1254D02*
X7Y1254D01*
X590Y1254D02*
X616Y1254D01*
X636Y1254D02*
X641Y1254D01*
X1645Y1254D02*
X1652Y1254D01*
X0Y1253D02*
X7Y1253D01*
X591Y1253D02*
X615Y1253D01*
X636Y1253D02*
X641Y1253D01*
X1645Y1253D02*
X1652Y1253D01*
X0Y1252D02*
X7Y1252D01*
X592Y1252D02*
X614Y1252D01*
X637Y1252D02*
X640Y1252D01*
X1645Y1252D02*
X1652Y1252D01*
X0Y1251D02*
X7Y1251D01*
X1645Y1251D02*
X1652Y1251D01*
X0Y1250D02*
X7Y1250D01*
X1645Y1250D02*
X1652Y1250D01*
X0Y1249D02*
X7Y1249D01*
X1645Y1249D02*
X1652Y1249D01*
X0Y1248D02*
X7Y1248D01*
X1645Y1248D02*
X1652Y1248D01*
X0Y1247D02*
X7Y1247D01*
X1645Y1247D02*
X1652Y1247D01*
X0Y1246D02*
X7Y1246D01*
X1645Y1246D02*
X1652Y1246D01*
X0Y1245D02*
X7Y1245D01*
X1645Y1245D02*
X1652Y1245D01*
X0Y1244D02*
X7Y1244D01*
X1645Y1244D02*
X1652Y1244D01*
X0Y1243D02*
X7Y1243D01*
X1645Y1243D02*
X1652Y1243D01*
X0Y1242D02*
X7Y1242D01*
X1645Y1242D02*
X1652Y1242D01*
X0Y1241D02*
X7Y1241D01*
X1645Y1241D02*
X1652Y1241D01*
X0Y1240D02*
X7Y1240D01*
X1645Y1240D02*
X1652Y1240D01*
X0Y1239D02*
X7Y1239D01*
X1645Y1239D02*
X1652Y1239D01*
X0Y1238D02*
X7Y1238D01*
X1645Y1238D02*
X1652Y1238D01*
X0Y1237D02*
X7Y1237D01*
X1645Y1237D02*
X1652Y1237D01*
X0Y1236D02*
X7Y1236D01*
X1645Y1236D02*
X1652Y1236D01*
X0Y1235D02*
X7Y1235D01*
X1645Y1235D02*
X1652Y1235D01*
X0Y1234D02*
X7Y1234D01*
X1645Y1234D02*
X1652Y1234D01*
X0Y1233D02*
X7Y1233D01*
X1645Y1233D02*
X1652Y1233D01*
X0Y1232D02*
X7Y1232D01*
X1645Y1232D02*
X1652Y1232D01*
X0Y1231D02*
X7Y1231D01*
X1645Y1231D02*
X1652Y1231D01*
X0Y1230D02*
X7Y1230D01*
X1645Y1230D02*
X1652Y1230D01*
X0Y1229D02*
X7Y1229D01*
X1645Y1229D02*
X1652Y1229D01*
X0Y1228D02*
X7Y1228D01*
X1645Y1228D02*
X1652Y1228D01*
X0Y1227D02*
X7Y1227D01*
X1645Y1227D02*
X1652Y1227D01*
X0Y1226D02*
X7Y1226D01*
X1645Y1226D02*
X1652Y1226D01*
X0Y1225D02*
X7Y1225D01*
X1645Y1225D02*
X1652Y1225D01*
X0Y1224D02*
X7Y1224D01*
X1645Y1224D02*
X1652Y1224D01*
X0Y1223D02*
X7Y1223D01*
X1645Y1223D02*
X1652Y1223D01*
X0Y1222D02*
X7Y1222D01*
X1645Y1222D02*
X1652Y1222D01*
X0Y1221D02*
X7Y1221D01*
X1645Y1221D02*
X1652Y1221D01*
X0Y1220D02*
X7Y1220D01*
X1645Y1220D02*
X1652Y1220D01*
X0Y1219D02*
X7Y1219D01*
X1645Y1219D02*
X1652Y1219D01*
X0Y1218D02*
X7Y1218D01*
X1645Y1218D02*
X1652Y1218D01*
X0Y1217D02*
X7Y1217D01*
X1645Y1217D02*
X1652Y1217D01*
X0Y1216D02*
X7Y1216D01*
X1645Y1216D02*
X1652Y1216D01*
X0Y1215D02*
X7Y1215D01*
X1645Y1215D02*
X1652Y1215D01*
X0Y1214D02*
X7Y1214D01*
X1645Y1214D02*
X1652Y1214D01*
X0Y1213D02*
X7Y1213D01*
X1645Y1213D02*
X1652Y1213D01*
X0Y1212D02*
X7Y1212D01*
X1645Y1212D02*
X1652Y1212D01*
X0Y1211D02*
X7Y1211D01*
X1645Y1211D02*
X1652Y1211D01*
X0Y1210D02*
X7Y1210D01*
X1645Y1210D02*
X1652Y1210D01*
X0Y1209D02*
X7Y1209D01*
X1645Y1209D02*
X1652Y1209D01*
X0Y1208D02*
X7Y1208D01*
X1645Y1208D02*
X1652Y1208D01*
X0Y1207D02*
X7Y1207D01*
X1645Y1207D02*
X1652Y1207D01*
X0Y1206D02*
X7Y1206D01*
X1645Y1206D02*
X1652Y1206D01*
X0Y1205D02*
X7Y1205D01*
X1645Y1205D02*
X1652Y1205D01*
X0Y1204D02*
X7Y1204D01*
X1645Y1204D02*
X1652Y1204D01*
X0Y1203D02*
X7Y1203D01*
X1645Y1203D02*
X1652Y1203D01*
X0Y1202D02*
X7Y1202D01*
X1645Y1202D02*
X1652Y1202D01*
X0Y1201D02*
X7Y1201D01*
X1645Y1201D02*
X1652Y1201D01*
X0Y1200D02*
X7Y1200D01*
X1645Y1200D02*
X1652Y1200D01*
X0Y1199D02*
X7Y1199D01*
X1645Y1199D02*
X1652Y1199D01*
X0Y1198D02*
X7Y1198D01*
X1645Y1198D02*
X1652Y1198D01*
X0Y1197D02*
X7Y1197D01*
X1645Y1197D02*
X1652Y1197D01*
X0Y1196D02*
X7Y1196D01*
X1645Y1196D02*
X1652Y1196D01*
X0Y1195D02*
X7Y1195D01*
X1645Y1195D02*
X1652Y1195D01*
X0Y1194D02*
X7Y1194D01*
X1645Y1194D02*
X1652Y1194D01*
X0Y1193D02*
X7Y1193D01*
X1645Y1193D02*
X1652Y1193D01*
X0Y1192D02*
X7Y1192D01*
X1645Y1192D02*
X1652Y1192D01*
X0Y1191D02*
X7Y1191D01*
X1645Y1191D02*
X1652Y1191D01*
X0Y1190D02*
X7Y1190D01*
X1645Y1190D02*
X1652Y1190D01*
X0Y1189D02*
X7Y1189D01*
X1645Y1189D02*
X1652Y1189D01*
X0Y1188D02*
X7Y1188D01*
X1645Y1188D02*
X1652Y1188D01*
X0Y1187D02*
X7Y1187D01*
X1645Y1187D02*
X1652Y1187D01*
X0Y1186D02*
X7Y1186D01*
X1645Y1186D02*
X1652Y1186D01*
X0Y1185D02*
X7Y1185D01*
X1645Y1185D02*
X1652Y1185D01*
X0Y1184D02*
X7Y1184D01*
X1645Y1184D02*
X1652Y1184D01*
X0Y1183D02*
X7Y1183D01*
X1645Y1183D02*
X1652Y1183D01*
X0Y1182D02*
X7Y1182D01*
X1645Y1182D02*
X1652Y1182D01*
X0Y1181D02*
X7Y1181D01*
X1645Y1181D02*
X1652Y1181D01*
X0Y1180D02*
X7Y1180D01*
X1645Y1180D02*
X1652Y1180D01*
X0Y1179D02*
X7Y1179D01*
X1645Y1179D02*
X1652Y1179D01*
X0Y1178D02*
X7Y1178D01*
X1645Y1178D02*
X1652Y1178D01*
X0Y1177D02*
X7Y1177D01*
X1645Y1177D02*
X1652Y1177D01*
X0Y1176D02*
X7Y1176D01*
X1645Y1176D02*
X1652Y1176D01*
X0Y1175D02*
X7Y1175D01*
X1645Y1175D02*
X1652Y1175D01*
X0Y1174D02*
X7Y1174D01*
X1645Y1174D02*
X1652Y1174D01*
X0Y1173D02*
X7Y1173D01*
X1645Y1173D02*
X1652Y1173D01*
X0Y1172D02*
X7Y1172D01*
X1645Y1172D02*
X1652Y1172D01*
X0Y1171D02*
X7Y1171D01*
X1645Y1171D02*
X1652Y1171D01*
X0Y1170D02*
X7Y1170D01*
X1645Y1170D02*
X1652Y1170D01*
X0Y1169D02*
X7Y1169D01*
X1645Y1169D02*
X1652Y1169D01*
X0Y1168D02*
X7Y1168D01*
X1645Y1168D02*
X1652Y1168D01*
X0Y1167D02*
X7Y1167D01*
X1645Y1167D02*
X1652Y1167D01*
X0Y1166D02*
X7Y1166D01*
X1645Y1166D02*
X1652Y1166D01*
X0Y1165D02*
X7Y1165D01*
X1645Y1165D02*
X1652Y1165D01*
X0Y1164D02*
X7Y1164D01*
X1645Y1164D02*
X1652Y1164D01*
X0Y1163D02*
X7Y1163D01*
X1645Y1163D02*
X1652Y1163D01*
X0Y1162D02*
X7Y1162D01*
X1645Y1162D02*
X1652Y1162D01*
X0Y1161D02*
X7Y1161D01*
X1645Y1161D02*
X1652Y1161D01*
X0Y1160D02*
X7Y1160D01*
X1645Y1160D02*
X1652Y1160D01*
X0Y1159D02*
X7Y1159D01*
X1645Y1159D02*
X1652Y1159D01*
X0Y1158D02*
X7Y1158D01*
X1645Y1158D02*
X1652Y1158D01*
X0Y1157D02*
X7Y1157D01*
X1645Y1157D02*
X1652Y1157D01*
X0Y1156D02*
X7Y1156D01*
X1645Y1156D02*
X1652Y1156D01*
X0Y1155D02*
X7Y1155D01*
X1645Y1155D02*
X1652Y1155D01*
X0Y1154D02*
X7Y1154D01*
X1645Y1154D02*
X1652Y1154D01*
X0Y1153D02*
X7Y1153D01*
X1645Y1153D02*
X1652Y1153D01*
X0Y1152D02*
X7Y1152D01*
X1645Y1152D02*
X1652Y1152D01*
X0Y1151D02*
X7Y1151D01*
X1645Y1151D02*
X1652Y1151D01*
X0Y1150D02*
X7Y1150D01*
X1645Y1150D02*
X1652Y1150D01*
X0Y1149D02*
X7Y1149D01*
X1645Y1149D02*
X1652Y1149D01*
X0Y1148D02*
X7Y1148D01*
X1645Y1148D02*
X1652Y1148D01*
X0Y1147D02*
X7Y1147D01*
X1645Y1147D02*
X1652Y1147D01*
X0Y1146D02*
X7Y1146D01*
X1645Y1146D02*
X1652Y1146D01*
X0Y1145D02*
X7Y1145D01*
X1645Y1145D02*
X1652Y1145D01*
X0Y1144D02*
X7Y1144D01*
X1645Y1144D02*
X1652Y1144D01*
X0Y1143D02*
X7Y1143D01*
X1645Y1143D02*
X1652Y1143D01*
X0Y1142D02*
X7Y1142D01*
X1645Y1142D02*
X1652Y1142D01*
X0Y1141D02*
X7Y1141D01*
X1645Y1141D02*
X1652Y1141D01*
X0Y1140D02*
X7Y1140D01*
X1645Y1140D02*
X1652Y1140D01*
X0Y1139D02*
X7Y1139D01*
X1645Y1139D02*
X1652Y1139D01*
X0Y1138D02*
X7Y1138D01*
X1645Y1138D02*
X1652Y1138D01*
X0Y1137D02*
X7Y1137D01*
X1645Y1137D02*
X1652Y1137D01*
X0Y1136D02*
X7Y1136D01*
X1645Y1136D02*
X1652Y1136D01*
X0Y1135D02*
X7Y1135D01*
X1645Y1135D02*
X1652Y1135D01*
X0Y1134D02*
X7Y1134D01*
X1645Y1134D02*
X1652Y1134D01*
X0Y1133D02*
X7Y1133D01*
X1645Y1133D02*
X1652Y1133D01*
X0Y1132D02*
X7Y1132D01*
X1645Y1132D02*
X1652Y1132D01*
X0Y1131D02*
X7Y1131D01*
X1645Y1131D02*
X1652Y1131D01*
X0Y1130D02*
X7Y1130D01*
X1645Y1130D02*
X1652Y1130D01*
X0Y1129D02*
X7Y1129D01*
X1645Y1129D02*
X1652Y1129D01*
X0Y1128D02*
X7Y1128D01*
X1645Y1128D02*
X1652Y1128D01*
X0Y1127D02*
X7Y1127D01*
X1645Y1127D02*
X1652Y1127D01*
X0Y1126D02*
X7Y1126D01*
X1645Y1126D02*
X1652Y1126D01*
X0Y1125D02*
X7Y1125D01*
X1645Y1125D02*
X1652Y1125D01*
X0Y1124D02*
X7Y1124D01*
X1645Y1124D02*
X1652Y1124D01*
X0Y1123D02*
X7Y1123D01*
X1645Y1123D02*
X1652Y1123D01*
X0Y1122D02*
X7Y1122D01*
X1645Y1122D02*
X1652Y1122D01*
X0Y1121D02*
X7Y1121D01*
X1645Y1121D02*
X1652Y1121D01*
X0Y1120D02*
X7Y1120D01*
X1645Y1120D02*
X1652Y1120D01*
X0Y1119D02*
X7Y1119D01*
X1645Y1119D02*
X1652Y1119D01*
X0Y1118D02*
X7Y1118D01*
X1645Y1118D02*
X1652Y1118D01*
X0Y1117D02*
X7Y1117D01*
X1645Y1117D02*
X1652Y1117D01*
X0Y1116D02*
X7Y1116D01*
X1645Y1116D02*
X1652Y1116D01*
X0Y1115D02*
X7Y1115D01*
X1645Y1115D02*
X1652Y1115D01*
X0Y1114D02*
X7Y1114D01*
X1645Y1114D02*
X1652Y1114D01*
X0Y1113D02*
X7Y1113D01*
X1645Y1113D02*
X1652Y1113D01*
X0Y1112D02*
X7Y1112D01*
X1645Y1112D02*
X1652Y1112D01*
X0Y1111D02*
X7Y1111D01*
X1645Y1111D02*
X1652Y1111D01*
X0Y1110D02*
X7Y1110D01*
X1645Y1110D02*
X1652Y1110D01*
X0Y1109D02*
X7Y1109D01*
X1645Y1109D02*
X1652Y1109D01*
X0Y1108D02*
X7Y1108D01*
X1645Y1108D02*
X1652Y1108D01*
X0Y1107D02*
X7Y1107D01*
X1645Y1107D02*
X1652Y1107D01*
X0Y1106D02*
X7Y1106D01*
X1645Y1106D02*
X1652Y1106D01*
X0Y1105D02*
X7Y1105D01*
X1645Y1105D02*
X1652Y1105D01*
X0Y1104D02*
X7Y1104D01*
X1645Y1104D02*
X1652Y1104D01*
X0Y1103D02*
X7Y1103D01*
X1645Y1103D02*
X1652Y1103D01*
X0Y1102D02*
X7Y1102D01*
X1645Y1102D02*
X1652Y1102D01*
X0Y1101D02*
X7Y1101D01*
X1645Y1101D02*
X1652Y1101D01*
X0Y1100D02*
X7Y1100D01*
X1645Y1100D02*
X1652Y1100D01*
X0Y1099D02*
X7Y1099D01*
X1645Y1099D02*
X1652Y1099D01*
X0Y1098D02*
X7Y1098D01*
X1645Y1098D02*
X1652Y1098D01*
X0Y1097D02*
X7Y1097D01*
X1645Y1097D02*
X1652Y1097D01*
X0Y1096D02*
X7Y1096D01*
X1645Y1096D02*
X1652Y1096D01*
X0Y1095D02*
X7Y1095D01*
X1645Y1095D02*
X1652Y1095D01*
X0Y1094D02*
X7Y1094D01*
X1645Y1094D02*
X1652Y1094D01*
X0Y1093D02*
X7Y1093D01*
X1645Y1093D02*
X1652Y1093D01*
X0Y1092D02*
X7Y1092D01*
X1645Y1092D02*
X1652Y1092D01*
X0Y1091D02*
X7Y1091D01*
X1645Y1091D02*
X1652Y1091D01*
X0Y1090D02*
X7Y1090D01*
X1645Y1090D02*
X1652Y1090D01*
X0Y1089D02*
X7Y1089D01*
X1645Y1089D02*
X1652Y1089D01*
X0Y1088D02*
X7Y1088D01*
X1645Y1088D02*
X1652Y1088D01*
X0Y1087D02*
X7Y1087D01*
X1645Y1087D02*
X1652Y1087D01*
X0Y1086D02*
X7Y1086D01*
X1645Y1086D02*
X1652Y1086D01*
X0Y1085D02*
X7Y1085D01*
X1645Y1085D02*
X1652Y1085D01*
X0Y1084D02*
X7Y1084D01*
X1645Y1084D02*
X1652Y1084D01*
X0Y1083D02*
X7Y1083D01*
X1645Y1083D02*
X1652Y1083D01*
X0Y1082D02*
X7Y1082D01*
X1645Y1082D02*
X1652Y1082D01*
X0Y1081D02*
X7Y1081D01*
X1645Y1081D02*
X1652Y1081D01*
X0Y1080D02*
X7Y1080D01*
X1645Y1080D02*
X1652Y1080D01*
X0Y1079D02*
X7Y1079D01*
X1645Y1079D02*
X1652Y1079D01*
X0Y1078D02*
X7Y1078D01*
X1645Y1078D02*
X1652Y1078D01*
X0Y1077D02*
X7Y1077D01*
X1645Y1077D02*
X1652Y1077D01*
X0Y1076D02*
X7Y1076D01*
X1645Y1076D02*
X1652Y1076D01*
X0Y1075D02*
X7Y1075D01*
X1645Y1075D02*
X1652Y1075D01*
X0Y1074D02*
X7Y1074D01*
X1645Y1074D02*
X1652Y1074D01*
X0Y1073D02*
X7Y1073D01*
X1645Y1073D02*
X1652Y1073D01*
X0Y1072D02*
X7Y1072D01*
X1645Y1072D02*
X1652Y1072D01*
X0Y1071D02*
X7Y1071D01*
X1645Y1071D02*
X1652Y1071D01*
X0Y1070D02*
X7Y1070D01*
X1645Y1070D02*
X1652Y1070D01*
X0Y1069D02*
X7Y1069D01*
X1645Y1069D02*
X1652Y1069D01*
X0Y1068D02*
X7Y1068D01*
X1645Y1068D02*
X1652Y1068D01*
X0Y1067D02*
X7Y1067D01*
X1645Y1067D02*
X1652Y1067D01*
X0Y1066D02*
X7Y1066D01*
X1645Y1066D02*
X1652Y1066D01*
X0Y1065D02*
X7Y1065D01*
X1645Y1065D02*
X1652Y1065D01*
X0Y1064D02*
X7Y1064D01*
X1645Y1064D02*
X1652Y1064D01*
X0Y1063D02*
X7Y1063D01*
X1645Y1063D02*
X1652Y1063D01*
X0Y1062D02*
X7Y1062D01*
X1645Y1062D02*
X1652Y1062D01*
X0Y1061D02*
X7Y1061D01*
X1645Y1061D02*
X1652Y1061D01*
X0Y1060D02*
X7Y1060D01*
X1645Y1060D02*
X1652Y1060D01*
X0Y1059D02*
X7Y1059D01*
X1645Y1059D02*
X1652Y1059D01*
X0Y1058D02*
X7Y1058D01*
X1645Y1058D02*
X1652Y1058D01*
X0Y1057D02*
X7Y1057D01*
X1645Y1057D02*
X1652Y1057D01*
X0Y1056D02*
X7Y1056D01*
X1645Y1056D02*
X1652Y1056D01*
X0Y1055D02*
X7Y1055D01*
X1645Y1055D02*
X1652Y1055D01*
X0Y1054D02*
X7Y1054D01*
X1645Y1054D02*
X1652Y1054D01*
X0Y1053D02*
X7Y1053D01*
X1645Y1053D02*
X1652Y1053D01*
X0Y1052D02*
X7Y1052D01*
X1645Y1052D02*
X1652Y1052D01*
X0Y1051D02*
X7Y1051D01*
X1645Y1051D02*
X1652Y1051D01*
X0Y1050D02*
X7Y1050D01*
X1645Y1050D02*
X1652Y1050D01*
X0Y1049D02*
X7Y1049D01*
X1645Y1049D02*
X1652Y1049D01*
X0Y1048D02*
X7Y1048D01*
X1645Y1048D02*
X1652Y1048D01*
X0Y1047D02*
X7Y1047D01*
X1645Y1047D02*
X1652Y1047D01*
X0Y1046D02*
X7Y1046D01*
X1645Y1046D02*
X1652Y1046D01*
X0Y1045D02*
X7Y1045D01*
X1645Y1045D02*
X1652Y1045D01*
X0Y1044D02*
X7Y1044D01*
X1645Y1044D02*
X1652Y1044D01*
X0Y1043D02*
X7Y1043D01*
X1645Y1043D02*
X1652Y1043D01*
X0Y1042D02*
X7Y1042D01*
X1645Y1042D02*
X1652Y1042D01*
X0Y1041D02*
X7Y1041D01*
X1645Y1041D02*
X1652Y1041D01*
X0Y1040D02*
X7Y1040D01*
X1645Y1040D02*
X1652Y1040D01*
X0Y1039D02*
X7Y1039D01*
X1645Y1039D02*
X1652Y1039D01*
X0Y1038D02*
X7Y1038D01*
X1645Y1038D02*
X1652Y1038D01*
X0Y1037D02*
X7Y1037D01*
X1645Y1037D02*
X1652Y1037D01*
X0Y1036D02*
X7Y1036D01*
X1645Y1036D02*
X1652Y1036D01*
X0Y1035D02*
X7Y1035D01*
X1645Y1035D02*
X1652Y1035D01*
X0Y1034D02*
X7Y1034D01*
X1645Y1034D02*
X1652Y1034D01*
X0Y1033D02*
X7Y1033D01*
X1645Y1033D02*
X1652Y1033D01*
X0Y1032D02*
X7Y1032D01*
X1645Y1032D02*
X1652Y1032D01*
X0Y1031D02*
X7Y1031D01*
X1645Y1031D02*
X1652Y1031D01*
X0Y1030D02*
X7Y1030D01*
X1645Y1030D02*
X1652Y1030D01*
X0Y1029D02*
X7Y1029D01*
X1645Y1029D02*
X1652Y1029D01*
X0Y1028D02*
X7Y1028D01*
X1645Y1028D02*
X1652Y1028D01*
X0Y1027D02*
X7Y1027D01*
X1645Y1027D02*
X1652Y1027D01*
X0Y1026D02*
X7Y1026D01*
X1645Y1026D02*
X1652Y1026D01*
X0Y1025D02*
X7Y1025D01*
X1645Y1025D02*
X1652Y1025D01*
X0Y1024D02*
X7Y1024D01*
X1645Y1024D02*
X1652Y1024D01*
X0Y1023D02*
X7Y1023D01*
X1645Y1023D02*
X1652Y1023D01*
X0Y1022D02*
X7Y1022D01*
X1645Y1022D02*
X1652Y1022D01*
X0Y1021D02*
X7Y1021D01*
X1645Y1021D02*
X1652Y1021D01*
X0Y1020D02*
X7Y1020D01*
X1645Y1020D02*
X1652Y1020D01*
X0Y1019D02*
X7Y1019D01*
X1645Y1019D02*
X1652Y1019D01*
X0Y1018D02*
X7Y1018D01*
X1645Y1018D02*
X1652Y1018D01*
X0Y1017D02*
X7Y1017D01*
X1645Y1017D02*
X1652Y1017D01*
X0Y1016D02*
X7Y1016D01*
X1645Y1016D02*
X1652Y1016D01*
X0Y1015D02*
X7Y1015D01*
X1645Y1015D02*
X1652Y1015D01*
X0Y1014D02*
X7Y1014D01*
X1645Y1014D02*
X1652Y1014D01*
X0Y1013D02*
X7Y1013D01*
X1645Y1013D02*
X1652Y1013D01*
X0Y1012D02*
X7Y1012D01*
X1645Y1012D02*
X1652Y1012D01*
X0Y1011D02*
X7Y1011D01*
X1645Y1011D02*
X1652Y1011D01*
X0Y1010D02*
X7Y1010D01*
X1645Y1010D02*
X1652Y1010D01*
X0Y1009D02*
X7Y1009D01*
X1645Y1009D02*
X1652Y1009D01*
X0Y1008D02*
X7Y1008D01*
X1645Y1008D02*
X1652Y1008D01*
X0Y1007D02*
X7Y1007D01*
X1645Y1007D02*
X1652Y1007D01*
X0Y1006D02*
X7Y1006D01*
X1645Y1006D02*
X1652Y1006D01*
X0Y1005D02*
X7Y1005D01*
X1645Y1005D02*
X1652Y1005D01*
X0Y1004D02*
X7Y1004D01*
X1645Y1004D02*
X1652Y1004D01*
X0Y1003D02*
X7Y1003D01*
X1645Y1003D02*
X1652Y1003D01*
X0Y1002D02*
X7Y1002D01*
X1645Y1002D02*
X1652Y1002D01*
X0Y1001D02*
X7Y1001D01*
X1645Y1001D02*
X1652Y1001D01*
X0Y1000D02*
X7Y1000D01*
X1645Y1000D02*
X1652Y1000D01*
X0Y999D02*
X7Y999D01*
X1645Y999D02*
X1652Y999D01*
X0Y998D02*
X7Y998D01*
X1645Y998D02*
X1652Y998D01*
X0Y997D02*
X7Y997D01*
X1645Y997D02*
X1652Y997D01*
X0Y996D02*
X7Y996D01*
X1645Y996D02*
X1652Y996D01*
X0Y995D02*
X7Y995D01*
X1645Y995D02*
X1652Y995D01*
X0Y994D02*
X7Y994D01*
X1645Y994D02*
X1652Y994D01*
X0Y993D02*
X7Y993D01*
X1645Y993D02*
X1652Y993D01*
X0Y992D02*
X7Y992D01*
X1645Y992D02*
X1652Y992D01*
X0Y991D02*
X7Y991D01*
X1645Y991D02*
X1652Y991D01*
X0Y990D02*
X7Y990D01*
X1645Y990D02*
X1652Y990D01*
X0Y989D02*
X7Y989D01*
X1645Y989D02*
X1652Y989D01*
X0Y988D02*
X7Y988D01*
X1645Y988D02*
X1652Y988D01*
X0Y987D02*
X7Y987D01*
X1645Y987D02*
X1652Y987D01*
X0Y986D02*
X7Y986D01*
X1645Y986D02*
X1652Y986D01*
X0Y985D02*
X7Y985D01*
X1645Y985D02*
X1652Y985D01*
X0Y984D02*
X7Y984D01*
X1645Y984D02*
X1652Y984D01*
X0Y983D02*
X7Y983D01*
X1645Y983D02*
X1652Y983D01*
X0Y982D02*
X7Y982D01*
X1645Y982D02*
X1652Y982D01*
X0Y981D02*
X7Y981D01*
X1645Y981D02*
X1652Y981D01*
X0Y980D02*
X7Y980D01*
X1645Y980D02*
X1652Y980D01*
X0Y979D02*
X7Y979D01*
X1645Y979D02*
X1652Y979D01*
X0Y978D02*
X7Y978D01*
X1645Y978D02*
X1652Y978D01*
X0Y977D02*
X7Y977D01*
X1645Y977D02*
X1652Y977D01*
X0Y976D02*
X7Y976D01*
X1645Y976D02*
X1652Y976D01*
X0Y975D02*
X7Y975D01*
X1645Y975D02*
X1652Y975D01*
X0Y974D02*
X7Y974D01*
X1645Y974D02*
X1652Y974D01*
X0Y973D02*
X7Y973D01*
X1645Y973D02*
X1652Y973D01*
X0Y972D02*
X7Y972D01*
X1645Y972D02*
X1652Y972D01*
X0Y971D02*
X7Y971D01*
X1645Y971D02*
X1652Y971D01*
X0Y970D02*
X7Y970D01*
X1645Y970D02*
X1652Y970D01*
X0Y969D02*
X7Y969D01*
X1645Y969D02*
X1652Y969D01*
X0Y968D02*
X7Y968D01*
X1645Y968D02*
X1652Y968D01*
X0Y967D02*
X7Y967D01*
X1645Y967D02*
X1652Y967D01*
X0Y966D02*
X7Y966D01*
X1645Y966D02*
X1652Y966D01*
X0Y965D02*
X7Y965D01*
X1645Y965D02*
X1652Y965D01*
X0Y964D02*
X7Y964D01*
X1645Y964D02*
X1652Y964D01*
X0Y963D02*
X7Y963D01*
X1645Y963D02*
X1652Y963D01*
X0Y962D02*
X7Y962D01*
X1645Y962D02*
X1652Y962D01*
X0Y961D02*
X7Y961D01*
X1645Y961D02*
X1652Y961D01*
X0Y960D02*
X7Y960D01*
X1645Y960D02*
X1652Y960D01*
X0Y959D02*
X7Y959D01*
X1645Y959D02*
X1652Y959D01*
X0Y958D02*
X7Y958D01*
X1645Y958D02*
X1652Y958D01*
X0Y957D02*
X7Y957D01*
X1645Y957D02*
X1652Y957D01*
X0Y956D02*
X7Y956D01*
X1645Y956D02*
X1652Y956D01*
X0Y955D02*
X7Y955D01*
X1645Y955D02*
X1652Y955D01*
X0Y954D02*
X7Y954D01*
X1645Y954D02*
X1652Y954D01*
X0Y953D02*
X7Y953D01*
X1645Y953D02*
X1652Y953D01*
X0Y952D02*
X7Y952D01*
X1645Y952D02*
X1652Y952D01*
X0Y951D02*
X7Y951D01*
X1645Y951D02*
X1652Y951D01*
X0Y950D02*
X7Y950D01*
X1645Y950D02*
X1652Y950D01*
X0Y949D02*
X7Y949D01*
X1645Y949D02*
X1652Y949D01*
X0Y948D02*
X7Y948D01*
X1645Y948D02*
X1652Y948D01*
X0Y947D02*
X7Y947D01*
X1645Y947D02*
X1652Y947D01*
X0Y946D02*
X7Y946D01*
X1645Y946D02*
X1652Y946D01*
X0Y945D02*
X7Y945D01*
X1645Y945D02*
X1652Y945D01*
X0Y944D02*
X7Y944D01*
X1645Y944D02*
X1652Y944D01*
X0Y943D02*
X7Y943D01*
X1645Y943D02*
X1652Y943D01*
X0Y942D02*
X7Y942D01*
X1645Y942D02*
X1652Y942D01*
X0Y941D02*
X7Y941D01*
X1645Y941D02*
X1652Y941D01*
X0Y940D02*
X7Y940D01*
X1645Y940D02*
X1652Y940D01*
X0Y939D02*
X7Y939D01*
X1645Y939D02*
X1652Y939D01*
X0Y938D02*
X7Y938D01*
X1645Y938D02*
X1652Y938D01*
X0Y937D02*
X7Y937D01*
X1645Y937D02*
X1652Y937D01*
X0Y936D02*
X7Y936D01*
X1645Y936D02*
X1652Y936D01*
X0Y935D02*
X7Y935D01*
X1645Y935D02*
X1652Y935D01*
X0Y934D02*
X7Y934D01*
X1645Y934D02*
X1652Y934D01*
X0Y933D02*
X7Y933D01*
X1645Y933D02*
X1652Y933D01*
X0Y932D02*
X7Y932D01*
X1645Y932D02*
X1652Y932D01*
X0Y931D02*
X7Y931D01*
X1645Y931D02*
X1652Y931D01*
X0Y930D02*
X7Y930D01*
X1645Y930D02*
X1652Y930D01*
X0Y929D02*
X7Y929D01*
X1645Y929D02*
X1652Y929D01*
X0Y928D02*
X7Y928D01*
X1645Y928D02*
X1652Y928D01*
X0Y927D02*
X7Y927D01*
X1645Y927D02*
X1652Y927D01*
X0Y926D02*
X7Y926D01*
X1645Y926D02*
X1652Y926D01*
X0Y925D02*
X7Y925D01*
X1645Y925D02*
X1652Y925D01*
X0Y924D02*
X7Y924D01*
X1645Y924D02*
X1652Y924D01*
X0Y923D02*
X7Y923D01*
X1645Y923D02*
X1652Y923D01*
X0Y922D02*
X7Y922D01*
X1645Y922D02*
X1652Y922D01*
X0Y921D02*
X7Y921D01*
X1645Y921D02*
X1652Y921D01*
X0Y920D02*
X7Y920D01*
X1645Y920D02*
X1652Y920D01*
X0Y919D02*
X7Y919D01*
X1645Y919D02*
X1652Y919D01*
X0Y918D02*
X7Y918D01*
X1645Y918D02*
X1652Y918D01*
X0Y917D02*
X7Y917D01*
X1645Y917D02*
X1652Y917D01*
X0Y916D02*
X7Y916D01*
X1645Y916D02*
X1652Y916D01*
X0Y915D02*
X7Y915D01*
X1645Y915D02*
X1652Y915D01*
X0Y914D02*
X7Y914D01*
X1645Y914D02*
X1652Y914D01*
X0Y913D02*
X7Y913D01*
X1645Y913D02*
X1652Y913D01*
X0Y912D02*
X7Y912D01*
X1645Y912D02*
X1652Y912D01*
X0Y911D02*
X7Y911D01*
X1645Y911D02*
X1652Y911D01*
X0Y910D02*
X7Y910D01*
X1645Y910D02*
X1652Y910D01*
X0Y909D02*
X7Y909D01*
X1645Y909D02*
X1652Y909D01*
X0Y908D02*
X7Y908D01*
X1645Y908D02*
X1652Y908D01*
X0Y907D02*
X7Y907D01*
X1645Y907D02*
X1652Y907D01*
X0Y906D02*
X7Y906D01*
X1645Y906D02*
X1652Y906D01*
X0Y905D02*
X7Y905D01*
X1645Y905D02*
X1652Y905D01*
X0Y904D02*
X7Y904D01*
X1645Y904D02*
X1652Y904D01*
X0Y903D02*
X7Y903D01*
X1645Y903D02*
X1652Y903D01*
X0Y902D02*
X7Y902D01*
X1645Y902D02*
X1652Y902D01*
X0Y901D02*
X7Y901D01*
X1645Y901D02*
X1652Y901D01*
X0Y900D02*
X7Y900D01*
X1645Y900D02*
X1652Y900D01*
X0Y899D02*
X7Y899D01*
X1645Y899D02*
X1652Y899D01*
X0Y898D02*
X7Y898D01*
X1645Y898D02*
X1652Y898D01*
X0Y897D02*
X7Y897D01*
X1645Y897D02*
X1652Y897D01*
X0Y896D02*
X7Y896D01*
X1645Y896D02*
X1652Y896D01*
X0Y895D02*
X7Y895D01*
X1645Y895D02*
X1652Y895D01*
X0Y894D02*
X7Y894D01*
X1645Y894D02*
X1652Y894D01*
X0Y893D02*
X7Y893D01*
X1645Y893D02*
X1652Y893D01*
X0Y892D02*
X7Y892D01*
X1645Y892D02*
X1652Y892D01*
X0Y891D02*
X7Y891D01*
X1645Y891D02*
X1652Y891D01*
X0Y890D02*
X7Y890D01*
X1645Y890D02*
X1652Y890D01*
X0Y889D02*
X7Y889D01*
X1645Y889D02*
X1652Y889D01*
X0Y888D02*
X7Y888D01*
X1645Y888D02*
X1652Y888D01*
X0Y887D02*
X7Y887D01*
X1645Y887D02*
X1652Y887D01*
X0Y886D02*
X7Y886D01*
X1645Y886D02*
X1652Y886D01*
X0Y885D02*
X7Y885D01*
X1645Y885D02*
X1652Y885D01*
X0Y884D02*
X7Y884D01*
X1645Y884D02*
X1652Y884D01*
X0Y883D02*
X7Y883D01*
X1645Y883D02*
X1652Y883D01*
X0Y882D02*
X7Y882D01*
X1645Y882D02*
X1652Y882D01*
X0Y881D02*
X7Y881D01*
X1645Y881D02*
X1652Y881D01*
X0Y880D02*
X7Y880D01*
X1645Y880D02*
X1652Y880D01*
X0Y879D02*
X7Y879D01*
X1645Y879D02*
X1652Y879D01*
X0Y878D02*
X7Y878D01*
X1645Y878D02*
X1652Y878D01*
X0Y877D02*
X7Y877D01*
X1645Y877D02*
X1652Y877D01*
X0Y876D02*
X7Y876D01*
X1645Y876D02*
X1652Y876D01*
X0Y875D02*
X7Y875D01*
X1645Y875D02*
X1652Y875D01*
X0Y874D02*
X7Y874D01*
X1645Y874D02*
X1652Y874D01*
X0Y873D02*
X7Y873D01*
X1645Y873D02*
X1652Y873D01*
X0Y872D02*
X7Y872D01*
X1645Y872D02*
X1652Y872D01*
X0Y871D02*
X7Y871D01*
X1645Y871D02*
X1652Y871D01*
X0Y870D02*
X7Y870D01*
X1645Y870D02*
X1652Y870D01*
X0Y869D02*
X7Y869D01*
X1645Y869D02*
X1652Y869D01*
X0Y868D02*
X7Y868D01*
X1645Y868D02*
X1652Y868D01*
X0Y867D02*
X7Y867D01*
X1645Y867D02*
X1652Y867D01*
X0Y866D02*
X7Y866D01*
X1645Y866D02*
X1652Y866D01*
X0Y865D02*
X7Y865D01*
X1645Y865D02*
X1652Y865D01*
X0Y864D02*
X7Y864D01*
X1645Y864D02*
X1652Y864D01*
X0Y863D02*
X7Y863D01*
X1645Y863D02*
X1652Y863D01*
X0Y862D02*
X7Y862D01*
X1645Y862D02*
X1652Y862D01*
X0Y861D02*
X7Y861D01*
X1645Y861D02*
X1652Y861D01*
X0Y860D02*
X7Y860D01*
X1645Y860D02*
X1652Y860D01*
X0Y859D02*
X7Y859D01*
X1645Y859D02*
X1652Y859D01*
X0Y858D02*
X7Y858D01*
X1645Y858D02*
X1652Y858D01*
X0Y857D02*
X7Y857D01*
X1645Y857D02*
X1652Y857D01*
X0Y856D02*
X7Y856D01*
X1645Y856D02*
X1652Y856D01*
X0Y855D02*
X7Y855D01*
X1645Y855D02*
X1652Y855D01*
X0Y854D02*
X7Y854D01*
X1645Y854D02*
X1652Y854D01*
X0Y853D02*
X7Y853D01*
X1645Y853D02*
X1652Y853D01*
X0Y852D02*
X7Y852D01*
X1645Y852D02*
X1652Y852D01*
X0Y851D02*
X7Y851D01*
X1645Y851D02*
X1652Y851D01*
X0Y850D02*
X7Y850D01*
X1645Y850D02*
X1652Y850D01*
X0Y849D02*
X7Y849D01*
X1645Y849D02*
X1652Y849D01*
X0Y848D02*
X7Y848D01*
X1645Y848D02*
X1652Y848D01*
X0Y847D02*
X7Y847D01*
X1645Y847D02*
X1652Y847D01*
X0Y846D02*
X7Y846D01*
X1645Y846D02*
X1652Y846D01*
X0Y845D02*
X7Y845D01*
X1645Y845D02*
X1652Y845D01*
X0Y844D02*
X7Y844D01*
X1645Y844D02*
X1652Y844D01*
X0Y843D02*
X7Y843D01*
X1645Y843D02*
X1652Y843D01*
X0Y842D02*
X7Y842D01*
X1645Y842D02*
X1652Y842D01*
X0Y841D02*
X7Y841D01*
X1645Y841D02*
X1652Y841D01*
X0Y840D02*
X7Y840D01*
X1645Y840D02*
X1652Y840D01*
X0Y839D02*
X7Y839D01*
X1645Y839D02*
X1652Y839D01*
X0Y838D02*
X7Y838D01*
X1645Y838D02*
X1652Y838D01*
X0Y837D02*
X7Y837D01*
X1645Y837D02*
X1652Y837D01*
X0Y836D02*
X7Y836D01*
X1645Y836D02*
X1652Y836D01*
X0Y835D02*
X7Y835D01*
X1645Y835D02*
X1652Y835D01*
X0Y834D02*
X7Y834D01*
X1645Y834D02*
X1652Y834D01*
X0Y833D02*
X7Y833D01*
X1645Y833D02*
X1652Y833D01*
X0Y832D02*
X7Y832D01*
X1645Y832D02*
X1652Y832D01*
X0Y831D02*
X7Y831D01*
X1645Y831D02*
X1652Y831D01*
X0Y830D02*
X7Y830D01*
X1645Y830D02*
X1652Y830D01*
X0Y829D02*
X7Y829D01*
X1645Y829D02*
X1652Y829D01*
X0Y828D02*
X7Y828D01*
X1645Y828D02*
X1652Y828D01*
X0Y827D02*
X7Y827D01*
X1645Y827D02*
X1652Y827D01*
X0Y826D02*
X7Y826D01*
X1645Y826D02*
X1652Y826D01*
X0Y825D02*
X7Y825D01*
X1645Y825D02*
X1652Y825D01*
X0Y824D02*
X7Y824D01*
X1645Y824D02*
X1652Y824D01*
X0Y823D02*
X7Y823D01*
X1645Y823D02*
X1652Y823D01*
X0Y822D02*
X7Y822D01*
X1645Y822D02*
X1652Y822D01*
X0Y821D02*
X7Y821D01*
X1645Y821D02*
X1652Y821D01*
X0Y820D02*
X7Y820D01*
X1645Y820D02*
X1652Y820D01*
X0Y819D02*
X7Y819D01*
X1645Y819D02*
X1652Y819D01*
X0Y818D02*
X7Y818D01*
X1645Y818D02*
X1652Y818D01*
X0Y817D02*
X7Y817D01*
X1645Y817D02*
X1652Y817D01*
X0Y816D02*
X7Y816D01*
X1645Y816D02*
X1652Y816D01*
X0Y815D02*
X7Y815D01*
X1645Y815D02*
X1652Y815D01*
X0Y814D02*
X7Y814D01*
X1645Y814D02*
X1652Y814D01*
X0Y813D02*
X7Y813D01*
X1645Y813D02*
X1652Y813D01*
X0Y812D02*
X7Y812D01*
X1645Y812D02*
X1652Y812D01*
X0Y811D02*
X7Y811D01*
X1645Y811D02*
X1652Y811D01*
X0Y810D02*
X7Y810D01*
X1645Y810D02*
X1652Y810D01*
X0Y809D02*
X7Y809D01*
X1645Y809D02*
X1652Y809D01*
X0Y808D02*
X7Y808D01*
X1645Y808D02*
X1652Y808D01*
X0Y807D02*
X7Y807D01*
X1645Y807D02*
X1652Y807D01*
X0Y806D02*
X7Y806D01*
X1645Y806D02*
X1652Y806D01*
X0Y805D02*
X7Y805D01*
X1645Y805D02*
X1652Y805D01*
X0Y804D02*
X7Y804D01*
X1645Y804D02*
X1652Y804D01*
X0Y803D02*
X7Y803D01*
X1645Y803D02*
X1652Y803D01*
X0Y802D02*
X7Y802D01*
X1645Y802D02*
X1652Y802D01*
X0Y801D02*
X7Y801D01*
X1645Y801D02*
X1652Y801D01*
X0Y800D02*
X7Y800D01*
X1645Y800D02*
X1652Y800D01*
X0Y799D02*
X7Y799D01*
X1645Y799D02*
X1652Y799D01*
X0Y798D02*
X7Y798D01*
X1645Y798D02*
X1652Y798D01*
X0Y797D02*
X7Y797D01*
X1645Y797D02*
X1652Y797D01*
X0Y796D02*
X7Y796D01*
X1645Y796D02*
X1652Y796D01*
X0Y795D02*
X7Y795D01*
X1645Y795D02*
X1652Y795D01*
X0Y794D02*
X7Y794D01*
X1645Y794D02*
X1652Y794D01*
X0Y793D02*
X7Y793D01*
X1645Y793D02*
X1652Y793D01*
X0Y792D02*
X7Y792D01*
X1645Y792D02*
X1652Y792D01*
X0Y791D02*
X7Y791D01*
X1645Y791D02*
X1652Y791D01*
X0Y790D02*
X7Y790D01*
X1645Y790D02*
X1652Y790D01*
X0Y789D02*
X7Y789D01*
X1645Y789D02*
X1652Y789D01*
X0Y788D02*
X7Y788D01*
X1645Y788D02*
X1652Y788D01*
X0Y787D02*
X7Y787D01*
X1645Y787D02*
X1652Y787D01*
X0Y786D02*
X7Y786D01*
X1645Y786D02*
X1652Y786D01*
X0Y785D02*
X7Y785D01*
X1645Y785D02*
X1652Y785D01*
X0Y784D02*
X7Y784D01*
X1645Y784D02*
X1652Y784D01*
X0Y783D02*
X7Y783D01*
X1645Y783D02*
X1652Y783D01*
X0Y782D02*
X7Y782D01*
X1645Y782D02*
X1652Y782D01*
X0Y781D02*
X7Y781D01*
X1645Y781D02*
X1652Y781D01*
X0Y780D02*
X7Y780D01*
X1645Y780D02*
X1652Y780D01*
X0Y779D02*
X7Y779D01*
X1645Y779D02*
X1652Y779D01*
X0Y778D02*
X7Y778D01*
X1645Y778D02*
X1652Y778D01*
X0Y777D02*
X7Y777D01*
X1645Y777D02*
X1652Y777D01*
X0Y776D02*
X7Y776D01*
X1645Y776D02*
X1652Y776D01*
X0Y775D02*
X7Y775D01*
X1645Y775D02*
X1652Y775D01*
X0Y774D02*
X7Y774D01*
X1645Y774D02*
X1652Y774D01*
X0Y773D02*
X7Y773D01*
X1645Y773D02*
X1652Y773D01*
X0Y772D02*
X7Y772D01*
X1645Y772D02*
X1652Y772D01*
X0Y771D02*
X7Y771D01*
X1645Y771D02*
X1652Y771D01*
X0Y770D02*
X7Y770D01*
X1645Y770D02*
X1652Y770D01*
X0Y769D02*
X7Y769D01*
X1645Y769D02*
X1652Y769D01*
X0Y768D02*
X7Y768D01*
X1645Y768D02*
X1652Y768D01*
X0Y767D02*
X7Y767D01*
X1645Y767D02*
X1652Y767D01*
X0Y766D02*
X7Y766D01*
X1645Y766D02*
X1652Y766D01*
X0Y765D02*
X7Y765D01*
X1645Y765D02*
X1652Y765D01*
X0Y764D02*
X7Y764D01*
X1645Y764D02*
X1652Y764D01*
X0Y763D02*
X7Y763D01*
X1645Y763D02*
X1652Y763D01*
X0Y762D02*
X7Y762D01*
X1645Y762D02*
X1652Y762D01*
X0Y761D02*
X7Y761D01*
X1645Y761D02*
X1652Y761D01*
X0Y760D02*
X7Y760D01*
X1645Y760D02*
X1652Y760D01*
X0Y759D02*
X7Y759D01*
X1645Y759D02*
X1652Y759D01*
X0Y758D02*
X7Y758D01*
X1645Y758D02*
X1652Y758D01*
X0Y757D02*
X7Y757D01*
X1645Y757D02*
X1652Y757D01*
X0Y756D02*
X7Y756D01*
X1645Y756D02*
X1652Y756D01*
X0Y755D02*
X7Y755D01*
X1645Y755D02*
X1652Y755D01*
X0Y754D02*
X7Y754D01*
X1645Y754D02*
X1652Y754D01*
X0Y753D02*
X7Y753D01*
X1645Y753D02*
X1652Y753D01*
X0Y752D02*
X7Y752D01*
X1645Y752D02*
X1652Y752D01*
X0Y751D02*
X7Y751D01*
X1645Y751D02*
X1652Y751D01*
X0Y750D02*
X7Y750D01*
X1645Y750D02*
X1652Y750D01*
X0Y749D02*
X7Y749D01*
X1645Y749D02*
X1652Y749D01*
X0Y748D02*
X7Y748D01*
X1645Y748D02*
X1652Y748D01*
X0Y747D02*
X7Y747D01*
X1645Y747D02*
X1652Y747D01*
X0Y746D02*
X7Y746D01*
X1645Y746D02*
X1652Y746D01*
X0Y745D02*
X7Y745D01*
X1645Y745D02*
X1652Y745D01*
X0Y744D02*
X7Y744D01*
X1645Y744D02*
X1652Y744D01*
X0Y743D02*
X7Y743D01*
X1645Y743D02*
X1652Y743D01*
X0Y742D02*
X7Y742D01*
X1645Y742D02*
X1652Y742D01*
X0Y741D02*
X7Y741D01*
X1645Y741D02*
X1652Y741D01*
X0Y740D02*
X7Y740D01*
X1645Y740D02*
X1652Y740D01*
X0Y739D02*
X7Y739D01*
X1645Y739D02*
X1652Y739D01*
X0Y738D02*
X7Y738D01*
X1645Y738D02*
X1652Y738D01*
X0Y737D02*
X7Y737D01*
X1645Y737D02*
X1652Y737D01*
X0Y736D02*
X7Y736D01*
X1645Y736D02*
X1652Y736D01*
X0Y735D02*
X7Y735D01*
X1645Y735D02*
X1652Y735D01*
X0Y734D02*
X7Y734D01*
X1645Y734D02*
X1652Y734D01*
X0Y733D02*
X7Y733D01*
X1645Y733D02*
X1652Y733D01*
X0Y732D02*
X7Y732D01*
X1645Y732D02*
X1652Y732D01*
X0Y731D02*
X7Y731D01*
X1645Y731D02*
X1652Y731D01*
X0Y730D02*
X7Y730D01*
X1645Y730D02*
X1652Y730D01*
X0Y729D02*
X7Y729D01*
X1645Y729D02*
X1652Y729D01*
X0Y728D02*
X7Y728D01*
X1645Y728D02*
X1652Y728D01*
X0Y727D02*
X7Y727D01*
X1645Y727D02*
X1652Y727D01*
X0Y726D02*
X7Y726D01*
X1645Y726D02*
X1652Y726D01*
X0Y725D02*
X7Y725D01*
X1645Y725D02*
X1652Y725D01*
X0Y724D02*
X7Y724D01*
X1645Y724D02*
X1652Y724D01*
X0Y723D02*
X7Y723D01*
X1645Y723D02*
X1652Y723D01*
X0Y722D02*
X7Y722D01*
X1645Y722D02*
X1652Y722D01*
X0Y721D02*
X7Y721D01*
X1645Y721D02*
X1652Y721D01*
X0Y720D02*
X7Y720D01*
X1645Y720D02*
X1652Y720D01*
X0Y719D02*
X7Y719D01*
X1645Y719D02*
X1652Y719D01*
X0Y718D02*
X7Y718D01*
X1645Y718D02*
X1652Y718D01*
X0Y717D02*
X7Y717D01*
X1645Y717D02*
X1652Y717D01*
X0Y716D02*
X7Y716D01*
X1645Y716D02*
X1652Y716D01*
X0Y715D02*
X7Y715D01*
X1645Y715D02*
X1652Y715D01*
X0Y714D02*
X7Y714D01*
X1645Y714D02*
X1652Y714D01*
X0Y713D02*
X7Y713D01*
X1645Y713D02*
X1652Y713D01*
X0Y712D02*
X7Y712D01*
X1645Y712D02*
X1652Y712D01*
X0Y711D02*
X7Y711D01*
X1645Y711D02*
X1652Y711D01*
X0Y710D02*
X7Y710D01*
X1645Y710D02*
X1652Y710D01*
X0Y709D02*
X7Y709D01*
X1645Y709D02*
X1652Y709D01*
X0Y708D02*
X7Y708D01*
X1645Y708D02*
X1652Y708D01*
X0Y707D02*
X7Y707D01*
X1645Y707D02*
X1652Y707D01*
X0Y706D02*
X7Y706D01*
X1645Y706D02*
X1652Y706D01*
X0Y705D02*
X7Y705D01*
X1645Y705D02*
X1652Y705D01*
X0Y704D02*
X7Y704D01*
X1645Y704D02*
X1652Y704D01*
X0Y703D02*
X7Y703D01*
X1645Y703D02*
X1652Y703D01*
X0Y702D02*
X7Y702D01*
X1645Y702D02*
X1652Y702D01*
X0Y701D02*
X7Y701D01*
X1645Y701D02*
X1652Y701D01*
X0Y700D02*
X7Y700D01*
X1645Y700D02*
X1652Y700D01*
X0Y699D02*
X7Y699D01*
X1645Y699D02*
X1652Y699D01*
X0Y698D02*
X7Y698D01*
X1645Y698D02*
X1652Y698D01*
X0Y697D02*
X7Y697D01*
X1645Y697D02*
X1652Y697D01*
X0Y696D02*
X7Y696D01*
X1645Y696D02*
X1652Y696D01*
X0Y695D02*
X7Y695D01*
X1645Y695D02*
X1652Y695D01*
X0Y694D02*
X7Y694D01*
X1645Y694D02*
X1652Y694D01*
X0Y693D02*
X7Y693D01*
X1645Y693D02*
X1652Y693D01*
X0Y692D02*
X7Y692D01*
X1645Y692D02*
X1652Y692D01*
X0Y691D02*
X7Y691D01*
X1645Y691D02*
X1652Y691D01*
X0Y690D02*
X7Y690D01*
X1645Y690D02*
X1652Y690D01*
X0Y689D02*
X7Y689D01*
X1645Y689D02*
X1652Y689D01*
X0Y688D02*
X7Y688D01*
X1645Y688D02*
X1652Y688D01*
X0Y687D02*
X7Y687D01*
X1645Y687D02*
X1652Y687D01*
X0Y686D02*
X7Y686D01*
X1645Y686D02*
X1652Y686D01*
X0Y685D02*
X7Y685D01*
X1645Y685D02*
X1652Y685D01*
X0Y684D02*
X7Y684D01*
X1645Y684D02*
X1652Y684D01*
X0Y683D02*
X7Y683D01*
X1645Y683D02*
X1652Y683D01*
X0Y682D02*
X7Y682D01*
X1645Y682D02*
X1652Y682D01*
X0Y681D02*
X7Y681D01*
X1645Y681D02*
X1652Y681D01*
X0Y680D02*
X7Y680D01*
X1645Y680D02*
X1652Y680D01*
X0Y679D02*
X7Y679D01*
X1645Y679D02*
X1652Y679D01*
X0Y678D02*
X7Y678D01*
X1645Y678D02*
X1652Y678D01*
X0Y677D02*
X7Y677D01*
X1645Y677D02*
X1652Y677D01*
X0Y676D02*
X7Y676D01*
X1645Y676D02*
X1652Y676D01*
X0Y675D02*
X7Y675D01*
X1645Y675D02*
X1652Y675D01*
X0Y674D02*
X7Y674D01*
X1645Y674D02*
X1652Y674D01*
X0Y673D02*
X7Y673D01*
X1645Y673D02*
X1652Y673D01*
X0Y672D02*
X7Y672D01*
X1645Y672D02*
X1652Y672D01*
X0Y671D02*
X7Y671D01*
X1645Y671D02*
X1652Y671D01*
X0Y670D02*
X7Y670D01*
X1645Y670D02*
X1652Y670D01*
X0Y669D02*
X7Y669D01*
X1645Y669D02*
X1652Y669D01*
X0Y668D02*
X7Y668D01*
X1645Y668D02*
X1652Y668D01*
X0Y667D02*
X7Y667D01*
X1645Y667D02*
X1652Y667D01*
X0Y666D02*
X7Y666D01*
X1645Y666D02*
X1652Y666D01*
X0Y665D02*
X7Y665D01*
X1645Y665D02*
X1652Y665D01*
X0Y664D02*
X7Y664D01*
X1645Y664D02*
X1652Y664D01*
X0Y663D02*
X7Y663D01*
X1645Y663D02*
X1652Y663D01*
X0Y662D02*
X7Y662D01*
X1645Y662D02*
X1652Y662D01*
X0Y661D02*
X7Y661D01*
X1645Y661D02*
X1652Y661D01*
X0Y660D02*
X7Y660D01*
X1645Y660D02*
X1652Y660D01*
X0Y659D02*
X7Y659D01*
X1645Y659D02*
X1652Y659D01*
X0Y658D02*
X7Y658D01*
X1645Y658D02*
X1652Y658D01*
X0Y657D02*
X7Y657D01*
X1645Y657D02*
X1652Y657D01*
X0Y656D02*
X7Y656D01*
X1645Y656D02*
X1652Y656D01*
X0Y655D02*
X7Y655D01*
X1645Y655D02*
X1652Y655D01*
X0Y654D02*
X7Y654D01*
X1645Y654D02*
X1652Y654D01*
X0Y653D02*
X7Y653D01*
X1645Y653D02*
X1652Y653D01*
X0Y652D02*
X7Y652D01*
X1645Y652D02*
X1652Y652D01*
X0Y651D02*
X7Y651D01*
X1645Y651D02*
X1652Y651D01*
X0Y650D02*
X7Y650D01*
X1645Y650D02*
X1652Y650D01*
X0Y649D02*
X7Y649D01*
X1645Y649D02*
X1652Y649D01*
X0Y648D02*
X7Y648D01*
X1645Y648D02*
X1652Y648D01*
X0Y647D02*
X7Y647D01*
X1645Y647D02*
X1652Y647D01*
X0Y646D02*
X7Y646D01*
X1645Y646D02*
X1652Y646D01*
X0Y645D02*
X7Y645D01*
X715Y645D02*
X731Y645D01*
X761Y645D02*
X784Y645D01*
X1645Y645D02*
X1652Y645D01*
X0Y644D02*
X7Y644D01*
X715Y644D02*
X734Y644D01*
X757Y644D02*
X785Y644D01*
X1645Y644D02*
X1652Y644D01*
X0Y643D02*
X7Y643D01*
X715Y643D02*
X734Y643D01*
X756Y643D02*
X785Y643D01*
X1645Y643D02*
X1652Y643D01*
X0Y642D02*
X7Y642D01*
X715Y642D02*
X735Y642D01*
X754Y642D02*
X785Y642D01*
X1645Y642D02*
X1652Y642D01*
X0Y641D02*
X7Y641D01*
X715Y641D02*
X735Y641D01*
X754Y641D02*
X785Y641D01*
X1645Y641D02*
X1652Y641D01*
X0Y640D02*
X7Y640D01*
X715Y640D02*
X734Y640D01*
X753Y640D02*
X785Y640D01*
X1645Y640D02*
X1652Y640D01*
X0Y639D02*
X7Y639D01*
X715Y639D02*
X733Y639D01*
X752Y639D02*
X785Y639D01*
X1645Y639D02*
X1652Y639D01*
X0Y638D02*
X7Y638D01*
X715Y638D02*
X721Y638D01*
X752Y638D02*
X761Y638D01*
X778Y638D02*
X785Y638D01*
X1645Y638D02*
X1652Y638D01*
X0Y637D02*
X7Y637D01*
X715Y637D02*
X721Y637D01*
X752Y637D02*
X758Y637D01*
X779Y637D02*
X785Y637D01*
X1645Y637D02*
X1652Y637D01*
X0Y636D02*
X7Y636D01*
X715Y636D02*
X721Y636D01*
X751Y636D02*
X758Y636D01*
X779Y636D02*
X785Y636D01*
X1645Y636D02*
X1652Y636D01*
X0Y635D02*
X7Y635D01*
X715Y635D02*
X721Y635D01*
X751Y635D02*
X757Y635D01*
X779Y635D02*
X785Y635D01*
X1645Y635D02*
X1652Y635D01*
X0Y634D02*
X7Y634D01*
X715Y634D02*
X721Y634D01*
X751Y634D02*
X757Y634D01*
X779Y634D02*
X785Y634D01*
X1645Y634D02*
X1652Y634D01*
X0Y633D02*
X7Y633D01*
X715Y633D02*
X721Y633D01*
X751Y633D02*
X757Y633D01*
X779Y633D02*
X785Y633D01*
X1645Y633D02*
X1652Y633D01*
X0Y632D02*
X7Y632D01*
X715Y632D02*
X721Y632D01*
X751Y632D02*
X757Y632D01*
X779Y632D02*
X785Y632D01*
X1645Y632D02*
X1652Y632D01*
X0Y631D02*
X7Y631D01*
X715Y631D02*
X721Y631D01*
X751Y631D02*
X757Y631D01*
X779Y631D02*
X785Y631D01*
X1645Y631D02*
X1652Y631D01*
X0Y630D02*
X7Y630D01*
X715Y630D02*
X721Y630D01*
X751Y630D02*
X757Y630D01*
X779Y630D02*
X785Y630D01*
X1645Y630D02*
X1652Y630D01*
X0Y629D02*
X7Y629D01*
X715Y629D02*
X721Y629D01*
X751Y629D02*
X758Y629D01*
X779Y629D02*
X785Y629D01*
X1645Y629D02*
X1652Y629D01*
X0Y628D02*
X7Y628D01*
X715Y628D02*
X721Y628D01*
X752Y628D02*
X759Y628D01*
X779Y628D02*
X785Y628D01*
X1645Y628D02*
X1652Y628D01*
X0Y627D02*
X7Y627D01*
X715Y627D02*
X721Y627D01*
X752Y627D02*
X785Y627D01*
X1645Y627D02*
X1652Y627D01*
X0Y626D02*
X7Y626D01*
X715Y626D02*
X721Y626D01*
X753Y626D02*
X785Y626D01*
X1645Y626D02*
X1652Y626D01*
X0Y625D02*
X7Y625D01*
X715Y625D02*
X721Y625D01*
X753Y625D02*
X785Y625D01*
X1645Y625D02*
X1652Y625D01*
X0Y624D02*
X7Y624D01*
X715Y624D02*
X721Y624D01*
X754Y624D02*
X785Y624D01*
X1645Y624D02*
X1652Y624D01*
X0Y623D02*
X7Y623D01*
X715Y623D02*
X721Y623D01*
X755Y623D02*
X785Y623D01*
X1645Y623D02*
X1652Y623D01*
X0Y622D02*
X7Y622D01*
X715Y622D02*
X721Y622D01*
X756Y622D02*
X785Y622D01*
X1645Y622D02*
X1652Y622D01*
X0Y621D02*
X7Y621D01*
X715Y621D02*
X721Y621D01*
X758Y621D02*
X785Y621D01*
X1645Y621D02*
X1652Y621D01*
X0Y620D02*
X7Y620D01*
X715Y620D02*
X721Y620D01*
X765Y620D02*
X773Y620D01*
X779Y620D02*
X785Y620D01*
X1645Y620D02*
X1652Y620D01*
X0Y619D02*
X7Y619D01*
X715Y619D02*
X721Y619D01*
X765Y619D02*
X772Y619D01*
X779Y619D02*
X785Y619D01*
X1645Y619D02*
X1652Y619D01*
X0Y618D02*
X7Y618D01*
X715Y618D02*
X721Y618D01*
X764Y618D02*
X772Y618D01*
X779Y618D02*
X785Y618D01*
X1645Y618D02*
X1652Y618D01*
X0Y617D02*
X7Y617D01*
X715Y617D02*
X721Y617D01*
X764Y617D02*
X771Y617D01*
X779Y617D02*
X785Y617D01*
X1645Y617D02*
X1652Y617D01*
X0Y616D02*
X7Y616D01*
X715Y616D02*
X721Y616D01*
X763Y616D02*
X770Y616D01*
X779Y616D02*
X785Y616D01*
X1645Y616D02*
X1652Y616D01*
X0Y615D02*
X7Y615D01*
X703Y615D02*
X705Y615D01*
X715Y615D02*
X721Y615D01*
X763Y615D02*
X770Y615D01*
X779Y615D02*
X785Y615D01*
X1645Y615D02*
X1652Y615D01*
X0Y614D02*
X7Y614D01*
X702Y614D02*
X706Y614D01*
X715Y614D02*
X721Y614D01*
X762Y614D02*
X769Y614D01*
X779Y614D02*
X785Y614D01*
X1645Y614D02*
X1652Y614D01*
X0Y613D02*
X7Y613D01*
X701Y613D02*
X707Y613D01*
X715Y613D02*
X721Y613D01*
X762Y613D02*
X769Y613D01*
X779Y613D02*
X785Y613D01*
X1645Y613D02*
X1652Y613D01*
X0Y612D02*
X7Y612D01*
X701Y612D02*
X707Y612D01*
X715Y612D02*
X721Y612D01*
X761Y612D02*
X768Y612D01*
X779Y612D02*
X785Y612D01*
X1645Y612D02*
X1652Y612D01*
X0Y611D02*
X7Y611D01*
X701Y611D02*
X707Y611D01*
X715Y611D02*
X721Y611D01*
X760Y611D02*
X768Y611D01*
X779Y611D02*
X785Y611D01*
X1645Y611D02*
X1652Y611D01*
X0Y610D02*
X7Y610D01*
X701Y610D02*
X707Y610D01*
X715Y610D02*
X721Y610D01*
X760Y610D02*
X767Y610D01*
X779Y610D02*
X785Y610D01*
X1645Y610D02*
X1652Y610D01*
X0Y609D02*
X7Y609D01*
X701Y609D02*
X707Y609D01*
X715Y609D02*
X721Y609D01*
X759Y609D02*
X766Y609D01*
X779Y609D02*
X785Y609D01*
X1645Y609D02*
X1652Y609D01*
X0Y608D02*
X7Y608D01*
X701Y608D02*
X707Y608D01*
X715Y608D02*
X721Y608D01*
X759Y608D02*
X766Y608D01*
X779Y608D02*
X785Y608D01*
X1645Y608D02*
X1652Y608D01*
X0Y607D02*
X7Y607D01*
X701Y607D02*
X707Y607D01*
X715Y607D02*
X721Y607D01*
X758Y607D02*
X765Y607D01*
X779Y607D02*
X785Y607D01*
X1645Y607D02*
X1652Y607D01*
X0Y606D02*
X7Y606D01*
X701Y606D02*
X707Y606D01*
X715Y606D02*
X721Y606D01*
X757Y606D02*
X765Y606D01*
X779Y606D02*
X785Y606D01*
X1645Y606D02*
X1652Y606D01*
X0Y605D02*
X7Y605D01*
X701Y605D02*
X707Y605D01*
X715Y605D02*
X721Y605D01*
X757Y605D02*
X764Y605D01*
X779Y605D02*
X785Y605D01*
X1645Y605D02*
X1652Y605D01*
X0Y604D02*
X7Y604D01*
X701Y604D02*
X707Y604D01*
X715Y604D02*
X721Y604D01*
X756Y604D02*
X763Y604D01*
X779Y604D02*
X785Y604D01*
X1645Y604D02*
X1652Y604D01*
X0Y603D02*
X7Y603D01*
X701Y603D02*
X707Y603D01*
X715Y603D02*
X721Y603D01*
X756Y603D02*
X763Y603D01*
X779Y603D02*
X785Y603D01*
X1645Y603D02*
X1652Y603D01*
X0Y602D02*
X7Y602D01*
X701Y602D02*
X707Y602D01*
X715Y602D02*
X721Y602D01*
X755Y602D02*
X762Y602D01*
X779Y602D02*
X785Y602D01*
X1645Y602D02*
X1652Y602D01*
X0Y601D02*
X7Y601D01*
X701Y601D02*
X707Y601D01*
X715Y601D02*
X721Y601D01*
X755Y601D02*
X762Y601D01*
X779Y601D02*
X785Y601D01*
X1645Y601D02*
X1652Y601D01*
X0Y600D02*
X7Y600D01*
X701Y600D02*
X707Y600D01*
X715Y600D02*
X721Y600D01*
X754Y600D02*
X761Y600D01*
X779Y600D02*
X785Y600D01*
X1645Y600D02*
X1652Y600D01*
X0Y599D02*
X7Y599D01*
X701Y599D02*
X707Y599D01*
X715Y599D02*
X721Y599D01*
X753Y599D02*
X761Y599D01*
X779Y599D02*
X785Y599D01*
X1645Y599D02*
X1652Y599D01*
X0Y598D02*
X7Y598D01*
X701Y598D02*
X707Y598D01*
X715Y598D02*
X721Y598D01*
X753Y598D02*
X760Y598D01*
X779Y598D02*
X785Y598D01*
X1645Y598D02*
X1652Y598D01*
X0Y597D02*
X7Y597D01*
X701Y597D02*
X733Y597D01*
X752Y597D02*
X759Y597D01*
X779Y597D02*
X785Y597D01*
X1645Y597D02*
X1652Y597D01*
X0Y596D02*
X7Y596D01*
X701Y596D02*
X734Y596D01*
X752Y596D02*
X759Y596D01*
X779Y596D02*
X785Y596D01*
X1645Y596D02*
X1652Y596D01*
X0Y595D02*
X7Y595D01*
X701Y595D02*
X735Y595D01*
X751Y595D02*
X758Y595D01*
X779Y595D02*
X785Y595D01*
X1645Y595D02*
X1652Y595D01*
X0Y594D02*
X7Y594D01*
X701Y594D02*
X735Y594D01*
X751Y594D02*
X758Y594D01*
X779Y594D02*
X785Y594D01*
X1645Y594D02*
X1652Y594D01*
X0Y593D02*
X7Y593D01*
X701Y593D02*
X734Y593D01*
X752Y593D02*
X757Y593D01*
X779Y593D02*
X784Y593D01*
X1645Y593D02*
X1652Y593D01*
X0Y592D02*
X7Y592D01*
X702Y592D02*
X734Y592D01*
X752Y592D02*
X756Y592D01*
X780Y592D02*
X784Y592D01*
X1645Y592D02*
X1652Y592D01*
X0Y591D02*
X7Y591D01*
X704Y591D02*
X732Y591D01*
X754Y591D02*
X755Y591D01*
X782Y591D02*
X782Y591D01*
X1645Y591D02*
X1652Y591D01*
X0Y590D02*
X7Y590D01*
X1645Y590D02*
X1652Y590D01*
X0Y589D02*
X7Y589D01*
X1645Y589D02*
X1652Y589D01*
X0Y588D02*
X7Y588D01*
X1645Y588D02*
X1652Y588D01*
X0Y587D02*
X7Y587D01*
X1645Y587D02*
X1652Y587D01*
X0Y586D02*
X7Y586D01*
X1645Y586D02*
X1652Y586D01*
X0Y585D02*
X7Y585D01*
X1645Y585D02*
X1652Y585D01*
X0Y584D02*
X7Y584D01*
X1645Y584D02*
X1652Y584D01*
X0Y583D02*
X7Y583D01*
X1645Y583D02*
X1652Y583D01*
X0Y582D02*
X7Y582D01*
X1645Y582D02*
X1652Y582D01*
X0Y581D02*
X7Y581D01*
X1645Y581D02*
X1652Y581D01*
X0Y580D02*
X7Y580D01*
X1645Y580D02*
X1652Y580D01*
X0Y579D02*
X7Y579D01*
X1645Y579D02*
X1652Y579D01*
X0Y578D02*
X7Y578D01*
X1645Y578D02*
X1652Y578D01*
X0Y577D02*
X7Y577D01*
X1645Y577D02*
X1652Y577D01*
X0Y576D02*
X7Y576D01*
X1645Y576D02*
X1652Y576D01*
X0Y575D02*
X7Y575D01*
X1645Y575D02*
X1652Y575D01*
X0Y574D02*
X7Y574D01*
X1645Y574D02*
X1652Y574D01*
X0Y573D02*
X7Y573D01*
X1645Y573D02*
X1652Y573D01*
X0Y572D02*
X7Y572D01*
X1645Y572D02*
X1652Y572D01*
X0Y571D02*
X7Y571D01*
X1645Y571D02*
X1652Y571D01*
X0Y570D02*
X7Y570D01*
X1645Y570D02*
X1652Y570D01*
X0Y569D02*
X7Y569D01*
X1645Y569D02*
X1652Y569D01*
X0Y568D02*
X7Y568D01*
X1645Y568D02*
X1652Y568D01*
X0Y567D02*
X7Y567D01*
X1645Y567D02*
X1652Y567D01*
X0Y566D02*
X7Y566D01*
X1645Y566D02*
X1652Y566D01*
X0Y565D02*
X7Y565D01*
X1645Y565D02*
X1652Y565D01*
X0Y564D02*
X7Y564D01*
X1645Y564D02*
X1652Y564D01*
X0Y563D02*
X7Y563D01*
X1645Y563D02*
X1652Y563D01*
X0Y562D02*
X7Y562D01*
X1645Y562D02*
X1652Y562D01*
X0Y561D02*
X7Y561D01*
X1645Y561D02*
X1652Y561D01*
X0Y560D02*
X7Y560D01*
X1645Y560D02*
X1652Y560D01*
X0Y559D02*
X7Y559D01*
X1645Y559D02*
X1652Y559D01*
X0Y558D02*
X7Y558D01*
X1645Y558D02*
X1652Y558D01*
X0Y557D02*
X7Y557D01*
X1645Y557D02*
X1652Y557D01*
X0Y556D02*
X7Y556D01*
X1645Y556D02*
X1652Y556D01*
X0Y555D02*
X7Y555D01*
X1645Y555D02*
X1652Y555D01*
X0Y554D02*
X7Y554D01*
X1645Y554D02*
X1652Y554D01*
X0Y553D02*
X7Y553D01*
X1645Y553D02*
X1652Y553D01*
X0Y552D02*
X7Y552D01*
X1645Y552D02*
X1652Y552D01*
X0Y551D02*
X7Y551D01*
X1645Y551D02*
X1652Y551D01*
X0Y550D02*
X7Y550D01*
X1645Y550D02*
X1652Y550D01*
X0Y549D02*
X7Y549D01*
X1645Y549D02*
X1652Y549D01*
X0Y548D02*
X7Y548D01*
X1645Y548D02*
X1652Y548D01*
X0Y547D02*
X7Y547D01*
X1645Y547D02*
X1652Y547D01*
X0Y546D02*
X7Y546D01*
X1645Y546D02*
X1652Y546D01*
X0Y545D02*
X7Y545D01*
X1645Y545D02*
X1652Y545D01*
X0Y544D02*
X7Y544D01*
X1645Y544D02*
X1652Y544D01*
X0Y543D02*
X7Y543D01*
X1645Y543D02*
X1652Y543D01*
X0Y542D02*
X7Y542D01*
X1645Y542D02*
X1652Y542D01*
X0Y541D02*
X7Y541D01*
X1645Y541D02*
X1652Y541D01*
X0Y540D02*
X7Y540D01*
X1645Y540D02*
X1652Y540D01*
X0Y539D02*
X7Y539D01*
X1645Y539D02*
X1652Y539D01*
X0Y538D02*
X7Y538D01*
X1645Y538D02*
X1652Y538D01*
X0Y537D02*
X7Y537D01*
X1645Y537D02*
X1652Y537D01*
X0Y536D02*
X7Y536D01*
X586Y536D02*
X633Y536D01*
X835Y536D02*
X901Y536D01*
X1645Y536D02*
X1652Y536D01*
X0Y535D02*
X7Y535D01*
X587Y535D02*
X634Y535D01*
X835Y535D02*
X901Y535D01*
X1645Y535D02*
X1652Y535D01*
X0Y534D02*
X7Y534D01*
X587Y534D02*
X634Y534D01*
X835Y534D02*
X901Y534D01*
X1645Y534D02*
X1652Y534D01*
X0Y533D02*
X7Y533D01*
X587Y533D02*
X634Y533D01*
X835Y533D02*
X901Y533D01*
X1645Y533D02*
X1652Y533D01*
X0Y532D02*
X7Y532D01*
X587Y532D02*
X634Y532D01*
X835Y532D02*
X901Y532D01*
X1645Y532D02*
X1652Y532D01*
X0Y531D02*
X7Y531D01*
X587Y531D02*
X634Y531D01*
X835Y531D02*
X901Y531D01*
X1645Y531D02*
X1652Y531D01*
X0Y530D02*
X7Y530D01*
X587Y530D02*
X634Y530D01*
X835Y530D02*
X901Y530D01*
X1645Y530D02*
X1652Y530D01*
X0Y529D02*
X7Y529D01*
X587Y529D02*
X634Y529D01*
X835Y529D02*
X901Y529D01*
X1645Y529D02*
X1652Y529D01*
X0Y528D02*
X7Y528D01*
X587Y528D02*
X634Y528D01*
X835Y528D02*
X901Y528D01*
X1645Y528D02*
X1652Y528D01*
X0Y527D02*
X7Y527D01*
X586Y527D02*
X634Y527D01*
X835Y527D02*
X901Y527D01*
X1645Y527D02*
X1652Y527D01*
X0Y526D02*
X7Y526D01*
X1645Y526D02*
X1652Y526D01*
X0Y525D02*
X7Y525D01*
X1645Y525D02*
X1652Y525D01*
X0Y524D02*
X7Y524D01*
X1645Y524D02*
X1652Y524D01*
X0Y523D02*
X7Y523D01*
X1645Y523D02*
X1652Y523D01*
X0Y522D02*
X7Y522D01*
X1645Y522D02*
X1652Y522D01*
X0Y521D02*
X7Y521D01*
X1645Y521D02*
X1652Y521D01*
X0Y520D02*
X7Y520D01*
X1645Y520D02*
X1652Y520D01*
X0Y519D02*
X7Y519D01*
X1645Y519D02*
X1652Y519D01*
X0Y518D02*
X7Y518D01*
X1645Y518D02*
X1652Y518D01*
X0Y517D02*
X7Y517D01*
X1645Y517D02*
X1652Y517D01*
X0Y516D02*
X7Y516D01*
X1645Y516D02*
X1652Y516D01*
X0Y515D02*
X7Y515D01*
X1645Y515D02*
X1652Y515D01*
X0Y514D02*
X7Y514D01*
X1645Y514D02*
X1652Y514D01*
X0Y513D02*
X7Y513D01*
X1645Y513D02*
X1652Y513D01*
X0Y512D02*
X7Y512D01*
X1645Y512D02*
X1652Y512D01*
X0Y511D02*
X7Y511D01*
X1645Y511D02*
X1652Y511D01*
X0Y510D02*
X7Y510D01*
X1645Y510D02*
X1652Y510D01*
X0Y509D02*
X7Y509D01*
X1645Y509D02*
X1652Y509D01*
X0Y508D02*
X7Y508D01*
X1645Y508D02*
X1652Y508D01*
X0Y507D02*
X7Y507D01*
X1645Y507D02*
X1652Y507D01*
X0Y506D02*
X7Y506D01*
X1645Y506D02*
X1652Y506D01*
X0Y505D02*
X7Y505D01*
X1645Y505D02*
X1652Y505D01*
X0Y504D02*
X7Y504D01*
X1645Y504D02*
X1652Y504D01*
X0Y503D02*
X7Y503D01*
X1645Y503D02*
X1652Y503D01*
X0Y502D02*
X7Y502D01*
X1645Y502D02*
X1652Y502D01*
X0Y501D02*
X7Y501D01*
X1645Y501D02*
X1652Y501D01*
X0Y500D02*
X7Y500D01*
X1645Y500D02*
X1652Y500D01*
X0Y499D02*
X7Y499D01*
X1645Y499D02*
X1652Y499D01*
X0Y498D02*
X7Y498D01*
X1645Y498D02*
X1652Y498D01*
X0Y497D02*
X7Y497D01*
X1645Y497D02*
X1652Y497D01*
X0Y496D02*
X7Y496D01*
X1645Y496D02*
X1652Y496D01*
X0Y495D02*
X7Y495D01*
X1645Y495D02*
X1652Y495D01*
X0Y494D02*
X7Y494D01*
X1645Y494D02*
X1652Y494D01*
X0Y493D02*
X7Y493D01*
X1645Y493D02*
X1652Y493D01*
X0Y492D02*
X7Y492D01*
X1645Y492D02*
X1652Y492D01*
X0Y491D02*
X7Y491D01*
X1645Y491D02*
X1652Y491D01*
X0Y490D02*
X7Y490D01*
X1645Y490D02*
X1652Y490D01*
X0Y489D02*
X7Y489D01*
X1645Y489D02*
X1652Y489D01*
X0Y488D02*
X7Y488D01*
X1645Y488D02*
X1652Y488D01*
X0Y487D02*
X7Y487D01*
X1645Y487D02*
X1652Y487D01*
X0Y486D02*
X7Y486D01*
X1645Y486D02*
X1652Y486D01*
X0Y485D02*
X7Y485D01*
X1645Y485D02*
X1652Y485D01*
X0Y484D02*
X7Y484D01*
X1645Y484D02*
X1652Y484D01*
X0Y483D02*
X7Y483D01*
X1645Y483D02*
X1652Y483D01*
X0Y482D02*
X7Y482D01*
X1645Y482D02*
X1652Y482D01*
X0Y481D02*
X7Y481D01*
X1645Y481D02*
X1652Y481D01*
X0Y480D02*
X7Y480D01*
X1645Y480D02*
X1652Y480D01*
X0Y479D02*
X7Y479D01*
X1645Y479D02*
X1652Y479D01*
X0Y478D02*
X7Y478D01*
X1645Y478D02*
X1652Y478D01*
X0Y477D02*
X7Y477D01*
X1645Y477D02*
X1652Y477D01*
X0Y476D02*
X7Y476D01*
X1645Y476D02*
X1652Y476D01*
X0Y475D02*
X7Y475D01*
X1645Y475D02*
X1652Y475D01*
X0Y474D02*
X7Y474D01*
X1645Y474D02*
X1652Y474D01*
X0Y473D02*
X7Y473D01*
X1645Y473D02*
X1652Y473D01*
X0Y472D02*
X7Y472D01*
X1645Y472D02*
X1652Y472D01*
X0Y471D02*
X7Y471D01*
X1645Y471D02*
X1652Y471D01*
X0Y470D02*
X7Y470D01*
X1645Y470D02*
X1652Y470D01*
X0Y469D02*
X7Y469D01*
X1645Y469D02*
X1652Y469D01*
X0Y468D02*
X7Y468D01*
X1645Y468D02*
X1652Y468D01*
X0Y467D02*
X7Y467D01*
X1645Y467D02*
X1652Y467D01*
X0Y466D02*
X7Y466D01*
X1645Y466D02*
X1652Y466D01*
X0Y465D02*
X7Y465D01*
X1645Y465D02*
X1652Y465D01*
X0Y464D02*
X7Y464D01*
X1645Y464D02*
X1652Y464D01*
X0Y463D02*
X7Y463D01*
X1645Y463D02*
X1652Y463D01*
X0Y462D02*
X7Y462D01*
X1645Y462D02*
X1652Y462D01*
X0Y461D02*
X7Y461D01*
X1645Y461D02*
X1652Y461D01*
X0Y460D02*
X7Y460D01*
X1645Y460D02*
X1652Y460D01*
X0Y459D02*
X7Y459D01*
X1645Y459D02*
X1652Y459D01*
X0Y458D02*
X7Y458D01*
X1645Y458D02*
X1652Y458D01*
X0Y457D02*
X7Y457D01*
X1645Y457D02*
X1652Y457D01*
X0Y456D02*
X7Y456D01*
X1645Y456D02*
X1652Y456D01*
X0Y455D02*
X7Y455D01*
X1645Y455D02*
X1652Y455D01*
X0Y454D02*
X7Y454D01*
X1645Y454D02*
X1652Y454D01*
X0Y453D02*
X7Y453D01*
X1645Y453D02*
X1652Y453D01*
X0Y452D02*
X7Y452D01*
X1645Y452D02*
X1652Y452D01*
X0Y451D02*
X7Y451D01*
X1645Y451D02*
X1652Y451D01*
X0Y450D02*
X7Y450D01*
X1645Y450D02*
X1652Y450D01*
X0Y449D02*
X7Y449D01*
X1645Y449D02*
X1652Y449D01*
X0Y448D02*
X7Y448D01*
X1645Y448D02*
X1652Y448D01*
X0Y447D02*
X7Y447D01*
X1645Y447D02*
X1652Y447D01*
X0Y446D02*
X7Y446D01*
X1645Y446D02*
X1652Y446D01*
X0Y445D02*
X7Y445D01*
X1645Y445D02*
X1652Y445D01*
X0Y444D02*
X7Y444D01*
X1645Y444D02*
X1652Y444D01*
X0Y443D02*
X7Y443D01*
X1645Y443D02*
X1652Y443D01*
X0Y442D02*
X7Y442D01*
X1645Y442D02*
X1652Y442D01*
X0Y441D02*
X7Y441D01*
X1645Y441D02*
X1652Y441D01*
X0Y440D02*
X7Y440D01*
X1645Y440D02*
X1652Y440D01*
X0Y439D02*
X7Y439D01*
X1645Y439D02*
X1652Y439D01*
X0Y438D02*
X7Y438D01*
X1645Y438D02*
X1652Y438D01*
X0Y437D02*
X7Y437D01*
X1645Y437D02*
X1652Y437D01*
X0Y436D02*
X7Y436D01*
X1645Y436D02*
X1652Y436D01*
X0Y435D02*
X7Y435D01*
X1645Y435D02*
X1652Y435D01*
X0Y434D02*
X7Y434D01*
X1645Y434D02*
X1652Y434D01*
X0Y433D02*
X7Y433D01*
X1645Y433D02*
X1652Y433D01*
X0Y432D02*
X7Y432D01*
X1645Y432D02*
X1652Y432D01*
X0Y431D02*
X7Y431D01*
X1645Y431D02*
X1652Y431D01*
X0Y430D02*
X7Y430D01*
X1645Y430D02*
X1652Y430D01*
X0Y429D02*
X7Y429D01*
X1645Y429D02*
X1652Y429D01*
X0Y428D02*
X7Y428D01*
X1645Y428D02*
X1652Y428D01*
X0Y427D02*
X7Y427D01*
X1645Y427D02*
X1652Y427D01*
X0Y426D02*
X7Y426D01*
X1645Y426D02*
X1652Y426D01*
X0Y425D02*
X7Y425D01*
X1645Y425D02*
X1652Y425D01*
X0Y424D02*
X7Y424D01*
X1645Y424D02*
X1652Y424D01*
X0Y423D02*
X7Y423D01*
X1645Y423D02*
X1652Y423D01*
X0Y422D02*
X7Y422D01*
X1645Y422D02*
X1652Y422D01*
X0Y421D02*
X7Y421D01*
X1645Y421D02*
X1652Y421D01*
X0Y420D02*
X7Y420D01*
X1645Y420D02*
X1652Y420D01*
X0Y419D02*
X7Y419D01*
X1645Y419D02*
X1652Y419D01*
X0Y418D02*
X7Y418D01*
X1645Y418D02*
X1652Y418D01*
X0Y417D02*
X7Y417D01*
X1645Y417D02*
X1652Y417D01*
X0Y416D02*
X7Y416D01*
X1645Y416D02*
X1652Y416D01*
X0Y415D02*
X7Y415D01*
X1645Y415D02*
X1652Y415D01*
X0Y414D02*
X7Y414D01*
X1645Y414D02*
X1652Y414D01*
X0Y413D02*
X7Y413D01*
X1645Y413D02*
X1652Y413D01*
X0Y412D02*
X7Y412D01*
X1645Y412D02*
X1652Y412D01*
X0Y411D02*
X7Y411D01*
X1645Y411D02*
X1652Y411D01*
X0Y410D02*
X7Y410D01*
X1645Y410D02*
X1652Y410D01*
X0Y409D02*
X7Y409D01*
X1645Y409D02*
X1652Y409D01*
X0Y408D02*
X7Y408D01*
X1645Y408D02*
X1652Y408D01*
X0Y407D02*
X7Y407D01*
X1645Y407D02*
X1652Y407D01*
X0Y406D02*
X7Y406D01*
X1645Y406D02*
X1652Y406D01*
X0Y405D02*
X7Y405D01*
X1645Y405D02*
X1652Y405D01*
X0Y404D02*
X7Y404D01*
X1645Y404D02*
X1652Y404D01*
X0Y403D02*
X7Y403D01*
X1645Y403D02*
X1652Y403D01*
X0Y402D02*
X7Y402D01*
X1645Y402D02*
X1652Y402D01*
X0Y401D02*
X7Y401D01*
X1645Y401D02*
X1652Y401D01*
X0Y400D02*
X7Y400D01*
X1645Y400D02*
X1652Y400D01*
X0Y399D02*
X7Y399D01*
X1645Y399D02*
X1652Y399D01*
X0Y398D02*
X7Y398D01*
X1645Y398D02*
X1652Y398D01*
X0Y397D02*
X7Y397D01*
X1645Y397D02*
X1652Y397D01*
X0Y396D02*
X7Y396D01*
X1645Y396D02*
X1652Y396D01*
X0Y395D02*
X7Y395D01*
X1645Y395D02*
X1652Y395D01*
X0Y394D02*
X7Y394D01*
X1645Y394D02*
X1652Y394D01*
X0Y393D02*
X7Y393D01*
X1645Y393D02*
X1652Y393D01*
X0Y392D02*
X7Y392D01*
X1645Y392D02*
X1652Y392D01*
X0Y391D02*
X7Y391D01*
X1645Y391D02*
X1652Y391D01*
X0Y390D02*
X7Y390D01*
X1645Y390D02*
X1652Y390D01*
X0Y389D02*
X7Y389D01*
X1645Y389D02*
X1652Y389D01*
X0Y388D02*
X7Y388D01*
X1645Y388D02*
X1652Y388D01*
X0Y387D02*
X7Y387D01*
X1645Y387D02*
X1652Y387D01*
X0Y386D02*
X7Y386D01*
X1645Y386D02*
X1652Y386D01*
X0Y385D02*
X7Y385D01*
X1645Y385D02*
X1652Y385D01*
X0Y384D02*
X7Y384D01*
X1645Y384D02*
X1652Y384D01*
X0Y383D02*
X7Y383D01*
X1645Y383D02*
X1652Y383D01*
X0Y382D02*
X7Y382D01*
X1645Y382D02*
X1652Y382D01*
X0Y381D02*
X7Y381D01*
X1645Y381D02*
X1652Y381D01*
X0Y380D02*
X7Y380D01*
X1645Y380D02*
X1652Y380D01*
X0Y379D02*
X7Y379D01*
X1645Y379D02*
X1652Y379D01*
X0Y378D02*
X7Y378D01*
X1645Y378D02*
X1652Y378D01*
X0Y377D02*
X7Y377D01*
X1645Y377D02*
X1652Y377D01*
X0Y376D02*
X7Y376D01*
X1645Y376D02*
X1652Y376D01*
X0Y375D02*
X7Y375D01*
X1645Y375D02*
X1652Y375D01*
X0Y374D02*
X7Y374D01*
X1645Y374D02*
X1652Y374D01*
X0Y373D02*
X7Y373D01*
X1645Y373D02*
X1652Y373D01*
X0Y372D02*
X7Y372D01*
X1645Y372D02*
X1652Y372D01*
X0Y371D02*
X7Y371D01*
X1645Y371D02*
X1652Y371D01*
X0Y370D02*
X7Y370D01*
X1645Y370D02*
X1652Y370D01*
X0Y369D02*
X7Y369D01*
X1645Y369D02*
X1652Y369D01*
X0Y368D02*
X7Y368D01*
X1645Y368D02*
X1652Y368D01*
X0Y367D02*
X7Y367D01*
X1645Y367D02*
X1652Y367D01*
X0Y366D02*
X7Y366D01*
X1645Y366D02*
X1652Y366D01*
X0Y365D02*
X7Y365D01*
X1645Y365D02*
X1652Y365D01*
X0Y364D02*
X7Y364D01*
X1645Y364D02*
X1652Y364D01*
X0Y363D02*
X7Y363D01*
X1645Y363D02*
X1652Y363D01*
X0Y362D02*
X7Y362D01*
X1645Y362D02*
X1652Y362D01*
X0Y361D02*
X7Y361D01*
X1645Y361D02*
X1652Y361D01*
X0Y360D02*
X7Y360D01*
X1645Y360D02*
X1652Y360D01*
X0Y359D02*
X7Y359D01*
X1645Y359D02*
X1652Y359D01*
X0Y358D02*
X7Y358D01*
X1645Y358D02*
X1652Y358D01*
X0Y357D02*
X7Y357D01*
X1645Y357D02*
X1652Y357D01*
X0Y356D02*
X7Y356D01*
X1645Y356D02*
X1652Y356D01*
X0Y355D02*
X7Y355D01*
X1645Y355D02*
X1652Y355D01*
X0Y354D02*
X7Y354D01*
X1645Y354D02*
X1652Y354D01*
X0Y353D02*
X7Y353D01*
X1645Y353D02*
X1652Y353D01*
X0Y352D02*
X7Y352D01*
X1645Y352D02*
X1652Y352D01*
X0Y351D02*
X7Y351D01*
X1645Y351D02*
X1652Y351D01*
X0Y350D02*
X7Y350D01*
X1645Y350D02*
X1652Y350D01*
X0Y349D02*
X7Y349D01*
X1645Y349D02*
X1652Y349D01*
X0Y348D02*
X7Y348D01*
X1645Y348D02*
X1652Y348D01*
X0Y347D02*
X7Y347D01*
X1645Y347D02*
X1652Y347D01*
X0Y346D02*
X7Y346D01*
X1645Y346D02*
X1652Y346D01*
X0Y345D02*
X7Y345D01*
X1645Y345D02*
X1652Y345D01*
X0Y344D02*
X7Y344D01*
X1645Y344D02*
X1652Y344D01*
X0Y343D02*
X7Y343D01*
X1645Y343D02*
X1652Y343D01*
X0Y342D02*
X7Y342D01*
X1645Y342D02*
X1652Y342D01*
X0Y341D02*
X7Y341D01*
X1645Y341D02*
X1652Y341D01*
X0Y340D02*
X7Y340D01*
X1645Y340D02*
X1652Y340D01*
X0Y339D02*
X7Y339D01*
X1645Y339D02*
X1652Y339D01*
X0Y338D02*
X7Y338D01*
X1645Y338D02*
X1652Y338D01*
X0Y337D02*
X7Y337D01*
X1645Y337D02*
X1652Y337D01*
X0Y336D02*
X7Y336D01*
X1645Y336D02*
X1652Y336D01*
X0Y335D02*
X7Y335D01*
X1645Y335D02*
X1652Y335D01*
X0Y334D02*
X7Y334D01*
X1645Y334D02*
X1652Y334D01*
X0Y333D02*
X7Y333D01*
X1645Y333D02*
X1652Y333D01*
X0Y332D02*
X7Y332D01*
X1645Y332D02*
X1652Y332D01*
X0Y331D02*
X7Y331D01*
X1645Y331D02*
X1652Y331D01*
X0Y330D02*
X7Y330D01*
X1645Y330D02*
X1652Y330D01*
X0Y329D02*
X7Y329D01*
X1645Y329D02*
X1652Y329D01*
X0Y328D02*
X7Y328D01*
X1645Y328D02*
X1652Y328D01*
X0Y327D02*
X7Y327D01*
X1645Y327D02*
X1652Y327D01*
X0Y326D02*
X7Y326D01*
X1645Y326D02*
X1652Y326D01*
X0Y325D02*
X7Y325D01*
X1645Y325D02*
X1652Y325D01*
X0Y324D02*
X7Y324D01*
X1645Y324D02*
X1652Y324D01*
X0Y323D02*
X7Y323D01*
X1645Y323D02*
X1652Y323D01*
X0Y322D02*
X7Y322D01*
X1645Y322D02*
X1652Y322D01*
X0Y321D02*
X7Y321D01*
X1645Y321D02*
X1652Y321D01*
X0Y320D02*
X7Y320D01*
X1645Y320D02*
X1652Y320D01*
X0Y319D02*
X7Y319D01*
X1645Y319D02*
X1652Y319D01*
X0Y318D02*
X7Y318D01*
X1645Y318D02*
X1652Y318D01*
X0Y317D02*
X7Y317D01*
X1645Y317D02*
X1652Y317D01*
X0Y316D02*
X7Y316D01*
X1645Y316D02*
X1652Y316D01*
X0Y315D02*
X7Y315D01*
X1645Y315D02*
X1652Y315D01*
X0Y314D02*
X7Y314D01*
X1645Y314D02*
X1652Y314D01*
X0Y313D02*
X7Y313D01*
X1645Y313D02*
X1652Y313D01*
X0Y312D02*
X7Y312D01*
X1645Y312D02*
X1652Y312D01*
X0Y311D02*
X7Y311D01*
X1645Y311D02*
X1652Y311D01*
X0Y310D02*
X7Y310D01*
X1645Y310D02*
X1652Y310D01*
X0Y309D02*
X7Y309D01*
X1645Y309D02*
X1652Y309D01*
X0Y308D02*
X7Y308D01*
X1645Y308D02*
X1652Y308D01*
X0Y307D02*
X7Y307D01*
X1645Y307D02*
X1652Y307D01*
X0Y306D02*
X7Y306D01*
X1645Y306D02*
X1652Y306D01*
X0Y305D02*
X7Y305D01*
X1645Y305D02*
X1652Y305D01*
X0Y304D02*
X7Y304D01*
X1645Y304D02*
X1652Y304D01*
X0Y303D02*
X7Y303D01*
X1645Y303D02*
X1652Y303D01*
X0Y302D02*
X7Y302D01*
X1645Y302D02*
X1652Y302D01*
X0Y301D02*
X7Y301D01*
X1645Y301D02*
X1652Y301D01*
X0Y300D02*
X7Y300D01*
X1645Y300D02*
X1652Y300D01*
X0Y299D02*
X7Y299D01*
X1645Y299D02*
X1652Y299D01*
X0Y298D02*
X7Y298D01*
X1645Y298D02*
X1652Y298D01*
X0Y297D02*
X7Y297D01*
X1645Y297D02*
X1652Y297D01*
X0Y296D02*
X7Y296D01*
X1645Y296D02*
X1652Y296D01*
X0Y295D02*
X7Y295D01*
X1645Y295D02*
X1652Y295D01*
X0Y294D02*
X7Y294D01*
X1645Y294D02*
X1652Y294D01*
X0Y293D02*
X7Y293D01*
X1645Y293D02*
X1652Y293D01*
X0Y292D02*
X7Y292D01*
X1645Y292D02*
X1652Y292D01*
X0Y291D02*
X7Y291D01*
X1645Y291D02*
X1652Y291D01*
X0Y290D02*
X7Y290D01*
X1645Y290D02*
X1652Y290D01*
X0Y289D02*
X7Y289D01*
X1645Y289D02*
X1652Y289D01*
X0Y288D02*
X7Y288D01*
X1645Y288D02*
X1652Y288D01*
X0Y287D02*
X7Y287D01*
X1645Y287D02*
X1652Y287D01*
X0Y286D02*
X7Y286D01*
X1645Y286D02*
X1652Y286D01*
X0Y285D02*
X7Y285D01*
X1645Y285D02*
X1652Y285D01*
X0Y284D02*
X7Y284D01*
X1645Y284D02*
X1652Y284D01*
X0Y283D02*
X7Y283D01*
X1645Y283D02*
X1652Y283D01*
X0Y282D02*
X7Y282D01*
X1645Y282D02*
X1652Y282D01*
X0Y281D02*
X7Y281D01*
X1645Y281D02*
X1652Y281D01*
X0Y280D02*
X7Y280D01*
X1645Y280D02*
X1652Y280D01*
X0Y279D02*
X7Y279D01*
X1645Y279D02*
X1652Y279D01*
X0Y278D02*
X7Y278D01*
X1645Y278D02*
X1652Y278D01*
X0Y277D02*
X7Y277D01*
X1645Y277D02*
X1652Y277D01*
X0Y276D02*
X7Y276D01*
X1645Y276D02*
X1652Y276D01*
X0Y275D02*
X7Y275D01*
X1645Y275D02*
X1652Y275D01*
X0Y274D02*
X7Y274D01*
X1645Y274D02*
X1652Y274D01*
X0Y273D02*
X7Y273D01*
X1645Y273D02*
X1652Y273D01*
X0Y272D02*
X7Y272D01*
X1645Y272D02*
X1652Y272D01*
X0Y271D02*
X7Y271D01*
X1645Y271D02*
X1652Y271D01*
X0Y270D02*
X7Y270D01*
X1645Y270D02*
X1652Y270D01*
X0Y269D02*
X7Y269D01*
X1645Y269D02*
X1652Y269D01*
X0Y268D02*
X7Y268D01*
X1645Y268D02*
X1652Y268D01*
X0Y267D02*
X7Y267D01*
X1645Y267D02*
X1652Y267D01*
X0Y266D02*
X7Y266D01*
X1645Y266D02*
X1652Y266D01*
X0Y265D02*
X7Y265D01*
X1645Y265D02*
X1652Y265D01*
X0Y264D02*
X7Y264D01*
X1645Y264D02*
X1652Y264D01*
X0Y263D02*
X7Y263D01*
X1645Y263D02*
X1652Y263D01*
X0Y262D02*
X7Y262D01*
X1645Y262D02*
X1652Y262D01*
X0Y261D02*
X7Y261D01*
X1645Y261D02*
X1652Y261D01*
X0Y260D02*
X7Y260D01*
X1645Y260D02*
X1652Y260D01*
X0Y259D02*
X7Y259D01*
X1645Y259D02*
X1652Y259D01*
X0Y258D02*
X7Y258D01*
X1645Y258D02*
X1652Y258D01*
X0Y257D02*
X7Y257D01*
X1645Y257D02*
X1652Y257D01*
X0Y256D02*
X7Y256D01*
X1645Y256D02*
X1652Y256D01*
X0Y255D02*
X7Y255D01*
X1645Y255D02*
X1652Y255D01*
X0Y254D02*
X7Y254D01*
X1645Y254D02*
X1652Y254D01*
X0Y253D02*
X7Y253D01*
X1645Y253D02*
X1652Y253D01*
X0Y252D02*
X7Y252D01*
X1645Y252D02*
X1652Y252D01*
X0Y251D02*
X7Y251D01*
X1645Y251D02*
X1652Y251D01*
X0Y250D02*
X7Y250D01*
X1645Y250D02*
X1652Y250D01*
X0Y249D02*
X7Y249D01*
X1645Y249D02*
X1652Y249D01*
X0Y248D02*
X7Y248D01*
X1645Y248D02*
X1652Y248D01*
X0Y247D02*
X7Y247D01*
X1645Y247D02*
X1652Y247D01*
X0Y246D02*
X7Y246D01*
X1645Y246D02*
X1652Y246D01*
X0Y245D02*
X7Y245D01*
X1645Y245D02*
X1652Y245D01*
X0Y244D02*
X7Y244D01*
X1645Y244D02*
X1652Y244D01*
X0Y243D02*
X7Y243D01*
X1645Y243D02*
X1652Y243D01*
X0Y242D02*
X7Y242D01*
X1645Y242D02*
X1652Y242D01*
X0Y241D02*
X7Y241D01*
X1645Y241D02*
X1652Y241D01*
X0Y240D02*
X7Y240D01*
X1645Y240D02*
X1652Y240D01*
X0Y239D02*
X7Y239D01*
X1645Y239D02*
X1652Y239D01*
X0Y238D02*
X7Y238D01*
X1645Y238D02*
X1652Y238D01*
X0Y237D02*
X7Y237D01*
X1645Y237D02*
X1652Y237D01*
X0Y236D02*
X7Y236D01*
X1645Y236D02*
X1652Y236D01*
X0Y235D02*
X7Y235D01*
X1645Y235D02*
X1652Y235D01*
X0Y234D02*
X7Y234D01*
X1645Y234D02*
X1652Y234D01*
X0Y233D02*
X7Y233D01*
X1645Y233D02*
X1652Y233D01*
X0Y232D02*
X7Y232D01*
X1645Y232D02*
X1652Y232D01*
X0Y231D02*
X7Y231D01*
X1645Y231D02*
X1652Y231D01*
X0Y230D02*
X7Y230D01*
X1645Y230D02*
X1652Y230D01*
X0Y229D02*
X7Y229D01*
X1645Y229D02*
X1652Y229D01*
X0Y228D02*
X7Y228D01*
X1645Y228D02*
X1652Y228D01*
X0Y227D02*
X7Y227D01*
X1645Y227D02*
X1652Y227D01*
X0Y226D02*
X7Y226D01*
X1645Y226D02*
X1652Y226D01*
X0Y225D02*
X7Y225D01*
X1645Y225D02*
X1652Y225D01*
X0Y224D02*
X7Y224D01*
X1645Y224D02*
X1652Y224D01*
X0Y223D02*
X7Y223D01*
X1645Y223D02*
X1652Y223D01*
X0Y222D02*
X7Y222D01*
X1645Y222D02*
X1652Y222D01*
X0Y221D02*
X7Y221D01*
X1645Y221D02*
X1652Y221D01*
X0Y220D02*
X7Y220D01*
X1645Y220D02*
X1652Y220D01*
X0Y219D02*
X7Y219D01*
X1645Y219D02*
X1652Y219D01*
X0Y218D02*
X7Y218D01*
X1645Y218D02*
X1652Y218D01*
X0Y217D02*
X7Y217D01*
X1645Y217D02*
X1652Y217D01*
X0Y216D02*
X7Y216D01*
X1645Y216D02*
X1652Y216D01*
X0Y215D02*
X7Y215D01*
X1645Y215D02*
X1652Y215D01*
X0Y214D02*
X7Y214D01*
X1645Y214D02*
X1652Y214D01*
X0Y213D02*
X7Y213D01*
X1645Y213D02*
X1652Y213D01*
X0Y212D02*
X7Y212D01*
X1645Y212D02*
X1652Y212D01*
X0Y211D02*
X7Y211D01*
X1645Y211D02*
X1652Y211D01*
X0Y210D02*
X7Y210D01*
X1645Y210D02*
X1652Y210D01*
X0Y209D02*
X7Y209D01*
X1645Y209D02*
X1652Y209D01*
X0Y208D02*
X7Y208D01*
X1645Y208D02*
X1652Y208D01*
X0Y207D02*
X7Y207D01*
X1645Y207D02*
X1652Y207D01*
X0Y206D02*
X7Y206D01*
X1645Y206D02*
X1652Y206D01*
X0Y205D02*
X7Y205D01*
X1645Y205D02*
X1652Y205D01*
X0Y204D02*
X7Y204D01*
X1645Y204D02*
X1652Y204D01*
X0Y203D02*
X7Y203D01*
X1645Y203D02*
X1652Y203D01*
X0Y202D02*
X7Y202D01*
X1645Y202D02*
X1652Y202D01*
X0Y201D02*
X7Y201D01*
X1645Y201D02*
X1652Y201D01*
X0Y200D02*
X7Y200D01*
X1645Y200D02*
X1652Y200D01*
X0Y199D02*
X7Y199D01*
X1645Y199D02*
X1652Y199D01*
X0Y198D02*
X7Y198D01*
X1645Y198D02*
X1652Y198D01*
X0Y197D02*
X7Y197D01*
X1645Y197D02*
X1652Y197D01*
X0Y196D02*
X7Y196D01*
X1645Y196D02*
X1652Y196D01*
X0Y195D02*
X7Y195D01*
X1645Y195D02*
X1652Y195D01*
X0Y194D02*
X7Y194D01*
X1645Y194D02*
X1652Y194D01*
X0Y193D02*
X7Y193D01*
X1645Y193D02*
X1652Y193D01*
X0Y192D02*
X7Y192D01*
X1645Y192D02*
X1652Y192D01*
X0Y191D02*
X7Y191D01*
X1645Y191D02*
X1652Y191D01*
X0Y190D02*
X7Y190D01*
X1645Y190D02*
X1652Y190D01*
X0Y189D02*
X7Y189D01*
X1645Y189D02*
X1652Y189D01*
X0Y188D02*
X7Y188D01*
X1645Y188D02*
X1652Y188D01*
X0Y187D02*
X7Y187D01*
X1645Y187D02*
X1652Y187D01*
X0Y186D02*
X7Y186D01*
X1645Y186D02*
X1652Y186D01*
X0Y185D02*
X7Y185D01*
X1645Y185D02*
X1652Y185D01*
X0Y184D02*
X7Y184D01*
X1645Y184D02*
X1652Y184D01*
X0Y183D02*
X7Y183D01*
X1645Y183D02*
X1652Y183D01*
X0Y182D02*
X7Y182D01*
X1645Y182D02*
X1652Y182D01*
X0Y181D02*
X7Y181D01*
X1645Y181D02*
X1652Y181D01*
X0Y180D02*
X7Y180D01*
X1645Y180D02*
X1652Y180D01*
X0Y179D02*
X7Y179D01*
X1645Y179D02*
X1652Y179D01*
X0Y178D02*
X7Y178D01*
X1645Y178D02*
X1652Y178D01*
X0Y177D02*
X7Y177D01*
X1645Y177D02*
X1652Y177D01*
X0Y176D02*
X7Y176D01*
X1645Y176D02*
X1652Y176D01*
X0Y175D02*
X7Y175D01*
X1645Y175D02*
X1652Y175D01*
X0Y174D02*
X7Y174D01*
X1645Y174D02*
X1652Y174D01*
X0Y173D02*
X7Y173D01*
X1645Y173D02*
X1652Y173D01*
X0Y172D02*
X7Y172D01*
X1645Y172D02*
X1652Y172D01*
X0Y171D02*
X7Y171D01*
X1645Y171D02*
X1652Y171D01*
X0Y170D02*
X7Y170D01*
X1645Y170D02*
X1652Y170D01*
X0Y169D02*
X7Y169D01*
X1645Y169D02*
X1652Y169D01*
X0Y168D02*
X7Y168D01*
X1645Y168D02*
X1652Y168D01*
X0Y167D02*
X7Y167D01*
X1645Y167D02*
X1652Y167D01*
X0Y166D02*
X7Y166D01*
X1645Y166D02*
X1652Y166D01*
X0Y165D02*
X7Y165D01*
X1645Y165D02*
X1652Y165D01*
X0Y164D02*
X7Y164D01*
X1645Y164D02*
X1652Y164D01*
X0Y163D02*
X7Y163D01*
X1645Y163D02*
X1652Y163D01*
X0Y162D02*
X7Y162D01*
X1645Y162D02*
X1652Y162D01*
X0Y161D02*
X7Y161D01*
X1645Y161D02*
X1652Y161D01*
X0Y160D02*
X7Y160D01*
X1645Y160D02*
X1652Y160D01*
X0Y159D02*
X7Y159D01*
X1645Y159D02*
X1652Y159D01*
X0Y158D02*
X7Y158D01*
X1645Y158D02*
X1652Y158D01*
X0Y157D02*
X7Y157D01*
X1645Y157D02*
X1652Y157D01*
X0Y156D02*
X7Y156D01*
X1645Y156D02*
X1652Y156D01*
X0Y155D02*
X7Y155D01*
X1645Y155D02*
X1652Y155D01*
X0Y154D02*
X7Y154D01*
X1645Y154D02*
X1652Y154D01*
X0Y153D02*
X7Y153D01*
X1645Y153D02*
X1652Y153D01*
X0Y152D02*
X7Y152D01*
X1645Y152D02*
X1652Y152D01*
X0Y151D02*
X7Y151D01*
X1645Y151D02*
X1652Y151D01*
X0Y150D02*
X7Y150D01*
X1645Y150D02*
X1652Y150D01*
X0Y149D02*
X7Y149D01*
X1645Y149D02*
X1652Y149D01*
X0Y148D02*
X7Y148D01*
X1645Y148D02*
X1652Y148D01*
X0Y147D02*
X7Y147D01*
X1645Y147D02*
X1652Y147D01*
X0Y146D02*
X7Y146D01*
X1645Y146D02*
X1652Y146D01*
X0Y145D02*
X7Y145D01*
X1645Y145D02*
X1652Y145D01*
X0Y144D02*
X7Y144D01*
X1645Y144D02*
X1652Y144D01*
X0Y143D02*
X7Y143D01*
X1645Y143D02*
X1652Y143D01*
X0Y142D02*
X7Y142D01*
X1645Y142D02*
X1652Y142D01*
X0Y141D02*
X7Y141D01*
X1645Y141D02*
X1652Y141D01*
X0Y140D02*
X7Y140D01*
X1645Y140D02*
X1652Y140D01*
X0Y139D02*
X7Y139D01*
X1645Y139D02*
X1652Y139D01*
X0Y138D02*
X7Y138D01*
X1645Y138D02*
X1652Y138D01*
X0Y137D02*
X7Y137D01*
X1645Y137D02*
X1652Y137D01*
X0Y136D02*
X7Y136D01*
X1645Y136D02*
X1652Y136D01*
X0Y135D02*
X7Y135D01*
X1645Y135D02*
X1652Y135D01*
X0Y134D02*
X7Y134D01*
X1645Y134D02*
X1652Y134D01*
X0Y133D02*
X7Y133D01*
X1645Y133D02*
X1652Y133D01*
X0Y132D02*
X7Y132D01*
X1645Y132D02*
X1652Y132D01*
X0Y131D02*
X7Y131D01*
X1645Y131D02*
X1652Y131D01*
X0Y130D02*
X7Y130D01*
X1645Y130D02*
X1652Y130D01*
X0Y129D02*
X7Y129D01*
X1645Y129D02*
X1652Y129D01*
X0Y128D02*
X7Y128D01*
X1645Y128D02*
X1652Y128D01*
X0Y127D02*
X7Y127D01*
X1645Y127D02*
X1652Y127D01*
X0Y126D02*
X7Y126D01*
X1645Y126D02*
X1652Y126D01*
X0Y125D02*
X7Y125D01*
X1645Y125D02*
X1652Y125D01*
X0Y124D02*
X7Y124D01*
X1645Y124D02*
X1652Y124D01*
X0Y123D02*
X7Y123D01*
X1645Y123D02*
X1652Y123D01*
X0Y122D02*
X7Y122D01*
X1645Y122D02*
X1652Y122D01*
X0Y121D02*
X7Y121D01*
X1645Y121D02*
X1652Y121D01*
X0Y120D02*
X7Y120D01*
X1645Y120D02*
X1652Y120D01*
X0Y119D02*
X7Y119D01*
X1645Y119D02*
X1652Y119D01*
X0Y118D02*
X7Y118D01*
X1645Y118D02*
X1652Y118D01*
X0Y117D02*
X7Y117D01*
X1645Y117D02*
X1652Y117D01*
X0Y116D02*
X7Y116D01*
X1645Y116D02*
X1652Y116D01*
X0Y115D02*
X7Y115D01*
X1645Y115D02*
X1652Y115D01*
X0Y114D02*
X7Y114D01*
X1645Y114D02*
X1652Y114D01*
X0Y113D02*
X7Y113D01*
X1645Y113D02*
X1652Y113D01*
X0Y112D02*
X7Y112D01*
X1645Y112D02*
X1652Y112D01*
X0Y111D02*
X7Y111D01*
X1645Y111D02*
X1652Y111D01*
X0Y110D02*
X7Y110D01*
X1645Y110D02*
X1652Y110D01*
X0Y109D02*
X7Y109D01*
X1645Y109D02*
X1652Y109D01*
X0Y108D02*
X7Y108D01*
X1645Y108D02*
X1652Y108D01*
X0Y107D02*
X7Y107D01*
X1645Y107D02*
X1652Y107D01*
X0Y106D02*
X7Y106D01*
X1645Y106D02*
X1652Y106D01*
X0Y105D02*
X7Y105D01*
X1645Y105D02*
X1652Y105D01*
X0Y104D02*
X7Y104D01*
X1645Y104D02*
X1652Y104D01*
X0Y103D02*
X7Y103D01*
X1645Y103D02*
X1652Y103D01*
X0Y102D02*
X7Y102D01*
X1645Y102D02*
X1652Y102D01*
X0Y101D02*
X7Y101D01*
X1645Y101D02*
X1652Y101D01*
X0Y100D02*
X7Y100D01*
X1645Y100D02*
X1652Y100D01*
X0Y99D02*
X7Y99D01*
X1645Y99D02*
X1652Y99D01*
X0Y98D02*
X7Y98D01*
X1645Y98D02*
X1652Y98D01*
X0Y97D02*
X7Y97D01*
X1645Y97D02*
X1652Y97D01*
X0Y96D02*
X7Y96D01*
X1645Y96D02*
X1652Y96D01*
X0Y95D02*
X7Y95D01*
X1645Y95D02*
X1652Y95D01*
X0Y94D02*
X7Y94D01*
X1645Y94D02*
X1652Y94D01*
X0Y93D02*
X7Y93D01*
X1645Y93D02*
X1652Y93D01*
X0Y92D02*
X7Y92D01*
X1645Y92D02*
X1652Y92D01*
X0Y91D02*
X7Y91D01*
X1645Y91D02*
X1652Y91D01*
X0Y90D02*
X7Y90D01*
X1645Y90D02*
X1652Y90D01*
X0Y89D02*
X7Y89D01*
X1645Y89D02*
X1652Y89D01*
X0Y88D02*
X7Y88D01*
X1645Y88D02*
X1652Y88D01*
X0Y87D02*
X7Y87D01*
X1645Y87D02*
X1652Y87D01*
X0Y86D02*
X7Y86D01*
X1645Y86D02*
X1652Y86D01*
X0Y85D02*
X7Y85D01*
X1645Y85D02*
X1652Y85D01*
X0Y84D02*
X7Y84D01*
X1645Y84D02*
X1652Y84D01*
X0Y83D02*
X7Y83D01*
X1645Y83D02*
X1652Y83D01*
X0Y82D02*
X7Y82D01*
X1645Y82D02*
X1652Y82D01*
X0Y81D02*
X7Y81D01*
X1645Y81D02*
X1652Y81D01*
X0Y80D02*
X7Y80D01*
X1645Y80D02*
X1652Y80D01*
X0Y79D02*
X7Y79D01*
X1645Y79D02*
X1652Y79D01*
X0Y78D02*
X7Y78D01*
X1645Y78D02*
X1652Y78D01*
X0Y77D02*
X7Y77D01*
X1645Y77D02*
X1652Y77D01*
X0Y76D02*
X7Y76D01*
X1645Y76D02*
X1652Y76D01*
X0Y75D02*
X7Y75D01*
X1645Y75D02*
X1652Y75D01*
X0Y74D02*
X7Y74D01*
X1645Y74D02*
X1652Y74D01*
X0Y73D02*
X7Y73D01*
X1645Y73D02*
X1652Y73D01*
X0Y72D02*
X7Y72D01*
X1645Y72D02*
X1652Y72D01*
X0Y71D02*
X7Y71D01*
X1645Y71D02*
X1652Y71D01*
X0Y70D02*
X7Y70D01*
X1645Y70D02*
X1652Y70D01*
X0Y69D02*
X7Y69D01*
X1645Y69D02*
X1652Y69D01*
X0Y68D02*
X7Y68D01*
X1645Y68D02*
X1652Y68D01*
X0Y67D02*
X7Y67D01*
X1645Y67D02*
X1652Y67D01*
X0Y66D02*
X7Y66D01*
X1645Y66D02*
X1652Y66D01*
X0Y65D02*
X7Y65D01*
X1645Y65D02*
X1652Y65D01*
X0Y64D02*
X7Y64D01*
X1645Y64D02*
X1652Y64D01*
X0Y63D02*
X7Y63D01*
X1645Y63D02*
X1652Y63D01*
X0Y62D02*
X7Y62D01*
X1645Y62D02*
X1652Y62D01*
X0Y61D02*
X7Y61D01*
X1645Y61D02*
X1652Y61D01*
X0Y60D02*
X7Y60D01*
X1645Y60D02*
X1652Y60D01*
X0Y59D02*
X7Y59D01*
X1645Y59D02*
X1652Y59D01*
X0Y58D02*
X7Y58D01*
X1645Y58D02*
X1652Y58D01*
X0Y57D02*
X7Y57D01*
X1645Y57D02*
X1652Y57D01*
X0Y56D02*
X7Y56D01*
X1645Y56D02*
X1652Y56D01*
X0Y55D02*
X7Y55D01*
X1645Y55D02*
X1652Y55D01*
X0Y54D02*
X7Y54D01*
X1645Y54D02*
X1652Y54D01*
X0Y53D02*
X7Y53D01*
X1645Y53D02*
X1652Y53D01*
X0Y52D02*
X7Y52D01*
X1645Y52D02*
X1652Y52D01*
X0Y51D02*
X7Y51D01*
X1645Y51D02*
X1652Y51D01*
X0Y50D02*
X7Y50D01*
X1645Y50D02*
X1652Y50D01*
X0Y49D02*
X7Y49D01*
X1645Y49D02*
X1652Y49D01*
X0Y48D02*
X7Y48D01*
X1645Y48D02*
X1652Y48D01*
X0Y47D02*
X7Y47D01*
X1645Y47D02*
X1652Y47D01*
X0Y46D02*
X7Y46D01*
X1645Y46D02*
X1652Y46D01*
X0Y45D02*
X7Y45D01*
X1645Y45D02*
X1652Y45D01*
X0Y44D02*
X7Y44D01*
X1645Y44D02*
X1652Y44D01*
X0Y43D02*
X7Y43D01*
X1645Y43D02*
X1652Y43D01*
X0Y42D02*
X7Y42D01*
X1645Y42D02*
X1652Y42D01*
X0Y41D02*
X7Y41D01*
X1645Y41D02*
X1652Y41D01*
X0Y40D02*
X7Y40D01*
X1645Y40D02*
X1652Y40D01*
X0Y39D02*
X7Y39D01*
X1645Y39D02*
X1652Y39D01*
X0Y38D02*
X7Y38D01*
X1645Y38D02*
X1652Y38D01*
X0Y37D02*
X7Y37D01*
X1645Y37D02*
X1652Y37D01*
X0Y36D02*
X7Y36D01*
X1645Y36D02*
X1652Y36D01*
X0Y35D02*
X7Y35D01*
X1645Y35D02*
X1652Y35D01*
X0Y34D02*
X7Y34D01*
X1645Y34D02*
X1652Y34D01*
X0Y33D02*
X7Y33D01*
X1645Y33D02*
X1652Y33D01*
X0Y32D02*
X7Y32D01*
X1645Y32D02*
X1652Y32D01*
X0Y31D02*
X7Y31D01*
X1645Y31D02*
X1652Y31D01*
X0Y30D02*
X7Y30D01*
X1645Y30D02*
X1652Y30D01*
X0Y29D02*
X7Y29D01*
X1645Y29D02*
X1652Y29D01*
X0Y28D02*
X7Y28D01*
X1645Y28D02*
X1652Y28D01*
X0Y27D02*
X7Y27D01*
X1645Y27D02*
X1652Y27D01*
X0Y26D02*
X7Y26D01*
X1645Y26D02*
X1652Y26D01*
X0Y25D02*
X7Y25D01*
X1645Y25D02*
X1652Y25D01*
X0Y24D02*
X7Y24D01*
X1645Y24D02*
X1652Y24D01*
X0Y23D02*
X7Y23D01*
X1645Y23D02*
X1652Y23D01*
X0Y22D02*
X7Y22D01*
X1645Y22D02*
X1652Y22D01*
X0Y21D02*
X7Y21D01*
X1645Y21D02*
X1652Y21D01*
X0Y20D02*
X7Y20D01*
X1645Y20D02*
X1652Y20D01*
X0Y19D02*
X7Y19D01*
X1645Y19D02*
X1652Y19D01*
X0Y18D02*
X7Y18D01*
X1645Y18D02*
X1652Y18D01*
X0Y17D02*
X7Y17D01*
X1645Y17D02*
X1652Y17D01*
X0Y16D02*
X7Y16D01*
X1645Y16D02*
X1652Y16D01*
X0Y15D02*
X7Y15D01*
X1645Y15D02*
X1652Y15D01*
X0Y14D02*
X7Y14D01*
X1645Y14D02*
X1652Y14D01*
X0Y13D02*
X7Y13D01*
X1645Y13D02*
X1652Y13D01*
X0Y12D02*
X7Y12D01*
X1645Y12D02*
X1652Y12D01*
X0Y11D02*
X7Y11D01*
X1645Y11D02*
X1652Y11D01*
X0Y10D02*
X7Y10D01*
X1645Y10D02*
X1652Y10D01*
X0Y9D02*
X1652Y9D01*
X0Y8D02*
X1652Y8D01*
X0Y7D02*
X1652Y7D01*
X0Y6D02*
X1652Y6D01*
X0Y5D02*
X1652Y5D01*
X0Y4D02*
X1652Y4D01*
X0Y3D02*
X1652Y3D01*
X0Y2D02*
X1652Y2D01*
D02*
G04 End of Silk0*
M02*