G04 MADE WITH FRITZING*
G04 WWW.FRITZING.ORG*
G04 DOUBLE SIDED*
G04 HOLES PLATED*
G04 CONTOUR ON CENTER OF CONTOUR VECTOR*
%ASAXBY*%
%FSLAX23Y23*%
%MOIN*%
%OFA0B0*%
%SFA1.0B1.0*%
%ADD10C,0.074000*%
%ADD11C,0.039370*%
%ADD12C,0.075000*%
%ADD13C,0.079370*%
%ADD14C,0.078000*%
%ADD15C,0.065000*%
%ADD16R,0.078000X0.078000*%
%ADD17C,0.024000*%
%LNCOPPER0*%
G90*
G70*
G54D10*
X244Y1630D03*
X244Y1730D03*
X244Y1830D03*
G54D11*
X144Y1630D03*
X44Y1830D03*
X144Y1530D03*
X244Y230D03*
X644Y830D03*
X944Y730D03*
X844Y1030D03*
X1544Y530D03*
X1044Y430D03*
X1244Y538D03*
X1544Y1930D03*
X1344Y1530D03*
X1444Y1430D03*
G54D12*
X544Y630D03*
X844Y630D03*
X544Y630D03*
X844Y630D03*
X944Y530D03*
X544Y530D03*
X944Y530D03*
X544Y530D03*
G54D13*
X416Y1699D03*
X416Y1599D03*
X416Y1499D03*
X416Y1399D03*
X416Y1299D03*
X416Y1199D03*
X416Y1099D03*
X416Y999D03*
X416Y899D03*
X416Y799D03*
X416Y699D03*
X416Y599D03*
X1116Y1699D03*
X1116Y1599D03*
X1116Y1499D03*
X1116Y1399D03*
X1116Y1299D03*
X1116Y1199D03*
X1116Y1099D03*
X1116Y999D03*
X1116Y899D03*
X1116Y799D03*
X1116Y699D03*
X1116Y599D03*
G54D14*
X444Y430D03*
X544Y430D03*
G54D13*
X1144Y230D03*
X1044Y230D03*
X944Y230D03*
X844Y230D03*
X744Y230D03*
X644Y230D03*
X544Y230D03*
X444Y230D03*
X344Y230D03*
G54D14*
X1444Y430D03*
X1344Y430D03*
X1244Y430D03*
X1444Y630D03*
X1344Y630D03*
X1244Y630D03*
X1444Y830D03*
X1344Y830D03*
X1244Y830D03*
G54D15*
X1344Y1030D03*
X1344Y1108D03*
X1344Y1187D03*
X1344Y1266D03*
G54D14*
X716Y1499D03*
X816Y1499D03*
X716Y1499D03*
X816Y1499D03*
G54D13*
X744Y1330D03*
X844Y1330D03*
X744Y1330D03*
X844Y1330D03*
G54D14*
X1416Y1799D03*
X1316Y1799D03*
G54D16*
X444Y430D03*
X1444Y430D03*
X1444Y630D03*
X1444Y830D03*
X1416Y1799D03*
G54D17*
X144Y1829D02*
X44Y1629D01*
D02*
X44Y1629D02*
X245Y930D01*
D02*
X245Y930D02*
X386Y905D01*
D02*
X213Y1829D02*
X144Y1829D01*
D02*
X157Y1615D02*
X397Y1323D01*
D02*
X144Y1929D02*
X1525Y1930D01*
D02*
X58Y1843D02*
X144Y1929D01*
D02*
X644Y1130D02*
X436Y1376D01*
D02*
X644Y849D02*
X644Y1130D01*
D02*
X644Y1231D02*
X436Y1476D01*
D02*
X745Y1130D02*
X644Y1231D01*
D02*
X831Y1043D02*
X745Y1130D01*
D02*
X157Y1515D02*
X397Y1223D01*
D02*
X45Y29D02*
X45Y831D01*
D02*
X45Y831D02*
X385Y802D01*
D02*
X745Y29D02*
X45Y29D01*
D02*
X744Y199D02*
X745Y29D01*
D02*
X145Y129D02*
X145Y729D01*
D02*
X645Y129D02*
X145Y129D01*
D02*
X145Y729D02*
X386Y702D01*
D02*
X645Y199D02*
X645Y129D01*
D02*
X444Y330D02*
X444Y400D01*
D02*
X244Y330D02*
X444Y330D01*
D02*
X244Y249D02*
X244Y330D01*
D02*
X944Y330D02*
X1044Y629D01*
D02*
X1044Y629D02*
X1044Y930D01*
D02*
X1044Y930D02*
X1094Y978D01*
D02*
X944Y260D02*
X944Y330D01*
D02*
X944Y930D02*
X1094Y1078D01*
D02*
X944Y749D02*
X944Y930D01*
D02*
X1344Y1511D02*
X1344Y1289D01*
D02*
X1227Y529D02*
X1061Y439D01*
D02*
X1445Y1231D02*
X1445Y1411D01*
D02*
X1366Y1196D02*
X1445Y1231D01*
D02*
X844Y930D02*
X944Y1029D01*
D02*
X944Y1029D02*
X941Y1034D01*
D02*
X844Y729D02*
X844Y930D01*
D02*
X941Y1034D02*
X1094Y1178D01*
D02*
X944Y629D02*
X844Y729D01*
D02*
X944Y558D02*
X944Y629D01*
D02*
X943Y1130D02*
X1094Y1278D01*
D02*
X941Y1034D02*
X943Y1130D01*
D02*
X545Y729D02*
X438Y621D01*
D02*
X844Y729D02*
X545Y729D01*
D02*
X844Y1830D02*
X1286Y1801D01*
D02*
X643Y1829D02*
X744Y1829D01*
D02*
X545Y1829D02*
X643Y1829D01*
D02*
X744Y1829D02*
X844Y1830D01*
D02*
X444Y1829D02*
X545Y1829D01*
D02*
X423Y1729D02*
X444Y1829D01*
D02*
X1445Y931D02*
X1366Y851D01*
D02*
X1544Y931D02*
X1445Y931D01*
D02*
X1544Y1529D02*
X1544Y931D01*
D02*
X1344Y1629D02*
X1544Y1529D01*
D02*
X1146Y1690D02*
X1344Y1629D01*
D02*
X1344Y660D02*
X1344Y800D01*
D02*
X1344Y600D02*
X1344Y460D01*
D02*
X1444Y800D02*
X1444Y660D01*
D02*
X1444Y600D02*
X1444Y460D01*
G04 End of Copper0*
M02*