G04 MADE WITH FRITZING*
G04 WWW.FRITZING.ORG*
G04 DOUBLE SIDED*
G04 HOLES PLATED*
G04 CONTOUR ON CENTER OF CONTOUR VECTOR*
%ASAXBY*%
%FSLAX23Y23*%
%MOIN*%
%OFA0B0*%
%SFA1.0B1.0*%
%ADD10C,0.084000*%
%ADD11C,0.049370*%
%ADD12C,0.085000*%
%ADD13C,0.089370*%
%ADD14C,0.088000*%
%ADD15C,0.075000*%
%ADD16R,0.088000X0.088000*%
%LNMASK1*%
G90*
G70*
G54D10*
X244Y1630D03*
X244Y1730D03*
X244Y1830D03*
G54D11*
X144Y1630D03*
X44Y1830D03*
X144Y1530D03*
X244Y230D03*
X644Y830D03*
X944Y730D03*
X844Y1030D03*
X1544Y530D03*
X1044Y430D03*
X1244Y538D03*
X1544Y1930D03*
X1344Y1530D03*
X1444Y1430D03*
G54D12*
X544Y630D03*
X844Y630D03*
X544Y630D03*
X844Y630D03*
X944Y530D03*
X544Y530D03*
X944Y530D03*
X544Y530D03*
G54D13*
X416Y1699D03*
X416Y1599D03*
X416Y1499D03*
X416Y1399D03*
X416Y1299D03*
X416Y1199D03*
X416Y1099D03*
X416Y999D03*
X416Y899D03*
X416Y799D03*
X416Y699D03*
X416Y599D03*
X1116Y1699D03*
X1116Y1599D03*
X1116Y1499D03*
X1116Y1399D03*
X1116Y1299D03*
X1116Y1199D03*
X1116Y1099D03*
X1116Y999D03*
X1116Y899D03*
X1116Y799D03*
X1116Y699D03*
X1116Y599D03*
G54D14*
X444Y430D03*
X544Y430D03*
G54D13*
X1144Y230D03*
X1044Y230D03*
X944Y230D03*
X844Y230D03*
X744Y230D03*
X644Y230D03*
X544Y230D03*
X444Y230D03*
X344Y230D03*
G54D14*
X1444Y430D03*
X1344Y430D03*
X1244Y430D03*
X1444Y630D03*
X1344Y630D03*
X1244Y630D03*
X1444Y830D03*
X1344Y830D03*
X1244Y830D03*
G54D15*
X1344Y1030D03*
X1344Y1108D03*
X1344Y1187D03*
X1344Y1266D03*
G54D14*
X716Y1499D03*
X816Y1499D03*
X716Y1499D03*
X816Y1499D03*
G54D13*
X744Y1330D03*
X844Y1330D03*
X744Y1330D03*
X844Y1330D03*
G54D14*
X1416Y1799D03*
X1316Y1799D03*
G54D16*
X444Y430D03*
X1444Y430D03*
X1444Y630D03*
X1444Y830D03*
X1416Y1799D03*
G04 End of Mask1*
M02*